<svg version="1.1" xmlns="http://www.w3.org/2000/svg" xmlns:xlink="http://www.w3.org/1999/xlink" width="600" height="600" style="width: 600px; height: 600px;"><defs><clipPath id="PWZidnUsPfOZ"><path fill="none" stroke="none" d=" M 113 5 L 570 5 L 570 516 L 113 516 L 113 5 Z"/></clipPath><clipPath id="KSGTEztrpvXR"><path fill="none" stroke="none" d=" M 113 5 L 570 5 L 570 516 L 113 516 L 113 5 Z"/></clipPath><clipPath id="zxfvueTLJnXT"><path fill="none" stroke="none" d=" M 113 5 L 570 5 L 570 516 L 113 516 L 113 5 Z"/></clipPath><clipPath id="uNCyGmgGLzkV"><path fill="none" stroke="none" d=" M 113 5 L 570 5 L 570 516 L 113 516 L 113 5 Z"/></clipPath><clipPath id="spUwscLTyaXp"><path fill="none" stroke="none" d=" M 113 5 L 570 5 L 570 516 L 113 516 L 113 5 Z"/></clipPath><clipPath id="lHOBkPRGcXOn"><path fill="none" stroke="none" d=" M 113 5 L 570 5 L 570 516 L 113 516 L 113 5 Z"/></clipPath><clipPath id="qvxItyuEdNzE"><path fill="none" stroke="none" d=" M 113 5 L 570 5 L 570 516 L 113 516 L 113 5 Z"/></clipPath><clipPath id="WqnmaJTAnMGP"><path fill="none" stroke="none" d=" M 113 5 L 570 5 L 570 516 L 113 516 L 113 5 Z"/></clipPath><clipPath id="GaNcaUHutwVD"><path fill="none" stroke="none" d=" M 113 5 L 570 5 L 570 516 L 113 516 L 113 5 Z"/></clipPath><clipPath id="zqgJJldABfyz"><path fill="none" stroke="none" d=" M 113 5 L 570 5 L 570 516 L 113 516 L 113 5 Z"/></clipPath><clipPath id="ptGOpwwghnnF"><path fill="none" stroke="none" d=" M 113 5 L 570 5 L 570 516 L 113 516 L 113 5 Z"/></clipPath><clipPath id="NxdBpsbDmbST"><path fill="none" stroke="none" d=" M 113 5 L 570 5 L 570 516 L 113 516 L 113 5 Z"/></clipPath></defs><g><g transform="scale(1,1) translate(0.5,0.5)"><rect fill="#FFFFFF" stroke="none" x="0" y="0" width="600" height="600"/><rect fill="#ffffff" stroke="none" x="0" y="0" width="600" height="600"/><rect fill="#FFFFFF" stroke="none" x="113" y="5" width="457" height="511"/><rect fill="#ffffff" stroke="none" x="113" y="5" width="457" height="511"/><g><rect fill="none" stroke="#e5e5e5" x="113" y="5" width="457" height="511" stroke-linejoin="bevel" stroke-miterlimit="10"/></g><g clip-path="url(#PWZidnUsPfOZ)"><g><g><path fill="none" stroke="#e5e5e5" paint-order="fill stroke markers" d=" M 365 516 L 365 5" stroke-linejoin="bevel" stroke-miterlimit="10"/><path fill="none" stroke="#e5e5e5" paint-order="fill stroke markers" d=" M 453 516 L 453 5" stroke-linejoin="bevel" stroke-miterlimit="10"/><path fill="none" stroke="#e5e5e5" paint-order="fill stroke markers" d=" M 505 516 L 505 5" stroke-linejoin="bevel" stroke-miterlimit="10"/><path fill="none" stroke="#e5e5e5" paint-order="fill stroke markers" d=" M 542 516 L 542 5" stroke-linejoin="bevel" stroke-miterlimit="10"/></g></g></g><g clip-path="url(#KSGTEztrpvXR)"><g><g><path fill="none" stroke="#e5e5e5" paint-order="fill stroke markers" d=" M 113 486 L 570 486" stroke-linejoin="bevel" stroke-miterlimit="10"/><path fill="none" stroke="#e5e5e5" paint-order="fill stroke markers" d=" M 113 333 L 570 333" stroke-linejoin="bevel" stroke-miterlimit="10"/><path fill="none" stroke="#e5e5e5" paint-order="fill stroke markers" d=" M 113 180 L 570 180" stroke-linejoin="bevel" stroke-miterlimit="10"/><path fill="none" stroke="#e5e5e5" paint-order="fill stroke markers" d=" M 113 27 L 570 27" stroke-linejoin="bevel" stroke-miterlimit="10"/></g></g></g><g clip-path="url(#zxfvueTLJnXT)"><g><g fill="#444444"><path fill="" stroke="none" d=""/><g transform="translate(321.5741659579544,373.99661582234245) rotate(0,0,0)"><path fill="none" stroke="none"/><text fill="" stroke="none" font-family="helvetica" font-size="17pt" font-style="normal" font-weight="normal" text-decoration="normal" x="0" y="0" text-anchor="start" dominant-baseline="text-after-edge">(1.58e-3, 8.5e-3)</text></g></g></g></g><g clip-path="url(#uNCyGmgGLzkV)"><g><g fill="#444444"><path fill="" stroke="none" d=""/><g transform="translate(119.73726914300146,328.19765719280736) rotate(0,0,0)"><path fill="none" stroke="none"/><text fill="" stroke="none" font-family="helvetica" font-size="19pt" font-style="normal" font-weight="normal" text-decoration="normal" x="0" y="0" text-anchor="start" dominant-baseline="text-after-edge">Female mean: 5.43e-4(±3e-4)</text></g></g><g fill="#444444"><path fill="" stroke="none" d=""/><g transform="translate(119.73726914300146,296.9671429158502) rotate(0,0,0)"><path fill="none" stroke="none"/><text fill="" stroke="none" font-family="helvetica" font-size="19pt" font-style="normal" font-weight="normal" text-decoration="normal" x="0" y="0" text-anchor="start" dominant-baseline="text-after-edge">Male mean: 5.26e-4(±3.2e-4)</text></g></g></g></g><g clip-path="url(#spUwscLTyaXp)"><g><g><path fill="none" stroke="none"/><path fill="none" stroke="blue" paint-order="fill stroke markers" d=" M 136.5675836665307 28.33800630791245 L 137.1136000815838 28.42666194431098 L 137.42756278109997 28.515436025148745 L 137.62074858376002 28.60432886733406 L 137.70353336367154 28.693340789048932 L 137.99436249807468 28.782472109755474 L 138.71642740549615 28.871723150203536 L 138.72704701681553 28.96109423243678 L 138.95443802068823 29.05058567980035 L 139.25137072129303 29.140197816947477 L 140.0639578171271 29.229930969846578 L 141.52813674551456 29.319785465788527 L 143.19517576912725 29.409761633393884 L 145.46035464342594 29.499859802619767 L 145.80894018653515 29.59008030476747 L 147.55135072112333 29.680423472489508 L 152.1316144556687 29.770889639797076 L 156.08315150478847 29.86147914206765 L 158.17639441013108 29.952192316051992 L 159.15133626648634 30.04302949988221 L 159.24713595664988 30.133991033078814 L 160.9811746625117 30.225077256558734 L 161.67287813068347 30.316288512642757 L 161.87284224493862 30.407625145063264 L 164.25543181079416 30.499087498972074 L 164.65435992760183 30.590675920948115 L 167.55236182695194 30.682390759005727 L 169.02617753659464 30.774232362601992 L 170.34559428149043 30.866201082645205 L 171.27252541979368 30.9582972715026 L 176.87372753436716 31.050521283008777 L 178.9868635592935 31.32796381394388 L 188.601490309227 31.420702684020114 L 190.67007551720772 31.513571168212707 L 192.3287723934232 31.606569629332455 L 194.48670043006308 31.699698431715717 L 194.99960444300999 31.792957941233055 L 196.39756580747505 31.886348525297308 L 196.54870137037062 31.979870552873024 L 196.72946576630184 32.073524394484764 L 199.56067233313445 32.16731042222591 L 200.92793044500883 32.261229009767646 L 202.39160679804635 32.35528053236794 L 204.3690040616724 32.449465366880474 L 205.79787060029682 32.54378389176361 L 207.1944780607754 32.63823648708973 L 210.3222848836508 32.73282353455426 L 210.80489312101605 32.82754541748483 L 211.04507808224906 32.92240252085094 L 213.09449244328334 33.01739523127304 L 214.16223449995323 33.11252393703205 L 216.96973960461278 33.20778902807899 L 217.86805488246114 33.30319089604444 L 218.57340038290616 33.398729934248365 L 223.48890021739624 33.49440653770955 L 223.96809852951932 33.59022110315573 L 225.75576991090279 33.68617402903328 L 226.35464403924158 33.7822657155171 L 228.4151834123531 33.87849656452107 L 228.50466147913357 33.97486697970726 L 229.44540719006355 34.07137736649702 L 229.81421561271293 34.168028132080735 L 230.0117907075612 34.264819685427995 L 230.15752724031552 34.361752437298435 L 230.2600703203589 34.458826800251984 L 232.18122098839245 34.55604318865909 L 235.13687363607622 34.653402018711915 L 235.51496874725848 34.75090370843452 L 235.53189457981597 34.84854867769394 L 236.75936010009286 34.94633734821082 L 237.10521330997585 35.0442701435706 L 237.19719314967622 35.14234748923428 L 238.04472063470297 35.240569812549666 L 238.35184376114537 35.33893754276238 L 239.45233136716462 35.437451111027315 L 239.52627103926545 35.53611095041987 L 239.92180731794355 35.63491749594726 L 242.6771176162092 35.73387118456037 L 243.20112010897282 35.83297245516496 L 243.98630531237222 35.93222174863348 L 244.26463697150416 36.03161950781697 L 244.6239300675421 36.13116617755679 L 245.91648293665037 36.23086220469645 L 246.12164412789036 36.33070803809409 L 247.57220714941616 36.43070412863409 L 248.32202191055757 36.530850929239364 L 251.06948945750153 36.63114889488406 L 251.5818666162908 36.73159848260559 L 253.0086392472207 36.83220015151721 L 253.7748660504754 36.93295436282068 L 253.8228035849415 37.03386157981896 L 254.1124199678055 37.1349222679288 L 254.32503924373344 37.23613689469386 L 254.46271973140728 37.3375059297976 L 255.97924146902858 37.43902984507628 L 255.9968748866216 37.54070911453226 L 256.0591617216978 37.642544214347254 L 256.65279736894195 37.744535622895626 L 257.1286184955694 37.846683820757846 L 257.503160169132 37.948989290734346 L 257.6464388190908 38.05145251785876 L 257.78574461731046 38.15407398941227 L 258.43570480361336 38.25685419493709 L 259.34674233622843 38.35979362625062 L 260.03907350668567 38.46289277745956 L 261.31151045336924 38.566152144974126 L 261.8306630834876 38.669572227522394 L 261.9267310293127 38.77315352616483 L 262.9106696168724 38.876896544308806 L 263.2379046015127 38.98080178772301 L 264.08240289766 39.08486976455288 L 264.1950486265063 39.1891009853349 L 264.48199711240846 39.29349596301182 L 264.9131356765451 39.398055212947895 L 265.85758186368713 39.50277925294421 L 266.19976343029305 39.60766860325384 L 266.3036613084472 39.71272378659728 L 266.5389833643228 39.81794532817872 L 266.6949540346641 39.92333375570087 L 268.5550949248809 40.02888959938167 L 268.9415670804536 40.134613391969594 L 269.39251510376954 40.24050566876036 L 269.4545261552486 40.346566967613 L 269.78149390433674 40.45279782896603 L 271.50210692869643 40.55919879585423 L 271.5745219864026 40.665770413925145 L 271.65291270415867 40.77251323145617 L 272.3820061551478 40.879427799371 L 273.5769536424697 40.986514671257055 L 274.2479543993321 41.09377440338261 L 274.4437115461205 41.20120755471413 L 276.0923476283332 41.30881468693332 L 276.5637424286949 41.4165963644557 L 276.75033209972435 41.52455315444746 L 277.39726501675443 41.632685626843795 L 277.6788154784159 41.74099435436682 L 277.99536318340006 41.84947991254387 L 278.1775658803229 41.95814287972581 L 278.3321214790484 42.06698383710557 L 278.7633049252099 42.17600336873659 L 278.98223921872966 42.285202061551956 L 279.0159157530543 42.39458050538309 L 279.3571361079852 42.50413929297906 L 279.4754511077658 42.61387902002565 L 280.41428847202144 42.723800285164884 L 280.67519488500204 42.83390369001495 L 281.3079952678078 42.944189839189164 L 281.4337938293428 43.05465934031673 L 281.50731244123654 43.16531280406241 L 281.9627169491713 43.27615084414663 L 283.8078786513648 43.38717407736647 L 284.9663063554203 43.498383123615554 L 285.2915902131648 43.60977860590543 L 286.22904424054786 43.72136115038603 L 286.639508579564 43.833131386367086 L 287.2208276768333 43.945089946339635 L 287.24954352035235 44.05723746599648 L 287.4462705249845 44.169574584255315 L 287.8330460494541 44.282101943279486 L 288.1781452549854 44.39482018850032 L 288.4957936721754 44.50772996863941 L 288.61875168031713 44.62083193573102 L 288.8230529132373 44.73412674514475 L 289.3014976032706 44.84761505560783 L 290.46711319355165 44.961297529228716 L 290.7088509932012 45.0751748315202 L 290.782415571417 45.18924763142229 L 290.8661566863277 45.30351660132618 L 291.66143447031345 45.417982417098074 L 291.94143922215176 45.532645758102944 L 292.60637788047165 45.64750730722898 L 293.40758228954974 45.76256775091167 L 293.97255011124037 45.87782777915868 L 294.39958529422177 45.99328808557459 L 294.8374811019427 46.108949367386 L 295.4443764805531 46.22481232546642 L 295.82231375399135 46.34087766436261 L 296.1342272005472 46.45714609231919 L 296.37811359130205 46.57361832130556 L 297.90013440578815 46.69029506704129 L 298.2520597062634 46.80717704902298 L 298.71437476683025 46.92426499055091 L 298.78604335972534 47.04155961875523 L 298.82890776543985 47.15906166462423 L 298.9238827957648 47.27677186303032 L 298.9592526297961 47.39469095275882 L 299.46237333208467 47.512819676535 L 299.6136485726213 47.63115878105231 L 300.3838362070585 47.749709017000896 L 300.5284612138325 47.86847113909607 L 301.1604567547441 47.9874459061071 L 301.31991905855375 48.10663408088624 L 301.7820452923695 48.226036430398324 L 301.89789876175416 48.34565372575008 L 302.328469645303 48.46548674222021 L 305.51517124782396 48.58553625928948 L 305.5712152423482 48.70580306067103 L 306.0901078425484 48.826287934341224 L 306.74236065402215 48.946991672570846 L 307.4238854137303 49.067915071955554 L 307.6586588698161 49.18905893344839 L 307.8743409101044 49.31042406239112 L 308.22990203655036 49.43201126854632 L 308.3523088310186 49.55382136612991 L 308.70748964524137 49.6758551738439 L 309.03508992306763 49.79811351490929 L 309.13893829040376 49.9205972170995 L 309.56477474924793 50.04330711277407 L 309.6840537070689 50.16624403891234 L 309.7412336059955 50.289408837147846 L 309.94929872706723 50.412802353802874 L 310.35208803354084 50.536425439923676 L 310.55938845153435 50.66027895131492 L 312.06225939535886 50.78436374857603 L 312.18013210397044 50.90868069713662 L 313.05133265032066 51.03323066729291 L 313.2606988185935 51.158014534244046 L 313.33728928019076 51.283033178129415 L 313.88760000513577 51.4082874840654 L 314.03093474279683 51.53377834218327 L 314.44577982025385 51.659506647667115 L 314.6976020268186 51.785473300792205 L 314.7680438621194 51.911679206963356 L 314.9703377045908 52.0381252767545 L 315.26812738991146 52.16481242594756 L 315.2977195802391 52.29174157557259 L 315.7098077390091 52.41891365194806 L 315.7475310615465 52.54632958672079 L 315.9637288274758 52.67399031690775 L 316.41338047562215 52.801896784936844 L 316.89586936523915 52.930049938688626 L 317.6053308248079 53.058450731538755 L 318.72685169774104 53.18710012240058 L 318.89209331742563 53.31599907576759 L 318.98911365838 53.44514856175755 L 319.4585683974351 53.57454955615549 L 319.5920675508012 53.70420304045871 L 319.90979119744765 53.83411000192092 L 321.40758425785367 53.9642714335975 L 321.42176049084037 54.09468833439115 L 321.61316578286846 54.225361709097854 L 322.7486028792846 54.35629256845317 L 324.49913014611883 54.48748192917941 L 324.61245749867635 54.61893081403258 L 324.8366985159274 54.750640251850825 L 324.8409562037464 54.882611277602166 L 326.1905333045337 55.014844932433675 L 326.52773536372194 55.14734226372053 L 326.6204522876903 55.28010432511593 L 327.92262456591317 55.41313217660144 L 328.5393024304608 55.546426884537595 L 328.79970861059354 55.67998952171513 L 329.4832282029723 55.81382116740707 L 330.01230713737664 55.94792290742072 L 330.8865880529134 56.082295834150955 L 330.9437503824988 56.21694104663317 L 331.1772591213382 56.35185965059742 L 331.2308797853461 56.48705275852291 L 331.35458970787266 56.622521489692986 L 332.8225470892039 56.758266970250816 L 333.15814522963126 56.89429033325558 L 333.5615855428964 57.030592718738774 L 333.57653215022526 57.16717527376227 L 334.4760523699686 57.30403915247581 L 335.1127756703093 57.44118551617555 L 335.24314758738126 57.57861553336312 L 335.4752912044136 57.71633037980553 L 335.57264501435634 57.85433123859548 L 335.8485395510627 57.99261930021231 L 335.87079967930833 58.131195762583616 L 336.53448247350195 58.270061831147416 L 336.80819316217355 58.40921871891533 L 336.85158563896846 58.54866764653599 L 337.0701606657419 58.688409842359135 L 337.58192726314803 58.8284465425009 L 337.67406234209034 58.96877899090907 L 338.8763604736788 59.10940843942939 L 339.0517846456878 59.2503361478731 L 339.08701377738396 59.39156338408395 L 339.14979803750623 59.53309142400701 L 339.3034806886599 59.674921551757734 L 339.48993251943034 59.817055059691995 L 340.48361522369254 59.95949324847663 L 340.63387290066885 60.10223742716073 L 340.6821837253643 60.24528891324803 L 340.7435941654915 60.38864903277005 L 340.81875658240733 60.53231912035926 L 340.9956282126775 60.67630051932423 L 341.34825584167095 60.82059458172466 L 341.4505708339386 60.96520266844743 L 341.5286286136714 61.11012614928427 L 341.57275032100574 61.25536640300862 L 341.7032546407578 61.40092481745552 L 341.83235809710527 61.54680278959995 L 341.9535768089918 61.69300172563811 L 342.41086765786645 61.839523041068446 L 343.14160540346415 61.986368160774134 L 343.2943906919957 62.1335385191058 L 343.78171621343597 62.281035559965915 L 343.8707987966028 62.428860736893625 L 344.47093247784557 62.577015513150855 L 344.5143031803524 62.72550136180894 L 344.5388544467811 62.874319765837015 L 344.5566910346756 63.02347221819025 L 344.57216899094124 63.17296022190004 L 344.607315447244 63.322785290165086 L 345.26798299302004 63.472948946442955 L 345.2749601016334 63.62345272454297 L 345.52736868623475 63.77429816872075 L 345.68749837744656 63.92548683377265 L 346.46299986533757 64.07702028513228 L 346.7002493277762 64.22890009896781 L 346.9028344625053 64.38112786227987 L 346.97357340636734 64.53370517300164 L 346.99026492445773 64.68663364009922 L 347.0286497160627 64.83991488367326 L 347.7959133748284 64.9935505350623 L 348.20834890269964 65.14754223694672 L 348.520760477585 65.30189164345416 L 348.5788513017689 65.45660042026617 L 348.5886445598578 65.61167024472599 L 349.7746307590407 65.76710280594767 L 350.16978108137096 65.9228998049266 L 350.1849264776856 66.07906295465114 L 350.23841462287027 66.23559398021536 L 350.7727078725436 66.39249461893394 L 350.79120841147267 66.54976662045738 L 351.08698922552054 66.70741174688919 L 351.088376154972 66.86543177290446 L 351.13566306177916 67.02382848586967 L 351.1722081392253 67.1826036859639 L 351.30486410454756 67.34175918630183 L 351.4241212784891 67.5012968130577 L 352.475731078555 67.66121840559123 L 352.48460231199834 67.82152581657459 L 352.8462258828366 67.98222091212159 L 353.1035051084167 68.14330557191755 L 353.21188793345766 68.30478168935196 L 353.2646756847518 68.466651171651 L 353.2920029429374 68.62891594001348 L 353.3577710913709 68.7915779297474 L 353.8610017660541 68.95463909040848 L 353.9337606403585 69.11810138594012 L 354.16901811849465 69.2819667948159 L 355.2871563833846 69.4462373101826 L 355.8088552716415 69.61091494000601 L 356.0576582897048 69.77600170721848 L 356.4164918248197 69.94149964986713 L 356.48277213536767 70.10741082126594 L 356.74408230091694 70.27373729014766 L 357.2095580510384 70.44048114081909 L 357.3215863616584 70.60764447331792 L 357.3782969941843 70.77522940357068 L 357.99887739306337 70.94323806355447 L 358.0148977451923 71.11167260145885 L 358.11094555121565 71.28053518185112 L 358.2606487424199 71.44982798584294 L 358.40865446654965 71.6195532112597 L 358.47981490178927 71.78971307281131 L 358.61366716494155 71.96030980226612 L 358.8530922892035 72.13134564862577 L 359.10256089684344 72.30282287830408 L 359.10767296685185 72.47474377530654 L 359.29345044731735 72.6471106414129 L 359.3812693635565 72.81992579636227 L 359.5815916191077 72.99319157804064 L 360.4036870565081 73.16691034267001 L 360.4314920206304 73.34108446500142 L 360.47063878036374 73.5157163385091 L 360.53050407928765 73.69080837558812 L 360.6180516890511 73.86636300775439 L 360.9636066907521 74.04238268584703 L 361.0103952842976 74.21886988023391 L 361.04434999497107 74.39582708101955 L 361.6060643441539 74.57325679825578 L 361.7625444147285 74.75116156215603 L 362.55344869376245 74.92954392331063 L 362.6343219125694 75.10840645290745 L 362.86613871590816 75.28775174295367 L 363.4592116829373 75.46758240650098 L 363.52178224794636 75.64790107787456 L 363.63668152088707 75.82871041290417 L 363.7911500982433 76.01001308915914 L 365.2005096122514 76.19181180618591 L 365.2829969691097 76.37410928574991 L 365.6399978295568 76.55690827207911 L 366.7526278352829 76.74021153211282 L 367.2596899086302 76.9240218557523 L 367.7412853799792 77.10834205611587 L 368.09596464820515 77.29317496979724 L 368.14688284250593 77.47852345712721 L 368.2417971218232 77.66439040243955 L 368.31882562248035 77.85077871434015 L 368.5390580509407 78.03769132598018 L 368.5638928872986 78.22513119533295 L 368.8220760868717 78.41310130547504 L 369.0167770548757 78.6016046648707 L 369.13458177896734 78.79064430766135 L 369.27900424189846 78.98022329395809 L 369.6975116324383 79.17034471013915 L 369.73527221070424 79.3610116691516 L 370.3239858338539 79.55222731081665 L 371.0582348733985 79.74399480214043 L 371.2567649786863 79.93631733762811 L 371.61481396628807 80.12919813960411 L 371.6532054644316 80.32264045853509 L 372.09491948637856 80.51664757335908 L 372.3139565075454 80.71122279181901 L 372.3917653512114 80.90636945080098 L 372.4436740375338 81.1020909166777 L 372.56724636245895 81.29839058565676 L 372.808826266319 81.49527188413441 L 373.4157669383097 81.69273826905436 L 373.49153669690895 81.89079322827206 L 373.942780834251 82.08944028092412 L 374.6129385822994 82.2886829778036 L 374.7337210765352 82.48852490174119 L 374.81374880028386 82.68896966799116 L 375.1354896111991 82.89002092462431 L 375.2642068813393 83.091682352926 L 375.65273379620743 83.29395766780101 L 375.7363260483972 83.49685061818337 L 375.83623877046557 83.70036498745435 L 375.88840526343347 83.90450459386494 L 376.15324381730113 84.10927329096586 L 376.36486428058765 84.31467496804419 L 376.4400221958611 84.52071355056665 L 376.52388475254486 84.72739300062955 L 376.6446985492841 84.9347173174159 L 377.28793450413906 85.14269053765997 L 377.8584217392891 85.35131673611892 L 378.0462377442522 88.1248046102126 L 378.39066114433734 88.34302283465905 L 378.4756944025178 88.56196006608616 L 378.4970055591627 88.78162105827204 L 378.59851146169115 89.00201061229632 L 378.93488353950994 89.2231335771695 L 379.072923528022 89.44499485047356 L 379.1199258612484 89.66759937901253 L 379.1821841610785 89.89095215947424 L 379.225475895701 90.11505823910363 L 379.2752202517559 90.33992271638652 L 379.4448584512532 90.5655507417465 L 379.66383132195193 90.79194751825185 L 379.7798142317392 91.01911830233587 L 379.9782594952424 91.24706840452939 L 380.04097158774647 91.47580319020517 L 380.6397228687141 91.70532808033607 L 380.6907120399075 91.93564855226583 L 380.70669815038895 92.1667701404931 L 380.82476565858246 92.39869843746976 L 380.8819471139764 92.63143909441266 L 380.9859757420628 92.86499782213008 L 380.99240716042283 93.09938039186238 L 381.25311818969885 93.33459263613747 L 381.3032864136931 93.5706404496421 L 381.7487351088432 93.80752979010799 L 382.05146352722784 94.0452666792142 L 382.09082373395904 94.28385720350542 L 382.63967783189804 94.5233075153273 L 382.65385983071974 94.76362383377813 L 382.67533086815223 95.00481244567789 L 382.79141612808115 95.24687970655555 L 382.84337306209613 95.48983204165341 L 382.84422684879644 95.733675946951 L 382.85421804306725 95.97841799020665 L 383.16046859199804 96.22406481201949 L 383.21893976252954 96.47062312691003 L 383.26422393050325 96.71809972442196 L 383.4115549662588 96.96650147024371 L 383.4865668273033 97.21583530735114 L 383.5071761342639 97.4661082571725 L 383.6417136688264 97.71732742077427 L 383.975302111845 97.96949998007057 L 384.184729234326 98.22263319905466 L 384.3083752839708 98.47673442505516 L 384.30953576951475 98.7318110900149 L 384.3266282340373 98.98787071179572 L 384.40031404587404 99.24492089550768 L 384.4666908688028 99.50296933486464 L 384.60056880263386 99.76202381356586 L 384.89334755607047 100.0220922067046 L 385.14526956185256 100.28318248220495 L 385.34887760460504 100.5453027022865 L 385.6610928244846 100.80846102495792 L 385.70855356938915 101.07266570554077 L 385.80305884824264 101.33792509822308 L 386.2233871182826 101.60424765764475 L 386.39212149349424 101.87164194051411 L 386.8639575439827 102.14011660725805 L 387.10092993222514 102.40968042370451 L 387.149315582173 102.68034226280014 L 387.39795041541305 102.95211110636257 L 387.42726030729136 103.22499604686942 L 387.91333428556095 103.49900628928265 L 387.977105876726 103.77415115291262 L 388.1688406833933 104.05044007331946 L 388.3149369599808 104.32788260425446 L 388.44401666887643 104.60648841964309 L 389.25138571002844 104.88626731560794 L 389.3861104835629 105.16722921253654 L 389.4317028316931 105.44938415719105 L 389.53795935381163 105.73274232486483 L 389.91258415449977 106.01731402158367 L 390.2181939423916 106.30310968635513 L 390.26753307709146 106.59013989346636 L 390.60674586298325 106.87841535483165 L 391.02074818782955 107.16794692239125 L 391.09848671661155 107.45874559056267 L 391.1211272350628 107.75082249874521 L 391.26451507750323 108.04418893388129 L 391.3313910610784 108.33885633307307 L 391.5478765982936 108.63483628625795 L 392.0291334822931 108.93214053894411 L 392.59742065110146 109.23078099500714 L 392.6065854362357 109.53076971955 L 392.8507025036675 109.8321189418279 L 393.54921909430107 110.13484105823937 L 393.6208905383449 110.43894863538696 L 393.7831484547391 110.74445441320631 L 394.02444624123365 111.05137130816934 L 395.11889377871984 111.35971241656125 L 395.17705009597887 111.66949101783308 L 395.2567738989565 111.98072057803364 L 395.2637942604305 112.2934147533224 L 395.52062681965305 112.60758739356447 L 395.6596770808105 112.92325254601155 L 395.7933543942565 113.24042445907105 L 396.8936961476068 113.5591175861648 L 397.0987474626691 113.87934658968163 L 397.2145187052712 114.20112634502465 L 397.7199567958527 114.52447194475809 L 397.9679853090436 114.84939870285456 L 398.0927633807934 115.17592215904722 L 398.2561050298405 115.50405808328964 L 398.37421912138416 115.83382248032552 L 398.7353657010293 116.16523159437298 L 399.3875132422497 116.49830191392624 L 399.6109859526262 116.83305017667777 L 399.7860285674059 117.169493374566 L 399.89637524787474 117.50764875894998 L 400.2985826481948 117.8475338459184 L 400.34898840139755 118.18916642173292 L 400.41761113817853 118.53256454841363 L 400.46310593351274 118.87774656946937 L 400.63135117622784 119.2247311157771 L 401.382316511334 119.57353711161619 L 401.8485698670082 119.92418378086148 L 401.91171612450853 120.276690653341 L 402.50295830617443 120.63107757136294 L 403.4582183525987 120.98736469641767 L 403.4987832387989 121.34557251606071 L 403.6120798689694 121.70572185098166 L 404.4268790785371 122.06783386226613 L 404.4518942853743 122.43193005885695 L 404.4736501729012 122.79803230521992 L 404.70329272239394 123.16616282922297 L 405.117850547384 123.5363442302343 L 405.17260377270304 123.90859948744725 L 405.1871059549817 124.28295196844005 L 405.25334654249707 124.6594254379778 L 405.7235471059296 125.03804406706519 L 405.8240475609644 125.41883244225869 L 405.95404781226324 125.80181557524747 L 406.19543287654216 126.18701891271127 L 406.54555108290697 126.57446834646618 L 406.81715039364326 126.96419022390819 L 406.93912193811525 127.35621135876386 L 406.98011201564634 127.75055904216151 L 407.24360733350176 128.14726105403116 L 407.73793332662916 128.54634567484828 L 407.7564074494797 128.94784169773135 L 407.91151460373743 129.35177844090805 L 407.9843188718559 129.7581857605615 L 408.9467396189168 130.16709406407296 L 409.35555535724245 130.57853432367375 L 412.0938878542729 130.99253809052294 L 412.3921563811428 131.40913750922596 L 412.97753241442564 131.82836533281153 L 413.03855499704633 132.2502549381838 L 413.28556521081447 132.67484034206842 L 413.33979592210596 133.10215621747125 L 413.3433297112532 133.5322379106699 L 413.6017507897074 133.96512145875806 L 414.041169255773 134.40084360776615 L 414.15564803367187 134.83944183137913 L 414.60323842467307 135.28095435027655 L 415.1081463717922 135.72542015211957 L 415.1088809690734 136.17287901221067 L 415.25982988777133 136.6233715148536 L 416.2122034702271 137.07693907544297 L 416.3019300398146 137.53362396331232 L 416.6524827165713 137.99346932537293 L 416.92533049021154 138.4565192105768 L 417.13895357991873 138.9228185952373 L 417.1590940403091 139.39241340924457 L 417.43672958644595 139.86535056321515 L 417.65180577229535 140.34167797661252 L 418.28155594974106 140.82144460688522 L 418.3001432115181 141.30470047966259 L 418.4716548167718 141.79149672005803 L 418.6520614869794 142.28188558512653 L 419.83371221735956 142.7759204975291 L 419.9768321020379 143.2736560804583 L 420.53006963121237 143.77514819388136 L 420.83171109025 144.2804539721618 L 420.95324456867723 144.789631863122 L 421.0715714459794 145.30274166861477 L 421.12703341187915 145.81984458667296 L 421.2541787421023 146.3410032553121 L 421.3324635542074 146.86628179806502 L 421.4218350315183 147.39574587133018 L 421.4275501638135 147.92946271362126 L 421.44940960603805 148.4675011968116 L 421.69460061289124 149.00993187946966 L 422.11166813562147 149.55682706238974 L 422.28880741888076 150.1082608464265 L 422.5310494685396 150.66430919275024 L 424.063141174738 151.22504998564358 L 424.19240700225924 151.79056309797193 L 425.29736845422343 152.36093045946222 L 425.7333346957393 152.9362361279388 L 426.2372431335578 153.51656636366977 L 426.23796336625776 154.10200970698833 L 426.3892378733666 154.692657059365 L 426.45562696099216 155.28860176811423 L 426.59766191321074 155.889939714935 L 426.68045438640263 156.49676940849406 L 426.75299996622203 157.1091920812765 L 427.6428570105244 157.72731179094018 L 427.92888486643034 158.35123552642955 L 429.6100673591337 158.98107331911865 L 429.67679961774 159.61693835927196 L 429.9686610801544 160.2589471181318 L 429.996050583401 160.9072194759616 L 430.4310365792014 161.5618788563968 L 431.66844773202456 162.22305236748008 L 432.3974851871086 162.89087094978487 L 432.7786017865607 163.56546953205714 L 433.2495467883083 164.24698719484002 L 434.4625981155698 164.93556734257652 L 434.5726754446816 165.63135788472323 L 435.40215855088763 166.3345114264481 L 435.5121459931425 167.04518546952477 L 435.984917682979 167.7635426240887 L 436.75319358563524 168.48975083196405 L 436.9275537649842 169.22398360233012 L 437.1922578982063 169.96642026055434 L 437.5285075649551 170.7172462110849 L 437.62910522760023 171.4766532153658 L 437.7151656112698 172.2448396858183 L 438.43300155098717 173.02201099701517 L 438.91934995044477 173.8083798152686 L 439.0571996501134 174.60416644795532 L 439.13395658888305 175.4095992140152 L 439.5398379486529 176.22491483718 L 439.7452465982663 177.0503588636301 L 441.45541957209144 177.88618610591863 L 442.7717718388532 178.73266111517557 L 442.9922871931574 179.59005868377704 L 443.2655981959405 180.4586643808733 L 443.71500365683136 181.33877512338364 L 444.29403515943187 182.23069978531777 L 444.53121011156975 183.13475984855006 L 445.5311921908012 184.05129009847997 L 445.69087996752006 184.98063936834433 L 448.1090081191445 185.92317133632224 L 448.3835820148069 186.87926537999232 L 448.51024610725864 187.84931749316524 L 448.66991647417166 188.83374127063615 L 450.128598169918 189.83296896698846 L 450.65428457907376 190.8474526362291 L 451.41226910125863 191.87766535978 L 455.0453043347549 192.92410257117223 L 455.387026765456 193.98728348672824 L 455.746754217701 195.06775265257681 L 456.03579818738206 196.1660816195336 L 456.421977210696 197.28287075875073 L 457.5987535197265 198.41875123256926 L 457.62933075520937 199.5743871367768 L 459.0424190948741 200.75047783247214 L 459.24056078205876 201.94776048804204 L 459.82382475090753 203.16701285438364 L 460.73076411219097 204.4090562995366 L 461.15601477810065 205.67475913237905 L 461.56890946711616 206.9650402490687 L 461.91327661612183 208.28087314058723 L 464.08042450702044 209.62329030516435 L 464.33158575674366 210.9933881156835 L 464.72391569833707 212.3923321995552 L 466.00418671581434 213.8213633971958 L 467.251138178929 215.28180437543716 L 467.80217023005935 216.775066984192 L 468.0520884252642 218.3026604589254 L 468.2158846227002 219.8662005883757 L 468.24365967321046 221.4674199871223 L 468.3313666080987 223.1081796367372 L 470.5450752247589 224.79048188828256 L 471.35700337792326 226.51648515398034 L 473.07704028434097 228.28852055842492 L 475.1153482332643 230.10911087158718 L 475.41835858388777 231.98099210942928 L 475.43843023046617 233.90713826627217 L 477.59138513112146 235.8907897400956 L 478.63692351170636 237.93548613288715 L 479.4323110543963 240.0451042598355 L 480.9761609912821 242.22390239264064 L 481.1786776989194 244.47657200567636 L 482.4209240778425 246.80829860557924 L 482.82630990635164 249.22483362749068 L 482.9018618104674 251.7325799054862 L 485.13700957159546 254.33869391369421 L 486.82028758169065 257.0512088887906 L 486.91005561656783 259.87918417030295 L 487.0113615002118 262.83288775729915 L 487.0406359217154 265.9240213614829 L 487.87971935044703 269.1660004098442 L 488.3524384830561 272.5743059270874 L 490.3452778725637 276.1669316446943 L 492.5903761850049 279.9649590393795 L 495.04076213131526 283.993306905994 L 495.8943596210604 288.28172316574774 L 496.0426922185975 292.86611937868634 L 500.3213710437224 297.7904006785933 L 501.14601366014347 303.1090296618979 L 501.7984257117007 308.890708530406 L 507.80765395223864 315.22382118295127 L 510.2538291708001 322.22475241780137 L 510.4735657458654 330.0511276791015 L 510.50198179838344 338.9239401517938 L 512.836287572534 349.16685043500456 L 512.8737202273869 361.28164195605837 L 521.1510446415834 376.10894845220867 L 523.2048468830214 395.2246712081126 L 531.9435683892732 422.1667692253143 L 534.4818714949218 468.22458999842144" stroke-linejoin="bevel" stroke-miterlimit="10"/><path fill="none" stroke="none"/><path fill="none" stroke="blue" paint-order="fill stroke markers" d=" M 607.9192569971408 NaN" stroke-linejoin="bevel" stroke-miterlimit="10"/></g></g></g><g clip-path="url(#lHOBkPRGcXOn)"><g><g><path fill="none" stroke="none"/><path fill="none" stroke="red" paint-order="fill stroke markers" d=" M 136.5675836665307 28.227272727272748 L 137.29543254709205 28.28843001610312 L 137.3714723305107 28.34964364514309 L 137.57218732874222 28.410913718293443 L 137.88185457570358 28.472240339742598 L 137.98109310173504 28.53362361396796 L 138.80505787872025 28.59506364573656 L 140.06907512336295 28.656560540106227 L 140.71907126537212 28.71811440242692 L 142.9052061361564 28.779725338341677 L 143.31022440595336 28.841393453787532 L 144.5878518071045 28.903118854996762 L 146.56826657256488 28.96490164849814 L 153.65285969522805 29.026741941117507 L 157.09352070928657 29.088639839979635 L 157.3645344852423 29.150595452508753 L 157.91972953965885 29.212608886429848 L 163.1045777661903 29.274680249769858 L 163.27968763402075 29.336809650858697 L 163.45382247354587 29.398997198330505 L 167.11610719210879 29.4612430011245 L 167.49306962611024 29.523547168486743 L 174.06004682564355 29.58590980997053 L 175.77198467581468 29.64833103543799 L 180.41264910938537 29.710810955061163 L 184.2508535373753 29.773349679323246 L 188.70865882221352 29.83594731901968 L 188.9009471368429 29.89860398525923 L 192.46420822068734 29.96131978946528 L 193.11762826051125 30.0240948433771 L 197.73331369099645 30.086929259050862 L 198.36938631831396 30.149823148861003 L 201.63988503734953 30.212776625501306 L 203.7134317272113 30.275789801986036 L 204.19351001115928 30.338862791651593 L 207.0361837637319 30.401995708157244 L 208.88414439650876 30.465188665486494 L 208.88770183322833 30.528441777948387 L 209.71651317527076 30.591755160178707 L 213.18399255306798 30.65512892714139 L 217.4982169219337 30.718563194129445 L 218.15656452963992 30.782058076766532 L 218.49971522888183 30.845613691007827 L 220.436879594037 30.909230153141948 L 221.00670033467526 30.97290757979141 L 221.67912614053654 31.036646087914676 L 221.83881772025754 31.100445794807 L 221.85659420001213 31.164306818101636 L 222.19918830555886 31.22822927577164 L 222.30910362182473 31.292213286130675 L 222.52278633419192 31.356258967834492 L 223.1920454586782 31.420366439882514 L 223.70747883788965 31.484535821618465 L 223.85173456398218 31.548767232732644 L 223.93662691555153 31.613060793262548 L 224.4265883441809 31.67741662359441 L 224.7994137066033 31.741834844464847 L 225.09735765328338 31.806315576961538 L 226.21267033279372 31.870858942525388 L 226.27589361932974 31.935465062951437 L 226.50534451112426 32.000134060390224 L 227.20113923785374 32.06486605734938 L 227.31047133857226 32.129661176694924 L 227.33091394845832 32.19451954165254 L 227.77337236078955 32.25944127580931 L 230.29401645121155 32.324426503114694 L 233.6913044891453 32.38947534788241 L 233.92638233596415 32.45458793479139 L 234.52242698198052 32.51976438888744 L 234.95624818041807 32.58500483558504 L 237.2844145515915 32.65030940066805 L 237.459846316618 32.71567821029174 L 237.85468017929827 32.78111139098405 L 239.8712555777634 32.846609069647116 L 240.4902515495428 32.91217137355852 L 240.95774617933714 32.977798430373355 L 240.99257511864107 33.04349036812471 L 241.60010157093367 33.109247315226526 L 243.13757511702931 33.17506940047372 L 244.53534526502986 33.24095675304471 L 245.27989364259687 33.306909502502435 L 245.5730739288077 33.372927778796054 L 246.30266614887356 33.43901171226236 L 246.41871174942474 33.50516143362751 L 246.56451431448994 33.57137707400847 L 246.72321938088876 33.63765876491436 L 247.30781075358965 33.70400663824864 L 247.69071385654536 33.77042082630982 L 249.70243156784977 33.83690146179396 L 249.84045773978812 33.903448677795325 L 249.90648490964676 33.970062607808984 L 250.03923042625578 34.036743385731484 L 250.48706695869686 34.103491145863075 L 251.10706313224065 34.17030602290902 L 251.65629942537228 34.23718815198146 L 251.6668791864033 34.3041376686009 L 251.84552398421636 34.37115470869787 L 254.3149496018881 34.438239408614606 L 254.95012135493656 34.50539190510676 L 255.03676313352238 34.57261233534484 L 255.8536242909831 34.639900836916354 L 256.1253256976595 34.707257547827055 L 256.314444821121 34.77468260650272 L 256.537171959434 34.84217615179131 L 257.2182040542815 34.90973832296379 L 257.22600630689226 34.977369259716795 L 257.389878575368 35.045069102173784 L 259.2128918309026 35.112837990886874 L 260.66838017105795 35.180676066838885 L 261.3919442510042 35.24858347144476 L 261.6965019487465 35.31656034655333 L 262.1323076070312 35.384606834449414 L 263.42128176147685 35.45272307785524 L 263.80534746798094 35.520909219932605 L 266.0091756315717 35.5891654042843 L 266.4614341911602 35.657491774956156 L 267.0627752566902 35.725888476438854 L 267.70225963729183 35.794355653669754 L 267.768188040944 35.8628934520346 L 268.096667925507 35.93150201736944 L 268.10934308117413 36.00018149596275 L 268.552193506034 36.06893203455701 L 268.70130724851595 36.137753780350465 L 268.7859386391681 36.206646880999415 L 268.8372613192993 36.275611484619844 L 269.1565926737286 36.344647739789366 L 269.36509306626306 36.413755795549264 L 270.0935134609076 36.48293580140614 L 270.49839609073285 36.55218790733443 L 270.57511105500646 36.62151226377745 L 270.89888463211116 36.69090902165033 L 271.00759817032605 36.760378332341304 L 271.3944083666703 36.82992034771394 L 271.4999969421575 36.899535220109215 L 271.7739674311032 36.96922310234737 L 271.90412541792057 37.03898414772988 L 272.50178862107146 37.10881851004166 L 272.75749542520543 37.17872634355302 L 273.7541070598362 37.248707803021716 L 273.8715865473581 37.31876304369479 L 274.38061386532786 37.38889222131104 L 275.04906746258604 37.45909549210285 L 275.10038166921447 37.529373012798374 L 275.1140356101234 37.599724940623275 L 275.4929219566899 37.67015143330349 L 275.56145888268196 37.74065264906699 L 275.57899725423175 37.81122874664567 L 275.9249178828417 37.88187988527784 L 276.80859924790866 37.952606224710394 L 276.8114738465539 38.02340792520084 L 276.9476390289767 38.094285147519486 L 277.0308774375305 38.16523805295162 L 277.4157398553813 38.23626680329977 L 277.8527536749143 38.30737156088594 L 278.5178257822752 38.37855248855357 L 278.8864416448964 38.44980974967041 L 279.8884806126172 38.521143508130024 L 280.10479794251376 38.592553928354505 L 281.259429898096 38.664041175296575 L 282.6161900503562 38.735605414441864 L 282.70032993176784 38.80724681181147 L 283.04396245075003 38.87896553396388 L 283.4821935016251 38.95076174799755 L 283.9079986332865 39.02263562155315 L 283.97070850011687 39.094587322815926 L 284.07004695330545 39.16661702051806 L 284.3867646431757 39.23872488394119 L 284.39194759583484 39.310911082918494 L 284.75149902128305 39.38317578783722 L 285.02566897377983 39.45551916964126 L 286.11731259033064 39.52794139983354 L 286.36105568758944 39.6004426504781 L 286.4431067895696 39.67302309420302 L 286.7855032935407 39.74568290420257 L 287.7589531300415 39.81842225423992 L 288.41496848853797 39.891241318649406 L 288.52202918956584 39.96414027233919 L 288.95296657895506 40.03711929079378 L 289.80506359137866 40.110178550076455 L 290.57066700446046 40.183318226832 L 291.24050692153793 40.256538498288876 L 291.9632363097786 40.32983954226239 L 292.4319234368701 40.40322153715675 L 292.59150535056597 40.47668466196802 L 292.81241797515105 40.55022909628656 L 293.2946296868766 40.62385502029974 L 293.4016119373011 40.69756261479432 L 293.4804469848413 40.771352061159746 L 294.4701448839386 40.845223541390226 L 294.7291483853236 40.91917723808757 L 295.52758583934667 40.99321333446392 L 295.59476292280465 41.06733201434474 L 295.88107324135274 41.14153346217108 L 296.70799422697564 41.215817863002826 L 297.13581947441935 41.29018540252105 L 297.50125243580203 41.36463626703096 L 297.95104866360714 41.43917064346459 L 297.97856332822676 41.513788719384024 L 298.03106569370584 41.58849068298383 L 299.1634780355851 41.66327672309387 L 299.249945969102 41.73814702918247 L 299.39521917319746 41.81310179135892 L 299.5195000964007 41.88814120037688 L 299.81927099777045 41.96326544763673 L 300.61091225922473 42.03847472518896 L 300.98130785237686 42.1137692257368 L 301.0540000019052 42.189149142639394 L 301.08677118021444 42.264614669914636 L 301.8904635081182 42.34016600224214 L 302.3879834211763 42.41580333496654 L 302.4994878469189 42.49152686410008 L 302.6666395858017 42.56733678632622 L 302.85398225795905 42.64323329900196 L 304.1467047959751 42.719216600161644 L 304.58612394521776 42.79528688851968 L 305.2395300710342 42.8714443634737 L 305.34236745050424 42.94768922510781 L 305.69419927547057 43.02402167419547 L 305.75425878480246 43.100441912203166 L 306.05671261833004 43.17695014129305 L 306.46062123384786 43.253546564326484 L 306.6146630606255 43.33023138486709 L 307.39335086345966 43.40700480718431 L 307.8697134565239 43.483867036256186 L 307.9731384607218 43.56081827777302 L 308.00327443118795 43.63785873814055 L 308.0881556073861 43.7149886244834 L 308.42076133269325 43.79220814464804 L 308.8183402476101 43.86951750720658 L 309.36612076012034 43.94691692146 L 309.39844231833285 44.0244065974415 L 309.4257031167698 44.10198674591982 L 309.8532184574955 44.17965757840301 L 310.48817461846636 44.257419307141504 L 311.2551617270186 44.33527214513191 L 311.6137057789392 44.41321630612049 L 311.7661953707127 44.49125200460617 L 311.84839443635576 44.56937945584491 L 312.8740824018968 44.64759887585274 L 313.3969946384077 44.72591048140919 L 313.6275830707765 44.80431449006153 L 314.1380214017145 44.882811120127826 L 314.25156027046285 44.961400590700634 L 314.54477085054054 45.04008312165121 L 314.7532251216453 45.118858933632396 L 315.0968813474615 45.197728248083024 L 315.34007170452463 45.276691287231245 L 315.3862243051565 45.35574827409829 L 315.73705745040314 45.434899432502675 L 316.34834421385415 45.5141449870635 L 316.71428957582884 45.593485163204434 L 316.9856929543091 45.672920187157786 L 317.6960797997962 45.752450285967996 L 317.91112516381463 45.83207568749572 L 318.1761414775993 45.91179662042197 L 318.424431900568 45.991613314251595 L 318.4258016367727 46.07152599931766 L 318.5514436922855 46.15153490678506 L 318.8017879596879 46.231640268654985 L 318.94434596751205 46.31184231776837 L 319.3941064594578 46.392141287810716 L 319.4419972879329 46.47253741331542 L 319.52434330759297 46.55303092966818 L 319.7426361155297 46.633622073111496 L 319.76382837759877 46.714311080748075 L 319.7902258630054 46.79509819054584 L 319.99273003373315 46.87598364134146 L 320.08809269072765 46.95696767284488 L 320.1192393319026 47.03805052564371 L 320.210852805993 47.11923244120737 L 320.38207805857843 47.20051366189125 L 320.7133399943076 47.28189443094129 L 321.6138165769644 47.36337499249828 L 321.75628053503175 47.44495559160231 L 321.92015856208286 47.526636474197005 L 322.0543838660734 47.60841788713401 L 322.09920454486786 47.69030007817781 L 322.16537359013176 47.77228329600979 L 322.28485275388005 47.854367790232914 L 322.4947929903444 47.936553811376484 L 322.7273758681822 48.01884161090038 L 322.750653694063 48.10123144119996 L 322.963127576181 48.18372355561053 L 323.220463486983 48.26631820841226 L 323.355316301234 48.3490156548346 L 323.91682441181064 48.431816151061014 L 324.09289299913894 48.51471995423401 L 324.16513400893655 48.597727322459775 L 324.35806778158377 48.68083851481293 L 324.466634334819 48.76405379134155 L 324.48990848529166 48.84737341307169 L 324.58929891747425 48.930797642012976 L 325.07458525671814 49.01432674116285 L 325.21964905739685 49.09796097451175 L 325.2465065499409 49.18170060704841 L 325.60239479574125 49.265545904764565 L 325.64757336983314 49.34949713466017 L 325.8162530554408 49.43355456474842 L 326.81204787391357 49.517718464060806 L 326.9380538559981 49.60198910265268 L 326.96633828313077 49.68636675160815 L 327.21762000599153 49.77085168304495 L 327.4101500865944 49.85544417012062 L 327.59652501357823 49.94014448703683 L 327.6540857256822 50.02495290904545 L 327.9138625858573 50.10986971245359 L 328.1250959344643 50.19489517462887 L 328.1926718558152 50.2800295740052 L 328.8410413835094 50.36527319008809 L 328.9524541683253 50.4506263034599 L 329.0422337770497 50.53608919578602 L 329.12410424437996 50.62166214981971 L 329.51328605249694 50.70734544940814 L 329.6175595886152 50.79313937949797 L 329.7771218005528 50.87904422614122 L 329.83113866835635 50.96506027650037 L 330.1676358579508 51.051187818855 L 330.4148208798018 51.137427142606725 L 330.62704040289054 51.22377853828573 L 331.118948466622 51.3102422975561 L 331.4550230523374 51.396818713222274 L 331.75451412552604 51.48350807923447 L 331.82090320533905 51.570310690694896 L 331.8818763256097 51.65722684386395 L 331.89804256959746 51.744256836165846 L 332.31321756855436 51.83140096619536 L 332.9724333315255 51.918659533723144 L 333.25749384095457 52.00603283970298 L 333.30793820571654 52.09352118627686 L 333.4162783477526 52.18112487678201 L 333.50823010423034 52.26884421575704 L 333.7429083768395 52.356679508948275 L 333.851466256987 52.44463106331591 L 334.119036969035 52.53269918704086 L 334.1824760532602 52.62088418953107 L 334.53225497321483 52.7091863814278 L 334.7229076845906 52.79760607461253 L 334.81174573154584 52.88614358221338 L 334.8731304139769 52.97479921861196 L 335.52610534119117 53.06357329944973 L 335.7139662630808 53.152466141635045 L 335.77512006543543 53.24147806334986 L 336.36117370133246 53.3306093840564 L 336.6537959139446 53.41986042450446 L 336.67888234946815 53.509231506737706 L 336.8775665520827 53.59872295410128 L 336.96221923311657 53.688335091248405 L 337.4781004881904 53.778068244147505 L 337.69661864149583 53.86792274008951 L 337.8888993012189 53.95789890769487 L 337.96945369367995 54.047997076920694 L 338.1070932998284 54.138217579068396 L 339.0120728190251 54.228560746790436 L 339.27917221104724 54.31902691409806 L 339.29852629496565 54.40961641636858 L 339.64931349106325 54.50032959035292 L 339.7984785154214 54.59116677418314 L 339.89435303938853 54.6821283073798 L 340.0234850057403 54.77321453085972 L 340.49398095079187 54.864425786943684 L 340.69672790550123 54.95576241936419 L 341.14041044537635 55.047224773273 L 341.4005668424688 55.13881319524904 L 341.4912875370477 55.23052803330671 L 341.4917244415435 55.32236963690298 L 341.83235809710527 55.41433835694619 L 342.0267112677982 55.506434545803586 L 342.2028888476692 55.598658557309705 L 342.23391147546675 55.69101074677451 L 342.4035493559281 55.783491470991066 L 342.4884189835579 55.87610108824481 L 342.58867851406535 55.96883995832104 L 342.8939759836461 56.061708442513634 L 343.2022218253479 56.15470690363344 L 343.21197802000506 56.24783570601676 L 343.21225565531347 56.34109521553398 L 343.37636452863103 56.43448579959835 L 343.40409399559985 56.52800782717401 L 343.45563242793696 56.62166166878569 L 343.46790193201684 56.71544769652684 L 343.6634956489322 56.809366284068574 L 344.10230580215523 56.90341780666887 L 344.41153256472285 56.99760264118146 L 344.53320001647353 57.091921166064594 L 344.608219377094 57.186373761390655 L 344.73045869023133 57.280960808855184 L 344.9189748333371 57.375682691785755 L 344.9209408918682 57.470539795151865 L 345.3021888380337 57.56553250557397 L 345.3843195647304 57.660661211333036 L 345.413800855942 57.75592630238003 L 345.4604998638441 57.851328170345425 L 345.4656596856473 57.94686720854935 L 345.5341095785702 58.04254381201048 L 345.9532922755273 58.138358377456655 L 346.1174628846851 58.23431130333421 L 346.1722422003365 58.3304029898182 L 346.18508160674867 58.426633838822 L 346.20116258301243 58.52300425400824 L 346.4267604435924 58.619514640798 L 346.57675798627145 58.71616540638166 L 346.73532721114293 58.81295695972892 L 346.970381501621 58.90988971159942 L 346.9754200855361 59.00696407455297 L 347.43518177707904 59.10418046296007 L 347.77020081054536 59.2015392930129 L 347.9461748147493 59.299040982735505 L 348.4128148637943 59.39668595199487 L 348.46452135568575 59.494474622511746 L 348.7230170789114 59.592407417871584 L 348.9528745027301 59.69048476353521 L 349.3931758360643 59.78870708685059 L 350.044892392144 59.887074817063365 L 350.08047749319985 59.9855883853283 L 350.2362108937333 60.084248224720795 L 350.47010567128297 60.18305477024825 L 350.50755118991975 60.282008458861355 L 350.62777686802457 60.38110972946589 L 350.66878985872495 60.480359022934465 L 350.7010438346512 60.5797567821179 L 350.77924946660323 60.67930345185772 L 350.9392882546489 60.778999478997434 L 350.9461354710893 60.87884531239513 L 350.9640948664669 60.97884140293502 L 351.01959245612295 61.07898820354029 L 351.2255147553676 61.17928616918499 L 351.4379120197143 61.27973575690652 L 352.0112290592489 61.3803374258182 L 352.1897329541768 61.48109163712161 L 352.38127508377875 61.58199885411989 L 352.6567185381761 61.683059542229785 L 352.6666269864247 61.78427416899484 L 352.83090242601617 61.88564320409853 L 353.14460931336936 61.98716711937726 L 353.31795370042767 62.08884638883325 L 353.44482486401034 62.190681488648295 L 353.45325016366894 62.29267289719655 L 353.50019769554046 62.39482109505883 L 353.72434773795067 62.49712656503527 L 353.8022367165805 62.59958979215975 L 354.180612429314 62.70221126371331 L 354.3304580998948 62.804991469238075 L 354.34802081693357 62.907930900551605 L 354.58906870086815 63.01103005176054 L 354.6962792886667 63.11428941927511 L 354.76331463398697 63.21770950182332 L 355.0169621327866 63.32129080046582 L 355.06060954640066 63.425033818609734 L 355.2069184472507 63.528939062023994 L 355.33987115727444 63.63300703885386 L 355.3547468117085 63.73723825963583 L 355.417651564207 63.84163323731275 L 355.42064224913406 63.94619248724888 L 355.5040145545264 64.05091652724519 L 355.6736652739211 64.15580587755477 L 355.7992237204918 64.26086106089832 L 356.1408518855768 64.36608260247971 L 356.69745530933073 64.47147103000185 L 356.82654624338977 64.5770268736826 L 356.85425894107357 64.68275066627058 L 356.91415716295285 64.7886429430614 L 356.9728686600241 64.89470424191398 L 357.01862677053987 65.00093510326701 L 357.17003119370145 65.10733607015516 L 357.31555068098135 65.21390768822607 L 357.3966159736154 65.32065050575716 L 357.57156029361835 65.42756507367193 L 357.678654085326 65.53465194555804 L 357.79764734836476 65.64191167768365 L 357.93842692453245 65.74934482901506 L 358.1998376573554 65.8569519612343 L 358.4374196511215 65.96473363875668 L 358.8499545394559 66.07269042874839 L 359.11058148919614 66.18082290114472 L 359.111756750981 66.2891316286678 L 359.3735437397594 66.39761718684485 L 359.3779799109242 66.50628015402674 L 359.58464067663 66.61512111140655 L 359.5865267089132 66.72414064303757 L 360.09571356596757 66.83333933585288 L 360.09968095237843 66.94271777968407 L 360.15910541610924 67.05227656727999 L 360.24692833233973 67.16201629432663 L 360.2622915200875 67.27193755946587 L 360.37785475401677 67.38204096431588 L 360.60843362334526 67.49232711349009 L 360.6187574476676 67.60279661461766 L 360.6983534592289 67.71345007836334 L 360.8874320421254 67.82428811844761 L 361.1724669155883 67.93531135166745 L 361.71334038501305 68.0465203979166 L 361.75677213023755 68.15791588020642 L 361.9520473582588 68.26949842468701 L 362.12451340917517 68.38126866066813 L 362.2323826842809 68.49322722064056 L 362.27187411347103 68.6053747402974 L 362.29174034384585 68.7177118585563 L 362.3852169321678 68.83023921758047 L 362.87572744710013 68.94295746280125 L 363.1457630723424 69.0558672429404 L 363.26202005062515 69.16896921003206 L 363.3444664495797 69.28226401944568 L 363.3828399382329 69.39575232990882 L 363.4683017454729 69.5094348035297 L 363.4888026977999 69.62331210582119 L 363.58585749423065 69.73738490572327 L 363.7234976476246 69.85165387562716 L 363.8162772717132 69.966119691399 L 363.9353366768492 70.08078303240399 L 364.03623530078266 70.19564458153002 L 364.3998344880739 70.31070502521271 L 364.61472725654784 70.42596505345972 L 364.6391272187142 70.54142535987563 L 364.7097066200299 70.65708664168699 L 364.8194269696444 70.77294959976746 L 365.02638192084146 70.88901493866359 L 365.13099899236533 71.00528336662023 L 365.27348634228713 71.12175559560654 L 365.29802187863277 71.23843234134222 L 365.4605948531694 71.35531432332402 L 365.6939843228852 71.47240226485184 L 365.9943039205816 71.58969689305627 L 366.0062432542849 71.70719893892522 L 366.1978321735097 71.8249091373313 L 366.3602207872572 71.9428282270598 L 366.38888411470475 72.06095695083599 L 366.86031353246585 72.17929605535329 L 366.9585632761326 72.29784629130182 L 367.0216225282301 72.416608413397 L 367.09528416139983 72.53558318040803 L 367.1467688665803 72.65477135518722 L 367.239321661634 72.77417370469931 L 367.326131257877 72.89379100005101 L 367.40651324005563 73.01362401652113 L 367.73690754840726 73.13367353359047 L 367.7920137863456 73.25394033497196 L 367.8554617317932 73.37442520864215 L 367.9942491864759 73.49512894687177 L 368.0271886420023 73.61605234625648 L 368.09285227655226 73.73719620774943 L 368.2585154491579 73.8585613366921 L 368.36031098455976 73.9801485428473 L 368.3889112339585 74.10195864043084 L 368.747158274346 74.22399244814483 L 368.79802038472076 74.34625078921027 L 368.80731275322313 74.46873449140054 L 368.8511386372948 74.59144438707506 L 369.0171719981652 74.71438131321332 L 369.18008441577183 74.83754611144877 L 369.50484093610476 74.96093962810386 L 369.53744642843384 75.0845627142246 L 369.5683850849695 75.20841622561585 L 369.66187737089143 75.33250102287695 L 370.18216649409663 75.45681797143754 L 370.37014882830107 75.58136794159384 L 370.59652112542284 75.70615180854503 L 370.79198911149814 75.8311704524304 L 371.0243218823129 75.95642475836632 L 371.0252750549957 76.08191561648425 L 371.19225739093883 76.2076439219681 L 371.31849884161863 76.33361057509313 L 371.42045384455355 76.45981648126434 L 371.5215817350156 76.58626255105543 L 371.803298005919 76.71294970024849 L 372.2867371141611 76.83987884987363 L 372.47122351980227 76.96705092624904 L 372.4960663482303 77.09446686102177 L 372.62152639907504 77.22212759120879 L 372.8136336820255 77.35003405923777 L 372.81601541406894 77.47818721298955 L 372.90122255009067 77.60658800583974 L 372.9386555868868 77.73523739670156 L 373.01715359262425 77.86413635006869 L 373.07361856271893 77.99328583605853 L 373.10991254897664 78.12268683045653 L 373.1205616681588 78.25234031475964 L 373.1542725729431 78.38224727622185 L 373.1688261506727 78.51240870789843 L 373.5412354709022 78.64282560869214 L 373.61473915108076 78.77349898339878 L 373.6373035365564 78.90442984275421 L 373.66650870257484 79.03561920348034 L 374.02409048923136 79.16706808833362 L 374.2264818737425 79.29877752615181 L 374.39383184746396 79.43074855190315 L 374.4425046854093 79.56298220673466 L 374.5331077048826 79.69547953802146 L 374.6188636097923 79.82824159941697 L 374.91536474461145 79.96126945090253 L 375.1199009001354 80.09456415883858 L 375.1258428002593 80.22812679601617 L 375.5189049031251 80.36195844170805 L 375.67795735973 80.4960601817217 L 375.7225209480093 80.630433108452 L 376.0000136548561 80.76507832093415 L 376.0027752994498 80.89999692489835 L 376.2476236719358 81.03519003282383 L 376.2590523319887 81.17065876399397 L 376.3551998319961 81.3064042445518 L 376.64336244581784 81.44242760755651 L 376.7634328905634 81.5787299930397 L 376.78189733631444 81.71531254806325 L 376.81229316069226 81.85217642677685 L 376.9054815336566 81.98932279047654 L 376.9294119585236 82.12675280766405 L 377.0335694467622 82.26446765410651 L 377.112417472244 82.40246851289646 L 377.142550054513 82.54075657451324 L 377.3384539925285 82.67933303688454 L 377.3499569178546 82.8181991054484 L 377.40634194929885 82.95735599321631 L 377.5570034759962 83.09680492083697 L 377.6803655020531 83.23654711666012 L 377.70946601549963 83.37658381680188 L 377.8201872059727 83.51691626521 L 378.0462377442522 85.51333994274842 L 378.0472653861766 85.6582634235852 L 378.10742897995647 85.80350367730966 L 378.1193598398409 85.94906209175645 L 378.27973798519855 86.09494006390088 L 378.30779022090354 86.24113899993904 L 378.4707328281189 86.38766031536943 L 378.5041676482088 86.53450543507518 L 378.6233661259969 86.68167579340684 L 378.7339240005767 86.82917283426684 L 378.7580262266235 86.97699801119461 L 378.7854907173045 87.12515278745184 L 378.8092744000823 87.27363863610998 L 378.9807669281601 87.42245704013794 L 379.0610437609941 87.57160949249118 L 379.110996453202 87.72109749620097 L 379.2363141372568 87.87092256446601 L 379.31844826423094 88.02108622074388 L 379.3715604209943 88.1715899988439 L 379.5027127233451 88.32243544302167 L 379.58808308786064 88.47362410807358 L 379.70493822316155 88.62515755943332 L 379.76786382547164 88.77703737326874 L 379.79291901634093 88.9292651365808 L 379.87398808449234 89.08184244730256 L 379.9547574105386 89.23477091440014 L 380.02979173680336 89.38805215797419 L 380.0700849105178 89.54168780936322 L 380.2713536609937 89.6956795112477 L 380.3701309606299 89.8500289177552 L 380.431838411937 90.0047376945671 L 380.8454036362458 90.15980751902691 L 380.9212832229654 90.3152400802486 L 380.96549223670087 90.47103707922759 L 381.15880407018676 90.62720022895206 L 381.1762945710129 90.78373125451628 L 381.42312437690697 90.94063189323492 L 381.518045933104 91.09790389475836 L 381.56120865204804 91.25554902119012 L 381.6127130198607 91.41356904720539 L 381.8513495726982 91.5719657601706 L 381.99077632476315 91.73074096026488 L 382.30122601942924 91.88989646060287 L 382.3105218134339 92.04943408735869 L 382.33199229833957 92.20935567989216 L 382.39313029257823 92.36966309087552 L 382.3984824581745 92.53035818642252 L 382.91328692762727 92.69144284621859 L 383.06274097118984 92.85291896365294 L 383.1295805827468 93.01478844595198 L 383.2737869796962 93.17705321431453 L 383.4765711775112 93.33971520404839 L 383.54452767423277 93.5027763647094 L 383.6507204895933 93.6662386602411 L 383.90468510479315 93.83010406911683 L 384.0766029478944 93.99437458448358 L 384.09839940019924 94.159052214307 L 384.3029033651893 94.32413898151941 L 384.87822082631095 94.48963692416811 L 385.1453301454306 94.65554809556687 L 385.16795340842583 94.82187456444865 L 385.3023278636985 94.98861841512013 L 385.44023466819857 95.1557817476189 L 385.4443985308289 95.32336667787166 L 385.61541729970105 95.4913753378554 L 385.63033347103294 95.65980987575978 L 385.63065499355076 95.82867245615205 L 386.1510735325283 95.99796526014393 L 386.2230482473902 96.16769048556068 L 386.2458990596378 96.3378503471123 L 386.28603239376685 96.50844707656705 L 386.3107614955826 96.67948292292675 L 386.33838505008964 96.85096015260507 L 386.36549403454427 97.02288104960752 L 386.37228964870434 97.19524791571388 L 386.45916157039704 97.3680630706632 L 386.53198273542847 97.54132885234156 L 386.58004887410993 97.71504761697099 L 386.79630354598333 97.8892217393024 L 386.85802041647065 98.06385361281008 L 387.13571297054506 98.2389456498891 L 387.188177710749 98.41450028205543 L 387.3131555476212 98.59051996014801 L 387.526027406229 98.7670071545349 L 387.63809116280686 98.94396435532047 L 387.7304209265884 99.12139407255682 L 387.79201571349773 99.29929883645696 L 387.87400938370615 99.47768119761156 L 388.02229311703314 99.65654372720843 L 388.15282795187994 99.8358890172546 L 388.1538192610144 100.01571968080191 L 388.3040796704471 100.19603835217549 L 388.4358658266485 100.3768476872051 L 388.52842123916287 100.55815036346007 L 388.598873679032 100.7399490804869 L 388.6367570716582 100.92224656005084 L 389.06239199184705 101.1050455463801 L 389.21692952495994 101.28834880641381 L 389.39627114116695 101.47215913005323 L 389.428495038512 101.6564793304168 L 389.6100808903053 101.84131224409822 L 389.6316646005814 102.02666073142814 L 389.68394043631434 102.21252767674054 L 389.7586607629376 102.39891598864108 L 389.88445178028286 102.5858286002811 L 390.21989916683475 102.77326846963393 L 390.29144789825574 102.96123857977597 L 390.42685003167713 103.14974193917163 L 390.4663719417901 103.33878158196228 L 390.64088897891804 103.52836056825902 L 390.86128386519334 103.71848198444007 L 391.2104938322094 103.90914894345252 L 391.2741541382086 104.10036458511757 L 391.3015309855711 104.29213207644136 L 391.3719538394807 104.48445461192915 L 391.64514611831197 104.6773354139051 L 391.7314561213931 104.87077773283607 L 391.8012560995903 105.06478484766001 L 391.81110212872755 105.25936006612 L 391.84156294625717 105.45450672510191 L 392.0623349514332 105.65022819097868 L 392.32902178612386 105.84652785995769 L 392.37843635609033 106.0434091584354 L 392.42447575038307 106.2408755433554 L 392.44377181868197 106.43893050257304 L 392.48380592350145 106.63757755522505 L 392.64742790090804 106.83682025210453 L 392.7698854545073 107.03666217604211 L 392.8533901126499 107.23710694229209 L 392.87477143123226 107.43815819892524 L 393.0379890902215 107.63981962722698 L 393.30168411929304 107.84209494210194 L 393.31473901701867 108.04498789248436 L 393.49228282499223 108.24850226175539 L 393.7114410925268 108.45264186816587 L 394.0881710720255 108.65741056526684 L 394.33336686243285 108.86281224234511 L 394.77243598673584 109.06885082486764 L 394.83787571465996 109.27553027493047 L 394.86686267752845 109.48285459171683 L 394.88281036961143 109.69082781196101 L 394.9206896463502 109.89945401041984 L 394.93167167884627 110.10873730035229 L 395.2550423784175 110.31868183400536 L 395.60330528152167 110.52929180310895 L 395.98095795362923 110.74057143937762 L 396.0327796779282 110.95252501502108 L 396.16160308728684 111.16515684326225 L 396.1916343524837 111.37847127886425 L 396.3934550688101 111.59247271866514 L 396.69729208720076 111.80716560212215 L 396.98006950675426 112.02255441186378 L 397.0205740542472 112.23864367425182 L 397.0786079867797 112.4554379599519 L 397.0856602159526 112.67294188451365 L 397.43213852093754 112.89116010895998 L 397.60691005023165 113.11009734038714 L 397.83100494413236 113.32975833257296 L 397.8644540956064 113.55014788659724 L 397.8862065438474 113.77127085147043 L 398.36129520019387 113.99313212477455 L 398.455009659969 114.21573665331351 L 398.52359813737894 114.43908943377522 L 398.5927464852702 114.66319551340456 L 399.01906048833774 114.88805999068751 L 399.0617361432341 115.11368801604749 L 399.08263634446433 115.34008479255283 L 399.37828423376504 115.56725557663685 L 399.6166670072155 115.79520567883037 L 399.63745442760575 116.02394046450615 L 399.66899380305716 116.253465354637 L 399.7252288631004 116.48378582656676 L 399.72906871047843 116.71490741479408 L 399.7490095907229 116.94683571177069 L 399.96268110971437 117.17957636871364 L 400.2641024857069 117.413135096431 L 400.743009649808 117.64751766616331 L 400.78823096912396 117.88272991043846 L 400.83741851032903 118.11877772394308 L 400.9008959272696 118.35566706440892 L 401.1129958406265 118.59340395351512 L 401.1726761532434 118.83199447780635 L 401.2126755878829 119.07144478962834 L 401.46378424920977 119.31176110807905 L 401.4790726135037 119.55294971997881 L 401.53276096666275 119.79501698085653 L 401.8387738381482 120.03796931595434 L 401.84141562696726 120.28181322125192 L 402.2982325659522 120.52655526450758 L 402.31568893159016 120.77220208632042 L 402.5586696788344 121.01876040121101 L 403.0372580804538 121.26623699872295 L 403.190475195636 121.51463874454464 L 403.442224201344 121.76397258165213 L 403.4486467762556 122.01424553147348 L 403.57992384230977 122.2654646950752 L 403.6062129107863 122.5176372543715 L 403.64920989836315 122.77077047335564 L 403.8294755004907 123.02487169935608 L 403.9052399364645 123.27994836431589 L 404.1165707060985 123.53600798609665 L 404.3098718894963 123.79305816980866 L 404.4354574106612 124.05110660916563 L 404.5390698713315 124.31016108786679 L 404.9633628013544 124.57022948100553 L 404.97627575090183 124.83131975650593 L 405.26367824374194 125.09343997658743 L 405.51575619301104 125.3565982992589 L 405.6979315552773 125.62080297984176 L 405.7079207214843 125.88606237252407 L 406.00137559841903 126.15238493194568 L 406.20632348128106 126.41977921481515 L 406.39683509932036 126.68825388155904 L 406.6241019041468 126.95781769800544 L 406.97206017943 127.22847953710112 L 407.01912983120656 127.5002483806636 L 407.23681044729807 127.7731333211704 L 407.28155722456984 128.0471435635837 L 407.4003493504711 128.3222884272136 L 407.5026969391647 128.5985773476204 L 407.6117178259868 128.87601987855544 L 407.6622263471999 129.15462569394407 L 407.67564010277454 129.43440458990892 L 408.4493742021769 129.71536648683752 L 408.49767111217307 129.99752143149203 L 408.55274070527935 130.28087959916581 L 408.58367514814444 130.56545129588466 L 408.73388519324186 130.85124696065606 L 408.7529148938215 131.13827716776734 L 408.8440994523893 131.42655262913263 L 409.1895265256673 131.71608419669235 L 409.5529638748951 132.0068828648636 L 409.73916854106625 132.29895977304614 L 409.78035163867514 132.59232620818216 L 409.96864736452665 132.88699360737405 L 410.03643103174386 133.18297356055888 L 410.14752036139174 133.4802778132451 L 410.28048074230924 133.77891826930806 L 410.54495531019313 134.07890699385098 L 410.6257143250881 134.38025621612883 L 410.80471488593264 134.68297833254036 L 411.12612782927397 134.9870859096879 L 411.39438254607484 135.29259168750718 L 411.5359710165298 135.59950858247038 L 411.9749686699822 135.90784969086224 L 412.0386422134807 136.217628292134 L 412.0902247997465 136.52885785233457 L 412.0926167877156 136.84155202762344 L 412.24596524889597 137.1557246678654 L 412.3461746795737 137.47138982031248 L 412.539011927238 137.78856173337198 L 412.8125731312422 138.10725486046584 L 412.82564348704057 138.42748386398262 L 413.22309553946945 138.7492636193257 L 413.51001158426646 139.07260921905907 L 413.65917739188393 139.39753597715548 L 414.5692966092251 139.7240594333482 L 414.89013163471395 140.05219535759068 L 415.8358200678649 140.3819597546265 L 416.0926340634997 140.71336886867402 L 416.1822499514053 141.04643918822717 L 416.22178927694813 141.3811874509787 L 416.24820191019154 141.717630648867 L 416.4318822793032 142.05578603325102 L 416.61656913829006 142.39567112021945 L 417.02430083609136 142.73730369603385 L 417.08807727958487 143.08070182271456 L 417.3075097114432 143.4258838437703 L 417.6608682482423 143.7728683900781 L 418.2144551177962 144.12167438591723 L 418.5317272514816 144.47232105516247 L 418.6759505840389 144.824827927642 L 418.88322301151305 145.17921484566386 L 418.9895909265063 145.5355019707187 L 419.37575379190065 145.8937097903617 L 419.5347816338677 146.25385912528264 L 420.4257862821381 146.61597113656717 L 420.96480844826743 146.98006733315793 L 421.0036223914497 147.3461695795209 L 421.07252170666857 147.71430010352395 L 421.208812252598 148.08448150453523 L 421.31853313606564 148.45673676174823 L 421.5569144532569 148.83108924274103 L 421.9522133814953 149.20756271227867 L 422.4468669527983 149.5861813413661 L 422.8212179279363 149.96696971655962 L 422.8915080847935 150.34995284954846 L 423.03870038410423 150.7351561870122 L 423.3457597380424 151.1226056207671 L 423.75238694804136 151.51232749820906 L 424.0475193036522 151.90434863306484 L 424.06922649632975 152.29869631646244 L 424.40211810928975 152.69539832833215 L 425.16200118891135 153.0944829491492 L 425.2340927388279 153.49597897203228 L 425.5295372852815 153.89991571520903 L 425.73154938024607 154.3063230348625 L 425.786705025938 154.71523133837388 L 426.5225159002833 155.12667159797468 L 427.01914468942306 155.54067536482393 L 427.1324236557957 155.95727478352694 L 427.5996811149632 156.3765026071125 L 427.6889120970916 156.7983922124847 L 428.1716057579187 157.2229776163694 L 428.35638367016185 157.65029349177223 L 428.8132516489185 158.08037518497093 L 429.1359098002341 158.51325873305905 L 429.20190235806774 158.94898088206713 L 429.219235274119 159.38757910568006 L 429.98438963065144 159.82909162457753 L 430.01052872066646 160.2735574264206 L 431.03229872908776 160.72101628651166 L 431.2996335648962 161.1715087891546 L 431.4863503400611 161.62507634974395 L 431.6577683176143 162.08176123761325 L 431.7641942572421 162.54160659967386 L 432.3160434476356 163.00465648487778 L 432.52306921667116 163.47095586953822 L 432.6854809645521 163.94055068354555 L 432.785262792335 164.41348783751607 L 433.221878062171 164.88981525091344 L 433.3797441532075 165.3695818811862 L 433.56446932930595 165.85283775396357 L 434.2125500127516 166.33963399435902 L 434.48295541842003 166.83002285942746 L 434.5376530870954 167.3240577718301 L 434.6150218263858 167.82179335475922 L 434.6774043463513 168.3232854681823 L 434.75329273230534 168.82859124646274 L 434.77345339243544 169.33776913742298 L 435.0840103951862 169.8508789429157 L 435.1173461051742 170.36798186097394 L 435.3415284944878 170.88914052961303 L 435.66699507597576 171.41441907236606 L 435.8437046471464 171.94388314563116 L 435.850325096435 172.4775999879222 L 435.94635099561486 173.0156384711126 L 436.01081267580105 173.55806915377065 L 436.6165703192167 174.10496433669067 L 437.1337822731314 174.65639812072743 L 437.3518784614073 175.21244646705117 L 437.5344360649437 175.77318725994456 L 437.6887505030938 176.33870037227297 L 438.0144348163357 176.9090677337632 L 438.1583041033821 177.48437340223984 L 439.60124037271544 178.0647036379707 L 440.5352949695843 178.6501469812893 L 440.85900115434987 179.24079433366597 L 440.89943379990683 179.83673904241527 L 441.0013782151257 180.43807698923592 L 441.1487852493069 181.044906682795 L 441.5486033475207 181.65732935557742 L 441.7088438892439 182.2754490652411 L 441.9464246002929 182.89937280073053 L 441.97107493105284 183.52921059341952 L 442.8104246193978 184.16507563357288 L 443.2939034950633 184.80708439243278 L 443.58710069088517 185.45535675026258 L 443.87073803288774 186.11001613069777 L 444.0708842972002 186.77118964178118 L 444.2060976794473 187.43900822408585 L 444.6949287080547 188.11360680635823 L 445.237957385514 188.79512446914094 L 446.12784037723395 189.48370461687745 L 446.56782202268437 190.17949515902433 L 446.59691164080033 190.88264870074897 L 446.6190065476126 191.5933227438258 L 447.357877168611 192.31167989838968 L 447.44379340340106 193.03788810626503 L 447.5690935883451 193.77212087663105 L 447.65035214938547 194.51455753485533 L 447.7947225043206 195.26538348538583 L 448.25644955076183 196.02479048966677 L 448.2763686475632 196.7929769601193 L 448.2895223324767 197.5701482713162 L 448.4582703471163 198.35651708956954 L 449.0086138890861 199.15230372225642 L 449.76826167201915 199.95773648831613 L 450.00445690614526 200.77305211148098 L 450.3153517717004 201.59849613793108 L 451.1477172051578 202.4343233802195 L 452.24162091658394 203.2807983894765 L 452.32950717716534 204.13819595807792 L 452.73823063251757 205.00680165517423 L 452.89211974237827 205.88691239768468 L 454.75678671889085 206.77883705961875 L 454.8977357577535 207.682897122851 L 454.9034263833482 208.599427372781 L 455.0292389915342 209.52877664264525 L 455.0752566114794 210.47130861062317 L 455.8036514612115 211.4274026542933 L 455.89713058808434 212.39745476746606 L 456.0365359355871 213.3818785449372 L 456.2001598856459 214.38110624128933 L 456.96757557867176 215.39558991053002 L 457.0084225491127 216.42580263408092 L 458.7000366662742 217.47223984547315 L 458.9623673973391 218.53542076102923 L 459.2967980542496 219.61588992687786 L 460.02373544216994 220.71421889383453 L 460.1949077185593 221.83100803305166 L 460.24486694600716 222.9668885068703 L 460.2918176835728 224.1225244110778 L 461.5255542279725 225.29861510677307 L 462.42870967726407 226.4958977623429 L 462.5544152566497 227.7151501286845 L 462.9924604134858 228.95719357383757 L 464.20882396579225 230.22289640667998 L 467.34674553016265 231.51317752336962 L 467.4248173293246 232.82901041488816 L 467.6925964904225 234.17142757946516 L 468.26882592158574 235.5415253899846 L 468.32929278792597 236.94046947385613 L 468.46559033391645 238.36950067149695 L 468.64437458755106 239.82994164973815 L 468.97072263377373 241.32320425849304 L 469.02916952354946 242.8507977332264 L 469.8134594458409 244.41433786267675 L 469.93870977085095 246.01555726142328 L 470.0025404795999 247.65631691103806 L 470.15219039622485 249.3386191625836 L 471.7647533795861 251.06462242828127 L 471.9036092422899 252.8366578327259 L 471.9800918043935 254.65724814588805 L 473.7014004552924 256.5291293837303 L 474.8878583899305 258.45527554057315 L 477.8479429655472 260.4389270143966 L 478.76705994044227 262.483623407188 L 479.65462751576274 264.5932415341365 L 481.17889909953 266.7720396669416 L 481.5731565766808 269.0247092799775 L 482.66017857947884 271.3564358798802 L 483.6088982944312 273.7729709017915 L 483.6311005917801 276.2807171797871 L 484.7708391442625 278.8868311879952 L 489.01235583937375 281.5993461630917 L 489.73257144256957 284.42732144460376 L 490.0486370737689 287.3810250316002 L 492.80443466151024 290.47215863578367 L 494.3649801394391 293.7141376841454 L 494.6177620458883 297.12244320138836 L 495.2166642532053 300.71506891899537 L 496.2268607856528 304.5130963136802 L 497.27481979826 308.54144418029534 L 497.52691487498174 312.8298604400487 L 501.78387178714945 317.41425665298755 L 506.1296204978312 322.33853795289417 L 507.3571337317474 327.65716693619845 L 508.33161242007066 333.4388458047072 L 509.5525754630193 339.7719584572521 L 513.7083386728764 346.77288969210247 L 517.9320039260665 354.599264953402 L 531.1188134859829 363.47207742609464 L 531.2011260736045 373.71498770930555 L 532.9916819883554 385.8297792303599 L 542.1757705235623 400.6570857265091 L 545.4083593257786 419.772808482414 L 551.1634065130539 446.7149064996162 L 551.988044947775 492.7727272727273" stroke-linejoin="bevel" stroke-miterlimit="10"/><path fill="none" stroke="none"/></g></g></g><g clip-path="url(#qvxItyuEdNzE)"><g><g stroke="black" stroke-linejoin="bevel" stroke-miterlimit="10" stroke-dasharray="4,4"><path fill="none" stroke="" d=""/><g transform="translate(511.5741659579544,343.99661582234245) rotate(90,0,0)"><path fill="none" stroke="" paint-order="fill stroke markers" d=" M 0 0 L 3166.741349584724 0"/><g transform="rotate(-90,0,0) translate(-511.5741659579544,-343.99661582234245)"/></g></g></g></g><g clip-path="url(#WqnmaJTAnMGP)"><g><g stroke="black" stroke-linejoin="bevel" stroke-miterlimit="10" stroke-dasharray="4,4"><path fill="none" stroke="" d=""/><g transform="translate(511.5741659579544,343.99661582234245) rotate(180,0,0)"><path fill="none" stroke="" paint-order="fill stroke markers" d=" M 0 0 L 3166.741349584724 0"/><g transform="rotate(-180,0,0) translate(-511.5741659579544,-343.99661582234245)"/></g></g></g></g><g clip-path="url(#GaNcaUHutwVD)"><g><g><path fill="none" stroke="none"/><path fill="#1f77b4" stroke="black" paint-order="fill stroke markers" d=" M 514.5741659579544 343.99661582234245 A 3 3 0 1 1 514.5741644579546 343.99361582284246" stroke-linejoin="bevel" stroke-miterlimit="10"/></g></g></g><g clip-path="url(#zqgJJldABfyz)"><g><g/><g><path fill="#ffffff" stroke="#e5e5e5" paint-order="fill stroke markers" d=" M 123 415 L 264 415 L 264 506 L 123 506 L 123 415 Z" fill-opacity="0.95" stroke-linejoin="bevel" stroke-miterlimit="10" stroke-opacity="0.5"/><text fill="#444444" stroke="none" font-family="helvetica" font-size="24pt" font-style="normal" font-weight="normal" text-decoration="normal" x="158" y="442" text-anchor="start" dominant-baseline="central">male</text><g><path fill="none" stroke="blue" paint-order="fill stroke markers" d=" M 133 435 L 153 435" stroke-linejoin="bevel" stroke-miterlimit="10"/></g><text fill="#444444" stroke="none" font-family="helvetica" font-size="24pt" font-style="normal" font-weight="normal" text-decoration="normal" x="158" y="479" text-anchor="start" dominant-baseline="central">female</text><g><path fill="none" stroke="red" paint-order="fill stroke markers" d=" M 133 472 L 153 472" stroke-linejoin="bevel" stroke-miterlimit="10"/></g></g></g></g><g/><g/><g><g fill="#444444"><path fill="none" stroke="black" paint-order="fill stroke markers" d=" M 113 516 L 570 516" stroke-linejoin="bevel" stroke-miterlimit="10"/><path fill="none" stroke="black" paint-order="fill stroke markers" d=" M 365 522 L 365 514" stroke-linejoin="bevel" stroke-miterlimit="10"/><path fill="none" stroke="black" paint-order="fill stroke markers" d=" M 453 522 L 453 514" stroke-linejoin="bevel" stroke-miterlimit="10"/><path fill="none" stroke="black" paint-order="fill stroke markers" d=" M 505 522 L 505 514" stroke-linejoin="bevel" stroke-miterlimit="10"/><path fill="none" stroke="black" paint-order="fill stroke markers" d=" M 542 522 L 542 514" stroke-linejoin="bevel" stroke-miterlimit="10"/><path fill="" stroke="black" paint-order="fill stroke markers" d=" M 570 522 L 570 514" stroke-linejoin="bevel" stroke-miterlimit="10"/><g transform="translate(365,527) rotate(-59.99999999999999,0,0)"><text fill="" stroke="none" font-family="helvetica" font-size="24px" font-style="normal" font-weight="normal" text-decoration="normal" x="0" y="0" text-anchor="end" dominant-baseline="central">5.0e-4</text><g transform="rotate(59.99999999999999,0,0) translate(-365,-527) translate(453,527) rotate(-59.99999999999999,0,0)"><text fill="" stroke="none" font-family="helvetica" font-size="24px" font-style="normal" font-weight="normal" text-decoration="normal" x="0" y="0" text-anchor="end" dominant-baseline="central">1.0e-3</text><g transform="rotate(59.99999999999999,0,0) translate(-453,-527) translate(505,527) rotate(-59.99999999999999,0,0)"><text fill="" stroke="none" font-family="helvetica" font-size="24px" font-style="normal" font-weight="normal" text-decoration="normal" x="0" y="0" text-anchor="end" dominant-baseline="central">1.5e-3</text><g transform="rotate(59.99999999999999,0,0) translate(-505,-527) translate(542,527) rotate(-59.99999999999999,0,0)"><text fill="" stroke="none" font-family="helvetica" font-size="24px" font-style="normal" font-weight="normal" text-decoration="normal" x="0" y="0" text-anchor="end" dominant-baseline="central">2.0e-3</text><g transform="rotate(59.99999999999999,0,0) translate(-542,-527) translate(570,527) rotate(-59.99999999999999,0,0)"><text fill="" stroke="none" font-family="helvetica" font-size="24px" font-style="normal" font-weight="normal" text-decoration="normal" x="0" y="0" text-anchor="end" dominant-baseline="central">2.5e-3</text><g transform="rotate(59.99999999999999,0,0) translate(-570,-527)"/></g></g></g></g></g></g></g><g><g fill="#444444"><path fill="none" stroke="black" paint-order="fill stroke markers" d=" M 113 516 L 113 5" stroke-linejoin="bevel" stroke-miterlimit="10"/><path fill="none" stroke="black" paint-order="fill stroke markers" d=" M 107 486 L 115 486" stroke-linejoin="bevel" stroke-miterlimit="10"/><path fill="none" stroke="black" paint-order="fill stroke markers" d=" M 107 333 L 115 333" stroke-linejoin="bevel" stroke-miterlimit="10"/><path fill="none" stroke="black" paint-order="fill stroke markers" d=" M 107 180 L 115 180" stroke-linejoin="bevel" stroke-miterlimit="10"/><path fill="none" stroke="black" paint-order="fill stroke markers" d=" M 107 27 L 115 27" stroke-linejoin="bevel" stroke-miterlimit="10"/><path fill="none" stroke="black" paint-order="fill stroke markers" d=" M 109 510 L 113 510" stroke-linejoin="bevel" stroke-miterlimit="10"/><path fill="none" stroke="black" paint-order="fill stroke markers" d=" M 109 501 L 113 501" stroke-linejoin="bevel" stroke-miterlimit="10"/><path fill="none" stroke="black" paint-order="fill stroke markers" d=" M 109 493 L 113 493" stroke-linejoin="bevel" stroke-miterlimit="10"/><path fill="none" stroke="black" paint-order="fill stroke markers" d=" M 109 486 L 113 486" stroke-linejoin="bevel" stroke-miterlimit="10"/><path fill="none" stroke="black" paint-order="fill stroke markers" d=" M 109 486 L 113 486" stroke-linejoin="bevel" stroke-miterlimit="10"/><path fill="none" stroke="black" paint-order="fill stroke markers" d=" M 109 440 L 113 440" stroke-linejoin="bevel" stroke-miterlimit="10"/><path fill="none" stroke="black" paint-order="fill stroke markers" d=" M 109 413 L 113 413" stroke-linejoin="bevel" stroke-miterlimit="10"/><path fill="none" stroke="black" paint-order="fill stroke markers" d=" M 109 394 L 113 394" stroke-linejoin="bevel" stroke-miterlimit="10"/><path fill="none" stroke="black" paint-order="fill stroke markers" d=" M 109 379 L 113 379" stroke-linejoin="bevel" stroke-miterlimit="10"/><path fill="none" stroke="black" paint-order="fill stroke markers" d=" M 109 367 L 113 367" stroke-linejoin="bevel" stroke-miterlimit="10"/><path fill="none" stroke="black" paint-order="fill stroke markers" d=" M 109 357 L 113 357" stroke-linejoin="bevel" stroke-miterlimit="10"/><path fill="none" stroke="black" paint-order="fill stroke markers" d=" M 109 348 L 113 348" stroke-linejoin="bevel" stroke-miterlimit="10"/><path fill="none" stroke="black" paint-order="fill stroke markers" d=" M 109 340 L 113 340" stroke-linejoin="bevel" stroke-miterlimit="10"/><path fill="none" stroke="black" paint-order="fill stroke markers" d=" M 109 333 L 113 333" stroke-linejoin="bevel" stroke-miterlimit="10"/><path fill="none" stroke="black" paint-order="fill stroke markers" d=" M 109 333 L 113 333" stroke-linejoin="bevel" stroke-miterlimit="10"/><path fill="none" stroke="black" paint-order="fill stroke markers" d=" M 109 287 L 113 287" stroke-linejoin="bevel" stroke-miterlimit="10"/><path fill="none" stroke="black" paint-order="fill stroke markers" d=" M 109 260 L 113 260" stroke-linejoin="bevel" stroke-miterlimit="10"/><path fill="none" stroke="black" paint-order="fill stroke markers" d=" M 109 241 L 113 241" stroke-linejoin="bevel" stroke-miterlimit="10"/><path fill="none" stroke="black" paint-order="fill stroke markers" d=" M 109 226 L 113 226" stroke-linejoin="bevel" stroke-miterlimit="10"/><path fill="none" stroke="black" paint-order="fill stroke markers" d=" M 109 214 L 113 214" stroke-linejoin="bevel" stroke-miterlimit="10"/><path fill="none" stroke="black" paint-order="fill stroke markers" d=" M 109 204 L 113 204" stroke-linejoin="bevel" stroke-miterlimit="10"/><path fill="none" stroke="black" paint-order="fill stroke markers" d=" M 109 195 L 113 195" stroke-linejoin="bevel" stroke-miterlimit="10"/><path fill="none" stroke="black" paint-order="fill stroke markers" d=" M 109 187 L 113 187" stroke-linejoin="bevel" stroke-miterlimit="10"/><path fill="none" stroke="black" paint-order="fill stroke markers" d=" M 109 180 L 113 180" stroke-linejoin="bevel" stroke-miterlimit="10"/><path fill="none" stroke="black" paint-order="fill stroke markers" d=" M 109 180 L 113 180" stroke-linejoin="bevel" stroke-miterlimit="10"/><path fill="none" stroke="black" paint-order="fill stroke markers" d=" M 109 134 L 113 134" stroke-linejoin="bevel" stroke-miterlimit="10"/><path fill="none" stroke="black" paint-order="fill stroke markers" d=" M 109 107 L 113 107" stroke-linejoin="bevel" stroke-miterlimit="10"/><path fill="none" stroke="black" paint-order="fill stroke markers" d=" M 109 88 L 113 88" stroke-linejoin="bevel" stroke-miterlimit="10"/><path fill="none" stroke="black" paint-order="fill stroke markers" d=" M 109 73 L 113 73" stroke-linejoin="bevel" stroke-miterlimit="10"/><path fill="none" stroke="black" paint-order="fill stroke markers" d=" M 109 61 L 113 61" stroke-linejoin="bevel" stroke-miterlimit="10"/><path fill="none" stroke="black" paint-order="fill stroke markers" d=" M 109 51 L 113 51" stroke-linejoin="bevel" stroke-miterlimit="10"/><path fill="none" stroke="black" paint-order="fill stroke markers" d=" M 109 42 L 113 42" stroke-linejoin="bevel" stroke-miterlimit="10"/><path fill="none" stroke="black" paint-order="fill stroke markers" d=" M 109 34 L 113 34" stroke-linejoin="bevel" stroke-miterlimit="10"/><path fill="none" stroke="black" paint-order="fill stroke markers" d=" M 109 27 L 113 27" stroke-linejoin="bevel" stroke-miterlimit="10"/><path fill="" stroke="black" paint-order="fill stroke markers" d=" M 109 27 L 113 27" stroke-linejoin="bevel" stroke-miterlimit="10"/><g transform="translate(102,486) rotate(0,0,0)"><text fill="" stroke="none" font-family="helvetica" font-size="26px" font-style="normal" font-weight="normal" text-decoration="normal" x="0" y="0" text-anchor="end" dominant-baseline="central">10^-3</text><g transform="rotate(0,0,0) translate(-102,-486) translate(102,333) rotate(0,0,0)"><text fill="" stroke="none" font-family="helvetica" font-size="26px" font-style="normal" font-weight="normal" text-decoration="normal" x="0" y="0" text-anchor="end" dominant-baseline="central">10^-2</text><g transform="rotate(0,0,0) translate(-102,-333) translate(102,180) rotate(0,0,0)"><text fill="" stroke="none" font-family="helvetica" font-size="26px" font-style="normal" font-weight="normal" text-decoration="normal" x="0" y="0" text-anchor="end" dominant-baseline="central">10^-1</text><g transform="rotate(0,0,0) translate(-102,-180) translate(102,27) rotate(0,0,0)"><text fill="" stroke="none" font-family="helvetica" font-size="26px" font-style="normal" font-weight="normal" text-decoration="normal" x="0" y="0" text-anchor="end" dominant-baseline="central">10^0</text><g transform="rotate(0,0,0) translate(-102,-27) translate(26,261) rotate(-90,0,0)"><text fill="" stroke="none" font-family="helvetica" font-size="26pt" font-style="italic" font-weight="normal" text-decoration="normal" x="0" y="0" text-anchor="middle" dominant-baseline="alphabetic">CCDF</text><g transform="rotate(90,0,0) translate(-26,-261)"/></g></g></g></g></g></g></g><g clip-path="url(#ptGOpwwghnnF)"><g/></g><g clip-path="url(#NxdBpsbDmbST)"><g/></g></g></g></svg>