<svg version="1.1" xmlns="http://www.w3.org/2000/svg" xmlns:xlink="http://www.w3.org/1999/xlink" width="600" height="600" style="width: 600px; height: 600px;"><defs><clipPath id="RFrQvEpTNFVR"><path fill="none" stroke="none" d=" M 113 5 L 570 5 L 570 516 L 113 516 L 113 5 Z"/></clipPath><clipPath id="JvtldTKORWUt"><path fill="none" stroke="none" d=" M 113 5 L 570 5 L 570 516 L 113 516 L 113 5 Z"/></clipPath><clipPath id="mzTxWFfKIxXu"><path fill="none" stroke="none" d=" M 113 5 L 570 5 L 570 516 L 113 516 L 113 5 Z"/></clipPath><clipPath id="XJDhZDabyQsz"><path fill="none" stroke="none" d=" M 113 5 L 570 5 L 570 516 L 113 516 L 113 5 Z"/></clipPath><clipPath id="ldymepunRHtG"><path fill="none" stroke="none" d=" M 113 5 L 570 5 L 570 516 L 113 516 L 113 5 Z"/></clipPath><clipPath id="zxWDByFbthBw"><path fill="none" stroke="none" d=" M 113 5 L 570 5 L 570 516 L 113 516 L 113 5 Z"/></clipPath><clipPath id="KfBloaQxeRBq"><path fill="none" stroke="none" d=" M 113 5 L 570 5 L 570 516 L 113 516 L 113 5 Z"/></clipPath><clipPath id="DItfdtWeseHi"><path fill="none" stroke="none" d=" M 113 5 L 570 5 L 570 516 L 113 516 L 113 5 Z"/></clipPath></defs><g><g transform="scale(1,1) translate(0.5,0.5)"><rect fill="#FFFFFF" stroke="none" x="0" y="0" width="600" height="600"/><rect fill="#ffffff" stroke="none" x="0" y="0" width="600" height="600"/><rect fill="#FFFFFF" stroke="none" x="113" y="5" width="457" height="511"/><rect fill="#ffffff" stroke="none" x="113" y="5" width="457" height="511"/><g><rect fill="none" stroke="#e5e5e5" x="113" y="5" width="457" height="511" stroke-linejoin="bevel" stroke-miterlimit="10"/></g><g clip-path="url(#RFrQvEpTNFVR)"><g><g><path fill="none" stroke="#e5e5e5" paint-order="fill stroke markers" d=" M 353 516 L 353 5" stroke-linejoin="bevel" stroke-miterlimit="10"/><path fill="none" stroke="#e5e5e5" paint-order="fill stroke markers" d=" M 437 516 L 437 5" stroke-linejoin="bevel" stroke-miterlimit="10"/><path fill="none" stroke="#e5e5e5" paint-order="fill stroke markers" d=" M 486 516 L 486 5" stroke-linejoin="bevel" stroke-miterlimit="10"/><path fill="none" stroke="#e5e5e5" paint-order="fill stroke markers" d=" M 521 516 L 521 5" stroke-linejoin="bevel" stroke-miterlimit="10"/><path fill="none" stroke="#e5e5e5" paint-order="fill stroke markers" d=" M 548 516 L 548 5" stroke-linejoin="bevel" stroke-miterlimit="10"/></g></g></g><g clip-path="url(#JvtldTKORWUt)"><g><g><path fill="none" stroke="#e5e5e5" paint-order="fill stroke markers" d=" M 113 486 L 570 486" stroke-linejoin="bevel" stroke-miterlimit="10"/><path fill="none" stroke="#e5e5e5" paint-order="fill stroke markers" d=" M 113 333 L 570 333" stroke-linejoin="bevel" stroke-miterlimit="10"/><path fill="none" stroke="#e5e5e5" paint-order="fill stroke markers" d=" M 113 180 L 570 180" stroke-linejoin="bevel" stroke-miterlimit="10"/><path fill="none" stroke="#e5e5e5" paint-order="fill stroke markers" d=" M 113 27 L 570 27" stroke-linejoin="bevel" stroke-miterlimit="10"/></g></g></g><g clip-path="url(#mzTxWFfKIxXu)"><g><g fill="#444444"><path fill="" stroke="none" d=""/><g transform="translate(119.01368881456672,328.1596102551149) rotate(0,0,0)"><path fill="none" stroke="none"/><text fill="" stroke="none" font-family="helvetica" font-size="19pt" font-style="normal" font-weight="normal" text-decoration="normal" x="0" y="0" text-anchor="start" dominant-baseline="text-after-edge">Female mean: 4.86e-4(±4.1e-4)</text></g></g><g fill="#444444"><path fill="" stroke="none" d=""/><g transform="translate(119.01368881456672,296.9216497935488) rotate(0,0,0)"><path fill="none" stroke="none"/><text fill="" stroke="none" font-family="helvetica" font-size="19pt" font-style="normal" font-weight="normal" text-decoration="normal" x="0" y="0" text-anchor="start" dominant-baseline="text-after-edge">Male mean: 5.70e-4(±3.7e-4)</text></g></g></g></g><g clip-path="url(#XJDhZDabyQsz)"><g><g><path fill="none" stroke="none"/><path fill="none" stroke="blue" paint-order="fill stroke markers" d=" M 136.08468187148944 28.227272727272805 L 136.26944005677785 28.315949501531236 L 137.63308651660816 28.404744748469227 L 138.1525625547455 28.49365878507058 L 143.0594761803177 28.58269192959318 L 143.12762850259503 28.671844501575436 L 143.21068175917918 28.76111682184353 L 144.07216551955278 28.850509212518034 L 144.94359281217157 28.940021997021063 L 145.12513461038844 29.02965550008321 L 146.82345378031246 29.119410047750762 L 148.59161857274438 29.209285967392645 L 148.9971994235238 29.299283587707578 L 149.79672264804978 29.389403238731575 L 150.36171489528186 29.479645251844715 L 150.5856545366256 29.57000995977893 L 151.29410117599497 29.660497696625157 L 151.77801272368288 29.751108797840573 L 151.89887107688295 29.84184360025654 L 152.47173407633534 29.932702442085485 L 153.1145155120687 30.023685662929097 L 154.72286557152108 30.114793603785472 L 154.88037121227515 30.206026607057026 L 155.81726755421596 30.29738501655811 L 155.96347214802728 30.38886917752285 L 156.7120326175403 30.480479436612825 L 156.7525901861523 30.57221614192531 L 157.8706304973129 30.66407964300072 L 158.7378151181532 30.756070290831076 L 159.1530077668716 30.84818843786752 L 159.17709639013324 30.940434438029 L 160.33510906355505 31.032808646710066 L 161.22705348403386 31.125311420789217 L 161.50367309937826 31.21794311863698 L 162.3622953752083 31.310704100124497 L 162.68480240866364 31.403594726631923 L 165.01571372700678 31.4966153610564 L 165.21135444856833 31.589766367821255 L 165.4106240519564 31.683048112884137 L 165.60104918407387 31.776460963745706 L 166.77544826164257 31.870005289458277 L 167.08206505829972 31.963681460634916 L 167.86252281887235 32.05748984945751 L 168.54529816199377 32.15143082968655 L 169.68415333057294 32.24550477666946 L 170.18346441322635 32.33971206734964 L 170.3598113682741 32.43405308027582 L 170.50838792652496 32.52852819561093 L 171.56103472153634 32.62313779514136 L 172.2313913275146 32.71788226228625 L 172.48729127236777 32.81276198210679 L 172.93496766011043 32.90777734131564 L 173.9366866460888 33.00292872828635 L 173.99132012404408 33.09821653306278 L 174.76713226078292 33.19364114736908 L 175.5423917968603 33.28920296461877 L 176.5156187104727 33.384902379924995 L 177.68258584010596 33.48073979011002 L 178.26775474287456 33.57671559371528 L 178.6509219274637 33.67283019101097 L 179.1519752130414 33.769083984006784 L 179.33616726122216 33.86547737646117 L 180.2475243987039 33.962010773892075 L 181.33721600090286 34.05868458358691 L 181.41395717279056 34.15549921461297 L 181.42876226246545 34.25245507782762 L 181.62285759211625 34.34955258588917 L 181.78119829727063 34.44679215326698 L 182.9382034083412 34.54417419625236 L 183.88116519764986 34.64169913296911 L 184.1424898605306 34.73936738338426 L 185.2233547959065 34.83717936931913 L 187.45494786457954 34.93513551446006 L 187.73641555009635 35.03323624436956 L 189.52310524164642 35.13148198649719 L 189.84707152862842 35.22987317019107 L 190.4980793247185 35.328410226708854 L 190.570005865526 35.42709358922917 L 190.84775537616065 35.52592369286299 L 190.86350334932615 35.624900974665366 L 191.982987634025 35.72402587364661 L 192.47234406465532 35.82329883078444 L 192.4818802946766 35.9227202890354 L 193.29602240595767 36.02229069334686 L 193.6508693511426 36.12201049066903 L 193.82392901388693 36.221880129966905 L 194.10802969602958 36.32190006223243 L 194.2986996297905 36.42207074049651 L 194.80330940443775 36.52239261984187 L 194.9243678722697 36.622866157414705 L 196.73571173441098 36.723491812437885 L 198.14727130506174 36.824270046223035 L 198.2737456075218 36.925201322183625 L 199.3896002292974 37.02628610584742 L 199.43673961068959 37.12752486486943 L 199.66518107700063 37.22891806904522 L 200.21170543356808 37.33046619032348 L 200.23745560001694 37.432169702819635 L 201.16999128916757 37.53402908282885 L 201.17456698416356 37.63604480883964 L 201.25661113364612 37.73821736154696 L 201.35539105127714 37.840547223866395 L 201.36045645355432 37.94303488094732 L 201.74894609806591 38.045680820187044 L 202.40302416661808 38.14848553124443 L 202.5219046733328 38.25144950605414 L 202.64803368005718 38.35457323884077 L 202.980987229822 38.45785722613289 L 203.6406517895503 38.561301966777364 L 204.43123124721933 38.66490796195427 L 205.9808339937852 38.76867571519091 L 206.11996453401414 38.8726057323766 L 206.614394349448 38.97669852177796 L 206.99702445605362 39.08095459405308 L 207.27767214365826 39.185374462267134 L 207.4218979943148 39.28995864190733 L 208.43735089897666 39.394707650898 L 208.65347407637307 39.49962200961636 L 208.92905036182896 39.60470224090756 L 209.16634016913468 39.7099488701009 L 209.2827394395511 39.815362425025114 L 211.2915480058984 39.920943436024345 L 211.69630684280924 40.026692435974155 L 213.63033717627292 40.132609960298 L 214.72947990750833 40.23869654698308 L 215.3934407059813 40.34495273659667 L 216.8429587704524 40.451379072303155 L 217.14371815376137 40.55797609988025 L 217.34841219516824 40.66474436773581 L 218.55758222938857 40.77168442692505 L 218.81675493364963 40.87879683116739 L 219.44854742793956 40.98608213686373 L 219.5495750715944 41.09354090311365 L 220.74900052747984 41.20117369173306 L 220.97050296325244 41.30898106727187 L 221.63136952646386 41.4169635970315 L 221.98877158533332 41.52512185108304 L 222.00870628293183 41.63345640228516 L 222.1071412219443 41.74196782630253 L 222.9867911915507 41.85065670162379 L 223.13011120650677 41.9595236095804 L 223.18011990547913 42.068569134365134 L 223.463248665307 42.177793863050965 L 223.838345827965 42.287198385610054 L 224.53137996105107 42.39678329493273 L 225.13431883920316 42.50654918684677 L 225.35239097762337 42.61649666013699 L 226.1477633478568 42.726626316564875 L 227.73066292616892 42.83693876088813 L 228.15025176370227 42.94743460088068 L 228.64135593641456 43.05811444735292 L 228.8472010788036 43.1689789141717 L 229.06690808447058 43.28002861828094 L 229.74710381603063 43.391264179722214 L 229.90884158061942 43.50268622165555 L 230.21847553513294 43.61429537038032 L 230.59847938816154 43.72609225535615 L 230.8695588154269 43.838077509224775 L 231.04976489214005 43.95025176783088 L 231.17893185844372 44.06261567024421 L 231.4325117041315 44.17516985878143 L 231.56066180562726 44.28791497902756 L 232.578714340562 44.400851679859045 L 232.8857616990378 44.51398061346555 L 233.32640132241718 44.627302435372826 L 233.81183994592863 44.74081780446522 L 234.50521478943145 44.85452738300921 L 234.5089845762888 44.96843183667602 L 235.92721884157197 45.08253183456526 L 238.40228483661554 45.196828049228486 L 238.44730394471304 45.311321156693 L 238.67889952796904 45.42601183648577 L 239.0298543043345 45.54090077165773 L 239.20700457276996 45.65598864880815 L 239.58064576941644 45.771276158109174 L 243.36971181563794 45.886763993330646 L 243.63387431999408 46.00245285186554 L 244.2824468447535 46.11834343475442 L 244.31954966219837 46.23443644671204 L 245.45276116437 46.350732596151886 L 245.75957141473583 46.467232595213034 L 245.78711089062242 46.583937159785876 L 246.2245315421968 46.70084700953845 L 247.79763014866467 46.81796286794338 L 249.1919271645652 46.93528546230448 L 249.62815493971533 47.05281552378398 L 249.7265572844229 47.17055378742975 L 249.7893922019302 47.28850099220318 L 249.95217095155164 47.40665788100654 L 250.20353272806716 47.52502520071141 L 250.35760112553845 47.64360370218691 L 250.52135987405867 47.7623941403283 L 250.53431137334715 47.881397274085714 L 250.54055282871687 48.00061386649338 L 251.42455100546167 48.12004468469894 L 251.5773957108484 48.239690499992946 L 251.79563358486604 48.35955208783895 L 252.13406280273355 48.479630227903556 L 252.43654395531627 48.5999257040869 L 252.73756913338698 48.72043930455311 L 252.99201589852325 48.841171821761804 L 253.16565901338288 48.96212405249872 L 253.33779167797672 49.083296797907735 L 253.98525138206125 49.20469086352273 L 254.4098680219207 49.32630705929921 L 254.52086042422098 49.4481461996474 L 254.5437462987453 49.57020910346438 L 254.80902790515947 49.692496594167494 L 255.16153061405305 49.81500949972758 L 255.39874739444585 49.93774865270251 L 258.34789041656654 50.060714890271186 L 258.5583979967414 50.18390905426793 L 258.6752197323209 50.30733199121681 L 259.9150825381734 50.43098455236668 L 259.9953129029233 50.554867593726726 L 260.09532460612115 50.678981976101284 L 260.57741706248635 50.80332856512632 L 260.65492047037435 50.92790823130565 L 260.79909008711957 51.05272185004708 L 261.1009178144055 51.177770301699695 L 261.14301485633166 51.303054471591054 L 261.3575360945325 51.428575250064625 L 261.57797419013104 51.554333532518 L 261.60272759993154 51.68033021944092 L 261.7254943088973 51.80656621645426 L 261.9311756758993 51.93304243434898 L 262.19204165783947 52.05975978912534 L 263.064004786301 52.18671920203303 L 263.72017491626445 52.31392159961126 L 264.2268462287469 52.44136791372921 L 264.92032212399874 52.569059081627074 L 265.21841632283486 52.69699604595746 L 265.73502125629767 52.825179754826934 L 266.0698752484443 52.95361116183864 L 266.19470476261915 53.08229122613426 L 266.2180182665358 53.21122091243751 L 266.7251256990386 53.34040119109727 L 267.3455514274552 53.469833038131355 L 268.2739226777669 53.59951743527097 L 268.77187017618814 53.72945537000527 L 268.8174751231765 53.85964783562645 L 269.20627356873405 53.99009583127537 L 269.3297435325989 54.12080036198739 L 269.71874107376567 54.25176243873943 L 269.79556609288056 54.38298307849573 L 269.8907103332227 54.514463304256594 L 270.66765366772415 54.64620414510517 L 271.06690578957995 54.778206636256414 L 271.0893625299419 54.91047181910557 L 271.44638581232095 55.04300074127758 L 271.85738780905365 55.17579445667684 L 272.36373725469 55.30885402553753 L 273.2389033087718 55.442180514474614 L 273.5849355933959 55.575774996534506 L 273.6719539101231 55.70963855124751 L 273.757157949504 55.84377226468007 L 275.3959119228797 55.97817722948719 L 275.79644767612405 56.11285454496647 L 277.08920223977486 56.24780531711161 L 277.523911566415 56.38303065866705 L 277.7261066433838 56.518531689182964 L 277.84206365104245 56.654309535071036 L 277.9986720003094 56.79036532966052 L 278.28021149127267 56.92670021325495 L 278.34549972204746 57.06331533318951 L 278.4659642308169 57.20021184388912 L 279.08490353033824 57.337390906926885 L 279.2503305128113 57.47485369108301 L 279.7053738183749 57.612601372404754 L 280.60274659049946 57.7506351342671 L 280.6566918790162 57.88895616743309 L 280.9070520707545 58.02756567011585 L 281.01267119781744 58.16646484804102 L 281.087869858566 58.30565491450932 L 281.21497293239906 58.445137090460435 L 282.19227429402036 58.58491260453695 L 283.0743561411822 58.7249826931498 L 283.0978165741683 58.86534860054314 L 283.1308429332857 59.006011578861546 L 283.452770807064 59.14697288821634 L 283.8192498458569 59.28823379675367 L 283.8681570375918 59.42979558072278 L 284.024473409032 59.57165952454534 L 284.424586856466 59.71382692088537 L 284.59690820051765 59.85629907071967 L 284.62982011875636 59.99907728340963 L 284.84325737868556 60.142162876773114 L 285.77300191559243 60.28555717715767 L 286.609844664595 60.42926151951406 L 287.093727811074 60.57327724747108 L 288.44809195885693 60.71760571341076 L 289.05362615668815 60.86224827854471 L 289.0994979272325 61.00720631299089 L 289.8557577435514 61.15248119585192 L 289.8841355657818 61.29807431529315 L 290.06392947678427 61.44398706862313 L 290.6386826834899 61.590220862373144 L 291.4670126510693 61.73677711237923 L 291.49720399741136 61.88365724386409 L 291.60371807654565 62.03086269152044 L 291.7993872622398 62.178394899595105 L 292.20570805479537 62.32625532197369 L 292.5936911289838 62.474445422267024 L 292.8132090854557 62.62296667389779 L 293.66010039678724 62.77182056018842 L 293.8201321923621 62.92100857445024 L 294.4542856626032 63.07053222007306 L 294.65013966955 63.22039301061625 L 297.25954892748166 63.3705924699006 L 297.6644702732254 63.52113213210123 L 297.81345149097 63.67201354184192 L 297.90662998092154 63.823238254289606 L 298.2967928864787 63.9748078352514 L 298.5838198028073 64.12672386127093 L 298.7329597652548 64.27898791972751 L 299.536119124588 64.43160160893518 L 299.70070487753804 64.58456653824362 L 300.47996072364333 64.73788432813984 L 300.562450359171 64.89155661035136 L 300.585662325444 65.0455850279501 L 300.5944446596036 65.19997123545818 L 300.77677985433377 65.35471689895422 L 301.0434095959844 65.5098236961814 L 301.3323343592655 65.66529331665657 L 302.41828680656135 65.82112746178069 L 302.77630101784825 65.97732784495037 L 303.25750034285295 66.13389619167117 L 303.28228230963333 66.290834239672 L 303.30800472529955 66.44814373902028 L 303.96452070700013 66.60582645223997 L 304.6772615366516 66.76388415442909 L 304.9860058153518 66.92231863338037 L 306.1967259704288 67.08113168970203 L 306.2893252970184 67.24032513694112 L 306.8303467047627 67.39990080170719 L 306.9298761556623 67.55986052379853 L 307.62657939890175 67.72020615632908 L 308.22218917210677 67.8809395658576 L 308.3119787279832 68.04206263251768 L 308.474261096944 68.20357725014998 L 308.6382857497729 68.36548532643553 L 308.65684166141875 68.52778878303133 L 308.98175265891405 68.69048955570656 L 309.1346346313493 68.85358959448195 L 309.53631811021955 69.01709086376917 L 309.7098576555328 69.18099534251343 L 309.92000000044396 69.34530502433677 L 309.92228550207744 69.51002191768379 L 309.98772376373665 69.67514804596891 L 310.06688469534043 69.84068544772555 L 310.41256326587336 70.00663617675696 L 311.3283718834866 70.17300230228926 L 311.335377458124 70.33978590912625 L 311.45675661627376 70.50698909780618 L 311.46340671530925 70.67461398476019 L 311.579448073067 70.84266270247366 L 311.88362310488924 71.0111373996483 L 312.7195058580561 71.18004024136752 L 313.0674615506514 71.34937340926314 L 314.2312175343603 71.51913910168429 L 314.73790098602103 71.68933953386926 L 315.4227483029786 71.85997693811822 L 315.6255094940736 72.0310535639693 L 316.832646020582 72.20257167837644 L 316.8668905948855 72.37453356588975 L 317.13637168006505 72.54694152883798 L 317.511975019336 72.71979788751315 L 317.53171983674986 72.89310498035866 L 317.8279350061892 73.06686516415846 L 318.03804858122885 73.24108081422958 L 318.1791655909932 73.41575432461707 L 319.06524743020185 73.59088810829115 L 319.44856542512525 73.76648459734736 L 319.5049516768621 73.94254624320934 L 320.0754630251193 74.11907551683379 L 320.54338888169355 74.29607490891902 L 320.6812768420451 74.47354693011539 L 320.9327513497037 74.6514941112394 L 321.8713284965522 74.82991900348975 L 322.6033350899977 75.00882417866723 L 322.7008731643176 75.18821222939698 L 322.8257552686446 75.3680857693538 L 322.904622511882 75.54844743349099 L 323.0336164796064 75.72929987827138 L 323.06209721215396 75.9106457819027 L 323.0637681311334 76.09248784457532 L 323.38931606290794 76.27482878870325 L 323.5258050425634 76.45767135916907 L 323.5552628288576 76.64101832357159 L 323.8086660909776 76.82487247247724 L 323.9758754044519 77.00923661967522 L 324.04410924642224 77.1941136024355 L 324.27696132093735 77.37950628177077 L 324.3093622169073 77.56541754270268 L 324.4717831808474 77.75185029453036 L 324.86050824473296 77.93880747110455 L 324.88044146269556 78.12629203110373 L 324.96779741274963 78.31430695831568 L 325.6448104625464 78.50285526192204 L 325.6553656492243 78.69193997678747 L 325.91536702424696 78.88156416375301 L 325.9221543437485 79.07173090993257 L 325.9983719648799 79.2624433290153 L 326.99958983388785 79.45370456157121 L 327.9250942123432 79.64551777536138 L 328.45793804907066 79.837886165653 L 328.523352910978 80.03081295553835 L 328.74944510970585 80.22430139625914 L 328.76090669927123 80.41835476753545 L 328.90045294221324 80.61297637789858 L 329.46505000412805 80.80816956503048 L 330.0030470254163 81.00393769610628 L 330.25747042338287 81.20028416814336 L 330.481692945414 81.39721240835513 L 331.0432107296122 81.59472587450927 L 331.22512694734536 81.79282805529283 L 331.47781210952 81.99152247068162 L 332.1044354451756 82.19081267231525 L 332.21391983828653 82.39070224387865 L 332.2362810104082 82.59119480148809 L 332.262781489713 82.79229399408405 L 332.3683263663198 82.99400350382984 L 332.5688014649771 83.1963270465157 L 333.02777982918985 83.3992683719697 L 333.1271549787927 83.60283126447507 L 334.37922275981475 83.80701954319318 L 335.39943961586914 84.01183706259354 L 335.4628091383678 84.2172877128906 L 336.5016970531457 84.42337542048693 L 336.82983934146023 84.63010414842358 L 337.0843894322486 84.83747789683707 L 337.16421744374736 85.04550070342418 L 337.38792925475246 85.25417664391335 L 337.64984686243815 85.46350983254422 L 337.76751491211496 85.67350442255372 L 337.82387339139933 85.88416460667128 L 338.40678527163925 86.09549461762037 L 338.9795746779811 86.3074987286293 L 339.2611062135325 86.52018125394937 L 339.69762169930027 86.73354654938203 L 340.30097731878527 86.94759901281367 L 340.6167922031985 87.16234308475981 L 341.177532963368 87.37778324891809 L 341.9938085191057 87.59392403272932 L 343.57016035003244 87.81077000794875 L 343.57914581422597 88.02832579122662 L 343.751355686285 88.24659604469724 L 343.9615356774698 88.46558547657895 L 344.30274343938606 88.68529884178321 L 346.2113455228821 88.90574094253435 L 346.5943626453736 89.12691662899914 L 346.64246355624834 89.3488307999271 L 346.9987789772318 89.57148840330177 L 347.8214264683688 89.79489443700237 L 347.96921675613453 90.0190539494771 L 349.2402118631939 90.2439720404276 L 349.27894345886057 90.46965386150532 L 350.6225393903434 90.69610461701893 L 351.2077106287082 90.92332956465543 L 351.5415548216455 91.15133401621148 L 352.0694450281744 91.38012333833922 L 352.27519656490114 91.60970295330395 L 352.71311475483947 91.84007833975534 L 352.8128714153163 92.07125503351165 L 352.8305667213558 92.30323862835826 L 352.89483404674286 92.53603477685925 L 353.56769264130855 92.76964919118461 L 353.8057855141722 93.00408764395064 L 354.0958441279186 93.23935596907603 L 354.37768513446736 93.47546006265276 L 354.4558876320549 93.71240588383313 L 354.6315741723686 93.95019945573193 L 354.8107215559216 94.18884686634516 L 355.15604300759566 94.42835426948523 L 355.3196048810496 94.66872788573306 L 355.55731030210836 94.90997400340797 L 355.79745054969027 95.15209897955395 L 356.3236440364245 95.39510924094543 L 356.62498135613544 95.63901128511054 L 356.92398697720455 95.8838116813738 L 357.29717792153406 96.1295170719174 L 357.5550241379546 96.37613417286298 L 357.9179559200408 96.62366977537295 L 357.96085007446993 96.87213074677254 L 358.92809415827264 97.12152403169324 L 359.1943229741918 97.37185665323727 L 359.6725582296848 97.62313571416422 L 359.7325888836632 97.87536839810048 L 360.3752385466414 98.12856197077156 L 360.5035962251167 98.38272378125743 L 361.96094440057755 98.6378612632733 L 361.9693886449371 98.89398193647315 L 362.11215612212357 99.15109340778054 L 362.18804232641867 99.40920337274349 L 362.5360268745237 99.66831961691724 L 362.86262071202145 99.92845001727267 L 363.5621345939021 100.18960254363367 L 364.0732957973056 100.451785260142 L 364.48583757902884 100.71500632675145 L 365.37579518234736 100.97927400075179 L 365.87696916963216 102.85916751130674 L 366.08562496975634 103.13211751483573 L 366.2695833310238 103.4061930885731 L 366.4156948839672 103.68140355405103 L 366.56869094737607 103.95775834907926 L 367.05894837169734 104.23526702968718 L 367.16393612097045 104.5139392721066 L 367.4598955673406 104.79378487479596 L 368.47413231441533 105.07481376050777 L 368.8392759565637 105.35703597839984 L 371.1064521558071 105.64046170619156 L 371.76026044320406 105.92510125236589 L 371.92873948909494 106.21096505841933 L 372.08777829229115 106.49806370116028 L 372.11963330149905 106.78640789505698 L 372.82135461312225 107.07600849463716 L 373.30151650879696 107.36687649693937 L 373.645181916029 107.6590230440193 L 373.8455245194137 107.95245942551031 L 374.4778674908019 108.24719708124132 L 375.5192988986948 108.54324760391324 L 375.5627445521934 108.84062274183464 L 376.0399821297017 109.13933440171928 L 376.15049404945796 109.43939465154676 L 376.7512588055008 109.74081572348808 L 376.83303904166667 110.04361001689762 L 377.93178749026674 110.34779010137373 L 378.24405008388305 110.65336871988984 L 378.53861041091403 110.96035879199752 L 378.99610542868515 111.26877341710446 L 379.1340062315495 111.57862587782762 L 379.5725443743302 111.88992964342685 L 379.6414535654297 112.20269837331739 L 379.73071356919803 112.51694592066656 L 379.94341053586294 112.83268633607531 L 381.05051144136564 113.14993387134825 L 381.55041283394894 113.46870298335341 L 381.55660924735025 113.7890083379753 L 381.6470562085703 114.11086481416385 L 382.50127873394536 114.43428750808181 L 382.7759491894782 114.75929173735278 L 383.30208154626774 115.08589304541539 L 383.5040364057679 115.41410720598293 L 383.6093050144121 115.74395022761513 L 383.9945762230648 116.07543835840318 L 384.0077664263064 116.40858809077247 L 384.00851335569854 116.7434161664064 L 384.18571390426655 117.07993958129452 L 384.8976765060975 117.4181755909093 L 385.48254726381515 117.75814171551548 L 385.5868535966114 118.09985574561546 L 385.6362606961266 118.44333574753603 L 386.18715912016484 118.78860006915943 L 386.4823984463842 119.13566734580473 L 386.55995560230195 119.48455650626329 L 386.7160261024261 119.83528677899369 L 386.9981610119105 120.18787769848001 L 387.2630423137006 120.54234911176161 L 387.4313907596831 120.89872118513597 L 387.7358335893709 121.2570144110432 L 388.3417582776524 121.61724961513715 L 389.08186015313333 121.97944796354898 L 390.03991758418783 122.34363097034947 L 391.6523185697179 122.70982050521769 L 391.6653778055608 123.07803880132144 L 392.13351724381795 123.44830846341694 L 392.2596223606661 123.82065247617658 L 392.858760655874 124.19509421274995 L 393.33579557152643 124.57165744356826 L 393.60705262532963 124.95036634539923 L 393.8011334844013 125.33124551066152 L 394.6560615564231 125.71431995700766 L 394.88431155874395 126.09961513718451 L 395.16468318793727 126.48715694918161 L 395.17847970942483 126.8769717466767 L 395.4750291413174 127.26908634978963 L 395.6442871029839 127.66352805615543 L 395.80385776170516 128.06032465232772 L 396.00793231552154 128.45950442552487 L 397.0472599912374 128.86109617573032 L 397.6332189159353 129.2651292281618 L 397.73821347403214 129.6716334461213 L 397.7496962585353 130.08063924423976 L 397.99724959421064 130.49217760213327 L 398.030342167609 130.90628007848323 L 398.2918671913054 131.32297882555957 L 398.87793313890074 131.7423066042 L 399.0888814904337 132.1642967992666 L 399.3877590113628 132.5889834355956 L 400.2900507612841 133.01640119445983 L 400.8799388076733 133.4465854305643 L 401.37108433224836 133.87957218959497 L 401.3945016355059 134.31539822634346 L 402.7771207226909 134.75410102342943 L 403.90768892857545 135.19571881064536 L 404.5630601126069 135.640290584948 L 404.69235382314105 136.08785613112332 L 404.94501510859345 136.53845604315148 L 405.3469074505457 136.99213174630165 L 405.97411347777717 137.44892551998544 L 406.4058673637331 137.9088805214016 L 407.14406163647845 138.37204081000448 L 407.2951152440715 138.8384513728309 L 409.2048615915421 139.3081581507222 L 409.7661774651646 139.7812080654793 L 410.50412664585076 140.25764904799138 L 410.72604451552775 140.73753006737934 L 411.06195592921165 141.22090116120017 L 411.60754615276835 141.70781346675676 L 413.2842633512682 142.19831925356362 L 413.5041174794004 142.69247195701917 L 415.06688701898736 143.19032621333952 L 415.073819122514 143.69193789581038 L 415.39933763384397 144.19736415241766 L 415.8575420494179 144.7066634449195 L 416.32407622924865 145.2198955894267 L 417.3513483445969 145.7371217985634 L 419.17693547613857 146.25840472527983 L 419.2811956465707 146.7838085083976 L 419.297621002342 147.31339881996928 L 420.0011686058919 147.84724291453995 L 420.5257145299078 148.385409680404 L 420.64417344668317 148.9279696929529 L 420.6708293500591 149.47499527021932 L 421.04182308757436 150.02656053072553 L 421.16464339658535 150.58274145375293 L 421.55362008327916 151.14361594215393 L 421.56302299343616 151.70926388783778 L 421.9448199151828 152.27976724006555 L 422.4546460984971 152.8552100767032 L 423.9196949613879 153.43567867858565 L 424.10344849365566 154.02126160715648 L 424.6374359963413 154.61204978555946 L 425.77045243107295 155.2081365833655 L 426.09330472791913 155.80961790513436 L 426.26671484584284 156.4165922830199 L 426.7693859802883 157.02916097364374 L 426.83935598724713 157.64742805947384 L 428.3669320849181 158.2715005549636 L 428.43036262463 158.90148851772153 L 428.55131919550917 159.53750516499957 L 428.55505025199875 160.17966699581012 L 428.6336372219359 160.828093918999 L 429.26081238420267 161.4829093876291 L 429.2791533785569 162.14424054004934 L 429.953703743537 162.81221834805257 L 430.02528607373864 163.48697777255558 L 430.05766774371966 164.16865792726173 L 430.1807084889981 164.85740225080565 L 430.29300147460617 165.5533586879095 L 430.3764766896326 166.25667988012617 L 430.4172381807926 166.9675233667822 L 430.5259822560455 167.68605179678343 L 431.40991577339565 168.41243315199569 L 431.47705469015256 169.1468409829676 L 433.1233235201995 169.8894546578228 L 433.7165462644184 170.64045962521448 L 434.1254789971907 171.4000476923078 L 434.4488099804857 172.16841731883068 L 434.8218336754768 172.94577392832286 L 435.17555003844063 173.73233023780165 L 435.2985484252798 174.5283066071711 L 435.5358801509825 175.33393140980814 L 435.7153492809759 176.14944142588593 L 436.4345840257687 176.97508226012945 L 436.6591697103232 177.81110878584616 L 436.67134450763615 178.6577856172418 L 437.09223683513943 179.51538761221053 L 437.09816950622246 180.38420040798962 L 437.70730365596876 181.26452099229147 L 438.2212645555104 182.15665831276948 L 438.6561109807201 183.06093392794793 L 439.81360050119906 183.97768270304778 L 439.92828484312787 184.90725355447705 L 440.41311239418377 185.8500102471255 L 440.59882306312363 186.8063322490255 L 441.0806245760238 187.7766156484031 L 442.2912877308289 188.76127413866533 L 442.3121712497225 189.7607400774566 L 442.98820724608083 190.77546562656573 L 443.45565872199484 191.80592398020968 L 443.6663370726498 192.85261069004383 L 443.70488442272983 193.91604509618617 L 443.8503987973539 194.99677187459918 L 444.89565427999065 196.0953627123717 L 445.3532663208789 197.2124181238002 L 447.68274122541897 198.34856942171172 L 447.9849600859759 199.5044808602318 L 448.20380118963993 200.68085196720568 L 449.00460907057123 201.87842008678052 L 449.4126143227359 203.09796315529002 L 449.5622702718735 204.34030273660977 L 450.8233876966332 205.6063073466458 L 451.9491281243709 206.89689610064522 L 452.3438354401213 208.21304272169562 L 453.7188739834263 209.55577995420174 L 456.9938454210956 210.9262044324518 L 457.8292421019895 212.32548206177245 L 457.84593964490693 213.7548539784296 L 457.8611110569387 215.21564316461394 L 458.64249301732065 216.70926180686058 L 458.88531092266675 218.2372195004769 L 460.8572144181731 219.8011324194478 L 461.63049240948766 221.40273359145425 L 465.5870732560691 223.04388444177584 L 466.1347116745147 224.72658779888798 L 466.48925984972755 226.4530025896358 L 467.731988070082 228.2254604944157 L 468.8337407948112 230.04648488469405 L 470.01957095621617 231.91881242877184 L 470.944037750105 233.8454178300492 L 471.5492403687081 235.82954225910282 L 471.8269249360965 237.87472616185585 L 472.0508078438741 239.98484727783244 L 472.54730925453316 242.1641648940178 L 472.9342419715568 244.41737160335794 L 473.92822211093664 246.7496541488519 L 473.9981643453101 249.16676533693624 L 474.9533297257544 251.67510952829213 L 475.8112358786989 254.28184490334172 L 475.8742108295662 256.995006614098 L 476.4096339238503 259.8236561600758 L 477.93067477729414 262.7780639885069 L 478.1368048089873 265.8699346010942 L 479.7141291048179 269.11268662342184 L 480.10059451313475 272.52180477128206 L 480.6958899525995 276.1152870663402 L 482.05591055423463 279.91422001169553 L 483.16562453722787 283.94352834350195 L 483.2222503636863 288.232967075664 L 483.3281871830001 292.8184563304981 L 484.82212405900515 297.74391170993835 L 485.50928948991077 303.0638087957444 L 487.2073476314663 308.8468661701529 L 488.2322371260599 315.18148880506806 L 491.57936383423964 322.1840892479865 L 492.2793214288371 330.0123305251485 L 492.37859144467694 338.88725851214474 L 493.3627917445177 349.1326109773902 L 502.3219989756776 361.2502909867143 L 504.9697188336168 376.08113270679473 L 508.92168440210884 395.2014131590373 L 511.4416832510646 422.1499348884395 L 534.5537843270188 468.2187370700857" stroke-linejoin="bevel" stroke-miterlimit="10"/><path fill="none" stroke="none"/><path fill="none" stroke="blue" paint-order="fill stroke markers" d=" M 597.7783193012767 NaN" stroke-linejoin="bevel" stroke-miterlimit="10"/></g></g></g><g clip-path="url(#ldymepunRHtG)"><g><g><path fill="none" stroke="none"/><path fill="none" stroke="red" paint-order="fill stroke markers" d=" M 136.08468187148944 28.6074714496591 L 136.29965364498162 28.669097075258378 L 136.878142239418 28.730779894021907 L 137.2222674676147 28.792520012207206 L 138.46661025949214 28.854317536368512 L 139.25334369655238 28.916172573357244 L 139.31205424966572 28.978085230323472 L 139.6257663641729 29.040055614717176 L 139.82576289912217 29.102083834289033 L 139.89843785096465 29.164169997091733 L 141.30032165025713 29.22631421148094 L 142.43886826312482 29.288516586116828 L 142.94676867783946 29.35077722996448 L 143.44105709533034 29.4130962522961 L 144.20215468584246 29.475473762690967 L 144.36003501312416 29.537909871037527 L 145.96961178317395 29.60040468753408 L 146.59335831759145 29.662958322690145 L 151.02362801402128 29.725570887327535 L 153.0161963264727 29.788242492581446 L 153.3207054462397 29.85097324990204 L 153.91093228171812 29.913763271055075 L 155.02777309522003 29.976612668123494 L 156.5847022369656 30.03952155350845 L 157.721251350697 30.10249003993067 L 158.17354016514474 30.165518240431368 L 159.15556352068836 30.228606268373937 L 159.2568245621622 30.291754237444763 L 159.81066412234065 30.35496226165452 L 160.9206456795848 30.418230455339426 L 161.07355776696738 30.481558933162773 L 161.34549470769593 30.544947810115787 L 162.54764061485307 30.608397201518983 L 163.6009593350012 30.67190722302354 L 164.3766284933809 30.735477990612367 L 165.43063620026143 30.79910962060177 L 165.5900831708629 30.862802229642057 L 166.27771442086896 30.92655593471966 L 166.5195434329012 30.990370853157685 L 167.7820694768943 31.054247102617467 L 168.467328799829 31.118184801100256 L 168.7402132955711 31.182184066947855 L 169.02325003070519 31.246245018844377 L 169.38565830016978 31.310367775817383 L 169.84729611609072 31.374552457239417 L 174.9137084987284 31.43879918282903 L 175.07764109576885 31.50310807265248 L 175.121410325697 31.56747924712471 L 175.6256461032014 31.63191282701098 L 175.63822281878709 31.696408933428074 L 176.5156187104727 31.76096768784555 L 177.11585965375016 31.825589212087777 L 177.1303821715203 31.890273628334228 L 177.70396289237533 31.955021059121805 L 178.3059630816726 32.019831627345866 L 178.55778365590635 32.08470545626142 L 179.14307915163317 32.14964266948499 L 180.00246118208653 32.21464339099572 L 180.39243643722506 32.279707745136704 L 182.9117616650241 32.344835856616896 L 183.27928468781278 32.410027850511824 L 183.32560214565478 32.47528385226576 L 183.896644078078 32.540603987692634 L 184.22938176931166 32.605988382977955 L 184.48324778565745 32.671437164679446 L 185.4615358285359 32.736950459729826 L 185.64876315327552 32.80252839543698 L 185.74620476745582 32.86817109948623 L 186.153880335287 32.93387869994143 L 187.28177897268966 32.999651325247044 L 189.10962648505566 33.06548910422879 L 189.28951690126064 33.13139216609562 L 189.44323337874968 33.19736064044167 L 190.98805225263953 33.26339465724686 L 192.15505827135138 33.32949434687919 L 192.40102183169324 33.395659840096016 L 192.84929508257596 33.461891268045406 L 193.19257107817137 33.52818876226797 L 193.2527817223196 33.594552454698544 L 193.5189781438478 33.66098247766723 L 194.01080106702148 33.72747896390172 L 194.56236886854603 33.794042046528034 L 194.6455957321001 33.860671859072966 L 195.0457328902803 33.927368535465064 L 199.72271285311 33.99413221003658 L 200.04545241608568 34.060963017524955 L 200.53766323011052 34.1278610930745 L 200.75516442532228 34.194826572238014 L 201.38259183609262 34.261859590978474 L 201.4772078019788 34.32896028567046 L 202.1002174058508 34.39612879310249 L 202.4929250999166 34.46336525047769 L 202.59856311372488 34.530669795416316 L 203.17797513653477 34.59804256595697 L 203.26739052283958 34.66548370055858 L 203.3667725405886 34.73299333810212 L 203.4884548608826 34.80057161789176 L 204.93485480380573 34.868218679657446 L 205.05433402804496 34.93593466355611 L 205.49039669596823 35.00371971017347 L 205.58464816315944 35.0715739605256 L 208.15351123061765 35.139497556061485 L 209.74373883600774 35.20749063866373 L 210.72776399772206 35.275553350650966 L 210.7636820139586 35.343685834779535 L 211.39922211259415 35.41188823424534 L 213.18175239432662 35.48016069268539 L 213.23530391840706 35.5485033541799 L 214.1206808734771 35.61691636325412 L 214.29748813932247 35.68539986487957 L 214.63684927509308 35.753954004477066 L 214.93179747380202 35.82257892791728 L 216.41219825643748 35.891274781523634 L 217.30960618672378 35.960041712073405 L 217.3559263182492 36.02887986680008 L 217.45429830771698 36.09778939339526 L 217.68995150452042 36.166770440010055 L 217.7636373701361 36.23582315525749 L 218.61550393484043 36.304947688214554 L 218.70976868247539 36.374144188423486 L 220.85484333829373 36.44341280589424 L 220.87488628026583 36.5127536911063 L 221.11141985748338 36.582166995010596 L 221.80856379811945 36.651652869031466 L 222.0097837662159 36.72121146506879 L 222.16964937002277 36.790842935499825 L 223.27652748598487 36.860547433181125 L 223.74388577990095 36.930325111450884 L 224.24796122594933 37.000176124130576 L 224.90944065006505 37.07010062552746 L 225.77077318332817 37.14009877043594 L 225.90580239283491 37.21017071414019 L 225.97734667094124 37.280316612416186 L 228.6018258065291 37.35053662153359 L 229.38099585059211 37.42083089825775 L 229.53927259457282 37.491199599851996 L 229.61173131994127 37.56164288407979 L 230.24052985902256 37.63216090920679 L 231.1177033474678 37.70275383400275 L 231.35084218415147 37.773421817744065 L 231.54219467168107 37.844165020215655 L 231.724871306102 37.91498360171323 L 232.37558059852284 37.98587772304529 L 232.51748012395203 38.056847545535845 L 232.58681152307702 38.12789323102578 L 232.79743947926232 38.19901494187582 L 233.0670300185053 38.27021284096844 L 233.31530550563957 38.341487091710064 L 233.39859421554172 38.41283785803353 L 233.9369487174445 38.48426530440008 L 234.2769777288193 38.55576959580168 L 235.9033480179963 38.627350897763506 L 236.61986515956096 38.69900937634628 L 236.98006779372258 38.77074519814806 L 237.60365023022163 38.842558530307315 L 237.95244527846674 38.914449540504506 L 238.65146451749666 38.98641839696512 L 239.54043609166973 39.05846526846153 L 239.89269135857216 39.130590324315676 L 239.90662157666486 39.20279373440127 L 240.07665576791368 39.27507566914625 L 240.0973617156974 39.34743629953516 L 240.23438603758302 39.41987579711184 L 240.37585722504815 39.492394333981395 L 240.68500596673417 39.564992082813035 L 241.81374840575754 39.63766921684237 L 242.2652053445738 39.71042590987395 L 242.73253531710623 39.783262336283656 L 242.93465108149817 39.85617867102144 L 243.51060449118856 39.92917508961358 L 245.10965333050405 40.00225176816531 L 246.1938443526392 40.07540888336359 L 246.36003683098167 40.14864661247918 L 246.43446406421558 40.22196513336968 L 246.45788267729068 40.29536462448186 L 246.5261240888044 40.36884526485454 L 246.8508457413458 40.442407234120765 L 247.10455007219582 40.516050712510946 L 248.12784918670008 40.58977588085503 L 248.28452240555941 40.6635829205855 L 248.75621395866995 40.7374720137401 L 249.6799285784611 40.811443342964196 L 250.1315676511741 40.88549709151357 L 250.30005958348212 40.95963344325753 L 250.34121917676606 41.03385258268111 L 250.80296348670066 41.10815469488824 L 251.84067861399095 41.18253996560429 L 251.89881113923974 41.25700858117892 L 251.91370194382756 41.331560728588784 L 252.1943783191682 41.40619659544063 L 253.29777945058902 41.4809163699739 L 253.45497747415953 41.55572024106351 L 254.76851560867186 41.63060839822282 L 255.35659703756195 41.7055810316067 L 257.5625113711583 41.780638332014064 L 257.84542242784437 41.85578049089105 L 258.4080942256679 41.93100770033385 L 258.46103000815526 42.00632015309168 L 259.09617785549824 42.08171804256983 L 259.592033242275 42.15720156283237 L 259.9681338433883 42.2327709086054 L 259.9886496126988 42.30842627528017 L 260.2921309923316 42.38416785891553 L 260.47612785627155 42.4599958562419 L 260.61978949016196 42.535910464663345 L 261.0129584826938 42.61191188226138 L 261.1582131972964 42.68800030779789 L 261.83464048641986 42.76417594071796 L 261.98880719988904 42.8404389811534 L 262.6985513015402 42.91678962992563 L 262.8295052520697 42.99322808854902 L 263.0597643188669 43.06975455923407 L 263.08912220180423 43.14636924489042 L 263.4821699523852 43.22307234913029 L 264.08093937611784 43.299864076271774 L 264.2385154055547 43.37674463134181 L 264.62828450303675 43.453714220079746 L 265.1459854452051 43.5307730489406 L 265.5113789996184 43.60792132509812 L 265.517159376835 43.68515925644863 L 265.9523164442077 43.762487051613846 L 266.07162462484575 43.839904919944615 L 266.59159955650625 43.917413071524265 L 267.8625416942705 43.99501171717179 L 268.0610769000012 44.072701068445724 L 268.35876838448144 44.15048133764708 L 268.4393185250617 44.22835273782306 L 268.65384122309376 44.30631548277108 L 269.10628960073893 44.384369787041294 L 269.1476062646144 44.462515865940816 L 269.4231384804034 44.54075393553711 L 270.2358628428855 44.61908421266162 L 270.8569903040498 44.69750691491339 L 271.2311198677903 44.77602226066239 L 272.3216245178014 44.85463046905369 L 272.39983202272464 44.93333176001079 L 272.59968531385545 45.01212635423917 L 272.70355153153304 45.091014473230416 L 272.9750882328973 45.169996339265765 L 273.37796952189206 45.24907217541954 L 273.4574107483895 45.3282422055637 L 273.67073993380535 45.40750665437082 L 274.097997008678 45.48686574731835 L 274.4468862473564 45.56631971069248 L 274.6567400767298 45.64586877159189 L 274.6802632716314 45.725513157931516 L 274.9089906850055 45.80525309844694 L 275.1261173853776 45.88508882269764 L 275.1946524045854 45.96502056107164 L 275.4123477898612 46.04504854478898 L 275.7253980052478 46.12517300590605 L 275.9221587236053 46.20539417731953 L 277.545031523748 46.28571229277043 L 277.54666459414085 46.36612758684805 L 277.9217279936985 46.44664029499438 L 278.7976417461548 46.52725065350813 L 279.04163687754976 46.607958899548635 L 279.0834152927775 46.688765271140426 L 279.67360941538413 46.769670007177126 L 279.87131589131855 46.85067334742598 L 279.92114979343455 46.9317755325319 L 280.024327048705 47.01297680402172 L 280.208547409781 47.09427740430874 L 280.4849336846788 47.175677576696955 L 280.7028845764972 47.25717756538535 L 280.88757478168816 47.33877761547234 L 281.35886500529256 47.42047797296027 L 282.3448681374051 47.50227888475962 L 282.80309668267125 47.58418059869393 L 282.8989690394026 47.66618336350382 L 283.27175275595266 47.748287428851995 L 283.5943908286951 47.830493045327216 L 284.03666889071155 47.91280046444945 L 284.9998544892743 47.995209938674236 L 285.08354140681945 48.07772172139727 L 285.59360103027825 48.16033606695936 L 285.6531309931125 48.24305323065073 L 285.7490137674895 48.325873468716054 L 285.9204335722781 48.40879703835901 L 286.1144364005055 48.491824197747405 L 286.1433328241045 48.57495520601765 L 286.2796733100854 48.65819032327971 L 286.6320801774218 48.74152981062207 L 286.91196091260525 48.82497393011664 L 286.9367961217373 48.908522944823744 L 287.1583380152158 48.992177118796576 L 287.65488306382116 49.07593671708719 L 288.41610969008343 49.159802005750635 L 288.59185614484676 49.2437732518506 L 289.13695357619594 49.32785072346411 L 289.4305942636928 49.41203468968695 L 290.0221597331956 49.496325420638755 L 290.1798436860953 49.580723187468095 L 290.3219306497362 49.66522826235797 L 290.3762938478551 49.74984091853071 L 290.66578837472093 49.83456143025353 L 290.9800573311833 49.919390072843896 L 292.2304075830301 50.004327122674795 L 292.3516585439123 50.08937285717991 L 292.5893468156506 50.17452755485965 L 292.93717079171313 50.259791495286095 L 292.9959476480977 50.345164959108615 L 293.2845204157951 50.43064822805957 L 293.4153771900851 50.516241584959744 L 293.444903697565 50.60194531372389 L 293.50677043128604 50.68775969936695 L 293.6125124630606 50.773685028008686 L 293.9114629623788 50.85972158688031 L 293.9490954898185 50.94586966432996 L 294.0590879147969 51.032129549828426 L 294.85748936021787 51.11850153397506 L 294.9453764555104 51.2049859085036 L 295.0851561370022 51.29158296628822 L 295.73413039680224 51.378293001349164 L 296.3933806326912 51.46511630885908 L 296.4349499837622 51.552053185148964 L 296.75936107249794 51.63910392771402 L 296.7619942550799 51.72626883522008 L 296.9448207072096 51.81354820750954 L 297.1413011039815 51.900942345607575 L 297.43873815255444 51.98845155172842 L 297.8093951354424 52.0760761292816 L 297.90901670941275 52.163816382878395 L 297.9458574172438 52.251672618337864 L 298.44183399336333 52.33964514269354 L 298.5512078826595 52.42773426419973 L 298.5613860621248 52.5159402923382 L 298.66397401543173 52.60426353782424 L 298.7853062847033 52.69270431261373 L 298.8976323323269 52.78126292990942 L 299.0831120043946 52.869939704167905 L 299.2204177776134 52.958734951105896 L 299.3577025154245 53.04764898770725 L 299.3696288160275 53.13668213222985 L 299.56981360316655 53.225834704212104 L 299.66517554677733 53.3151070244802 L 300.6651406037083 53.4044994151547 L 300.83132570337295 53.494012199657675 L 301.0074560291746 53.58364570271982 L 301.2237531119222 53.67340025038743 L 301.2736649427154 53.763276170029314 L 301.3925186684084 53.8532737903443 L 301.403296327627 53.943393441368244 L 301.7315629305072 54.033635454481384 L 301.79628387572745 54.1240001624156 L 302.2830552383029 54.21448789926177 L 302.7988567994822 54.30509900047724 L 303.2928753473568 54.39583380289315 L 303.61376561363716 54.486692644722154 L 303.7919380184228 54.577675865565766 L 303.98287835896997 54.668783806422084 L 304.02321555014606 54.760016809693695 L 304.2384174974424 54.85137521919478 L 304.46161895252146 54.94285938015946 L 304.85308323098695 55.03446963924955 L 304.98487382726603 55.126206344562036 L 305.0764043021876 55.21806984563739 L 305.43338147558615 55.310060493467745 L 305.5059299680549 55.40217864050419 L 305.727114132191 55.49442464066573 L 306.27905796985533 55.586798849346735 L 306.299643501641 55.679301623425886 L 306.39989798259046 55.77193332127365 L 306.4936925333485 55.864694302761166 L 306.92940353996096 55.957584929268535 L 306.9900498602751 56.05060556369307 L 307.07925173508016 56.143756570457924 L 307.5715978523334 56.237038315520806 L 307.9869986793135 56.330451166382375 L 308.02971780076643 56.423995492094946 L 308.19089469134076 56.51767166327153 L 308.2201538356667 56.61148005209418 L 308.4589102193537 56.70542103232327 L 309.3176064526837 56.79949497930613 L 309.5762948499649 56.893702269986306 L 310.41290189351076 56.988043282912486 L 311.2475055789985 57.082518398247544 L 311.2705546242153 57.17712799777803 L 311.4837796599023 57.271872464922865 L 312.23244796248196 57.36675218474346 L 312.3577720248795 57.46176754395225 L 312.37535678727886 57.55691893092296 L 312.44035360050276 57.65220673569951 L 313.0984565820756 57.74763135000575 L 313.50232244519384 57.843193167255436 L 313.60059153117993 57.93889258256161 L 313.631095923716 58.03472999274669 L 313.7013986309571 58.13070579635189 L 314.22497687648104 58.22682039364764 L 314.46645891240075 58.323074186643396 L 314.6450576140114 58.41946757909784 L 315.4512219011287 58.516000976528744 L 315.476039531146 58.612674786223636 L 315.4980848446369 58.709489417249586 L 315.592925708588 58.806445280464345 L 315.9250309382252 58.90354278852584 L 315.94174655607947 59.00078235590365 L 316.1290390384969 59.09816439888908 L 316.4865098639359 59.19568933560578 L 316.5430319429946 59.293357586020875 L 316.79867062856 59.39116957195574 L 317.044667177974 59.48912571709673 L 317.17503472787587 59.587226447006174 L 317.1826370895092 59.68547218913386 L 317.6023396171298 59.78386337282774 L 317.6624134420644 59.88240042934552 L 317.9190219383529 59.981083791865785 L 318.04381115995267 60.07991389549966 L 318.54634066587903 60.178891177302035 L 318.6922534136929 60.27801607628328 L 318.7226113596373 60.37728903342111 L 318.7847815073681 60.47671049167201 L 319.1325014074303 60.57628089598353 L 319.16562815514476 60.67600069330575 L 319.2254859345793 60.775870332603574 L 319.3392828286732 60.87589026486904 L 319.3965780790571 60.97606094313318 L 319.45692767491016 61.07638282247848 L 319.7464178132691 61.176856360051374 L 320.01501685557946 61.277482015074554 L 320.5659548273161 61.3782602488597 L 321.0991486484322 61.479191524820294 L 321.4969509789221 61.58027630848409 L 321.84955619956065 61.6815150675061 L 322.18108708151556 61.78290827168189 L 322.41916920111476 61.884456392960146 L 322.5651568201981 61.986159905456304 L 322.5845155437015 62.08801928546552 L 322.9188083501723 62.190035011476255 L 323.17291660009073 62.29220756418357 L 323.3878134208653 62.394537426503064 L 323.5186965034306 62.49702508358399 L 323.55754614968265 62.59967102282366 L 323.6645435978296 62.702475733881045 L 324.3114100424591 62.80543970869081 L 324.4704831752846 62.90856344147744 L 324.4908540792595 63.0118474287695 L 324.65016893868005 63.115292169413976 L 324.8504465541313 63.21889816459094 L 325.31467403928036 63.32266591782752 L 325.3842037517743 63.42659593501327 L 325.81503236393917 63.530688724414574 L 326.1429761527229 63.63494479668975 L 326.4040066916865 63.73936466490386 L 326.4949062226749 63.843948844544 L 326.76379502568136 63.94869785353467 L 326.9437530120417 64.05361221225297 L 327.19269138391905 64.15869244354423 L 327.32019408525855 64.26393907273757 L 327.6646313921253 64.36935262766173 L 327.832384402048 64.47493363866096 L 327.87960875330094 64.58068263861082 L 327.94127369246763 64.68660016293461 L 328.91654906753496 64.79268674961969 L 328.9480951674873 64.89894293923334 L 328.9760097576688 65.00536927493982 L 329.47570877442547 65.11196630251686 L 329.4989494158977 65.21873457037242 L 329.64451405596753 65.32567462956172 L 329.7177492952626 65.43278703380412 L 329.8310932136405 65.5400723395004 L 330.4881685014922 65.64753110575032 L 330.63348793453713 65.75516389436979 L 330.80832645772034 65.86297126990848 L 331.0676721906732 65.97095379966817 L 331.1718796439827 66.07911205371971 L 331.44800658393194 66.18744660492194 L 331.84378288399756 66.29595802893914 L 331.9639899318858 66.40464690426046 L 332.4825150579797 66.51351381221707 L 332.5808546374769 66.62255933700186 L 332.6021807048837 66.73178406568769 L 332.72056072904 66.84118858824678 L 333.25473449459946 66.9507734975694 L 333.5329477817332 67.06053938948338 L 334.0044187209472 67.1704868627736 L 334.6994786339278 67.28061651920154 L 334.85092392522165 67.3909289635248 L 335.301406651505 67.50142480351741 L 335.63058178557077 67.61210464998959 L 335.66294271217123 67.72296911680837 L 336.2216727002601 67.8340188209176 L 336.46240202924724 67.94525438235888 L 336.64968576213636 68.05667642429228 L 336.8761959277568 68.16828557301699 L 336.9333294890495 68.28008245799288 L 337.0633976543524 68.39206771186144 L 337.42922896257403 68.50424197046755 L 337.86094074958396 68.61660587288094 L 338.0818965685655 68.7291600614181 L 338.12924834079143 68.84190518166423 L 338.29389506371297 68.95484188249571 L 338.52276390636564 69.06797081610222 L 338.5310503008003 69.18129263800944 L 338.74612302898794 69.29480800710184 L 338.9326754638154 69.40851758564582 L 339.0946611131452 69.52242203931269 L 339.21705564464855 69.63652203720193 L 339.2801783856131 69.75081825186516 L 339.43104335060457 69.86531135932961 L 339.5546529140619 69.9800020391225 L 339.56504178691796 70.09489097429446 L 340.09169335891966 70.20997885144482 L 340.31514686121415 70.32526636074584 L 340.48965922605106 70.44075419596732 L 340.77846567752454 70.55644305450215 L 341.3401403951468 70.67233363739109 L 341.44577854811075 70.78842664934871 L 341.7072306691433 70.9047227987885 L 342.06155586428764 71.02122279784976 L 342.5177186745306 71.13792736242254 L 342.7826441988981 71.25483721217506 L 343.3009934399725 71.37195307058005 L 343.34411600430485 71.48927566494115 L 343.3515039773439 71.60680572642065 L 344.0680282604262 71.72454399006648 L 344.698752322891 71.84249119483985 L 344.79237165605286 71.96064808364315 L 345.1279998434049 72.07901540334802 L 345.138221143655 72.19759390482358 L 346.2114337217713 72.31638434296491 L 346.8850015271006 72.43538747672238 L 347.0562297832623 72.55460406913011 L 347.4599731477034 72.67403488733555 L 347.5385406185243 72.79368070262962 L 348.00252030701324 72.91354229047562 L 348.02691528630095 73.03362043054028 L 348.42619733458355 73.15391590672357 L 349.31655661563354 73.27442950718984 L 349.40613464155257 73.39516202439847 L 349.4822098994036 73.51611425513534 L 350.4262149419825 73.6372870005444 L 350.4815795135695 73.75868106615934 L 350.53838528212617 73.88029726193582 L 350.94215597342384 74.00213640228407 L 350.9428218498326 74.12419930610105 L 351.00935534891914 74.24648679680416 L 351.7124310538812 74.3689997023643 L 352.12348771507084 74.49173885533918 L 352.2102527314838 74.61470509290791 L 352.26029794105204 74.7378992569046 L 352.4700595611893 74.86132219385343 L 352.5285358225387 74.98497475500335 L 352.63501997411083 75.10885779636334 L 353.1692422308564 75.2329721787379 L 353.58018172725906 75.35731876776299 L 353.706876598924 75.48189843394232 L 353.7927829314674 75.60671205268369 L 354.0747555644081 75.73176050433636 L 354.08608387226826 75.85704467422772 L 354.1479132449381 75.9825654527013 L 354.3724790286721 76.10832373515467 L 354.61374716002075 76.23432042207764 L 354.71028417438157 76.36055641909098 L 355.1790640392017 76.48703263698565 L 355.18263106833933 76.613749991762 L 355.23502966594486 76.74070940466964 L 355.9058860629891 76.86791180224793 L 355.98901675980767 76.99535811636582 L 356.0660732117425 77.12304928426374 L 356.09640808467736 77.25098624859407 L 356.541482864287 77.3791699574636 L 356.6929045399961 77.5076013644753 L 356.87096426297364 77.63628142877093 L 356.88787690025487 77.76521111507418 L 357.0143173386201 77.89439139373394 L 357.0491831882489 78.02382324076802 L 357.10768051794133 78.15350763790764 L 357.1278836463411 78.28344557264194 L 357.2557418634064 78.41363803826306 L 357.30799953871644 78.54408603391198 L 357.9544411173551 78.67479056462406 L 358.13747769979653 78.8057526413761 L 358.16420762581316 78.9369732811324 L 358.4197629887457 79.06845350689332 L 358.44880727560195 79.20019434774184 L 358.6009184384668 79.33219683889303 L 359.09534306906454 79.46446202174224 L 359.2075175957474 79.5969909439142 L 359.473936442814 79.72978465931351 L 359.5040622938444 79.86284422817425 L 359.6048761572549 79.99617071711123 L 359.9627184069275 80.12976519917123 L 360.6005424642326 80.26362875388429 L 360.761719271778 80.39776246731674 L 361.269592972956 80.53216743212391 L 361.29421383895635 80.6668447476032 L 361.49769624215105 80.80179551974828 L 361.65324241436974 80.93702086130372 L 361.9887492146936 81.07252189181963 L 362.17545753744713 81.20829973770776 L 362.1756652622174 81.34435553229719 L 362.3423378069001 81.48069041589156 L 362.82579519656906 81.61730553582618 L 363.01298633222405 81.75420204652579 L 363.2731254689552 81.89138110956355 L 363.3328171689843 82.02884389371962 L 363.413678463407 82.16659157504142 L 363.63689082383667 82.30462533690377 L 363.88671408993594 82.4429463700697 L 364.0532240026955 82.58155587275252 L 364.338557302696 82.72045505067769 L 364.4374339884836 82.85964511714604 L 364.53215873552017 82.9991272930971 L 364.92543293332557 83.13890280717362 L 365.20793919179454 83.27897289578641 L 365.21648623074657 83.41933880317981 L 365.4260769962618 83.56000178149822 L 365.6311828765583 83.70096309085295 L 365.87696916963216 83.98378578335945 L 365.9309982758251 84.12564972718206 L 366.0022888429662 84.26781712352198 L 366.0509409266301 84.41028927335634 L 366.1264730852854 84.5530674860463 L 366.18497195115026 84.69615307940978 L 366.3346828934969 84.83954737979434 L 366.6734421060865 84.98325172215073 L 366.9777913081049 85.12726745010775 L 367.31246235975055 85.27159591604749 L 367.383928818542 85.41623848118132 L 367.5941672130041 85.56119651562761 L 367.6804213199714 85.70647139848859 L 367.709498692893 85.85206451792988 L 367.7443570416767 85.99797727125974 L 367.95662967247347 86.14421106500976 L 368.1875462849131 86.29076731501584 L 368.2017467310046 86.43764744650076 L 368.33157908467626 86.58485289415717 L 368.37475484196443 86.73238510223177 L 368.4946083884302 86.88024552461042 L 368.62944281481157 87.0284356249037 L 368.8815518250168 87.17695687653446 L 369.41829423133504 87.32581076282503 L 369.5350638902399 87.47499877708691 L 369.9028271295475 87.62452242270973 L 370.2012746746041 87.77438321325297 L 370.29285881017637 87.92458267253727 L 370.9828558018391 88.0751223347379 L 371.223102408173 88.22600374447859 L 371.4708516601508 88.37722845692628 L 371.50104699131384 88.52879803788801 L 371.8282353292403 88.6807140639076 L 371.849120209567 88.83297812236412 L 371.9255682104616 88.9855918115718 L 371.93142581814254 89.13855674088029 L 371.9849435733615 89.29187453077651 L 372.95624200179583 89.44554681298797 L 373.10039940541037 89.59957523058677 L 373.26273839509685 89.75396143809485 L 373.4579222304344 89.90870710159089 L 373.8291417644708 90.06381389881807 L 373.9721413976247 90.21928351929324 L 374.0583148517771 90.3751176644173 L 374.0796840215837 90.53131804758698 L 374.1221172247147 90.68788639430784 L 374.35001448584944 90.84482444230866 L 374.4224817544787 91.00213394165695 L 374.60957898405616 91.15981665487664 L 374.6633935270514 91.31787435706576 L 374.6867640468819 91.47630883601698 L 374.99987217937166 91.6351218923387 L 375.0797092525082 91.79431533957774 L 375.1479080326476 91.9538910043438 L 375.2511612565468 92.11385072643515 L 375.5803752595695 92.27419635896575 L 375.8069568307892 92.43492976849427 L 376.28194808124715 92.59605283515441 L 376.7924894303601 92.75756745278659 L 377.0119022106696 92.9194755290722 L 377.2163064330878 93.08177898566794 L 377.3683752177274 93.24447975834323 L 377.3925500891006 93.40757979711861 L 377.4067257561819 93.57108106640578 L 377.5236489143775 93.7349855451501 L 377.67429771210794 93.89929522697338 L 377.7667852068943 94.06401212032046 L 378.01445016491056 94.22913824860558 L 378.23818419966113 94.39467565036222 L 378.36409848940536 94.56062637939363 L 378.7906954632452 94.72699250492593 L 378.84097068485795 94.89377611176292 L 379.1545494159946 95.0609793004428 L 379.399129278715 95.22860418739685 L 380.0720098612887 95.39665290511033 L 380.3939105329076 95.56512760228492 L 380.70272881391884 95.73403044400413 L 380.85886489841147 95.9033636118998 L 380.89161968898964 96.07312930432096 L 381.1130759469846 96.24332973650593 L 381.1502944047964 96.41396714075489 L 381.42665424898456 96.58504376660602 L 382.0251453372207 96.75656188101317 L 382.1311817302398 96.92852376852647 L 382.3150443756946 97.10093173147453 L 382.6401947628103 97.27378809014982 L 382.7111180311247 97.44709518299533 L 382.84077556835854 97.62085536679518 L 383.0107857813941 97.79507101686625 L 383.05433219461935 97.96974452725374 L 383.3963819461791 98.14487831092782 L 383.6051137532501 98.32047479998408 L 383.68571542313424 98.496536445846 L 383.72008473115613 98.6730657194704 L 384.02448099263546 98.8500651115557 L 384.1080710003562 99.02753713275212 L 384.6067636696676 99.20548431387607 L 384.67591547192654 99.38390920612642 L 384.6950535106453 99.5628143813039 L 384.75817667593736 99.74220243203365 L 384.93969829781264 99.92207597199047 L 384.9592074156522 100.1024376361276 L 385.08375602766813 100.28329008090805 L 385.09173163503567 100.46463598453937 L 385.2576616344583 100.64647804721193 L 385.2799955581008 100.82881899133992 L 385.5779194498213 101.01166156180574 L 385.70466441703553 101.1950085262082 L 386.0334570261023 101.37886267511391 L 386.4385635799228 101.56322682231189 L 386.4504050627783 101.74810380507216 L 386.7676342449522 101.93349648440744 L 386.9108626118268 102.11940774533929 L 387.1812095825093 102.30584049716703 L 387.403869916374 102.49279767374117 L 387.7909073048772 102.6802822337404 L 387.888815194804 102.8682971609523 L 388.100988362226 103.0568454645587 L 388.269431040152 103.24593017942419 L 388.31252528161446 103.43555436638968 L 388.3713456225303 103.62572111256924 L 388.4753896142611 103.81643353165202 L 388.93085206974956 104.00769476420788 L 389.0394027814463 104.19950797799811 L 389.33570516149473 104.39187636828967 L 389.7894204181774 104.58480315817496 L 390.8730027621973 104.7782915988958 L 390.8887164066735 104.97234497017206 L 390.9647663670209 105.16696658053519 L 391.20554769751664 105.36215976766715 L 391.45753172168753 105.55792789874295 L 391.46187209836125 105.75427437078002 L 391.60422630055933 105.95120261099174 L 391.62311298860385 106.14871607714588 L 391.83880920045146 106.34681825792944 L 391.9921062379993 106.54551267331829 L 392.1424705921228 106.74480287495197 L 392.39368640568836 106.94469244651532 L 393.0554361843487 107.14518500412476 L 393.14652125800103 107.34628419672077 L 393.2677245996855 107.54799370646651 L 393.4052982507723 107.75031724915232 L 393.4123652778958 107.95325857460631 L 393.47047101470764 108.15682146711168 L 393.6977991025143 108.36100974582985 L 393.9566138392842 108.56582726523015 L 394.079034235527 108.77127791552726 L 394.26776222321655 108.97736562312366 L 394.29601059188377 109.18409435106025 L 395.0596449497834 109.39146809947374 L 395.23132209576266 109.59949090606085 L 395.67199300037475 109.80816684655008 L 395.7740663587245 110.01750003518083 L 396.40215419528073 110.22749462519039 L 396.4320522861821 110.43815480930795 L 396.69243431051115 110.64948482025704 L 396.80911855629887 110.86148893126597 L 397.25130695611205 111.07417145658599 L 397.6505408165051 111.2875367520187 L 397.7994831506033 111.50158921545028 L 398.2664529917706 111.7163332873966 L 398.31463734700003 111.93177345155476 L 398.31660411986815 112.14791423536593 L 398.50270281554447 112.36476021058542 L 398.7334879503189 112.58231599386329 L 398.91638806913215 112.80058624733397 L 398.9582541282834 113.01957567921556 L 398.9636946011428 113.23928904441988 L 398.9707489865774 113.45973114517102 L 399.19652016880843 113.68090683163575 L 399.3668949921182 113.90282100256377 L 399.39551489773646 114.12547860593844 L 399.9769104998715 114.34888463963898 L 400.0202950865209 114.57304415211377 L 400.57389430277885 114.79796224306426 L 400.7920799538329 115.02364406414199 L 400.83633630664406 115.25009481965566 L 401.1461547688598 115.47731976729216 L 401.4520783559272 115.70532421884809 L 401.7894189698224 115.93411354097594 L 402.1500390191235 116.16369315594068 L 402.1587105060453 116.394068542392 L 402.17955909775924 116.62524523614837 L 402.1810949427448 116.85722883099487 L 402.26149419469044 117.09002497949598 L 402.3962797333586 117.32363939382128 L 402.60850415178453 117.55807784658737 L 403.7895065000295 117.79334617171264 L 404.10404333917216 118.02945026528943 L 404.1849139579989 118.2663960864698 L 404.3287615972284 118.5041896583686 L 404.37597277858134 118.74283706898183 L 404.5480204192812 118.98234447212184 L 404.6947443103539 119.22271808836979 L 405.0402384936935 119.4639642060447 L 405.45152269685855 119.70608918219062 L 405.73249516658524 119.9490994435821 L 405.73511622866266 120.19300148774727 L 405.9402174294768 120.43780188401047 L 406.27873807495484 120.68350727455407 L 406.8596870181223 120.93012437549964 L 406.98063120691785 121.17765997800961 L 407.18008640348097 121.42612094940921 L 407.21303018900306 121.67551423432997 L 407.4021552360294 121.92584685587389 L 407.48009072208066 122.17712591680089 L 407.66420418601325 122.42935860073715 L 407.75506477231494 122.68255217340823 L 407.8261579822434 122.93671398389421 L 407.92421141381726 123.1918514659099 L 408.10069563463844 123.44797213910982 L 408.3878350433474 123.70508361041715 L 408.40455843383205 123.96319357538022 L 408.4272119071302 124.22230981955386 L 408.7033899992702 124.48244021990934 L 408.9723712829968 124.74359274627034 L 409.2158646214587 125.00577546277867 L 409.92299711773694 125.26899652938806 L 411.0675716245443 125.53326420338846 L 411.53744852956095 125.79858684095967 L 411.62325193939495 126.0649728987575 L 411.6633147596836 126.3324309355304 L 411.8589883289225 126.60096961377008 L 412.08404344506926 126.8705977013945 L 412.5156307053348 127.1413240734658 L 412.62287699873815 127.4131577139434 L 412.6711244937035 127.68610771747234 L 412.7052659812328 127.96018329120972 L 412.9103030815025 128.2353937566877 L 413.00870530805037 128.51174855171593 L 413.78797815914635 128.7892572323239 L 413.84750444551423 129.06792947474332 L 414.1219257487384 129.34777507743263 L 414.43968058695214 129.62880396314443 L 414.45887018227756 129.9110261810365 L 414.6658918131891 130.19445190882817 L 414.7977710859001 130.4790914550025 L 415.90859520602 130.76495526105595 L 416.0951595751144 131.05205390379695 L 416.18342354621774 131.34039809769365 L 416.4864075784654 131.62999869727383 L 416.9724171798975 131.92086669957604 L 417.14690046788155 132.21301324665603 L 417.193295439917 132.50644962814698 L 417.3040479536009 132.80118728387794 L 417.6506952882617 133.09723780654997 L 417.81455564641726 133.39461294447136 L 417.98254841400427 133.69332460435595 L 418.0855472002209 133.9933848541835 L 418.29079122049984 134.2948059261248 L 418.32788362732055 134.59760021953429 L 418.5874217800921 134.9017803040104 L 418.94144476887914 135.20735892252645 L 419.0223568478748 135.51434899463425 L 419.2802858360795 135.82276361974107 L 419.33194679977385 136.13261608046423 L 419.4553469378776 136.44391984606352 L 419.49712375766563 136.75668857595406 L 419.71647875850164 137.07093612330317 L 420.28409899438185 137.38667653871198 L 420.3237875377806 137.70392407398492 L 420.5839335145346 138.02269318599014 L 420.6055041541405 138.34299854061192 L 420.9161315354469 138.66485501680052 L 421.14455952563605 138.98827771071842 L 421.4960233052838 139.3132819399894 L 421.7107523824282 139.63988324805206 L 421.73113123089945 139.9680974086196 L 422.0185243106572 140.29794043025186 L 422.61154350155266 140.62942856103984 L 423.5299481345336 140.96257829340908 L 423.96303765253384 141.29740636904307 L 424.08472733425793 141.6339297839312 L 424.35099074612793 141.97216579354597 L 424.89122303753396 142.31213191815215 L 424.9982165897919 142.65384594825213 L 425.2637174217354 142.99732595017264 L 425.3604134001038 143.34259027179604 L 425.4166216066735 143.68965754844135 L 425.5383551417997 144.03854670889996 L 425.7107856862787 144.38927698163025 L 425.79796469148897 144.74186790111668 L 426.094278319842 145.09633931439828 L 426.3021623819743 145.45271138777264 L 426.324833262011 145.81100461367987 L 426.40899259616964 146.17123981777382 L 426.48274802859754 146.5334381661856 L 426.80874904201016 146.89762117298613 L 426.81441974145747 147.26381070785442 L 426.8913384020452 147.63202900395817 L 426.92161979963043 148.0022986660536 L 427.0571450467736 148.37464267881325 L 427.1179435029615 148.74908441538662 L 428.0176283290826 149.12564764620492 L 428.40269861304375 149.5043565480359 L 428.9678200917302 149.88523571329813 L 429.3090159841207 150.26831015964433 L 429.65563650250147 150.65360533982118 L 429.68833435482077 151.04114715181828 L 429.8771594791425 151.4309619493133 L 429.9525509112248 151.82307655242624 L 430.26492104758836 152.2175182587921 L 430.40607886246937 152.61431485496445 L 430.4077679690301 153.01349462816148 L 430.79255478580484 153.415086378367 L 430.9026274256537 153.81911943079854 L 431.03620994598805 154.22562364875796 L 431.33676586791466 154.63462944687643 L 431.65427914925505 155.04616780476982 L 431.66889456673005 155.46027028111996 L 431.7150457926801 155.87696902819624 L 431.9853079890062 156.2962968068366 L 432.3061545248675 156.71828700190326 L 432.4035876751403 157.14297363823232 L 432.5716652127107 157.5703913970965 L 432.8026776173857 158.00057563320092 L 432.8651154936742 158.43356239223158 L 432.9745559144038 158.86938842898013 L 433.21057589622177 159.30809122606604 L 433.4788042102394 159.74970901328197 L 433.81957566948864 160.1942807875846 L 433.87490701457557 160.64184633375993 L 434.55987518021925 161.09244624578815 L 434.9205304720013 161.54612194893826 L 435.220073558642 162.0029157226221 L 435.24620006916086 162.46287072403823 L 435.70148521006433 162.92603101264115 L 436.33461132977953 163.3924415754675 L 436.7420560702438 163.86214835335892 L 436.95708053812467 164.3351982681159 L 438.3796856313454 164.81163925062805 L 438.57967648729135 165.29152027001595 L 438.7461491492822 165.7748913638368 L 439.00362443303135 166.26180366939343 L 439.0518764559917 166.7523094562003 L 440.2431805562045 167.24646215965578 L 440.70482066664226 167.74431641597613 L 440.70533010933667 168.2459280984471 L 441.0810475089329 168.7513543550544 L 441.15867359906105 169.26065364755618 L 441.701846543928 169.77388579206337 L 441.74626908521145 170.29111200120008 L 442.2170105842011 170.8123949279165 L 442.25727392227054 171.33779871103428 L 442.2714135215196 171.8673890226059 L 442.47541068942036 172.40123311717662 L 442.53993175561175 172.93939988304072 L 442.9418808511026 173.48195989558957 L 443.92640233980353 174.028985472856 L 444.08094770034273 174.58055073336214 L 444.2125294087351 175.13673165638954 L 444.84817488064715 175.69760614479054 L 444.86021593366064 176.2632540904745 L 444.92929624892076 176.83375744270222 L 445.06402395362977 177.40920027933993 L 445.07769020073573 177.98966888122226 L 445.13944887839165 178.5752518097932 L 445.676093490096 179.16603998819613 L 445.97408349148253 179.76212678600217 L 446.5860375646654 180.36360810777097 L 446.9472392973827 180.9705824856565 L 447.02119937802235 181.5831511762804 L 447.05456159007673 182.2014182621105 L 447.25284717999875 182.82549075760028 L 447.4517676671913 183.4554787203582 L 447.69206874234277 184.0914953676363 L 449.20154681603753 184.73365719844674 L 449.20701305728835 185.38208412163567 L 449.3938513748045 186.03689959026576 L 449.7439581200494 186.69823074268606 L 450.6023614222103 187.3662085506893 L 451.56346659491027 188.0409679751922 L 451.67295611298783 188.72264812989835 L 452.2931529142612 189.4113924534422 L 452.31118173211223 190.10734889054618 L 452.4154146099255 190.81067008276284 L 452.78009896696204 191.5215135694188 L 453.06228002698 192.24004199942 L 453.2659828207829 192.96642335463235 L 453.34379781351936 193.70083118560427 L 453.5263893711498 194.44344486045952 L 454.33045358489454 195.19444982785114 L 454.3714911717249 195.95403789494446 L 454.38958939268474 196.72240752146735 L 454.4164525295646 197.4997641309596 L 454.4730210863342 198.28632044043832 L 455.4034006880513 199.08229680980776 L 456.02486024513945 199.8879216124447 L 456.0544711361708 200.70343162852254 L 456.580449656407 201.52907246276618 L 457.02691663140763 202.36509898848283 L 457.2289985229209 203.21177581987843 L 458.5060117329265 204.06937781484714 L 458.7223849680638 204.9381906106264 L 459.3286388102715 205.81851119492813 L 460.13024672386365 206.71064851540626 L 461.8332457451883 207.61492413058454 L 462.54467076961504 208.5316729056845 L 462.9694086479565 209.46124375711372 L 463.06477305085946 210.4040004497623 L 463.5295237684435 211.36032245166217 L 463.5302120579352 212.33060585103965 L 463.72636629780925 213.31526434130205 L 464.1111149918949 214.31473028009327 L 464.26458954730856 215.32945582920235 L 464.3743159325024 216.35991418284624 L 465.1123824874324 217.4066008926805 L 465.1300147785565 218.47003529882284 L 465.6679070635242 219.55076207723585 L 465.9282255429904 220.64935291500836 L 466.94251022421287 221.76640832643693 L 468.0056890476648 222.90255962434838 L 469.9047619635661 224.0584710628686 L 471.7793169308858 225.2348421698424 L 473.84564879691766 226.43241028941713 L 474.6477802635456 227.6519533579267 L 475.11186867282964 228.89429293924644 L 476.15615129413794 230.16029754928257 L 478.0356509074738 231.45088630328178 L 478.81570087842556 232.76703292433228 L 479.43565319118454 234.10977015683835 L 480.6996981139842 235.48019463508854 L 481.5527982476789 236.87947226440912 L 481.80222737761414 238.30884418106626 L 482.4893166498448 239.7696333672505 L 483.2388300261091 241.26325200949742 L 483.3349265381849 242.79120970311357 L 483.6166194081232 244.3551226220846 L 484.0192484091497 245.95672379409092 L 484.4855999791873 247.5978746444123 L 485.0369134784483 249.2805780015247 L 485.27202989200873 251.00699279227246 L 487.1672570966765 252.77945069705243 L 487.5980545163992 254.6004750873306 L 487.68764194149736 256.47280263140846 L 487.8641574796289 258.3994080326858 L 487.93328600027604 260.3835324617396 L 489.77966353510425 262.42871636449246 L 491.5916920458325 264.53883748046917 L 492.2310354450709 266.7181550966545 L 492.73098537003926 268.9713618059948 L 494.2756839139103 271.3036443514885 L 494.7396639066474 273.7207555395727 L 494.7640886362772 276.22909973092874 L 495.0011106993732 278.83583510597833 L 497.88313306270635 281.5489968167347 L 497.9692771906699 284.3776463627123 L 499.84141694448573 287.33205419114364 L 500.69284252655814 290.42392480373064 L 501.2765241946594 293.66667682605873 L 503.5244498874471 297.0757949739187 L 504.83582758660174 300.66927726897705 L 505.67118886974896 304.468210214332 L 508.04842531395906 308.4975185461389 L 508.45861957717784 312.78695727830075 L 510.28180006583864 317.372446533135 L 511.7637266222863 322.29790191257496 L 514.7006169699594 327.61779899838064 L 516.0432523580148 333.40085637278986 L 517.7845502913653 339.7354790077045 L 526.0885233237423 346.7380794506233 L 527.3389250398459 354.56632072778467 L 528.213235119278 363.44124871478124 L 535.0850190628053 373.68660118002686 L 535.1249081525407 385.8042811893515 L 542.1778996414912 400.63512290943083 L 548.4557174919922 419.75540336167444 L 551.4641260236552 446.70392509107705 L 565.2158558815163 492.7727272727273" stroke-linejoin="bevel" stroke-miterlimit="10"/><path fill="none" stroke="none"/></g></g></g><g clip-path="url(#zxWDByFbthBw)"><g><g/><g><path fill="#ffffff" stroke="#e5e5e5" paint-order="fill stroke markers" d=" M 123 415 L 264 415 L 264 506 L 123 506 L 123 415 Z" fill-opacity="0.95" stroke-linejoin="bevel" stroke-miterlimit="10" stroke-opacity="0.5"/><text fill="#444444" stroke="none" font-family="helvetica" font-size="24pt" font-style="normal" font-weight="normal" text-decoration="normal" x="158" y="442" text-anchor="start" dominant-baseline="central">male</text><g><path fill="none" stroke="blue" paint-order="fill stroke markers" d=" M 133 435 L 153 435" stroke-linejoin="bevel" stroke-miterlimit="10"/></g><text fill="#444444" stroke="none" font-family="helvetica" font-size="24pt" font-style="normal" font-weight="normal" text-decoration="normal" x="158" y="479" text-anchor="start" dominant-baseline="central">female</text><g><path fill="none" stroke="red" paint-order="fill stroke markers" d=" M 133 472 L 153 472" stroke-linejoin="bevel" stroke-miterlimit="10"/></g></g></g></g><g/><g/><g><g fill="#444444"><path fill="none" stroke="black" paint-order="fill stroke markers" d=" M 113 516 L 570 516" stroke-linejoin="bevel" stroke-miterlimit="10"/><path fill="none" stroke="black" paint-order="fill stroke markers" d=" M 353 522 L 353 514" stroke-linejoin="bevel" stroke-miterlimit="10"/><path fill="none" stroke="black" paint-order="fill stroke markers" d=" M 437 522 L 437 514" stroke-linejoin="bevel" stroke-miterlimit="10"/><path fill="none" stroke="black" paint-order="fill stroke markers" d=" M 486 522 L 486 514" stroke-linejoin="bevel" stroke-miterlimit="10"/><path fill="none" stroke="black" paint-order="fill stroke markers" d=" M 521 522 L 521 514" stroke-linejoin="bevel" stroke-miterlimit="10"/><path fill="" stroke="black" paint-order="fill stroke markers" d=" M 570 522 L 570 514" stroke-linejoin="bevel" stroke-miterlimit="10"/><g transform="translate(353,527) rotate(-59.99999999999999,0,0)"><text fill="" stroke="none" font-family="helvetica" font-size="24px" font-style="normal" font-weight="normal" text-decoration="normal" x="0" y="0" text-anchor="end" dominant-baseline="central">5.0e-4</text><g transform="rotate(59.99999999999999,0,0) translate(-353,-527) translate(437,527) rotate(-59.99999999999999,0,0)"><text fill="" stroke="none" font-family="helvetica" font-size="24px" font-style="normal" font-weight="normal" text-decoration="normal" x="0" y="0" text-anchor="end" dominant-baseline="central">1.0e-3</text><g transform="rotate(59.99999999999999,0,0) translate(-437,-527) translate(486,527) rotate(-59.99999999999999,0,0)"><text fill="" stroke="none" font-family="helvetica" font-size="24px" font-style="normal" font-weight="normal" text-decoration="normal" x="0" y="0" text-anchor="end" dominant-baseline="central">1.5e-3</text><g transform="rotate(59.99999999999999,0,0) translate(-486,-527) translate(521,527) rotate(-59.99999999999999,0,0)"><text fill="" stroke="none" font-family="helvetica" font-size="24px" font-style="normal" font-weight="normal" text-decoration="normal" x="0" y="0" text-anchor="end" dominant-baseline="central">2.0e-3</text><g transform="rotate(59.99999999999999,0,0) translate(-521,-527) translate(570,527) rotate(-59.99999999999999,0,0)"><text fill="" stroke="none" font-family="helvetica" font-size="24px" font-style="normal" font-weight="normal" text-decoration="normal" x="0" y="0" text-anchor="end" dominant-baseline="central">3.0e-3</text><g transform="rotate(59.99999999999999,0,0) translate(-570,-527)"/></g></g></g></g></g></g></g><g><g fill="#444444"><path fill="none" stroke="black" paint-order="fill stroke markers" d=" M 113 516 L 113 5" stroke-linejoin="bevel" stroke-miterlimit="10"/><path fill="none" stroke="black" paint-order="fill stroke markers" d=" M 107 486 L 115 486" stroke-linejoin="bevel" stroke-miterlimit="10"/><path fill="none" stroke="black" paint-order="fill stroke markers" d=" M 107 333 L 115 333" stroke-linejoin="bevel" stroke-miterlimit="10"/><path fill="none" stroke="black" paint-order="fill stroke markers" d=" M 107 180 L 115 180" stroke-linejoin="bevel" stroke-miterlimit="10"/><path fill="none" stroke="black" paint-order="fill stroke markers" d=" M 107 27 L 115 27" stroke-linejoin="bevel" stroke-miterlimit="10"/><path fill="none" stroke="black" paint-order="fill stroke markers" d=" M 109 510 L 113 510" stroke-linejoin="bevel" stroke-miterlimit="10"/><path fill="none" stroke="black" paint-order="fill stroke markers" d=" M 109 501 L 113 501" stroke-linejoin="bevel" stroke-miterlimit="10"/><path fill="none" stroke="black" paint-order="fill stroke markers" d=" M 109 493 L 113 493" stroke-linejoin="bevel" stroke-miterlimit="10"/><path fill="none" stroke="black" paint-order="fill stroke markers" d=" M 109 486 L 113 486" stroke-linejoin="bevel" stroke-miterlimit="10"/><path fill="none" stroke="black" paint-order="fill stroke markers" d=" M 109 486 L 113 486" stroke-linejoin="bevel" stroke-miterlimit="10"/><path fill="none" stroke="black" paint-order="fill stroke markers" d=" M 109 440 L 113 440" stroke-linejoin="bevel" stroke-miterlimit="10"/><path fill="none" stroke="black" paint-order="fill stroke markers" d=" M 109 413 L 113 413" stroke-linejoin="bevel" stroke-miterlimit="10"/><path fill="none" stroke="black" paint-order="fill stroke markers" d=" M 109 394 L 113 394" stroke-linejoin="bevel" stroke-miterlimit="10"/><path fill="none" stroke="black" paint-order="fill stroke markers" d=" M 109 379 L 113 379" stroke-linejoin="bevel" stroke-miterlimit="10"/><path fill="none" stroke="black" paint-order="fill stroke markers" d=" M 109 367 L 113 367" stroke-linejoin="bevel" stroke-miterlimit="10"/><path fill="none" stroke="black" paint-order="fill stroke markers" d=" M 109 357 L 113 357" stroke-linejoin="bevel" stroke-miterlimit="10"/><path fill="none" stroke="black" paint-order="fill stroke markers" d=" M 109 348 L 113 348" stroke-linejoin="bevel" stroke-miterlimit="10"/><path fill="none" stroke="black" paint-order="fill stroke markers" d=" M 109 340 L 113 340" stroke-linejoin="bevel" stroke-miterlimit="10"/><path fill="none" stroke="black" paint-order="fill stroke markers" d=" M 109 333 L 113 333" stroke-linejoin="bevel" stroke-miterlimit="10"/><path fill="none" stroke="black" paint-order="fill stroke markers" d=" M 109 333 L 113 333" stroke-linejoin="bevel" stroke-miterlimit="10"/><path fill="none" stroke="black" paint-order="fill stroke markers" d=" M 109 287 L 113 287" stroke-linejoin="bevel" stroke-miterlimit="10"/><path fill="none" stroke="black" paint-order="fill stroke markers" d=" M 109 260 L 113 260" stroke-linejoin="bevel" stroke-miterlimit="10"/><path fill="none" stroke="black" paint-order="fill stroke markers" d=" M 109 241 L 113 241" stroke-linejoin="bevel" stroke-miterlimit="10"/><path fill="none" stroke="black" paint-order="fill stroke markers" d=" M 109 226 L 113 226" stroke-linejoin="bevel" stroke-miterlimit="10"/><path fill="none" stroke="black" paint-order="fill stroke markers" d=" M 109 214 L 113 214" stroke-linejoin="bevel" stroke-miterlimit="10"/><path fill="none" stroke="black" paint-order="fill stroke markers" d=" M 109 204 L 113 204" stroke-linejoin="bevel" stroke-miterlimit="10"/><path fill="none" stroke="black" paint-order="fill stroke markers" d=" M 109 195 L 113 195" stroke-linejoin="bevel" stroke-miterlimit="10"/><path fill="none" stroke="black" paint-order="fill stroke markers" d=" M 109 187 L 113 187" stroke-linejoin="bevel" stroke-miterlimit="10"/><path fill="none" stroke="black" paint-order="fill stroke markers" d=" M 109 180 L 113 180" stroke-linejoin="bevel" stroke-miterlimit="10"/><path fill="none" stroke="black" paint-order="fill stroke markers" d=" M 109 180 L 113 180" stroke-linejoin="bevel" stroke-miterlimit="10"/><path fill="none" stroke="black" paint-order="fill stroke markers" d=" M 109 134 L 113 134" stroke-linejoin="bevel" stroke-miterlimit="10"/><path fill="none" stroke="black" paint-order="fill stroke markers" d=" M 109 107 L 113 107" stroke-linejoin="bevel" stroke-miterlimit="10"/><path fill="none" stroke="black" paint-order="fill stroke markers" d=" M 109 88 L 113 88" stroke-linejoin="bevel" stroke-miterlimit="10"/><path fill="none" stroke="black" paint-order="fill stroke markers" d=" M 109 73 L 113 73" stroke-linejoin="bevel" stroke-miterlimit="10"/><path fill="none" stroke="black" paint-order="fill stroke markers" d=" M 109 61 L 113 61" stroke-linejoin="bevel" stroke-miterlimit="10"/><path fill="none" stroke="black" paint-order="fill stroke markers" d=" M 109 51 L 113 51" stroke-linejoin="bevel" stroke-miterlimit="10"/><path fill="none" stroke="black" paint-order="fill stroke markers" d=" M 109 42 L 113 42" stroke-linejoin="bevel" stroke-miterlimit="10"/><path fill="none" stroke="black" paint-order="fill stroke markers" d=" M 109 34 L 113 34" stroke-linejoin="bevel" stroke-miterlimit="10"/><path fill="none" stroke="black" paint-order="fill stroke markers" d=" M 109 27 L 113 27" stroke-linejoin="bevel" stroke-miterlimit="10"/><path fill="" stroke="black" paint-order="fill stroke markers" d=" M 109 27 L 113 27" stroke-linejoin="bevel" stroke-miterlimit="10"/><g transform="translate(102,486) rotate(0,0,0)"><text fill="" stroke="none" font-family="helvetica" font-size="26px" font-style="normal" font-weight="normal" text-decoration="normal" x="0" y="0" text-anchor="end" dominant-baseline="central">10^-3</text><g transform="rotate(0,0,0) translate(-102,-486) translate(102,333) rotate(0,0,0)"><text fill="" stroke="none" font-family="helvetica" font-size="26px" font-style="normal" font-weight="normal" text-decoration="normal" x="0" y="0" text-anchor="end" dominant-baseline="central">10^-2</text><g transform="rotate(0,0,0) translate(-102,-333) translate(102,180) rotate(0,0,0)"><text fill="" stroke="none" font-family="helvetica" font-size="26px" font-style="normal" font-weight="normal" text-decoration="normal" x="0" y="0" text-anchor="end" dominant-baseline="central">10^-1</text><g transform="rotate(0,0,0) translate(-102,-180) translate(102,27) rotate(0,0,0)"><text fill="" stroke="none" font-family="helvetica" font-size="26px" font-style="normal" font-weight="normal" text-decoration="normal" x="0" y="0" text-anchor="end" dominant-baseline="central">10^0</text><g transform="rotate(0,0,0) translate(-102,-27) translate(26,261) rotate(-90,0,0)"><text fill="" stroke="none" font-family="helvetica" font-size="26pt" font-style="italic" font-weight="normal" text-decoration="normal" x="0" y="0" text-anchor="middle" dominant-baseline="alphabetic">CCDF</text><g transform="rotate(90,0,0) translate(-26,-261)"/></g></g></g></g></g></g></g><g clip-path="url(#KfBloaQxeRBq)"><g/></g><g clip-path="url(#DItfdtWeseHi)"><g/></g></g></g></svg>