<svg version="1.1" xmlns="http://www.w3.org/2000/svg" xmlns:xlink="http://www.w3.org/1999/xlink" width="600" height="600" style="width: 600px; height: 600px;"><defs><clipPath id="VIDDGSBqdIRa"><path fill="none" stroke="none" d=" M 113 5 L 570 5 L 570 516 L 113 516 L 113 5 Z"/></clipPath><clipPath id="QKGpmZPDGHRo"><path fill="none" stroke="none" d=" M 113 5 L 570 5 L 570 516 L 113 516 L 113 5 Z"/></clipPath><clipPath id="vpKUPWMXaeLa"><path fill="none" stroke="none" d=" M 113 5 L 570 5 L 570 516 L 113 516 L 113 5 Z"/></clipPath><clipPath id="mZxSUDPdgPXM"><path fill="none" stroke="none" d=" M 113 5 L 570 5 L 570 516 L 113 516 L 113 5 Z"/></clipPath><clipPath id="eCSRpZNQOIWA"><path fill="none" stroke="none" d=" M 113 5 L 570 5 L 570 516 L 113 516 L 113 5 Z"/></clipPath><clipPath id="hvBFIJFfvrTI"><path fill="none" stroke="none" d=" M 113 5 L 570 5 L 570 516 L 113 516 L 113 5 Z"/></clipPath><clipPath id="ZSCOqhhPmUWU"><path fill="none" stroke="none" d=" M 113 5 L 570 5 L 570 516 L 113 516 L 113 5 Z"/></clipPath><clipPath id="JFTfATlPQScr"><path fill="none" stroke="none" d=" M 113 5 L 570 5 L 570 516 L 113 516 L 113 5 Z"/></clipPath><clipPath id="OrURoGvBvukQ"><path fill="none" stroke="none" d=" M 113 5 L 570 5 L 570 516 L 113 516 L 113 5 Z"/></clipPath><clipPath id="PnGyPoVlSLoT"><path fill="none" stroke="none" d=" M 113 5 L 570 5 L 570 516 L 113 516 L 113 5 Z"/></clipPath><clipPath id="TIABPNFAZDsK"><path fill="none" stroke="none" d=" M 113 5 L 570 5 L 570 516 L 113 516 L 113 5 Z"/></clipPath><clipPath id="dECyGeHZZomF"><path fill="none" stroke="none" d=" M 113 5 L 570 5 L 570 516 L 113 516 L 113 5 Z"/></clipPath></defs><g><g transform="scale(1,1) translate(0.5,0.5)"><rect fill="#FFFFFF" stroke="none" x="0" y="0" width="600" height="600"/><rect fill="#ffffff" stroke="none" x="0" y="0" width="600" height="600"/><rect fill="#FFFFFF" stroke="none" x="113" y="5" width="457" height="511"/><rect fill="#ffffff" stroke="none" x="113" y="5" width="457" height="511"/><g><rect fill="none" stroke="#e5e5e5" x="113" y="5" width="457" height="511" stroke-linejoin="bevel" stroke-miterlimit="10"/></g><g clip-path="url(#VIDDGSBqdIRa)"><g><g><path fill="none" stroke="#e5e5e5" paint-order="fill stroke markers" d=" M 334 516 L 334 5" stroke-linejoin="bevel" stroke-miterlimit="10"/><path fill="none" stroke="#e5e5e5" paint-order="fill stroke markers" d=" M 436 516 L 436 5" stroke-linejoin="bevel" stroke-miterlimit="10"/><path fill="none" stroke="#e5e5e5" paint-order="fill stroke markers" d=" M 495 516 L 495 5" stroke-linejoin="bevel" stroke-miterlimit="10"/><path fill="none" stroke="#e5e5e5" paint-order="fill stroke markers" d=" M 537 516 L 537 5" stroke-linejoin="bevel" stroke-miterlimit="10"/></g></g></g><g clip-path="url(#QKGpmZPDGHRo)"><g><g><path fill="none" stroke="#e5e5e5" paint-order="fill stroke markers" d=" M 113 486 L 570 486" stroke-linejoin="bevel" stroke-miterlimit="10"/><path fill="none" stroke="#e5e5e5" paint-order="fill stroke markers" d=" M 113 332 L 570 332" stroke-linejoin="bevel" stroke-miterlimit="10"/><path fill="none" stroke="#e5e5e5" paint-order="fill stroke markers" d=" M 113 178 L 570 178" stroke-linejoin="bevel" stroke-miterlimit="10"/><path fill="none" stroke="#e5e5e5" paint-order="fill stroke markers" d=" M 113 24 L 570 24" stroke-linejoin="bevel" stroke-miterlimit="10"/></g></g></g><g clip-path="url(#vpKUPWMXaeLa)"><g><g fill="#444444"><path fill="" stroke="none" d=""/><g transform="translate(276.779634190214,259.0818643479209) rotate(0,0,0)"><path fill="none" stroke="none"/><text fill="" stroke="none" font-family="helvetica" font-size="17pt" font-style="normal" font-weight="normal" text-decoration="normal" x="0" y="0" text-anchor="start" dominant-baseline="text-after-edge">(1.28e-3, 4.65e-2)</text></g></g></g></g><g clip-path="url(#mZxSUDPdgPXM)"><g><g fill="#444444"><path fill="" stroke="none" d=""/><g transform="translate(123.22551054798892,361.18295970973145) rotate(0,0,0)"><path fill="none" stroke="none"/><text fill="" stroke="none" font-family="helvetica" font-size="19pt" font-style="normal" font-weight="normal" text-decoration="normal" x="0" y="0" text-anchor="start" dominant-baseline="text-after-edge">Female mean: 5.71e-4(±3.6e-4)</text></g></g><g fill="#444444"><path fill="" stroke="none" d=""/><g transform="translate(123.22551054798892,326.98117364395614) rotate(0,0,0)"><path fill="none" stroke="none"/><text fill="" stroke="none" font-family="helvetica" font-size="19pt" font-style="normal" font-weight="normal" text-decoration="normal" x="0" y="0" text-anchor="start" dominant-baseline="text-after-edge">Male mean: 4.84e-4(±3.7e-4)</text></g></g></g></g><g clip-path="url(#eCSRpZNQOIWA)"><g><g><path fill="none" stroke="none"/><path fill="none" stroke="blue" paint-order="fill stroke markers" d=" M 134.2915938157102 29.035335247199612 L 136.22585586944865 29.130507879987135 L 136.97831677119333 29.22581598987773 L 137.67907744659624 29.321259963121292 L 138.31337587463761 29.416840187622086 L 138.5171322912317 29.512557052947727 L 138.72951174813974 29.608410950339305 L 138.74401963738273 29.70440227272036 L 139.1633260763953 29.80053141470711 L 139.7046449487811 29.896798772617785 L 139.91103456655776 29.99320474448251 L 140.43359974386848 30.08974973005354 L 140.55382722586526 30.186434130814575 L 140.6177460516432 30.3802227925612 L 143.14352115000088 30.477327865263817 L 143.16000050643817 30.574573976611077 L 144.90617904284483 30.671961536897413 L 144.94114019452942 30.769490958210326 L 145.48794433866118 30.867162654440563 L 146.1775213473798 30.96497704129314 L 146.5321292498045 31.062934536297348 L 146.68237381500944 31.161035558818128 L 146.88745821321743 31.25928053006635 L 147.1603816093033 31.35766987310967 L 147.96509515914104 31.45620401288363 L 148.41245811598975 31.55488337620295 L 149.02693717787446 31.653708391771772 L 149.43880131798213 31.752679490195817 L 149.56205695274403 31.851797103992965 L 150.04863504621733 31.951061667605018 L 150.65413614492837 32.05047361740856 L 151.11657480016515 32.15003339172728 L 151.12043732406184 32.34959817700695 L 151.57737953551015 32.44960407445308 L 151.76475871823573 32.549759569408025 L 152.68550091133642 32.650065110104435 L 153.2792141372006 32.750521146792266 L 154.82220591537316 32.85112813175124 L 154.92970336311708 32.95188651930306 L 155.79528523035307 33.05279676582353 L 157.45288422628855 33.15385932975494 L 158.2760620396216 33.25507467161901 L 159.53985175486758 33.35644325402876 L 159.68924459158868 33.45796554170198 L 160.60660576110257 33.559642001473435 L 160.86192299146776 33.661473102307866 L 161.7109629868595 33.76345931531324 L 162.01647090878328 33.86560111375343 L 162.5715541367224 33.967898973061665 L 162.588879110164 34.07035337085375 L 162.70682327899254 34.17296478694146 L 163.29973713012006 34.27573370334585 L 163.91347060031234 34.37866060431111 L 164.15044123379298 34.481745976318166 L 164.83088334935007 34.58499030809821 L 164.9160566310038 34.68839409064714 L 164.93021538602198 34.79195781723888 L 165.18013390355375 34.895681983440284 L 167.1946573535036 34.99956708712455 L 168.43333442819798 35.103613628486414 L 169.24051860923976 35.207822110055815 L 170.13835134886963 35.31219303671287 L 170.2122902830632 35.4167269157025 L 170.58875709751197 35.5214242566492 L 170.60778575581645 35.626285571572055 L 170.825538623845 35.73131137489935 L 170.90423859028124 35.94185851661996 L 173.5215994661296 36.04738089605473 L 174.7986725610134 36.1530698460075 L 175.38311484787312 36.25892589318386 L 177.4515579485645 36.364949566791665 L 178.32451744657658 36.471141398556426 L 179.33623828240775 36.57750192273812 L 179.3574885261443 36.684031676146446 L 179.53137430607933 36.79073119815797 L 179.67577242354122 36.897601030731835 L 180.45489654038903 37.004641718426456 L 180.5881918164011 37.111853808416356 L 180.8126304061213 37.21923785050876 L 182.92839660389683 37.3267943971606 L 183.2929130751138 37.43452400349554 L 183.52058742851497 37.542427227321014 L 185.29880838871452 37.65050462914604 L 186.32206204681555 37.75875677219801 L 186.9218663332415 37.8671842224407 L 186.9919299335968 37.97578754859222 L 187.52133342939584 38.08456732214239 L 188.08551635436052 38.193524117371226 L 189.2311494737802 38.302658511366815 L 189.87281202616595 38.41197108404407 L 190.61259398542154 38.52146241816246 L 192.56303591748235 38.631133099345675 L 193.52111187824738 38.74098371609972 L 193.5471032587464 38.85101485983171 L 193.77313137623372 38.96122712486971 L 194.7091081117742 39.07162110848145 L 194.7743610210004 39.18219741089371 L 195.57189882624044 39.29295663531224 L 195.6838627056206 39.40389938794141 L 196.39864703916527 39.51502627800369 L 197.163843204009 39.62633791776045 L 197.86181423813076 39.73783492253165 L 198.59615277802044 39.84951791071643 L 201.00373611280972 39.96138750381368 L 201.54682927142662 40.07344432644277 L 201.9379148418638 40.18568900636444 L 202.0438055893573 40.298122174502225 L 202.72959994243303 40.4107444649631 L 204.31568056974987 40.523556515059624 L 204.56381449109168 40.63655896533095 L 204.61447949333882 40.749752459565116 L 205.6419253650294 40.86313764482105 L 206.0021164572541 40.97671517145028 L 207.89446426111016 41.09048569311989 L 207.97441314674103 41.204449866834636 L 208.46885721562484 41.318608352960155 L 208.83762026246174 41.43296181524556 L 208.91451753476002 41.54751092084649 L 209.0364894826377 41.662256340349245 L 209.26393594172427 41.77719874779331 L 209.91493243458044 41.89233882069567 L 210.10868330312888 42.00767724007494 L 210.4733799731625 42.123214690474924 L 210.52000295255922 42.23895185998981 L 210.9381011319484 42.35488944028782 L 211.4011095114306 42.47102812663684 L 212.13474508719293 42.58736861792897 L 213.06193502081118 42.70391161670585 L 213.50651152469672 42.820657829184086 L 213.82689527301747 42.9376079652813 L 214.9186391742994 43.05476273864127 L 215.1477922747558 43.17212286666086 L 215.34913636213693 43.28968907051592 L 215.53949648449083 43.40746207518782 L 217.42919586849882 43.525442609490824 L 217.84091288318382 43.64363140609822 L 218.1126590569233 43.76202920157078 L 218.24127772756498 43.880636736382996 L 218.36432565402652 43.99945475495218 L 218.46093536060044 44.11848400566561 L 218.67757647779672 44.23772524090896 L 220.10028651287672 44.35717921709511 L 222.16736038028859 44.47684669469277 L 222.34918231185418 44.59672843825541 L 222.73959582932636 44.7168252164509 L 222.87266381100926 44.83713780209081 L 223.2991654203318 44.9576669721601 L 223.45830919016214 45.07841350784764 L 224.41193892233684 45.19937819457647 L 225.24299273590762 45.320561822034165 L 225.50402031283704 45.44196518420409 L 225.51470565493594 45.56358907939659 L 226.5444466550622 45.68543431028013 L 226.62607689065925 45.807501683913586 L 226.64039831807045 45.92979201177798 L 226.7634196405142 46.05230610980891 L 228.64616144883377 46.1750447984295 L 228.88330906115007 46.298008902582694 L 229.27787900709134 46.421199251765245 L 230.22743574081076 46.54461668006098 L 230.23790121578108 46.66826202617466 L 230.24520009453076 46.7921361334661 L 231.2473148025395 46.916239849984834 L 232.6078540004877 47.040574028505034 L 233.09981599140445 47.165139526560495 L 233.62852434164586 47.28993720648003 L 235.79335217151393 47.41496793542365 L 235.8271429082249 47.54023258541832 L 236.28706473010658 47.665732033394875 L 236.61783622798941 47.79146716122432 L 237.69429526108095 47.91743885575539 L 238.53606476439256 48.04364800885213 L 239.31303478140086 48.17009551743155 L 239.332622264515 48.296782283501784 L 239.40548712965563 48.42370921420121 L 240.35524990212969 48.55087722183691 L 241.55743924177258 48.67828722392426 L 241.76140714233324 48.80594014322645 L 242.24020469846758 48.933836907794785 L 242.70218671626702 49.06197845100934 L 242.80752408768723 49.19036571161905 L 242.9588021657706 49.31899963378419 L 243.1623859482002 49.44788116711675 L 243.39384973095426 49.5770112667235 L 243.5657029529354 49.70639089324794 L 244.5290518108339 49.83602101291325 L 244.62383080647854 49.96590259756573 L 245.94624794077822 50.09603662471841 L 246.1997864458893 50.22642407759531 L 246.46835561407002 50.35706594517552 L 246.6272643786096 50.4879632222391 L 246.63267984945855 50.619116909411844 L 246.85686913355732 50.75052801321124 L 247.24977696646363 50.88219754609304 L 247.44123590273654 51.01412652649799 L 248.42007875345175 51.146315978899054 L 248.84312834083335 51.27876693384917 L 250.54910030523087 51.41148042802945 L 250.60161446640257 51.544457504297725 L 250.793770966661 51.67769921173817 L 250.91365386008198 51.8112066057102 L 251.01214481750623 51.94498074789948 L 251.3311256319133 52.07902270636794 L 251.70638462731566 52.21333355560523 L 251.96907495790236 52.347914376580434 L 252.82917548582034 52.48276625679404 L 252.90206601162853 52.617890290330934 L 252.99402902341276 52.7532875779134 L 253.2891890862983 52.88895922695508 L 253.4218102726794 53.024906351615414 L 253.88235563461726 53.16113007285429 L 254.06464222453602 53.29763151848772 L 254.1879443861387 53.434411823243636 L 254.33048688238267 53.57147212881881 L 254.42165312787824 53.70881358393564 L 255.3880118712442 53.846437344400385 L 255.41407399670794 53.98434457316108 L 255.68571744614823 54.12253644036673 L 255.96177383353316 54.261014123426776 L 256.32252639563313 54.39977880707147 L 256.4822294099507 54.53883168341258 L 256.612461446412 54.67817395200467 L 257.55576088464244 54.81780681990756 L 258.02654777018097 54.957731501748526 L 258.2456209401612 55.09794921978647 L 258.25763883782054 55.238461203975305 L 258.5199354657354 55.37926869202869 L 258.61758141914083 55.520372929486086 L 258.72499628989766 55.661775169778196 L 259.48984014193945 55.803476674294075 L 259.53229005292104 55.94547871244862 L 259.55808131701434 56.08778256175083 L 259.66937422498086 56.23038950787259 L 260.5134987085464 56.37330084471853 L 260.6594187366899 56.51651787449646 L 262.19135776240597 56.66004190778858 L 262.23245584167694 56.80387426362324 L 262.25161628234093 56.94801626954796 L 262.44437234531097 57.09246926170272 L 262.6947761703776 57.237234584894395 L 263.0567711735304 57.38231359267189 L 263.7300304088757 57.52770764740205 L 263.8881663936952 57.67341812034624 L 263.97538128110114 57.81944639173827 L 264.11140702259354 57.96579385086261 L 264.2995004455664 58.11246189613394 L 264.3114335118463 58.2594519351768 L 264.44908901765695 58.4067653849072 L 264.5540930365273 58.55440367161441 L 265.23829018879496 58.70236823104375 L 265.4253290125855 58.8506605084803 L 265.5442606641243 58.99928195883382 L 266.3301165218245 59.148234046724156 L 266.6808731059315 59.29751824656813 L 267.0180274068244 59.447136042666614 L 267.09174746972656 59.59708892929382 L 267.37159284927867 59.747378410786155 L 267.6903962528976 59.89800600163312 L 268.3205468196423 60.048973226568705 L 268.44277147262886 60.200281620664384 L 270.60801360082394 60.35193272942206 L 270.6876302502286 60.503928108869616 L 271.2255198033524 60.65626932565601 L 272.1342622025801 60.808957957148664 L 273.2559452975323 60.96199559153126 L 273.8187322379414 61.11538382790252 L 274.09859240057403 61.26912427637711 L 274.8892898279604 61.423218558186704 L 275.901158870988 61.57766830578248 L 276.2041302354915 61.73247516293907 L 276.3833022042486 61.8876407848594 L 277.02116645748663 62.04316683828108 L 277.10932584446726 62.199055001583474 L 277.2253550991862 62.35530696489667 L 277.93651623668813 62.51192443021142 L 278.06491881285956 62.66890911149005 L 278.2051835969397 62.826262734779675 L 278.67985523476074 62.983987038325154 L 278.6910183018654 63.142083772685226 L 279.7146835551032 63.300554700848295 L 280.05562528656026 63.459401598351064 L 281.66234622065133 63.61862625339728 L 281.8785707160208 63.778230466979096 L 282.665616656957 63.938216052998825 L 282.8386652740734 64.09858483839298 L 282.92660308758946 64.25933866325721 L 282.99882013712704 64.42047938097312 L 283.32420258838147 64.58200885833634 L 283.6840995239686 64.74392897568669 L 284.86122563473066 64.90624162703881 L 285.9793499441631 65.06894872021576 L 286.46074924366974 65.23205217698319 L 286.4812235800714 65.39555393318585 L 287.3121783263959 65.55945593888487 L 288.2711314906111 65.72376015849801 L 289.0671055770357 65.88846857094052 L 290.18104341803166 66.05358316976827 L 290.30963144395196 66.2191059633223 L 290.32533642974687 66.38503897487567 L 290.5123116778596 66.5513842427822 L 290.51276007140825 66.71814382062547 L 291.15617053985375 66.8853197773725 L 291.96079318923364 67.05291419752655 L 292.30069922298264 67.22092918128362 L 292.4697529063725 67.38936684469041 L 292.5911089658671 67.55822931980396 L 292.93775855976503 67.72751875485386 L 292.9381934994084 67.89723731440597 L 293.78693397538837 68.06738717952862 L 293.89052925202975 68.23797054796074 L 294.19007911175083 68.4089896342822 L 294.67781425525857 68.58044667008636 L 294.8022388872193 68.75234390415477 L 295.34307238327574 68.92468360263405 L 295.9423090422895 69.09746804921542 L 296.00634512753015 69.27069954531584 L 296.18743948843746 69.44438041026223 L 296.2197080866655 69.61851298147769 L 296.7006172707176 69.79309961467055 L 297.3058218786938 69.968142684025 L 297.3645180742228 70.14364458239521 L 297.3875549211127 70.31960772150171 L 297.48548383710363 70.4960345321299 L 297.9813542201151 70.67292746433162 L 298.1600981238349 70.8502889876296 L 298.6205857047399 71.02812159122385 L 299.04317756562864 71.20642778420165 L 299.33006222763714 71.38521009574976 L 299.64694762976103 71.5644710753698 L 299.8699595496256 71.74421329309627 L 300.09061805636827 71.92443933971776 L 300.41588761984394 72.10515182700095 L 300.5105038344565 72.28635338791759 L 301.45915545434684 72.46804667687496 L 301.72570166119937 72.65023436994915 L 301.8034502598116 72.83291916512098 L 301.965577972662 73.0161037825165 L 302.64709303811605 73.19979096464976 L 304.1428057921373 73.3839834766689 L 304.6347077717552 73.5686841066061 L 304.86339671202137 73.75389566563092 L 305.4003568878222 73.93962098830684 L 305.43061714226 74.1258629328517 L 306.15476595917175 74.31262438140124 L 306.3358997437599 74.49990824027748 L 306.544278570922 74.68771744025918 L 306.6025849849233 74.87605493685783 L 306.90689518301076 75.06492371059625 L 306.93682245797015 75.25432676729162 L 307.3601589633357 75.44426713834264 L 307.87730634857417 75.63474788102076 L 308.3588228572735 75.82577207876506 L 308.6337464031242 76.01734284148233 L 308.71521557994384 76.20946330585014 L 308.8018914713185 76.40213663562554 L 309.0086940709893 76.5953660219576 L 309.08234013298363 76.78915468370417 L 309.8419417955978 76.9835058677541 L 310.06744015515983 77.17842284935335 L 310.1224717068902 77.37390893243611 L 311.16216674705794 77.56996744996115 L 311.71593151289335 77.76660176425264 L 312.15177497536126 77.96381526734598 L 312.58559018227174 78.16161138133884 L 313.05341407726706 78.35999355874799 L 313.09010205886165 78.5589652828703 L 313.51685882279264 78.75853006814998 L 314.3487470840469 78.95869146055105 L 315.2085785759405 79.1594530379353 L 315.290440904451 79.36081841044609 L 315.4038196286766 79.56279122089796 L 315.91838503284055 79.76537514517179 L 315.9680319428045 79.96857389261646 L 316.4379939069769 80.17239120645627 L 317.2486604664656 80.37683086420469 L 317.2888961280927 80.58189667808449 L 317.5793145850654 80.78759249545413 L 317.6233380856323 80.99392219924124 L 317.87627570102075 81.20088970838185 L 318.119596620004 81.40849897826757 L 318.462468270539 81.61675400119884 L 318.7526980299725 81.82565880684552 L 318.789249629201 82.03521746271508 L 318.95187868071986 82.24543407462733 L 319.64430558448976 82.45631278719776 L 320.39751503621164 82.66785778432688 L 320.77009123209064 82.88007328969945 L 320.8299209992814 83.09296356728947 L 320.86673695420075 83.3065329218748 L 321.29554846167315 83.52078569955938 L 321.62493058179376 83.73572628830362 L 322.0816319538296 83.95135911846404 L 322.3469229690003 84.16768866334093 L 322.36622244578365 84.38471943973519 L 323.24221510321235 84.60245600851425 L 323.7609069138004 84.82090297518704 L 324.6231456254335 85.0400649904887 L 324.69647954556194 85.25994675097473 L 324.782105005244 85.48055299962448 L 324.8257963854703 85.70188852645526 L 325.26311602926376 85.92395816914672 L 325.2665547252612 86.14676681367467 L 325.29641837656663 86.37031939495671 L 326.0244126017709 86.59462089750747 L 326.5753187483993 86.81967635610613 L 326.9309088524915 87.04549085647392 L 327.1976166996995 87.27206953596402 L 327.27376531724434 87.49941758426291 L 327.3117443175254 87.72754024410318 L 328.0138460729978 87.95644281198952 L 328.41213498621005 88.18613063893633 L 328.4279551552203 88.41660913121797 L 328.67659818437676 88.64788375113278 L 329.36519919745035 88.87996001777987 L 329.5952418097038 89.11284350784888 L 329.65899099239857 89.34653985642427 L 329.7238661676678 89.58105475780388 L 330.3166339787278 89.81639396633085 L 330.3844150029605 90.05256329724125 L 330.6851880533589 90.28956862752602 L 331.29817582625145 90.52741589680863 L 331.4214133671553 90.76611110823814 L 331.4768814353041 91.00566032939844 L 331.56699692736726 91.24606969323384 L 331.79681987759386 91.48734539899067 L 331.96253235693075 91.72949371317719 L 331.99911317209285 91.97252097053956 L 332.178507293365 92.21643357505661 L 332.22970854322176 92.46123800095194 L 332.49237617361723 92.70694079372572 L 333.1659714497072 92.95354857120401 L 333.2999671899953 93.20106802460907 L 333.8344477863068 93.449505919648 L 334.22196032974745 93.698869097623 L 334.91583610643835 93.94916447656135 L 335.1378142650665 94.20039905236735 L 335.1940086235902 94.45257989999516 L 335.35694498019075 94.70571417464481 L 335.4279988862641 94.95980911298 L 335.78474580808796 95.21487203436942 L 335.96908808312986 95.47091034215237 L 335.9866938551707 95.72793152492721 L 336.56545664548446 95.98594315786653 L 336.6260746883058 96.24495290405628 L 337.18121509402386 96.50496851586144 L 337.3414443288093 96.76599783631855 L 337.8341539128415 97.02804880055487 L 338.15507785342504 97.29112943723607 L 339.12767636631736 97.55524787004208 L 339.4091271416974 97.82041231917248 L 340.2754916565153 98.0866311028812 L 341.527188605226 98.3539126390425 L 342.2453605014026 98.62226544674826 L 342.7861314910324 98.89169814793706 L 343.2190775186167 99.16221946905642 L 343.2221551082413 99.43383824275844 L 343.49764311321 99.70656340963075 L 343.6857596145535 99.98040401996178 L 344.1111457153239 100.25536923554341 L 344.1230158580116 100.5314683315097 L 344.22986101050026 100.8087106982145 L 344.40185081442183 101.0871058431477 L 344.9806726765153 101.36666339289155 L 345.5963838525621 101.64739309511833 L 345.63380026227526 101.92930482062906 L 345.6338780126529 102.2124085654371 L 345.89150039715696 102.49671445289385 L 346.2342212527525 102.78223273586156 L 346.31361714025167 103.06897379893155 L 346.5621493315365 103.35694816069099 L 346.6091448224712 103.64616647603742 L 346.7002774953752 103.93663953854497 L 346.7078769905209 104.22837828288124 L 347.15156861414306 104.52139378727696 L 347.2988323268445 104.81569727605023 L 347.3638721866391 105.11130012218683 L 348.256747625574 105.40821384997685 L 349.157693629964 105.70645013771116 L 349.2398304602636 106.00602082043685 L 349.51501455982134 106.30693789277609 L 349.6298864768799 106.60921351180741 L 349.8797878410596 106.91286000001264 L 350.9613523387143 107.21788984829169 L 351.1473793275484 107.52431571904549 L 351.73547517364625 107.83215044932973 L 352.48538706555564 108.14140705408204 L 352.99828867604566 108.45209872942405 L 353.26281823934585 108.76423885603964 L 353.49586057657575 109.07784100263302 L 353.59481165569093 109.39291892946818 L 354.41034210238263 109.70948659199126 L 354.7114609501249 110.02755814454031 L 354.7367435016812 110.34714794414185 L 354.86249260106433 110.66827055440018 L 355.91848524601255 110.99094074947931 L 355.9578014764613 111.31517351818184 L 356.0205840140212 111.64098406812622 L 356.7129895497366 111.9683878300279 L 356.83528700533554 112.29740046208354 L 357.3919667681538 112.62803785446528 L 357.69928038015587 112.96031613392518 L 357.81058069921664 113.29425166851559 L 359.3218863003001 113.62986107242659 L 359.40975339898586 113.96716121094698 L 359.49751950330165 114.306169205549 L 360.3500572087579 114.64690243910371 L 360.8773384736961 114.98937856122939 L 361.61420716721443 115.33361549377713 L 361.74917431067297 115.67963143645886 L 361.7708714098906 116.02744487262072 L 362.4240189252197 116.37707457516797 L 363.0588716171003 116.72853961264468 L 363.09492347324635 117.08185935547465 L 363.67408048279594 117.43705348236688 L 364.70947048446146 117.79414198689278 L 364.7437411671552 118.15314518423924 L 364.8680369426145 118.51408371814398 L 364.94413802292013 118.87697856801805 L 365.16852190792713 119.24185105626395 L 365.69192920601375 119.60872285579279 L 366.44366841988983 119.97761599774918 L 366.4530116267442 120.34855287944987 L 366.65775524670613 120.72155627254426 L 367.29982021124226 121.0966493314022 L 368.25161737157106 121.47385560173927 L 369.7106171185113 121.85319902948567 L 370.1297303366275 122.23470396990808 L 370.18738815912894 122.61839519699316 L 370.3124038158199 123.00429791310063 L 370.3548053377614 123.39243775889713 L 370.3722769345794 123.78284082357914 L 372.57796643864884 124.17553365539567 L 372.75766711820216 124.57054327248187 L 373.7206532090312 124.96789717401333 L 374.37163709375 125.36762335169408 L 374.56360530959 125.76975030158911 L 374.68137255124424 126.17430703631476 L 376.4036757708821 126.58132309759924 L 377.11997977525897 126.99082856922746 L 377.70519992633245 127.40285409038427 L 377.96100838426537 127.8174308694106 L 378.01591585679256 128.23459069798855 L 378.1757498648885 128.65436596577035 L 378.84330757955314 129.0767896754699 L 379.3262498643138 129.5018954584325 L 379.3714700177155 129.9297175907024 L 379.95806963171117 130.36029100960707 L 380.6139988057539 130.79365133087822 L 380.6513360638524 131.22983486633007 L 381.99169779985306 131.66887864211776 L 382.28642788099205 132.1108204175983 L 382.60805587659524 132.5556987048177 L 383.6389361053117 133.0035527886505 L 384.6194984360929 133.45442274761695 L 384.7375774709191 133.90834947540594 L 385.2582923930074 134.36537470313255 L 386.45347187344015 134.825541022361 L 386.4955741308593 135.2888919089229 L 386.6060399394527 135.7554717475673 L 387.01605363239037 136.225325857474 L 388.4269589698553 136.69850051866905 L 388.59094863368193 137.17504299938116 L 388.91036070150375 137.6550015843768 L 389.23824368288365 138.13842560432022 L 389.4989418994374 138.62536546619958 L 389.50780082420846 139.1158726848687 L 390.0464049517933 139.60999991575204 L 392.5149419370826 140.10780098876603 L 392.5229526370909 140.60933094351037 L 394.61883756892774 141.11464606578784 L 394.62431838229685 141.62380392551245 L 395.2585515167348 142.13686341607024 L 395.88145464080173 142.6538847951993 L 396.2472152866221 143.17492972746157 L 397.45002894500794 143.7000613283791 L 397.6519311354223 144.2293442103155 L 397.6900616864046 144.76284453018553 L 398.3740991471889 145.30063003908015 L 398.45749483256395 145.8427701339014 L 399.1985450768699 146.3893359111048 L 399.27712801622795 146.94040022265273 L 400.1836424257545 147.49603773429072 L 400.5189252428055 148.05632498626136 L 400.8960613306425 148.62134045658007 L 401.19918521355373 149.19116462700453 L 401.95556872848545 149.76588005183396 L 402.85509235384995 150.34557142968805 L 403.21782317594096 150.93032567842 L 403.28354937496744 151.52023201332975 L 403.8943307167326 152.11538202885413 L 405.62826521671576 152.71586978391912 L 406.87553730115195 153.32179189115567 L 407.09587141225546 153.93324761018852 L 407.10103357105083 154.55033894522506 L 407.72884974991786 155.17317074718267 L 407.9633115205171 155.8018508206112 L 408.0883094190283 156.43649003568333 L 408.6354809089969 157.0772024455432 L 409.7117105061041 157.7241054093248 L 410.6739215463042 158.37731972117086 L 410.87046777023806 159.0369697456083 L 411.24558194216803 159.70318355965844 L 413.5527595070252 160.37609310208995 L 413.72802469605165 161.05583433024674 L 413.96235635753567 161.74254738492016 L 414.1320423677423 162.43637676376375 L 414.46232312993675 163.13747150378765 L 415.484056122761 163.8459853735099 L 416.0432564219093 164.56207707538226 L 416.9000877533201 165.28591045916102 L 417.0142196897656 166.01765474693582 L 417.1657617010113 166.7574847705929 L 417.6135915633831 167.5055812225453 L 418.9211957631479 168.26213092062864 L 420.60146575078585 169.02732708813613 L 420.8915891134862 169.8013696500401 L 422.5959429537211 170.58446554653864 L 422.78478874445665 171.37682906515636 L 423.33460317540477 172.17868219273208 L 423.46510403498837 172.99025498874227 L 423.67262428206334 173.81178598152724 L 424.52475945849693 174.64352258913158 L 424.89168457385216 175.48572156661294 L 424.9101962481418 176.33864948184544 L 426.7121859133478 177.2025832220213 L 427.43084858542767 178.0778105332608 L 428.420722845797 178.96463059596073 L 429.093233162565 179.86335463875997 L 429.13614921630176 180.77430659427557 L 431.42840923693524 181.69782380006586 L 432.12277763000526 182.63425774861696 L 432.4325997649617 183.5839748905242 L 433.18429775082785 184.54735749546325 L 433.32850959445926 185.52480457601177 L 433.7388337838326 186.516732879909 L 433.75660100466536 187.52357795693086 L 433.91659801106124 188.5457953072132 L 434.6181767087193 189.5838616186046 L 435.4153312412305 190.6382761014586 L 435.66261000062366 191.70956193022306 L 437.1294337526257 192.79826780224784 L 438.32095583407096 193.90496962543375 L 439.6939997875406 195.03027234772316 L 443.74090250123044 196.17481194297693 L 444.4571858318932 197.33925756956296 L 445.46501084839616 198.52431391999716 L 446.3934489927161 199.7307237822987 L 446.95132688821536 200.95927083636815 L 447.36466669285375 202.21078271175418 L 447.6093817049742 203.48613433668623 L 447.9799414726049 204.7862516123139 L 449.04375320262716 206.11211545080158 L 449.4083666921529 207.46476622138982 L 450.37773931316457 208.84530865490672 L 450.57042161505376 210.25491726465282 L 451.3724896937575 211.69484235030404 L 451.77882842063 213.16641666173592 L 452.0111937763806 214.67106281177166 L 452.24832886950327 216.21030154118313 L 452.9344877360506 217.78576095629938 L 461.3198465161445 219.3991868798853 L 463.34036077841034 221.0524544802746 L 463.8882910170013 222.74758137298835 L 464.4840336931409 224.48674242440381 L 465.6740296790525 226.272286529903 L 470.68372106405684 228.106755691209 L 470.7584814129595 229.99290678166722 L 472.4512404758721 231.9337364671547 L 475.92673622354755 233.9325098480739 L 476.9989881952167 235.99279350974763 L 478.3953973801426 238.11849382136626 L 479.6380182100169 240.31390151657672 L 479.7036532968641 242.58374383411996 L 485.43394270110485 244.93324581114013 L 487.7256590015832 247.36820272751117 L 488.0564793712516 249.89506622782932 L 488.57558126309937 252.52104734194444 L 494.4018319362002 255.25424054604974 L 494.5739489200566 258.1037742414471 L 494.76812620085303 261.07999470291475 L 494.8358614055503 264.1946928474425 L 494.9105881723351 267.46138637141746 L 499.8877724335235 270.8956743155468 L 500.24811831618626 274.515687582352 L 501.0833603711466 278.34266835829783 L 503.64793637600536 282.4017254008904 L 507.42952231568165 286.7228334077197 L 507.8111687308025 291.3421777022832 L 510.20603073954896 296.30399811897234 L 515.4729711316413 301.663172437193 L 517.1708814814615 307.4889265940575 L 518.7814703568904 313.87031826256055 L 518.839179974936 320.924619473495 L 521.1557388888565 328.81065729203385 L 529.5245845325542 337.7511095934266 L 531.3645969412753 348.0721043283355 L 534.2549274533388 360.2792501537035 L 539.5921429845034 375.2195891831769 L 541.1753330275224 394.4810362194795 L 548.2776404070963 421.6285210743184 L 556.7307602660591 468.03745296546145" stroke-linejoin="bevel" stroke-miterlimit="10"/><path fill="none" stroke="none"/></g></g></g><g clip-path="url(#hvBFIJFfvrTI)"><g><g><path fill="none" stroke="none"/><path fill="none" stroke="red" paint-order="fill stroke markers" d=" M 134.2915938157102 28.227272727272748 L 134.98574787871232 28.29224501368367 L 136.45898318765774 28.357280410630324 L 138.50165479477775 28.422379040836347 L 138.86746975793224 28.48754102738343 L 141.17529041746897 28.55276649371308 L 142.18566218105104 28.618055563628047 L 142.58681420781465 28.683408361293402 L 142.84045737683493 28.74882501123824 L 143.06204316226896 28.814305638356984 L 143.63582773899574 28.87985036791099 L 144.56382824622327 28.945459325529725 L 145.13500447507792 29.011132637212256 L 146.49481879898448 29.07687042932912 L 147.23026713547574 29.208539962210864 L 147.90315054298856 29.274471957585376 L 148.67137451868882 29.340468942615928 L 148.87163947819167 29.406531045550423 L 149.723483057314 29.472658395016992 L 150.20155516350877 29.538851120025015 L 151.50671835557958 29.60510934996711 L 152.49779137498376 29.67143321462015 L 153.27486652414245 29.737822844147274 L 153.46731087396057 29.804278369099222 L 154.03617203917662 29.870799920415607 L 155.39033635335548 29.937387629427008 L 156.39840799575904 30.004041627855997 L 157.01587346506687 30.070762047819073 L 157.28684926605712 30.13754902182808 L 159.64536436113633 30.20440268279168 L 159.75911359889494 30.27132316401736 L 160.0487273733424 30.338310599212377 L 160.75598463390156 30.40536512248576 L 160.79761574669078 30.472486868350302 L 162.588879110164 30.539675971723113 L 163.87268808046232 30.606932567928425 L 165.2605445276396 30.674256792698372 L 165.79680660695837 30.74164878217499 L 166.00242280898013 30.809108672911975 L 166.05527205343031 30.876636601876044 L 167.37626709291172 30.94423270644876 L 168.07107518797375 31.011897124428458 L 169.3097302403228 31.07962999403128 L 170.67953438488115 31.147431453893546 L 170.90423859028124 31.351248767733296 L 172.60140702778037 31.419325983453234 L 172.7689897749065 31.487472488972116 L 172.9649969051112 31.55568842548172 L 173.01536142064867 31.69232915840115 L 173.7833716866849 31.760754239361518 L 174.35221372368807 31.829249320416864 L 174.58611321849423 31.897814544936637 L 175.14185781673186 31.966450056731162 L 175.38022662110487 32.03515600005352 L 175.81928176689468 32.10393251960119 L 175.84264775650257 32.17277976051827 L 175.91058104186135 32.241697868396784 L 176.2055994053644 32.31068698927902 L 176.99664341527532 32.37974726965899 L 177.16693697767676 32.44887885648461 L 177.24559369561422 32.58735653954466 L 177.6902309739054 32.65670293196064 L 177.71311239281317 32.72612122318935 L 178.82122187730033 32.795611562475926 L 179.20859502491118 32.86517409953046 L 179.88160248009487 32.93480898453049 L 179.9505537324558 33.004516368122495 L 179.95478425895143 33.07429640142402 L 180.2578217738569 33.144149236025385 L 181.29125639201186 33.21407502399205 L 182.38738051434177 33.284073917866465 L 182.79036612298404 33.3541460706698 L 183.48615650492977 33.42429163590441 L 184.14251743413175 33.494510767555425 L 185.03657787280994 33.56480362009313 L 185.56350677980373 33.63517034847473 L 186.4487982458668 33.70561110814663 L 186.65401120120114 33.77612605504612 L 186.86159488210055 33.84671534560397 L 187.09327464425547 33.91737913674609 L 187.10286163487172 33.98811758589602 L 187.4828910731241 34.05893085097648 L 187.54986921685668 34.12981909041196 L 188.73655080823875 34.200782463130565 L 189.69892748672476 34.2718211285665 L 189.83905838233036 34.342935246661796 L 190.11882647060895 34.48539048315189 L 190.23893518220524 34.55673192399041 L 190.58190280639036 34.62814946238035 L 190.73390466368846 34.69964326083647 L 191.07289939383452 34.77121348239467 L 193.74407662036333 34.8428602906144 L 195.28052270312236 34.91458384958065 L 195.68940041022023 34.986384323906464 L 196.88057316550308 35.058261878734754 L 197.90256511403783 35.130216679741125 L 198.16387439754806 35.20224889313573 L 199.58725818272532 35.27435868566579 L 200.13527965700706 35.34654622461801 L 200.19677018821974 35.41881167782054 L 200.7870162824844 35.491155213645754 L 201.13148608406027 35.56357700101222 L 202.44533086783537 35.63607720938745 L 202.9067000122721 35.708656008789774 L 203.26997977638854 35.78131356979128 L 203.39383165362221 35.854050063519935 L 204.84588749506554 35.92686566166179 L 205.16158265010256 35.99976053646401 L 205.36984370756352 36.07273486073689 L 205.75082475668654 36.14578880785615 L 206.1665505265345 36.218922551765786 L 206.67195391021176 36.29213626698049 L 206.69893850068684 36.36543012858806 L 206.98445777859274 36.43880431225176 L 210.18278635269934 36.5122589942132 L 210.70755853254263 36.58579435129462 L 211.1794225563765 36.65941056090145 L 211.50338393867298 36.733107801025085 L 211.55317601233816 36.80688625024516 L 211.69097713142918 36.88074608773229 L 211.7448761135572 36.95468749325096 L 212.5202932710739 37.02871064716163 L 212.55976031443555 37.102815730423686 L 213.09293317192555 37.17700292459824 L 213.55323658130226 37.25127241185015 L 215.00028550227358 37.3256243749517 L 216.03890663150105 37.40005899728442 L 216.67713606877166 37.474576462842094 L 216.8189056118923 37.54917695623374 L 217.39114619697412 37.62386066268601 L 217.63530103993088 37.698627768046094 L 217.6632116467743 37.77347845878455 L 218.12251385610006 37.84841292199792 L 219.08716544879445 37.92343134541176 L 219.17209473994814 37.99853391738321 L 219.4431095794926 38.07372082690404 L 219.47266945206354 38.148992263603475 L 219.7008881595075 38.224348417750946 L 220.0002081512277 38.29978948025911 L 220.82355420001733 38.37531564268659 L 221.50705159336613 38.45092709724105 L 221.50983883098644 38.52662403678221 L 221.67571338017663 38.60240665482439 L 221.8741869681068 38.678275145539885 L 223.197875651066 38.75422970376195 L 223.46992906059594 38.83027052498744 L 224.3273194706456 38.90639780538021 L 224.5762924477745 39.1353003732666 L 225.6719553669828 39.21177546540997 L 226.53717656675457 39.28833800764903 L 226.54104444464963 39.364988200213304 L 227.09487258323267 39.44172624402029 L 227.41017544044848 39.51855234067949 L 227.6661690389202 39.59546669249494 L 228.28714526292302 39.67246950246886 L 228.94731155255695 39.749560974304586 L 229.08974607853935 39.82674131240992 L 229.34565360708802 39.90401072190036 L 229.35631684547278 39.98136940860246 L 229.88477750089936 40.05881757905695 L 230.02537631392488 40.13635544052215 L 230.81392408940152 40.21398320097728 L 231.45971062674454 40.29170106912591 L 231.553019503524 40.369509254398906 L 232.23147704286583 40.44740796695862 L 232.26695142549403 40.5253974177013 L 232.5671734186114 40.603477818261354 L 233.0834099595825 40.681649381014495 L 233.57002080738556 40.75991231908097 L 234.15668015474031 40.83826684632925 L 234.26482275706724 40.91671317737968 L 236.4376056377377 40.995251527607934 L 236.69091186570571 41.07388211314833 L 237.47230203175073 41.15260515089756 L 238.53313024067188 41.231420858518334 L 239.14062772885018 41.310329454443036 L 239.46258495281677 41.389331157877166 L 240.2089204981326 41.46842618880311 L 240.5684029877741 41.547614767983646 L 240.56996786774695 41.626897116966234 L 241.18587023765184 41.70627345808566 L 243.0794643994105 41.78574401446889 L 243.72440684333222 41.86530901003823 L 243.8834904397341 41.944968669515106 L 245.39210079695565 42.02472321842424 L 245.88611207900863 42.10457288309692 L 246.04702808082536 42.184517890675465 L 246.2973570350068 42.26455846911665 L 246.54162776779137 42.34469484719591 L 246.65457297759633 42.424927254510806 L 246.7278659256049 42.50525592148574 L 247.50174747136668 42.58568107937509 L 247.5285137014738 42.6662029602677 L 248.58395430296585 42.746821797090945 L 248.6079318916273 42.82753782361448 L 248.98312314577376 42.90835127445422 L 249.28963670365673 42.989262385077154 L 249.79530547229024 43.07027139180457 L 249.8289191430704 43.15137853181665 L 249.8798855697191 43.23258404315669 L 250.18710271835297 43.31388816473503 L 250.26737165764803 43.39529113633358 L 250.7385345836069 43.47679319860987 L 251.0227154604434 43.55839459310113 L 251.60581291960827 43.640095562228964 L 251.9883476668024 43.721896349303734 L 252.46296921066545 43.80379719852817 L 252.76510830431297 43.88579835500269 L 253.0030834597127 43.96790006472929 L 253.20891988628486 44.05010257461589 L 254.47964402328952 44.132406132481094 L 255.4205720248103 44.21481098705834 L 255.6259536098883 44.297317388001034 L 255.67051547829945 44.3799255858861 L 255.69710933510927 44.462635832219405 L 256.16152706137666 44.54544837944013 L 256.68266723673946 44.62836348092503 L 256.76695059260237 44.71138139099361 L 257.1059249027695 44.79450236491243 L 257.10963215029426 44.87772665890003 L 257.38558682861793 44.96105453013149 L 257.6074174077773 45.04448623674335 L 257.65238149636355 45.128022037838434 L 257.65526516964474 45.21166219349038 L 257.71097043224177 45.29540696474885 L 258.4096435306942 45.37925661364437 L 259.6838900126363 45.46321140319293 L 259.7096011110197 45.54727159740139 L 260.96864853493923 45.631437461272185 L 260.9878915649932 45.715709260808296 L 261.8178391920982 45.80008726301833 L 261.8733501167122 45.88457173592184 L 262.09695869279017 45.969162948554185 L 263.50640567803805 46.0538611709718 L 263.57830905939284 46.138666674257024 L 263.5817917796252 46.22357973052385 L 264.14084270770906 46.30860061292287 L 264.14951549984164 46.393729595646505 L 264.5119746126009 46.47896695393433 L 264.7454684068895 46.56431296407857 L 265.4639982690712 46.649767903429336 L 265.52098830094775 46.73533205040002 L 265.6052470412877 46.82100568447288 L 266.18411389540404 46.906789086204185 L 266.4088444967134 46.99268253723034 L 266.58138936731086 47.07868632027265 L 266.97838493700976 47.16480071914356 L 267.0581666605052 47.251026018751986 L 267.1755706956097 47.337362505108956 L 268.70702990513144 47.42381046533325 L 268.8361715088939 47.51037018765766 L 269.0223469707632 47.59704196143366 L 269.99804206190265 47.68382607713852 L 270.31931284694485 47.77072282638005 L 270.436717885195 47.85773250190323 L 270.8134638482089 47.944855397595575 L 271.3659523583852 48.03209180849359 L 271.3890107847486 48.11944203078838 L 271.8172672105918 48.2069063618319 L 272.1586466936624 48.29448510014282 L 272.56364022176615 48.3821785454129 L 273.28819715214775 48.46998699851309 L 273.51033988571123 48.557910761499386 L 273.6064831607638 48.64595013761959 L 273.62146909135316 48.734105431319165 L 274.0769323759924 48.82237694824772 L 274.6113189267968 48.91076499526554 L 274.8421857180505 48.99926988044956 L 275.29667682708737 49.087891913100066 L 275.91709870895875 49.17663140374742 L 276.64497558195956 49.26548866415817 L 277.1796177159147 49.35446400734173 L 277.3076530721037 49.443557747557065 L 277.91264634065703 49.53277020031953 L 278.3987945438382 49.622101682407106 L 278.5487481898229 49.71155251186764 L 278.7873525086765 49.801123008025286 L 279.1365042546261 49.89081349148768 L 279.21925778916693 49.98062428415233 L 279.50910719593435 50.07055570921415 L 280.2312486930779 50.16060809117192 L 280.82535050240983 50.250781755835646 L 281.5980365191466 50.34107703033345 L 281.64695040493916 50.431494243118834 L 281.8316630681908 50.522033723977586 L 282.8747201889269 50.61269580403547 L 283.150650774489 50.70348081576492 L 283.3261822930428 50.7943890929929 L 283.3319485038245 50.88542097090772 L 283.50365950926846 50.97657678606703 L 284.05150794004385 51.067856876404676 L 284.06542735507236 51.15926158123881 L 284.1578033379435 51.2507912412791 L 284.6613070230786 51.34244619863438 L 285.3187930266786 51.43422679682038 L 285.7149483968227 51.52613338076759 L 287.01259818554604 51.61816629682875 L 287.0972662777438 51.710325892786784 L 287.4005113633968 51.80261251786277 L 287.4499075069981 51.89502652272398 L 287.5314604033592 51.987568259491525 L 287.9890302644884 52.0802380817488 L 287.9949190716576 52.173036344549246 L 288.2389935691862 52.26596340442467 L 288.3398721267755 52.35901961939379 L 288.4169553450249 52.45220534896953 L 288.60845131593635 52.54552095416864 L 288.88182985275563 52.63896679751906 L 289.2168835349335 52.73254324306913 L 289.3797219012882 52.8262506563953 L 289.90630943413703 52.92008940461142 L 290.15317725287406 53.01405985637706 L 290.20571903890493 53.10816238190614 L 291.43075930434827 53.20239735297571 L 291.44205778952664 53.2967651429351 L 291.9757093301322 53.39126612671413 L 292.010331565084 53.485900680832685 L 292.46437437810914 53.58066918340944 L 292.53952082359933 53.67557201417088 L 292.7179400876537 53.77060955446052 L 292.80884515185573 53.86578218724799 L 293.0158988506531 53.96109029713864 L 293.6510727400689 54.0565342703822 L 294.2525674808703 54.15211449488294 L 294.9796094644138 54.247831360208636 L 295.91145812999395 54.34368525760016 L 296.0664363606575 54.439676579981324 L 296.1976680991112 54.53580572196796 L 296.2951480894636 54.63207307987864 L 296.36267183995795 54.72847905174342 L 296.473704139344 54.82502403731439 L 296.5709818942058 54.921708438075484 L 296.607482018548 55.018532657252194 L 297.6328624072504 55.11549709982211 L 297.8286209390026 55.212602172524726 L 298.2800316525159 55.30984828387193 L 298.345229433291 55.40723584415832 L 298.6366350067635 55.50476526547112 L 298.81110292315384 55.60243696170136 L 299.04253898587694 55.700251348553934 L 299.19603446337715 55.79820884355826 L 299.24071390199344 55.89630986607909 L 300.20456541401774 55.99455483732726 L 300.2847520847555 56.09294418037058 L 300.4731235729844 56.19147832014454 L 300.63202014834985 56.2901576834638 L 301.21648431043127 56.388982699032624 L 301.6672291959251 56.48795379745667 L 301.8061805742666 56.58707141125393 L 302.1509498262686 56.68633597486581 L 302.3043325083639 56.785747924669465 L 302.9568718805051 56.885307698988186 L 303.4283172665495 56.985015738103755 L 303.4888624606174 57.08487248426786 L 304.0576075622563 57.18487838171393 L 304.0966460777976 57.28503387666893 L 304.4116347855139 57.385339417365344 L 304.5517106423906 57.48579545405312 L 305.1429740919339 57.586402439012204 L 305.56484797277403 57.68716082656397 L 305.8338758342774 57.78807107308438 L 306.01410840491417 57.88913363701579 L 306.3019510581263 57.990348978879865 L 306.3393153660245 58.09171756128961 L 306.6807249803014 58.19323984896289 L 306.79386844832277 58.294916308734344 L 307.10136412155896 58.396747409568775 L 307.4175524963756 58.49873362257415 L 307.5745523494515 58.60087542101434 L 307.7161877528435 58.70317328032246 L 307.75680856329313 58.805627678114604 L 308.3764690900965 58.90823909420237 L 308.4265510805492 59.01100801060676 L 308.6296727837515 59.11393491157202 L 308.679787243507 59.217020283579075 L 308.8332234230711 59.32026461535912 L 309.0305283551886 59.42366839790799 L 309.10754717883447 59.52723212449973 L 309.1166329625099 59.63095629070108 L 309.62470770772586 59.73484139438551 L 310.1792607289267 59.83888793574732 L 310.1806725892908 59.943096417316724 L 310.9477975642359 60.04746734397372 L 311.2671199944914 60.15200122296335 L 311.3312489556033 60.256698563910106 L 311.3845060740482 60.36155987883291 L 311.44695923704694 60.4665856821602 L 311.58634101437735 60.57177649074521 L 312.10607492108386 60.67713282388087 L 312.21361246883714 60.782655203315585 L 312.2733493725348 60.888344153268406 L 312.73899475253677 60.99420020044482 L 312.85660507385444 61.100223874052574 L 313.0445159844311 61.20641570581728 L 313.2796434110205 61.312776229998974 L 313.7508312718295 61.419305983407355 L 313.7933046047265 61.52600550541888 L 313.89814664625504 61.63287533799269 L 314.18254297191163 61.739916025687364 L 314.4330693122516 61.847128115677265 L 314.43402961991615 61.95451215776967 L 315.3359699857689 62.062068704421506 L 316.56391831101735 62.16979831075639 L 317.07456001912203 62.27770153458192 L 317.19531323410706 62.38577893640689 L 317.52764508957915 62.494031079458864 L 317.5448578643633 62.60245852970161 L 317.63861933089845 62.71106185585313 L 317.6387310132978 62.8198416294033 L 317.84205588908975 62.928798424632134 L 317.9140685799147 63.03793281862772 L 317.9901160316652 63.147245391304864 L 318.04116435028845 63.256736725423366 L 318.49836494111133 63.36640740660664 L 318.61346600951333 63.476258023360515 L 318.950411691711 63.58628916709256 L 319.0369404745093 63.69650143213062 L 319.3269625794948 63.806895415742304 L 320.13447808205865 63.91747171815456 L 320.5002385463326 64.0282309425732 L 320.5151925538498 64.13917369520226 L 321.0101365598992 64.25030058526454 L 322.05824927247374 64.3616122250213 L 322.24188958170544 64.47310922979256 L 322.29325012710484 64.58479221797734 L 322.3818604467295 64.69666181107459 L 323.3238951267982 64.80871863370362 L 323.4275171575641 64.9209633136254 L 323.7051979462483 65.03339648176313 L 324.1540083381834 65.14601877222395 L 324.65680887507904 65.25883082232048 L 325.10867873158645 65.3718332725918 L 325.3754991914105 65.48502676682608 L 326.06689760453787 65.5984119520819 L 326.23931987825256 65.71198947871119 L 326.39772053000297 65.82576000038074 L 326.73710325695833 65.9397241740956 L 327.38524192707536 66.05388266022106 L 327.4809929015297 66.16823612250641 L 327.50854144632706 66.2827852281074 L 327.5179361479614 66.39753064761015 L 327.5894806952905 66.51247305505416 L 327.9339417794727 66.62761312795658 L 328.2322209113763 66.74295154733579 L 328.24001256788483 66.85848899773589 L 328.74673451960564 66.97422616725072 L 328.7765936579525 67.09016374754879 L 329.10914900464127 67.2063024338978 L 329.14357948044056 67.32264292518988 L 329.15283362416943 67.4391859239667 L 329.2670791911775 67.555932136445 L 329.4493856423286 67.67288227254215 L 330.33835264636 67.79003704590218 L 330.61955270785074 67.90739717392177 L 330.6329481880689 68.02496337777677 L 330.7852986596849 68.14273638244879 L 331.0031884199888 68.26071691675173 L 331.68846502314796 68.37890571335919 L 332.0418052582589 68.49730350883164 L 332.3126982015525 68.6159110436439 L 333.04425711364024 68.73472906221309 L 333.5576737303204 68.85375831292646 L 333.85664288864564 68.97299954816981 L 333.99257990928476 69.09245352435596 L 334.31547767062284 69.21212100195356 L 334.8773447947616 69.33200274551632 L 335.0221359284286 69.45209952371187 L 335.19919217125243 69.57241210935172 L 335.8132803868749 69.692941279421 L 335.9445004875107 69.8136878151085 L 336.2684566026584 69.93465250183743 L 336.5633518542628 70.05583612929507 L 337.2337655938259 70.177239491465 L 337.66267157750616 70.29886338665744 L 337.7335900224095 70.42070861754098 L 337.8319873214626 70.54277599117444 L 337.89543546343117 70.66506631903883 L 338.1326737080196 70.78758041706988 L 338.52121100732995 70.91031910569035 L 338.5412205640773 71.03328320984355 L 339.2283578395461 71.15647355902615 L 339.25192601850654 71.27989098732195 L 339.6915376725308 71.40353633343551 L 339.711497122816 71.5274104407269 L 339.93736014158026 71.65151415724569 L 339.9635806301768 71.77584833576583 L 340.2445934773479 71.90041383382129 L 340.9149842495166 72.02521151374083 L 340.98623642519357 72.15024224268456 L 341.35085476508084 72.27550689267923 L 341.6064072712586 72.40100634065578 L 341.73578200098643 72.52674146848517 L 341.88171164377775 72.6527131630163 L 342.3184723537415 72.77892231611298 L 342.36854345853607 72.90536982469234 L 342.67124183256306 73.03205659076269 L 342.68181335000577 73.15898352146212 L 343.150776221299 73.28615152909788 L 343.3396080097421 73.41356153118511 L 343.44125614998563 73.5412144504873 L 343.477803334898 73.66911121505575 L 343.5803840136685 73.79725275827019 L 343.70819968713386 73.92564001887996 L 344.5279641044576 74.05427394104504 L 344.7472414228149 74.18315547437766 L 345.32585089726376 74.31228557398441 L 346.1394015180859 74.44166520050885 L 346.4175585637432 74.5712953201741 L 346.5811734852905 74.7011769048267 L 346.6096161114068 74.83131093197937 L 346.8479771832705 74.9616983848561 L 346.96356638710256 75.09234025243643 L 347.31201519685925 75.22323752950001 L 347.5531630458923 75.35439121667275 L 347.6470439612193 75.48580232047209 L 347.66672329312496 75.61747185335389 L 347.951050519438 75.74940083375895 L 347.9607013793476 75.88159028615996 L 348.011960657872 76.01404124111014 L 348.29354322885473 76.14675473529036 L 348.4157487005833 76.27973181155863 L 348.42766824128734 76.41297351899902 L 348.61263868350744 76.5464809129711 L 348.6992743796994 76.68025505516039 L 348.7167990309988 76.81429701362885 L 349.3685916202048 76.94860786286614 L 349.5291848540665 77.0831886838414 L 350.016099344744 77.218040564055 L 350.2177457185262 77.35316459759179 L 350.35200696737184 77.4885618851743 L 350.5119621039727 77.62423353421599 L 350.69661208247294 77.76018065887632 L 350.7469722577338 77.89640438011514 L 350.80814931734653 78.03290582574857 L 351.30788957133893 78.16968613050449 L 351.3700225317039 78.30674643607966 L 351.5192969818666 78.44408789119655 L 351.6168098896452 78.5817116516613 L 351.77040422808284 78.71961888042193 L 351.9190627892631 78.85781074762764 L 351.9332322945695 78.99628843068768 L 351.9693452137131 79.13505311433238 L 352.1959757228214 79.27410599067349 L 352.36488655801986 79.41344825926552 L 352.5474926871768 79.55308112716841 L 352.66602592747756 79.69300580900949 L 352.671670677896 79.83322352704744 L 352.8912683974821 79.97373551123616 L 353.07931265288386 80.1145429992896 L 353.53308781306765 80.255647236747 L 353.6351544356153 80.39704947703905 L 354.7774753547851 80.53875098155498 L 354.80179442566975 80.68075301970953 L 354.8385197727456 80.82305686901168 L 355.53918119344803 80.96566381513344 L 355.76747402038444 81.1085751519795 L 355.7996525159705 81.25179218175737 L 355.84406146105596 81.39531621504949 L 356.1100147617347 81.53914857088415 L 356.55803674958486 81.68329057680882 L 356.56026307404215 81.82774356896357 L 356.9386770692358 81.9725088921553 L 357.0644625757742 82.11758789993274 L 357.36398764041985 82.2629819546629 L 357.9580179787928 82.40869242760704 L 358.1273426956868 82.55472069899918 L 358.34185435594827 82.70106815812352 L 358.5606915795447 82.84773620339479 L 359.13796776491483 82.9947262424376 L 359.3911627459685 83.14203969216811 L 359.4347158131419 83.28967797887537 L 359.4932387790511 83.43764253830466 L 359.56954277902275 83.58593481574127 L 359.8097153320002 83.73455626609473 L 360.21806413547216 83.88350835398512 L 360.27888963387267 84.03279255382904 L 360.41170610229807 84.18241034992758 L 361.4354395331209 84.33236323655473 L 361.63501246445276 84.48265271804706 L 361.9414200636087 84.63328030889397 L 363.1358435292565 84.78424753382961 L 363.24696786360914 84.93555592792524 L 363.2863009782667 85.08720703668291 L 363.57910371280354 85.23920241613047 L 363.7531647723707 85.39154363291692 L 364.6175554215971 85.54423226440963 L 364.8982756037753 85.69726989879206 L 365.10493629851817 85.85065813516331 L 365.36408815600464 86.00439858363796 L 365.88288239995507 86.15849286544761 L 365.9402757920647 86.31294261304339 L 366.10094251682244 86.46774947019998 L 366.4579210551992 86.62291509212031 L 366.7756453206267 86.77844114554193 L 366.81206452024634 86.93432930884433 L 367.06488578740806 87.09058127215752 L 367.3516488594205 87.24719873747227 L 367.68954083954554 87.40418341875096 L 367.6970631668404 87.56153704204058 L 367.90060492490545 87.71926134558606 L 367.92569002841424 87.87735807994613 L 368.1911077982779 88.0358290081092 L 368.3594137701557 88.19467590561192 L 368.4387453949404 88.35390056065813 L 368.4577133403143 88.51350477423995 L 369.0270495032339 88.67349036025968 L 369.34561417659944 88.83385914565395 L 369.41352918527247 88.99461297051806 L 369.44879093684654 89.15575368823397 L 369.56866407868813 89.31728316559725 L 369.60699354937805 89.4792032829476 L 369.9216666796997 89.64151593429972 L 370.3756330752002 89.80422302747661 L 370.95341185131065 89.96732648424415 L 371.23978336001306 90.1308282404467 L 372.33021564928606 90.29473024614572 L 372.81399346117377 90.45903446575892 L 372.85198724206003 90.62374287820137 L 372.88142330480207 90.78885747702907 L 372.89517753836 90.9543802705831 L 372.96934716008354 91.12031328213664 L 373.257326039514 91.286658550043 L 373.27150950650935 91.45341812788638 L 373.54567109970344 91.62059408463335 L 373.652276638357 91.7881885047874 L 373.76491879298027 91.95620348854442 L 373.9930462743976 92.12464115195127 L 374.0344798329692 92.29350362706487 L 374.1376257873293 92.46279306211477 L 374.26433418902855 92.63251162166688 L 374.5116811449739 92.80266148678948 L 374.695316828106 92.97324485522165 L 374.703633050511 93.14426394154304 L 374.82469571266205 93.31572097734721 L 374.84789059393137 93.48761821141568 L 374.9451471217007 93.65995790989496 L 374.94797726089195 93.83274235647627 L 375.71985468661927 94.00597385257669 L 375.95209182966596 94.17965471752308 L 375.96277030559384 94.3537872887386 L 376.03502644325357 94.5283739219314 L 376.5636746605385 94.70341699128579 L 376.7788635515387 94.87891888965612 L 376.94719756391606 95.05488202876262 L 376.96668594090653 95.23130883939075 L 377.016100054275 95.40820177159259 L 377.0169704992254 95.58556329489045 L 377.08060632054776 95.76339589848482 L 377.19644043376877 95.94170209146256 L 377.20702111571313 96.12048440301066 L 377.3309508732419 96.2997453826307 L 377.82043351000294 96.47948760035717 L 377.88883823921014 96.65971364697867 L 377.9357749072419 96.8404261342618 L 377.96674494717655 97.0216276951785 L 378.0240198413948 97.20332098413587 L 378.21032447296363 97.38550867721005 L 378.3575905262638 97.56819347238184 L 378.4719388419978 97.7513780897774 L 378.9843549009922 97.93506527191067 L 379.8802349668944 98.11925778392981 L 380.0124573067654 98.30395841386701 L 380.5287505443901 98.48916997289183 L 380.8105502773284 98.6748952955677 L 380.90075141433243 98.8611372401125 L 381.01694919351723 99.04789868866209 L 381.0439762891242 99.23518254753833 L 381.06320955426105 99.42299174752009 L 381.06587158983456 99.61132924411874 L 381.43517886197657 99.80019801785716 L 381.5178992175963 99.98960107455247 L 381.8009406016261 100.17954144560355 L 382.12920342983546 100.37002218828167 L 382.30503065518457 100.56104638602596 L 382.78479439562574 100.75261714874318 L 382.8217322483626 100.94473761311099 L 383.3542649705784 101.13741094288645 L 383.4491746493806 101.33064032921851 L 383.92898058003726 101.52442899096508 L 383.993510107134 101.71878017501501 L 384.64788229957566 101.91369715661415 L 384.8272679366023 102.10918323969696 L 385.8785934370906 102.30524175722212 L 386.1723145942978 102.5018760715135 L 386.38080227959756 102.69908957460683 L 386.4017981874222 102.89688568859975 L 386.6702317592384 103.09526786600884 L 386.77799092187666 103.29423959013121 L 387.32889336817016 103.49380437541089 L 387.42775614216805 103.69396576781196 L 387.7215583566817 103.89472734519615 L 387.7921838632084 104.096092717707 L 387.8290345293584 104.29806552815882 L 388.044597629292 104.50064945243264 L 388.11311150058407 104.70384819987731 L 388.26102882647035 104.90766551371718 L 388.4139788032967 105.11210517146549 L 388.498294655239 105.31717098534534 L 388.560208956883 105.52286680271504 L 388.67557337524295 105.72919650650215 L 388.74451832677886 105.93616401564276 L 388.93025153649734 106.14377328552854 L 389.09595496360487 106.3520283084597 L 389.1379512776206 106.56093311410638 L 390.1698148434584 106.77049176997588 L 390.220524522539 106.98070838188823 L 390.62422848527257 107.19158709445861 L 390.67328920900076 107.40313209158779 L 391.0905949631461 107.6153475969603 L 391.1575738015609 107.82823787455038 L 391.39839735674184 108.04180722913571 L 391.8435754912889 108.25606000682023 L 391.8726150307959 108.47100059556453 L 392.24426346278494 108.68663342572495 L 392.2765306801597 108.90296297060189 L 392.7115800823751 109.11999374699616 L 392.89280686046044 109.3377303157751 L 392.99884869781977 109.55617728244789 L 393.51419019232196 109.77533929774967 L 394.17959974427276 109.99522105823559 L 394.18725235092154 110.21582730688527 L 394.8378356449473 110.43716283371612 L 394.91615192309735 110.65923247640757 L 394.9475511866493 110.88204112093553 L 395.0034952587038 111.10559370221762 L 395.25908091808265 111.32989520476843 L 395.61773225319246 111.55495066336704 L 395.9164025415784 111.78076516373483 L 396.13327631553557 112.00734384322487 L 396.3150268195365 112.23469189152377 L 396.5052067245861 112.46281455136409 L 396.53801859482303 112.69171711925043 L 396.9654058686159 112.92140494619719 L 397.01201922684885 113.15188343847882 L 398.11870201870045 113.38315805839369 L 398.1206372775958 113.61523432504077 L 398.2058408510248 113.84811781510973 L 398.50681032413445 114.08181416368518 L 398.5222832917593 114.31632906506479 L 398.5320661672662 114.55166827359176 L 398.6251195206901 114.78783760450216 L 398.81141147920596 115.02484293478693 L 398.95269222771094 115.26269020406949 L 399.1868581652354 115.50138541549899 L 399.1943066038368 115.74093463665935 L 399.6142761010909 115.98134400049469 L 399.8743266603938 116.22261970625158 L 400.5249227071633 116.4647680204381 L 400.99272543538774 116.70779527780041 L 401.0380162819489 116.95170788231752 L 401.16261976294703 117.19651230821279 L 401.60102468825534 117.44221510098657 L 401.8164901414183 117.68882287846492 L 401.83390245014886 117.93634233186992 L 401.9403104367063 118.18478022690886 L 402.72505658149254 118.43414340488386 L 402.8498685081331 118.68443878382226 L 403.08223360765317 118.9356733596282 L 403.122083388092 119.18785420725601 L 403.4357053167658 119.44098848190572 L 403.4479120015141 119.69508342024085 L 403.8514329306818 119.95014634163033 L 404.0801088822008 120.20618464941322 L 404.14564260189434 120.46320583218807 L 404.3143207015637 120.72121746512744 L 404.58175550649673 120.98022721131719 L 404.72764468531653 121.2402428231224 L 404.739227632763 121.50127214357946 L 404.8289969852313 121.76332310781572 L 404.8618024708219 122.02640374449692 L 404.9266913195937 122.29052217730299 L 405.1084542439124 122.55568662643338 L 405.45757336224636 122.82190541014205 L 405.6444353462754 123.08918694630341 L 405.69244395268754 123.35753975400917 L 405.7456381424372 123.62697245519803 L 405.75952767510506 123.89749377631722 L 405.88137241769726 124.16911255001935 L 405.9277745357496 124.4418377168916 L 405.9965097424326 124.71567832722269 L 406.2380846695845 124.99064354280432 L 406.4840715664842 125.26674263877067 L 406.89356632852736 125.5439850054754 L 407.1238211784196 125.82238015040855 L 407.18634597098236 126.10193770015246 L 407.31991902859727 126.38266740237918 L 407.3305520584046 126.66457912788997 L 407.6560357287906 126.94768287269801 L 407.80099522758934 127.2319887601547 L 408.13033639618203 127.51750704312241 L 408.810049517257 127.80424810619252 L 409.01739544676 128.09222246795179 L 409.20684889909774 128.38144078329833 L 409.6969096612909 128.67191384580588 L 409.7005519023093 128.9636525901422 L 409.84566571655887 129.25666809453782 L 409.90729567786974 129.55097158331114 L 409.9507186714285 129.84657442944757 L 410.1297204576452 130.14348815723775 L 411.05017991236565 130.44172444497207 L 411.36178431276664 130.7412951276978 L 411.44345076537473 131.042212200037 L 411.46122372169424 131.3444878190682 L 411.568270904448 131.6481343072735 L 411.64646547401026 131.9531641555526 L 412.108195683025 132.25959002630634 L 412.3681028008769 132.56742475659058 L 412.5170079301972 132.876681361343 L 412.58443064856027 133.18737303668496 L 412.7768083939234 133.49951316330055 L 412.8309346103087 133.81311530989393 L 412.90263898230154 134.1281932367291 L 413.0843377106956 134.44476089925217 L 413.43787288287604 134.76283245180116 L 413.70945354772846 135.0824222514027 L 413.8686898500454 135.4035448616611 L 413.9179656885819 135.72621505674027 L 414.00521178743173 136.05044782544263 L 414.07669013227 136.37625837538718 L 414.1120136318188 136.70366213728875 L 414.3902999578722 137.0326747693444 L 414.5283297615633 137.36331216172613 L 414.5562094837044 137.69559044118603 L 414.7246866291633 138.02952597577638 L 414.99677775978887 138.36513537968744 L 415.06235644816223 138.7024355182079 L 416.0813932829548 139.04144351280996 L 416.12652387180185 139.38217674636462 L 417.0968795489569 139.72465286849024 L 417.1425224760343 140.06888980103798 L 417.34415108514787 140.41490574371971 L 417.40789072755035 140.76271917988163 L 417.4774713052692 141.11234888242882 L 417.4952617225333 141.46381391990565 L 417.64521977614845 141.81713366273556 L 417.9300859423936 142.1723277896278 L 418.1498808039245 142.52941629415363 L 418.4616751937247 142.8884194915002 L 418.7085842792933 143.24935802540483 L 418.7282047517809 143.61225287527895 L 418.9752772836348 143.97712536352486 L 419.0563373565547 144.3439971630537 L 419.1967452747112 144.71289030501003 L 419.7243209803487 145.08382718671078 L 419.75920265061467 145.45683057980511 L 419.97526987742486 145.8319236386631 L 420.6380639895386 146.20912990900018 L 420.6891177950455 146.58847333674652 L 421.5805795307625 146.969978277169 L 421.9549859630423 147.35366950425396 L 422.06062351829576 147.73957222036154 L 422.31878855637365 148.12771206615804 L 422.41596999943465 148.51811513084 L 423.13909296517306 148.91080796265652 L 423.80843402270426 149.30581757974284 L 424.0855908249613 149.70317148127424 L 424.1677271909527 150.102897658955 L 424.8735503117885 150.50502460885002 L 425.4635989059773 150.9095813435756 L 425.8179654484238 151.31659740486015 L 426.3028872264471 151.7261028764883 L 426.39264022933315 152.13812839764518 L 426.4182479260358 152.5527051766715 L 426.42438799899054 152.9698650052494 L 426.6273217068398 153.38964027303126 L 426.67173800166273 153.81206398273088 L 427.5661795056308 154.2371697656934 L 428.2206752178396 154.66499189796332 L 428.44493940049347 155.09556531686798 L 428.73046863164353 155.52892563813919 L 429.2363473140527 155.96510917359092 L 429.60470104447865 156.40415294937867 L 429.6250814253893 156.84609472485914 L 429.9194803664684 157.29097301207855 L 430.0697594335237 157.73882709591146 L 430.81926946200264 158.18969705487785 L 431.82763410212937 158.6436237826668 L 431.85747146518594 159.10064901039345 L 431.86842143612444 159.56081532962185 L 431.9500711089713 160.0241662161838 L 432.37651561463053 160.4907460548282 L 432.5746275347464 160.96060016473484 L 432.6048627599385 161.43377482592996 L 432.6525795115204 161.910317306642 L 433.06687239435473 162.3902758916377 L 434.38388278388555 162.87369991158113 L 435.11055391040605 163.36063977346043 L 436.5681319127097 163.8511469921296 L 436.8509875083764 164.3452742230129 L 436.94353324905927 164.84307529602688 L 437.10543014183423 165.34460525077122 L 437.2242648421355 165.84992037304875 L 437.2324191470403 166.35907823277336 L 437.6138961939065 166.8721377233311 L 437.647711859479 167.3891591024602 L 437.7854961869169 167.91020403472254 L 437.8780016306953 168.43533563563994 L 438.3562998804251 168.96461851757647 L 438.3639612404036 169.49811883744638 L 439.17878149443106 170.035904346341 L 439.56239861905703 170.57804444116232 L 440.3393689793117 171.12461021836566 L 440.8891902396689 171.67567452991364 L 441.1688679165783 172.23131204155152 L 441.18558668414687 172.7915992935222 L 441.22355145240965 173.35661476384104 L 441.82036440350237 173.9264389342655 L 441.8548257754241 174.5011543590948 L 441.88381845335863 175.08084573694896 L 442.020176717344 175.66559998568084 L 442.05232639124716 176.25550632059065 L 442.1134646344315 176.8506563361151 L 442.14474532946224 177.45114409118008 L 442.48365015329136 178.05706619841652 L 442.91524118967146 178.66852191744937 L 443.22513957980004 179.28561325248597 L 443.25601526307037 179.90844505444352 L 443.4109598292336 180.53712512787212 L 443.85163815396714 181.17176434294413 L 443.9480783566695 181.81247675280412 L 443.98306005478315 182.45937971658566 L 444.03352651691415 183.11259402843177 L 444.27328848721294 183.77224405286915 L 444.53128091138524 184.43845786691946 L 445.32470820365177 185.11136740935092 L 445.3247655391511 185.7911086375077 L 446.19099533229166 186.477821692181 L 447.1267222190243 187.17165107102466 L 448.1146346808647 187.87274581104867 L 448.4089056711136 188.5812596807707 L 448.5017619724161 189.29735138264323 L 448.68125055591247 190.02118476642192 L 448.8750059172314 190.75292905419673 L 448.91897483792604 191.49275907785375 L 450.571620041127 192.24085552980614 L 450.64942532232465 192.99740522788954 L 450.9665352086396 193.76260139539704 L 450.97909847249224 194.53664395730107 L 451.4925178575541 195.3197398537996 L 451.6206121652356 196.11210337241727 L 451.94141848026607 196.9139564999931 L 452.1918659482183 197.72552929600317 L 452.83356930120203 198.54706028878815 L 453.31451079081006 199.37879689639243 L 454.4292961946016 200.22099587387373 L 454.5351706144651 201.07392378910635 L 454.56246901750694 201.9378575292821 L 454.76257269198163 202.81308484052164 L 454.98119590434936 203.69990490322158 L 455.3468473656706 204.59862894602088 L 455.3870767940032 205.50958090153648 L 455.77069407505127 206.43309810732688 L 457.8464254222278 207.3695320558778 L 458.3045525390742 208.31924919778504 L 459.2606568777007 209.28263180272415 L 459.784115938463 210.2600788832725 L 461.6877913223276 211.2520071871699 L 462.8542938650119 212.25885226419172 L 463.00247390259506 213.28106961447406 L 463.5008501481825 214.31913592586545 L 463.592137526864 215.3735504087195 L 463.80420085225256 216.44483623748397 L 464.0279946092416 217.53354210950874 L 464.37908515388017 218.64024393269455 L 464.4311492654114 219.76554665498406 L 465.0797145051115 220.91008625023784 L 467.4607850580522 222.07453187682387 L 467.9301351204713 223.259588227258 L 468.7104809967435 224.46599808955943 L 468.9856023268455 225.694545143629 L 469.0345965456706 226.9460570190151 L 470.3952075836768 228.22140864394714 L 470.43816110862605 229.52152591957474 L 473.4482837547529 230.84738975806243 L 474.3322994223743 232.20004052865062 L 474.4816449068173 233.58058296216774 L 474.5763994847045 234.99019157191373 L 474.60494596791045 236.43011665756507 L 477.0094898581549 237.90169096899677 L 477.1968262663328 239.40633711903263 L 477.9994887908501 240.9455758484441 L 478.32444933493684 242.52103526356035 L 479.7246992782648 244.1344611871462 L 479.91332624093917 245.78772878753534 L 480.1965348516544 247.48285568024937 L 481.0234103887345 249.2220167316646 L 483.9376726637196 251.0075608371639 L 483.9397156974204 252.8420299984698 L 485.5255506907818 254.72818108892812 L 487.09811834503245 256.6690107744156 L 487.38583029938775 258.6677841553348 L 487.70967917972297 260.7280678170084 L 488.02990558761763 262.85376812862717 L 488.77150764085206 265.04917582383763 L 492.8651337535396 267.319018141381 L 496.7612259588829 269.66852011840103 L 496.7876972562734 272.10347703477186 L 497.7392749853495 274.6303405350901 L 498.0945411327273 277.25632164920535 L 498.26913736031014 279.98951485331065 L 500.080179774573 282.83904854870786 L 500.14746634116534 285.81526901017565 L 500.7400656570768 288.92996715470315 L 502.5856185330298 292.1966606786786 L 505.738887839239 295.63094862280764 L 506.89845665090917 299.250961889613 L 514.6986939404985 303.07794266555857 L 514.764594489094 307.13699970815173 L 515.2746545411271 311.4581077149806 L 515.346641172277 316.07745200954434 L 515.3791484700691 321.03927242623314 L 515.8911071079374 326.3984467444534 L 516.0243389896013 332.2242009013187 L 516.1580936431991 338.60559256982117 L 516.1815339585406 345.6598937807561 L 517.3563180171175 353.54593159929425 L 520.9467995833048 362.4863839006874 L 521.5554548919629 372.8073786355964 L 525.1629043236635 385.01452446096505 L 525.5480476866448 399.9548634904372 L 532.0915149273748 419.2163105267408 L 538.0953308611722 446.3637953815802 L 543.3425794296975 492.77272727272737" stroke-linejoin="bevel" stroke-miterlimit="10"/><path fill="none" stroke="none"/><path fill="none" stroke="red" paint-order="fill stroke markers" d=" M 560.1234701299138 NaN" stroke-linejoin="bevel" stroke-miterlimit="10"/></g></g></g><g clip-path="url(#ZSCOqhhPmUWU)"><g><g stroke="black" stroke-linejoin="bevel" stroke-miterlimit="10" stroke-dasharray="4,4"><path fill="none" stroke="" d=""/><g transform="translate(471.779634190214,229.08186434792088) rotate(90,0,0)"><path fill="none" stroke="" paint-order="fill stroke markers" d=" M 0 0 L 3680.025033058175 0"/><g transform="rotate(-90,0,0) translate(-471.779634190214,-229.08186434792088)"/></g></g></g></g><g clip-path="url(#JFTfATlPQScr)"><g><g stroke="black" stroke-linejoin="bevel" stroke-miterlimit="10" stroke-dasharray="4,4"><path fill="none" stroke="" d=""/><g transform="translate(471.779634190214,229.08186434792088) rotate(180,0,0)"><path fill="none" stroke="" paint-order="fill stroke markers" d=" M 0 0 L 3680.025033058175 0"/><g transform="rotate(-180,0,0) translate(-471.779634190214,-229.08186434792088)"/></g></g></g></g><g clip-path="url(#OrURoGvBvukQ)"><g><g><path fill="none" stroke="none"/><path fill="#1f77b4" stroke="black" paint-order="fill stroke markers" d=" M 474.779634190214 229.08186434792088 A 3 3 0 1 1 474.7796326902141 229.0788643484209" stroke-linejoin="bevel" stroke-miterlimit="10"/></g></g></g><g clip-path="url(#PnGyPoVlSLoT)"><g><g/><g><path fill="#ffffff" stroke="#e5e5e5" paint-order="fill stroke markers" d=" M 123 415 L 264 415 L 264 506 L 123 506 L 123 415 Z" fill-opacity="0.95" stroke-linejoin="bevel" stroke-miterlimit="10" stroke-opacity="0.5"/><text fill="#444444" stroke="none" font-family="helvetica" font-size="24pt" font-style="normal" font-weight="normal" text-decoration="normal" x="158" y="442" text-anchor="start" dominant-baseline="central">male</text><g><path fill="none" stroke="blue" paint-order="fill stroke markers" d=" M 133 435 L 153 435" stroke-linejoin="bevel" stroke-miterlimit="10"/></g><text fill="#444444" stroke="none" font-family="helvetica" font-size="24pt" font-style="normal" font-weight="normal" text-decoration="normal" x="158" y="479" text-anchor="start" dominant-baseline="central">female</text><g><path fill="none" stroke="red" paint-order="fill stroke markers" d=" M 133 472 L 153 472" stroke-linejoin="bevel" stroke-miterlimit="10"/></g></g></g></g><g/><g/><g><g fill="#444444"><path fill="none" stroke="black" paint-order="fill stroke markers" d=" M 113 516 L 570 516" stroke-linejoin="bevel" stroke-miterlimit="10"/><path fill="none" stroke="black" paint-order="fill stroke markers" d=" M 334 522 L 334 514" stroke-linejoin="bevel" stroke-miterlimit="10"/><path fill="none" stroke="black" paint-order="fill stroke markers" d=" M 436 522 L 436 514" stroke-linejoin="bevel" stroke-miterlimit="10"/><path fill="none" stroke="black" paint-order="fill stroke markers" d=" M 495 522 L 495 514" stroke-linejoin="bevel" stroke-miterlimit="10"/><path fill="none" stroke="black" paint-order="fill stroke markers" d=" M 537 522 L 537 514" stroke-linejoin="bevel" stroke-miterlimit="10"/><path fill="" stroke="black" paint-order="fill stroke markers" d=" M 570 522 L 570 514" stroke-linejoin="bevel" stroke-miterlimit="10"/><g transform="translate(334,527) rotate(-59.99999999999999,0,0)"><text fill="" stroke="none" font-family="helvetica" font-size="24px" font-style="normal" font-weight="normal" text-decoration="normal" x="0" y="0" text-anchor="end" dominant-baseline="central">5.0e-4</text><g transform="rotate(59.99999999999999,0,0) translate(-334,-527) translate(436,527) rotate(-59.99999999999999,0,0)"><text fill="" stroke="none" font-family="helvetica" font-size="24px" font-style="normal" font-weight="normal" text-decoration="normal" x="0" y="0" text-anchor="end" dominant-baseline="central">1.0e-3</text><g transform="rotate(59.99999999999999,0,0) translate(-436,-527) translate(495,527) rotate(-59.99999999999999,0,0)"><text fill="" stroke="none" font-family="helvetica" font-size="24px" font-style="normal" font-weight="normal" text-decoration="normal" x="0" y="0" text-anchor="end" dominant-baseline="central">1.5e-3</text><g transform="rotate(59.99999999999999,0,0) translate(-495,-527) translate(537,527) rotate(-59.99999999999999,0,0)"><text fill="" stroke="none" font-family="helvetica" font-size="24px" font-style="normal" font-weight="normal" text-decoration="normal" x="0" y="0" text-anchor="end" dominant-baseline="central">2.0e-3</text><g transform="rotate(59.99999999999999,0,0) translate(-537,-527) translate(570,527) rotate(-59.99999999999999,0,0)"><text fill="" stroke="none" font-family="helvetica" font-size="24px" font-style="normal" font-weight="normal" text-decoration="normal" x="0" y="0" text-anchor="end" dominant-baseline="central">2.5e-3</text><g transform="rotate(59.99999999999999,0,0) translate(-570,-527)"/></g></g></g></g></g></g></g><g><g fill="#444444"><path fill="none" stroke="black" paint-order="fill stroke markers" d=" M 113 516 L 113 5" stroke-linejoin="bevel" stroke-miterlimit="10"/><path fill="none" stroke="black" paint-order="fill stroke markers" d=" M 107 486 L 115 486" stroke-linejoin="bevel" stroke-miterlimit="10"/><path fill="none" stroke="black" paint-order="fill stroke markers" d=" M 107 332 L 115 332" stroke-linejoin="bevel" stroke-miterlimit="10"/><path fill="none" stroke="black" paint-order="fill stroke markers" d=" M 107 178 L 115 178" stroke-linejoin="bevel" stroke-miterlimit="10"/><path fill="none" stroke="black" paint-order="fill stroke markers" d=" M 107 24 L 115 24" stroke-linejoin="bevel" stroke-miterlimit="10"/><path fill="none" stroke="black" paint-order="fill stroke markers" d=" M 109 510 L 113 510" stroke-linejoin="bevel" stroke-miterlimit="10"/><path fill="none" stroke="black" paint-order="fill stroke markers" d=" M 109 501 L 113 501" stroke-linejoin="bevel" stroke-miterlimit="10"/><path fill="none" stroke="black" paint-order="fill stroke markers" d=" M 109 493 L 113 493" stroke-linejoin="bevel" stroke-miterlimit="10"/><path fill="none" stroke="black" paint-order="fill stroke markers" d=" M 109 486 L 113 486" stroke-linejoin="bevel" stroke-miterlimit="10"/><path fill="none" stroke="black" paint-order="fill stroke markers" d=" M 109 486 L 113 486" stroke-linejoin="bevel" stroke-miterlimit="10"/><path fill="none" stroke="black" paint-order="fill stroke markers" d=" M 109 440 L 113 440" stroke-linejoin="bevel" stroke-miterlimit="10"/><path fill="none" stroke="black" paint-order="fill stroke markers" d=" M 109 413 L 113 413" stroke-linejoin="bevel" stroke-miterlimit="10"/><path fill="none" stroke="black" paint-order="fill stroke markers" d=" M 109 393 L 113 393" stroke-linejoin="bevel" stroke-miterlimit="10"/><path fill="none" stroke="black" paint-order="fill stroke markers" d=" M 109 378 L 113 378" stroke-linejoin="bevel" stroke-miterlimit="10"/><path fill="none" stroke="black" paint-order="fill stroke markers" d=" M 109 366 L 113 366" stroke-linejoin="bevel" stroke-miterlimit="10"/><path fill="none" stroke="black" paint-order="fill stroke markers" d=" M 109 356 L 113 356" stroke-linejoin="bevel" stroke-miterlimit="10"/><path fill="none" stroke="black" paint-order="fill stroke markers" d=" M 109 347 L 113 347" stroke-linejoin="bevel" stroke-miterlimit="10"/><path fill="none" stroke="black" paint-order="fill stroke markers" d=" M 109 339 L 113 339" stroke-linejoin="bevel" stroke-miterlimit="10"/><path fill="none" stroke="black" paint-order="fill stroke markers" d=" M 109 332 L 113 332" stroke-linejoin="bevel" stroke-miterlimit="10"/><path fill="none" stroke="black" paint-order="fill stroke markers" d=" M 109 332 L 113 332" stroke-linejoin="bevel" stroke-miterlimit="10"/><path fill="none" stroke="black" paint-order="fill stroke markers" d=" M 109 286 L 113 286" stroke-linejoin="bevel" stroke-miterlimit="10"/><path fill="none" stroke="black" paint-order="fill stroke markers" d=" M 109 258 L 113 258" stroke-linejoin="bevel" stroke-miterlimit="10"/><path fill="none" stroke="black" paint-order="fill stroke markers" d=" M 109 239 L 113 239" stroke-linejoin="bevel" stroke-miterlimit="10"/><path fill="none" stroke="black" paint-order="fill stroke markers" d=" M 109 224 L 113 224" stroke-linejoin="bevel" stroke-miterlimit="10"/><path fill="none" stroke="black" paint-order="fill stroke markers" d=" M 109 212 L 113 212" stroke-linejoin="bevel" stroke-miterlimit="10"/><path fill="none" stroke="black" paint-order="fill stroke markers" d=" M 109 202 L 113 202" stroke-linejoin="bevel" stroke-miterlimit="10"/><path fill="none" stroke="black" paint-order="fill stroke markers" d=" M 109 193 L 113 193" stroke-linejoin="bevel" stroke-miterlimit="10"/><path fill="none" stroke="black" paint-order="fill stroke markers" d=" M 109 185 L 113 185" stroke-linejoin="bevel" stroke-miterlimit="10"/><path fill="none" stroke="black" paint-order="fill stroke markers" d=" M 109 178 L 113 178" stroke-linejoin="bevel" stroke-miterlimit="10"/><path fill="none" stroke="black" paint-order="fill stroke markers" d=" M 109 178 L 113 178" stroke-linejoin="bevel" stroke-miterlimit="10"/><path fill="none" stroke="black" paint-order="fill stroke markers" d=" M 109 131 L 113 131" stroke-linejoin="bevel" stroke-miterlimit="10"/><path fill="none" stroke="black" paint-order="fill stroke markers" d=" M 109 104 L 113 104" stroke-linejoin="bevel" stroke-miterlimit="10"/><path fill="none" stroke="black" paint-order="fill stroke markers" d=" M 109 85 L 113 85" stroke-linejoin="bevel" stroke-miterlimit="10"/><path fill="none" stroke="black" paint-order="fill stroke markers" d=" M 109 70 L 113 70" stroke-linejoin="bevel" stroke-miterlimit="10"/><path fill="none" stroke="black" paint-order="fill stroke markers" d=" M 109 58 L 113 58" stroke-linejoin="bevel" stroke-miterlimit="10"/><path fill="none" stroke="black" paint-order="fill stroke markers" d=" M 109 48 L 113 48" stroke-linejoin="bevel" stroke-miterlimit="10"/><path fill="none" stroke="black" paint-order="fill stroke markers" d=" M 109 39 L 113 39" stroke-linejoin="bevel" stroke-miterlimit="10"/><path fill="none" stroke="black" paint-order="fill stroke markers" d=" M 109 31 L 113 31" stroke-linejoin="bevel" stroke-miterlimit="10"/><path fill="none" stroke="black" paint-order="fill stroke markers" d=" M 109 24 L 113 24" stroke-linejoin="bevel" stroke-miterlimit="10"/><path fill="" stroke="black" paint-order="fill stroke markers" d=" M 109 24 L 113 24" stroke-linejoin="bevel" stroke-miterlimit="10"/><g transform="translate(102,486) rotate(0,0,0)"><text fill="" stroke="none" font-family="helvetica" font-size="26px" font-style="normal" font-weight="normal" text-decoration="normal" x="0" y="0" text-anchor="end" dominant-baseline="central">10^-3</text><g transform="rotate(0,0,0) translate(-102,-486) translate(102,332) rotate(0,0,0)"><text fill="" stroke="none" font-family="helvetica" font-size="26px" font-style="normal" font-weight="normal" text-decoration="normal" x="0" y="0" text-anchor="end" dominant-baseline="central">10^-2</text><g transform="rotate(0,0,0) translate(-102,-332) translate(102,178) rotate(0,0,0)"><text fill="" stroke="none" font-family="helvetica" font-size="26px" font-style="normal" font-weight="normal" text-decoration="normal" x="0" y="0" text-anchor="end" dominant-baseline="central">10^-1</text><g transform="rotate(0,0,0) translate(-102,-178) translate(102,24) rotate(0,0,0)"><text fill="" stroke="none" font-family="helvetica" font-size="26px" font-style="normal" font-weight="normal" text-decoration="normal" x="0" y="0" text-anchor="end" dominant-baseline="central">10^0</text><g transform="rotate(0,0,0) translate(-102,-24) translate(26,261) rotate(-90,0,0)"><text fill="" stroke="none" font-family="helvetica" font-size="26pt" font-style="italic" font-weight="normal" text-decoration="normal" x="0" y="0" text-anchor="middle" dominant-baseline="alphabetic">CCDF</text><g transform="rotate(90,0,0) translate(-26,-261)"/></g></g></g></g></g></g></g><g clip-path="url(#TIABPNFAZDsK)"><g/></g><g clip-path="url(#dECyGeHZZomF)"><g/></g></g></g></svg>