<svg version="1.1" xmlns="http://www.w3.org/2000/svg" xmlns:xlink="http://www.w3.org/1999/xlink" width="600" height="600" style="width: 600px; height: 600px;"><defs><clipPath id="aOQltAOCJFCb"><path fill="none" stroke="none" d=" M 113 5 L 570 5 L 570 570 L 113 570 L 113 5 Z"/></clipPath><clipPath id="xJvlkzSqtQTg"><path fill="none" stroke="none" d=" M 113 5 L 570 5 L 570 570 L 113 570 L 113 5 Z"/></clipPath><clipPath id="fIwfuDPqESsA"><path fill="none" stroke="none" d=" M 113 5 L 570 5 L 570 570 L 113 570 L 113 5 Z"/></clipPath><clipPath id="sBSkZKNHtoWq"><path fill="none" stroke="none" d=" M 113 5 L 570 5 L 570 570 L 113 570 L 113 5 Z"/></clipPath><clipPath id="OdNaXPEBkrPR"><path fill="none" stroke="none" d=" M 113 5 L 570 5 L 570 570 L 113 570 L 113 5 Z"/></clipPath><clipPath id="TEbPsccJrJTb"><path fill="none" stroke="none" d=" M 113 5 L 570 5 L 570 570 L 113 570 L 113 5 Z"/></clipPath><clipPath id="WdPHyThmFOCr"><path fill="none" stroke="none" d=" M 113 5 L 570 5 L 570 570 L 113 570 L 113 5 Z"/></clipPath><clipPath id="nkwxTTqzxkoH"><path fill="none" stroke="none" d=" M 113 5 L 570 5 L 570 570 L 113 570 L 113 5 Z"/></clipPath></defs><g><g transform="scale(1,1) translate(0.5,0.5)"><rect fill="#FFFFFF" stroke="none" x="0" y="0" width="600" height="600"/><rect fill="#ffffff" stroke="none" x="0" y="0" width="600" height="600"/><rect fill="#FFFFFF" stroke="none" x="113" y="5" width="457" height="565"/><rect fill="#ffffff" stroke="none" x="113" y="5" width="457" height="565"/><g><rect fill="none" stroke="#e5e5e5" x="113" y="5" width="457" height="565" stroke-linejoin="bevel" stroke-miterlimit="10"/></g><g clip-path="url(#aOQltAOCJFCb)"><g><g><path fill="none" stroke="#e5e5e5" paint-order="fill stroke markers" d=" M 134 570 L 134 5" stroke-linejoin="bevel" stroke-miterlimit="10"/><path fill="none" stroke="#e5e5e5" paint-order="fill stroke markers" d=" M 361 570 L 361 5" stroke-linejoin="bevel" stroke-miterlimit="10"/></g></g></g><g clip-path="url(#xJvlkzSqtQTg)"><g><g><path fill="none" stroke="#e5e5e5" paint-order="fill stroke markers" d=" M 113 537 L 570 537" stroke-linejoin="bevel" stroke-miterlimit="10"/><path fill="none" stroke="#e5e5e5" paint-order="fill stroke markers" d=" M 113 367 L 570 367" stroke-linejoin="bevel" stroke-miterlimit="10"/><path fill="none" stroke="#e5e5e5" paint-order="fill stroke markers" d=" M 113 198 L 570 198" stroke-linejoin="bevel" stroke-miterlimit="10"/><path fill="none" stroke="#e5e5e5" paint-order="fill stroke markers" d=" M 113 29 L 570 29" stroke-linejoin="bevel" stroke-miterlimit="10"/></g></g></g><g clip-path="url(#fIwfuDPqESsA)"><g><g fill="#444444"><path fill="" stroke="none" d=""/><g transform="translate(138.7727272727273,362.4855890630812) rotate(0,0,0)"><path fill="none" stroke="none"/><text fill="" stroke="none" font-family="helvetica" font-size="20pt" font-style="normal" font-weight="normal" text-decoration="normal" x="0" y="0" text-anchor="start" dominant-baseline="text-after-edge">Female mean: 13.00(±10.58)</text></g></g><g fill="#444444"><path fill="" stroke="none" d=""/><g transform="translate(138.7727272727273,327.89063913386565) rotate(0,0,0)"><path fill="none" stroke="none"/><text fill="" stroke="none" font-family="helvetica" font-size="20pt" font-style="normal" font-weight="normal" text-decoration="normal" x="0" y="0" text-anchor="start" dominant-baseline="text-after-edge">Male mean: 12.30(±10.15)</text></g></g></g></g><g clip-path="url(#sBSkZKNHtoWq)"><g><g><path fill="none" stroke="none"/><path fill="none" stroke="blue" paint-order="fill stroke markers" d=" M 133.7727272727273 31.463397691151613 L 133.7727272727273 36.54166684918823 L 202.26076502002485 41.53567950300976 L 242.32369885016897 46.03389068671413 L 270.7488027673224 50.56490298864253 L 292.79702628188363 57.075726852314006 L 310.8117365974665 62.36703728230856 L 326.04295714467 66.92466265629179 L 339.23684051461987 70.41058998263566 L 350.8746704276106 77.92059274471302 L 361.28506402918117 84.00068395217471 L 370.7024105541532 91.75581931048737 L 379.29977434476405 98.40860215370043 L 387.2085823703735 105.1757265959389 L 394.5309948919675 111.43171220824797 L 401.3479978593253 118.92349949287785 L 407.72487826191747 124.73299624791736 L 413.7150366349566 130.6542343163253 L 419.3627081749081 137.5156206945901 L 424.70494716123534 146.02666213746352 L 429.7731017764787 151.4449120758203 L 434.5939287221117 156.19531562236938 L 439.1904483014507 163.64816838714063 L 443.58260927139906 171.26935337531552 L 447.7878120920616 176.10903007783753 L 451.82132529103995 184.42208901325034 L 455.69662011767105 192.89184850996224 L 459.4256420050523 195.63523591501593 L 463.0190326392651 206.67168662547692 L 466.48631304267855 215.8844083877023 L 469.83603560662283 227.8467292692411 L 473.0759111860258 238.7135814989611 L 476.212916009215 245.72895477036872 L 479.2533821315948 255.5576274749546 L 482.20307438225416 262.15359386758394 L 485.06725615382635 269.3993451301178 L 487.8507459222057 274.65913277244545 L 490.557966020709 286.4612670661115 L 493.19298490853294 300.5240230497777 L 495.7595539478151 308.710864678338 L 498.26113952377625 313.17318289401425 L 500.70095119812026 323.00185559859983 L 503.0819664694092 328.4566253630973 L 505.4069526195948 340.75275955182246 L 507.6784860487482 347.7681328232302 L 509.8989694367669 355.5232681815428 L 512.0706470186966 374.0214446250309 L 514.1956182171434 385.3678145642093 L 520.3093630383376 398.7877218496608 L 522.2660082123982 415.2123609468757 L 524.1846578649686 436.3874035906398 L 527.9136797523497 466.2319499733063 L 541.5639489333233 517.2515389997369" stroke-linejoin="bevel" stroke-miterlimit="10"/><path fill="none" stroke="none"/></g></g></g><g clip-path="url(#OdNaXPEBkrPR)"><g><g><path fill="none" stroke="none"/><path fill="none" stroke="red" paint-order="fill stroke markers" d=" M 133.7727272727273 30.68181818181813 L 133.7727272727273 33.549481596286796 L 202.26076502002485 38.41409107432287 L 242.32369885016897 43.37815430087255 L 270.7488027673224 47.05502671347733 L 292.79702628188363 50.65483056009316 L 310.8117365974665 55.7781047382274 L 326.04295714467 61.28483758859403 L 339.23684051461987 65.67571601493756 L 350.8746704276106 70.4629132178772 L 361.28506402918117 78.1526503416996 L 370.7024105541532 84.28432865030055 L 379.29977434476405 91.1293839712605 L 387.2085823703735 97.30743870484804 L 394.5309948919675 105.1757265959389 L 401.3479978593253 111.6832777129801 L 407.72487826191747 119.73683050952212 L 413.7150366349566 124.24228970996961 L 419.3627081749081 132.51548923824032 L 424.70494716123534 140.30103389592233 L 429.7731017764787 146.98259386014405 L 434.5939287221117 152.87419403482494 L 439.1904483014507 158.49568121618455 L 443.58260927139906 165.86239505002874 L 447.7878120920616 174.53189878893113 L 451.82132529103995 182.1795020491166 L 455.69662011767105 190.7148112055856 L 459.4256420050523 198.3359961937606 L 463.0190326392651 206.0911315520732 L 466.48631304267855 211.4887318316953 L 469.83603560662283 217.31369034670706 L 473.0759111860258 228.51587667841636 L 476.212916009215 240.537533079554 L 479.2533821315948 260.92534139479574 L 482.20307438225416 264.12609384991146 L 485.06725615382635 269.2043630079481 L 487.8507459222057 278.5340120514371 L 490.557966020709 291.5571221059846 L 493.19298490853294 299.0489093906144 L 495.7595539478151 316.7998133438365 L 498.26113952377625 335.7775074967833 L 500.70095119812026 350.06849841704536 L 503.0819664694092 355.5232681815428 L 505.4069526195948 367.8194023702674 L 507.6784860487482 391.2594147388902 L 509.8989694367669 401.08808744347584 L 514.1956182171434 412.4344573826543 L 516.2758498393591 425.85436466810575 L 520.3093630383376 442.2790037653207 L 522.2660082123982 493.2985927917513 L 527.9136797523497 544.3181818181819" stroke-linejoin="bevel" stroke-miterlimit="10"/><path fill="none" stroke="none"/><path fill="none" stroke="red" paint-order="fill stroke markers" d=" M 549.2272727272727 NaN" stroke-linejoin="bevel" stroke-miterlimit="10"/></g></g></g><g clip-path="url(#TEbPsccJrJTb)"><g><g/><g><path fill="#ffffff" stroke="#e5e5e5" paint-order="fill stroke markers" d=" M 123 475 L 255 475 L 255 560 L 123 560 L 123 475 Z" fill-opacity="0.95" stroke-linejoin="bevel" stroke-miterlimit="10" stroke-opacity="0.5"/><text fill="#444444" stroke="none" font-family="helvetica" font-size="22pt" font-style="normal" font-weight="normal" text-decoration="normal" x="158" y="500.5" text-anchor="start" dominant-baseline="central">male</text><g><path fill="none" stroke="blue" paint-order="fill stroke markers" d=" M 133 495 L 153 495" stroke-linejoin="bevel" stroke-miterlimit="10"/></g><text fill="#444444" stroke="none" font-family="helvetica" font-size="22pt" font-style="normal" font-weight="normal" text-decoration="normal" x="158" y="534.5" text-anchor="start" dominant-baseline="central">female</text><g><path fill="none" stroke="red" paint-order="fill stroke markers" d=" M 133 529 L 153 529" stroke-linejoin="bevel" stroke-miterlimit="10"/></g></g></g></g><g/><g/><g><g fill="#444444"><path fill="none" stroke="black" paint-order="fill stroke markers" d=" M 113 570 L 570 570" stroke-linejoin="bevel" stroke-miterlimit="10"/><path fill="none" stroke="black" paint-order="fill stroke markers" d=" M 134 576 L 134 568" stroke-linejoin="bevel" stroke-miterlimit="10"/><path fill="none" stroke="black" paint-order="fill stroke markers" d=" M 361 576 L 361 568" stroke-linejoin="bevel" stroke-miterlimit="10"/><path fill="none" stroke="black" paint-order="fill stroke markers" d=" M 123 574 L 123 570" stroke-linejoin="bevel" stroke-miterlimit="10"/><path fill="none" stroke="black" paint-order="fill stroke markers" d=" M 134 574 L 134 570" stroke-linejoin="bevel" stroke-miterlimit="10"/><path fill="none" stroke="black" paint-order="fill stroke markers" d=" M 134 574 L 134 570" stroke-linejoin="bevel" stroke-miterlimit="10"/><path fill="none" stroke="black" paint-order="fill stroke markers" d=" M 202 574 L 202 570" stroke-linejoin="bevel" stroke-miterlimit="10"/><path fill="none" stroke="black" paint-order="fill stroke markers" d=" M 242 574 L 242 570" stroke-linejoin="bevel" stroke-miterlimit="10"/><path fill="none" stroke="black" paint-order="fill stroke markers" d=" M 271 574 L 271 570" stroke-linejoin="bevel" stroke-miterlimit="10"/><path fill="none" stroke="black" paint-order="fill stroke markers" d=" M 293 574 L 293 570" stroke-linejoin="bevel" stroke-miterlimit="10"/><path fill="none" stroke="black" paint-order="fill stroke markers" d=" M 311 574 L 311 570" stroke-linejoin="bevel" stroke-miterlimit="10"/><path fill="none" stroke="black" paint-order="fill stroke markers" d=" M 326 574 L 326 570" stroke-linejoin="bevel" stroke-miterlimit="10"/><path fill="none" stroke="black" paint-order="fill stroke markers" d=" M 339 574 L 339 570" stroke-linejoin="bevel" stroke-miterlimit="10"/><path fill="none" stroke="black" paint-order="fill stroke markers" d=" M 351 574 L 351 570" stroke-linejoin="bevel" stroke-miterlimit="10"/><path fill="none" stroke="black" paint-order="fill stroke markers" d=" M 361 574 L 361 570" stroke-linejoin="bevel" stroke-miterlimit="10"/><path fill="none" stroke="black" paint-order="fill stroke markers" d=" M 361 574 L 361 570" stroke-linejoin="bevel" stroke-miterlimit="10"/><path fill="none" stroke="black" paint-order="fill stroke markers" d=" M 430 574 L 430 570" stroke-linejoin="bevel" stroke-miterlimit="10"/><path fill="none" stroke="black" paint-order="fill stroke markers" d=" M 470 574 L 470 570" stroke-linejoin="bevel" stroke-miterlimit="10"/><path fill="none" stroke="black" paint-order="fill stroke markers" d=" M 498 574 L 498 570" stroke-linejoin="bevel" stroke-miterlimit="10"/><path fill="none" stroke="black" paint-order="fill stroke markers" d=" M 520 574 L 520 570" stroke-linejoin="bevel" stroke-miterlimit="10"/><path fill="none" stroke="black" paint-order="fill stroke markers" d=" M 538 574 L 538 570" stroke-linejoin="bevel" stroke-miterlimit="10"/><path fill="none" stroke="black" paint-order="fill stroke markers" d=" M 554 574 L 554 570" stroke-linejoin="bevel" stroke-miterlimit="10"/><path fill="" stroke="black" paint-order="fill stroke markers" d=" M 567 574 L 567 570" stroke-linejoin="bevel" stroke-miterlimit="10"/><g transform="translate(134,581) rotate(0,0,0)"><text fill="" stroke="none" font-family="helvetica" font-size="26px" font-style="normal" font-weight="normal" text-decoration="normal" x="0" y="0" text-anchor="middle" dominant-baseline="hanging">10^0</text><g transform="rotate(0,0,0) translate(-134,-581) translate(361,581) rotate(0,0,0)"><text fill="" stroke="none" font-family="helvetica" font-size="26px" font-style="normal" font-weight="normal" text-decoration="normal" x="0" y="0" text-anchor="middle" dominant-baseline="hanging">10^1</text><g transform="rotate(0,0,0) translate(-361,-581)"/></g></g></g></g><g><g fill="#444444"><path fill="none" stroke="black" paint-order="fill stroke markers" d=" M 113 570 L 113 5" stroke-linejoin="bevel" stroke-miterlimit="10"/><path fill="none" stroke="black" paint-order="fill stroke markers" d=" M 107 537 L 115 537" stroke-linejoin="bevel" stroke-miterlimit="10"/><path fill="none" stroke="black" paint-order="fill stroke markers" d=" M 107 367 L 115 367" stroke-linejoin="bevel" stroke-miterlimit="10"/><path fill="none" stroke="black" paint-order="fill stroke markers" d=" M 107 198 L 115 198" stroke-linejoin="bevel" stroke-miterlimit="10"/><path fill="none" stroke="black" paint-order="fill stroke markers" d=" M 107 29 L 115 29" stroke-linejoin="bevel" stroke-miterlimit="10"/><path fill="none" stroke="black" paint-order="fill stroke markers" d=" M 109 563 L 113 563" stroke-linejoin="bevel" stroke-miterlimit="10"/><path fill="none" stroke="black" paint-order="fill stroke markers" d=" M 109 553 L 113 553" stroke-linejoin="bevel" stroke-miterlimit="10"/><path fill="none" stroke="black" paint-order="fill stroke markers" d=" M 109 545 L 113 545" stroke-linejoin="bevel" stroke-miterlimit="10"/><path fill="none" stroke="black" paint-order="fill stroke markers" d=" M 109 537 L 113 537" stroke-linejoin="bevel" stroke-miterlimit="10"/><path fill="none" stroke="black" paint-order="fill stroke markers" d=" M 109 537 L 113 537" stroke-linejoin="bevel" stroke-miterlimit="10"/><path fill="none" stroke="black" paint-order="fill stroke markers" d=" M 109 486 L 113 486" stroke-linejoin="bevel" stroke-miterlimit="10"/><path fill="none" stroke="black" paint-order="fill stroke markers" d=" M 109 456 L 113 456" stroke-linejoin="bevel" stroke-miterlimit="10"/><path fill="none" stroke="black" paint-order="fill stroke markers" d=" M 109 435 L 113 435" stroke-linejoin="bevel" stroke-miterlimit="10"/><path fill="none" stroke="black" paint-order="fill stroke markers" d=" M 109 419 L 113 419" stroke-linejoin="bevel" stroke-miterlimit="10"/><path fill="none" stroke="black" paint-order="fill stroke markers" d=" M 109 405 L 113 405" stroke-linejoin="bevel" stroke-miterlimit="10"/><path fill="none" stroke="black" paint-order="fill stroke markers" d=" M 109 394 L 113 394" stroke-linejoin="bevel" stroke-miterlimit="10"/><path fill="none" stroke="black" paint-order="fill stroke markers" d=" M 109 384 L 113 384" stroke-linejoin="bevel" stroke-miterlimit="10"/><path fill="none" stroke="black" paint-order="fill stroke markers" d=" M 109 375 L 113 375" stroke-linejoin="bevel" stroke-miterlimit="10"/><path fill="none" stroke="black" paint-order="fill stroke markers" d=" M 109 367 L 113 367" stroke-linejoin="bevel" stroke-miterlimit="10"/><path fill="none" stroke="black" paint-order="fill stroke markers" d=" M 109 367 L 113 367" stroke-linejoin="bevel" stroke-miterlimit="10"/><path fill="none" stroke="black" paint-order="fill stroke markers" d=" M 109 316 L 113 316" stroke-linejoin="bevel" stroke-miterlimit="10"/><path fill="none" stroke="black" paint-order="fill stroke markers" d=" M 109 287 L 113 287" stroke-linejoin="bevel" stroke-miterlimit="10"/><path fill="none" stroke="black" paint-order="fill stroke markers" d=" M 109 265 L 113 265" stroke-linejoin="bevel" stroke-miterlimit="10"/><path fill="none" stroke="black" paint-order="fill stroke markers" d=" M 109 249 L 113 249" stroke-linejoin="bevel" stroke-miterlimit="10"/><path fill="none" stroke="black" paint-order="fill stroke markers" d=" M 109 236 L 113 236" stroke-linejoin="bevel" stroke-miterlimit="10"/><path fill="none" stroke="black" paint-order="fill stroke markers" d=" M 109 224 L 113 224" stroke-linejoin="bevel" stroke-miterlimit="10"/><path fill="none" stroke="black" paint-order="fill stroke markers" d=" M 109 214 L 113 214" stroke-linejoin="bevel" stroke-miterlimit="10"/><path fill="none" stroke="black" paint-order="fill stroke markers" d=" M 109 206 L 113 206" stroke-linejoin="bevel" stroke-miterlimit="10"/><path fill="none" stroke="black" paint-order="fill stroke markers" d=" M 109 198 L 113 198" stroke-linejoin="bevel" stroke-miterlimit="10"/><path fill="none" stroke="black" paint-order="fill stroke markers" d=" M 109 198 L 113 198" stroke-linejoin="bevel" stroke-miterlimit="10"/><path fill="none" stroke="black" paint-order="fill stroke markers" d=" M 109 147 L 113 147" stroke-linejoin="bevel" stroke-miterlimit="10"/><path fill="none" stroke="black" paint-order="fill stroke markers" d=" M 109 117 L 113 117" stroke-linejoin="bevel" stroke-miterlimit="10"/><path fill="none" stroke="black" paint-order="fill stroke markers" d=" M 109 96 L 113 96" stroke-linejoin="bevel" stroke-miterlimit="10"/><path fill="none" stroke="black" paint-order="fill stroke markers" d=" M 109 80 L 113 80" stroke-linejoin="bevel" stroke-miterlimit="10"/><path fill="none" stroke="black" paint-order="fill stroke markers" d=" M 109 66 L 113 66" stroke-linejoin="bevel" stroke-miterlimit="10"/><path fill="none" stroke="black" paint-order="fill stroke markers" d=" M 109 55 L 113 55" stroke-linejoin="bevel" stroke-miterlimit="10"/><path fill="none" stroke="black" paint-order="fill stroke markers" d=" M 109 45 L 113 45" stroke-linejoin="bevel" stroke-miterlimit="10"/><path fill="none" stroke="black" paint-order="fill stroke markers" d=" M 109 36 L 113 36" stroke-linejoin="bevel" stroke-miterlimit="10"/><path fill="none" stroke="black" paint-order="fill stroke markers" d=" M 109 29 L 113 29" stroke-linejoin="bevel" stroke-miterlimit="10"/><path fill="" stroke="black" paint-order="fill stroke markers" d=" M 109 29 L 113 29" stroke-linejoin="bevel" stroke-miterlimit="10"/><g transform="translate(102,537) rotate(0,0,0)"><text fill="" stroke="none" font-family="helvetica" font-size="26px" font-style="normal" font-weight="normal" text-decoration="normal" x="0" y="0" text-anchor="end" dominant-baseline="central">10^-3</text><g transform="rotate(0,0,0) translate(-102,-537) translate(102,367) rotate(0,0,0)"><text fill="" stroke="none" font-family="helvetica" font-size="26px" font-style="normal" font-weight="normal" text-decoration="normal" x="0" y="0" text-anchor="end" dominant-baseline="central">10^-2</text><g transform="rotate(0,0,0) translate(-102,-367) translate(102,198) rotate(0,0,0)"><text fill="" stroke="none" font-family="helvetica" font-size="26px" font-style="normal" font-weight="normal" text-decoration="normal" x="0" y="0" text-anchor="end" dominant-baseline="central">10^-1</text><g transform="rotate(0,0,0) translate(-102,-198) translate(102,29) rotate(0,0,0)"><text fill="" stroke="none" font-family="helvetica" font-size="26px" font-style="normal" font-weight="normal" text-decoration="normal" x="0" y="0" text-anchor="end" dominant-baseline="central">10^0</text><g transform="rotate(0,0,0) translate(-102,-29) translate(26,288) rotate(-90,0,0)"><text fill="" stroke="none" font-family="helvetica" font-size="26pt" font-style="italic" font-weight="normal" text-decoration="normal" x="0" y="0" text-anchor="middle" dominant-baseline="alphabetic">CCDF</text><g transform="rotate(90,0,0) translate(-26,-288)"/></g></g></g></g></g></g></g><g clip-path="url(#WdPHyThmFOCr)"><g/></g><g clip-path="url(#nkwxTTqzxkoH)"><g/></g></g></g></svg>