<svg version="1.1" xmlns="http://www.w3.org/2000/svg" xmlns:xlink="http://www.w3.org/1999/xlink" width="600" height="600" style="width: 600px; height: 600px;"><defs><clipPath id="oFxpwdrZPgTs"><path fill="none" stroke="none" d=" M 113 5 L 570 5 L 570 570 L 113 570 L 113 5 Z"/></clipPath><clipPath id="AHQlguatpVCM"><path fill="none" stroke="none" d=" M 113 5 L 570 5 L 570 570 L 113 570 L 113 5 Z"/></clipPath><clipPath id="qqRdZREuFucN"><path fill="none" stroke="none" d=" M 113 5 L 570 5 L 570 570 L 113 570 L 113 5 Z"/></clipPath><clipPath id="hggbfNnbyCxL"><path fill="none" stroke="none" d=" M 113 5 L 570 5 L 570 570 L 113 570 L 113 5 Z"/></clipPath><clipPath id="yRyHvhbZAGzD"><path fill="none" stroke="none" d=" M 113 5 L 570 5 L 570 570 L 113 570 L 113 5 Z"/></clipPath><clipPath id="EQqIlDeuSfKH"><path fill="none" stroke="none" d=" M 113 5 L 570 5 L 570 570 L 113 570 L 113 5 Z"/></clipPath><clipPath id="DCwdXObAOPxO"><path fill="none" stroke="none" d=" M 113 5 L 570 5 L 570 570 L 113 570 L 113 5 Z"/></clipPath><clipPath id="xSyLLfOETkWo"><path fill="none" stroke="none" d=" M 113 5 L 570 5 L 570 570 L 113 570 L 113 5 Z"/></clipPath></defs><g><g transform="scale(1,1) translate(0.5,0.5)"><rect fill="#FFFFFF" stroke="none" x="0" y="0" width="600" height="600"/><rect fill="#ffffff" stroke="none" x="0" y="0" width="600" height="600"/><rect fill="#FFFFFF" stroke="none" x="113" y="5" width="457" height="565"/><rect fill="#ffffff" stroke="none" x="113" y="5" width="457" height="565"/><g><rect fill="none" stroke="#e5e5e5" x="113" y="5" width="457" height="565" stroke-linejoin="bevel" stroke-miterlimit="10"/></g><g clip-path="url(#oFxpwdrZPgTs)"><g><g><path fill="none" stroke="#e5e5e5" paint-order="fill stroke markers" d=" M 369 570 L 369 5" stroke-linejoin="bevel" stroke-miterlimit="10"/><path fill="none" stroke="#e5e5e5" paint-order="fill stroke markers" d=" M 440 570 L 440 5" stroke-linejoin="bevel" stroke-miterlimit="10"/><path fill="none" stroke="#e5e5e5" paint-order="fill stroke markers" d=" M 482 570 L 482 5" stroke-linejoin="bevel" stroke-miterlimit="10"/><path fill="none" stroke="#e5e5e5" paint-order="fill stroke markers" d=" M 511 570 L 511 5" stroke-linejoin="bevel" stroke-miterlimit="10"/><path fill="none" stroke="#e5e5e5" paint-order="fill stroke markers" d=" M 534 570 L 534 5" stroke-linejoin="bevel" stroke-miterlimit="10"/><path fill="none" stroke="#e5e5e5" paint-order="fill stroke markers" d=" M 553 570 L 553 5" stroke-linejoin="bevel" stroke-miterlimit="10"/><path fill="none" stroke="#e5e5e5" paint-order="fill stroke markers" d=" M 568 570 L 568 5" stroke-linejoin="bevel" stroke-miterlimit="10"/></g></g></g><g clip-path="url(#AHQlguatpVCM)"><g><g><path fill="none" stroke="#e5e5e5" paint-order="fill stroke markers" d=" M 113 537 L 570 537" stroke-linejoin="bevel" stroke-miterlimit="10"/><path fill="none" stroke="#e5e5e5" paint-order="fill stroke markers" d=" M 113 363 L 570 363" stroke-linejoin="bevel" stroke-miterlimit="10"/><path fill="none" stroke="#e5e5e5" paint-order="fill stroke markers" d=" M 113 190 L 570 190" stroke-linejoin="bevel" stroke-miterlimit="10"/><path fill="none" stroke="#e5e5e5" paint-order="fill stroke markers" d=" M 113 16 L 570 16" stroke-linejoin="bevel" stroke-miterlimit="10"/></g></g></g><g clip-path="url(#qqRdZREuFucN)"><g><g fill="#444444"><path fill="" stroke="none" d=""/><g transform="translate(138.77272727272728,358.2092565328362) rotate(0,0,0)"><path fill="none" stroke="none"/><text fill="" stroke="none" font-family="helvetica" font-size="20pt" font-style="normal" font-weight="normal" text-decoration="normal" x="0" y="0" text-anchor="start" dominant-baseline="text-after-edge">Female mean: 9.04(±7.76)</text></g></g><g fill="#444444"><path fill="" stroke="none" d=""/><g transform="translate(138.77272727272728,322.7776988976567) rotate(0,0,0)"><path fill="none" stroke="none"/><text fill="" stroke="none" font-family="helvetica" font-size="20pt" font-style="normal" font-weight="normal" text-decoration="normal" x="0" y="0" text-anchor="start" dominant-baseline="text-after-edge">Male mean: 6.73(±6.84)</text></g></g></g></g><g clip-path="url(#hggbfNnbyCxL)"><g><g><path fill="none" stroke="none"/><path fill="none" stroke="blue" paint-order="fill stroke markers" d=" M 133.77272727272728 42.302576739718575 L 133.77272727272728 51.02484440089654 L 204.69384255120013 60.53353168192518 L 246.180035498429 67.61195484200744 L 275.61495782967296 80.34761591507458 L 298.44645735855875 88.6508679074766 L 317.1011507769018 98.27594337570571 L 332.8734693275627 106.31646073288289 L 346.53607310814573 114.58619157629232 L 358.58734372413073 122.24614694216262 L 369.36757263703157 128.11243847922594 L 379.11947589609696 134.00140278949044 L 388.02226605537464 139.37093920054144 L 396.2120391040512 145.70072905718877 L 403.7945846060356 155.06290913644636 L 410.85376558426043 160.8895969369919 L 417.4571883866186 167.94012529167634 L 423.6601506335167 173.29974187762883 L 429.5084590026035 178.21794498690917 L 435.04048414825627 185.31831513562577 L 440.2886879155044 194.19747299022106 L 445.28077755326444 201.90783672355133 L 450.0405911745698 214.50132762581086 L 454.5887862275608 218.72967193362445 L 458.9433813338475 226.3508745557598 L 463.1201874443901 238.5081884799958 L 467.1331543825241 244.3853746930991 L 470.9946519498324 253.01028033121275 L 474.7156998845084 268.13798333080246 L 478.30615744880004 280.22552796664564 L 481.77488086273326 290.76158132524847 L 485.1298549138596 307.58341653532153 L 488.37830366509144 335.82994852638956 L 491.52678412179864 343.01497417050143 L 494.58126591198953 350.9576515259794 L 500.4295742810763 359.83680938057455 L 503.23296995432634 369.90316831800294 L 505.9615994267291 381.5239268759033 L 508.6193473297529 395.2683670157541 L 525.5099015060337 412.0902022258273 L 529.8644966123203 433.77731972115595 L 531.9742113823982 464.3435950710799" stroke-linejoin="bevel" stroke-miterlimit="10"/><path fill="none" stroke="none"/><path fill="none" stroke="blue" paint-order="fill stroke markers" d=" M 549.2272727272727 NaN" stroke-linejoin="bevel" stroke-miterlimit="10"/></g></g></g><g clip-path="url(#yRyHvhbZAGzD)"><g><g><path fill="none" stroke="none"/><path fill="none" stroke="red" paint-order="fill stroke markers" d=" M 133.77272727272728 30.68181818181813 L 133.77272727272728 37.25629626252635 L 204.69384255120013 42.88470867277829 L 246.180035498429 50.46033472818965 L 275.61495782967296 57.925885739508885 L 298.44645735855875 64.37728229052021 L 317.1011507769018 70.16350323157923 L 332.8734693275627 79.6923148788996 L 346.53607310814573 87.54687333395543 L 358.58734372413073 95.72476370623622 L 369.36757263703157 102.28417820197524 L 379.11947589609696 107.37824885927932 L 388.02226605537464 114.33448613134266 L 396.2120391040512 123.68628321895397 L 403.7945846060356 131.47108468274598 L 410.85376558426043 139.80026617920817 L 417.4571883866186 144.15064871792708 L 423.6601506335167 150.3715547386056 L 429.5084590026035 157.59712123377648 L 435.04048414825627 165.09504384360167 L 440.2886879155044 170.190612136036 L 445.28077755326444 182.16364101124748 L 450.0405911745698 190.6575874465317 L 454.5887862275608 197.91180603788524 L 458.9433813338475 205.93913888875846 L 463.1201874443901 213.03950903747506 L 467.1331543825241 220.87884749983124 L 470.9946519498324 225.1270536733183 L 474.7156998845084 231.9850258294985 L 478.30615744880004 239.52988848487985 L 481.77488086273326 245.01490411953245 L 485.1298549138596 252.4849422419943 L 488.37830366509144 257.3502245272499 L 491.52678412179864 270.0961638348039 L 494.58126591198953 287.91649987717375 L 497.54719941339414 298.7042586807263 L 500.4295742810763 314.8046940246751 L 503.23296995432634 326.4254525825754 L 508.6193473297529 340.16989272242677 L 511.2098031939772 350.9576515259794 L 513.7362906026597 363.55114242823885 L 516.2018928317373 370.7361680723508 L 518.6094754724688 387.5580032824239 L 523.2610738099621 397.6243622198522 L 529.8644966123203 422.9895609176034 L 531.9742113823982 439.8113961276765 L 538.0542696609969 492.0647889729292 L 545.6368151629813 544.3181818181819" stroke-linejoin="bevel" stroke-miterlimit="10"/><path fill="none" stroke="none"/></g></g></g><g clip-path="url(#EQqIlDeuSfKH)"><g><g/><g><path fill="#ffffff" stroke="#e5e5e5" paint-order="fill stroke markers" d=" M 123 475 L 255 475 L 255 560 L 123 560 L 123 475 Z" fill-opacity="0.95" stroke-linejoin="bevel" stroke-miterlimit="10" stroke-opacity="0.5"/><text fill="#444444" stroke="none" font-family="helvetica" font-size="22pt" font-style="normal" font-weight="normal" text-decoration="normal" x="158" y="500.5" text-anchor="start" dominant-baseline="central">male</text><g><path fill="none" stroke="blue" paint-order="fill stroke markers" d=" M 133 495 L 153 495" stroke-linejoin="bevel" stroke-miterlimit="10"/></g><text fill="#444444" stroke="none" font-family="helvetica" font-size="22pt" font-style="normal" font-weight="normal" text-decoration="normal" x="158" y="534.5" text-anchor="start" dominant-baseline="central">female</text><g><path fill="none" stroke="red" paint-order="fill stroke markers" d=" M 133 529 L 153 529" stroke-linejoin="bevel" stroke-miterlimit="10"/></g></g></g></g><g/><g/><g><g fill="#444444"><path fill="none" stroke="black" paint-order="fill stroke markers" d=" M 113 570 L 570 570" stroke-linejoin="bevel" stroke-miterlimit="10"/><path fill="none" stroke="black" paint-order="fill stroke markers" d=" M 369 576 L 369 568" stroke-linejoin="bevel" stroke-miterlimit="10"/><path fill="none" stroke="black" paint-order="fill stroke markers" d=" M 440 576 L 440 568" stroke-linejoin="bevel" stroke-miterlimit="10"/><path fill="none" stroke="black" paint-order="fill stroke markers" d=" M 482 576 L 482 568" stroke-linejoin="bevel" stroke-miterlimit="10"/><path fill="none" stroke="black" paint-order="fill stroke markers" d=" M 534 576 L 534 568" stroke-linejoin="bevel" stroke-miterlimit="10"/><path fill="" stroke="black" paint-order="fill stroke markers" d=" M 568 576 L 568 568" stroke-linejoin="bevel" stroke-miterlimit="10"/><g transform="translate(369,581) rotate(0,0,0)"><text fill="" stroke="none" font-family="helvetica" font-size="26px" font-style="normal" font-weight="normal" text-decoration="normal" x="0" y="0" text-anchor="middle" dominant-baseline="hanging">10</text><g transform="rotate(0,0,0) translate(-369,-581) translate(440,581) rotate(0,0,0)"><text fill="" stroke="none" font-family="helvetica" font-size="26px" font-style="normal" font-weight="normal" text-decoration="normal" x="0" y="0" text-anchor="middle" dominant-baseline="hanging">20</text><g transform="rotate(0,0,0) translate(-440,-581) translate(482,581) rotate(0,0,0)"><text fill="" stroke="none" font-family="helvetica" font-size="26px" font-style="normal" font-weight="normal" text-decoration="normal" x="0" y="0" text-anchor="middle" dominant-baseline="hanging">30</text><g transform="rotate(0,0,0) translate(-482,-581) translate(534,581) rotate(0,0,0)"><text fill="" stroke="none" font-family="helvetica" font-size="26px" font-style="normal" font-weight="normal" text-decoration="normal" x="0" y="0" text-anchor="middle" dominant-baseline="hanging">50</text><g transform="rotate(0,0,0) translate(-534,-581) translate(568,581) rotate(0,0,0)"><text fill="" stroke="none" font-family="helvetica" font-size="26px" font-style="normal" font-weight="normal" text-decoration="normal" x="0" y="0" text-anchor="middle" dominant-baseline="hanging">70</text><g transform="rotate(0,0,0) translate(-568,-581)"/></g></g></g></g></g></g></g><g><g fill="#444444"><path fill="none" stroke="black" paint-order="fill stroke markers" d=" M 113 570 L 113 5" stroke-linejoin="bevel" stroke-miterlimit="10"/><path fill="none" stroke="black" paint-order="fill stroke markers" d=" M 107 537 L 115 537" stroke-linejoin="bevel" stroke-miterlimit="10"/><path fill="none" stroke="black" paint-order="fill stroke markers" d=" M 107 363 L 115 363" stroke-linejoin="bevel" stroke-miterlimit="10"/><path fill="none" stroke="black" paint-order="fill stroke markers" d=" M 107 190 L 115 190" stroke-linejoin="bevel" stroke-miterlimit="10"/><path fill="none" stroke="black" paint-order="fill stroke markers" d=" M 107 16 L 115 16" stroke-linejoin="bevel" stroke-miterlimit="10"/><path fill="none" stroke="black" paint-order="fill stroke markers" d=" M 109 564 L 113 564" stroke-linejoin="bevel" stroke-miterlimit="10"/><path fill="none" stroke="black" paint-order="fill stroke markers" d=" M 109 554 L 113 554" stroke-linejoin="bevel" stroke-miterlimit="10"/><path fill="none" stroke="black" paint-order="fill stroke markers" d=" M 109 545 L 113 545" stroke-linejoin="bevel" stroke-miterlimit="10"/><path fill="none" stroke="black" paint-order="fill stroke markers" d=" M 109 537 L 113 537" stroke-linejoin="bevel" stroke-miterlimit="10"/><path fill="none" stroke="black" paint-order="fill stroke markers" d=" M 109 537 L 113 537" stroke-linejoin="bevel" stroke-miterlimit="10"/><path fill="none" stroke="black" paint-order="fill stroke markers" d=" M 109 485 L 113 485" stroke-linejoin="bevel" stroke-miterlimit="10"/><path fill="none" stroke="black" paint-order="fill stroke markers" d=" M 109 454 L 113 454" stroke-linejoin="bevel" stroke-miterlimit="10"/><path fill="none" stroke="black" paint-order="fill stroke markers" d=" M 109 432 L 113 432" stroke-linejoin="bevel" stroke-miterlimit="10"/><path fill="none" stroke="black" paint-order="fill stroke markers" d=" M 109 415 L 113 415" stroke-linejoin="bevel" stroke-miterlimit="10"/><path fill="none" stroke="black" paint-order="fill stroke markers" d=" M 109 402 L 113 402" stroke-linejoin="bevel" stroke-miterlimit="10"/><path fill="none" stroke="black" paint-order="fill stroke markers" d=" M 109 390 L 113 390" stroke-linejoin="bevel" stroke-miterlimit="10"/><path fill="none" stroke="black" paint-order="fill stroke markers" d=" M 109 380 L 113 380" stroke-linejoin="bevel" stroke-miterlimit="10"/><path fill="none" stroke="black" paint-order="fill stroke markers" d=" M 109 371 L 113 371" stroke-linejoin="bevel" stroke-miterlimit="10"/><path fill="none" stroke="black" paint-order="fill stroke markers" d=" M 109 363 L 113 363" stroke-linejoin="bevel" stroke-miterlimit="10"/><path fill="none" stroke="black" paint-order="fill stroke markers" d=" M 109 363 L 113 363" stroke-linejoin="bevel" stroke-miterlimit="10"/><path fill="none" stroke="black" paint-order="fill stroke markers" d=" M 109 311 L 113 311" stroke-linejoin="bevel" stroke-miterlimit="10"/><path fill="none" stroke="black" paint-order="fill stroke markers" d=" M 109 280 L 113 280" stroke-linejoin="bevel" stroke-miterlimit="10"/><path fill="none" stroke="black" paint-order="fill stroke markers" d=" M 109 259 L 113 259" stroke-linejoin="bevel" stroke-miterlimit="10"/><path fill="none" stroke="black" paint-order="fill stroke markers" d=" M 109 242 L 113 242" stroke-linejoin="bevel" stroke-miterlimit="10"/><path fill="none" stroke="black" paint-order="fill stroke markers" d=" M 109 228 L 113 228" stroke-linejoin="bevel" stroke-miterlimit="10"/><path fill="none" stroke="black" paint-order="fill stroke markers" d=" M 109 217 L 113 217" stroke-linejoin="bevel" stroke-miterlimit="10"/><path fill="none" stroke="black" paint-order="fill stroke markers" d=" M 109 206 L 113 206" stroke-linejoin="bevel" stroke-miterlimit="10"/><path fill="none" stroke="black" paint-order="fill stroke markers" d=" M 109 198 L 113 198" stroke-linejoin="bevel" stroke-miterlimit="10"/><path fill="none" stroke="black" paint-order="fill stroke markers" d=" M 109 190 L 113 190" stroke-linejoin="bevel" stroke-miterlimit="10"/><path fill="none" stroke="black" paint-order="fill stroke markers" d=" M 109 190 L 113 190" stroke-linejoin="bevel" stroke-miterlimit="10"/><path fill="none" stroke="black" paint-order="fill stroke markers" d=" M 109 137 L 113 137" stroke-linejoin="bevel" stroke-miterlimit="10"/><path fill="none" stroke="black" paint-order="fill stroke markers" d=" M 109 107 L 113 107" stroke-linejoin="bevel" stroke-miterlimit="10"/><path fill="none" stroke="black" paint-order="fill stroke markers" d=" M 109 85 L 113 85" stroke-linejoin="bevel" stroke-miterlimit="10"/><path fill="none" stroke="black" paint-order="fill stroke markers" d=" M 109 68 L 113 68" stroke-linejoin="bevel" stroke-miterlimit="10"/><path fill="none" stroke="black" paint-order="fill stroke markers" d=" M 109 55 L 113 55" stroke-linejoin="bevel" stroke-miterlimit="10"/><path fill="none" stroke="black" paint-order="fill stroke markers" d=" M 109 43 L 113 43" stroke-linejoin="bevel" stroke-miterlimit="10"/><path fill="none" stroke="black" paint-order="fill stroke markers" d=" M 109 33 L 113 33" stroke-linejoin="bevel" stroke-miterlimit="10"/><path fill="none" stroke="black" paint-order="fill stroke markers" d=" M 109 24 L 113 24" stroke-linejoin="bevel" stroke-miterlimit="10"/><path fill="none" stroke="black" paint-order="fill stroke markers" d=" M 109 16 L 113 16" stroke-linejoin="bevel" stroke-miterlimit="10"/><path fill="" stroke="black" paint-order="fill stroke markers" d=" M 109 16 L 113 16" stroke-linejoin="bevel" stroke-miterlimit="10"/><g transform="translate(102,537) rotate(0,0,0)"><text fill="" stroke="none" font-family="helvetica" font-size="26px" font-style="normal" font-weight="normal" text-decoration="normal" x="0" y="0" text-anchor="end" dominant-baseline="central">10^-3</text><g transform="rotate(0,0,0) translate(-102,-537) translate(102,363) rotate(0,0,0)"><text fill="" stroke="none" font-family="helvetica" font-size="26px" font-style="normal" font-weight="normal" text-decoration="normal" x="0" y="0" text-anchor="end" dominant-baseline="central">10^-2</text><g transform="rotate(0,0,0) translate(-102,-363) translate(102,190) rotate(0,0,0)"><text fill="" stroke="none" font-family="helvetica" font-size="26px" font-style="normal" font-weight="normal" text-decoration="normal" x="0" y="0" text-anchor="end" dominant-baseline="central">10^-1</text><g transform="rotate(0,0,0) translate(-102,-190) translate(102,16) rotate(0,0,0)"><text fill="" stroke="none" font-family="helvetica" font-size="26px" font-style="normal" font-weight="normal" text-decoration="normal" x="0" y="0" text-anchor="end" dominant-baseline="central">10^0</text><g transform="rotate(0,0,0) translate(-102,-16) translate(26,288) rotate(-90,0,0)"><text fill="" stroke="none" font-family="helvetica" font-size="26pt" font-style="italic" font-weight="normal" text-decoration="normal" x="0" y="0" text-anchor="middle" dominant-baseline="alphabetic">CCDF</text><g transform="rotate(90,0,0) translate(-26,-288)"/></g></g></g></g></g></g></g><g clip-path="url(#DCwdXObAOPxO)"><g/></g><g clip-path="url(#xSyLLfOETkWo)"><g/></g></g></g></svg>