<svg version="1.1" xmlns="http://www.w3.org/2000/svg" xmlns:xlink="http://www.w3.org/1999/xlink" width="600" height="600" style="width: 600px; height: 600px;"><defs><clipPath id="EFksJxMewUsw"><path fill="none" stroke="none" d=" M 113 5 L 570 5 L 570 570 L 113 570 L 113 5 Z"/></clipPath><clipPath id="OzIBvLPlVHJK"><path fill="none" stroke="none" d=" M 113 5 L 570 5 L 570 570 L 113 570 L 113 5 Z"/></clipPath><clipPath id="VogdMotLzQmM"><path fill="none" stroke="none" d=" M 113 5 L 570 5 L 570 570 L 113 570 L 113 5 Z"/></clipPath><clipPath id="FdMMJEdwwsVG"><path fill="none" stroke="none" d=" M 113 5 L 570 5 L 570 570 L 113 570 L 113 5 Z"/></clipPath><clipPath id="ZfGqGUpTtumB"><path fill="none" stroke="none" d=" M 113 5 L 570 5 L 570 570 L 113 570 L 113 5 Z"/></clipPath><clipPath id="zQAEikeEqWpQ"><path fill="none" stroke="none" d=" M 113 5 L 570 5 L 570 570 L 113 570 L 113 5 Z"/></clipPath><clipPath id="pEHBPvrBEZZU"><path fill="none" stroke="none" d=" M 113 5 L 570 5 L 570 570 L 113 570 L 113 5 Z"/></clipPath></defs><g><g transform="scale(1,1) translate(0.5,0.5)"><rect fill="#FFFFFF" stroke="none" x="0" y="0" width="600" height="600"/><rect fill="#ffffff" stroke="none" x="0" y="0" width="600" height="600"/><rect fill="#FFFFFF" stroke="none" x="113" y="5" width="457" height="565"/><rect fill="#ffffff" stroke="none" x="113" y="5" width="457" height="565"/><g><rect fill="none" stroke="#e5e5e5" x="113" y="5" width="457" height="565" stroke-linejoin="bevel" stroke-miterlimit="10"/></g><g clip-path="url(#EFksJxMewUsw)"><g><g><path fill="none" stroke="#e5e5e5" paint-order="fill stroke markers" d=" M 436 570 L 436 5" stroke-linejoin="bevel" stroke-miterlimit="10"/><path fill="none" stroke="#e5e5e5" paint-order="fill stroke markers" d=" M 524 570 L 524 5" stroke-linejoin="bevel" stroke-miterlimit="10"/></g></g></g><g clip-path="url(#OzIBvLPlVHJK)"><g><g><path fill="none" stroke="#e5e5e5" paint-order="fill stroke markers" d=" M 113 537 L 570 537" stroke-linejoin="bevel" stroke-miterlimit="10"/><path fill="none" stroke="#e5e5e5" paint-order="fill stroke markers" d=" M 113 368 L 570 368" stroke-linejoin="bevel" stroke-miterlimit="10"/><path fill="none" stroke="#e5e5e5" paint-order="fill stroke markers" d=" M 113 199 L 570 199" stroke-linejoin="bevel" stroke-miterlimit="10"/><path fill="none" stroke="#e5e5e5" paint-order="fill stroke markers" d=" M 113 31 L 570 31" stroke-linejoin="bevel" stroke-miterlimit="10"/></g></g></g><g clip-path="url(#VogdMotLzQmM)"><g><g><path fill="none" stroke="none"/><path fill="none" stroke="blue" paint-order="fill stroke markers" d=" M 133.77272727272725 30.71133560060298 L 287.9654220437725 30.80734937799855 L 290.8566497834762 30.903489075138054 L 301.8299463419361 30.99975502273685 L 311.3631357672469 31.09614755281484 L 314.3939836115825 31.192666998702975 L 315.87466632447536 31.289313695051078 L 323.55983948484675 31.38608797783411 L 326.68029769095324 31.482990184359096 L 330.96380478248625 31.58002065327321 L 335.38565250828987 31.677179724569214 L 342.4878736303384 31.774467739594456 L 343.59252133769974 31.871885041056203 L 345.7314587515308 31.969431973030623 L 348.6251057440303 32.06710888096882 L 351.1469551116644 32.16491611170477 L 351.8391329012172 32.2628540134624 L 352.39604716978704 32.36092293586353 L 356.26258033619075 32.45912322993479 L 357.4657893334288 32.55745524811516 L 358.192191451598 32.655919344264476 L 359.0086567293107 32.75451587366979 L 360.5339142803904 32.85324519305368 L 360.71624111113744 32.95210766058233 L 361.3860638473109 33.051103635872664 L 362.19877209206004 33.15023348000068 L 364.83256198586787 33.24949755550904 L 365.7009516417102 33.34889622641526 L 368.2224423697936 33.44842985821958 L 371.47609401794665 33.548098817913 L 371.7638414509261 33.64790347398548 L 372.400985326518 33.747844196434244 L 372.4829038637625 33.847921356771735 L 372.8078259078605 33.94813532803403 L 375.09880450927096 34.04848648478912 L 375.712517040318 34.14897520314548 L 377.1689763216929 34.24960186076055 L 377.7976606508284 34.35036683684882 L 377.8580908320039 34.451270512190945 L 380.7428416148543 34.552313269141905 L 381.6467802167828 34.65349549164023 L 382.1392517263104 34.75481756521617 L 382.64995992363816 34.85627987700104 L 382.77702362003066 34.957882815735616 L 382.83151755205137 35.05962677177945 L 382.86627814814284 35.161512137119644 L 384.20968224205393 35.26353930538028 L 384.69488252070107 35.3657086718307 L 385.9119231593055 35.46802063339578 L 385.96622413483857 35.570475588664294 L 386.3518577792454 35.673073937898835 L 386.69674312049705 35.77581608304479 L 387.9199819275437 35.878702427739995 L 388.4178392978975 35.98173337732419 L 388.4243897534725 36.08490933884866 L 388.4488532412275 36.188230721085915 L 388.81081263607587 36.291697934539116 L 389.69823524498764 36.395311391452196 L 389.84853097542674 36.49907150581976 L 390.77610767455735 36.60297869339627 L 390.9614585402894 36.70703337170744 L 391.2797688256548 36.811235960058866 L 393.0473043034129 36.915586879546936 L 393.6058524240309 37.02008655306895 L 394.00285766539554 37.12473540533324 L 394.31861323942394 37.229533862869744 L 394.59125436489717 37.33448235404012 L 395.2172907357648 37.43958130904866 L 395.32555167046337 37.54483115995254 L 396.0241255283279 37.65023234067269 L 396.37837482620967 37.75578528700407 L 396.383120701501 37.861490436627264 L 396.5835097385761 37.96734822911901 L 398.0709509780719 38.07335910596248 L 398.3036814111078 38.17952351055965 L 398.4521092775058 38.28584188824141 L 399.3071367311124 38.39231468627895 L 399.8848823814327 38.498942353895586 L 400.3045976081933 38.605725342277424 L 400.3896354290846 38.71266410458509 L 400.5483373657399 38.81975909596565 L 400.9039463729122 38.92701077356344 L 401.0000962040596 39.03441959653264 L 401.5652616425818 39.14198602604847 L 401.60373559145506 39.249710525319074 L 401.8362436093347 39.357593559597944 L 401.93585340051715 39.46563559619574 L 401.9859830755574 39.5738371044921 L 402.3340288649169 39.682198555948275 L 402.39157937204607 39.79072042411951 L 402.47339245470226 39.89940318466722 L 402.5742466089215 40.00824731537148 L 403.54389718245216 40.11725329614387 L 404.0530282981252 40.22642160903979 L 404.89425171398557 40.335752738271935 L 405.24197300542073 40.44524717022216 L 405.2632069229977 40.55490539345567 L 405.5044691126823 40.66472789873285 L 406.2838263923162 40.774715179023474 L 407.2289399310933 40.88486772951944 L 407.24031836346836 40.99518604764819 L 407.28677747171344 41.10567063308656 L 407.52876217289673 41.21632198777377 L 408.08836210106494 41.32714061592549 L 408.355853321097 41.43812702404762 L 409.0816557568317 41.549281720950034 L 409.16033011990874 41.6606052177608 L 409.74928814250944 41.77209802793982 L 410.4561672500973 41.883760667293814 L 410.78135949067433 41.995593653989545 L 410.8032774455223 42.107597508569484 L 410.9027501989809 42.21977275396546 L 410.9044641849666 42.33211991551366 L 411.38907448860107 42.444639520969076 L 411.6309913577223 42.557332100520966 L 412.9870935332038 42.67019818680728 L 413.0676211494512 42.78323831493026 L 413.23756361093507 42.89645302247084 L 413.6807016299646 43.00984284950516 L 413.6839023267551 43.12340833861913 L 413.8042144551462 43.23715003492407 L 413.9326347282181 43.35106848607302 L 414.04194777750087 43.465164242275705 L 414.1095295452543 43.579437856315394 L 414.16634776410586 43.69388988356411 L 414.16964344185055 43.80852088199947 L 414.9492345279457 43.923331412220705 L 415.08836180874965 44.03832203746515 L 415.264358538645 44.15349332362473 L 415.3397613468614 44.268845839262895 L 415.6228778507613 44.384380155631334 L 415.6239935436085 44.500096846686915 L 415.67789693372794 44.61599648910885 L 415.8074100837892 44.73207966231598 L 415.8498544178851 44.848346948483936 L 416.2060590079756 44.9647989325631 L 416.21756347030856 45.08143620229555 L 416.5244957635358 45.198259348233705 L 416.68010600740644 45.31526896375772 L 417.8253940959443 45.432465645093544 L 418.03451190912557 45.5498499913316 L 418.05368446878833 45.66742260444448 L 418.50149638798825 45.78518408930631 L 418.5808742512108 45.90313505371046 L 418.832028677374 46.021276108389316 L 418.9505617020001 46.13960786703251 L 419.14906210698354 46.258130946306665 L 419.18703301191783 46.37684596587383 L 419.46066871211497 46.49575354841204 L 419.52536629185585 46.61485431963388 L 419.5493824448923 46.734148908306906 L 419.6318223209462 46.85363794627324 L 420.1039340636297 46.973322068469884 L 420.10672110374793 47.09320191294853 L 420.1331093953994 47.21327812089646 L 420.15009382994805 47.33355133665714 L 420.50019091656736 47.45402220775031 L 420.6768165681634 47.574691384893526 L 421.18408129504286 47.69555952202336 L 421.2401629963311 47.816627276315785 L 421.31765101393546 47.93789530820857 L 421.33331692437406 48.059364281422745 L 421.8369451692957 48.18103486298355 L 422.02823917782797 48.30290772324361 L 422.05749789307356 48.42498353590429 L 422.06010735536 48.547262978038134 L 422.30752555129277 48.66974673011191 L 422.394818282534 48.79243547600845 L 422.5764645450759 48.91532990305063 L 422.72971485114124 49.03843070202356 L 423.39738137073186 49.16173856719831 L 423.4095814176333 49.28525419635537 L 423.5129062906532 49.408978290808136 L 423.5874804266451 49.53291155542718 L 423.6604706669577 49.657054698663956 L 423.786388891043 49.78140843257552 L 423.8798686762089 49.90597347284847 L 423.9282632973186 50.03075053882412 L 424.0112723070965 50.15574035352347 L 424.1818039280899 50.28094364367166 L 424.19660692954824 50.40636113972448 L 424.3662067019357 50.5319935758929 L 424.5493624217248 50.65784169016911 L 424.60932911704043 50.78390622435279 L 424.6456766589468 50.91018792407738 L 424.7514922721764 51.03668753883619 L 425.43785697452887 51.163405822009395 L 425.5073816961609 51.29034353089082 L 425.6620511291327 51.41750142671481 L 425.79766175808567 51.54488027468449 L 426.04220518905873 51.6724808439983 L 426.3319820417012 51.80030390787863 L 426.41715676648596 51.928350243599766 L 426.4814765620997 52.05662063251589 L 426.5705455979943 52.18511586009038 L 426.63898526447207 52.31383671592391 L 427.3375359893766 52.44278399378413 L 427.4557655227237 52.57195849163486 L 427.89966045996533 52.7013610116652 L 427.9199700191147 52.830992360320465 L 428.01829674406264 52.96085334833185 L 428.5123084796992 53.09094479074611 L 428.6539251581718 53.221267506957474 L 428.8270636045253 53.35182232073805 L 429.51224762298347 53.48261006026871 L 429.55709283736604 53.61363155817128 L 429.80289690260116 53.744887651540125 L 430.1426319371665 53.87637918197379 L 430.3510088347649 54.008106995608046 L 430.7083504823068 54.140071943148314 L 430.72677553663885 54.27227487990217 L 431.7748684924118 54.40471666581345 L 431.93047133980826 54.53739816549523 L 432.1527595478199 54.67032024826358 L 432.39577479574734 54.80348378817246 L 432.5212334431446 54.936889664047385 L 432.9555694157204 55.07053875952056 L 433.0187109115347 55.20443196306633 L 433.28967613291513 55.3385701680362 L 433.34035526735096 55.472954272694324 L 433.4417503705899 55.607585180254546 L 433.618233134235 55.74246379891588 L 433.8781386645214 55.877591041899564 L 433.91240929639747 56.01296782748682 L 434.23542902987407 56.1485950790551 L 434.33479287677073 56.28447372511664 L 434.54244635050645 56.420604699356545 L 435.0064536425461 56.55698894067132 L 435.6490362483832 56.69362739320741 L 435.75241806032744 56.830521006400545 L 435.86770058682583 56.96767073501553 L 435.97685327331175 57.10507753918614 L 436.54776470102183 57.2427423844548 L 436.64305023421707 57.380666241814765 L 436.74292541355754 57.51885008774957 L 436.8069401831616 57.65729490427543 L 436.909364152338 57.79600167898309 L 436.99075412313573 57.93497140507975 L 437.32169744528227 58.074205081431955 L 437.8952979765121 58.21370371260883 L 437.9200984525861 58.35346830892502 L 437.9395491834672 58.49349988648521 L 438.0937891782537 58.63379946722813 L 438.1759094829265 58.77436807897135 L 438.22839635799545 58.91520675545644 L 438.3414960034492 59.05631653639455 L 438.4073025997459 59.19769846751274 L 438.5522464061298 59.339353600599964 L 438.66149396095733 59.4812829935546 L 438.66391853312285 59.62348771043139 L 438.97702869552387 59.76596882148965 L 439.0407078234516 59.90872740324119 L 439.7768048190181 60.05176453849958 L 439.7809042286754 60.19508131642914 L 440.0104218594138 60.33867883259467 L 440.28958832409296 60.48255818901197 L 440.4685491726323 60.62672049419831 L 440.6137836408197 60.77116686322387 L 440.67335723098154 60.91589841776329 L 440.76384459384974 61.0609162861482 L 440.7955057907444 61.206221603419465 L 440.81975440221146 61.3518155113814 L 441.1818614519581 61.49769915865471 L 441.3808343007964 61.64387370073126 L 441.6682532554452 61.79034030002913 L 442.0757882649755 61.93710012594761 L 442.2224652916321 62.08415435492384 L 442.32267176446436 62.23150417048873 L 442.41591216019475 62.379150763324844 L 442.60651089028175 62.52709533132321 L 442.66456045357575 62.67533907964264 L 442.71544598668316 62.82388322076781 L 442.8870190557486 62.97272897456935 L 443.1893385118975 63.12187756836357 L 443.52361105678136 63.271330236973256 L 443.73636859415024 63.42108822278925 L 443.8487614381115 63.57115277583205 L 443.9540924231804 63.72152515381464 L 444.019680694728 63.872206622205795 L 444.1392025417081 64.02319845429389 L 444.20711515464114 64.17450193125126 L 444.28390365682816 64.32611834219972 L 444.75952122115757 64.47804898427648 L 444.77150386254266 64.63029516270046 L 444.7863830446718 64.7828581908397 L 444.8612149096649 64.9357393902796 L 444.86934550772986 65.08894009089101 L 445.3721040431839 65.24246163090032 L 445.6311831280724 65.39630535695909 L 445.6854122514052 65.55047262421522 L 445.76811584850105 65.7049647963845 L 445.90653491015973 65.85978324582277 L 445.9343526698613 66.01492935359948 L 445.9423436928512 66.1704045095712 L 446.2158699588762 66.32621011245658 L 446.32278429576826 66.48234756991195 L 446.3264794920944 66.63881829860713 L 446.4727262606177 66.79562372430325 L 446.49207429618167 66.95276528193 L 446.9078731370233 67.11024441566491 L 447.3616850847383 67.26806257901285 L 447.4915370363968 67.4262212348865 L 447.5291255636094 67.58472185568763 L 447.56269516601367 67.7435659233895 L 447.87922003166307 67.9027549296199 L 447.9393229271781 68.06229037574542 L 447.9458072337179 68.2221737729559 L 448.12275817987336 68.38240664235087 L 448.1947078778601 68.5429905150259 L 448.2169108268825 68.70392693216098 L 448.33617459987204 68.86521744510867 L 448.3646969714065 69.02686361548416 L 448.5289189857656 69.18886701525605 L 448.7434784230508 69.35122922683746 L 449.175783846267 69.51395184317983 L 449.4005721220307 69.67703646786572 L 449.4047797982987 69.84048471520418 L 449.5200384037216 70.00429821032634 L 449.6111724891398 70.16847858928253 L 449.7551691827 70.33302749914037 L 449.8872504730115 70.49794659808373 L 450.049054813381 70.66323755551309 L 450.3037918300518 70.82890205214682 L 450.5284446315279 70.99494178012401 L 450.53993730316677 71.16135844310787 L 450.7573763756215 71.32815375639075 L 450.7921183244845 71.49532944700013 L 450.8159171545867 71.66288725380616 L 451.02802340714555 71.8308289276298 L 451.0959448750438 71.99915623135297 L 451.21000995822027 72.16787094002933 L 451.3015021084697 72.33697484099667 L 451.3600971764851 72.50646973399057 L 451.6253324518078 72.67635743125908 L 451.66882220647057 72.84663975767944 L 451.68388128709944 73.0173185508753 L 451.9273469085961 73.18839566133602 L 451.996617087973 73.35987295253653 L 452.16327288996933 73.53175230105984 L 452.27917487246333 73.70403559671945 L 452.3486689352529 73.87672474268498 L 452.4922714792529 74.04982165560739 L 452.6745447562023 74.22332826574717 L 452.72497667324154 74.3972465171035 L 452.86892706214087 74.5715783675443 L 452.9692522946984 74.74632578893949 L 453.12140102930454 74.92149076729407 L 453.2799076987267 75.0970753028837 L 453.3351577510365 75.27308141039191 L 453.5525574070312 75.44951111904862 L 453.8454143908756 75.62636647277077 L 453.8511651847884 75.80364953030397 L 453.9267640978274 75.98136236536686 L 454.032185507606 76.15950706679621 L 454.1081196533926 76.33808573869419 L 454.33537523166035 76.5171005005779 L 454.4238602526645 76.6965534875302 L 454.4787886443516 76.87644685035195 L 454.61479935129074 77.05678275571745 L 454.8755544080909 77.23756338633063 L 454.97495090810355 77.41879094108356 L 454.979462179665 77.60046763521711 L 455.22456136575227 77.782595700483 L 455.2714006958729 77.96517738530889 L 455.3335892590638 78.14821495496454 L 455.44456868315115 78.33171069173045 L 455.6626493072666 78.51566689506882 L 455.6970629715993 78.70008588179621 L 455.7431557733352 78.88496998625862 L 455.75769731633636 79.07032156050934 L 455.9634868319101 79.25614297448743 L 456.09314371967906 79.44243661620067 L 456.2353788445062 79.62920489190878 L 456.4699766323533 79.8164502263104 L 456.53260087318466 80.00417506273203 L 456.6797849651631 80.19238186331904 L 456.7033324063179 80.3810731092293 L 456.86989593167 80.5702513008302 L 456.8739809263101 80.7599189578965 L 456.93861359270517 80.95007861981242 L 456.9594231118762 81.14073284577518 L 457.0748607725658 81.33188421500193 L 457.4141062590734 81.52353532693894 L 457.4532989146082 81.71568880147396 L 457.67041448498594 81.90834727915075 L 457.8942456749836 82.10151342138704 L 457.91531986839425 82.29518991069506 L 457.9475872761065 82.48937945090518 L 458.0299082517525 82.68408476739211 L 458.1650291605128 82.87930860730467 L 458.3727912095201 83.07505373979825 L 458.4001816875587 83.27132295627058 L 458.40824932311006 83.46811907060038 L 458.5933357926212 83.66544491938959 L 458.72444264389827 83.86330336220857 L 458.93510272741736 84.061697281845 L 459.13836933974255 84.26062958455549 L 459.1772203460234 84.46010320032144 L 459.22934814797895 84.66012108310764 L 459.34618496654144 84.86068621112503 L 459.3931148595726 85.06180158709645 L 459.6404962611003 85.26347023852685 L 459.9851207876256 85.46569521797608 L 460.0456155215816 85.66847960333695 L 460.09733261912345 85.87182649811535 L 460.1080588917781 86.07573903171618 L 460.1402581590349 86.28022035973169 L 460.1781915288552 86.48527366423474 L 460.2482803101493 86.69090215407584 L 460.47444228821433 86.89710906518462 L 460.61049333898245 87.10389766087508 L 460.7314492451586 87.31127123215566 L 460.7378731578058 87.5192330980434 L 460.84489197872637 87.72778660588278 L 461.10471296279434 87.93693513166914 L 461.13975371305116 88.14668208037602 L 461.1645617555338 88.3570308862885 L 461.16814539873457 88.56798501333998 L 461.20596158733946 88.77954795545486 L 461.35403799274997 88.99172323689561 L 461.3882616001538 89.20451441261491 L 461.4902703625788 89.41792506861333 L 461.5110641474543 89.6319588223015 L 461.6092753215139 89.84661932286849 L 461.76502288716694 90.06191025165504 L 462.0980015518837 90.27783532253164 L 462.3650921623179 90.49439828228418 L 462.42704243845174 90.71160291100313 L 462.9428830915846 90.92945302247972 L 462.943385369943 91.14795246460784 L 462.9925201992612 91.36710511979152 L 463.01232610745814 91.58691490535932 L 463.1190157328707 91.80738577398415 L 463.1224792454717 92.02852171410967 L 463.13757623708904 92.25032675038352 L 463.3579926377465 92.47280494409671 L 463.4558539505222 92.6959603936296 L 463.5538996791962 92.91979723490545 L 463.56900792953104 93.1443196418495 L 463.69479239767253 93.36953182685687 L 463.80671610060546 93.59543804126605 L 463.8896173707783 93.82204257584112 L 464.1321096939808 94.04934976126009 L 464.1510864144771 94.27736396861167 L 464.1516387931648 94.50608960990002 L 464.23490424303355 94.73553113855667 L 464.2868066108339 94.96569304996058 L 464.3153623410198 95.1965798819673 L 464.40355870043413 95.42819621544476 L 464.58883390569036 95.6605466748199 L 464.829914295567 95.89363592863151 L 464.8688590608175 96.12746869009368 L 464.9378256250378 96.36204971766745 L 465.10295261477813 96.59738381564216 L 465.1182105284135 96.83347583472516 L 465.13124539920005 97.07033067264251 L 465.1478491926102 97.307953274748 L 465.2530975517543 97.54634863464281 L 465.2782023479119 97.78552179480573 L 465.3186391587558 98.02547784723237 L 465.4817957562389 98.26622193408622 L 465.48768546065 98.50775924835926 L 465.5547025390961 98.75009503454453 L 465.5629831207951 98.99323458931946 L 465.64880251143046 99.2371832622402 L 465.77364313349295 99.48194645644776 L 465.7934086493852 99.7275296293866 L 465.82837100739715 99.97393829353427 L 466.0694608494509 100.22117801714404 L 466.21026772440985 100.46925442499992 L 466.9446909196604 100.71817319918432 L 466.95325480801114 100.96794007985932 L 466.98002001187183 101.21856086606044 L 467.06101339081755 101.4700414165049 L 467.1377039271415 101.72238765041328 L 467.3747778099184 101.97560554834536 L 467.4559009129793 102.22970115305077 L 467.8082425161997 102.48468057033415 L 467.9652120452231 102.74054996993567 L 468.01120970835206 102.99731558642628 L 468.0488341785797 103.2549837201201 L 468.3407755916354 103.5135607380011 L 468.55988339918963 103.77305307466764 L 468.59780252549905 104.03346723329338 L 468.6188414112574 104.29480978660456 L 468.7536533959479 104.55708737787603 L 468.7839475111126 104.82030672194401 L 468.8359865136247 105.08447460623808 L 468.8933798473931 105.34959789183102 L 469.0452621992415 105.6156835145083 L 469.0762248403461 105.88273848585646 L 469.2007150310212 106.15076989437205 L 469.3052127977257 106.41978490659045 L 469.6369581943003 106.68979076823553 L 469.66889772982654 106.96079480539089 L 470.15728484701424 107.2328044256925 L 470.4740322739041 107.50582711954331 L 470.8704712733496 107.77987046135149 L 471.0038216922097 108.05494211079076 L 471.1348502311494 108.33104981408547 L 471.2635098559469 108.60820140531894 L 471.4750762195926 108.88640480776792 L 471.7211251648273 109.16566803526092 L 471.87954547163326 109.44599919356403 L 471.90134818518203 109.72740648179229 L 472.0758419141907 110.00989819384853 L 472.0982964142683 110.29348271989056 L 472.38058829571787 110.5781685478255 L 472.4781193965078 110.86396426483554 L 472.69583101029497 111.15087855893051 L 472.8280049522589 111.43892022053427 L 472.8694337722291 111.72809814409919 L 473.02684808740435 112.01842132975537 L 473.21969785579233 112.30989888499056 L 473.4709081228541 112.60254002636498 L 473.59459578106356 112.89635408125974 L 473.67064167809286 113.19135048966064 L 473.69411280113366 113.48753880597849 L 473.8427813440902 113.78492870090525 L 474.0330871831721 114.08352996330916 L 474.164034554619 114.3833525021679 L 474.17786543632343 114.68440634854176 L 474.4089716883461 114.9867016575871 L 474.4844677289884 115.29024871061239 L 474.8636979382085 115.59505791717561 L 475.11342488721095 115.90113981722698 L 475.17005113150833 116.208505083295 L 475.2516588728901 116.51716452272046 L 475.6496836153891 116.82712907993533 L 475.8291028893003 117.13840983879254 L 475.9037453529185 117.4510180249431 L 476.0164080751928 117.7649650082659 L 476.06701181746485 118.08026230534881 L 476.0887726120209 118.39692158202348 L 476.5177292120722 118.71495465595586 L 476.6558886784628 119.0343734992918 L 476.79775181335833 119.35519024136175 L 476.7985977520681 119.67741717144457 L 476.8226409253233 120.00106674159196 L 476.91378347597055 120.32615156951573 L 476.979308154022 120.65268444154003 L 477.03094011077235 120.98067831561843 L 477.0914879204535 121.31014632441963 L 477.12990945367574 121.64110177848278 L 477.1367449989985 121.97355816944383 L 477.19386250615077 122.30752917333604 L 477.2797088153193 122.6430286539657 L 477.36856807791304 122.98007066636524 L 477.40687745587314 123.31866946032648 L 477.4490532059008 123.65883948401535 L 477.4802526127252 124.00059538767192 L 477.4842107420619 124.34395202739574 L 477.48717020415245 124.68892446902089 L 477.9822479236625 125.03552799208313 L 478.0004488244185 125.38377809388021 L 478.1250552876721 125.73369049362998 L 478.79567683795636 126.08528113672782 L 478.9943450387176 126.43856619910667 L 478.99856111977033 126.79356209170282 L 479.0780305576156 127.1502854650301 L 479.1259170456895 127.50875321386604 L 479.19131476348053 127.86898248205335 L 479.31681367640425 128.23099066741952 L 479.4815784797066 128.5947954268189 L 479.6629948070788 128.9604146813005 L 479.8358715065348 129.32786662140467 L 480.00365970145344 129.6971697125946 L 480.07898682206803 130.06834270082334 L 480.0926420209946 130.44140461824463 L 480.18426970369654 130.81637478906794 L 480.1872182095672 131.1932728355652 L 480.43325175554577 131.57211868423246 L 480.50203196499103 131.95293257211108 L 480.5158984444833 132.3357350532749 L 480.71742045922514 132.7205470054866 L 481.2052628279803 133.1073896370309 L 481.42441007098705 133.49628449372796 L 481.48388466689653 133.8872534661342 L 481.7486843892856 134.28031879693634 L 481.9137465450676 134.67550308854453 L 482.1022538244911 135.07282931089134 L 482.15367736804944 135.47232080944343 L 482.266510257125 135.8740013134323 L 482.4141372753355 136.27789494431198 L 483.02803523028007 136.6840262244512 L 483.1845841113951 137.09242008606753 L 483.4461495369584 137.50310188041175 L 483.47021273020255 137.91609738721093 L 483.50457823720615 138.33143282437925 L 483.66173311617 138.74913485800505 L 483.89601715300853 139.16923061262435 L 484.03596768309114 139.59174768179076 L 484.04700536430164 140.01671413895087 L 484.33497696986416 140.44415854863746 L 484.3667417285358 140.87410997799088 L 484.64630335896993 141.30659800862009 L 484.6567079549413 141.74165274881568 L 484.83216776484323 142.17930484612742 L 484.9064399226666 142.61958550032006 L 484.9669487435146 143.06252647671943 L 485.31729773131815 143.5081601199655 L 485.725907577429 143.9565193681854 L 485.8282547017128 144.40763776760195 L 485.9751962863705 144.86154948759588 L 486.0323021234456 145.31828933623586 L 486.0757962436141 145.77789277629648 L 486.4982115325759 146.24039594178072 L 486.52192321234594 146.70583565496736 L 486.56745718611984 147.1742494440034 L 486.60986988825977 147.64567556106118 L 487.2692185083725 148.12015300108385 L 487.5212185184806 148.59772152114164 L 487.6188267373315 149.07842166042207 L 488.85100269801427 149.56229476088043 L 488.90921486514196 150.04938298857604 L 488.9815617623986 150.5397293557225 L 489.1511914286317 151.03337774347995 L 489.26132880390344 151.53037292552028 L 489.50402958249583 152.03076059239635 L 489.5296233070682 152.5345873767492 L 489.5768323545182 153.04190087938673 L 489.60064988247615 153.55274969627158 L 489.71978102586 154.067183446456 L 489.7396614181731 154.5852528010036 L 489.75896774228113 155.10700951294046 L 489.76418788817074 155.63250644827986 L 489.8350738269683 156.16179761816693 L 489.91318273386383 156.69493821219237 L 489.98797799350035 157.2319846329263 L 490.33441010412383 157.77299453172685 L 490.4018244790983 158.31802684587922 L 490.6955208595547 158.86714183712667 L 491.25037005145293 159.42040113165484 L 491.2925475132202 159.97786776159688 L 491.3661939422383 160.53960620812825 L 492.58302282413024 161.1056824462264 L 492.73920584722686 161.6761639911714 L 493.2193632611439 162.25111994687012 L 493.4844465007021 162.83062105609122 L 493.74304980182524 163.41473975270088 L 493.8512864762211 164.00355021599654 L 494.0639024905848 164.59712842724122 L 494.8894984230224 165.19555222850374 L 495.00098609382263 165.79890138392307 L 495.08123404833975 166.4072576435115 L 495.0821029551039 167.02070480963084 L 495.25706039295017 167.63932880627124 L 495.39051951621195 168.263217751279 L 495.3971415615593 168.89246203168466 L 495.67323445651346 169.52715438229177 L 495.70246430044733 170.16738996769766 L 495.83153935925816 170.8132664679278 L 495.8703061019751 171.46488416787594 L 496.0184917816441 172.1223460507556 L 496.38608783432437 172.78575789577968 L 496.4635307691457 173.4552283803016 L 496.51973613133765 174.13086918666227 L 496.7056778412918 174.81279511400788 L 496.9652120750396 175.50112419535685 L 496.99157260925614 176.19597782021611 L 497.2497643638943 176.89748086306366 L 497.4172355495427 177.6057618180388 L 497.7336736323505 178.32095294020195 L 497.9100047589722 179.04319039375537 L 497.96396326819814 179.77261440763635 L 498.10566541628134 180.50936943893043 L 498.1430437356503 181.25360434458054 L 498.43342487971114 182.00547256190112 L 498.54079002148245 182.76513229844704 L 498.79121394745215 183.53274673182256 L 498.80769667282954 184.30848422006392 L 498.973639914133 185.09251852327225 L 499.56205354348316 185.88502903722724 L 499.62870019073273 186.6862010397682 L 500.3223373805886 187.4962259507871 L 500.5263342460332 188.3153016067476 L 500.6354302039256 189.1436325507151 L 500.64424886163806 189.9814303389602 L 500.67123280089135 190.82891386528667 L 500.85393617769313 191.68630970432673 L 501.01050174520714 192.55385247515153 L 501.4334290791381 193.4317852266559 L 501.75120132947416 194.32035984630153 L 501.78845178936416 195.21983749393797 L 501.9319922559664 196.13048906257188 L 502.2417135045296 197.05259566811657 L 502.3717746373904 197.9864491703393 L 502.5200335427724 198.93235272741975 L 502.67252652954613 199.89062138675803 L 502.95333650928467 200.861582714912 L 503.0565741148713 201.8455774698158 L 503.1411061194828 202.84296031873225 L 503.2628747993598 203.85410060572258 L 503.437648063159 204.87938317279185 L 503.5019299090362 205.9192092392763 L 503.6069166315269 206.97399734450278 L 504.13830559738005 208.0441843592622 L 504.4897739211889 209.13022657221512 L 504.6369081965555 210.2326008579907 L 504.68445916711994 211.35180593446415 L 504.78215127847477 212.48836371750724 L 504.9023008361492 213.64282078242718 L 504.91572133083173 214.8157499423325 L 505.2098690177901 216.0077519548397 L 505.71382464231397 217.21945736984736 L 506.2303703219757 218.4515285326072 L 506.3498148018816 219.70466175802056 L 506.39701999913166 220.97958969403368 L 507.5337222116586 222.2770838942119 L 507.89091020956704 223.5979576221156 L 507.9970336222408 224.94306891299829 L 508.12038780158446 226.3133239216927 L 508.19005974887995 227.70968058939962 L 508.24588232040105 229.1331526665379 L 508.4409576339413 230.58481413397226 L 508.5794644247752 232.0658040709165 L 508.71272967245943 233.5773320247829 L 508.86982122671543 235.12068394639982 L 508.8963576393313 236.69722876356315 L 509.50429523804553 238.308425677123 L 510.4262498334164 239.95583227705106 L 510.43881061152445 241.64111359162257 L 510.77968987429756 243.36605220148738 L 510.8817139263671 245.13255957263732 L 510.90524654117513 246.94268878890767 L 510.9741005409368 248.7986488966751 L 511.39491504588324 250.70282111309388 L 511.8617941940617 252.6577771961517 L 512.5852405536145 254.66630033205837 L 512.6334218744183 256.7314089656124 L 512.6854914466651 258.8563840855983 L 514.4441402727995 261.04480058432677 L 515.0609653324466 263.30056344384326 L 515.1332145879943 265.6279496686684 L 516.2949512544549 268.0316570961834 L 517.5484654358806 270.5168614843565 L 518.1522328132328 273.08928362054775 L 519.51982625866 275.75526863933413 L 519.7961908048852 278.5218803157355 L 519.8289441428585 281.39701386030816 L 519.9128419987519 284.3895317511188 L 520.3642400846422 287.50942848989905 L 520.5089080123628 290.7680320033869 L 521.0290898457768 294.17825192782334 L 522.0615526146764 297.7548885152436 L 522.1320369586358 301.5150208394297 L 522.5642242982694 305.47850005839433 L 523.0159584583452 309.66858381193396 L 523.6726342087168 314.11276317017894 L 524.7916065325247 318.84385682251906 L 525.0694226930057 323.9014833468834 L 526.8929377140912 329.33408004207115 L 526.9346348689421 335.2017314774545 L 527.3338482079408 341.5802317297231 L 528.4000176639652 348.56708824157977 L 528.5531820903825 356.2906997847306 L 528.7923413101066 364.92496289651524 L 529.6788960866324 374.71368307321984 L 530.2286874462384 386.0139312037909 L 530.5557136706717 399.3792879679157 L 533.1119595736044 415.7371626228511 L 534.0581389508702 436.82613093012674 L 535.1600095584571 466.54936234918705 L 536.15099388872 517.3615620755229" stroke-linejoin="bevel" stroke-miterlimit="10"/><path fill="none" stroke="none"/><path fill="none" stroke="blue" paint-order="fill stroke markers" d=" M 549.2272727272727 NaN" stroke-linejoin="bevel" stroke-miterlimit="10"/></g></g></g><g clip-path="url(#FdMMJEdwwsVG)"><g><g><path fill="none" stroke="none"/><path fill="none" stroke="red" paint-order="fill stroke markers" d=" M 231.70103770624985 30.68181818181813 L 265.81893480732026 30.748249095799565 L 271.7046128102816 30.81474026458659 L 276.0839101458898 30.88129179758414 L 277.0731318682348 30.947903804495468 L 279.54399610765745 31.01457639532316 L 312.39457669546414 31.081309680370282 L 337.72549499375214 31.14810377024139 L 337.74425165119953 31.21495877584357 L 338.7816812303694 31.28187480838767 L 339.5727805039751 31.34885197938945 L 341.28926566649614 31.415890400670378 L 346.11757543329395 31.482990184359096 L 346.89002434488754 31.550151442892798 L 347.760344583249 31.617374289017334 L 348.07582203625657 31.68465883578949 L 349.61481485429067 31.752005196577556 L 352.4176748724974 31.81941348506234 L 354.00057786941596 31.88688381523889 L 355.4881943288375 31.954416301416927 L 355.9813391193741 32.02201105822269 L 356.3291553099359 32.08966820059959 L 358.19931744068145 32.15738784380983 L 358.34429629674764 32.22517010343506 L 358.56504244678854 32.293015095377996 L 359.1629253293253 32.36092293586353 L 359.42938398138915 32.42889374143954 L 361.01761701962744 32.496927628978824 L 361.35702417535447 32.565024715679556 L 361.564291135271 32.63318511906698 L 362.3769901776124 32.70140895699444 L 362.6222110317594 32.76969634764441 L 362.8338774740766 32.83804740953042 L 362.88659189670386 32.90646226149738 L 363.3458699558227 32.974941022723556 L 364.6146311301107 33.04348381272132 L 364.708021652669 33.112090751338656 L 364.9379041942061 33.18076195876017 L 366.090321965851 33.24949755550904 L 366.1304398065243 33.31829766244732 L 367.7167148588231 33.38716240077781 L 368.145368750938 33.45609189204538 L 368.14707919616126 33.525086258137776 L 368.2755486543829 33.59414562128745 L 368.35657138912285 33.66327010407247 L 368.59259419692086 33.7324598294183 L 369.85387484222525 33.80171492059833 L 370.49604757298687 33.87103550123618 L 371.47905295921777 33.9404216953061 L 372.6039617657171 34.009873627134766 L 372.9408664424181 34.07939142140276 L 373.5797602091775 34.14897520314548 L 374.9349874484957 34.218625097754966 L 375.35898561270477 34.288341230980905 L 375.43978730581955 34.35812372893179 L 376.6767111307261 34.42797271807717 L 379.4277375336134 34.49788832524803 L 379.7606403855967 34.567870677638666 L 381.29417681905136 34.637919902808335 L 381.6907033815245 34.708036128681556 L 381.73103253600505 34.7782194835512 L 382.03317966941745 34.84847009607836 L 382.0589664076318 34.9187880952943 L 382.60400864166786 34.98917361060262 L 382.75157486155854 35.05962677177945 L 384.37226329726474 35.130147708975414 L 384.66320086301846 35.20073655271756 L 385.70386714757734 35.27139343390991 L 386.0847397943676 35.34211848383575 L 386.4343999517253 35.41291183415831 L 386.5049505210432 35.48377361692292 L 386.9078711383021 35.55470396455826 L 387.6713444714995 35.62570300987761 L 388.24234095565413 35.69677088608057 L 388.57331011940397 35.767907726754515 L 389.5085711983731 35.83911366587597 L 390.27193362358423 35.91038883781266 L 390.571064837151 35.98173337732419 L 390.76869010641144 36.0531474195642 L 390.9696026384934 36.12463110008173 L 390.99960311083646 36.196184554822594 L 391.20027384309594 36.267807920131304 L 391.3060995741335 36.33950133275209 L 391.46152427088936 36.41126492983119 L 392.27184393579006 36.48309884891762 L 392.7278648841927 36.55500322796547 L 392.9779251835178 36.626978205335035 L 393.6928690919432 36.699023919794286 L 394.1678616038014 36.77114051052138 L 394.89680325207587 36.84332811710499 L 395.7722311187847 36.915586879546936 L 396.0374979571846 36.98791693826331 L 396.98140523582526 37.0603184340863 L 397.5044329940126 37.13279150826588 L 397.63264167828936 37.205336302471096 L 397.64072585624 37.27795295879241 L 398.4562809091453 37.35064161974253 L 398.83825834866525 37.42340242825878 L 399.4618979177545 37.49623552770436 L 399.59192612659893 37.56914106187048 L 399.7026271072364 37.642119174977665 L 399.79138449714543 37.7151700116774 L 399.86556249568963 37.788293717054216 L 400.00311225141894 37.861490436627264 L 401.00621495950116 37.934760316352026 L 401.03956873239093 38.00810350262202 L 401.14660749549597 38.081520142270506 L 401.34408428980083 38.155010382572755 L 401.3449775715437 38.22857437124674 L 401.62034496200334 38.3022122564563 L 401.8298149764352 38.37592418681186 L 401.88370949644815 38.449710311372314 L 401.9709846220706 38.5235707796478 L 401.9976490785805 38.597505741600344 L 402.0576996564594 38.671515347646164 L 402.3337986261573 38.745599748657924 L 402.3711308948932 38.81975909596565 L 402.41974262481347 38.893993541359464 L 402.64752454888134 38.96830323709082 L 402.7294494714462 39.04268833587503 L 402.9610446958906 39.11714899089236 L 403.692819820287 39.19168535579058 L 403.7178558214318 39.26629758468653 L 403.85587061565786 39.340985832168144 L 403.8866251902063 39.41575025329632 L 404.6088428620875 39.49059100360671 L 404.806771281794 39.56550823911232 L 404.92375327529174 39.64050211630422 L 405.0365000951749 39.71557279215506 L 405.0806265573585 39.79072042411951 L 405.21887994904233 39.86594517013759 L 405.84242807516677 39.94124718863566 L 406.29322986615483 40.016626638528805 L 406.81229758828147 40.09208367922304 L 406.9130327887384 40.167618470616844 L 407.2033616297476 40.24323117310382 L 407.5460887884874 40.31892194757427 L 407.7741857834129 40.394690955417104 L 407.92342916605276 40.47053835852273 L 408.2717796890093 40.54646431928404 L 408.5416841104888 40.622469000599494 L 408.92575115737816 40.698552565874365 L 409.16122041250765 40.774715179023474 L 409.2381896353852 40.850957004473 L 409.2521717938298 40.92727820716277 L 409.6890521581265 41.00367895254817 L 410.11306873423604 41.08015940660255 L 410.1768767694523 41.15671973581925 L 410.2640165897301 41.233360107214025 L 410.4842276957058 41.31008068832648 L 410.73453495003764 41.38688164722328 L 410.7617599807273 41.46376315249972 L 410.78520833619183 41.54072537328216 L 410.87439702293574 41.61776847922988 L 410.98448767993074 41.69489264053823 L 411.11912612791383 41.77209802793982 L 411.1756163094373 41.84938481270751 L 411.7013865402821 41.926753166656226 L 412.2172034459841 42.00420326214578 L 412.648073477696 42.0817352720826 L 413.0683395713123 42.15934936992244 L 413.08769828148985 42.23704572967256 L 413.18098833391383 42.314824525894096 L 413.20741649096107 42.39268593370457 L 413.35824719617074 42.47063012877959 L 413.6046939982044 42.54865728735638 L 413.69531947753336 42.62676758623502 L 413.83286561097526 42.70496120278153 L 413.8713775441643 42.78323831493026 L 414.0404603292061 42.8615991011859 L 414.19346319490734 42.940043740626265 L 414.2565901662936 43.01857241290486 L 414.34616447376277 43.097185298253066 L 414.43375830737335 43.17588257748241 L 414.55372302321405 43.25466443198786 L 414.7115473386799 43.333531043749645 L 414.7736143143925 43.41248259533586 L 415.34472688607866 43.49151926990521 L 415.57732795961334 43.57064125120951 L 415.6520048956678 43.64984872359605 L 415.66331278840534 43.72914187201059 L 415.6685524545929 43.80852088199947 L 415.9300877357135 43.88798593971251 L 416.7151860616574 43.96753723190557 L 417.27218850893433 44.04717494594297 L 417.381147614689 44.126899269800674 L 417.425606374546 44.206710392068544 L 417.5887578224107 44.28660850195263 L 417.82247904336015 44.36659378927891 L 418.2137066949722 44.44666644449512 L 418.2766156359396 44.526826658673826 L 418.4347699125022 44.60707462351502 L 418.5659020660055 44.68741053134886 L 418.58636184888417 44.76783457513886 L 418.7837362235814 44.848346948483936 L 418.7940605054415 44.928947845621906 L 418.99324199831665 45.009637461431794 L 419.0270058772906 45.09041599143666 L 419.03866775893636 45.17128363180723 L 419.2441394329996 45.252240579363615 L 419.5834322670271 45.33328703157906 L 419.6171817638953 45.41442318658221 L 419.63181819102425 45.49564924316053 L 419.6417055275022 45.5769654007629 L 419.695813178356 45.658371859502836 L 420.08070963370585 45.739868820161064 L 420.29340100886833 45.82145648418873 L 420.4068450273259 45.90313505371046 L 420.49831195407916 45.984904731527195 L 420.7146646905503 46.06676572111917 L 420.88248427687887 46.148718226649294 L 421.2904253419457 46.23076245296579 L 421.5150342270049 46.3128986056056 L 421.69702086991197 46.39512689079697 L 421.7034241952867 46.47744751546338 L 421.8237324651173 46.55986068722598 L 421.92657777399137 46.6423666144068 L 421.9513450372908 46.72496550603216 L 421.9534021541919 46.80765757183599 L 422.32690697683046 46.890443022262616 L 422.4250500276268 46.973322068469884 L 422.4333861514788 47.05629492233288 L 422.5869902793297 47.13936179644702 L 422.59788879709896 47.2225229041311 L 422.6360201280677 47.30577845943094 L 422.64268932964313 47.38912867712202 L 422.6804105673102 47.47257377271376 L 422.6961764892169 47.55611396245206 L 422.70714413611296 47.63974946332314 L 422.82992091568565 47.72348049305663 L 422.85478272604473 47.80730727012917 L 423.08130590138916 47.891230013767654 L 423.2523656693932 47.975248943952806 L 423.34695796337894 48.059364281422745 L 423.53656907909766 48.14357624767604 L 423.6319693301029 48.22788506497568 L 423.79459507372627 48.3122909563524 L 423.8052354906191 48.396794145608055 L 423.8069290061447 48.48139485731963 L 424.02914314249927 48.5660933168424 L 424.384819613289 48.65088975031347 L 424.4325866715275 48.73578438465597 L 424.5773627134595 48.82077744758203 L 424.60883934856 48.90586916759696 L 425.1607519052499 48.99105977400245 L 425.7418941233217 49.07634949690089 L 425.8283636436322 49.16173856719831 L 426.0198734218456 49.24722721660919 L 426.067784052967 49.33281567765903 L 426.27154753243684 49.41850418368904 L 426.5923397496301 49.504292968859545 L 426.65604967907774 49.59018226815408 L 427.48710747389515 49.67617231738279 L 427.6010873313232 49.762263353186995 L 427.9428468780032 49.848455613042574 L 428.0321334828552 49.93474933526386 L 428.2746163446294 50.02114475900805 L 428.4055171926802 50.107642124278755 L 428.48495039174594 50.1942416719304 L 428.74202370189073 50.28094364367166 L 428.89100080664593 50.36774828207024 L 429.25745156947374 50.454655830556135 L 429.3008043229694 50.54166653342645 L 429.30177334200596 50.62878063584924 L 429.31314678345456 50.71599838386726 L 429.4164126176501 50.80332002440309 L 429.4622566689506 50.890745805262554 L 429.8650265814145 50.97827597513867 L 429.91994763333525 51.06591078361703 L 429.93361746119996 51.153650481179056 L 430.05212224402624 51.241495319206706 L 430.11557674679113 51.329445549986644 L 430.46717802776783 51.41750142671481 L 430.5162850352837 51.50566320350083 L 430.653079143639 51.59393113537169 L 430.6646962134814 51.68230547827716 L 430.7291317442736 51.77078648909378 L 430.9036261843512 51.8593744256292 L 430.9806864631248 51.94806954662704 L 431.00372730606335 52.036872111771004 L 431.2281020532154 52.12578238168999 L 431.36791338867306 52.21480061796183 L 431.40297355232224 52.30392708311922 L 431.5727309617045 52.39316204065278 L 431.76225564318634 52.4825057550172 L 431.8642106929299 52.57195849163486 L 431.88239999221986 52.661520516900964 L 432.0840438147826 52.75119209818865 L 432.19585355000413 52.84097350385309 L 432.20267884444235 52.930865003237045 L 432.31157384943486 53.020866866674965 L 432.3920739324417 53.110979365498224 L 432.4924383003016 53.20120277204035 L 432.8008096704054 53.29153735964155 L 433.01348432462186 53.381983402653645 L 433.2101801910972 53.472541176445134 L 433.23529775790087 53.56321095740668 L 433.41452873065595 53.65399302295509 L 433.467836804999 53.744887651540125 L 433.79026212239194 53.83589512264757 L 433.79107537098696 53.927015716805954 L 433.79839179593546 54.01824971559131 L 433.9552319255442 54.10959740163196 L 433.9711846040839 54.20105905861419 L 434.09589387924245 54.29263497128761 L 434.12186111275065 54.384325425470024 L 434.5666632901453 54.47613070805346 L 434.64505156995824 54.56805110700884 L 434.69654078302324 54.66008691139177 L 434.79463632308534 54.75223841134812 L 434.9858775143215 54.84450589811922 L 435.19051092267927 54.936889664047385 L 435.1983958716569 55.029390002581636 L 435.2853619492233 55.12200720828366 L 435.45672745475974 55.21474157683224 L 435.5843076291855 55.307593405030616 L 435.6705860127341 55.4005629908105 L 435.7591984181886 55.49365063323887 L 435.78100942126053 55.58685663252356 L 435.7958682844018 55.68018129001905 L 435.87654102645905 55.77362490823168 L 435.9346890693179 55.86718779082673 L 436.0208001109301 55.960870242633405 L 436.3971843023113 56.054672569651075 L 436.4691090473014 56.1485950790551 L 436.58661097905764 56.24263807920329 L 436.61510454340396 56.33680187964194 L 436.625719910631 56.431086791111284 L 436.6607446328756 56.525493125552316 L 436.6978879112466 56.6200211961127 L 436.8322176482908 56.71467131715326 L 436.8611203629537 56.80944380425376 L 436.8668642113285 56.90433897421963 L 437.02192353680397 56.99935714508831 L 437.03846889920186 57.09449863613554 L 437.1019040121418 57.18976376788157 L 437.1465059623442 57.28515286209813 L 437.1467604900831 57.380666241814765 L 437.346718185916 57.47630423132489 L 437.49181409591876 57.57206715619327 L 437.5762776768934 57.66795534326195 L 437.5860734158063 57.76396912065741 L 437.5957956187024 57.86010881779703 L 437.626148399547 57.95637476539582 L 437.73153124358623 58.05276729547376 L 438.0207768095984 58.14928674136195 L 438.1447609894706 58.24593343770999 L 438.3758277661506 58.34270772049297 L 438.3965790195731 58.43960992701807 L 438.48467887422254 58.53664039593207 L 438.6486924118696 58.63379946722813 L 439.07650896052513 58.731087482253315 L 439.1976594869514 58.82850478371506 L 439.2112665557002 58.92605171568954 L 439.38864017759 59.023728623627676 L 439.5690838576166 59.12153585436363 L 439.73273804520926 59.21947375612132 L 439.916302546625 59.317542678522386 L 439.9671941202523 59.41574297259365 L 440.3601682700312 59.51407499077408 L 440.4163501925232 59.61253908692339 L 440.45430315849364 59.71113561632865 L 440.5650750621264 59.809864935712596 L 440.61378356789015 59.90872740324119 L 441.183569953537 60.00772337853158 L 441.29480537814896 60.10685322265954 L 441.3387308755227 60.20611729816795 L 441.3393073616033 60.30551596907418 L 441.3918829761563 60.40504960087844 L 441.41267853459766 60.50471856057186 L 441.43008632304367 60.604523216644395 L 441.6591845030177 60.70446393909316 L 441.66464120197 60.804541099430594 L 441.71569858184125 60.904755070692886 L 441.7798055021796 61.00510622744798 L 441.83385444989955 61.1055949458044 L 442.09375965447805 61.206221603419465 L 442.16732056127813 61.306986579507736 L 442.29096164393263 61.40789025484986 L 442.4670296546731 61.50893301180082 L 442.56013989357905 61.610115234299144 L 442.6285480431912 61.71143730787509 L 442.88621294564956 61.81289961965996 L 442.8970319304769 61.914502558394474 L 442.9456192069599 62.01624651443831 L 443.12894903419607 62.118131879778616 L 443.13025219456756 62.220159048039136 L 443.21278319543364 62.32232841448962 L 443.2219508480917 62.42464037605464 L 443.23688935009136 62.52709533132321 L 443.33038314156266 62.62969368055769 L 443.4539507980322 62.73243582570365 L 443.6889399224213 62.835322170398854 L 443.98600388168956 62.938353119983105 L 444.03900429134313 63.04152908150763 L 444.0591044647648 63.14485046374483 L 444.1018318240009 63.24831767719803 L 444.1889596433047 63.35193113411117 L 444.2211208450498 63.455691248478615 L 444.2788873568557 63.55959843605524 L 444.4037477149563 63.663653114366355 L 444.416487261757 63.76785570271778 L 444.43638637399005 63.872206622205795 L 444.4941143232826 63.97670629572781 L 444.5412320116603 64.0813551479921 L 444.605622873509 64.1861536055286 L 444.6535755415596 64.29110209669898 L 444.7115371130355 64.39620105170764 L 444.74277745156024 64.50145090261151 L 444.929658063684 64.60685208333155 L 445.0116238798338 64.71240502966299 L 445.09793698166675 64.81811017928618 L 445.1316309956325 64.92396797177787 L 445.3196174577362 65.02997884862145 L 445.36252099738556 65.13614325321856 L 445.42085791548203 65.24246163090032 L 445.44780290512654 65.34893442893792 L 445.48319736755116 65.4555620965545 L 445.51725766302496 65.56234508493628 L 445.6623640475364 65.66928384724406 L 445.71996002093846 65.77637883862451 L 445.7817458160686 65.8836305162223 L 445.8009342213922 65.99103933919162 L 445.8123982144462 66.09860576870733 L 445.83625973224395 66.20633026797799 L 445.8396601957236 66.31421330225686 L 445.91853299352385 66.4222553388546 L 446.08183702470626 66.53045684715096 L 446.17795309610995 66.63881829860713 L 446.2053363709763 66.74734016677843 L 446.2713737225192 66.85602292732614 L 446.3722268716336 66.96486705803039 L 446.4268610699248 67.07387303880279 L 446.5949621365996 67.1830413516987 L 446.66505249705926 67.2923724809308 L 446.6745158859816 67.40186691288113 L 446.81150783665754 67.51152513611459 L 446.85418508779827 67.62134764139171 L 446.9298110214317 67.73133492168233 L 447.0763155787736 67.8414874721783 L 447.1465538189506 67.95180579030716 L 447.205647062176 68.06229037574542 L 447.3946444609799 68.17294173043263 L 447.5685027969829 68.28376035858435 L 447.641018464667 68.39474676670648 L 447.73070582360606 68.50590146360895 L 447.7421244710324 68.61722496041966 L 447.78643130449103 68.72871777059879 L 447.9190564150077 68.84038040995267 L 447.9657893406465 68.95221339664846 L 448.0034716467726 69.0642172512284 L 448.12885952172684 69.17639249662443 L 448.41082180284513 69.28873965817252 L 448.4194415969251 69.40125926362799 L 448.4351237019679 69.51395184317983 L 448.51766112445176 69.62681792946626 L 448.6219452077026 69.73985805758912 L 448.7684672750737 69.85307276512981 L 448.86831375073297 69.96646259216413 L 449.03205870849115 70.08002808127804 L 449.23522918366086 70.19376977758304 L 449.2918894586563 70.30768822873188 L 449.35233856278103 70.42178398493462 L 449.35614537908873 70.53605759897425 L 449.3744041882888 70.65050962622303 L 449.3877120945764 70.76514062465839 L 449.44247553007125 70.87995115487962 L 449.594623100541 70.99494178012401 L 449.61092695937526 71.11011306628359 L 449.6342543778506 71.22546558192175 L 449.6876071187881 71.34099989829025 L 449.7306140084687 71.45671658934583 L 449.7540357564629 71.57261623176782 L 449.805260014329 71.6886994049749 L 449.8256740174321 71.80496669114285 L 449.87396989573676 71.92141867522201 L 449.8994856515145 72.03805594495446 L 449.903846309052 72.15487909089268 L 449.9723381985954 72.27188870641663 L 450.22684056692884 72.38908538775257 L 450.27127776476846 72.50646973399057 L 450.36331906485674 72.62404234710345 L 450.5444327103641 72.74180383196517 L 450.6044039435138 72.85975479636937 L 450.7012357969835 72.97789585104829 L 450.71989987701704 73.09622760969148 L 450.7402395079026 73.21475068896552 L 450.8123336610484 73.3334657085328 L 450.9368576884228 73.45237329107096 L 450.9602239415752 73.5714740622928 L 451.1439631788304 73.69076865096582 L 451.27023297462637 73.81025768893215 L 451.30513374331997 73.92994181112874 L 451.4779076527753 74.04982165560739 L 451.53482016936147 74.16989786355538 L 451.54681759459163 74.290171079316 L 451.7051061063389 74.41064195040917 L 451.98674346602087 74.53131112755244 L 452.0359277664413 74.65217926468222 L 452.10896178658305 74.7732470189747 L 452.1852045284446 74.89451505086748 L 452.21609625626434 75.01598402408166 L 452.32548005729996 75.13765460564247 L 452.3687344558794 75.25952746590252 L 452.3799939099913 75.38160327856315 L 452.46508004358446 75.50388272069705 L 452.4897914392219 75.62636647277077 L 452.68291847078615 75.74905521866742 L 452.7005576847651 75.87194964570955 L 452.8372391753995 75.99505044468259 L 452.8749589771226 76.11835830985729 L 453.1451998383231 76.24187393901428 L 453.19742607405135 76.36559803346705 L 453.38948967313235 76.48953129808609 L 453.61098294642284 76.61367444132287 L 453.62494088997965 76.73802817523438 L 453.6576601722157 76.86259321550733 L 453.6619639788098 76.9873702814831 L 453.66402830909806 77.11236009618233 L 453.7049654292902 77.23756338633063 L 453.84039967278 77.3629808823834 L 453.84444535621 77.48861331855181 L 454.0287109591251 77.61446143282797 L 454.79531854879593 77.74052596701165 L 454.9296763981001 77.86680766673629 L 454.95303818809566 77.99330728149516 L 454.9993495754056 78.12002556466842 L 455.1202578590054 78.24696327354974 L 455.18013963995287 78.37412116937378 L 455.5608561594533 78.5015000173434 L 455.60897843693397 78.62910058665727 L 455.79914315469375 78.7569236505376 L 455.89753697693465 78.88496998625862 L 455.9818655814398 79.01324037517486 L 456.0874058712764 79.1417356027494 L 456.32694143876495 79.27045645858288 L 456.3467865417607 79.39940373644316 L 456.43506582543995 79.52857823429372 L 456.60074610714764 79.65798075432406 L 456.6714624344323 79.7876121029795 L 456.68307114554295 79.91747309099077 L 456.8625949687105 80.04756453340497 L 456.89023240816186 80.17788724961645 L 456.9394683409864 80.30844206339691 L 456.96482267811876 80.43922980292763 L 457.055182916798 80.5702513008302 L 457.2020976177103 80.70150739419898 L 457.2081794795227 80.8329989246327 L 457.4809517768358 80.96472673826696 L 457.6450588277354 81.09669168580717 L 458.0924096982323 81.22889462256103 L 458.21528951259506 81.36133640847231 L 458.2372857886097 81.49401790815409 L 458.352190852074 81.6269399909225 L 458.575194913034 81.76010353083132 L 458.7041658201799 81.89350940670624 L 458.8756692767727 82.02715850217953 L 458.9072037327297 82.16105170572524 L 458.9426944417663 82.29518991069506 L 458.9498969056412 82.42957401535324 L 459.0638791913433 82.5642049229134 L 459.2761601092177 82.69908354157474 L 459.28867441245416 82.83421078455848 L 459.3010587288549 82.96958757014573 L 459.4341405265876 83.10521482171396 L 459.7106779403462 83.2410934677755 L 459.7185003388258 83.37722444201546 L 459.95257240332086 83.51360868333023 L 460.00302940811264 83.65024713586632 L 460.06372658626225 83.78714074905946 L 460.0785630888869 83.9242904776745 L 460.41426296844037 84.061697281845 L 460.70930237507173 84.19936212711372 L 460.7180384912474 84.33728598447368 L 460.84315605128654 84.47546983040843 L 460.9020676786757 84.61391464693429 L 460.9427537593541 84.75262142164195 L 461.13289021996155 84.89159114773861 L 461.1445106683652 85.03082482409093 L 461.23240699858866 85.17032345526775 L 461.23749647677573 85.31008805158399 L 461.25373593738084 85.45011962914418 L 461.4045149315722 85.5904192098871 L 461.45650294546255 85.73098782163026 L 461.50401981053847 85.87182649811535 L 461.54733762791443 86.01293627905346 L 461.6632492610419 86.15431821017165 L 461.6822071523365 86.29597334325888 L 461.9582989385953 86.43790273621352 L 462.0513689866351 86.58010745309036 L 462.10540734894613 86.72258856414862 L 462.15233047596325 86.8653471459001 L 462.1859456895547 87.0083842811585 L 462.34971151735505 87.151701059088 L 462.38444432805863 87.29529857525358 L 462.41585064601867 87.43917793167088 L 462.45057192634283 87.58334023685723 L 462.57525321990425 87.72778660588278 L 462.8066649117175 87.8725181604222 L 462.86815364754784 88.017536028807 L 462.8800576706055 88.16284134607832 L 462.98482700612743 88.30843525404026 L 463.056978505808 88.45431890131357 L 463.06269476777123 88.60049344339018 L 463.133551272968 88.74696004268799 L 463.1737162299246 88.89371986860652 L 463.3024167409004 89.0407740975827 L 463.34608842458306 89.18812391314765 L 463.35138746638694 89.3357705059837 L 463.36021290943 89.48371507398207 L 463.6262631477585 89.6319588223015 L 463.92982086007123 89.78050296342667 L 463.9542350658069 89.92934871722821 L 463.9731171506065 90.07849731102249 L 464.02741137256885 90.22794997963211 L 464.10583545184227 90.37770796544811 L 464.1773132825395 90.5277725184909 L 464.2274509863303 90.6781448964735 L 464.27874590077585 90.82882636486471 L 464.30863231765693 90.97981819695275 L 464.48027688715166 91.13112167391017 L 464.5042700730209 91.28273808485869 L 464.8441566932153 91.43466872693534 L 464.85762682969875 91.58691490535932 L 464.86524389229146 91.73947793349862 L 464.9710061773363 91.89235913293845 L 465.03758696014995 92.04555983354993 L 465.0391484179035 92.19908137355924 L 465.1301233125275 92.352925099618 L 465.31582685157133 92.50709236687413 L 465.3438645350067 92.66158453904342 L 465.3869980489439 92.81640298848168 L 465.3893806013202 92.97154909625834 L 465.5098918371026 93.12702425223006 L 465.52943921006033 93.28282985511555 L 465.573930646199 93.43896731257087 L 465.647907603914 93.59543804126605 L 465.6789625902358 93.75224346696211 L 465.77144192329433 93.90938502458886 L 465.8334390862629 94.06686415832382 L 465.95823804855837 94.22468232167176 L 466.03042686534724 94.38284097754541 L 466.3107359139257 94.54134159834655 L 466.31883274491327 94.70018566604841 L 466.49832700719054 94.85937467227893 L 466.61316360700454 95.01891011840439 L 466.641055376005 95.17879351561481 L 466.6980540165256 95.33902638500973 L 466.76856655744626 95.49961025768482 L 466.8192845252151 95.6605466748199 L 466.9251512619953 95.82183718776758 L 467.02359911266876 95.98348335814319 L 467.09406368760875 96.14548675791491 L 467.0986854122999 96.30784896949649 L 467.1364310250644 96.4705715858388 L 467.536767561658 96.63365621052469 L 467.55587539040323 96.79710445786304 L 467.61189535141165 96.96091795298526 L 467.96561241116416 97.12509833194139 L 468.12926074846746 97.28964724179929 L 468.207351903182 97.45456634074259 L 468.3370201621781 97.61985729817195 L 468.44730737902466 97.78552179480573 L 468.47015425596044 97.95156152278292 L 468.4900306436045 98.11797818576684 L 468.650815357699 98.2847734990496 L 468.6874420557198 98.45194918965905 L 468.8405080188131 98.61950699646508 L 468.8526848732982 98.78744867028877 L 468.9491606005039 98.95577597401183 L 469.10716341175316 99.12449068268825 L 469.16963293786415 99.29359458365559 L 469.38757014260545 99.46308947664937 L 469.7623634378818 99.63297717391794 L 469.76950085353207 99.80325950033836 L 469.8577667152892 99.97393829353427 L 469.89831019454726 100.14501540399493 L 469.9158345673093 100.3164926951955 L 469.9793444894737 100.4883720437187 L 470.119595685393 100.66065533937842 L 470.15112035650674 100.83334448534384 L 470.1675526701412 101.0064413982663 L 470.3198939850411 101.17994800840614 L 470.3260160343324 101.35386625976236 L 470.3859363921777 101.52819811020316 L 470.4142765078274 101.7029455315984 L 470.43537715745674 101.87811050995293 L 470.4534739837551 102.05369504554261 L 470.5034799139903 102.22970115305077 L 470.8226432987705 102.40613086170754 L 470.9017199563933 102.58298621542963 L 471.12968669099627 102.76026927296294 L 471.17270518879957 102.93798210802578 L 471.2397134870273 103.11612680945512 L 471.32852936395074 103.2947054813531 L 471.3410357710653 103.47372024323681 L 471.4432540119103 103.65317323018905 L 471.487923922491 103.83306659301087 L 471.5178810417187 104.01340249837631 L 471.53858719231164 104.19418312898955 L 471.71335930602896 104.37541068374253 L 471.730833646467 104.55708737787603 L 471.8306918587688 104.73921544314186 L 471.85674876731684 104.9217971279678 L 471.94731324615475 105.10483469762346 L 472.047473866068 105.28833043438942 L 472.11663258071565 105.47228663772773 L 472.1273837727835 105.65670562445513 L 472.40132978219725 105.8415897289176 L 472.6494520536265 106.0269413031682 L 472.693568335632 106.2127627171464 L 472.7250378007693 106.39905635885953 L 472.8874997317511 106.58582463456764 L 472.8979674007677 106.77306996896937 L 472.96573946326845 106.96079480539089 L 473.0848201569379 107.1490016059779 L 473.6733753985712 107.33769285188822 L 473.91193979428147 107.52687104348911 L 473.99080073770085 107.71653870055542 L 474.0534132288611 107.90669836247133 L 474.2540156658242 108.09735258843409 L 474.2557845329643 108.2885039576608 L 474.3842139433089 108.48015506959786 L 474.3945620360485 108.67230854413287 L 474.4510796773414 108.86496702180972 L 474.4764883406864 109.0581331640459 L 474.48406841964817 109.25180965335397 L 474.60091425731434 109.44599919356403 L 474.60824175496805 109.64070451005097 L 474.670076338043 109.83592834996358 L 474.96354777150316 110.03167348245722 L 475.08924448454616 110.22794269892955 L 475.2522703229356 110.4247388132593 L 475.32378177319214 110.62206466204844 L 475.48823435194373 110.81992310486748 L 475.5157656996583 111.01831702450386 L 475.54437398346863 111.21724932721435 L 475.6248669756549 111.41672294298036 L 475.63766393473605 111.61674082576656 L 476.1560984618176 111.81730595378389 L 476.3046667855575 112.01842132975537 L 476.5830153880964 112.22008998118571 L 477.03565986350554 112.42231496063499 L 477.1304542182144 112.6250993459958 L 477.31287839899517 112.82844624077421 L 477.3281953712005 113.03235877437504 L 477.4681807504331 113.23684010239054 L 477.56238544098613 113.44189340689366 L 477.6599676302397 113.6475218967347 L 477.81305279301046 113.85372880784348 L 477.87670927812053 114.06051740353399 L 478.0904365641225 114.26789097481452 L 478.12022991446696 114.47585284070226 L 478.14819684287846 114.68440634854176 L 478.1646795995509 114.89355487432806 L 478.1735859284744 115.10330182303494 L 478.3222404502884 115.31365062894736 L 478.363582164884 115.5246047559989 L 478.4691831217723 115.73616769811377 L 478.5439594643251 115.94834297955452 L 478.60405743039115 116.16113415527383 L 478.83533495117484 116.37454481127224 L 478.8641167046043 116.58857856496041 L 478.89373996071123 116.80323906552752 L 478.94706144214473 117.0185299943139 L 479.0035117034712 117.23445506519056 L 479.01471179339393 117.4510180249431 L 479.12690902496826 117.6682226536621 L 479.3182390600614 117.88607276513864 L 479.5141450117786 118.10457220726676 L 479.7508450577696 118.32372486245043 L 479.77196684878135 118.54353464801824 L 479.90198270455693 118.76400551664301 L 479.9094827022942 118.98514145676853 L 479.9176982801938 119.20694649304238 L 479.95339091761934 119.42942468675557 L 480.0981226679296 119.65258013628858 L 480.10806387155003 119.87641697756436 L 480.24556308669173 120.10093938450842 L 480.25693700630455 120.32615156951573 L 480.4402983949125 120.55205778392497 L 480.54484893212685 120.77866231850004 L 480.65907744814484 121.00596950391895 L 480.6742229784373 121.23398371127053 L 480.7284673081915 121.46270935255887 L 480.73760212446945 121.69215088121553 L 480.7511071802615 121.9223127926195 L 480.7991847128808 122.15319962462615 L 481.02847063999087 122.38481595810373 L 481.16132579377955 122.61716641747881 L 481.2828400191644 122.85025567129037 L 481.29997861126066 123.0840884327526 L 481.35401503999606 123.31866946032648 L 481.57709907074826 123.55400355830108 L 481.69295216433494 123.79009557738408 L 481.70746261601533 124.02695041530143 L 481.8202652495721 124.26457301740686 L 481.9666049689025 124.50296837730173 L 482.06309647132343 124.74214153746459 L 482.29697975153266 124.98209758989134 L 482.3742611510322 125.22284167674508 L 482.4174683308053 125.46437899101812 L 482.42273770002106 125.70671477720344 L 482.4752445492568 125.94985433197837 L 482.6208665309499 126.19380300489905 L 482.6429882274436 126.43856619910667 L 482.67199724693495 126.68414937204545 L 482.97962230020346 126.93055803619319 L 483.09057748273307 127.17779775980296 L 483.1305464871376 127.42587416765878 L 483.3117652985653 127.67479294184324 L 483.33715378795284 127.92455982251823 L 483.4149044232436 128.17518060871936 L 483.4492824614808 128.4266611591638 L 483.4613747425872 128.6790073930722 L 483.51348593677295 128.93222529100422 L 483.6762517887375 129.18632089570974 L 483.7179178842316 129.44130031299312 L 483.74892413964193 129.6971697125946 L 483.76443557806795 129.95393532908525 L 483.9998709623326 130.211603462779 L 484.1485340221088 130.47018048065996 L 484.3825366672041 130.72967281732656 L 484.5582955699074 130.9900869759523 L 484.5623045098273 131.25142952926348 L 484.6572450371453 131.5137071205349 L 484.89176109078346 131.77692646460292 L 484.9421953511804 132.04109434889693 L 485.03549712608014 132.30621763448994 L 485.3014070000919 132.57230325716722 L 485.3690697270641 132.83935822851544 L 485.4126839832711 133.1073896370309 L 485.45150295157475 133.37640464924937 L 485.5856427564472 133.64641051089444 L 485.5975372988905 133.91741454804986 L 485.852698363292 134.18942416835137 L 485.8978802471666 134.46244686220217 L 485.99311184995145 134.73649020401035 L 486.1422874289753 135.01156185344968 L 486.22190641242014 135.28766955674433 L 486.29360501787244 135.56482114797785 L 486.41167082478074 135.84302455042678 L 486.6101599364128 136.12228777791984 L 486.6353754125375 136.40261893622295 L 486.89209302897405 136.6840262244512 L 486.951040261432 136.9665179365075 L 486.969030160977 137.25010246254948 L 486.9821497698777 137.53478829048447 L 487.0587809401164 137.8205840074944 L 487.0750759532033 138.1074983015895 L 487.13990883550224 138.39553996319313 L 487.1906823004026 138.6847178867581 L 487.46480067443093 138.97504107241434 L 487.59908777097945 139.26651862764948 L 487.6697808981541 139.55915976902395 L 487.81894717782694 139.85297382391866 L 487.8492956010567 140.1479702323196 L 488.02549022960454 140.44415854863746 L 488.08132859415497 140.74154844356417 L 488.19236556285057 141.04014970596808 L 488.23098056641777 141.3399722448268 L 488.2860589651766 141.64102609120062 L 488.31719607543073 141.94332140024608 L 488.33388712754896 142.2468684532713 L 488.34727289633133 142.55167765983452 L 488.37625395078834 142.85775955988578 L 488.4115400123425 143.16512482595397 L 488.7186138118431 143.47378426537927 L 488.8959641610361 143.78374882259425 L 488.9967583398207 144.0950295814514 L 489.0301182871542 144.40763776760195 L 489.10465222453604 144.72158475092482 L 489.1325308612913 145.03688204800767 L 489.2956972006315 145.35354132468245 L 489.5175668510778 145.67157439861472 L 489.6692016005741 145.99099324195078 L 489.7397507565479 146.3118099840206 L 489.8000051674737 146.6340369141035 L 490.13182142891253 146.95768648425081 L 490.25056969399725 147.28277131217465 L 490.37394015784923 147.609304184199 L 490.52716727785884 147.9372980582774 L 490.7785283345431 148.26676606707855 L 490.7842491581813 148.59772152114164 L 490.83817270492506 148.9301779121027 L 490.91222079745717 149.26414891599495 L 490.95151596714544 149.59964839662462 L 491.2120264858422 149.93669040902415 L 491.347642651541 150.27528920298533 L 491.50602935676096 150.61545922667426 L 491.55039134284544 150.95721513033084 L 491.5773336058585 151.30057177005466 L 491.66406412410475 151.6455442116798 L 491.8285168676404 151.99214773474205 L 491.9091468645896 152.34039783653913 L 492.30525679612316 152.6903102362889 L 492.5454796211072 153.04190087938673 L 492.7691565576911 153.3951859417656 L 493.10076716106994 153.75018183436168 L 493.1572731292463 154.10690520768895 L 493.1833334354791 154.4653729565249 L 493.2231036591373 154.82560222471227 L 493.2452391573879 155.18761041007843 L 493.28474638201175 155.55141516947782 L 493.4668946731047 155.91703442395936 L 493.5330760549572 156.28448636406358 L 493.5692742423292 156.65378945525345 L 493.636275468554 157.02496244348225 L 493.74518771746955 157.39802436090343 L 493.90413234035697 157.77299453172685 L 493.97514640464357 158.14989257822413 L 494.0456040922682 158.52873842689132 L 494.0617747353627 158.90955231477 L 494.1391868909127 159.29235479593376 L 494.17511831812214 159.6771667481455 L 494.1785246772596 160.06400937968988 L 494.2093750071825 160.45290423638698 L 494.22546945545656 160.84387320879313 L 494.24086881076664 161.2369385395952 L 494.3583678641964 161.6321228312034 L 494.4019925947248 162.02944905355025 L 494.402234426082 162.4289405521024 L 494.403437608999 162.83062105609122 L 494.4224261485261 163.23451468697095 L 494.44290890599416 163.64064596711006 L 494.66439217168926 164.04903982872645 L 494.6894732758788 164.45972162307066 L 494.8166336066578 164.8727171298699 L 494.83470386982043 165.28805256703816 L 494.96511154272423 165.70575460066397 L 494.97332921467034 166.1258503552832 L 495.0626990223798 166.54836742444968 L 495.16380113931854 166.97333388160973 L 495.2741023857867 167.40077829129632 L 495.3310286395461 167.83072972064969 L 495.5920185004696 168.263217751279 L 495.93138105504767 168.69827249147454 L 496.07761818372165 169.1359245887864 L 496.08264934922187 169.57620524297886 L 496.15780308227164 170.01914621937834 L 496.22744330992305 170.46477986262448 L 496.44236930254687 170.91313911084433 L 496.49418027037734 171.36425751026093 L 496.49442073342175 171.8181692302548 L 496.5380693265481 172.27490907889484 L 496.7719750136155 172.7345125189554 L 496.8471408797588 173.19701568443958 L 496.8610301999051 173.66245539762633 L 497.0019938775007 174.13086918666227 L 497.0056859073001 174.60229530372004 L 497.3248383954911 175.0767727437427 L 497.3957831596538 175.55434126380055 L 497.54357176917347 176.0350414030811 L 497.85998699913733 176.51891450353935 L 497.8745733761728 177.00600273123496 L 497.92796875469736 177.49634909838147 L 497.9754141226429 177.98999748613886 L 498.1484072970575 178.48699266817914 L 498.197828325725 178.98738033505526 L 498.4631915532393 179.4912071194081 L 498.7433715764361 179.99852062204565 L 498.7772626328378 180.50936943893043 L 498.8756736555411 181.02380318911497 L 498.9817611115409 181.54187254366246 L 499.4029622957658 182.06362925559944 L 499.40354117381196 182.58912619093883 L 499.4091024263189 183.1184173608259 L 499.41649851230665 183.65155795485128 L 499.43167410781376 184.18860437558527 L 499.68579868115495 184.72961427438577 L 499.86085786953487 185.27464658853813 L 499.9813010316315 185.82376157978553 L 500.20005895628395 186.37702087431376 L 500.3475887408749 186.93448750425574 L 500.55757146875675 187.4962259507871 L 500.7046418588595 188.06230218888527 L 500.8356895323375 188.6327837338302 L 501.0180685859503 189.2077396895291 L 501.33841817434205 189.7872407987502 L 501.515438403442 190.3713594953598 L 501.52382565783876 190.96016995865546 L 501.60077044100467 191.55374816990002 L 501.96054782884437 192.15217197116266 L 502.0580274199669 192.75552112658187 L 502.1029879920248 193.36387738617054 L 502.50782285671505 193.97732455228982 L 502.5214393097035 194.5959485489302 L 502.6058448191422 195.21983749393797 L 502.70367955204796 195.8490817743437 L 502.8854568097029 196.48377412495074 L 503.0070050219128 197.12400971035663 L 503.05801586525865 197.76988621058678 L 503.46745213643266 198.42150391053485 L 503.7944017126085 199.0789657934145 L 504.4118855769671 199.7423776384386 L 504.5214698009695 200.41184812296052 L 504.5496367108155 201.08748892932118 L 504.6031764545336 201.76941485666674 L 504.7254746543864 202.4577439380157 L 504.7904063919507 203.15259756287497 L 504.8935182582146 203.85410060572258 L 505.0678104830799 204.5623815606976 L 505.2704147056653 205.2775726828608 L 505.4647419208806 205.99981013641428 L 505.60821601537043 206.72923415029516 L 505.74905636325167 207.46598918158935 L 506.16315707550564 208.2102240872394 L 506.33420070256926 208.96209230456003 L 506.4280666970547 209.7217520411059 L 506.4955788815451 210.48936647448141 L 506.96802777338877 211.26510396272278 L 507.11586680407345 212.0491382659311 L 507.2467822568561 212.8416487798861 L 507.3118014341031 213.64282078242718 L 507.60696012645525 214.45284569344602 L 507.9442569138805 215.27192134940657 L 508.20997230610215 216.100252293374 L 508.2513225736932 216.93805008161917 L 508.29691646212694 217.78553360794558 L 508.38047701065 218.6429294469857 L 508.42423473881945 219.5104722178105 L 508.49635907865303 220.38840496931488 L 508.61642178653267 221.2769795889604 L 508.6903457852839 222.17645723659683 L 508.7218361485643 223.08710880523074 L 508.9294253737323 224.00921541077548 L 508.9678522018983 224.94306891299829 L 508.97774988828434 225.88897247007867 L 509.0181056801043 226.8472411294169 L 509.18237972542676 227.81820245757086 L 509.2068130244368 228.80219721247477 L 509.39402214509136 229.7995800613911 L 509.54523635889586 230.81072034838155 L 509.5841339801593 231.83600291545082 L 509.6212556080075 232.87582898193534 L 509.6490807996578 233.9306170871618 L 510.30013925049803 235.00080410192118 L 510.494541288876 236.08684631487404 L 510.53915302365255 237.18922060064972 L 510.6510703596773 238.308425677123 L 510.69314746932025 239.44498346016616 L 510.86984793548874 240.59944052508598 L 510.87082771052854 241.77236968499136 L 510.88158731236325 242.96437169749856 L 510.9459633989656 244.17607711250628 L 511.0919312825047 245.408148275266 L 511.41068714479 246.66128150067942 L 512.0637614554598 247.93620943669242 L 512.3778048618113 249.2337036368707 L 512.4940395257083 250.5545773647744 L 512.9798681881298 251.8996886556571 L 513.1236885983385 253.2699436643515 L 513.6346739395343 254.66630033205837 L 513.733522237907 256.0897724091968 L 513.7945360248355 257.54143387663123 L 514.1315095651987 259.0224238135754 L 514.6599595799275 260.5339517674419 L 514.6976611177822 262.0773036890588 L 515.1933157355209 263.6538485062222 L 515.380947840574 265.265045419782 L 515.7448205991868 266.9124520197101 L 515.7542519622518 268.59773333428154 L 515.9790632559411 270.32267194414635 L 516.2677912808349 272.08917931529624 L 516.2913821626253 273.89930853156665 L 516.3094239251693 275.75526863933413 L 516.5169972966813 277.6594408557528 L 516.5318273665628 279.6143969388106 L 516.8209305969634 281.62292007471746 L 516.8655443830387 283.6880287082712 L 517.1136255239958 285.813003828257 L 518.2695770084351 288.0014203269855 L 518.5062187380511 290.25718318650206 L 519.5430625720692 292.58456941132727 L 519.5849525884247 294.9882768388422 L 519.8776239014312 297.4734812270153 L 519.8952248144667 300.0459033632066 L 520.6653673672457 302.71188838199294 L 520.8816919757107 305.47850005839433 L 520.9998641261172 308.35363360296697 L 521.2349744240273 311.3461514937776 L 521.3044642506115 314.4660482325578 L 521.7005505868663 317.7246517460457 L 521.7312004454258 321.1348716704821 L 522.72506326038 324.7115082579023 L 522.8149226617907 328.4716405820885 L 523.1287900639397 332.435119801053 L 524.8691287004241 336.62520355459316 L 524.9693896457966 341.06938291283825 L 525.5835487352474 345.8004765651784 L 525.678785837775 350.85810308954285 L 525.9546218273998 356.2906997847306 L 526.1460953316007 362.1583512201139 L 526.1562748063171 368.53685147238195 L 528.68665356288 375.52370798423874 L 529.3485719474877 383.24731952738944 L 529.4177672139532 391.8815826391742 L 531.9175018568509 401.6703028158787 L 532.5375593495758 412.97055094644975 L 534.1461132400948 426.3359077105746 L 538.8080162595762 442.69378236551006 L 539.853791227613 463.7827506727857 L 541.2858534141955 493.5059820918459 L 542.5293277474551 544.3181818181819" stroke-linejoin="bevel" stroke-miterlimit="10"/><path fill="none" stroke="none"/></g></g></g><g clip-path="url(#ZfGqGUpTtumB)"><g><g/><g><path fill="#ffffff" stroke="#e5e5e5" paint-order="fill stroke markers" d=" M 123 475 L 255 475 L 255 560 L 123 560 L 123 475 Z" fill-opacity="0.95" stroke-linejoin="bevel" stroke-miterlimit="10" stroke-opacity="0.5"/><text fill="#444444" stroke="none" font-family="helvetica" font-size="22pt" font-style="normal" font-weight="normal" text-decoration="normal" x="158" y="500.5" text-anchor="start" dominant-baseline="central">male</text><g><path fill="none" stroke="blue" paint-order="fill stroke markers" d=" M 133 495 L 153 495" stroke-linejoin="bevel" stroke-miterlimit="10"/></g><text fill="#444444" stroke="none" font-family="helvetica" font-size="22pt" font-style="normal" font-weight="normal" text-decoration="normal" x="158" y="534.5" text-anchor="start" dominant-baseline="central">female</text><g><path fill="none" stroke="red" paint-order="fill stroke markers" d=" M 133 529 L 153 529" stroke-linejoin="bevel" stroke-miterlimit="10"/></g></g></g></g><g/><g/><g><g fill="#444444"><path fill="none" stroke="black" paint-order="fill stroke markers" d=" M 113 570 L 570 570" stroke-linejoin="bevel" stroke-miterlimit="10"/><path fill="none" stroke="black" paint-order="fill stroke markers" d=" M 436 576 L 436 568" stroke-linejoin="bevel" stroke-miterlimit="10"/><path fill="none" stroke="black" paint-order="fill stroke markers" d=" M 524 576 L 524 568" stroke-linejoin="bevel" stroke-miterlimit="10"/><path fill="none" stroke="black" paint-order="fill stroke markers" d=" M 423 574 L 423 570" stroke-linejoin="bevel" stroke-miterlimit="10"/><path fill="none" stroke="black" paint-order="fill stroke markers" d=" M 408 574 L 408 570" stroke-linejoin="bevel" stroke-miterlimit="10"/><path fill="none" stroke="black" paint-order="fill stroke markers" d=" M 391 574 L 391 570" stroke-linejoin="bevel" stroke-miterlimit="10"/><path fill="none" stroke="black" paint-order="fill stroke markers" d=" M 371 574 L 371 570" stroke-linejoin="bevel" stroke-miterlimit="10"/><path fill="none" stroke="black" paint-order="fill stroke markers" d=" M 348 574 L 348 570" stroke-linejoin="bevel" stroke-miterlimit="10"/><path fill="none" stroke="black" paint-order="fill stroke markers" d=" M 320 574 L 320 570" stroke-linejoin="bevel" stroke-miterlimit="10"/><path fill="none" stroke="black" paint-order="fill stroke markers" d=" M 283 574 L 283 570" stroke-linejoin="bevel" stroke-miterlimit="10"/><path fill="none" stroke="black" paint-order="fill stroke markers" d=" M 232 574 L 232 570" stroke-linejoin="bevel" stroke-miterlimit="10"/><path fill="none" stroke="black" paint-order="fill stroke markers" d=" M 144 574 L 144 570" stroke-linejoin="bevel" stroke-miterlimit="10"/><path fill="none" stroke="black" paint-order="fill stroke markers" d=" M 436 574 L 436 570" stroke-linejoin="bevel" stroke-miterlimit="10"/><path fill="none" stroke="black" paint-order="fill stroke markers" d=" M 448 574 L 448 570" stroke-linejoin="bevel" stroke-miterlimit="10"/><path fill="none" stroke="black" paint-order="fill stroke markers" d=" M 459 574 L 459 570" stroke-linejoin="bevel" stroke-miterlimit="10"/><path fill="none" stroke="black" paint-order="fill stroke markers" d=" M 469 574 L 469 570" stroke-linejoin="bevel" stroke-miterlimit="10"/><path fill="none" stroke="black" paint-order="fill stroke markers" d=" M 479 574 L 479 570" stroke-linejoin="bevel" stroke-miterlimit="10"/><path fill="none" stroke="black" paint-order="fill stroke markers" d=" M 487 574 L 487 570" stroke-linejoin="bevel" stroke-miterlimit="10"/><path fill="none" stroke="black" paint-order="fill stroke markers" d=" M 496 574 L 496 570" stroke-linejoin="bevel" stroke-miterlimit="10"/><path fill="none" stroke="black" paint-order="fill stroke markers" d=" M 503 574 L 503 570" stroke-linejoin="bevel" stroke-miterlimit="10"/><path fill="none" stroke="black" paint-order="fill stroke markers" d=" M 511 574 L 511 570" stroke-linejoin="bevel" stroke-miterlimit="10"/><path fill="none" stroke="black" paint-order="fill stroke markers" d=" M 517 574 L 517 570" stroke-linejoin="bevel" stroke-miterlimit="10"/><path fill="none" stroke="black" paint-order="fill stroke markers" d=" M 524 574 L 524 570" stroke-linejoin="bevel" stroke-miterlimit="10"/><path fill="none" stroke="black" paint-order="fill stroke markers" d=" M 530 574 L 530 570" stroke-linejoin="bevel" stroke-miterlimit="10"/><path fill="none" stroke="black" paint-order="fill stroke markers" d=" M 536 574 L 536 570" stroke-linejoin="bevel" stroke-miterlimit="10"/><path fill="none" stroke="black" paint-order="fill stroke markers" d=" M 542 574 L 542 570" stroke-linejoin="bevel" stroke-miterlimit="10"/><path fill="none" stroke="black" paint-order="fill stroke markers" d=" M 547 574 L 547 570" stroke-linejoin="bevel" stroke-miterlimit="10"/><path fill="none" stroke="black" paint-order="fill stroke markers" d=" M 552 574 L 552 570" stroke-linejoin="bevel" stroke-miterlimit="10"/><path fill="none" stroke="black" paint-order="fill stroke markers" d=" M 557 574 L 557 570" stroke-linejoin="bevel" stroke-miterlimit="10"/><path fill="none" stroke="black" paint-order="fill stroke markers" d=" M 562 574 L 562 570" stroke-linejoin="bevel" stroke-miterlimit="10"/><path fill="" stroke="black" paint-order="fill stroke markers" d=" M 567 574 L 567 570" stroke-linejoin="bevel" stroke-miterlimit="10"/><g transform="translate(436,581) rotate(0,0,0)"><text fill="" stroke="none" font-family="helvetica" font-size="26px" font-style="normal" font-weight="normal" text-decoration="normal" x="0" y="0" text-anchor="middle" dominant-baseline="hanging">5</text><g transform="rotate(0,0,0) translate(-436,-581) translate(524,581) rotate(0,0,0)"><text fill="" stroke="none" font-family="helvetica" font-size="26px" font-style="normal" font-weight="normal" text-decoration="normal" x="0" y="0" text-anchor="middle" dominant-baseline="hanging">10</text><g transform="rotate(0,0,0) translate(-524,-581)"/></g></g></g></g><g><g fill="#444444"><path fill="none" stroke="black" paint-order="fill stroke markers" d=" M 113 570 L 113 5" stroke-linejoin="bevel" stroke-miterlimit="10"/><path fill="none" stroke="black" paint-order="fill stroke markers" d=" M 107 537 L 115 537" stroke-linejoin="bevel" stroke-miterlimit="10"/><path fill="none" stroke="black" paint-order="fill stroke markers" d=" M 107 368 L 115 368" stroke-linejoin="bevel" stroke-miterlimit="10"/><path fill="none" stroke="black" paint-order="fill stroke markers" d=" M 107 199 L 115 199" stroke-linejoin="bevel" stroke-miterlimit="10"/><path fill="none" stroke="black" paint-order="fill stroke markers" d=" M 107 31 L 115 31" stroke-linejoin="bevel" stroke-miterlimit="10"/><path fill="none" stroke="black" paint-order="fill stroke markers" d=" M 109 563 L 113 563" stroke-linejoin="bevel" stroke-miterlimit="10"/><path fill="none" stroke="black" paint-order="fill stroke markers" d=" M 109 553 L 113 553" stroke-linejoin="bevel" stroke-miterlimit="10"/><path fill="none" stroke="black" paint-order="fill stroke markers" d=" M 109 545 L 113 545" stroke-linejoin="bevel" stroke-miterlimit="10"/><path fill="none" stroke="black" paint-order="fill stroke markers" d=" M 109 537 L 113 537" stroke-linejoin="bevel" stroke-miterlimit="10"/><path fill="none" stroke="black" paint-order="fill stroke markers" d=" M 109 537 L 113 537" stroke-linejoin="bevel" stroke-miterlimit="10"/><path fill="none" stroke="black" paint-order="fill stroke markers" d=" M 109 486 L 113 486" stroke-linejoin="bevel" stroke-miterlimit="10"/><path fill="none" stroke="black" paint-order="fill stroke markers" d=" M 109 456 L 113 456" stroke-linejoin="bevel" stroke-miterlimit="10"/><path fill="none" stroke="black" paint-order="fill stroke markers" d=" M 109 435 L 113 435" stroke-linejoin="bevel" stroke-miterlimit="10"/><path fill="none" stroke="black" paint-order="fill stroke markers" d=" M 109 419 L 113 419" stroke-linejoin="bevel" stroke-miterlimit="10"/><path fill="none" stroke="black" paint-order="fill stroke markers" d=" M 109 406 L 113 406" stroke-linejoin="bevel" stroke-miterlimit="10"/><path fill="none" stroke="black" paint-order="fill stroke markers" d=" M 109 394 L 113 394" stroke-linejoin="bevel" stroke-miterlimit="10"/><path fill="none" stroke="black" paint-order="fill stroke markers" d=" M 109 385 L 113 385" stroke-linejoin="bevel" stroke-miterlimit="10"/><path fill="none" stroke="black" paint-order="fill stroke markers" d=" M 109 376 L 113 376" stroke-linejoin="bevel" stroke-miterlimit="10"/><path fill="none" stroke="black" paint-order="fill stroke markers" d=" M 109 368 L 113 368" stroke-linejoin="bevel" stroke-miterlimit="10"/><path fill="none" stroke="black" paint-order="fill stroke markers" d=" M 109 368 L 113 368" stroke-linejoin="bevel" stroke-miterlimit="10"/><path fill="none" stroke="black" paint-order="fill stroke markers" d=" M 109 317 L 113 317" stroke-linejoin="bevel" stroke-miterlimit="10"/><path fill="none" stroke="black" paint-order="fill stroke markers" d=" M 109 288 L 113 288" stroke-linejoin="bevel" stroke-miterlimit="10"/><path fill="none" stroke="black" paint-order="fill stroke markers" d=" M 109 267 L 113 267" stroke-linejoin="bevel" stroke-miterlimit="10"/><path fill="none" stroke="black" paint-order="fill stroke markers" d=" M 109 250 L 113 250" stroke-linejoin="bevel" stroke-miterlimit="10"/><path fill="none" stroke="black" paint-order="fill stroke markers" d=" M 109 237 L 113 237" stroke-linejoin="bevel" stroke-miterlimit="10"/><path fill="none" stroke="black" paint-order="fill stroke markers" d=" M 109 226 L 113 226" stroke-linejoin="bevel" stroke-miterlimit="10"/><path fill="none" stroke="black" paint-order="fill stroke markers" d=" M 109 216 L 113 216" stroke-linejoin="bevel" stroke-miterlimit="10"/><path fill="none" stroke="black" paint-order="fill stroke markers" d=" M 109 207 L 113 207" stroke-linejoin="bevel" stroke-miterlimit="10"/><path fill="none" stroke="black" paint-order="fill stroke markers" d=" M 109 199 L 113 199" stroke-linejoin="bevel" stroke-miterlimit="10"/><path fill="none" stroke="black" paint-order="fill stroke markers" d=" M 109 199 L 113 199" stroke-linejoin="bevel" stroke-miterlimit="10"/><path fill="none" stroke="black" paint-order="fill stroke markers" d=" M 109 149 L 113 149" stroke-linejoin="bevel" stroke-miterlimit="10"/><path fill="none" stroke="black" paint-order="fill stroke markers" d=" M 109 119 L 113 119" stroke-linejoin="bevel" stroke-miterlimit="10"/><path fill="none" stroke="black" paint-order="fill stroke markers" d=" M 109 98 L 113 98" stroke-linejoin="bevel" stroke-miterlimit="10"/><path fill="none" stroke="black" paint-order="fill stroke markers" d=" M 109 81 L 113 81" stroke-linejoin="bevel" stroke-miterlimit="10"/><path fill="none" stroke="black" paint-order="fill stroke markers" d=" M 109 68 L 113 68" stroke-linejoin="bevel" stroke-miterlimit="10"/><path fill="none" stroke="black" paint-order="fill stroke markers" d=" M 109 57 L 113 57" stroke-linejoin="bevel" stroke-miterlimit="10"/><path fill="none" stroke="black" paint-order="fill stroke markers" d=" M 109 47 L 113 47" stroke-linejoin="bevel" stroke-miterlimit="10"/><path fill="none" stroke="black" paint-order="fill stroke markers" d=" M 109 38 L 113 38" stroke-linejoin="bevel" stroke-miterlimit="10"/><path fill="none" stroke="black" paint-order="fill stroke markers" d=" M 109 31 L 113 31" stroke-linejoin="bevel" stroke-miterlimit="10"/><path fill="" stroke="black" paint-order="fill stroke markers" d=" M 109 31 L 113 31" stroke-linejoin="bevel" stroke-miterlimit="10"/><g transform="translate(102,537) rotate(0,0,0)"><text fill="" stroke="none" font-family="helvetica" font-size="26px" font-style="normal" font-weight="normal" text-decoration="normal" x="0" y="0" text-anchor="end" dominant-baseline="central">10^-3</text><g transform="rotate(0,0,0) translate(-102,-537) translate(102,368) rotate(0,0,0)"><text fill="" stroke="none" font-family="helvetica" font-size="26px" font-style="normal" font-weight="normal" text-decoration="normal" x="0" y="0" text-anchor="end" dominant-baseline="central">10^-2</text><g transform="rotate(0,0,0) translate(-102,-368) translate(102,199) rotate(0,0,0)"><text fill="" stroke="none" font-family="helvetica" font-size="26px" font-style="normal" font-weight="normal" text-decoration="normal" x="0" y="0" text-anchor="end" dominant-baseline="central">10^-1</text><g transform="rotate(0,0,0) translate(-102,-199) translate(102,31) rotate(0,0,0)"><text fill="" stroke="none" font-family="helvetica" font-size="26px" font-style="normal" font-weight="normal" text-decoration="normal" x="0" y="0" text-anchor="end" dominant-baseline="central">10^0</text><g transform="rotate(0,0,0) translate(-102,-31) translate(26,288) rotate(-90,0,0)"><text fill="" stroke="none" font-family="helvetica" font-size="26pt" font-style="italic" font-weight="normal" text-decoration="normal" x="0" y="0" text-anchor="middle" dominant-baseline="alphabetic">CCDF</text><g transform="rotate(90,0,0) translate(-26,-288)"/></g></g></g></g></g></g></g><g clip-path="url(#zQAEikeEqWpQ)"><g/></g><g clip-path="url(#pEHBPvrBEZZU)"><g/></g></g></g></svg>