<svg version="1.1" xmlns="http://www.w3.org/2000/svg" xmlns:xlink="http://www.w3.org/1999/xlink" width="600" height="600" style="width: 600px; height: 600px;"><defs><clipPath id="pQuTUlfzBkPE"><path fill="none" stroke="none" d=" M 113 5 L 570 5 L 570 570 L 113 570 L 113 5 Z"/></clipPath><clipPath id="CAABHWOeoIVM"><path fill="none" stroke="none" d=" M 113 5 L 570 5 L 570 570 L 113 570 L 113 5 Z"/></clipPath><clipPath id="JRnsgoMMRwTh"><path fill="none" stroke="none" d=" M 113 5 L 570 5 L 570 570 L 113 570 L 113 5 Z"/></clipPath><clipPath id="fbWdaAmXFevE"><path fill="none" stroke="none" d=" M 113 5 L 570 5 L 570 570 L 113 570 L 113 5 Z"/></clipPath><clipPath id="bipHSIBDLoOX"><path fill="none" stroke="none" d=" M 113 5 L 570 5 L 570 570 L 113 570 L 113 5 Z"/></clipPath><clipPath id="iaVLNEbetiXg"><path fill="none" stroke="none" d=" M 113 5 L 570 5 L 570 570 L 113 570 L 113 5 Z"/></clipPath><clipPath id="ieclfqcLKuDU"><path fill="none" stroke="none" d=" M 113 5 L 570 5 L 570 570 L 113 570 L 113 5 Z"/></clipPath></defs><g><g transform="scale(1,1) translate(0.5,0.5)"><rect fill="#FFFFFF" stroke="none" x="0" y="0" width="600" height="600"/><rect fill="#ffffff" stroke="none" x="0" y="0" width="600" height="600"/><rect fill="#FFFFFF" stroke="none" x="113" y="5" width="457" height="565"/><rect fill="#ffffff" stroke="none" x="113" y="5" width="457" height="565"/><g><rect fill="none" stroke="#e5e5e5" x="113" y="5" width="457" height="565" stroke-linejoin="bevel" stroke-miterlimit="10"/></g><g clip-path="url(#pQuTUlfzBkPE)"><g><g><path fill="none" stroke="#e5e5e5" paint-order="fill stroke markers" d=" M 392 570 L 392 5" stroke-linejoin="bevel" stroke-miterlimit="10"/><path fill="none" stroke="#e5e5e5" paint-order="fill stroke markers" d=" M 469 570 L 469 5" stroke-linejoin="bevel" stroke-miterlimit="10"/><path fill="none" stroke="#e5e5e5" paint-order="fill stroke markers" d=" M 515 570 L 515 5" stroke-linejoin="bevel" stroke-miterlimit="10"/><path fill="none" stroke="#e5e5e5" paint-order="fill stroke markers" d=" M 547 570 L 547 5" stroke-linejoin="bevel" stroke-miterlimit="10"/></g></g></g><g clip-path="url(#CAABHWOeoIVM)"><g><g><path fill="none" stroke="#e5e5e5" paint-order="fill stroke markers" d=" M 113 537 L 570 537" stroke-linejoin="bevel" stroke-miterlimit="10"/><path fill="none" stroke="#e5e5e5" paint-order="fill stroke markers" d=" M 113 368 L 570 368" stroke-linejoin="bevel" stroke-miterlimit="10"/><path fill="none" stroke="#e5e5e5" paint-order="fill stroke markers" d=" M 113 199 L 570 199" stroke-linejoin="bevel" stroke-miterlimit="10"/><path fill="none" stroke="#e5e5e5" paint-order="fill stroke markers" d=" M 113 31 L 570 31" stroke-linejoin="bevel" stroke-miterlimit="10"/></g></g></g><g clip-path="url(#JRnsgoMMRwTh)"><g><g><path fill="none" stroke="none"/><path fill="none" stroke="blue" paint-order="fill stroke markers" d=" M 133.77272727272728 30.71133560060298 L 191.5413515471484 30.80734937799855 L 221.73810011747813 30.903489075138054 L 279.8796770473423 30.99975502273685 L 282.0218990503944 31.09614755281484 L 307.50741347804194 31.192666998702975 L 314.14055152760716 31.289313695051078 L 315.0605798152668 31.38608797783411 L 319.82984684471626 31.482990184359096 L 325.7495033114123 31.58002065327321 L 327.4325550894018 31.677179724569214 L 328.83474822949034 31.774467739594456 L 330.73976218770997 31.871885041056203 L 331.22787888944254 31.969431973030623 L 331.42514171400296 32.06710888096882 L 333.86718276655307 32.16491611170477 L 335.08943436170006 32.2628540134624 L 335.43956663808194 32.36092293586353 L 336.35591514054056 32.45912322993479 L 338.10525019795494 32.55745524811516 L 339.0971162601121 32.655919344264476 L 339.5110903893484 32.75451587366979 L 339.9760132116345 32.85324519305368 L 341.1190514752791 32.95210766058233 L 342.0983921147473 33.051103635872664 L 342.15122022688183 33.15023348000068 L 342.90465322700425 33.24949755550904 L 343.0130810882933 33.34889622641526 L 343.4095376311287 33.44842985821958 L 343.5909374809496 33.548098817913 L 344.5990455409733 33.64790347398548 L 345.1619222407087 33.747844196434244 L 346.4139555163255 33.847921356771735 L 346.6833382456143 33.94813532803403 L 346.8304152197532 34.04848648478912 L 347.5069519179666 34.14897520314548 L 348.38641034490695 34.24960186076055 L 348.4878056642681 34.35036683684882 L 348.9982029964488 34.451270512190945 L 349.2488502792696 34.552313269141905 L 349.4019740632466 34.65349549164023 L 349.4690004904238 34.75481756521617 L 349.7224142369413 34.85627987700104 L 350.5969558634473 34.957882815735616 L 351.2244292057885 35.05962677177945 L 351.66506349214524 35.161512137119644 L 353.137533681068 35.26353930538028 L 353.95928587877347 35.3657086718307 L 355.1945631034831 35.46802063339578 L 355.4454253858778 35.570475588664294 L 355.89727592466863 35.673073937898835 L 355.89814012860205 35.77581608304479 L 356.4864873682534 35.878702427739995 L 356.98533950198504 35.98173337732419 L 357.1634254141106 36.08490933884866 L 357.6631418361835 36.188230721085915 L 358.219458243516 36.291697934539116 L 359.1869123736967 36.395311391452196 L 359.8213561147954 36.49907150581976 L 360.59174310418496 36.60297869339627 L 360.8340913442337 36.70703337170744 L 361.6421698968909 36.811235960058866 L 362.4891269640388 36.915586879546936 L 362.7233814114914 37.02008655306895 L 363.0652842862538 37.12473540533324 L 364.3314306572835 37.229533862869744 L 364.9772255020507 37.33448235404012 L 365.7143991810781 37.43958130904866 L 365.9614243948997 37.54483115995254 L 366.68590756483536 37.65023234067269 L 366.9041920622086 37.75578528700407 L 367.2942783542393 37.861490436627264 L 367.71289315632293 37.96734822911901 L 369.158059726912 38.07335910596248 L 369.188962156828 38.17952351055965 L 370.03625199049014 38.28584188824141 L 370.2959380690704 38.39231468627895 L 370.5233585483498 38.498942353895586 L 370.7889131900394 38.605725342277424 L 370.9513636472431 38.71266410458509 L 371.0666305862703 38.81975909596565 L 371.2891686005145 38.92701077356344 L 371.5458209052656 39.03441959653264 L 372.27956213888126 39.14198602604847 L 373.0504635423029 39.249710525319074 L 373.3137860150505 39.357593559597944 L 373.392460260579 39.46563559619574 L 373.62273704070884 39.5738371044921 L 373.6965173634993 39.682198555948275 L 373.9802318216343 39.79072042411951 L 373.986519773698 39.89940318466722 L 373.994469552623 40.00824731537148 L 374.19669467994504 40.11725329614387 L 374.4144272315717 40.22642160903979 L 374.54184065421055 40.335752738271935 L 374.6176531012291 40.44524717022216 L 374.6731960138247 40.55490539345567 L 375.1611506979831 40.66472789873285 L 375.4210956401622 40.774715179023474 L 376.00635401282887 40.88486772951944 L 376.2604049569273 40.99518604764819 L 376.2751925581827 41.10567063308656 L 376.4635732621893 41.21632198777377 L 376.98299531191907 41.32714061592549 L 377.04461540962103 41.43812702404762 L 377.13609546807305 41.549281720950034 L 378.11171163497994 41.6606052177608 L 378.31801191351923 41.77209802793982 L 378.3590943058561 41.883760667293814 L 379.5552606106611 41.995593653989545 L 379.81190933383687 42.107597508569484 L 380.867495940602 42.21977275396546 L 381.03544559668 42.33211991551366 L 381.0778373185432 42.444639520969076 L 381.2221985996216 42.557332100520966 L 381.85950903353995 42.67019818680728 L 382.47858421859576 42.78323831493026 L 383.2068932160099 42.89645302247084 L 383.43840615031706 43.00984284950516 L 383.65183780004105 43.12340833861913 L 383.8390353980091 43.23715003492407 L 385.2231997824301 43.35106848607302 L 385.2567443308944 43.465164242275705 L 385.9334870697669 43.579437856315394 L 385.9813549915675 43.69388988356411 L 386.2859089623294 43.80852088199947 L 386.5007340704767 43.923331412220705 L 386.83060083193493 44.03832203746515 L 386.85754919245767 44.15349332362473 L 386.8688121633958 44.268845839262895 L 387.4694498106206 44.384380155631334 L 387.63688040148713 44.500096846686915 L 389.090142594651 44.61599648910885 L 389.6972071308596 44.73207966231598 L 390.0027160612599 44.848346948483936 L 390.82557643141183 44.9647989325631 L 390.94025897403196 45.08143620229555 L 391.1267417697502 45.198259348233705 L 391.1349630686827 45.31526896375772 L 391.13837281715786 45.432465645093544 L 391.56393177444033 45.5498499913316 L 391.68390200766606 45.66742260444448 L 392.4286427795436 45.78518408930631 L 392.8653033256359 45.90313505371046 L 393.6681497356805 46.021276108389316 L 393.7208665738082 46.13960786703251 L 393.9226967420349 46.258130946306665 L 394.5337640149086 46.37684596587383 L 394.69131129086315 46.49575354841204 L 394.7496997004657 46.61485431963388 L 395.0560873113381 46.734148908306906 L 395.09019015135675 46.85363794627324 L 395.12629168155627 46.973322068469884 L 395.84645267749585 47.09320191294853 L 396.87088824040796 47.21327812089646 L 396.89192097739885 47.33355133665714 L 396.8934249811506 47.45402220775031 L 397.7977184940645 47.574691384893526 L 398.347124342651 47.69555952202336 L 398.5460371225904 47.816627276315785 L 398.9867109082067 47.93789530820857 L 399.1437245087554 48.059364281422745 L 399.54541852048686 48.18103486298355 L 399.75626743060377 48.30290772324361 L 399.82914191458053 48.42498353590429 L 400.3468967699915 48.547262978038134 L 400.6017552378742 48.66974673011191 L 400.7022420591795 48.79243547600845 L 400.94907501878953 48.91532990305063 L 401.41308547298854 49.03843070202356 L 401.6106301201174 49.16173856719831 L 402.69397628750374 49.28525419635537 L 403.2139301276455 49.408978290808136 L 403.36148149303546 49.53291155542718 L 403.6039051894228 49.657054698663956 L 404.8556626623992 49.78140843257552 L 404.92043053495695 49.90597347284847 L 405.10883248936403 50.03075053882412 L 405.2134995993228 50.15574035352347 L 405.5260420860889 50.28094364367166 L 406.25969773441466 50.40636113972448 L 406.3718556977197 50.5319935758929 L 406.68751394168567 50.65784169016911 L 406.6946163968136 50.78390622435279 L 407.19850064328557 50.91018792407738 L 407.2145004304956 51.03668753883619 L 407.35093364999665 51.163405822009395 L 407.67726074858774 51.29034353089082 L 408.46311448659054 51.41750142671481 L 408.7429737755387 51.54488027468449 L 408.9112161644197 51.6724808439983 L 409.4704654105868 51.80030390787863 L 409.506605586901 51.928350243599766 L 409.51000355481716 52.05662063251589 L 409.924575185905 52.18511586009038 L 410.227907300126 52.31383671592391 L 410.25186498648316 52.44278399378413 L 410.42317349611346 52.57195849163486 L 410.62808647224364 52.7013610116652 L 410.94039059755016 52.830992360320465 L 410.94924832320135 52.96085334833185 L 411.318213885954 53.09094479074611 L 411.93681934677113 53.221267506957474 L 413.14382288169514 53.35182232073805 L 413.1896552054699 53.48261006026871 L 413.44383234540663 53.61363155817128 L 413.6447617246607 53.744887651540125 L 413.87892415153107 53.87637918197379 L 414.25690053887473 54.008106995608046 L 414.8995628959066 54.140071943148314 L 414.98360605884056 54.27227487990217 L 415.3967286798288 54.40471666581345 L 416.0089747753545 54.53739816549523 L 416.34230039011067 54.67032024826358 L 416.49205909862377 54.80348378817246 L 416.4966855464086 54.936889664047385 L 416.58708409161284 55.07053875952056 L 416.71330305631415 55.20443196306633 L 416.8196976428223 55.3385701680362 L 416.9054296913761 55.472954272694324 L 417.06123482959356 55.607585180254546 L 417.06538662531494 55.74246379891588 L 418.30637318351796 55.877591041899564 L 418.42414030327035 56.01296782748682 L 418.534237293334 56.1485950790551 L 418.57801031527015 56.28447372511664 L 418.58589295476463 56.420604699356545 L 418.64363219950326 56.55698894067132 L 418.76591935939683 56.69362739320741 L 418.9204277603558 56.830521006400545 L 419.1217367150648 56.96767073501553 L 419.1392069711462 57.10507753918614 L 419.244684218253 57.2427423844548 L 419.5247148772485 57.380666241814765 L 419.6110831675912 57.51885008774957 L 420.095793934045 57.65729490427543 L 420.1684482659326 57.79600167898309 L 420.7353654305981 57.93497140507975 L 421.0464301772918 58.074205081431955 L 421.2359505494925 58.21370371260883 L 421.56000151626563 58.35346830892502 L 421.8822085490545 58.49349988648521 L 421.92816172618654 58.63379946722813 L 422.4297775923104 58.77436807897135 L 422.82490821243255 58.91520675545644 L 423.48444640877983 59.05631653639455 L 423.88321534268584 59.19769846751274 L 424.40221803694857 59.339353600599964 L 425.35262978847595 59.4812829935546 L 425.401805360572 59.62348771043139 L 425.6136219495568 59.76596882148965 L 425.6997971446971 59.90872740324119 L 425.7014273238757 60.05176453849958 L 425.83967311096427 60.19508131642914 L 425.8729536705613 60.33867883259467 L 425.89339339871304 60.48255818901197 L 426.1650602873714 60.62672049419831 L 426.77190295636393 60.77116686322387 L 426.836777275796 60.91589841776329 L 427.14464499443096 61.0609162861482 L 427.23634044588954 61.206221603419465 L 427.7161260466789 61.3518155113814 L 427.9661105469105 61.49769915865471 L 428.38563166761594 61.64387370073126 L 428.5022171882674 61.79034030002913 L 428.57456797060564 61.93710012594761 L 428.6833899302187 62.08415435492384 L 428.694335451547 62.23150417048873 L 428.96895403517385 62.379150763324844 L 429.61708973148853 62.52709533132321 L 429.6565540445701 62.67533907964264 L 429.7258731541792 62.82388322076781 L 429.8941877944081 62.97272897456935 L 430.05105391583663 63.12187756836357 L 430.0693940259557 63.271330236973256 L 430.3112094191436 63.42108822278925 L 430.5031513865778 63.57115277583205 L 431.06257541560996 63.72152515381464 L 431.21430790066927 63.872206622205795 L 431.33861909815846 64.02319845429389 L 431.41458485290644 64.17450193125126 L 431.5887202649559 64.32611834219972 L 431.8055776378414 64.47804898427648 L 432.4411711723859 64.63029516270046 L 432.88696094946346 64.7828581908397 L 433.2600719502759 64.9357393902796 L 433.48270759985223 65.08894009089101 L 433.78573277993655 65.24246163090032 L 434.2323771781165 65.39630535695909 L 434.4043240563907 65.55047262421522 L 434.5862602575564 65.7049647963845 L 435.10189053900325 65.85978324582277 L 435.3300389509114 66.01492935359948 L 435.39350478070077 66.1704045095712 L 435.40644717459395 66.32621011245658 L 435.55668590266936 66.48234756991195 L 435.6221288947967 66.63881829860713 L 436.05977452280905 66.79562372430325 L 436.1406990594459 66.95276528193 L 436.23081408824635 67.11024441566491 L 436.2767665004432 67.26806257901285 L 436.5268443748514 67.4262212348865 L 436.91208549200684 67.58472185568763 L 437.1536949646275 67.7435659233895 L 437.25597709815224 67.9027549296199 L 437.39494973386184 68.06229037574542 L 437.4658311971818 68.2221737729559 L 438.0357858071133 68.38240664235087 L 438.17879961163504 68.5429905150259 L 438.27933188360777 68.70392693216098 L 438.5196509906879 68.86521744510867 L 438.80237617907414 69.02686361548416 L 438.9850245793871 69.18886701525605 L 439.31481233220427 69.35122922683746 L 439.5404357242345 69.51395184317983 L 440.4031910964136 69.67703646786572 L 440.6313315344879 69.84048471520418 L 441.5558207288272 70.00429821032634 L 441.81113155561144 70.16847858928253 L 441.85448643902026 70.33302749914037 L 441.9881701315557 70.49794659808373 L 442.2272415020789 70.66323755551309 L 442.2836659866902 70.82890205214682 L 442.4841497079108 70.99494178012401 L 442.53161575647147 71.16135844310787 L 442.6806054327279 71.32815375639075 L 443.2552017337325 71.49532944700013 L 443.46215790730656 71.66288725380616 L 443.5878709146153 71.8308289276298 L 443.608269556796 71.99915623135297 L 443.93254880604906 72.16787094002933 L 443.933879273283 72.33697484099667 L 444.0494895789895 72.50646973399057 L 444.1406556862328 72.67635743125908 L 444.3345052673319 72.84663975767944 L 444.3882007377484 73.0173185508753 L 444.7199415418211 73.18839566133602 L 444.890899134154 73.35987295253653 L 444.89375382811556 73.53175230105984 L 445.817673247612 73.70403559671945 L 445.82909219731215 73.87672474268498 L 446.32371816753044 74.04982165560739 L 446.33420431058335 74.22332826574717 L 446.50480376068646 74.3972465171035 L 446.70487235948775 74.5715783675443 L 446.8100030740963 74.74632578893949 L 447.1841518662275 74.92149076729407 L 447.3396507871192 75.0970753028837 L 447.637397467227 75.27308141039191 L 447.6440169168451 75.44951111904862 L 448.01917842200214 75.62636647277077 L 448.24280174679603 75.80364953030397 L 448.3305462540185 75.98136236536686 L 448.41915997636454 76.15950706679621 L 448.93036859465724 76.33808573869419 L 448.95769524056675 76.5171005005779 L 449.180296163989 76.6965534875302 L 449.78269777443967 76.87644685035195 L 450.07179350483995 77.05678275571745 L 450.6155689767556 77.23756338633063 L 450.9209322566219 77.41879094108356 L 451.20454562286574 77.60046763521711 L 451.2408567364241 77.782595700483 L 452.05572513862353 77.96517738530889 L 452.8380079637701 78.14821495496454 L 452.8531579021841 78.33171069173045 L 452.92574897669783 78.51566689506882 L 453.0396949008696 78.70008588179621 L 453.3348746265597 78.88496998625862 L 453.3420717780363 79.07032156050934 L 453.69094712835016 79.25614297448743 L 453.9822746802606 79.44243661620067 L 454.19118780724136 79.62920489190878 L 454.3367277350887 79.8164502263104 L 454.40181328007066 80.00417506273203 L 454.42108291359426 80.19238186331904 L 454.66814466261525 80.3810731092293 L 454.7891160964085 80.5702513008302 L 455.08267067997804 80.7599189578965 L 455.5189971508325 80.95007861981242 L 455.7242234536223 81.14073284577518 L 456.2085286019565 81.33188421500193 L 456.3988135237727 81.52353532693894 L 456.4283179963325 81.71568880147396 L 456.68539371013856 81.90834727915075 L 456.8694708564163 82.10151342138704 L 457.8360103402738 82.29518991069506 L 457.8641794425295 82.48937945090518 L 458.236366987883 82.68408476739211 L 458.4840551697764 82.87930860730467 L 458.67424290351 83.07505373979825 L 458.67979402417365 83.27132295627058 L 458.69773491134333 83.46811907060038 L 459.5000400124027 83.66544491938959 L 459.52727310585254 83.86330336220857 L 460.2274960795395 84.061697281845 L 460.2459854436167 84.26062958455549 L 460.48455865555525 84.46010320032144 L 460.8452433441985 84.66012108310764 L 461.0223642445994 84.86068621112503 L 461.2806768407557 85.06180158709645 L 461.77085598164433 85.26347023852685 L 461.96682030782466 85.46569521797608 L 462.31302325450474 85.66847960333695 L 462.3461977894472 85.87182649811535 L 462.78509383281073 86.07573903171618 L 462.9411725975629 86.28022035973169 L 463.0514700987226 86.48527366423474 L 463.33097155496046 86.69090215407584 L 463.75936379001155 86.89710906518462 L 464.13432027595246 87.10389766087508 L 464.4625503933056 87.31127123215566 L 465.5105506318843 87.5192330980434 L 465.52520109812224 87.72778660588278 L 465.6092161793309 87.93693513166914 L 465.6208799198857 88.14668208037602 L 465.65631891916354 88.3570308862885 L 465.69088326208237 88.56798501333998 L 465.692098174577 88.77954795545486 L 466.34784470607576 88.99172323689561 L 466.3805835838251 89.20451441261491 L 466.49879031542645 89.41792506861333 L 466.68758987777915 89.6319588223015 L 467.1725815383488 89.84661932286849 L 467.44047175043175 90.06191025165504 L 467.4516060265647 90.27783532253164 L 467.57992927377427 90.49439828228418 L 467.9196774058861 90.71160291100313 L 468.24221071962455 90.92945302247972 L 468.30619285147526 91.14795246460784 L 468.373675920191 91.36710511979152 L 468.41306200711483 91.58691490535932 L 469.13013763186683 91.80738577398415 L 469.55211238145455 92.02852171410967 L 469.7205380238262 92.25032675038352 L 469.8934589708776 92.47280494409671 L 469.94185038238254 92.6959603936296 L 470.0427074079487 92.91979723490545 L 470.1684873686867 93.1443196418495 L 470.1783021540967 93.36953182685687 L 470.6117452948206 93.59543804126605 L 470.77250913718103 93.82204257584112 L 471.0554440494714 94.04934976126009 L 471.1660390828042 94.27736396861167 L 471.9299140906532 94.50608960990002 L 472.08860335925107 94.73553113855667 L 472.6180665739296 94.96569304996058 L 472.68737899603883 95.1965798819673 L 472.84828910857186 95.42819621544476 L 472.88119302522733 95.6605466748199 L 472.88350473474213 95.89363592863151 L 472.9037492438478 96.12746869009368 L 472.9481134587775 96.36204971766745 L 473.33143696929915 96.59738381564216 L 473.41362707842575 96.83347583472516 L 473.6302292415971 97.07033067264251 L 473.71209014537567 97.307953274748 L 473.8079864183938 97.54634863464281 L 473.89631012941715 97.78552179480573 L 474.03221356181353 98.02547784723237 L 474.32874704146667 98.26622193408622 L 474.6981691600909 98.50775924835926 L 474.770792683032 98.75009503454453 L 474.89210618673246 98.99323458931946 L 475.71853001161355 99.2371832622402 L 475.980256400783 99.48194645644776 L 476.8081517632039 99.7275296293866 L 476.98979801823026 99.97393829353427 L 477.1766379074795 100.22117801714404 L 477.31801745035756 100.46925442499992 L 477.63154682019933 100.71817319918432 L 477.66025365836384 100.96794007985932 L 477.7377556369634 101.21856086606044 L 477.8181777165134 101.4700414165049 L 478.3369501210571 101.72238765041328 L 478.9728863873225 101.97560554834536 L 479.73443404725504 102.22970115305077 L 479.92458999637694 102.48468057033415 L 480.46159913119186 102.74054996993567 L 480.6746968285298 102.99731558642628 L 480.85533521150535 103.2549837201201 L 480.899125050794 103.5135607380011 L 480.9250653042916 103.77305307466764 L 480.95436658442514 104.03346723329338 L 480.9600916539376 104.29480978660456 L 481.12445160323375 104.55708737787603 L 481.2316978515443 104.82030672194401 L 481.4032595487475 105.08447460623808 L 481.48833180037053 105.34959789183102 L 481.6039143535831 105.6156835145083 L 481.7706283249506 105.88273848585646 L 482.0203905395122 106.15076989437205 L 482.5182560317011 106.41978490659045 L 482.9255821809508 106.68979076823553 L 483.28370836311495 106.96079480539089 L 483.5587451319283 107.2328044256925 L 483.6334745417714 107.50582711954331 L 483.82995248660905 107.77987046135149 L 484.1607701376368 108.05494211079076 L 484.30309145068605 108.33104981408547 L 484.3697639370212 108.60820140531894 L 484.6992583323711 108.88640480776792 L 484.7422171426823 109.16566803526092 L 484.98363251820075 109.44599919356403 L 485.19946979672807 109.72740648179229 L 485.24278072341184 110.00989819384853 L 485.3030086327417 110.29348271989056 L 485.40086206916095 110.5781685478255 L 485.618533072017 110.86396426483554 L 485.80136237585356 111.15087855893051 L 485.86884265475084 111.43892022053427 L 486.1431134686176 111.72809814409919 L 486.19034085352945 112.01842132975537 L 486.94189829417803 112.30989888499056 L 487.3197516662401 112.60254002636498 L 487.36106798938124 112.89635408125974 L 487.59707079629743 113.19135048966064 L 487.85360641354765 113.48753880597849 L 487.88351781571095 113.78492870090525 L 487.9205358841408 114.08352996330916 L 488.0749668589074 114.3833525021679 L 488.29327087405363 114.68440634854176 L 488.44814382246665 114.9867016575871 L 488.453682924765 115.29024871061239 L 488.5502953734974 115.59505791717561 L 488.8584038603674 115.90113981722698 L 489.16795215738273 116.208505083295 L 489.2631220421983 116.51716452272046 L 489.5014529627384 116.82712907993533 L 489.68206330419105 117.13840983879254 L 489.82021856035175 117.4510180249431 L 489.8292272268501 117.7649650082659 L 490.20204264662516 118.08026230534881 L 490.24547330613456 118.39692158202348 L 490.3515471232665 118.71495465595586 L 490.45630494217926 119.0343734992918 L 490.5711573064104 119.35519024136175 L 490.70988910747076 119.67741717144457 L 490.88119370145887 120.00106674159196 L 491.1804668687369 120.32615156951573 L 491.19425117141833 120.65268444154003 L 491.26259127950317 120.98067831561843 L 491.27514636777147 121.31014632441963 L 491.53188421683296 121.64110177848278 L 491.6027619659699 121.97355816944383 L 491.7060187408724 122.30752917333604 L 492.09730268646655 122.6430286539657 L 492.3021768320901 122.98007066636524 L 492.59348281364583 123.31866946032648 L 492.6166561643808 123.65883948401535 L 492.623695536771 124.00059538767192 L 492.72297140004633 124.34395202739574 L 492.7728437971144 124.68892446902089 L 492.8019088527201 125.03552799208313 L 492.86463729850084 125.38377809388021 L 493.33493413732333 125.73369049362998 L 493.42433700763445 126.08528113672782 L 493.426357342809 126.43856619910667 L 493.46370004639635 126.79356209170282 L 494.3114433164104 127.1502854650301 L 494.56881885931205 127.50875321386604 L 494.5900006088235 127.86898248205335 L 494.5929613638098 128.23099066741952 L 494.62299054949676 128.5947954268189 L 494.7573325298803 128.9604146813005 L 494.7955950932721 129.32786662140467 L 494.92867452466066 129.6971697125946 L 495.2007934691732 130.06834270082334 L 495.24019488653585 130.44140461824463 L 495.38270002397377 130.81637478906794 L 495.4861322072912 131.1932728355652 L 495.95102213736305 131.57211868423246 L 496.0276107936142 131.95293257211108 L 496.0427937654381 132.3357350532749 L 496.13043178808476 132.7205470054866 L 496.25420937714296 133.1073896370309 L 496.33458895512666 133.49628449372796 L 496.9263739896829 133.8872534661342 L 497.6268066239737 134.28031879693634 L 497.74427824885976 134.67550308854453 L 497.90858518018575 135.07282931089134 L 498.0741537790963 135.47232080944343 L 498.15157252701243 135.8740013134323 L 498.327319153346 136.27789494431198 L 498.61425572251284 136.6840262244512 L 498.70132483574906 137.09242008606753 L 498.78115585811963 137.50310188041175 L 498.8267603453617 137.91609738721093 L 499.2480204413287 138.33143282437925 L 499.85428696965204 138.74913485800505 L 499.93742607981477 139.16923061262435 L 500.3056786007687 139.59174768179076 L 501.17095297649917 140.01671413895087 L 501.1834696246826 140.44415854863746 L 501.2192517183033 140.87410997799088 L 501.3411283042211 141.30659800862009 L 501.5723677960799 141.74165274881568 L 501.62660041024105 142.17930484612742 L 501.65481838236735 142.61958550032006 L 503.0157132238109 143.06252647671943 L 503.16810923618436 143.5081601199655 L 503.34409298791064 143.9565193681854 L 503.41120442307704 144.40763776760195 L 503.45885225118127 144.86154948759588 L 503.5813453883965 145.31828933623586 L 503.6136248754928 145.77789277629648 L 503.8157122017658 146.24039594178072 L 503.8928508095073 146.70583565496736 L 504.0025183425601 147.1742494440034 L 504.36793495470397 147.64567556106118 L 504.47135037163764 148.12015300108385 L 504.81013993210576 148.59772152114164 L 504.85305790214215 149.07842166042207 L 504.9616156100775 149.56229476088043 L 505.0953862685771 150.04938298857604 L 505.21432294666596 150.5397293557225 L 505.2250314900835 151.03337774347995 L 505.53838872587556 151.53037292552028 L 505.5777541194018 152.03076059239635 L 506.0809417156371 152.5345873767492 L 506.31920276122537 153.04190087938673 L 506.42663579096705 153.55274969627158 L 506.44468197787666 154.067183446456 L 506.4921275345957 154.5852528010036 L 506.9552637765941 155.10700951294046 L 507.05922435068555 155.63250644827986 L 507.502783893605 156.16179761816693 L 508.18655807583747 156.69493821219237 L 508.24999079573365 157.2319846329263 L 508.31046859222414 157.77299453172685 L 508.3907294672387 158.31802684587922 L 508.4350045236799 158.86714183712667 L 508.732127966715 159.42040113165484 L 508.7511295984542 159.97786776159688 L 508.78070348908886 160.53960620812825 L 508.8299638888951 161.1056824462264 L 508.8456930484744 161.6761639911714 L 509.2980267844232 162.25111994687012 L 509.3600927812918 162.83062105609122 L 509.3715125769504 163.41473975270088 L 509.68867289359133 164.00355021599654 L 509.7123349242181 164.59712842724122 L 509.8235238734626 165.19555222850374 L 509.85670839068166 165.79890138392307 L 509.9434740747905 166.4072576435115 L 510.3740593358935 167.02070480963084 L 510.67466807508197 167.63932880627124 L 510.7174591731211 168.263217751279 L 510.8112725614103 168.89246203168466 L 510.86478821372026 169.52715438229177 L 511.0763677700967 170.16738996769766 L 511.51905767713373 170.8132664679278 L 511.54511236954073 171.46488416787594 L 511.6911633002677 172.1223460507556 L 511.93321682603795 172.78575789577968 L 512.2475828579109 173.4552283803016 L 512.4662417319075 174.13086918666227 L 512.9239879560928 174.81279511400788 L 513.0202464280105 175.50112419535685 L 513.0606952354594 176.19597782021611 L 513.4118851837039 176.89748086306366 L 513.8510003194829 177.6057618180388 L 513.8812769446378 178.32095294020195 L 514.0019356716507 179.04319039375537 L 514.1611092354515 179.77261440763635 L 514.1659994228344 180.50936943893043 L 514.6450445204334 181.25360434458054 L 514.6653876216922 182.00547256190112 L 515.3145238357072 182.76513229844704 L 515.398362215901 183.53274673182256 L 515.8215917804972 184.30848422006392 L 516.1743548229297 185.09251852327225 L 516.3738007559823 185.88502903722724 L 516.4538875412175 186.6862010397682 L 516.483654861511 187.4962259507871 L 516.501528511809 188.3153016067476 L 516.5741005063999 189.1436325507151 L 516.6824005114208 189.9814303389602 L 516.8664327127739 190.82891386528667 L 517.2120005694887 191.68630970432673 L 517.3394065903382 192.55385247515153 L 517.6283090843287 193.4317852266559 L 517.9327763511944 194.32035984630153 L 518.054456094585 195.21983749393797 L 518.1078942722434 196.13048906257188 L 518.1318910548941 197.05259566811657 L 518.2227624880197 197.9864491703393 L 519.1484647387349 198.93235272741975 L 519.6463375109935 199.89062138675803 L 520.1762010940076 200.861582714912 L 520.1906661652927 201.8455774698158 L 520.8766261326305 202.84296031873225 L 521.183340706819 203.85410060572258 L 521.1977804156761 204.87938317279185 L 521.6332436573043 205.9192092392763 L 521.633944675649 206.97399734450278 L 521.6474522163303 208.0441843592622 L 521.6630960487344 209.13022657221512 L 521.8574065735863 210.2326008579907 L 522.2650738027904 211.35180593446415 L 522.5593715119021 212.48836371750724 L 522.7590075680757 213.64282078242718 L 522.9028013365551 214.8157499423325 L 523.2061484232943 216.0077519548397 L 523.6576978336714 217.21945736984736 L 523.8579147679351 218.4515285326072 L 524.2259118541109 219.70466175802056 L 524.4121024299475 220.97958969403368 L 524.5525272202516 222.2770838942119 L 524.6063970796863 223.5979576221156 L 524.7305912080897 224.94306891299829 L 525.2052113884246 226.3133239216927 L 525.2151934457744 227.70968058939962 L 525.3869393307948 229.1331526665379 L 525.3946038511986 230.58481413397226 L 525.6275860848502 232.0658040709165 L 525.9518909685783 233.5773320247829 L 525.9961148927864 235.12068394639982 L 526.0617199549267 236.69722876356315 L 526.1591647541624 238.308425677123 L 526.2786452885738 239.95583227705106 L 526.3172422459388 241.64111359162257 L 526.6021760682452 243.36605220148738 L 526.6962755580748 245.13255957263732 L 526.8654690467108 246.94268878890767 L 527.0358159837272 248.7986488966751 L 527.0765843739185 250.70282111309388 L 527.5464529852434 252.6577771961517 L 527.7942031952639 254.66630033205837 L 528.4708726468533 256.7314089656124 L 528.5041710418368 258.8563840855983 L 528.5670585656085 261.04480058432677 L 528.6682352754277 263.30056344384326 L 528.9239352872434 265.6279496686684 L 529.0650241544328 268.0316570961834 L 529.1696156798065 270.5168614843565 L 529.3518341161189 273.08928362054775 L 529.3784567743226 275.75526863933413 L 529.74655467404 278.5218803157355 L 530.2935347109071 281.39701386030816 L 530.6761566843927 284.3895317511188 L 530.8070846981476 287.50942848989905 L 531.0814779653814 290.7680320033869 L 531.1662910064802 294.17825192782334 L 531.1777117898278 297.7548885152436 L 531.5286328624424 301.5150208394297 L 531.6606774814641 305.47850005839433 L 531.9609990054048 309.66858381193396 L 532.0219768311505 314.11276317017894 L 532.7324669242788 318.84385682251906 L 532.747269139234 323.9014833468834 L 533.2049684456662 329.33408004207115 L 534.2338775122348 335.2017314774545 L 534.2657350783741 341.5802317297231 L 535.487529952135 348.56708824157977 L 535.7897594770232 356.2906997847306 L 536.1906844970192 364.92496289651524 L 536.9119018033932 374.71368307321984 L 537.0349739760597 386.0139312037909 L 538.3014110180715 399.3792879679157 L 539.9007922286719 415.7371626228511 L 540.1003488861331 436.82613093012674 L 540.8432575982488 466.54936234918705 L 542.0501950079827 517.3615620755229" stroke-linejoin="bevel" stroke-miterlimit="10"/><path fill="none" stroke="none"/><path fill="none" stroke="blue" paint-order="fill stroke markers" d=" M 549.2272727272727 NaN" stroke-linejoin="bevel" stroke-miterlimit="10"/></g></g></g><g clip-path="url(#fbWdaAmXFevE)"><g><g><path fill="none" stroke="none"/><path fill="none" stroke="red" paint-order="fill stroke markers" d=" M 260.41944230935303 30.68181818181813 L 300.10446269287087 30.748249095799565 L 302.65710470349984 30.81474026458659 L 307.64392287801525 30.88129179758414 L 334.11457218379724 30.947903804495468 L 334.25198732215904 31.01457639532316 L 335.7093243301629 31.081309680370282 L 337.93073987729656 31.14810377024139 L 338.61902535477844 31.21495877584357 L 340.12243103577464 31.28187480838767 L 342.0430625541302 31.34885197938945 L 342.54473978545127 31.415890400670378 L 348.7356945027209 31.482990184359096 L 352.51002251419595 31.550151442892798 L 352.65526384944883 31.617374289017334 L 356.57506595727943 31.68465883578949 L 363.23854960215147 31.752005196577556 L 363.55644766259184 31.81941348506234 L 368.99934440196625 31.88688381523889 L 369.24938133209764 31.954416301416927 L 369.8241380457529 32.02201105822269 L 372.14487796396855 32.08966820059959 L 372.7522123062812 32.15738784380983 L 373.0473350106437 32.22517010343506 L 374.28045285838607 32.293015095377996 L 376.4815008436934 32.36092293586353 L 376.98177069286663 32.42889374143954 L 377.00856267597226 32.496927628978824 L 378.7223861871408 32.565024715679556 L 379.5469137469266 32.63318511906698 L 380.5811254667287 32.70140895699444 L 380.9349123201865 32.76969634764441 L 382.47483184535247 32.83804740953042 L 382.76350533417093 32.90646226149738 L 383.58029983875286 32.974941022723556 L 385.3620626395567 33.04348381272132 L 385.625482472256 33.112090751338656 L 385.8453960022804 33.18076195876017 L 386.02775150354245 33.24949755550904 L 386.58431884091647 33.31829766244732 L 386.6463348539247 33.38716240077781 L 387.761840378825 33.45609189204538 L 389.2179400869023 33.525086258137776 L 389.79379047690406 33.59414562128745 L 389.98902084332303 33.66327010407247 L 391.80549120591695 33.7324598294183 L 392.0361832217856 33.80171492059833 L 392.155467079391 33.87103550123618 L 392.8338718383692 33.9404216953061 L 393.2534794211176 34.009873627134766 L 393.30634464564105 34.07939142140276 L 393.63443948143936 34.14897520314548 L 394.1369976187186 34.218625097754966 L 394.14282695453204 34.288341230980905 L 394.43433271076026 34.35812372893179 L 395.3465395171277 34.42797271807717 L 395.3704277803235 34.49788832524803 L 396.0341921055461 34.567870677638666 L 396.21916072864684 34.637919902808335 L 396.7609531794785 34.708036128681556 L 396.82718185423454 34.7782194835512 L 396.89914205966994 34.84847009607836 L 398.21181511535167 34.9187880952943 L 398.29765483190255 34.98917361060262 L 398.60479666601213 35.05962677177945 L 399.5976959271786 35.130147708975414 L 400.63270595952855 35.20073655271756 L 400.70238337348076 35.27139343390991 L 400.86186341956767 35.34211848383575 L 401.4432801442165 35.41291183415831 L 401.910731782235 35.48377361692292 L 402.253582407459 35.55470396455826 L 402.31682501872274 35.62570300987761 L 402.55808785538443 35.69677088608057 L 402.76518460810576 35.767907726754515 L 403.2400393532676 35.83911366587597 L 403.53993742017974 35.91038883781266 L 403.82988186214635 35.98173337732419 L 405.1888066654999 36.0531474195642 L 405.54562970222463 36.12463110008173 L 405.9590692043658 36.196184554822594 L 406.01559229650377 36.267807920131304 L 406.073181494735 36.33950133275209 L 407.65380987496235 36.41126492983119 L 408.9735330541518 36.48309884891762 L 409.1115927889085 36.55500322796547 L 409.1823019004503 36.626978205335035 L 409.60191765521364 36.699023919794286 L 409.7761664270163 36.77114051052138 L 410.01832214882484 36.84332811710499 L 410.0403548919382 36.915586879546936 L 410.38181197436325 36.98791693826331 L 410.82710271772487 37.0603184340863 L 410.92733007598235 37.13279150826588 L 411.47516104793414 37.205336302471096 L 411.95147229592635 37.27795295879241 L 412.16393327948555 37.35064161974253 L 412.18380120496494 37.42340242825878 L 412.28727140454885 37.49623552770436 L 412.4504001571989 37.56914106187048 L 413.3006620945039 37.642119174977665 L 413.5351301197735 37.7151700116774 L 414.59156254559747 37.788293717054216 L 414.7333875871497 37.861490436627264 L 415.0829343281454 37.934760316352026 L 415.2038593628481 38.00810350262202 L 415.5730153400992 38.081520142270506 L 415.91644085726745 38.155010382572755 L 416.7010275369342 38.22857437124674 L 417.18682063740556 38.3022122564563 L 417.20801978923686 38.37592418681186 L 417.22700421697994 38.449710311372314 L 417.8398159873507 38.5235707796478 L 418.51326973692034 38.597505741600344 L 418.68011975710965 38.671515347646164 L 418.8365873739983 38.745599748657924 L 418.9386623810926 38.81975909596565 L 419.1990227728778 38.893993541359464 L 419.56503976202947 38.96830323709082 L 419.70676616611905 39.04268833587503 L 419.89009760606467 39.11714899089236 L 420.31785740216594 39.19168535579058 L 420.5545513275387 39.26629758468653 L 420.7859198564654 39.340985832168144 L 421.0229195944008 39.41575025329632 L 421.223025816284 39.49059100360671 L 421.4379930549032 39.56550823911232 L 422.0390046215711 39.64050211630422 L 422.042476799763 39.71557279215506 L 422.0554756764518 39.79072042411951 L 422.7891096878694 39.86594517013759 L 423.1064620237404 39.94124718863566 L 423.544571026372 40.016626638528805 L 423.75369137522546 40.09208367922304 L 423.7581381009246 40.167618470616844 L 423.928066407388 40.24323117310382 L 424.1122294003093 40.31892194757427 L 424.40201830468976 40.394690955417104 L 424.4904823620348 40.47053835852273 L 424.5055454694029 40.54646431928404 L 425.8618571296322 40.622469000599494 L 426.1930862947896 40.698552565874365 L 426.3104531714324 40.774715179023474 L 426.82633011765813 40.850957004473 L 426.9109022381963 40.92727820716277 L 427.32494529000144 41.00367895254817 L 427.3474333015762 41.08015940660255 L 427.65080166513707 41.15671973581925 L 428.011179187594 41.233360107214025 L 428.0265140053545 41.31008068832648 L 428.1372209705096 41.38688164722328 L 428.30726417742204 41.46376315249972 L 428.4227013670993 41.54072537328216 L 428.9329821095269 41.61776847922988 L 429.05183426943455 41.69489264053823 L 429.3010153200151 41.77209802793982 L 429.4538098262222 41.84938481270751 L 430.468130833901 41.926753166656226 L 430.59395099273416 42.00420326214578 L 430.9417115134795 42.0817352720826 L 430.95899034965396 42.15934936992244 L 431.07742690069784 42.23704572967256 L 431.19812596147 42.314824525894096 L 431.50282785864295 42.39268593370457 L 431.51469015320953 42.47063012877959 L 432.14665946504334 42.54865728735638 L 432.22379002710323 42.62676758623502 L 432.3043047687184 42.70496120278153 L 432.5799913326142 42.78323831493026 L 432.7115081225715 42.8615991011859 L 432.78058634567554 42.940043740626265 L 432.9961721321921 43.01857241290486 L 433.09734148905727 43.097185298253066 L 433.1326571799164 43.17588257748241 L 433.1592300260382 43.25466443198786 L 433.24818770633203 43.333531043749645 L 433.52238655180435 43.41248259533586 L 433.63681061196706 43.49151926990521 L 433.65164860522685 43.57064125120951 L 434.12336565696137 43.64984872359605 L 434.2949342303959 43.72914187201059 L 434.4510392776589 43.80852088199947 L 434.8849704654715 43.88798593971251 L 435.0661824881282 43.96753723190557 L 435.1397339159313 44.04717494594297 L 435.1560027097511 44.126899269800674 L 435.33435329248977 44.206710392068544 L 435.49457997924975 44.28660850195263 L 435.53127223009204 44.36659378927891 L 435.5450052284113 44.44666644449512 L 436.0377614913027 44.526826658673826 L 436.245138059617 44.60707462351502 L 436.6410076646944 44.68741053134886 L 436.88317856948146 44.76783457513886 L 436.9080454203323 44.848346948483936 L 437.20215800211565 44.928947845621906 L 437.59772487980945 45.009637461431794 L 437.7612950714374 45.09041599143666 L 437.9624319198552 45.17128363180723 L 438.392275005546 45.252240579363615 L 438.48145444831505 45.33328703157906 L 438.6437224303252 45.41442318658221 L 438.6580912168651 45.49564924316053 L 438.67914060082757 45.5769654007629 L 439.0668641076565 45.658371859502836 L 439.3433288347108 45.739868820161064 L 439.40474993843344 45.82145648418873 L 439.6848680532108 45.90313505371046 L 440.10785964073744 45.984904731527195 L 440.1181327059176 46.06676572111917 L 440.132458628457 46.148718226649294 L 440.1808880715885 46.23076245296579 L 440.2946306890087 46.3128986056056 L 440.5713325937668 46.39512689079697 L 441.0704491382013 46.47744751546338 L 441.1612450219911 46.55986068722598 L 441.2418442005758 46.6423666144068 L 441.33045233497063 46.72496550603216 L 441.7782628428864 46.80765757183599 L 441.9636235665596 46.890443022262616 L 442.17638643626145 46.973322068469884 L 442.38810454567744 47.05629492233288 L 442.411222556294 47.13936179644702 L 442.5193202224269 47.2225229041311 L 442.90103443574935 47.30577845943094 L 443.07197367603226 47.38912867712202 L 443.2962762388688 47.47257377271376 L 443.4451076412016 47.55611396245206 L 443.6120738150884 47.63974946332314 L 444.67713716191435 47.72348049305663 L 444.8322959292931 47.80730727012917 L 445.05494893112314 47.891230013767654 L 445.17474609113873 47.975248943952806 L 445.46661142023964 48.059364281422745 L 445.99027552743183 48.14357624767604 L 446.2284397668746 48.22788506497568 L 446.2470067442259 48.3122909563524 L 446.39154604469536 48.396794145608055 L 446.39826731482617 48.48139485731963 L 446.42631403808633 48.5660933168424 L 446.6441445860669 48.65088975031347 L 446.71639798479106 48.73578438465597 L 446.82136507358956 48.82077744758203 L 447.01226114070676 48.90586916759696 L 447.1964128494066 48.99105977400245 L 447.2106612998035 49.07634949690089 L 447.3843178285878 49.16173856719831 L 447.8743077225098 49.24722721660919 L 447.8885659129733 49.33281567765903 L 447.9451701015703 49.41850418368904 L 448.13873601226135 49.504292968859545 L 448.2432492519924 49.59018226815408 L 448.72942428979957 49.67617231738279 L 448.8505552039707 49.762263353186995 L 448.85637195015545 49.848455613042574 L 449.1329852946263 49.93474933526386 L 449.55099909853675 50.02114475900805 L 449.70491280298376 50.107642124278755 L 449.82360483799346 50.1942416719304 L 450.20149893809526 50.28094364367166 L 450.25615726576723 50.36774828207024 L 450.3604576094983 50.454655830556135 L 450.39776272555196 50.54166653342645 L 450.43324420840713 50.62878063584924 L 450.5979240451593 50.71599838386726 L 450.91157808026907 50.80332002440309 L 450.9419289750726 50.890745805262554 L 451.0268125313165 50.97827597513867 L 451.157406467317 51.06591078361703 L 451.1723431677957 51.153650481179056 L 451.29882119021306 51.241495319206706 L 451.62544248415753 51.329445549986644 L 451.8699161093678 51.41750142671481 L 451.9649580778501 51.50566320350083 L 452.2212430298407 51.59393113537169 L 452.52575371485335 51.68230547827716 L 452.5652538090183 51.77078648909378 L 452.56873545502594 51.8593744256292 L 452.71927037732763 51.94806954662704 L 452.8975610661699 52.036872111771004 L 452.99223018654317 52.12578238168999 L 453.1341487224185 52.21480061796183 L 453.2985852111331 52.30392708311922 L 453.4385912900181 52.39316204065278 L 453.69052627906984 52.4825057550172 L 453.75764878688597 52.57195849163486 L 453.97860701003754 52.661520516900964 L 454.78954728573814 52.75119209818865 L 454.91276292282294 52.84097350385309 L 454.9326477307374 52.930865003237045 L 455.29248410440476 53.020866866674965 L 455.36954031857283 53.110979365498224 L 455.5106314303473 53.20120277204035 L 455.8007195239039 53.29153735964155 L 455.8080469206852 53.381983402653645 L 455.84640778866674 53.472541176445134 L 455.8996599394719 53.56321095740668 L 455.9569317583523 53.65399302295509 L 455.99172621845196 53.744887651540125 L 456.0209652914533 53.83589512264757 L 456.1759601204353 53.927015716805954 L 456.20131116152925 54.01824971559131 L 456.35987100545265 54.10959740163196 L 456.5617043376456 54.20105905861419 L 456.58637525664386 54.29263497128761 L 456.71772524550005 54.384325425470024 L 457.094769655035 54.47613070805346 L 457.23436808101206 54.56805110700884 L 457.44558703848696 54.66008691139177 L 457.83876706005947 54.75223841134812 L 457.97329557351304 54.84450589811922 L 457.98393246523074 54.936889664047385 L 458.28810504392226 55.029390002581636 L 458.54954390870955 55.12200720828366 L 458.634588711477 55.21474157683224 L 458.9381880958364 55.307593405030616 L 459.0760339067988 55.4005629908105 L 459.1344386192165 55.49365063323887 L 459.4776697817491 55.58685663252356 L 459.5357161150873 55.68018129001905 L 459.97511543899697 55.77362490823168 L 460.00327869626005 55.86718779082673 L 460.021410211386 55.960870242633405 L 460.1962965692588 56.054672569651075 L 460.2287584949208 56.1485950790551 L 460.76162572003227 56.24263807920329 L 460.8345016349524 56.33680187964194 L 460.8662709169623 56.431086791111284 L 460.94463442586846 56.525493125552316 L 460.97950156268917 56.6200211961127 L 461.456268100059 56.71467131715326 L 461.5758741244184 56.80944380425376 L 461.6758428857429 56.90433897421963 L 461.87329182737767 56.99935714508831 L 462.01299837900996 57.09449863613554 L 462.10687893647366 57.18976376788157 L 462.2961538800864 57.28515286209813 L 462.4961052303527 57.380666241814765 L 462.5284158210581 57.47630423132489 L 462.7373963198864 57.57206715619327 L 462.8271308061552 57.66795534326195 L 462.8575967762398 57.76396912065741 L 462.8758067246578 57.86010881779703 L 463.17541450394367 57.95637476539582 L 463.2179358855745 58.05276729547376 L 463.2611975142628 58.14928674136195 L 463.2668481311466 58.24593343770999 L 463.58417966464174 58.34270772049297 L 463.60455125743283 58.43960992701807 L 463.6105714706943 58.53664039593207 L 463.76403763483614 58.63379946722813 L 463.9397470856866 58.731087482253315 L 464.6108074108461 58.82850478371506 L 464.71495124662744 58.92605171568954 L 464.8595206627333 59.023728623627676 L 464.89546124794094 59.12153585436363 L 464.95098558706206 59.21947375612132 L 464.98270094092567 59.317542678522386 L 465.04020869246716 59.41574297259365 L 465.18291250184575 59.51407499077408 L 465.2082653119097 59.61253908692339 L 465.31874814388476 59.71113561632865 L 465.42983412792813 59.809864935712596 L 465.55413334491044 59.90872740324119 L 465.60029766986963 60.00772337853158 L 465.62982695849007 60.10685322265954 L 465.98978924011124 60.20611729816795 L 465.99471983850356 60.30551596907418 L 466.11537195507066 60.40504960087844 L 466.23314579384066 60.50471856057186 L 466.6149917630807 60.604523216644395 L 466.616781134432 60.70446393909316 L 466.9144030237451 60.804541099430594 L 466.944224294258 60.904755070692886 L 467.02302265251024 61.00510622744798 L 467.25713477629654 61.1055949458044 L 467.2651189691826 61.206221603419465 L 467.27163439778377 61.306986579507736 L 467.36034638126847 61.40789025484986 L 467.417661794431 61.50893301180082 L 467.42177714385065 61.610115234299144 L 467.51837368794014 61.71143730787509 L 467.634127151918 61.81289961965996 L 467.7215822602687 61.914502558394474 L 467.86835804889074 62.01624651443831 L 468.013373823534 62.118131879778616 L 468.0243223043546 62.220159048039136 L 468.12741069327853 62.32232841448962 L 468.1621794150147 62.42464037605464 L 468.2734140052475 62.52709533132321 L 468.2827666380959 62.62969368055769 L 468.480947633337 62.73243582570365 L 468.54194297172234 62.835322170398854 L 468.59983166705433 62.938353119983105 L 468.7770078899935 63.04152908150763 L 468.8701422326292 63.14485046374483 L 469.0109700746512 63.24831767719803 L 469.0867731370513 63.35193113411117 L 469.14394533380494 63.455691248478615 L 469.31617076285187 63.55959843605524 L 469.3823422406081 63.663653114366355 L 469.4930198722056 63.76785570271778 L 469.698509694157 63.872206622205795 L 469.70460346154346 63.97670629572781 L 469.8676408564507 64.0813551479921 L 469.99719373643654 64.1861536055286 L 470.42309718311026 64.29110209669898 L 470.42467865660456 64.39620105170764 L 470.48101635196275 64.50145090261151 L 470.58235747212973 64.60685208333155 L 470.7035202752108 64.71240502966299 L 470.743059762761 64.81811017928618 L 470.8144854738619 64.92396797177787 L 470.8786904323255 65.02997884862145 L 470.8967643078546 65.13614325321856 L 471.01878469405136 65.24246163090032 L 471.09489588297964 65.34893442893792 L 471.122795760145 65.4555620965545 L 471.3646435754486 65.56234508493628 L 471.3704572159096 65.66928384724406 L 471.65856566015435 65.77637883862451 L 471.78878445944207 65.8836305162223 L 472.19194596949166 65.99103933919162 L 472.5654846885786 66.09860576870733 L 472.617874145278 66.20633026797799 L 472.6482175252016 66.31421330225686 L 472.65272833895017 66.4222553388546 L 472.79578941630297 66.53045684715096 L 473.08956911383734 66.63881829860713 L 473.8816930808847 66.74734016677843 L 474.1200132887302 66.85602292732614 L 474.1570888042046 66.96486705803039 L 474.48833020160396 67.07387303880279 L 474.5548184752532 67.1830413516987 L 474.89825830932654 67.2923724809308 L 474.9104742256994 67.40186691288113 L 474.99080996779946 67.51152513611459 L 475.0348886300919 67.62134764139171 L 475.04675407195634 67.73133492168233 L 475.0490138079292 67.8414874721783 L 475.09373511847946 67.95180579030716 L 475.28665750857374 68.06229037574542 L 475.32129966916057 68.17294173043263 L 475.51208260560077 68.28376035858435 L 475.5398439118379 68.39474676670648 L 475.6681352530919 68.50590146360895 L 475.8253792678235 68.61722496041966 L 475.9772193461772 68.72871777059879 L 476.135237386061 68.84038040995267 L 476.26701362144416 68.95221339664846 L 476.3712714772126 69.0642172512284 L 476.5840847083337 69.17639249662443 L 476.7564861801247 69.28873965817252 L 476.7817169846389 69.40125926362799 L 476.84017253685937 69.51395184317983 L 476.909397383275 69.62681792946626 L 476.9250745269511 69.73985805758912 L 477.0186920334303 69.85307276512981 L 477.23521138018805 69.96646259216413 L 477.24212937749826 70.08002808127804 L 477.42106805050906 70.19376977758304 L 477.67661027256344 70.30768822873188 L 477.7812289633048 70.42178398493462 L 477.8692095592931 70.53605759897425 L 477.8955262216706 70.65050962622303 L 478.01411276034105 70.76514062465839 L 478.0461622367568 70.87995115487962 L 478.1049928137261 70.99494178012401 L 478.12552773338757 71.11011306628359 L 478.1294615508865 71.22546558192175 L 478.3065704193791 71.34099989829025 L 478.32554496704313 71.45671658934583 L 478.69680803746166 71.57261623176782 L 478.7239049907533 71.6886994049749 L 478.78169338344657 71.80496669114285 L 478.960057199215 71.92141867522201 L 479.1119502502529 72.03805594495446 L 479.2819768446683 72.15487909089268 L 480.16101028606886 72.27188870641663 L 480.3664589170796 72.38908538775257 L 480.51655057918543 72.50646973399057 L 480.52922024666145 72.62404234710345 L 480.54996987731374 72.74180383196517 L 480.61532328911835 72.85975479636937 L 480.6733635648813 72.97789585104829 L 480.7198093291834 73.09622760969148 L 481.35347787776203 73.21475068896552 L 481.60608670565995 73.3334657085328 L 481.72637652595876 73.45237329107096 L 481.73841080492844 73.5714740622928 L 481.7818382101854 73.69076865096582 L 481.7867296976999 73.81025768893215 L 481.8898380996595 73.92994181112874 L 481.9741231033343 74.04982165560739 L 482.12455235484606 74.16989786355538 L 482.1556517462615 74.290171079316 L 482.18565154287637 74.41064195040917 L 482.2571597938834 74.53131112755244 L 482.3239687806273 74.65217926468222 L 482.32673116841136 74.7732470189747 L 482.5066153628288 74.89451505086748 L 482.5283674733758 75.01598402408166 L 482.53032904569653 75.13765460564247 L 482.606003242677 75.25952746590252 L 482.6156967095324 75.38160327856315 L 482.77959038805903 75.50388272069705 L 482.8751811007542 75.62636647277077 L 483.02371974530865 75.74905521866742 L 483.1590203390576 75.87194964570955 L 483.1610446324362 75.99505044468259 L 483.39263790433597 76.11835830985729 L 483.4176094688879 76.24187393901428 L 483.46499289089473 76.36559803346705 L 483.4792326589335 76.48953129808609 L 483.51642981323255 76.61367444132287 L 483.83699813008815 76.73802817523438 L 483.8975990166765 76.86259321550733 L 483.99655423554447 76.9873702814831 L 484.27336131957253 77.11236009618233 L 484.29824828293874 77.23756338633063 L 484.34529002632274 77.3629808823834 L 484.41935489844633 77.48861331855181 L 484.43077305357315 77.61446143282797 L 484.46689125256984 77.74052596701165 L 484.6076813793732 77.86680766673629 L 484.6720654111278 77.99330728149516 L 484.71618766550034 78.12002556466842 L 484.72730013280716 78.24696327354974 L 484.7988813906033 78.37412116937378 L 484.8204620383002 78.5015000173434 L 484.94430331300106 78.62910058665727 L 485.0649434276406 78.7569236505376 L 485.51531432105355 78.88496998625862 L 485.6246444208124 79.01324037517486 L 485.7453716333596 79.1417356027494 L 485.80714963496325 79.27045645858288 L 485.8503667930449 79.39940373644316 L 485.99769394696153 79.52857823429372 L 486.0845063750175 79.65798075432406 L 486.1774951189899 79.7876121029795 L 486.4505817193054 79.91747309099077 L 486.516254613126 80.04756453340497 L 486.58444616591953 80.17788724961645 L 486.96242485985454 80.30844206339691 L 487.0021059515605 80.43922980292763 L 487.60215317492293 80.5702513008302 L 487.6216770497633 80.70150739419898 L 487.70231169531763 80.8329989246327 L 487.77093628549386 80.96472673826696 L 487.8304297341561 81.09669168580717 L 487.86289385889256 81.22889462256103 L 487.93435827560194 81.36133640847231 L 487.98447175387264 81.49401790815409 L 488.03607227656914 81.6269399909225 L 488.0687847586998 81.76010353083132 L 488.10277822313105 81.89350940670624 L 488.1153875374997 82.02715850217953 L 488.1218034439393 82.16105170572524 L 488.2183699406028 82.29518991069506 L 488.3068014732328 82.42957401535324 L 488.4311789827202 82.5642049229134 L 488.5343621561288 82.69908354157474 L 488.54934004530116 82.83421078455848 L 488.5499907716798 82.96958757014573 L 488.7605369482336 83.10521482171396 L 488.81358828925954 83.2410934677755 L 489.0794616371469 83.37722444201546 L 489.1414186527533 83.51360868333023 L 489.158958738736 83.65024713586632 L 489.204251194569 83.78714074905946 L 489.31855230978096 83.9242904776745 L 489.3307892824972 84.061697281845 L 489.3320916155287 84.19936212711372 L 489.4592748758472 84.33728598447368 L 489.4693864812775 84.47546983040843 L 489.4798937915266 84.61391464693429 L 489.59583637376153 84.75262142164195 L 489.67504754173075 84.89159114773861 L 489.7332930184112 85.03082482409093 L 489.87632085166223 85.17032345526775 L 489.8952788081881 85.31008805158399 L 489.9119624803915 85.45011962914418 L 489.9280382018456 85.5904192098871 L 489.95702725380175 85.73098782163026 L 490.083868484371 85.87182649811535 L 490.30566125700204 86.01293627905346 L 490.36505739671253 86.15431821017165 L 490.43975683242076 86.29597334325888 L 490.5004158662997 86.43790273621352 L 490.7778471462434 86.58010745309036 L 490.869372942775 86.72258856414862 L 491.07041689321716 86.8653471459001 L 491.40252658343104 87.0083842811585 L 491.41680236177496 87.151701059088 L 491.44374645397414 87.29529857525358 L 491.6830496390387 87.43917793167088 L 491.7030959648039 87.58334023685723 L 491.77502664248334 87.72778660588278 L 491.8963858779774 87.8725181604222 L 491.92104007697117 88.017536028807 L 491.97815126522937 88.16284134607832 L 492.03529205744957 88.30843525404026 L 492.32222943231 88.45431890131357 L 492.35987657630193 88.60049344339018 L 492.37751194104675 88.74696004268799 L 492.4006997612103 88.89371986860652 L 492.43736697128986 89.0407740975827 L 492.48208612304273 89.18812391314765 L 492.5532748463421 89.3357705059837 L 492.6826623044058 89.48371507398207 L 492.724664193314 89.6319588223015 L 492.76726989492886 89.78050296342667 L 492.8328373778581 89.92934871722821 L 492.8728432937308 90.07849731102249 L 492.9096588571643 90.22794997963211 L 492.96424349694536 90.37770796544811 L 493.10385188241753 90.5277725184909 L 493.12930948985024 90.6781448964735 L 493.1340259103986 90.82882636486471 L 493.4267888697198 90.97981819695275 L 493.47925614851505 91.13112167391017 L 493.55159934209274 91.28273808485869 L 493.5601011400871 91.43466872693534 L 494.13747268632704 91.58691490535932 L 494.1974091276985 91.73947793349862 L 494.2198813143646 91.89235913293845 L 494.26043898696787 92.04555983354993 L 494.43407003229123 92.19908137355924 L 494.7240046803429 92.352925099618 L 494.8242219291703 92.50709236687413 L 494.8612070712091 92.66158453904342 L 494.9100628403831 92.81640298848168 L 494.94548229285977 92.97154909625834 L 495.0166212603506 93.12702425223006 L 495.02705756984875 93.28282985511555 L 495.1144921913298 93.43896731257087 L 495.1721163587472 93.59543804126605 L 495.30897464142697 93.75224346696211 L 495.5813244383002 93.90938502458886 L 495.6653732573806 94.06686415832382 L 495.78360169273844 94.22468232167176 L 495.82853210641093 94.38284097754541 L 495.85713309219705 94.54134159834655 L 495.87649966810267 94.70018566604841 L 495.9258474739199 94.85937467227893 L 495.94135282432075 95.01891011840439 L 495.9523157837349 95.17879351561481 L 495.9603335799543 95.33902638500973 L 496.0144468456396 95.49961025768482 L 496.0416446488419 95.6605466748199 L 496.1530039433204 95.82183718776758 L 496.35848207023145 95.98348335814319 L 496.64677414906305 96.14548675791491 L 496.707610769421 96.30784896949649 L 496.8248475338319 96.4705715858388 L 496.8739714045493 96.63365621052469 L 496.9812108630331 96.79710445786304 L 497.0000674795594 96.96091795298526 L 497.1448418816959 97.12509833194139 L 497.2094766080269 97.28964724179929 L 497.21202872227747 97.45456634074259 L 497.2294408256347 97.61985729817195 L 497.26163858662676 97.78552179480573 L 497.3023755526899 97.95156152278292 L 497.6414799795324 98.11797818576684 L 497.75206826857806 98.2847734990496 L 497.7943915828582 98.45194918965905 L 498.01750169998047 98.61950699646508 L 498.085090253713 98.78744867028877 L 498.1236307925159 98.95577597401183 L 498.13824893974515 99.12449068268825 L 498.2057110439403 99.29359458365559 L 498.2165668259471 99.46308947664937 L 498.23137362098043 99.63297717391794 L 498.3468250190421 99.80325950033836 L 498.5229249164551 99.97393829353427 L 498.5617887339704 100.14501540399493 L 498.58858031887013 100.3164926951955 L 498.6113083290031 100.4883720437187 L 498.695054788138 100.66065533937842 L 498.69869662351925 100.83334448534384 L 498.72035915103515 101.0064413982663 L 499.02268107913306 101.17994800840614 L 499.0317542430637 101.35386625976236 L 499.1120044479042 101.52819811020316 L 499.23280937938506 101.7029455315984 L 499.36800445950075 101.87811050995293 L 499.5167030421865 102.05369504554261 L 499.5455330706063 102.22970115305077 L 499.758400431961 102.40613086170754 L 499.795147864675 102.58298621542963 L 499.87921409824804 102.76026927296294 L 500.1307637963192 102.93798210802578 L 500.2330133440427 103.11612680945512 L 500.25688132355685 103.2947054813531 L 500.31635137552894 103.47372024323681 L 500.3640704652807 103.65317323018905 L 500.3801039745898 103.83306659301087 L 500.5314039555032 104.01340249837631 L 500.54051712817557 104.19418312898955 L 500.5844038123527 104.37541068374253 L 500.7212367752914 104.55708737787603 L 500.7386414412886 104.73921544314186 L 500.80954227399036 104.9217971279678 L 500.8332750461693 105.10483469762346 L 500.88628386563335 105.28833043438942 L 500.9047979095943 105.47228663772773 L 500.9448622497882 105.65670562445513 L 500.9490816098116 105.8415897289176 L 500.9811965432842 106.0269413031682 L 501.2444819407394 106.2127627171464 L 501.2610457411163 106.39905635885953 L 501.3821972380795 106.58582463456764 L 501.3923218845387 106.77306996896937 L 501.46286090453265 106.96079480539089 L 501.51410011186533 107.1490016059779 L 501.7298473150415 107.33769285188822 L 501.81745391521883 107.52687104348911 L 502.0925772186714 107.71653870055542 L 502.27896634115314 107.90669836247133 L 502.38521229161364 108.09735258843409 L 502.4228752843409 108.2885039576608 L 502.4709131007867 108.48015506959786 L 502.5551365104798 108.67230854413287 L 502.6003546828281 108.86496702180972 L 502.6047832463259 109.0581331640459 L 502.65246488067163 109.25180965335397 L 502.8561562863823 109.44599919356403 L 502.91227470283326 109.64070451005097 L 502.9134593608091 109.83592834996358 L 503.0076964552516 110.03167348245722 L 503.49284721852945 110.22794269892955 L 503.5514053826685 110.4247388132593 L 503.61181020256134 110.62206466204844 L 503.80232468953443 110.81992310486748 L 503.9261937304954 111.01831702450386 L 504.0833627026937 111.21724932721435 L 504.131692008699 111.41672294298036 L 504.1698951831838 111.61674082576656 L 504.20304211501934 111.81730595378389 L 504.4959795482279 112.01842132975537 L 504.5056838516545 112.22008998118571 L 504.5692836411692 112.42231496063499 L 504.75469125931465 112.6250993459958 L 505.187996339705 112.82844624077421 L 505.22417644071993 113.03235877437504 L 505.35453367531454 113.23684010239054 L 505.3690482994159 113.44189340689366 L 505.4036031306795 113.6475218967347 L 505.45318339182734 113.85372880784348 L 505.6358623677152 114.06051740353399 L 505.6379974896908 114.26789097481452 L 505.6460325344923 114.47585284070226 L 505.66154081065406 114.68440634854176 L 505.70671933409545 114.89355487432806 L 505.8016959926529 115.10330182303494 L 505.89748591291755 115.31365062894736 L 505.98005717416663 115.5246047559989 L 506.043747380546 115.73616769811377 L 506.15189000020746 115.94834297955452 L 506.16971322468095 116.16113415527383 L 506.183434444777 116.37454481127224 L 506.35786233817646 116.58857856496041 L 506.3580410378133 116.80323906552752 L 506.4601957701591 117.0185299943139 L 506.7103091683479 117.23445506519056 L 506.7150558219316 117.4510180249431 L 506.7948021288776 117.6682226536621 L 506.7961951871317 117.88607276513864 L 507.00599716157535 118.10457220726676 L 507.02137528423685 118.32372486245043 L 507.03253140764906 118.54353464801824 L 507.12466463727924 118.76400551664301 L 507.1356798542427 118.98514145676853 L 507.1402836982191 119.20694649304238 L 507.21668059553514 119.42942468675557 L 507.5041481309128 119.65258013628858 L 507.609486512328 119.87641697756436 L 507.87040607367925 120.10093938450842 L 507.97372627545735 120.32615156951573 L 507.9948264644291 120.55205778392497 L 508.0325580322764 120.77866231850004 L 508.0934834146174 121.00596950391895 L 508.1318712230441 121.23398371127053 L 508.3140971765367 121.46270935255887 L 508.40481504193957 121.69215088121553 L 508.43074905284874 121.9223127926195 L 508.43695881801244 122.15319962462615 L 508.49125356237823 122.38481595810373 L 508.6408154234427 122.61716641747881 L 508.7144705055032 122.85025567129037 L 508.7485229529054 123.0840884327526 L 508.76860570042504 123.31866946032648 L 508.80734117314177 123.55400355830108 L 508.8805049121816 123.79009557738408 L 509.0017475256442 124.02695041530143 L 509.3956680289443 124.26457301740686 L 509.5018643588554 124.50296837730173 L 509.5589465968651 124.74214153746459 L 509.5706031876895 124.98209758989134 L 509.8430979308865 125.22284167674508 L 509.8900866414658 125.46437899101812 L 509.9922769401097 125.70671477720344 L 510.0880554673494 125.94985433197837 L 510.22242644699514 126.19380300489905 L 510.2439091246243 126.43856619910667 L 510.30387242476945 126.68414937204545 L 510.3593794669365 126.93055803619319 L 510.45982175240437 127.17779775980296 L 510.4873596229711 127.42587416765878 L 510.4957733532812 127.67479294184324 L 510.54198013569817 127.92455982251823 L 510.5676283171718 128.17518060871936 L 510.59467768245946 128.4266611591638 L 511.0005436829079 128.6790073930722 L 511.0485011799009 128.93222529100422 L 511.06018435376257 129.18632089570974 L 511.093340983375 129.44130031299312 L 511.46242227581337 129.6971697125946 L 511.6025587175393 129.95393532908525 L 511.81431993294876 130.211603462779 L 511.9743499048698 130.47018048065996 L 512.0446058008561 130.72967281732656 L 512.0638614374753 130.9900869759523 L 512.3264416644363 131.25142952926348 L 512.3512277904987 131.5137071205349 L 512.4646481187947 131.77692646460292 L 512.5475211439854 132.04109434889693 L 512.6826348886269 132.30621763448994 L 512.6929347804173 132.57230325716722 L 512.7849112615819 132.83935822851544 L 512.9923396751217 133.1073896370309 L 513.017889607456 133.37640464924937 L 513.063549479446 133.64641051089444 L 513.0663075335844 133.91741454804986 L 513.3384364138442 134.18942416835137 L 513.4952953165596 134.46244686220217 L 513.7286263474421 134.73649020401035 L 513.7859249111988 135.01156185344968 L 513.895729250204 135.28766955674433 L 513.9486277122089 135.56482114797785 L 514.2052353673291 135.84302455042678 L 514.3678686877397 136.12228777791984 L 514.5253667076706 136.40261893622295 L 514.5749199919361 136.6840262244512 L 514.6775369441034 136.9665179365075 L 514.8242819093884 137.25010246254948 L 515.0224653477742 137.53478829048447 L 515.1473429576199 137.8205840074944 L 515.1946376584301 138.1074983015895 L 515.2504555500001 138.39553996319313 L 515.2917193429555 138.6847178867581 L 515.3154250012819 138.97504107241434 L 515.372055240017 139.26651862764948 L 515.5041541181829 139.55915976902395 L 515.5870866042308 139.85297382391866 L 516.0378584618751 140.1479702323196 L 516.1822410225116 140.44415854863746 L 516.2470604816705 140.74154844356417 L 516.3113592554154 141.04014970596808 L 516.3817426188194 141.3399722448268 L 516.4298422798834 141.64102609120062 L 516.7177147885178 141.94332140024608 L 517.0026834933294 142.2468684532713 L 517.1967818562607 142.55167765983452 L 517.2468584165886 142.85775955988578 L 517.3200924522636 143.16512482595397 L 517.375840836356 143.47378426537927 L 517.6601134947247 143.78374882259425 L 517.7637231942352 144.0950295814514 L 517.8084142717955 144.40763776760195 L 517.8209373019794 144.72158475092482 L 517.8964851443169 145.03688204800767 L 517.9014029803856 145.35354132468245 L 517.9708520451243 145.67157439861472 L 518.1166247355397 145.99099324195078 L 518.1375970940471 146.3118099840206 L 518.1846967314791 146.6340369141035 L 518.2459406784819 146.95768648425081 L 518.2804769916402 147.28277131217465 L 518.3063219151236 147.609304184199 L 518.3699589394262 147.9372980582774 L 518.4757574349126 148.26676606707855 L 518.4962912356309 148.59772152114164 L 518.4964343421598 148.9301779121027 L 518.6479099805002 149.26414891599495 L 518.8544129428442 149.59964839662462 L 518.8580341052087 149.93669040902415 L 518.9985615441551 150.27528920298533 L 519.3118918626674 150.61545922667426 L 519.6504058905176 150.95721513033084 L 519.7019294144742 151.30057177005466 L 519.9928264098595 151.6455442116798 L 520.0913894725019 151.99214773474205 L 520.1377089861995 152.34039783653913 L 520.3522955889705 152.6903102362889 L 520.3528214341084 153.04190087938673 L 520.3674990426387 153.3951859417656 L 520.3914932603967 153.75018183436168 L 520.6462128151078 154.10690520768895 L 520.6880924540546 154.4653729565249 L 520.7318333131618 154.82560222471227 L 520.7500986386609 155.18761041007843 L 520.8551273430455 155.55141516947782 L 521.0039641474118 155.91703442395936 L 521.0089742021321 156.28448636406358 L 521.208565256604 156.65378945525345 L 521.3823097341738 157.02496244348225 L 521.5017170117139 157.39802436090343 L 521.5323142126522 157.77299453172685 L 521.5465447007048 158.14989257822413 L 521.794417505278 158.52873842689132 L 521.8926700515706 158.90955231477 L 522.0034188510158 159.29235479593376 L 522.07229708654 159.6771667481455 L 522.2591814134101 160.06400937968988 L 522.3417486722174 160.45290423638698 L 522.4913628634133 160.84387320879313 L 522.518067933323 161.2369385395952 L 522.7235682864523 161.6321228312034 L 522.9370150987095 162.02944905355025 L 523.1542682582237 162.4289405521024 L 523.1684514781539 162.83062105609122 L 523.1694546959221 163.23451468697095 L 523.2377094215831 163.64064596711006 L 523.32246015293 164.04903982872645 L 523.4651458373226 164.45972162307066 L 523.5016362446586 164.8727171298699 L 523.8181779693475 165.28805256703816 L 523.9266250661819 165.70575460066397 L 523.9722591564234 166.1258503552832 L 524.013866053037 166.54836742444968 L 524.0364478674202 166.97333388160973 L 524.2081889576791 167.40077829129632 L 524.3388140013626 167.83072972064969 L 524.3559943106134 168.263217751279 L 524.4751504717995 168.69827249147454 L 524.5051791328659 169.1359245887864 L 524.5404572801635 169.57620524297886 L 524.5590900124301 170.01914621937834 L 524.8304109594285 170.46477986262448 L 524.9114719977372 170.91313911084433 L 524.945033453215 171.36425751026093 L 524.9782045139871 171.8181692302548 L 525.1020295166434 172.27490907889484 L 525.3067572935687 172.7345125189554 L 525.4184165519805 173.19701568443958 L 525.6422014748827 173.66245539762633 L 525.7482504594643 174.13086918666227 L 525.8268411244829 174.60229530372004 L 525.8689374620317 175.0767727437427 L 525.9444433209275 175.55434126380055 L 525.9939664643205 176.0350414030811 L 526.0591665272896 176.51891450353935 L 526.1942282849064 177.00600273123496 L 526.340219160451 177.49634909838147 L 526.3928578860226 177.98999748613886 L 526.4233971003644 178.48699266817914 L 526.6379910659725 178.98738033505526 L 526.6759194320646 179.4912071194081 L 526.7235412060228 179.99852062204565 L 526.890150378819 180.50936943893043 L 527.2737774649147 181.02380318911497 L 527.8521387040577 181.54187254366246 L 527.9028867276808 182.06362925559944 L 527.9830005490896 182.58912619093883 L 528.0607528737194 183.1184173608259 L 528.1642499248419 183.65155795485128 L 528.2490316854651 184.18860437558527 L 528.4724901624479 184.72961427438577 L 528.4983478051809 185.27464658853813 L 528.5911275585215 185.82376157978553 L 528.6085543557363 186.37702087431376 L 528.950970919871 186.93448750425574 L 528.9511470355983 187.4962259507871 L 529.1692320684788 188.06230218888527 L 529.3424079293586 188.6327837338302 L 529.5446066603831 189.2077396895291 L 529.5506410929424 189.7872407987502 L 529.6843869456542 190.3713594953598 L 529.7741534167491 190.96016995865546 L 529.8324620903837 191.55374816990002 L 529.8581139952294 192.15217197116266 L 530.1690495194435 192.75552112658187 L 530.172815533019 193.36387738617054 L 530.2707875358199 193.97732455228982 L 530.330427436019 194.5959485489302 L 530.3474839440755 195.21983749393797 L 530.4977835353211 195.8490817743437 L 530.5273653567208 196.48377412495074 L 530.5348312918334 197.12400971035663 L 530.5458815397201 197.76988621058678 L 530.5995482284094 198.42150391053485 L 530.7316151861344 199.0789657934145 L 530.845519780717 199.7423776384386 L 530.9157662733874 200.41184812296052 L 530.9193688720445 201.08748892932118 L 531.1506946358785 201.76941485666674 L 531.3416920320506 202.4577439380157 L 531.4021575640259 203.15259756287497 L 531.5211969605948 203.85410060572258 L 531.5693074420219 204.5623815606976 L 531.7266625217626 205.2775726828608 L 532.1300989280136 205.99981013641428 L 532.2069680809824 206.72923415029516 L 532.3138391240677 207.46598918158935 L 532.6534008180419 208.2102240872394 L 532.6729073916656 208.96209230456003 L 532.7457859036872 209.7217520411059 L 532.7654075616591 210.48936647448141 L 532.7851063540314 211.26510396272278 L 532.8440361762719 212.0491382659311 L 532.9702879268723 212.8416487798861 L 533.0185461098313 213.64282078242718 L 533.0603865793323 214.45284569344602 L 533.1197962341022 215.27192134940657 L 533.2066672367014 216.100252293374 L 533.4373087335854 216.93805008161917 L 533.9099535651198 217.78553360794558 L 533.9455398147131 218.6429294469857 L 534.4100356821154 219.5104722178105 L 534.4641217181479 220.38840496931488 L 534.728017045504 221.2769795889604 L 534.72875136928 222.17645723659683 L 535.054503382596 223.08710880523074 L 535.4538023973554 224.00921541077548 L 535.488569225368 224.94306891299829 L 535.5400991603858 225.88897247007867 L 535.7561961888907 226.8472411294169 L 535.7760301056977 227.81820245757086 L 535.9842960538006 228.80219721247477 L 535.9962090422543 229.7995800613911 L 536.0301474903627 230.81072034838155 L 536.2119652280994 231.83600291545082 L 536.34802054896 232.87582898193534 L 536.631691797412 233.9306170871618 L 536.7733394897601 235.00080410192118 L 536.8882401049399 236.08684631487404 L 536.9045147361646 237.18922060064972 L 536.9269344738947 238.308425677123 L 537.0180561195996 239.44498346016616 L 537.250203348217 240.59944052508598 L 537.2669472709379 241.77236968499136 L 537.2807899458212 242.96437169749856 L 537.33337178956 244.17607711250628 L 537.5236011099394 245.408148275266 L 537.6258405629987 246.66128150067942 L 537.8424909949349 247.93620943669242 L 537.8961211496339 249.2337036368707 L 537.9959323875009 250.5545773647744 L 538.1070931558728 251.8996886556571 L 538.3212823725944 253.2699436643515 L 538.3721241232024 254.66630033205837 L 538.3777663467317 256.0897724091968 L 538.5840360208585 257.54143387663123 L 538.5978709000649 259.0224238135754 L 538.6218422004293 260.5339517674419 L 538.6373948013443 262.0773036890588 L 539.0183453328898 263.6538485062222 L 539.0561600445785 265.265045419782 L 539.4331571904945 266.9124520197101 L 539.5163312083963 268.59773333428154 L 539.6234165512461 270.32267194414635 L 539.7611789372074 272.08917931529624 L 539.8966944258432 273.89930853156665 L 540.017558076903 275.75526863933413 L 540.0815857787877 277.6594408557528 L 540.196192218898 279.6143969388106 L 540.3308092036971 281.62292007471746 L 540.3553864555911 283.6880287082712 L 540.4307482745213 285.813003828257 L 540.4677403315648 288.0014203269855 L 540.5196725179512 290.25718318650206 L 540.7160811963034 292.58456941132727 L 540.7228607328515 294.9882768388422 L 540.7329800347818 297.4734812270153 L 540.768169612136 300.0459033632066 L 540.7881354217554 302.71188838199294 L 540.9700284580732 305.47850005839433 L 541.2071887952623 308.35363360296697 L 541.2091437789909 311.3461514937776 L 541.2112348698665 314.4660482325578 L 541.8792662653423 317.7246517460457 L 542.0712641071309 321.1348716704821 L 542.1965554923793 324.7115082579023 L 542.2808996140662 328.4716405820885 L 542.355575434314 332.435119801053 L 542.479608393979 336.62520355459316 L 543.1004525062367 341.06938291283825 L 543.1267037457492 345.8004765651784 L 543.3946831980973 350.85810308954285 L 544.0985168578136 356.2906997847306 L 545.270771228186 362.1583512201139 L 545.2981888065901 368.53685147238195 L 545.3657631695907 375.52370798423874 L 545.3886804892572 383.24731952738944 L 545.746466449215 391.8815826391742 L 546.0464910389974 401.6703028158787 L 546.3638908689718 412.97055094644975 L 547.1742160132992 426.3359077105746 L 547.183382834502 442.69378236551006 L 547.2844385285862 463.7827506727857 L 547.5250815864617 493.5059820918459 L 548.2420021558149 544.3181818181819" stroke-linejoin="bevel" stroke-miterlimit="10"/><path fill="none" stroke="none"/></g></g></g><g clip-path="url(#bipHSIBDLoOX)"><g><g/><g><path fill="#ffffff" stroke="#e5e5e5" paint-order="fill stroke markers" d=" M 123 475 L 255 475 L 255 560 L 123 560 L 123 475 Z" fill-opacity="0.95" stroke-linejoin="bevel" stroke-miterlimit="10" stroke-opacity="0.5"/><text fill="#444444" stroke="none" font-family="helvetica" font-size="22pt" font-style="normal" font-weight="normal" text-decoration="normal" x="158" y="500.5" text-anchor="start" dominant-baseline="central">male</text><g><path fill="none" stroke="blue" paint-order="fill stroke markers" d=" M 133 495 L 153 495" stroke-linejoin="bevel" stroke-miterlimit="10"/></g><text fill="#444444" stroke="none" font-family="helvetica" font-size="22pt" font-style="normal" font-weight="normal" text-decoration="normal" x="158" y="534.5" text-anchor="start" dominant-baseline="central">female</text><g><path fill="none" stroke="red" paint-order="fill stroke markers" d=" M 133 529 L 153 529" stroke-linejoin="bevel" stroke-miterlimit="10"/></g></g></g></g><g/><g/><g><g fill="#444444"><path fill="none" stroke="black" paint-order="fill stroke markers" d=" M 113 570 L 570 570" stroke-linejoin="bevel" stroke-miterlimit="10"/><path fill="none" stroke="black" paint-order="fill stroke markers" d=" M 392 576 L 392 568" stroke-linejoin="bevel" stroke-miterlimit="10"/><path fill="none" stroke="black" paint-order="fill stroke markers" d=" M 469 576 L 469 568" stroke-linejoin="bevel" stroke-miterlimit="10"/><path fill="none" stroke="black" paint-order="fill stroke markers" d=" M 515 576 L 515 568" stroke-linejoin="bevel" stroke-miterlimit="10"/><path fill="none" stroke="black" paint-order="fill stroke markers" d=" M 547 576 L 547 568" stroke-linejoin="bevel" stroke-miterlimit="10"/><path fill="none" stroke="black" paint-order="fill stroke markers" d=" M 380 574 L 380 570" stroke-linejoin="bevel" stroke-miterlimit="10"/><path fill="none" stroke="black" paint-order="fill stroke markers" d=" M 367 574 L 367 570" stroke-linejoin="bevel" stroke-miterlimit="10"/><path fill="none" stroke="black" paint-order="fill stroke markers" d=" M 352 574 L 352 570" stroke-linejoin="bevel" stroke-miterlimit="10"/><path fill="none" stroke="black" paint-order="fill stroke markers" d=" M 335 574 L 335 570" stroke-linejoin="bevel" stroke-miterlimit="10"/><path fill="none" stroke="black" paint-order="fill stroke markers" d=" M 314 574 L 314 570" stroke-linejoin="bevel" stroke-miterlimit="10"/><path fill="none" stroke="black" paint-order="fill stroke markers" d=" M 289 574 L 289 570" stroke-linejoin="bevel" stroke-miterlimit="10"/><path fill="none" stroke="black" paint-order="fill stroke markers" d=" M 257 574 L 257 570" stroke-linejoin="bevel" stroke-miterlimit="10"/><path fill="none" stroke="black" paint-order="fill stroke markers" d=" M 211 574 L 211 570" stroke-linejoin="bevel" stroke-miterlimit="10"/><path fill="none" stroke="black" paint-order="fill stroke markers" d=" M 134 574 L 134 570" stroke-linejoin="bevel" stroke-miterlimit="10"/><path fill="none" stroke="black" paint-order="fill stroke markers" d=" M 392 574 L 392 570" stroke-linejoin="bevel" stroke-miterlimit="10"/><path fill="none" stroke="black" paint-order="fill stroke markers" d=" M 402 574 L 402 570" stroke-linejoin="bevel" stroke-miterlimit="10"/><path fill="none" stroke="black" paint-order="fill stroke markers" d=" M 412 574 L 412 570" stroke-linejoin="bevel" stroke-miterlimit="10"/><path fill="none" stroke="black" paint-order="fill stroke markers" d=" M 421 574 L 421 570" stroke-linejoin="bevel" stroke-miterlimit="10"/><path fill="none" stroke="black" paint-order="fill stroke markers" d=" M 429 574 L 429 570" stroke-linejoin="bevel" stroke-miterlimit="10"/><path fill="none" stroke="black" paint-order="fill stroke markers" d=" M 437 574 L 437 570" stroke-linejoin="bevel" stroke-miterlimit="10"/><path fill="none" stroke="black" paint-order="fill stroke markers" d=" M 444 574 L 444 570" stroke-linejoin="bevel" stroke-miterlimit="10"/><path fill="none" stroke="black" paint-order="fill stroke markers" d=" M 451 574 L 451 570" stroke-linejoin="bevel" stroke-miterlimit="10"/><path fill="none" stroke="black" paint-order="fill stroke markers" d=" M 458 574 L 458 570" stroke-linejoin="bevel" stroke-miterlimit="10"/><path fill="none" stroke="black" paint-order="fill stroke markers" d=" M 464 574 L 464 570" stroke-linejoin="bevel" stroke-miterlimit="10"/><path fill="none" stroke="black" paint-order="fill stroke markers" d=" M 469 574 L 469 570" stroke-linejoin="bevel" stroke-miterlimit="10"/><path fill="none" stroke="black" paint-order="fill stroke markers" d=" M 475 574 L 475 570" stroke-linejoin="bevel" stroke-miterlimit="10"/><path fill="none" stroke="black" paint-order="fill stroke markers" d=" M 480 574 L 480 570" stroke-linejoin="bevel" stroke-miterlimit="10"/><path fill="none" stroke="black" paint-order="fill stroke markers" d=" M 485 574 L 485 570" stroke-linejoin="bevel" stroke-miterlimit="10"/><path fill="none" stroke="black" paint-order="fill stroke markers" d=" M 490 574 L 490 570" stroke-linejoin="bevel" stroke-miterlimit="10"/><path fill="none" stroke="black" paint-order="fill stroke markers" d=" M 494 574 L 494 570" stroke-linejoin="bevel" stroke-miterlimit="10"/><path fill="none" stroke="black" paint-order="fill stroke markers" d=" M 499 574 L 499 570" stroke-linejoin="bevel" stroke-miterlimit="10"/><path fill="none" stroke="black" paint-order="fill stroke markers" d=" M 503 574 L 503 570" stroke-linejoin="bevel" stroke-miterlimit="10"/><path fill="none" stroke="black" paint-order="fill stroke markers" d=" M 507 574 L 507 570" stroke-linejoin="bevel" stroke-miterlimit="10"/><path fill="none" stroke="black" paint-order="fill stroke markers" d=" M 511 574 L 511 570" stroke-linejoin="bevel" stroke-miterlimit="10"/><path fill="none" stroke="black" paint-order="fill stroke markers" d=" M 515 574 L 515 570" stroke-linejoin="bevel" stroke-miterlimit="10"/><path fill="none" stroke="black" paint-order="fill stroke markers" d=" M 519 574 L 519 570" stroke-linejoin="bevel" stroke-miterlimit="10"/><path fill="none" stroke="black" paint-order="fill stroke markers" d=" M 522 574 L 522 570" stroke-linejoin="bevel" stroke-miterlimit="10"/><path fill="none" stroke="black" paint-order="fill stroke markers" d=" M 526 574 L 526 570" stroke-linejoin="bevel" stroke-miterlimit="10"/><path fill="none" stroke="black" paint-order="fill stroke markers" d=" M 529 574 L 529 570" stroke-linejoin="bevel" stroke-miterlimit="10"/><path fill="none" stroke="black" paint-order="fill stroke markers" d=" M 532 574 L 532 570" stroke-linejoin="bevel" stroke-miterlimit="10"/><path fill="none" stroke="black" paint-order="fill stroke markers" d=" M 535 574 L 535 570" stroke-linejoin="bevel" stroke-miterlimit="10"/><path fill="none" stroke="black" paint-order="fill stroke markers" d=" M 538 574 L 538 570" stroke-linejoin="bevel" stroke-miterlimit="10"/><path fill="none" stroke="black" paint-order="fill stroke markers" d=" M 541 574 L 541 570" stroke-linejoin="bevel" stroke-miterlimit="10"/><path fill="none" stroke="black" paint-order="fill stroke markers" d=" M 544 574 L 544 570" stroke-linejoin="bevel" stroke-miterlimit="10"/><path fill="none" stroke="black" paint-order="fill stroke markers" d=" M 547 574 L 547 570" stroke-linejoin="bevel" stroke-miterlimit="10"/><path fill="none" stroke="black" paint-order="fill stroke markers" d=" M 550 574 L 550 570" stroke-linejoin="bevel" stroke-miterlimit="10"/><path fill="none" stroke="black" paint-order="fill stroke markers" d=" M 553 574 L 553 570" stroke-linejoin="bevel" stroke-miterlimit="10"/><path fill="none" stroke="black" paint-order="fill stroke markers" d=" M 555 574 L 555 570" stroke-linejoin="bevel" stroke-miterlimit="10"/><path fill="none" stroke="black" paint-order="fill stroke markers" d=" M 558 574 L 558 570" stroke-linejoin="bevel" stroke-miterlimit="10"/><path fill="none" stroke="black" paint-order="fill stroke markers" d=" M 560 574 L 560 570" stroke-linejoin="bevel" stroke-miterlimit="10"/><path fill="none" stroke="black" paint-order="fill stroke markers" d=" M 563 574 L 563 570" stroke-linejoin="bevel" stroke-miterlimit="10"/><path fill="none" stroke="black" paint-order="fill stroke markers" d=" M 565 574 L 565 570" stroke-linejoin="bevel" stroke-miterlimit="10"/><path fill="none" stroke="black" paint-order="fill stroke markers" d=" M 568 574 L 568 570" stroke-linejoin="bevel" stroke-miterlimit="10"/><path fill="" stroke="black" paint-order="fill stroke markers" d=" M 570 574 L 570 570" stroke-linejoin="bevel" stroke-miterlimit="10"/><g transform="translate(392,581) rotate(0,0,0)"><text fill="" stroke="none" font-family="helvetica" font-size="26px" font-style="normal" font-weight="normal" text-decoration="normal" x="0" y="0" text-anchor="middle" dominant-baseline="hanging">10</text><g transform="rotate(0,0,0) translate(-392,-581) translate(469,581) rotate(0,0,0)"><text fill="" stroke="none" font-family="helvetica" font-size="26px" font-style="normal" font-weight="normal" text-decoration="normal" x="0" y="0" text-anchor="middle" dominant-baseline="hanging">20</text><g transform="rotate(0,0,0) translate(-469,-581) translate(515,581) rotate(0,0,0)"><text fill="" stroke="none" font-family="helvetica" font-size="26px" font-style="normal" font-weight="normal" text-decoration="normal" x="0" y="0" text-anchor="middle" dominant-baseline="hanging">30</text><g transform="rotate(0,0,0) translate(-515,-581) translate(547,581) rotate(0,0,0)"><text fill="" stroke="none" font-family="helvetica" font-size="26px" font-style="normal" font-weight="normal" text-decoration="normal" x="0" y="0" text-anchor="middle" dominant-baseline="hanging">40</text><g transform="rotate(0,0,0) translate(-547,-581)"/></g></g></g></g></g></g><g><g fill="#444444"><path fill="none" stroke="black" paint-order="fill stroke markers" d=" M 113 570 L 113 5" stroke-linejoin="bevel" stroke-miterlimit="10"/><path fill="none" stroke="black" paint-order="fill stroke markers" d=" M 107 537 L 115 537" stroke-linejoin="bevel" stroke-miterlimit="10"/><path fill="none" stroke="black" paint-order="fill stroke markers" d=" M 107 368 L 115 368" stroke-linejoin="bevel" stroke-miterlimit="10"/><path fill="none" stroke="black" paint-order="fill stroke markers" d=" M 107 199 L 115 199" stroke-linejoin="bevel" stroke-miterlimit="10"/><path fill="none" stroke="black" paint-order="fill stroke markers" d=" M 107 31 L 115 31" stroke-linejoin="bevel" stroke-miterlimit="10"/><path fill="none" stroke="black" paint-order="fill stroke markers" d=" M 109 563 L 113 563" stroke-linejoin="bevel" stroke-miterlimit="10"/><path fill="none" stroke="black" paint-order="fill stroke markers" d=" M 109 553 L 113 553" stroke-linejoin="bevel" stroke-miterlimit="10"/><path fill="none" stroke="black" paint-order="fill stroke markers" d=" M 109 545 L 113 545" stroke-linejoin="bevel" stroke-miterlimit="10"/><path fill="none" stroke="black" paint-order="fill stroke markers" d=" M 109 537 L 113 537" stroke-linejoin="bevel" stroke-miterlimit="10"/><path fill="none" stroke="black" paint-order="fill stroke markers" d=" M 109 537 L 113 537" stroke-linejoin="bevel" stroke-miterlimit="10"/><path fill="none" stroke="black" paint-order="fill stroke markers" d=" M 109 486 L 113 486" stroke-linejoin="bevel" stroke-miterlimit="10"/><path fill="none" stroke="black" paint-order="fill stroke markers" d=" M 109 456 L 113 456" stroke-linejoin="bevel" stroke-miterlimit="10"/><path fill="none" stroke="black" paint-order="fill stroke markers" d=" M 109 435 L 113 435" stroke-linejoin="bevel" stroke-miterlimit="10"/><path fill="none" stroke="black" paint-order="fill stroke markers" d=" M 109 419 L 113 419" stroke-linejoin="bevel" stroke-miterlimit="10"/><path fill="none" stroke="black" paint-order="fill stroke markers" d=" M 109 406 L 113 406" stroke-linejoin="bevel" stroke-miterlimit="10"/><path fill="none" stroke="black" paint-order="fill stroke markers" d=" M 109 394 L 113 394" stroke-linejoin="bevel" stroke-miterlimit="10"/><path fill="none" stroke="black" paint-order="fill stroke markers" d=" M 109 385 L 113 385" stroke-linejoin="bevel" stroke-miterlimit="10"/><path fill="none" stroke="black" paint-order="fill stroke markers" d=" M 109 376 L 113 376" stroke-linejoin="bevel" stroke-miterlimit="10"/><path fill="none" stroke="black" paint-order="fill stroke markers" d=" M 109 368 L 113 368" stroke-linejoin="bevel" stroke-miterlimit="10"/><path fill="none" stroke="black" paint-order="fill stroke markers" d=" M 109 368 L 113 368" stroke-linejoin="bevel" stroke-miterlimit="10"/><path fill="none" stroke="black" paint-order="fill stroke markers" d=" M 109 317 L 113 317" stroke-linejoin="bevel" stroke-miterlimit="10"/><path fill="none" stroke="black" paint-order="fill stroke markers" d=" M 109 288 L 113 288" stroke-linejoin="bevel" stroke-miterlimit="10"/><path fill="none" stroke="black" paint-order="fill stroke markers" d=" M 109 267 L 113 267" stroke-linejoin="bevel" stroke-miterlimit="10"/><path fill="none" stroke="black" paint-order="fill stroke markers" d=" M 109 250 L 113 250" stroke-linejoin="bevel" stroke-miterlimit="10"/><path fill="none" stroke="black" paint-order="fill stroke markers" d=" M 109 237 L 113 237" stroke-linejoin="bevel" stroke-miterlimit="10"/><path fill="none" stroke="black" paint-order="fill stroke markers" d=" M 109 226 L 113 226" stroke-linejoin="bevel" stroke-miterlimit="10"/><path fill="none" stroke="black" paint-order="fill stroke markers" d=" M 109 216 L 113 216" stroke-linejoin="bevel" stroke-miterlimit="10"/><path fill="none" stroke="black" paint-order="fill stroke markers" d=" M 109 207 L 113 207" stroke-linejoin="bevel" stroke-miterlimit="10"/><path fill="none" stroke="black" paint-order="fill stroke markers" d=" M 109 199 L 113 199" stroke-linejoin="bevel" stroke-miterlimit="10"/><path fill="none" stroke="black" paint-order="fill stroke markers" d=" M 109 199 L 113 199" stroke-linejoin="bevel" stroke-miterlimit="10"/><path fill="none" stroke="black" paint-order="fill stroke markers" d=" M 109 149 L 113 149" stroke-linejoin="bevel" stroke-miterlimit="10"/><path fill="none" stroke="black" paint-order="fill stroke markers" d=" M 109 119 L 113 119" stroke-linejoin="bevel" stroke-miterlimit="10"/><path fill="none" stroke="black" paint-order="fill stroke markers" d=" M 109 98 L 113 98" stroke-linejoin="bevel" stroke-miterlimit="10"/><path fill="none" stroke="black" paint-order="fill stroke markers" d=" M 109 81 L 113 81" stroke-linejoin="bevel" stroke-miterlimit="10"/><path fill="none" stroke="black" paint-order="fill stroke markers" d=" M 109 68 L 113 68" stroke-linejoin="bevel" stroke-miterlimit="10"/><path fill="none" stroke="black" paint-order="fill stroke markers" d=" M 109 57 L 113 57" stroke-linejoin="bevel" stroke-miterlimit="10"/><path fill="none" stroke="black" paint-order="fill stroke markers" d=" M 109 47 L 113 47" stroke-linejoin="bevel" stroke-miterlimit="10"/><path fill="none" stroke="black" paint-order="fill stroke markers" d=" M 109 38 L 113 38" stroke-linejoin="bevel" stroke-miterlimit="10"/><path fill="none" stroke="black" paint-order="fill stroke markers" d=" M 109 31 L 113 31" stroke-linejoin="bevel" stroke-miterlimit="10"/><path fill="" stroke="black" paint-order="fill stroke markers" d=" M 109 31 L 113 31" stroke-linejoin="bevel" stroke-miterlimit="10"/><g transform="translate(102,537) rotate(0,0,0)"><text fill="" stroke="none" font-family="helvetica" font-size="26px" font-style="normal" font-weight="normal" text-decoration="normal" x="0" y="0" text-anchor="end" dominant-baseline="central">10^-3</text><g transform="rotate(0,0,0) translate(-102,-537) translate(102,368) rotate(0,0,0)"><text fill="" stroke="none" font-family="helvetica" font-size="26px" font-style="normal" font-weight="normal" text-decoration="normal" x="0" y="0" text-anchor="end" dominant-baseline="central">10^-2</text><g transform="rotate(0,0,0) translate(-102,-368) translate(102,199) rotate(0,0,0)"><text fill="" stroke="none" font-family="helvetica" font-size="26px" font-style="normal" font-weight="normal" text-decoration="normal" x="0" y="0" text-anchor="end" dominant-baseline="central">10^-1</text><g transform="rotate(0,0,0) translate(-102,-199) translate(102,31) rotate(0,0,0)"><text fill="" stroke="none" font-family="helvetica" font-size="26px" font-style="normal" font-weight="normal" text-decoration="normal" x="0" y="0" text-anchor="end" dominant-baseline="central">10^0</text><g transform="rotate(0,0,0) translate(-102,-31) translate(26,288) rotate(-90,0,0)"><text fill="" stroke="none" font-family="helvetica" font-size="26pt" font-style="italic" font-weight="normal" text-decoration="normal" x="0" y="0" text-anchor="middle" dominant-baseline="alphabetic">CCDF</text><g transform="rotate(90,0,0) translate(-26,-288)"/></g></g></g></g></g></g></g><g clip-path="url(#iaVLNEbetiXg)"><g/></g><g clip-path="url(#ieclfqcLKuDU)"><g/></g></g></g></svg>