<svg version="1.1" xmlns="http://www.w3.org/2000/svg" xmlns:xlink="http://www.w3.org/1999/xlink" width="600" height="600" style="width: 600px; height: 600px;"><defs><clipPath id="GBVGQDXHTLyb"><path fill="none" stroke="none" d=" M 113 5 L 570 5 L 570 570 L 113 570 L 113 5 Z"/></clipPath><clipPath id="JWDFcJvDlExH"><path fill="none" stroke="none" d=" M 113 5 L 570 5 L 570 570 L 113 570 L 113 5 Z"/></clipPath><clipPath id="PygKNFtroxlQ"><path fill="none" stroke="none" d=" M 113 5 L 570 5 L 570 570 L 113 570 L 113 5 Z"/></clipPath><clipPath id="AbLcZVOWewNc"><path fill="none" stroke="none" d=" M 113 5 L 570 5 L 570 570 L 113 570 L 113 5 Z"/></clipPath><clipPath id="HPwGLxpDIrbS"><path fill="none" stroke="none" d=" M 113 5 L 570 5 L 570 570 L 113 570 L 113 5 Z"/></clipPath><clipPath id="PsTkLxDirGkV"><path fill="none" stroke="none" d=" M 113 5 L 570 5 L 570 570 L 113 570 L 113 5 Z"/></clipPath><clipPath id="LQZyAVJXXbCE"><path fill="none" stroke="none" d=" M 113 5 L 570 5 L 570 570 L 113 570 L 113 5 Z"/></clipPath></defs><g><g transform="scale(1,1) translate(0.5,0.5)"><rect fill="#FFFFFF" stroke="none" x="0" y="0" width="600" height="600"/><rect fill="#ffffff" stroke="none" x="0" y="0" width="600" height="600"/><rect fill="#FFFFFF" stroke="none" x="113" y="5" width="457" height="565"/><rect fill="#ffffff" stroke="none" x="113" y="5" width="457" height="565"/><g><rect fill="none" stroke="#e5e5e5" x="113" y="5" width="457" height="565" stroke-linejoin="bevel" stroke-miterlimit="10"/></g><g clip-path="url(#GBVGQDXHTLyb)"><g><g><path fill="none" stroke="#e5e5e5" paint-order="fill stroke markers" d=" M 481 570 L 481 5" stroke-linejoin="bevel" stroke-miterlimit="10"/><path fill="none" stroke="#e5e5e5" paint-order="fill stroke markers" d=" M 558 570 L 558 5" stroke-linejoin="bevel" stroke-miterlimit="10"/></g></g></g><g clip-path="url(#JWDFcJvDlExH)"><g><g><path fill="none" stroke="#e5e5e5" paint-order="fill stroke markers" d=" M 113 537 L 570 537" stroke-linejoin="bevel" stroke-miterlimit="10"/><path fill="none" stroke="#e5e5e5" paint-order="fill stroke markers" d=" M 113 368 L 570 368" stroke-linejoin="bevel" stroke-miterlimit="10"/><path fill="none" stroke="#e5e5e5" paint-order="fill stroke markers" d=" M 113 199 L 570 199" stroke-linejoin="bevel" stroke-miterlimit="10"/><path fill="none" stroke="#e5e5e5" paint-order="fill stroke markers" d=" M 113 31 L 570 31" stroke-linejoin="bevel" stroke-miterlimit="10"/></g></g></g><g clip-path="url(#PygKNFtroxlQ)"><g><g><path fill="none" stroke="none"/><path fill="none" stroke="blue" paint-order="fill stroke markers" d=" M 301.825404024283 30.71133560060298 L 243.03734748299192 30.80734937799855 L 250.80342508368807 30.903489075138054 L 255.52578768703097 30.99975502273685 L 255.71791483687994 31.09614755281484 L 271.66303741414777 31.192666998702975 L 271.66306027188256 31.289313695051078 L 282.150611850471 31.38608797783411 L 292.54887189936187 31.482990184359096 L 296.1548391622681 31.58002065327321 L 296.3857209216229 31.677179724569214 L 296.5990562001183 31.774467739594456 L 301.77131833506326 31.871885041056203 L 301.771327972244 31.969431973030623 L 303.6627216137175 32.06710888096882 L 308.2527594562084 32.16491611170477 L 311.08318451167986 32.2628540134624 L 312.22599851527536 32.36092293586353 L 315.549240649126 32.45912322993479 L 317.84015547810327 32.55745524811516 L 317.84015777968875 32.655919344264476 L 318.6399767253931 32.75451587366979 L 320.3254165980404 32.85324519305368 L 321.6249558998221 32.95210766058233 L 321.9671099090191 33.051103635872664 L 322.1850085202238 33.15023348000068 L 322.67287058685616 33.24949755550904 L 323.18762013625565 33.34889622641526 L 323.6681732393667 33.44842985821958 L 324.3680058055512 33.548098817913 L 327.58924474708544 33.64790347398548 L 329.39442554294544 33.747844196434244 L 329.4425099668586 33.847921356771735 L 330.2539109891997 33.94813532803403 L 330.8650876905209 34.04848648478912 L 330.9201229847548 34.14897520314548 L 331.465508009323 34.24960186076055 L 333.95100950970334 34.35036683684882 L 335.0594726969976 34.451270512190945 L 336.33547928682765 34.552313269141905 L 336.51589441687736 34.65349549164023 L 336.8559800031232 34.75481756521617 L 337.16078575305096 34.85627987700104 L 338.9059958763751 34.957882815735616 L 340.87551350116064 35.05962677177945 L 343.48420030069633 35.161512137119644 L 346.31504483142453 35.26353930538028 L 346.81928272557855 35.3657086718307 L 346.8224184334168 35.46802063339578 L 347.766921014544 35.570475588664294 L 349.4796211178981 35.673073937898835 L 349.638310939097 35.77581608304479 L 350.98541486161434 35.878702427739995 L 351.8191977307535 35.98173337732419 L 352.28462360508126 36.08490933884866 L 353.1306330234941 36.188230721085915 L 353.36211659560774 36.291697934539116 L 353.362124962803 36.395311391452196 L 353.6557850351036 36.49907150581976 L 353.66904389934246 36.60297869339627 L 354.53947417037244 36.70703337170744 L 354.6574784431865 36.811235960058866 L 355.19142555108465 36.915586879546936 L 356.8315568675205 37.02008655306895 L 356.99946323685504 37.12473540533324 L 357.38859113204387 37.229533862869744 L 358.599875436479 37.33448235404012 L 359.6309734158661 37.43958130904866 L 359.9175243861765 37.54483115995254 L 360.25946491912975 37.65023234067269 L 360.71571304526606 37.75578528700407 L 361.22793673278966 37.861490436627264 L 361.5743591933364 37.96734822911901 L 361.7015471713403 38.07335910596248 L 361.7803937551149 38.17952351055965 L 362.21384155259886 38.28584188824141 L 362.53800839345047 38.39231468627895 L 362.66594530549935 38.498942353895586 L 363.4779118430651 38.605725342277424 L 364.62872749406984 38.71266410458509 L 364.6679523079714 38.81975909596565 L 364.80367068921703 38.92701077356344 L 365.24677976681335 39.03441959653264 L 365.7370570085111 39.14198602604847 L 366.01604759752263 39.249710525319074 L 366.60277693670287 39.357593559597944 L 366.60563089806055 39.46563559619574 L 366.88472390428007 39.5738371044921 L 367.26731259712597 39.682198555948275 L 367.42477942683473 39.79072042411951 L 367.83879671575073 39.89940318466722 L 368.0982392568267 40.00824731537148 L 368.2453012108691 40.11725329614387 L 369.3811340633412 40.22642160903979 L 369.588637014341 40.335752738271935 L 369.89996222654344 40.44524717022216 L 369.92980349832624 40.55490539345567 L 370.02956245783867 40.66472789873285 L 370.1316782402682 40.774715179023474 L 370.1878722326139 40.88486772951944 L 370.2695537640196 40.99518604764819 L 371.11929414451083 41.10567063308656 L 371.3738212876131 41.21632198777377 L 371.6614244915032 41.32714061592549 L 371.733630396802 41.43812702404762 L 371.8115256066977 41.549281720950034 L 372.08429211245794 41.6606052177608 L 372.9371434608543 41.77209802793982 L 373.6700296137703 41.883760667293814 L 373.7714466564941 41.995593653989545 L 373.77697732395313 42.107597508569484 L 373.8129279072572 42.21977275396546 L 373.9374240029585 42.33211991551366 L 373.9833802165379 42.444639520969076 L 374.167764025724 42.557332100520966 L 374.423003229515 42.67019818680728 L 374.50101174271606 42.78323831493026 L 375.24300467237896 42.89645302247084 L 375.53283455914504 43.00984284950516 L 375.8706293596893 43.12340833861913 L 375.999240922057 43.23715003492407 L 376.04742510963956 43.35106848607302 L 376.30852691775533 43.465164242275705 L 376.42925148874235 43.579437856315394 L 377.0400041266527 43.69388988356411 L 377.07878365763355 43.80852088199947 L 377.3011356485516 43.923331412220705 L 377.47705181868236 44.03832203746515 L 378.01700793594534 44.15349332362473 L 378.1517024205167 44.268845839262895 L 378.45062850388376 44.384380155631334 L 378.50648561299334 44.61599648910885 L 378.5495440262558 44.73207966231598 L 378.8056748111327 44.848346948483936 L 379.14139859745694 44.9647989325631 L 379.21309808013183 45.08143620229555 L 379.2567489264321 45.198259348233705 L 379.4053796707743 45.31526896375772 L 379.9982741935466 45.432465645093544 L 380.1124215595029 45.5498499913316 L 380.13425346693236 45.66742260444448 L 380.76043218987417 45.78518408930631 L 381.15191162001673 45.90313505371046 L 381.3696549437368 46.021276108389316 L 381.78953467906075 46.13960786703251 L 381.82773597312877 46.258130946306665 L 382.01175765973187 46.37684596587383 L 382.1747949705709 46.49575354841204 L 382.58575647226024 46.61485431963388 L 382.7707808735464 46.734148908306906 L 382.7925253478173 46.85363794627324 L 382.9097859908601 46.973322068469884 L 383.53787682736385 47.09320191294853 L 384.007044087394 47.21327812089646 L 384.04103295673974 47.33355133665714 L 384.1301892566061 47.45402220775031 L 384.3261902638377 47.574691384893526 L 384.4110272384527 47.69555952202336 L 384.61603211633474 47.816627276315785 L 385.01498346961023 47.93789530820857 L 385.0952327754714 48.059364281422745 L 385.19856577522114 48.18103486298355 L 385.24224296878646 48.30290772324361 L 385.2896160020755 48.42498353590429 L 385.9039012390879 48.547262978038134 L 386.0932222291483 48.66974673011191 L 386.76757119682645 48.79243547600845 L 386.8488372056678 48.91532990305063 L 386.9539397813027 49.03843070202356 L 387.1304426675478 49.16173856719831 L 387.22974156412147 49.28525419635537 L 387.27325021278295 49.408978290808136 L 387.3283768752236 49.53291155542718 L 387.4391824505434 49.657054698663956 L 387.52856632127094 49.78140843257552 L 387.8780944076885 49.90597347284847 L 387.8954639464229 50.03075053882412 L 388.44286612113547 50.15574035352347 L 389.0710872431587 50.28094364367166 L 389.4487592608014 50.40636113972448 L 389.6924395541543 50.5319935758929 L 389.79421618433287 50.65784169016911 L 389.940452713984 50.78390622435279 L 390.49407863420237 50.91018792407738 L 390.4940861296759 51.03668753883619 L 390.5732149531308 51.163405822009395 L 390.64774888635736 51.29034353089082 L 390.7074455001862 51.41750142671481 L 390.85547293995484 51.54488027468449 L 390.87463008694255 51.6724808439983 L 391.01252538016627 51.80030390787863 L 391.0889978993399 51.928350243599766 L 391.1076568850167 52.05662063251589 L 391.1302031100565 52.18511586009038 L 391.1533133828822 52.31383671592391 L 391.17528866117823 52.44278399378413 L 391.2943067237894 52.57195849163486 L 391.3490219154291 52.7013610116652 L 391.45305402614366 52.830992360320465 L 391.6220152907876 52.96085334833185 L 391.7950123806771 53.09094479074611 L 391.8448565655041 53.221267506957474 L 391.97350717831915 53.35182232073805 L 392.13462305848657 53.48261006026871 L 392.29497619171167 53.61363155817128 L 392.320518391913 53.744887651540125 L 392.41400221364984 53.87637918197379 L 392.4925925906792 54.008106995608046 L 392.67598312140836 54.140071943148314 L 392.6839211243934 54.27227487990217 L 392.85905950874206 54.40471666581345 L 393.1940600519369 54.53739816549523 L 393.6995326604573 54.67032024826358 L 394.05956806572544 54.80348378817246 L 394.1076579754071 54.936889664047385 L 394.14898949664064 55.07053875952056 L 394.2710838215371 55.20443196306633 L 394.29443569729085 55.3385701680362 L 394.5663688590051 55.472954272694324 L 394.8648481934686 55.607585180254546 L 394.9057271985936 55.74246379891588 L 395.05129265590534 55.877591041899564 L 395.48024581194835 56.01296782748682 L 395.48716943314855 56.1485950790551 L 395.7334513700295 56.28447372511664 L 395.7351706644266 56.420604699356545 L 395.73517638535196 56.55698894067132 L 395.92917711980783 56.69362739320741 L 395.9295103101262 56.830521006400545 L 396.39157043926565 56.96767073501553 L 396.39157356729777 57.10507753918614 L 396.5904775952769 57.2427423844548 L 396.8402603201764 57.380666241814765 L 397.17975257464354 57.51885008774957 L 397.33253757698196 57.65729490427543 L 397.50946161545386 57.79600167898309 L 397.52233971266884 57.93497140507975 L 397.56997727512646 58.074205081431955 L 397.7124891128874 58.21370371260883 L 398.3799914170223 58.35346830892502 L 398.45087003993785 58.49349988648521 L 398.65707564831143 58.63379946722813 L 398.66061960279757 58.77436807897135 L 398.68835935238644 58.91520675545644 L 398.6972843011622 59.05631653639455 L 398.7013781580302 59.19769846751274 L 399.8065399705603 59.339353600599964 L 399.95029183950925 59.4812829935546 L 400.1303576425353 59.62348771043139 L 400.1832149100213 59.76596882148965 L 400.27211979395395 59.90872740324119 L 400.370030066152 60.05176453849958 L 401.2271506547754 60.19508131642914 L 401.23776217622117 60.33867883259467 L 401.4505857653482 60.48255818901197 L 401.4906946987821 60.62672049419831 L 401.53958516619025 60.77116686322387 L 401.6737146291542 60.91589841776329 L 401.68164848183056 61.0609162861482 L 401.6972444991996 61.206221603419465 L 402.01361265268986 61.3518155113814 L 402.0766260586996 61.49769915865471 L 402.18566735566236 61.64387370073126 L 402.28116909919436 61.79034030002913 L 402.4819577711204 61.93710012594761 L 402.5441078432935 62.08415435492384 L 402.6929034760944 62.23150417048873 L 402.8372959815584 62.379150763324844 L 402.98557730012055 62.52709533132321 L 403.2423405597723 62.67533907964264 L 403.4475523829065 62.82388322076781 L 403.60268410396884 62.97272897456935 L 403.9536624119537 63.12187756836357 L 404.1300963678666 63.271330236973256 L 404.30763086400924 63.42108822278925 L 404.3956867665171 63.57115277583205 L 404.42031183204773 63.72152515381464 L 404.4512442155463 63.872206622205795 L 404.4929618954654 64.02319845429389 L 404.50144202929084 64.17450193125126 L 404.5014422937004 64.32611834219972 L 404.5408436812986 64.47804898427648 L 404.67312171148916 64.63029516270046 L 404.696272196865 64.7828581908397 L 404.9005744830734 64.9357393902796 L 405.06803483217493 65.08894009089101 L 405.4325010470326 65.24246163090032 L 405.5183965403118 65.39630535695909 L 405.5904927822431 65.55047262421522 L 405.70434643971635 65.7049647963845 L 405.856200414398 65.85978324582277 L 405.9671996455587 66.01492935359948 L 406.26119635377916 66.1704045095712 L 406.3818384124331 66.32621011245658 L 406.53713994097376 66.48234756991195 L 406.7096657355121 66.63881829860713 L 406.7598939006432 66.79562372430325 L 407.2371467269783 66.95276528193 L 407.2964975689405 67.11024441566491 L 407.3933050769473 67.26806257901285 L 407.4999226617135 67.4262212348865 L 407.52046312720347 67.58472185568763 L 407.6198201410951 67.7435659233895 L 407.83941212591907 67.9027549296199 L 407.8447874282334 68.06229037574542 L 408.04367722403276 68.2221737729559 L 408.09967075847436 68.38240664235087 L 408.38929961292496 68.5429905150259 L 408.78295615649745 68.70392693216098 L 408.9401527432254 68.86521744510867 L 409.12522661380365 69.02686361548416 L 409.2215400564538 69.18886701525605 L 409.3534428129486 69.35122922683746 L 409.6020458541235 69.51395184317983 L 409.86381454347526 69.67703646786572 L 410.9450243079117 69.84048471520418 L 411.0614713200897 70.00429821032634 L 411.09285784365323 70.16847858928253 L 411.15468905689664 70.33302749914037 L 411.21475230641215 70.49794659808373 L 411.2200305317676 70.66323755551309 L 411.3742591078204 70.82890205214682 L 411.8754636463184 70.99494178012401 L 411.9650694226878 71.16135844310787 L 412.0660929639757 71.32815375639075 L 412.20139804078735 71.49532944700013 L 412.35517368739323 71.66288725380616 L 412.49645796994736 71.8308289276298 L 412.5257818905702 71.99915623135297 L 412.99476144445714 72.16787094002933 L 413.05035971751215 72.33697484099667 L 413.0645244589533 72.50646973399057 L 413.2772121155088 72.67635743125908 L 413.5021205162099 72.84663975767944 L 413.75596859564934 73.0173185508753 L 413.9054275966261 73.18839566133602 L 414.00407112190027 73.35987295253653 L 414.0687140816026 73.53175230105984 L 414.168422549294 73.70403559671945 L 414.234546035415 73.87672474268498 L 414.312710773108 74.04982165560739 L 414.41887014836465 74.22332826574717 L 414.5517478700737 74.3972465171035 L 414.8982022936907 74.5715783675443 L 415.02948976600703 74.74632578893949 L 415.0490888738524 74.92149076729407 L 415.147265741108 75.0970753028837 L 415.4456726458302 75.27308141039191 L 415.44567276567 75.44951111904862 L 415.6971249137951 75.62636647277077 L 415.7048680401291 75.80364953030397 L 416.04639916032295 75.98136236536686 L 416.1378558129249 76.15950706679621 L 416.28980760059306 76.33808573869419 L 416.35575793465557 76.5171005005779 L 416.39410642842466 76.6965534875302 L 416.65433457410455 76.87644685035195 L 417.18000220967406 77.05678275571745 L 417.25576233883976 77.23756338633063 L 417.30091701841377 77.41879094108356 L 417.3092169255031 77.60046763521711 L 417.3153036733182 77.782595700483 L 417.4202374663009 77.96517738530889 L 417.6163723953226 78.14821495496454 L 417.7423159096199 78.33171069173045 L 417.81522784171324 78.51566689506882 L 417.87954564667945 78.70008588179621 L 417.9204835444661 78.88496998625862 L 417.9952936810853 79.07032156050934 L 418.09128523148667 79.25614297448743 L 418.3157907316264 79.44243661620067 L 418.45932574420107 79.62920489190878 L 418.5388843440695 79.8164502263104 L 418.5439408156417 80.00417506273203 L 418.75660494546 80.19238186331904 L 418.79497823818076 80.3810731092293 L 418.8016348275853 80.5702513008302 L 418.8843205173526 80.7599189578965 L 418.90539838855017 80.95007861981242 L 419.0660405045835 81.14073284577518 L 419.2678754889844 81.33188421500193 L 419.49352505237925 81.52353532693894 L 419.5335868125306 81.71568880147396 L 419.53358773672187 81.90834727915075 L 419.557475864684 82.10151342138704 L 419.6567620842044 82.29518991069506 L 419.73111925806415 82.48937945090518 L 419.7446638435208 82.68408476739211 L 419.76847726650476 82.87930860730467 L 419.82109381920463 83.07505373979825 L 420.1534461587692 83.27132295627058 L 420.1742731361558 83.46811907060038 L 420.45738337741636 83.66544491938959 L 420.50205877796805 83.86330336220857 L 420.6794026670821 84.061697281845 L 420.8728273944631 84.26062958455549 L 421.07734810322063 84.46010320032144 L 421.1039126828566 84.66012108310764 L 421.1388719990023 84.86068621112503 L 421.262676281486 85.06180158709645 L 421.5884882522893 85.26347023852685 L 421.8373077467888 85.46569521797608 L 421.9648004733748 85.66847960333695 L 421.98833929895704 85.87182649811535 L 422.0825165049273 86.07573903171618 L 422.1451768167852 86.28022035973169 L 422.19084679060796 86.48527366423474 L 422.2198827933355 86.69090215407584 L 422.4566226984032 86.89710906518462 L 422.45961987471037 87.10389766087508 L 422.4730710655033 87.31127123215566 L 422.6500649728219 87.5192330980434 L 422.83904253261005 87.72778660588278 L 422.9652397449454 87.93693513166914 L 423.2155637229248 88.14668208037602 L 423.3245871598455 88.3570308862885 L 423.51125743172895 88.56798501333998 L 423.6203419900276 88.77954795545486 L 423.7804108875463 88.99172323689561 L 423.7948143092925 89.20451441261491 L 423.8797951832989 89.41792506861333 L 423.8948021006403 89.6319588223015 L 423.91623309848234 89.84661932286849 L 424.06025855381455 90.06191025165504 L 424.2529517852942 90.27783532253164 L 424.29271501450603 90.49439828228418 L 424.3282871339423 90.71160291100313 L 424.74075800819145 90.92945302247972 L 424.82999130435553 91.14795246460784 L 424.876370391799 91.36710511979152 L 424.90146534147163 91.58691490535932 L 424.91079258961867 91.80738577398415 L 424.99118447626506 92.02852171410967 L 425.47034856303503 92.25032675038352 L 425.6647421134548 92.47280494409671 L 425.6963684992799 92.6959603936296 L 425.9301624736814 92.91979723490545 L 426.54769551351376 93.1443196418495 L 426.563134824624 93.36953182685687 L 426.64240233839786 93.59543804126605 L 427.1601065311308 93.82204257584112 L 427.1663766343798 94.04934976126009 L 427.28516782069835 94.27736396861167 L 427.32905846615415 94.50608960990002 L 427.3290652525005 94.73553113855667 L 427.43229507552553 94.96569304996058 L 427.4755474545239 95.1965798819673 L 428.0354392868045 95.42819621544476 L 428.04799128383183 95.6605466748199 L 428.21258455615134 95.89363592863151 L 428.40861813386454 96.12746869009368 L 428.61284637800406 96.36204971766745 L 428.6694469446424 96.59738381564216 L 428.83693204291507 96.83347583472516 L 428.9233046391367 97.07033067264251 L 428.9534209119594 97.307953274748 L 429.03437471689915 97.54634863464281 L 429.1807593153179 97.78552179480573 L 429.8064397598503 98.02547784723237 L 429.856393444946 98.26622193408622 L 430.1019190929725 98.50775924835926 L 430.2226437688603 98.75009503454453 L 430.26277322276087 98.99323458931946 L 430.5316166669311 99.2371832622402 L 430.63761158971715 99.48194645644776 L 430.6479736523561 99.7275296293866 L 430.93575120600406 99.97393829353427 L 431.05880333992224 100.22117801714404 L 431.1328155560701 100.46925442499992 L 431.1454477775957 100.71817319918432 L 431.2397515989441 100.96794007985932 L 431.6077146851153 101.21856086606044 L 431.8818992894907 101.4700414165049 L 432.02476711275466 101.72238765041328 L 432.07855247655374 101.97560554834536 L 432.12386393620744 102.22970115305077 L 432.26165236862613 102.48468057033415 L 432.64066610845117 102.74054996993567 L 432.7291564736206 102.99731558642628 L 432.8018005193909 103.2549837201201 L 432.93879821417215 103.5135607380011 L 432.9815424024628 103.77305307466764 L 433.19832639963295 104.03346723329338 L 433.27357860094077 104.29480978660456 L 433.4811763772503 104.55708737787603 L 433.5027989449147 104.82030672194401 L 433.6431856612279 105.08447460623808 L 433.6559822749078 105.34959789183102 L 433.77717727664464 105.6156835145083 L 433.79094286693913 105.88273848585646 L 433.8524847637753 106.15076989437205 L 433.86448024869054 106.41978490659045 L 434.2975701617776 106.68979076823553 L 434.3184663528 106.96079480539089 L 434.5242336346397 107.2328044256925 L 434.5282863042214 107.50582711954331 L 434.5611257752116 107.77987046135149 L 434.7041605147747 108.05494211079076 L 434.8245839500361 108.33104981408547 L 435.4069746907693 108.88640480776792 L 435.40780189532177 109.16566803526092 L 435.4201620405289 109.44599919356403 L 435.48312435830576 109.72740648179229 L 435.52119577893995 110.00989819384853 L 435.8766815015611 110.29348271989056 L 436.07678712039325 110.5781685478255 L 436.07870019604655 110.86396426483554 L 436.19393404159274 111.15087855893051 L 436.21560287208854 111.43892022053427 L 436.79133302173483 111.72809814409919 L 436.88205035131006 112.01842132975537 L 437.0122784331275 112.30989888499056 L 437.14448346922734 112.60254002636498 L 437.37999062415383 112.89635408125974 L 437.3928724833161 113.19135048966064 L 437.57642383420665 113.48753880597849 L 437.9650372412328 113.78492870090525 L 437.99903165646094 114.08352996330916 L 438.48667317706366 114.3833525021679 L 438.58447697601343 114.68440634854176 L 438.64696990261876 114.9867016575871 L 439.1240940210349 115.29024871061239 L 439.5242669092362 115.59505791717561 L 439.54344977401735 115.90113981722698 L 439.76291749531094 116.208505083295 L 439.93572262002897 116.51716452272046 L 440.0077487053166 116.82712907993533 L 440.0388659241245 117.13840983879254 L 440.0971879607792 117.4510180249431 L 440.65593078576285 117.7649650082659 L 440.6960030616195 118.08026230534881 L 440.95673312585615 118.39692158202348 L 441.1135484458892 118.71495465595586 L 441.23783616765206 119.0343734992918 L 441.630476619173 119.35519024136175 L 441.81242707123107 119.67741717144457 L 441.9748841411578 120.00106674159196 L 442.13342941259583 120.32615156951573 L 442.16373855656104 120.65268444154003 L 442.5766490382254 120.98067831561843 L 442.76244741880635 121.31014632441963 L 443.44484644389667 121.64110177848278 L 443.50219352105955 121.97355816944383 L 443.6697298001952 122.30752917333604 L 444.15901201867115 122.6430286539657 L 444.5069484785565 122.98007066636524 L 444.6138825967226 123.31866946032648 L 444.62562004818403 123.65883948401535 L 444.89196859194357 124.00059538767192 L 444.93053944123517 124.34395202739574 L 445.15500462457834 124.68892446902089 L 445.1969462409686 125.03552799208313 L 445.32601035346477 125.38377809388021 L 445.7892466715575 125.73369049362998 L 445.9742496130858 126.08528113672782 L 446.3196966283502 126.43856619910667 L 446.3545639299806 126.79356209170282 L 446.63025898822747 127.1502854650301 L 446.68043416681866 127.50875321386604 L 447.0607359546644 127.86898248205335 L 447.0983868190401 128.23099066741952 L 447.38899935907796 128.5947954268189 L 447.4524809490159 128.9604146813005 L 447.5951418449457 129.32786662140467 L 447.7157861452151 129.6971697125946 L 447.76505185148864 130.06834270082334 L 448.0694248000436 130.44140461824463 L 448.1666885285073 130.81637478906794 L 448.1800420916185 131.1932728355652 L 448.5170355667947 131.57211868423246 L 448.7242512542296 131.95293257211108 L 448.765915446819 132.3357350532749 L 449.28898352015716 132.7205470054866 L 449.5773862258938 133.1073896370309 L 449.61392771280526 133.49628449372796 L 449.6175469917532 133.8872534661342 L 450.0650912799848 134.28031879693634 L 450.33812312802496 134.67550308854453 L 450.65260511696863 135.07282931089134 L 451.1979867809288 135.47232080944343 L 451.213824553483 135.8740013134323 L 451.2609697165381 136.27789494431198 L 451.6428696997442 136.6840262244512 L 451.7514253808184 137.09242008606753 L 451.9204707367923 137.50310188041175 L 451.94333842125513 137.91609738721093 L 452.038544344545 138.33143282437925 L 452.3871652304231 138.74913485800505 L 453.16419882651826 139.16923061262435 L 453.2664842939214 139.59174768179076 L 453.28473887119634 140.01671413895087 L 453.40547391029787 140.44415854863746 L 453.48557180104143 140.87410997799088 L 453.5681703781253 141.30659800862009 L 453.6989667164902 141.74165274881568 L 453.75830955052834 142.17930484612742 L 453.79800524299276 142.61958550032006 L 454.01191812510746 143.06252647671943 L 454.20990948096625 143.5081601199655 L 454.2951273184691 143.9565193681854 L 454.7979321594713 144.40763776760195 L 454.83773212777584 144.86154948759588 L 455.3436382228675 145.31828933623586 L 455.4260517583923 145.77789277629648 L 455.54269538842215 146.24039594178072 L 455.7109764753112 146.70583565496736 L 455.78947301183973 147.1742494440034 L 455.82597873854115 147.64567556106118 L 456.2859642197994 148.12015300108385 L 456.2867490080382 148.59772152114164 L 457.030989609903 149.07842166042207 L 457.03729219434604 149.56229476088043 L 457.12371322225107 150.04938298857604 L 457.2571644244302 150.5397293557225 L 457.35024835400395 151.03337774347995 L 457.45675390642265 151.53037292552028 L 457.5870745132231 152.03076059239635 L 457.61641554197 152.5345873767492 L 457.69956099930886 153.04190087938673 L 458.19812540615817 153.55274969627158 L 458.2351425981798 154.067183446456 L 458.2488153079655 154.5852528010036 L 458.4050981246373 155.10700951294046 L 458.6183389507205 155.63250644827986 L 458.66305989224765 156.16179761816693 L 458.9294312715166 156.69493821219237 L 458.9315942488795 157.2319846329263 L 458.98646179677127 157.77299453172685 L 459.0256272109145 158.31802684587922 L 459.0301502502565 158.86714183712667 L 459.6802956403446 159.42040113165484 L 459.9814746954481 159.97786776159688 L 460.3779877372867 160.53960620812825 L 460.5405573523616 161.1056824462264 L 460.56625240310456 161.6761639911714 L 460.582533495944 162.25111994687012 L 460.92407523190013 162.83062105609122 L 461.2215822575671 163.41473975270088 L 461.2769264966568 164.00355021599654 L 461.40344837377756 164.59712842724122 L 461.77352377125385 165.19555222850374 L 461.9639520518672 165.79890138392307 L 462.03124979906045 166.4072576435115 L 462.0731437944508 167.02070480963084 L 462.1500894969992 167.63932880627124 L 462.22149613382527 168.263217751279 L 462.2930811890215 168.89246203168466 L 462.48463361754665 169.52715438229177 L 462.5521857326717 170.16738996769766 L 462.9210896139154 170.8132664679278 L 463.35363301143116 171.46488416787594 L 463.5530394878584 172.1223460507556 L 463.556523848041 172.78575789577968 L 463.5835426594298 173.4552283803016 L 463.5923685597785 174.13086918666227 L 463.65074067053655 174.81279511400788 L 464.54326097552814 175.50112419535685 L 465.0105360183215 176.19597782021611 L 465.3907155641493 176.89748086306366 L 465.4102868099217 177.6057618180388 L 466.69670759269906 178.32095294020195 L 466.8128235411797 179.04319039375537 L 466.8227866135116 179.77261440763635 L 467.3691194479892 180.50936943893043 L 467.90483015608066 181.25360434458054 L 468.0768306128614 182.00547256190112 L 468.1053937859092 182.76513229844704 L 468.13698855312714 183.53274673182256 L 468.26960815160186 184.30848422006392 L 469.6631903603308 185.09251852327225 L 469.68958936333735 185.88502903722724 L 470.39142910387545 186.6862010397682 L 470.6593947899605 187.4962259507871 L 471.29790513353 188.3153016067476 L 471.91395456470326 189.1436325507151 L 472.40716362469385 189.9814303389602 L 472.41546509999006 190.82891386528667 L 472.59871726848075 191.68630970432673 L 472.80296963022386 192.55385247515153 L 472.9997674240182 193.4317852266559 L 473.3417072190401 194.32035984630153 L 473.4713680398643 195.21983749393797 L 473.8034450513456 196.13048906257188 L 474.7861305778738 197.05259566811657 L 474.9918339745288 197.9864491703393 L 475.0153671392267 198.93235272741975 L 475.1068525860771 199.89062138675803 L 475.17439609217485 200.861582714912 L 475.5174812089254 201.8455774698158 L 476.05815486316067 202.84296031873225 L 476.2798815424861 203.85410060572258 L 477.42626434891343 204.87938317279185 L 477.73259194348555 205.9192092392763 L 478.14356953162934 206.97399734450278 L 478.87909787088984 208.0441843592622 L 479.1747292660724 209.13022657221512 L 479.9198059090775 210.2326008579907 L 480.12523982009566 211.35180593446415 L 480.27890756545787 212.48836371750724 L 480.41408010177275 213.64282078242718 L 480.9317046881875 214.8157499423325 L 481.46725610823677 216.0077519548397 L 481.6183388127371 217.21945736984736 L 482.1403162555548 218.4515285326072 L 482.44641045415983 219.70466175802056 L 482.6788480677142 220.97958969403368 L 483.6592787960251 222.2770838942119 L 484.2354421497863 223.5979576221156 L 485.0351705696042 224.94306891299829 L 485.17187946346166 226.3133239216927 L 485.34600493533065 227.70968058939962 L 485.6326691496112 229.1331526665379 L 485.7396610445278 230.58481413397226 L 486.59665192730733 232.0658040709165 L 486.6199561723716 233.5773320247829 L 487.0819256569568 235.12068394639982 L 487.45879663268806 236.69722876356315 L 488.1490790751426 238.308425677123 L 488.28144693071164 239.95583227705106 L 488.7794669901436 241.64111359162257 L 490.51834607757746 243.36605220148738 L 491.9901037007597 245.13255957263732 L 492.5436442003241 246.94268878890767 L 493.03196241271627 248.7986488966751 L 494.0605646045644 250.70282111309388 L 494.3364170001863 252.6577771961517 L 494.40675727411536 254.66630033205837 L 495.764864975041 256.7314089656124 L 496.4167136393127 258.8563840855983 L 496.6636582928267 261.04480058432677 L 496.72207179995394 263.30056344384326 L 497.11361754205524 265.6279496686684 L 497.6568810287788 268.0316570961834 L 498.12833645338617 270.5168614843565 L 498.2728302981214 273.08928362054775 L 498.4437230622556 275.75526863933413 L 500.5649982638848 278.5218803157355 L 500.7126070023279 281.39701386030816 L 502.2291038871687 284.3895317511188 L 502.96243397795797 287.50942848989905 L 503.04270024429366 290.7680320033869 L 504.52587768720224 294.17825192782334 L 504.84561506593167 297.7548885152436 L 505.80233021352046 301.5150208394297 L 506.1648829750384 305.47850005839433 L 508.0828879961481 309.66858381193396 L 508.22622639407433 314.11276317017894 L 508.8245456001385 318.84385682251906 L 509.3161161638328 323.9014833468834 L 510.1907588797418 329.33408004207115 L 514.0059863459874 335.2017314774545 L 514.6718566349282 341.5802317297231 L 514.807465967987 348.56708824157977 L 514.9472207097422 356.2906997847306 L 518.8512398381349 364.92496289651524 L 521.7744167657781 374.71368307321984 L 526.2584110044171 386.0139312037909 L 526.641165634161 399.3792879679157 L 531.7647382589776 415.7371626228511 L 533.3236405241314 436.82613093012674 L 534.001739734632 466.54936234918705 L 538.2586300292779 517.3615620755229" stroke-linejoin="bevel" stroke-miterlimit="10"/><path fill="none" stroke="none"/><path fill="none" stroke="blue" paint-order="fill stroke markers" d=" M 549.2272727272726 NaN" stroke-linejoin="bevel" stroke-miterlimit="10"/></g></g></g><g clip-path="url(#AbLcZVOWewNc)"><g><g><path fill="none" stroke="none"/><path fill="none" stroke="red" paint-order="fill stroke markers" d=" M 133.77272727272728 30.68181818181813 L 211.06408281372939 30.748249095799565 L 238.45575352008427 30.81474026458659 L 256.4400679644589 30.88129179758414 L 275.72181920403995 30.947903804495468 L 285.5545889444003 31.01457639532316 L 289.46956689508147 31.081309680370282 L 299.1371615587931 31.14810377024139 L 300.64165438188934 31.21495877584357 L 305.1773712044396 31.28187480838767 L 305.59260477169676 31.34885197938945 L 308.4641271517067 31.415890400670378 L 311.0470090746634 31.482990184359096 L 315.18273225672317 31.550151442892798 L 316.5137826575607 31.617374289017334 L 317.6009410686585 31.68465883578949 L 318.9167595750268 31.752005196577556 L 323.50020991875397 31.81941348506234 L 324.04614005004623 31.88688381523889 L 332.18933896924204 31.954416301416927 L 332.68017939322385 32.02201105822269 L 333.88518598203234 32.08966820059959 L 333.8851889715165 32.15738784380983 L 334.2003808193638 32.22517010343506 L 336.69852602403796 32.293015095377996 L 336.95151443447014 32.36092293586353 L 339.88630929784017 32.42889374143954 L 340.41073579674406 32.496927628978824 L 342.0886690550816 32.565024715679556 L 342.08866998086364 32.63318511906698 L 342.22819714238665 32.70140895699444 L 342.2282290419041 32.76969634764441 L 342.22845837720666 32.83804740953042 L 344.4875241947669 32.90646226149738 L 344.78042212061825 32.974941022723556 L 347.34305250140045 33.04348381272132 L 349.75936322896706 33.112090751338656 L 350.37921180073863 33.18076195876017 L 351.44532661588 33.24949755550904 L 351.57464467849115 33.31829766244732 L 352.58378623105875 33.38716240077781 L 353.8899187813287 33.45609189204538 L 354.128567048057 33.525086258137776 L 354.3158151223063 33.59414562128745 L 355.383334495878 33.66327010407247 L 358.4347676953985 33.7324598294183 L 358.44048470778455 33.80171492059833 L 359.41688110581026 33.87103550123618 L 359.44800524606 33.9404216953061 L 360.42986529946774 34.009873627134766 L 360.49745322404885 34.07939142140276 L 362.0330363313365 34.14897520314548 L 362.7539205286505 34.218625097754966 L 362.9561204620896 34.288341230980905 L 363.47791260718594 34.35812372893179 L 365.4089734494633 34.42797271807717 L 366.68678435735507 34.49788832524803 L 366.9013371220149 34.567870677638666 L 366.99031918315245 34.637919902808335 L 367.5090165876903 34.708036128681556 L 367.51189429764787 34.7782194835512 L 367.51582384018843 34.84847009607836 L 367.86707625060205 34.9187880952943 L 368.09089350679864 34.98917361060262 L 369.6494628073975 35.05962677177945 L 369.731680339377 35.130147708975414 L 369.73822850725514 35.20073655271756 L 370.58334979467264 35.27139343390991 L 370.84277301922924 35.34211848383575 L 371.425996832706 35.41291183415831 L 372.06060338288023 35.48377361692292 L 372.1145237370688 35.55470396455826 L 373.3811902735174 35.62570300987761 L 375.06758834196506 35.69677088608057 L 375.26255414034097 35.767907726754515 L 375.5070373961698 35.83911366587597 L 375.79898209917377 35.91038883781266 L 376.055076146391 35.98173337732419 L 376.7560049758036 36.0531474195642 L 377.0854961556131 36.12463110008173 L 378.03111313464575 36.196184554822594 L 378.6637007605085 36.267807920131304 L 378.9391942838451 36.33950133275209 L 378.99586644225207 36.41126492983119 L 379.24521238240715 36.48309884891762 L 379.31988743547373 36.55500322796547 L 380.97702078042795 36.626978205335035 L 381.33824569535125 36.699023919794286 L 381.45208654823574 36.77114051052138 L 381.56005065812735 36.84332811710499 L 381.66161176527265 36.915586879546936 L 381.7908476558565 36.98791693826331 L 381.8637827563441 37.0603184340863 L 382.48429900555783 37.13279150826588 L 382.64258400913906 37.205336302471096 L 382.7203594031935 37.27795295879241 L 383.9388449248524 37.35064161974253 L 384.45604292690695 37.42340242825878 L 384.46827063555855 37.49623552770436 L 384.70562448509486 37.56914106187048 L 385.27895069645973 37.642119174977665 L 385.3535416515262 37.7151700116774 L 385.6392188599445 37.788293717054216 L 385.88216323948063 37.861490436627264 L 386.20311225918203 37.934760316352026 L 386.7581933713051 38.00810350262202 L 387.0269632035571 38.081520142270506 L 387.0504330302912 38.155010382572755 L 387.1576827207728 38.22857437124674 L 387.2939949548764 38.3022122564563 L 387.450028014352 38.37592418681186 L 387.70870334238975 38.449710311372314 L 387.80024015626003 38.5235707796478 L 388.0156749985094 38.597505741600344 L 388.11208778689155 38.671515347646164 L 388.346567072066 38.745599748657924 L 388.6104660796068 38.81975909596565 L 388.638869274987 38.893993541359464 L 389.4449794734245 38.96830323709082 L 390.06650584629654 39.04268833587503 L 390.078512527682 39.11714899089236 L 390.4291317939924 39.19168535579058 L 390.8058493343068 39.26629758468653 L 391.0020942534438 39.340985832168144 L 391.11015181884176 39.41575025329632 L 391.18061424730047 39.49059100360671 L 391.5696815539014 39.56550823911232 L 391.56968511717406 39.64050211630422 L 391.7912362456498 39.71557279215506 L 392.09413253010104 39.79072042411951 L 392.15936671963397 39.86594517013759 L 392.36006746234983 39.94124718863566 L 392.41468156506903 40.016626638528805 L 393.0504157395202 40.09208367922304 L 393.4179480671703 40.167618470616844 L 393.44510521147976 40.24323117310382 L 393.6946342458497 40.31892194757427 L 394.065072943888 40.394690955417104 L 394.0796244245925 40.47053835852273 L 394.29982300538853 40.54646431928404 L 394.31669047959207 40.622469000599494 L 394.6226828772022 40.698552565874365 L 394.6450495591954 40.774715179023474 L 394.7360498953005 40.850957004473 L 394.75002045641105 40.92727820716277 L 394.75263054095825 41.00367895254817 L 394.8466032133028 41.08015940660255 L 394.8624943993097 41.15671973581925 L 394.8801362849799 41.233360107214025 L 395.1868368810177 41.31008068832648 L 395.33381588803434 41.38688164722328 L 395.35989145342813 41.46376315249972 L 395.5839811674439 41.54072537328216 L 395.8685786092619 41.61776847922988 L 395.8783862873652 41.69489264053823 L 395.935550234799 41.77209802793982 L 396.00993955235896 41.84938481270751 L 396.57497812976743 41.926753166656226 L 396.65055136509875 42.00420326214578 L 396.6761675127341 42.0817352720826 L 396.70721610093995 42.15934936992244 L 396.96012158235743 42.23704572967256 L 397.08310898000315 42.314824525894096 L 397.14284067674697 42.39268593370457 L 397.1512066441099 42.47063012877959 L 397.24979941368014 42.54865728735638 L 397.2601183091329 42.62676758623502 L 397.42891654300615 42.70496120278153 L 397.4307389122074 42.78323831493026 L 397.7933457910926 42.8615991011859 L 397.8368357769583 42.940043740626265 L 397.9277826968005 43.01857241290486 L 397.97437407759367 43.097185298253066 L 398.0877855252409 43.17588257748241 L 398.14923097874953 43.25466443198786 L 398.2944067053155 43.333531043749645 L 398.3793094282043 43.41248259533586 L 398.6306928772304 43.49151926990521 L 398.6972847189783 43.57064125120951 L 398.69728820077927 43.64984872359605 L 398.73030888182933 43.72914187201059 L 398.77860895332435 43.80852088199947 L 398.7802339304744 43.88798593971251 L 398.9330976077288 43.96753723190557 L 399.2843646876626 44.04717494594297 L 399.9112838899781 44.126899269800674 L 399.96017428259023 44.206710392068544 L 399.99908101828413 44.28660850195263 L 400.046440576708 44.36659378927891 L 400.0746169756972 44.44666644449512 L 400.148637451384 44.526826658673826 L 400.460718628542 44.60707462351502 L 400.5047954832451 44.68741053134886 L 400.998299240018 44.76783457513886 L 401.49631362748 44.848346948483936 L 401.5252426194447 44.928947845621906 L 401.66639731033627 45.009637461431794 L 402.0313433732233 45.09041599143666 L 402.04668720526644 45.17128363180723 L 402.3080735697901 45.252240579363615 L 402.47159024375617 45.33328703157906 L 402.51691647161033 45.41442318658221 L 402.5337629999306 45.49564924316053 L 402.70175049634537 45.5769654007629 L 402.89072257452483 45.658371859502836 L 402.8917888634563 45.739868820161064 L 403.05797326041215 45.82145648418873 L 403.1222857535448 45.90313505371046 L 403.18446420150576 45.984904731527195 L 403.26400055472874 46.06676572111917 L 403.5318134309623 46.148718226649294 L 403.64395894262645 46.23076245296579 L 403.71864219099666 46.3128986056056 L 404.00659591243397 46.39512689079697 L 404.4566951739862 46.47744751546338 L 404.5131671065902 46.55986068722598 L 404.584752761071 46.6423666144068 L 404.6429237834431 46.72496550603216 L 404.67207124047087 46.80765757183599 L 404.8331803605858 46.890443022262616 L 404.83368264491907 46.973322068469884 L 405.1957985122922 47.05629492233288 L 405.23392229197117 47.13936179644702 L 405.40828983761253 47.2225229041311 L 405.44108373069304 47.30577845943094 L 405.4830552462805 47.38912867712202 L 405.58563184202654 47.47257377271376 L 405.60209405549006 47.55611396245206 L 405.6050410818462 47.63974946332314 L 405.64415245487504 47.72348049305663 L 405.8163149308699 47.80730727012917 L 405.85374839535353 47.891230013767654 L 406.12127752946924 47.975248943952806 L 406.13871856354865 48.059364281422745 L 406.2962548619331 48.14357624767604 L 406.3306687227713 48.22788506497568 L 406.39986385689 48.3122909563524 L 406.6588867136081 48.396794145608055 L 406.84451814041637 48.48139485731963 L 406.94212247126075 48.5660933168424 L 407.10280951711434 48.65088975031347 L 407.7559543773706 48.73578438465597 L 407.8348427512398 48.82077744758203 L 408.29388684583154 48.90586916759696 L 408.3078918153441 48.99105977400245 L 408.34790177506653 49.07634949690089 L 408.48734655937267 49.16173856719831 L 408.65298558820103 49.24722721660919 L 408.75501638204565 49.33281567765903 L 408.8905762550372 49.41850418368904 L 408.9009615854675 49.504292968859545 L 409.0120627103576 49.59018226815408 L 409.02707700790285 49.67617231738279 L 409.47142681081453 49.762263353186995 L 409.5466585021481 49.848455613042574 L 409.8697104119107 49.93474933526386 L 409.89150476459946 50.02114475900805 L 409.9428373188061 50.107642124278755 L 410.0472533467156 50.1942416719304 L 410.2208319216879 50.28094364367166 L 410.3406682469598 50.36774828207024 L 410.3750966918227 50.454655830556135 L 410.7919903024294 50.54166653342645 L 410.8713001447131 50.62878063584924 L 410.87895428154263 50.71599838386726 L 410.8789602744459 50.80332002440309 L 411.0488427791437 50.890745805262554 L 411.1096973322339 50.97827597513867 L 411.1654342273732 51.06591078361703 L 411.1965032814113 51.153650481179056 L 411.5507672982392 51.241495319206706 L 411.5661177080453 51.329445549986644 L 411.7965892712453 51.41750142671481 L 411.84284852938066 51.50566320350083 L 411.8883257000508 51.59393113537169 L 412.0651977431815 51.68230547827716 L 412.1017829693111 51.77078648909378 L 412.2332755090096 51.8593744256292 L 412.2532172779629 51.94806954662704 L 412.48943829802295 52.036872111771004 L 413.0051653589282 52.12578238168999 L 413.3029464644271 52.21480061796183 L 413.30587206635926 52.30392708311922 L 413.371396582463 52.39316204065278 L 413.3991399682099 52.4825057550172 L 413.42636788726946 52.57195849163486 L 413.6590104090181 52.661520516900964 L 413.6886385626565 52.75119209818865 L 413.8822462438229 52.84097350385309 L 414.0146236163552 52.930865003237045 L 414.04117703008274 53.020866866674965 L 414.0427546018888 53.110979365498224 L 414.29342442041445 53.20120277204035 L 414.33283049753265 53.29153735964155 L 414.3341735151157 53.381983402653645 L 414.3825031458484 53.472541176445134 L 414.52216928601973 53.56321095740668 L 414.5893011011007 53.65399302295509 L 414.62183190793286 53.744887651540125 L 414.65114875888065 53.83589512264757 L 414.672563236025 53.927015716805954 L 414.6885752806838 54.01824971559131 L 414.7075263838924 54.10959740163196 L 414.7211986244329 54.20105905861419 L 414.7347290430885 54.29263497128761 L 414.8982126506628 54.384325425470024 L 414.91463723597076 54.47613070805346 L 415.1399659261811 54.56805110700884 L 415.53676415415566 54.66008691139177 L 415.71547873064765 54.75223841134812 L 415.82584066643864 54.84450589811922 L 415.8428742091137 54.936889664047385 L 415.95766521379335 55.029390002581636 L 416.0720002695527 55.12200720828366 L 416.11203527049247 55.21474157683224 L 416.28747251412005 55.307593405030616 L 416.338390218186 55.4005629908105 L 416.3383930713956 55.49365063323887 L 416.3980844768085 55.58685663252356 L 416.5181828476257 55.68018129001905 L 416.8067582278372 55.77362490823168 L 416.9547932451984 55.86718779082673 L 417.0731427536192 55.960870242633405 L 417.0802072410602 56.054672569651075 L 417.1141308920648 56.1485950790551 L 417.17494105780486 56.24263807920329 L 417.2291672775448 56.33680187964194 L 417.5539738895996 56.431086791111284 L 417.6700995008551 56.525493125552316 L 417.82370747034025 56.6200211961127 L 417.8700798239969 56.71467131715326 L 418.0352274286255 56.80944380425376 L 418.17710892129224 56.90433897421963 L 418.3059149998167 56.99935714508831 L 418.34395749180976 57.09449863613554 L 418.3912241669727 57.18976376788157 L 418.4518918810269 57.28515286209813 L 418.79580367592973 57.380666241814765 L 418.8752903757939 57.47630423132489 L 418.8819679888561 57.57206715619327 L 418.94575232066535 57.66795534326195 L 419.2176051403368 57.76396912065741 L 419.26787566268376 57.86010881779703 L 419.37079832490656 57.95637476539582 L 419.41530742973003 58.05276729547376 L 419.6583301501185 58.14928674136195 L 419.66398512434563 58.24593343770999 L 419.8797615312527 58.34270772049297 L 420.1155332020348 58.43960992701807 L 420.1674755562778 58.53664039593207 L 420.4077151892652 58.63379946722813 L 420.557271298384 58.731087482253315 L 420.6315940124696 58.82850478371506 L 420.6414535404962 58.92605171568954 L 420.7512349451505 59.023728623627676 L 420.80628973838077 59.12153585436363 L 420.8768209519282 59.21947375612132 L 420.89260459095476 59.317542678522386 L 421.2135687211405 59.41574297259365 L 421.25714323701465 59.51407499077408 L 421.2889918025673 59.61253908692339 L 421.5092907269399 59.71113561632865 L 421.59116381359775 59.809864935712596 L 421.676929735616 59.90872740324119 L 421.8368498417367 60.00772337853158 L 421.903822556131 60.10685322265954 L 421.91844475093643 60.20611729816795 L 422.0039391467311 60.30551596907418 L 422.0263475672384 60.40504960087844 L 422.1469238088902 60.50471856057186 L 422.1955248795667 60.604523216644395 L 422.2956540877012 60.70446393909316 L 422.30857056883883 60.804541099430594 L 422.34553617357466 60.904755070692886 L 422.4322631784053 61.00510622744798 L 422.48748838219495 61.1055949458044 L 422.5293015017522 61.206221603419465 L 422.681132300526 61.306986579507736 L 422.7594874126386 61.40789025484986 L 422.81760623888056 61.50893301180082 L 422.8325164207921 61.610115234299144 L 423.3152503528407 61.71143730787509 L 423.377431632951 61.81289961965996 L 423.6142787193829 61.914502558394474 L 423.6855102782179 62.01624651443831 L 423.7079874475966 62.118131879778616 L 423.9066239661364 62.220159048039136 L 423.9784457626283 62.32232841448962 L 424.0466811195339 62.42464037605464 L 424.10828909446604 62.52709533132321 L 424.18481654245926 62.62969368055769 L 424.3923501227641 62.73243582570365 L 424.44058760831666 62.835322170398854 L 424.62088874690374 62.938353119983105 L 424.71294069186393 63.04152908150763 L 424.76184349309574 63.14485046374483 L 424.8512441825453 63.24831767719803 L 424.87091276944517 63.35193113411117 L 425.0184538049877 63.455691248478615 L 425.1081698457555 63.55959843605524 L 425.1699378721364 63.663653114366355 L 425.21572337982667 63.76785570271778 L 425.27876203289634 63.872206622205795 L 425.3509659974526 63.97670629572781 L 425.4110407398966 64.0813551479921 L 425.4670319195344 64.1861536055286 L 425.58297698799083 64.29110209669898 L 425.645693656707 64.39620105170764 L 425.6573224624679 64.50145090261151 L 425.6802589000244 64.60685208333155 L 425.80204686501787 64.71240502966299 L 426.08325539218845 64.81811017928618 L 426.10071723590954 64.92396797177787 L 426.1781911703047 65.02997884862145 L 426.2217090046291 65.13614325321856 L 426.23510421553 65.24246163090032 L 426.23807476232514 65.34893442893792 L 426.2784441899915 65.4555620965545 L 426.3213657466804 65.56234508493628 L 426.41573171264827 65.66928384724406 L 426.50753278788454 65.77637883862451 L 426.5441959159601 65.8836305162223 L 426.6368997963257 65.99103933919162 L 426.6516562326244 66.09860576870733 L 426.7029556003368 66.20633026797799 L 426.8331370495936 66.31421330225686 L 426.9798406500526 66.4222553388546 L 427.04736935684 66.53045684715096 L 427.09445008447904 66.63881829860713 L 427.26356671109494 66.74734016677843 L 427.32409904459115 66.85602292732614 L 427.44286112852814 66.96486705803039 L 427.69727352917107 67.07387303880279 L 427.74917995566506 67.1830413516987 L 427.8132188674343 67.2923724809308 L 427.88692594899214 67.40186691288113 L 427.89538833943817 67.51152513611459 L 428.2423420604272 67.62134764139171 L 428.24969892156577 67.73133492168233 L 428.35955732617515 67.8414874721783 L 428.4765031681137 67.95180579030716 L 428.5354236793875 68.06229037574542 L 428.9131335713109 68.17294173043263 L 428.9748537028885 68.28376035858435 L 428.9856522634281 68.39474676670648 L 429.024948199311 68.50590146360895 L 429.1042940631463 68.61722496041966 L 429.19204632444774 68.72871777059879 L 429.22423845690787 68.84038040995267 L 429.32570918937495 68.95221339664846 L 429.34743658921707 69.0642172512284 L 429.4530503908443 69.17639249662443 L 429.49413722566385 69.28873965817252 L 429.5363196909045 69.40125926362799 L 429.60868914092305 69.51395184317983 L 429.67906879498184 69.62681792946626 L 430.0844565063084 69.73985805758912 L 430.1087768302199 69.85307276512981 L 430.1367145289665 69.96646259216413 L 430.20245053547495 70.08002808127804 L 430.25135200357 70.19376977758304 L 430.4051721974907 70.30768822873188 L 430.5964612626263 70.42178398493462 L 430.63458444458047 70.53605759897425 L 430.6350634350871 70.65050962622303 L 430.9344137869056 70.76514062465839 L 430.95621763981836 70.87995115487962 L 431.0368329876151 70.99494178012401 L 431.23433950897464 71.11011306628359 L 431.25259700912784 71.22546558192175 L 431.3867592203031 71.34099989829025 L 431.4847145468921 71.45671658934583 L 431.56753577136607 71.57261623176782 L 431.60771261185903 71.6886994049749 L 431.6364527385307 71.80496669114285 L 431.703084241575 71.92141867522201 L 431.81915541208275 72.03805594495446 L 431.8366909558709 72.15487909089268 L 431.9821158233893 72.27188870641663 L 432.1068077337845 72.38908538775257 L 432.106993067287 72.50646973399057 L 432.21920536715373 72.62404234710345 L 432.30942874426836 72.74180383196517 L 432.3320812961545 72.85975479636937 L 432.4837272596483 72.97789585104829 L 432.58039468519127 73.09622760969148 L 432.8327949704029 73.21475068896552 L 432.84269662778473 73.3334657085328 L 432.92360597543734 73.45237329107096 L 432.9861792943131 73.5714740622928 L 433.06656753826405 73.69076865096582 L 433.1893214772374 73.81025768893215 L 433.2094164136028 73.92994181112874 L 433.5336072861054 74.04982165560739 L 433.58732455835286 74.16989786355538 L 433.7308226062787 74.290171079316 L 433.9395672257862 74.41064195040917 L 433.9802269029623 74.53131112755244 L 434.09887271435406 74.65217926468222 L 434.19073240153506 74.7732470189747 L 434.1920621019653 74.89451505086748 L 434.3623046389639 75.01598402408166 L 434.4975897627062 75.13765460564247 L 434.57393637872315 75.25952746590252 L 434.6926412085661 75.38160327856315 L 434.758899927517 75.50388272069705 L 434.91601467615675 75.62636647277077 L 434.9160150786807 75.74905521866742 L 434.937208008291 75.87194964570955 L 434.9388728953336 75.99505044468259 L 434.99126942914904 76.11835830985729 L 435.319574264656 76.24187393901428 L 435.5471578170537 76.36559803346705 L 435.7099997942844 76.48953129808609 L 435.7746621597864 76.61367444132287 L 435.8877866458908 76.73802817523438 L 435.8948972239557 76.86259321550733 L 435.99430662212296 76.9873702814831 L 436.07463210740127 77.11236009618233 L 436.08719137587696 77.23756338633063 L 436.1868238872934 77.3629808823834 L 436.2842461696014 77.48861331855181 L 436.40409271357237 77.61446143282797 L 436.5145242939425 77.74052596701165 L 436.5587764769943 77.86680766673629 L 436.6844784472322 77.99330728149516 L 436.7667482080916 78.12002556466842 L 436.8023425843215 78.24696327354974 L 436.82435582593524 78.37412116937378 L 437.1303117148491 78.5015000173434 L 437.1420790100705 78.62910058665727 L 437.15188091641 78.7569236505376 L 437.21519890366534 78.88496998625862 L 437.39668764122047 79.01324037517486 L 437.45989307812715 79.1417356027494 L 437.71938384102816 79.27045645858288 L 437.8596861281772 79.39940373644316 L 437.9073196039204 79.52857823429372 L 438.0186867418918 79.65798075432406 L 438.0188752358738 79.7876121029795 L 438.08038201839577 79.91747309099077 L 438.43294858063433 80.04756453340497 L 438.60659068555907 80.17788724961645 L 438.6182401522481 80.30844206339691 L 439.1506674040383 80.43922980292763 L 439.1746592607004 80.5702513008302 L 439.2839685893948 80.70150739419898 L 439.39716630158074 80.8329989246327 L 439.4059601667783 80.96472673826696 L 439.8929050965873 81.09669168580717 L 440.02893936183114 81.22889462256103 L 440.10051389080684 81.36133640847231 L 440.11614589246943 81.49401790815409 L 440.23275576475453 81.6269399909225 L 440.76875167138485 81.76010353083132 L 440.8687491183647 81.89350940670624 L 440.90856963820397 82.02715850217953 L 440.9283585516813 82.16105170572524 L 440.95559878869386 82.29518991069506 L 440.9660303472612 82.42957401535324 L 441.1518681397213 82.5642049229134 L 441.2369428225479 82.69908354157474 L 441.2479807729772 82.83421078455848 L 441.2779521330689 82.96958757014573 L 441.435812302264 83.10521482171396 L 441.4399441015685 83.2410934677755 L 441.50055109391366 83.37722444201546 L 441.53189860205896 83.51360868333023 L 441.5959017885911 83.65024713586632 L 441.6032978353451 83.78714074905946 L 441.6287165762178 83.9242904776745 L 441.69967290061675 84.061697281845 L 441.7374913864497 84.19936212711372 L 441.8328499871787 84.33728598447368 L 442.0157220125943 84.47546983040843 L 442.04034962009837 84.61391464693429 L 442.2439705118814 84.75262142164195 L 442.3188410386794 84.89159114773861 L 442.31884555855555 85.03082482409093 L 442.3250539062738 85.17032345526775 L 442.4737787985669 85.31008805158399 L 442.6242072094979 85.45011962914418 L 442.6779994262798 85.5904192098871 L 442.7472872793831 85.73098782163026 L 443.09582314584003 85.87182649811535 L 443.1292414782524 86.01293627905346 L 443.20323049312447 86.15431821017165 L 443.2736007328916 86.29597334325888 L 443.7376990398586 86.43790273621352 L 443.74447609517665 86.58010745309036 L 443.7644849580694 86.72258856414862 L 443.7961157237633 86.8653471459001 L 443.8470061256445 87.0083842811585 L 443.91338415446916 87.151701059088 L 443.96360445205875 87.29529857525358 L 443.9702217972811 87.43917793167088 L 444.1170438024745 87.58334023685723 L 444.18107069104065 87.72778660588278 L 444.5568626107228 87.8725181604222 L 444.56273140259043 88.017536028807 L 444.612082330982 88.16284134607832 L 444.70387841417335 88.30843525404026 L 444.730425175311 88.45431890131357 L 444.7580375969516 88.60049344339018 L 444.96873217517043 88.74696004268799 L 445.11126959968345 88.89371986860652 L 445.2286567787843 89.0407740975827 L 445.25827211874144 89.18812391314765 L 445.50866919438886 89.3357705059837 L 445.78008247488964 89.48371507398207 L 445.80972565890727 89.6319588223015 L 445.8291031945331 89.78050296342667 L 445.89724530920347 89.92934871722821 L 445.9573233488134 90.07849731102249 L 446.02294931700027 90.22794997963211 L 446.13364311105903 90.37770796544811 L 446.2387964842669 90.5277725184909 L 446.26014623486986 90.6781448964735 L 446.26014768914763 90.82882636486471 L 446.4523178698697 90.97981819695275 L 446.5535823410185 91.13112167391017 L 446.55661265207107 91.28273808485869 L 446.90456039114423 91.43466872693534 L 446.9642761110588 91.58691490535932 L 446.9930888139625 91.73947793349862 L 447.0206710978568 91.89235913293845 L 447.2876345466637 92.04555983354993 L 447.89287688774573 92.19908137355924 L 447.9771275926513 92.352925099618 L 448.2215711760645 92.50709236687413 L 448.2331726369488 92.66158453904342 L 448.3846334609871 92.81640298848168 L 448.4793338515205 92.97154909625834 L 448.52946711958816 93.12702425223006 L 448.5727381116729 93.28282985511555 L 448.61064816195574 93.43896731257087 L 448.6525791543317 93.59543804126605 L 448.74097075078964 93.75224346696211 L 448.8253158857874 93.90938502458886 L 448.8868238330794 94.06686415832382 L 449.3569390135225 94.22468232167176 L 449.4219152822313 94.38284097754541 L 449.6887188252923 94.54134159834655 L 449.6953588538997 94.70018566604841 L 449.74954433760047 94.85937467227893 L 449.7713960586633 95.01891011840439 L 449.8161963117265 95.17879351561481 L 449.82649897746523 95.33902638500973 L 449.87468467350254 95.49961025768482 L 449.91899474624586 95.6605466748199 L 450.06172618910966 95.82183718776758 L 450.16873239265243 95.98348335814319 L 450.20269466070454 96.14548675791491 L 450.529512224291 96.30784896949649 L 450.5383845401922 96.4705715858388 L 450.61836848733304 96.63365621052469 L 450.6562358663769 96.79710445786304 L 450.70344458745166 96.96091795298526 L 450.7076984021963 97.12509833194139 L 450.7870570334698 97.28964724179929 L 450.79771920149 97.45456634074259 L 450.96475697760496 97.61985729817195 L 451.0950473753352 97.78552179480573 L 451.12903954992095 97.95156152278292 L 451.2922013644033 98.11797818576684 L 451.47032951354464 98.45194918965905 L 452.0283504225597 98.61950699646508 L 452.11526406244315 98.78744867028877 L 452.2622836498991 98.95577597401183 L 452.3230254765862 99.12449068268825 L 452.4171821121578 99.29359458365559 L 452.5158274308363 99.46308947664937 L 452.52109702861117 99.63297717391794 L 452.58031355925897 99.80325950033836 L 452.890291767345 99.97393829353427 L 453.2577299156852 100.14501540399493 L 453.25780738087684 100.3164926951955 L 453.27614454430545 100.4883720437187 L 453.29014842765787 100.66065533937842 L 453.39349225086187 100.83334448534384 L 453.43187387053604 101.0064413982663 L 453.43752346024917 101.17994800840614 L 453.5666236274109 101.35386625976236 L 453.7159495316401 101.52819811020316 L 453.7922808527905 101.7029455315984 L 454.32263099743153 101.87811050995293 L 454.33710576098326 102.05369504554261 L 454.40424091702306 102.22970115305077 L 454.4948484522629 102.40613086170754 L 454.7914462983822 102.58298621542963 L 454.8030912526195 102.76026927296294 L 454.9682198605796 102.93798210802578 L 455.062660023465 103.11612680945512 L 455.30761636411 103.2947054813531 L 455.31622335692106 103.47372024323681 L 455.37281487882024 103.65317323018905 L 455.6956034824832 103.83306659301087 L 455.86528701104066 104.01340249837631 L 455.98198663744967 104.19418312898955 L 456.41209912310717 104.37541068374253 L 456.5628735898691 104.55708737787603 L 456.5688056659827 104.73921544314186 L 456.817593112229 104.9217971279678 L 456.9035368644132 105.10483469762346 L 456.92634908665815 105.28833043438942 L 457.0618093391248 105.47228663772773 L 457.13782658138086 105.65670562445513 L 457.2022416840433 105.8415897289176 L 457.3022369269378 106.0269413031682 L 457.37455497484206 106.2127627171464 L 457.42736848665317 106.39905635885953 L 457.4745486430481 106.58582463456764 L 457.6898057477252 106.77306996896937 L 457.69255903594654 106.96079480539089 L 457.69262900853903 107.1490016059779 L 457.70482668058486 107.33769285188822 L 457.7188828360885 107.52687104348911 L 457.73470206162546 107.71653870055542 L 457.7456160291204 107.90669836247133 L 457.7642167452537 108.09735258843409 L 457.9191986088284 108.2885039576608 L 457.9488708071879 108.48015506959786 L 458.09947632402697 108.67230854413287 L 458.123461984262 108.86496702180972 L 458.3296948065288 109.0581331640459 L 458.69424382168734 109.25180965335397 L 458.70415034521585 109.44599919356403 L 458.7632489397108 109.64070451005097 L 458.8121457753698 109.83592834996358 L 458.92056359699154 110.03167348245722 L 458.9748463415805 110.22794269892955 L 459.0663698997055 110.4247388132593 L 459.1031780789467 110.62206466204844 L 459.1132591174218 110.81992310486748 L 459.14399048528753 111.01831702450386 L 459.1608612145024 111.21724932721435 L 459.25964296682065 111.41672294298036 L 459.2916115149099 111.61674082576656 L 459.296693860656 111.81730595378389 L 459.3295090449579 112.01842132975537 L 459.3783693042109 112.22008998118571 L 459.43989623740043 112.42231496063499 L 459.47240513822913 112.6250993459958 L 459.511285066152 112.82844624077421 L 459.94901605301413 113.03235877437504 L 460.2732461663357 113.23684010239054 L 460.3029990557176 113.44189340689366 L 460.3073925774918 113.6475218967347 L 460.44637020030336 113.85372880784348 L 460.58713359579696 114.06051740353399 L 460.74771887653424 114.26789097481452 L 460.8037180524937 114.47585284070226 L 460.9473740428565 114.68440634854176 L 461.5430487026066 114.89355487432806 L 461.62940495620285 115.10330182303494 L 461.7550950260143 115.31365062894736 L 461.79610097858665 115.5246047559989 L 462.153090736515 115.73616769811377 L 462.18989550280304 115.94834297955452 L 462.21104735645986 116.16113415527383 L 462.3222867959435 116.37454481127224 L 462.3573276299084 116.58857856496041 L 462.40196184651546 116.80323906552752 L 462.48050979904775 117.0185299943139 L 462.56796178774243 117.23445506519056 L 462.6450082768032 117.4510180249431 L 462.66056371555976 117.6682226536621 L 462.6631975842281 117.88607276513864 L 462.7363851263512 118.10457220726676 L 462.8365752847112 118.32372486245043 L 462.8885453841149 118.54353464801824 L 462.921093370961 118.76400551664301 L 463.09586989731605 118.98514145676853 L 463.1756783158482 119.20694649304238 L 463.28359598391984 119.42942468675557 L 463.35363301143116 119.65258013628858 L 463.44214105176104 119.87641697756436 L 463.57211473373764 120.10093938450842 L 463.5977888482007 120.32615156951573 L 463.63321969353825 120.55205778392497 L 463.6589401144473 120.77866231850004 L 463.74157697678737 121.00596950391895 L 463.7529438012701 121.23398371127053 L 464.20830825148704 121.46270935255887 L 464.3093857276893 121.69215088121553 L 464.3754586650297 121.9223127926195 L 464.47656236005685 122.15319962462615 L 464.50158110228 122.38481595810373 L 464.6472541010384 122.61716641747881 L 464.67496989671093 122.85025567129037 L 464.8569755172449 123.0840884327526 L 465.2222973421872 123.31866946032648 L 465.32164428284347 123.55400355830108 L 465.3385133756921 123.79009557738408 L 465.4514196826801 124.02695041530143 L 465.48046278665163 124.26457301740686 L 465.5970449246366 124.50296837730173 L 465.70328015807746 124.74214153746459 L 465.81459550149697 124.98209758989134 L 465.86068045185715 125.22284167674508 L 465.92660314884455 125.46437899101812 L 465.9493115297435 125.70671477720344 L 466.2724503040131 125.94985433197837 L 466.4424780527779 126.19380300489905 L 466.55985981271374 126.43856619910667 L 466.5877052604489 126.68414937204545 L 466.6519687117832 126.93055803619319 L 467.15076159692774 127.17779775980296 L 467.23087395266856 127.42587416765878 L 467.2719476169843 127.67479294184324 L 467.42103771388275 127.92455982251823 L 467.4404007526581 128.17518060871936 L 467.6042760975357 128.4266611591638 L 467.77364515099214 128.6790073930722 L 467.79883515771604 128.93222529100422 L 467.9092534869741 129.18632089570974 L 468.0459696088225 129.44130031299312 L 468.1545522094023 129.6971697125946 L 468.16157616142954 129.95393532908525 L 468.32196459983857 130.211603462779 L 468.5248599004379 130.47018048065996 L 468.7365594983651 130.72967281732656 L 468.78920781511346 130.9900869759523 L 468.83855237410876 131.25142952926348 L 468.99766276312613 131.5137071205349 L 469.11188551487373 131.77692646460292 L 469.14513294746155 132.04109434889693 L 469.57869125216183 132.30621763448994 L 469.75616882410543 132.57230325716722 L 469.9594678293407 132.83935822851544 L 470.1556221219501 133.1073896370309 L 470.2532118007818 133.37640464924937 L 470.308609524454 133.64641051089444 L 470.5330819499922 133.91741454804986 L 470.708213318421 134.18942416835137 L 471.0732678816408 134.46244686220217 L 471.35798312649104 134.73649020401035 L 471.5727783665572 135.01156185344968 L 471.61166807419676 135.28766955674433 L 471.6937148500566 135.56482114797785 L 471.7861550960542 135.84302455042678 L 472.221007001731 136.12228777791984 L 472.23414394602383 136.40261893622295 L 472.3819103871924 136.6840262244512 L 472.4011918750207 136.9665179365075 L 472.44980283546784 137.25010246254948 L 472.91417199665074 137.53478829048447 L 472.99980204995705 137.8205840074944 L 473.22404517135055 138.1074983015895 L 473.3014676576168 138.39553996319313 L 473.477848404522 138.6847178867581 L 473.5952429283103 138.97504107241434 L 473.6665773725285 139.26651862764948 L 473.9586052530753 139.55915976902395 L 474.5346363761882 139.85297382391866 L 474.6048565715951 140.1479702323196 L 474.6243770133557 140.44415854863746 L 474.6823188120177 140.74154844356417 L 474.81351565972756 141.04014970596808 L 475.1354423355943 141.3399722448268 L 475.194375394032 141.64102609120062 L 475.25684662905365 141.94332140024608 L 475.3839491473637 142.2468684532713 L 475.663661826377 142.55167765983452 L 475.68828264033345 142.85775955988578 L 476.3441336113118 143.16512482595397 L 476.6915555201225 143.47378426537927 L 476.77023756748656 143.78374882259425 L 476.84428218852787 144.0950295814514 L 477.02106924658784 144.40763776760195 L 477.02757218233677 144.72158475092482 L 477.16671480463384 145.03688204800767 L 477.3924225623301 145.35354132468245 L 477.4979745442427 145.67157439861472 L 477.7107045238447 145.99099324195078 L 477.903759736456 146.3118099840206 L 478.23844416836056 146.6340369141035 L 478.3727192883683 146.95768648425081 L 478.545899199361 147.28277131217465 L 478.5874693713386 147.609304184199 L 478.6256574078441 147.9372980582774 L 478.66777475750763 148.26676606707855 L 478.6992630259228 148.59772152114164 L 479.02102313185617 148.9301779121027 L 479.21608248533715 149.26414891599495 L 479.5178346172771 149.59964839662462 L 479.62529305853036 149.93669040902415 L 479.6706802450699 150.27528920298533 L 479.7304588985979 150.61545922667426 L 479.97180938412356 150.95721513033084 L 480.08708112882476 151.30057177005466 L 480.15823348779935 151.6455442116798 L 480.2931601831826 151.99214773474205 L 480.3270635144145 152.34039783653913 L 480.55053214319537 152.6903102362889 L 480.62327837162616 153.04190087938673 L 481.0797554417871 153.3951859417656 L 481.1215746929071 153.75018183436168 L 481.1958437705581 154.10690520768895 L 481.27828510905084 154.4653729565249 L 481.29914215246964 154.82560222471227 L 481.48928223516646 155.18761041007843 L 481.584149506732 155.55141516947782 L 481.6539954676532 155.91703442395936 L 481.9079263618894 156.28448636406358 L 481.9377648157389 156.65378945525345 L 482.0342280174478 157.02496244348225 L 482.0475422643601 157.39802436090343 L 482.07417327094583 157.77299453172685 L 482.234268449417 158.14989257822413 L 482.38474252750115 158.52873842689132 L 482.60995218594627 158.90955231477 L 482.83811010793437 159.29235479593376 L 482.9565475797201 159.6771667481455 L 483.168962175758 160.06400937968988 L 483.21691918364496 160.45290423638698 L 483.3341289807527 160.84387320879313 L 483.50668379913094 161.2369385395952 L 483.66661883112175 161.6321228312034 L 483.7746250524378 162.02944905355025 L 483.9351342966667 162.4289405521024 L 484.1286127790545 162.83062105609122 L 484.1634409356585 163.23451468697095 L 484.18158276951203 163.64064596711006 L 484.3142358472443 164.04903982872645 L 484.4317295444959 164.45972162307066 L 484.5009336222268 164.8727171298699 L 484.53222746169376 165.28805256703816 L 484.58198199235113 165.70575460066397 L 484.63932027955843 166.1258503552832 L 484.7860775648089 166.54836742444968 L 484.904594169735 166.97333388160973 L 484.93665301493394 167.40077829129632 L 485.17957776641583 167.83072972064969 L 485.38593535481306 168.263217751279 L 485.43572840444335 168.69827249147454 L 485.50993906224585 169.1359245887864 L 485.81739347253847 169.57620524297886 L 486.1340179876301 170.01914621937834 L 486.38183779476634 170.46477986262448 L 486.4658707813112 170.91313911084433 L 486.5184152528725 171.36425751026093 L 486.5970546541901 171.8181692302548 L 486.74446739778756 172.27490907889484 L 487.0950503413999 172.7345125189554 L 487.2229743556583 173.19701568443958 L 487.23126485613733 173.66245539762633 L 487.46937485478713 174.13086918666227 L 487.69560677309545 174.60229530372004 L 488.0007815746076 175.0767727437427 L 488.05339141836566 175.55434126380055 L 488.3680591401299 176.0350414030811 L 488.4498687415362 176.51891450353935 L 488.46877071182627 177.00600273123496 L 488.5125036437118 177.49634909838147 L 488.7572015827957 177.98999748613886 L 488.801968340208 178.48699266817914 L 489.44785004392224 178.98738033505526 L 489.6358854958775 179.4912071194081 L 489.64048311803083 179.99852062204565 L 489.7735970724827 180.50936943893043 L 489.7858345602931 181.02380318911497 L 489.86111560580855 181.54187254366246 L 489.89365397972205 182.06362925559944 L 490.5264503109731 182.58912619093883 L 490.7496148308168 183.1184173608259 L 490.7998046646147 183.65155795485128 L 491.2472569067727 184.18860437558527 L 491.7748168490206 184.72961427438577 L 491.7904176969473 185.27464658853813 L 492.17396285715614 185.82376157978553 L 492.2552464591617 186.37702087431376 L 492.30444694785865 186.93448750425574 L 492.60539875445875 187.4962259507871 L 492.6518719373306 188.06230218888527 L 492.87316434066946 188.6327837338302 L 492.90224938838037 189.2077396895291 L 492.93133026748626 189.7872407987502 L 493.13593927736787 190.3713594953598 L 493.1628105801268 190.96016995865546 L 493.20977152277857 191.55374816990002 L 493.26120203887893 192.15217197116266 L 493.9689680305115 192.75552112658187 L 494.0042849113572 193.36387738617054 L 494.0945705413451 193.97732455228982 L 494.3959944510912 194.5959485489302 L 494.4651748636452 195.21983749393797 L 494.84657074658554 195.8490817743437 L 495.08481085799673 196.48377412495074 L 495.4609954870821 197.12400971035663 L 495.4643530452757 197.76988621058678 L 495.9820735891912 198.42150391053485 L 496.0118720553022 199.0789657934145 L 496.48828795038605 199.7423776384386 L 496.6216373771241 200.41184812296052 L 496.63041216793664 201.08748892932118 L 496.64779696133814 201.76941485666674 L 496.6506605481151 202.4577439380157 L 496.66833485707826 203.15259756287497 L 496.70092832677466 203.85410060572258 L 496.8725103636422 204.5623815606976 L 496.9310542023897 205.2775726828608 L 497.1177589903596 205.99981013641428 L 497.35651246025594 206.72923415029516 L 497.38588928024 207.46598918158935 L 497.40898162137495 208.2102240872394 L 497.727596271368 208.96209230456003 L 498.0014658188506 209.7217520411059 L 498.09963413736216 210.48936647448141 L 498.22548362438823 211.26510396272278 L 498.2677856296149 212.0491382659311 L 498.35274059507265 212.8416487798861 L 498.4950998327183 213.64282078242718 L 498.64482372087525 214.45284569344602 L 498.6624297706005 215.27192134940657 L 498.75467110162487 216.100252293374 L 499.0583531316264 216.93805008161917 L 499.37642194297473 217.78553360794558 L 499.54798586498555 218.6429294469857 L 499.8026601023038 219.5104722178105 L 499.96781653864764 220.38840496931488 L 499.9924240187711 221.2769795889604 L 500.3167651173222 222.17645723659683 L 501.15046463041006 223.08710880523074 L 501.38633031024057 224.00921541077548 L 501.62371516704104 224.94306891299829 L 501.9344316675635 225.88897247007867 L 502.0264410205835 226.8472411294169 L 502.5996040090613 227.81820245757086 L 502.6210906211688 228.80219721247477 L 502.77944765535034 229.7995800613911 L 502.7912798393593 230.81072034838155 L 503.0263300026203 231.83600291545082 L 503.28427437773627 232.87582898193534 L 503.3422000174941 233.9306170871618 L 503.3900597295745 235.00080410192118 L 503.41406394386456 236.08684631487404 L 503.83525375603983 237.18922060064972 L 503.844655581781 238.308425677123 L 503.9669331090362 239.44498346016616 L 504.3995993325969 240.59944052508598 L 504.5796556602932 241.77236968499136 L 504.6765871279972 242.96437169749856 L 504.70845922556936 244.17607711250628 L 504.9358570206947 245.408148275266 L 505.2191211262449 246.66128150067942 L 505.6076563913077 247.93620943669242 L 507.06861810007837 249.2337036368707 L 507.09597735733894 250.5545773647744 L 507.26825264994295 251.8996886556571 L 507.3719430028963 253.2699436643515 L 507.3947573602556 254.66630033205837 L 508.190968292172 256.0897724091968 L 508.2125966372882 257.54143387663123 L 509.009210197559 259.0224238135754 L 509.19286463802564 260.5339517674419 L 509.2800947531169 262.0773036890588 L 509.5625651235786 263.6538485062222 L 509.7021201294932 265.265045419782 L 509.75253711232256 266.9124520197101 L 509.8329623884821 268.59773333428154 L 509.83774737771006 270.32267194414635 L 510.0122744775674 272.08917931529624 L 510.5859715367385 273.89930853156665 L 511.1907127470441 275.75526863933413 L 511.45935370910826 277.6594408557528 L 511.9149283442734 279.6143969388106 L 512.3334047402952 281.62292007471746 L 513.7475847804308 283.6880287082712 L 514.2911849628265 285.813003828257 L 514.6262516075498 288.0014203269855 L 514.7384341010743 290.25718318650206 L 515.1430169060493 292.58456941132727 L 515.3063949757154 294.9882768388422 L 515.6723713694189 297.4734812270153 L 515.7324676774267 300.0459033632066 L 516.3673991559103 302.71188838199294 L 517.0455481697359 305.47850005839433 L 517.5150278175477 308.35363360296697 L 518.4930248932319 311.3461514937776 L 518.6805576749065 314.4660482325578 L 519.1950781228375 317.7246517460457 L 519.1960366973899 321.1348716704821 L 519.2183955391673 324.7115082579023 L 520.2039757876853 328.4716405820885 L 520.4207339418886 332.435119801053 L 520.6264289480273 336.62520355459316 L 520.7314122640796 341.06938291283825 L 521.0118336717514 345.8004765651784 L 522.4207711249967 350.85810308954285 L 523.2224290861272 356.2906997847306 L 523.2392411090799 362.1583512201139 L 523.2610894045636 368.53685147238195 L 524.7981998799652 375.52370798423874 L 525.5525815687165 383.24731952738944 L 529.1077808631527 391.8815826391742 L 531.1956035550372 401.6703028158787 L 531.4932605348688 412.97055094644975 L 534.3263985444594 426.3359077105746 L 536.2499828001303 442.69378236551006 L 536.4397179635791 463.7827506727857 L 538.2624227229736 493.5059820918459 L 541.0873327751581 544.3181818181819" stroke-linejoin="bevel" stroke-miterlimit="10"/><path fill="none" stroke="none"/></g></g></g><g clip-path="url(#HPwGLxpDIrbS)"><g><g/><g><path fill="#ffffff" stroke="#e5e5e5" paint-order="fill stroke markers" d=" M 123 475 L 255 475 L 255 560 L 123 560 L 123 475 Z" fill-opacity="0.95" stroke-linejoin="bevel" stroke-miterlimit="10" stroke-opacity="0.5"/><text fill="#444444" stroke="none" font-family="helvetica" font-size="22pt" font-style="normal" font-weight="normal" text-decoration="normal" x="158" y="500.5" text-anchor="start" dominant-baseline="central">male</text><g><path fill="none" stroke="blue" paint-order="fill stroke markers" d=" M 133 495 L 153 495" stroke-linejoin="bevel" stroke-miterlimit="10"/></g><text fill="#444444" stroke="none" font-family="helvetica" font-size="22pt" font-style="normal" font-weight="normal" text-decoration="normal" x="158" y="534.5" text-anchor="start" dominant-baseline="central">female</text><g><path fill="none" stroke="red" paint-order="fill stroke markers" d=" M 133 529 L 153 529" stroke-linejoin="bevel" stroke-miterlimit="10"/></g></g></g></g><g/><g/><g><g fill="#444444"><path fill="none" stroke="black" paint-order="fill stroke markers" d=" M 113 570 L 570 570" stroke-linejoin="bevel" stroke-miterlimit="10"/><path fill="none" stroke="black" paint-order="fill stroke markers" d=" M 481 576 L 481 568" stroke-linejoin="bevel" stroke-miterlimit="10"/><path fill="none" stroke="black" paint-order="fill stroke markers" d=" M 558 576 L 558 568" stroke-linejoin="bevel" stroke-miterlimit="10"/><path fill="none" stroke="black" paint-order="fill stroke markers" d=" M 469 574 L 469 570" stroke-linejoin="bevel" stroke-miterlimit="10"/><path fill="none" stroke="black" paint-order="fill stroke markers" d=" M 456 574 L 456 570" stroke-linejoin="bevel" stroke-miterlimit="10"/><path fill="none" stroke="black" paint-order="fill stroke markers" d=" M 441 574 L 441 570" stroke-linejoin="bevel" stroke-miterlimit="10"/><path fill="none" stroke="black" paint-order="fill stroke markers" d=" M 424 574 L 424 570" stroke-linejoin="bevel" stroke-miterlimit="10"/><path fill="none" stroke="black" paint-order="fill stroke markers" d=" M 404 574 L 404 570" stroke-linejoin="bevel" stroke-miterlimit="10"/><path fill="none" stroke="black" paint-order="fill stroke markers" d=" M 379 574 L 379 570" stroke-linejoin="bevel" stroke-miterlimit="10"/><path fill="none" stroke="black" paint-order="fill stroke markers" d=" M 347 574 L 347 570" stroke-linejoin="bevel" stroke-miterlimit="10"/><path fill="none" stroke="black" paint-order="fill stroke markers" d=" M 302 574 L 302 570" stroke-linejoin="bevel" stroke-miterlimit="10"/><path fill="none" stroke="black" paint-order="fill stroke markers" d=" M 225 574 L 225 570" stroke-linejoin="bevel" stroke-miterlimit="10"/><path fill="none" stroke="black" paint-order="fill stroke markers" d=" M 481 574 L 481 570" stroke-linejoin="bevel" stroke-miterlimit="10"/><path fill="none" stroke="black" paint-order="fill stroke markers" d=" M 492 574 L 492 570" stroke-linejoin="bevel" stroke-miterlimit="10"/><path fill="none" stroke="black" paint-order="fill stroke markers" d=" M 502 574 L 502 570" stroke-linejoin="bevel" stroke-miterlimit="10"/><path fill="none" stroke="black" paint-order="fill stroke markers" d=" M 510 574 L 510 570" stroke-linejoin="bevel" stroke-miterlimit="10"/><path fill="none" stroke="black" paint-order="fill stroke markers" d=" M 519 574 L 519 570" stroke-linejoin="bevel" stroke-miterlimit="10"/><path fill="none" stroke="black" paint-order="fill stroke markers" d=" M 526 574 L 526 570" stroke-linejoin="bevel" stroke-miterlimit="10"/><path fill="none" stroke="black" paint-order="fill stroke markers" d=" M 534 574 L 534 570" stroke-linejoin="bevel" stroke-miterlimit="10"/><path fill="none" stroke="black" paint-order="fill stroke markers" d=" M 540 574 L 540 570" stroke-linejoin="bevel" stroke-miterlimit="10"/><path fill="none" stroke="black" paint-order="fill stroke markers" d=" M 547 574 L 547 570" stroke-linejoin="bevel" stroke-miterlimit="10"/><path fill="none" stroke="black" paint-order="fill stroke markers" d=" M 553 574 L 553 570" stroke-linejoin="bevel" stroke-miterlimit="10"/><path fill="none" stroke="black" paint-order="fill stroke markers" d=" M 558 574 L 558 570" stroke-linejoin="bevel" stroke-miterlimit="10"/><path fill="none" stroke="black" paint-order="fill stroke markers" d=" M 564 574 L 564 570" stroke-linejoin="bevel" stroke-miterlimit="10"/><path fill="" stroke="black" paint-order="fill stroke markers" d=" M 569 574 L 569 570" stroke-linejoin="bevel" stroke-miterlimit="10"/><g transform="translate(481,581) rotate(0,0,0)"><text fill="" stroke="none" font-family="helvetica" font-size="26px" font-style="normal" font-weight="normal" text-decoration="normal" x="0" y="0" text-anchor="middle" dominant-baseline="hanging">5</text><g transform="rotate(0,0,0) translate(-481,-581) translate(558,581) rotate(0,0,0)"><text fill="" stroke="none" font-family="helvetica" font-size="26px" font-style="normal" font-weight="normal" text-decoration="normal" x="0" y="0" text-anchor="middle" dominant-baseline="hanging">10</text><g transform="rotate(0,0,0) translate(-558,-581)"/></g></g></g></g><g><g fill="#444444"><path fill="none" stroke="black" paint-order="fill stroke markers" d=" M 113 570 L 113 5" stroke-linejoin="bevel" stroke-miterlimit="10"/><path fill="none" stroke="black" paint-order="fill stroke markers" d=" M 107 537 L 115 537" stroke-linejoin="bevel" stroke-miterlimit="10"/><path fill="none" stroke="black" paint-order="fill stroke markers" d=" M 107 368 L 115 368" stroke-linejoin="bevel" stroke-miterlimit="10"/><path fill="none" stroke="black" paint-order="fill stroke markers" d=" M 107 199 L 115 199" stroke-linejoin="bevel" stroke-miterlimit="10"/><path fill="none" stroke="black" paint-order="fill stroke markers" d=" M 107 31 L 115 31" stroke-linejoin="bevel" stroke-miterlimit="10"/><path fill="none" stroke="black" paint-order="fill stroke markers" d=" M 109 563 L 113 563" stroke-linejoin="bevel" stroke-miterlimit="10"/><path fill="none" stroke="black" paint-order="fill stroke markers" d=" M 109 553 L 113 553" stroke-linejoin="bevel" stroke-miterlimit="10"/><path fill="none" stroke="black" paint-order="fill stroke markers" d=" M 109 545 L 113 545" stroke-linejoin="bevel" stroke-miterlimit="10"/><path fill="none" stroke="black" paint-order="fill stroke markers" d=" M 109 537 L 113 537" stroke-linejoin="bevel" stroke-miterlimit="10"/><path fill="none" stroke="black" paint-order="fill stroke markers" d=" M 109 537 L 113 537" stroke-linejoin="bevel" stroke-miterlimit="10"/><path fill="none" stroke="black" paint-order="fill stroke markers" d=" M 109 486 L 113 486" stroke-linejoin="bevel" stroke-miterlimit="10"/><path fill="none" stroke="black" paint-order="fill stroke markers" d=" M 109 456 L 113 456" stroke-linejoin="bevel" stroke-miterlimit="10"/><path fill="none" stroke="black" paint-order="fill stroke markers" d=" M 109 435 L 113 435" stroke-linejoin="bevel" stroke-miterlimit="10"/><path fill="none" stroke="black" paint-order="fill stroke markers" d=" M 109 419 L 113 419" stroke-linejoin="bevel" stroke-miterlimit="10"/><path fill="none" stroke="black" paint-order="fill stroke markers" d=" M 109 406 L 113 406" stroke-linejoin="bevel" stroke-miterlimit="10"/><path fill="none" stroke="black" paint-order="fill stroke markers" d=" M 109 394 L 113 394" stroke-linejoin="bevel" stroke-miterlimit="10"/><path fill="none" stroke="black" paint-order="fill stroke markers" d=" M 109 385 L 113 385" stroke-linejoin="bevel" stroke-miterlimit="10"/><path fill="none" stroke="black" paint-order="fill stroke markers" d=" M 109 376 L 113 376" stroke-linejoin="bevel" stroke-miterlimit="10"/><path fill="none" stroke="black" paint-order="fill stroke markers" d=" M 109 368 L 113 368" stroke-linejoin="bevel" stroke-miterlimit="10"/><path fill="none" stroke="black" paint-order="fill stroke markers" d=" M 109 368 L 113 368" stroke-linejoin="bevel" stroke-miterlimit="10"/><path fill="none" stroke="black" paint-order="fill stroke markers" d=" M 109 317 L 113 317" stroke-linejoin="bevel" stroke-miterlimit="10"/><path fill="none" stroke="black" paint-order="fill stroke markers" d=" M 109 288 L 113 288" stroke-linejoin="bevel" stroke-miterlimit="10"/><path fill="none" stroke="black" paint-order="fill stroke markers" d=" M 109 267 L 113 267" stroke-linejoin="bevel" stroke-miterlimit="10"/><path fill="none" stroke="black" paint-order="fill stroke markers" d=" M 109 250 L 113 250" stroke-linejoin="bevel" stroke-miterlimit="10"/><path fill="none" stroke="black" paint-order="fill stroke markers" d=" M 109 237 L 113 237" stroke-linejoin="bevel" stroke-miterlimit="10"/><path fill="none" stroke="black" paint-order="fill stroke markers" d=" M 109 226 L 113 226" stroke-linejoin="bevel" stroke-miterlimit="10"/><path fill="none" stroke="black" paint-order="fill stroke markers" d=" M 109 216 L 113 216" stroke-linejoin="bevel" stroke-miterlimit="10"/><path fill="none" stroke="black" paint-order="fill stroke markers" d=" M 109 207 L 113 207" stroke-linejoin="bevel" stroke-miterlimit="10"/><path fill="none" stroke="black" paint-order="fill stroke markers" d=" M 109 199 L 113 199" stroke-linejoin="bevel" stroke-miterlimit="10"/><path fill="none" stroke="black" paint-order="fill stroke markers" d=" M 109 199 L 113 199" stroke-linejoin="bevel" stroke-miterlimit="10"/><path fill="none" stroke="black" paint-order="fill stroke markers" d=" M 109 149 L 113 149" stroke-linejoin="bevel" stroke-miterlimit="10"/><path fill="none" stroke="black" paint-order="fill stroke markers" d=" M 109 119 L 113 119" stroke-linejoin="bevel" stroke-miterlimit="10"/><path fill="none" stroke="black" paint-order="fill stroke markers" d=" M 109 98 L 113 98" stroke-linejoin="bevel" stroke-miterlimit="10"/><path fill="none" stroke="black" paint-order="fill stroke markers" d=" M 109 81 L 113 81" stroke-linejoin="bevel" stroke-miterlimit="10"/><path fill="none" stroke="black" paint-order="fill stroke markers" d=" M 109 68 L 113 68" stroke-linejoin="bevel" stroke-miterlimit="10"/><path fill="none" stroke="black" paint-order="fill stroke markers" d=" M 109 57 L 113 57" stroke-linejoin="bevel" stroke-miterlimit="10"/><path fill="none" stroke="black" paint-order="fill stroke markers" d=" M 109 47 L 113 47" stroke-linejoin="bevel" stroke-miterlimit="10"/><path fill="none" stroke="black" paint-order="fill stroke markers" d=" M 109 38 L 113 38" stroke-linejoin="bevel" stroke-miterlimit="10"/><path fill="none" stroke="black" paint-order="fill stroke markers" d=" M 109 31 L 113 31" stroke-linejoin="bevel" stroke-miterlimit="10"/><path fill="" stroke="black" paint-order="fill stroke markers" d=" M 109 31 L 113 31" stroke-linejoin="bevel" stroke-miterlimit="10"/><g transform="translate(102,537) rotate(0,0,0)"><text fill="" stroke="none" font-family="helvetica" font-size="26px" font-style="normal" font-weight="normal" text-decoration="normal" x="0" y="0" text-anchor="end" dominant-baseline="central">10^-3</text><g transform="rotate(0,0,0) translate(-102,-537) translate(102,368) rotate(0,0,0)"><text fill="" stroke="none" font-family="helvetica" font-size="26px" font-style="normal" font-weight="normal" text-decoration="normal" x="0" y="0" text-anchor="end" dominant-baseline="central">10^-2</text><g transform="rotate(0,0,0) translate(-102,-368) translate(102,199) rotate(0,0,0)"><text fill="" stroke="none" font-family="helvetica" font-size="26px" font-style="normal" font-weight="normal" text-decoration="normal" x="0" y="0" text-anchor="end" dominant-baseline="central">10^-1</text><g transform="rotate(0,0,0) translate(-102,-199) translate(102,31) rotate(0,0,0)"><text fill="" stroke="none" font-family="helvetica" font-size="26px" font-style="normal" font-weight="normal" text-decoration="normal" x="0" y="0" text-anchor="end" dominant-baseline="central">10^0</text><g transform="rotate(0,0,0) translate(-102,-31) translate(26,288) rotate(-90,0,0)"><text fill="" stroke="none" font-family="helvetica" font-size="26pt" font-style="italic" font-weight="normal" text-decoration="normal" x="0" y="0" text-anchor="middle" dominant-baseline="alphabetic">CCDF</text><g transform="rotate(90,0,0) translate(-26,-288)"/></g></g></g></g></g></g></g><g clip-path="url(#PsTkLxDirGkV)"><g/></g><g clip-path="url(#LQZyAVJXXbCE)"><g/></g></g></g></svg>