<svg version="1.1" xmlns="http://www.w3.org/2000/svg" xmlns:xlink="http://www.w3.org/1999/xlink" width="600" height="600" style="width: 600px; height: 600px;"><defs><clipPath id="eQassEfTRCCk"><path fill="none" stroke="none" d=" M 84 5 L 570 5 L 570 570 L 84 570 L 84 5 Z"/></clipPath><clipPath id="vawFXJEzoHRU"><path fill="none" stroke="none" d=" M 84 5 L 570 5 L 570 570 L 84 570 L 84 5 Z"/></clipPath><clipPath id="AQpcMELlOdQi"><path fill="none" stroke="none" d=" M 84 5 L 570 5 L 570 570 L 84 570 L 84 5 Z"/></clipPath><clipPath id="tTsMaylJHaBX"><path fill="none" stroke="none" d=" M 84 5 L 570 5 L 570 570 L 84 570 L 84 5 Z"/></clipPath><clipPath id="qRCytuAcSfNB"><path fill="none" stroke="none" d=" M 84 5 L 570 5 L 570 570 L 84 570 L 84 5 Z"/></clipPath><clipPath id="ZydWetVRwmsk"><path fill="none" stroke="none" d=" M 84 5 L 570 5 L 570 570 L 84 570 L 84 5 Z"/></clipPath><clipPath id="klKzemTGTZhO"><path fill="none" stroke="none" d=" M 84 5 L 570 5 L 570 570 L 84 570 L 84 5 Z"/></clipPath><clipPath id="hyAEDyZAheuZ"><path fill="none" stroke="none" d=" M 84 5 L 570 5 L 570 570 L 84 570 L 84 5 Z"/></clipPath><clipPath id="mNpRLchsaoZX"><path fill="none" stroke="none" d=" M 84 5 L 570 5 L 570 570 L 84 570 L 84 5 Z"/></clipPath><clipPath id="ObwyOvqudyIT"><path fill="none" stroke="none" d=" M 84 5 L 570 5 L 570 570 L 84 570 L 84 5 Z"/></clipPath><clipPath id="DXqLecmQdWEI"><path fill="none" stroke="none" d=" M 84 5 L 570 5 L 570 570 L 84 570 L 84 5 Z"/></clipPath><clipPath id="IUsDFttorGQA"><path fill="none" stroke="none" d=" M 84 5 L 570 5 L 570 570 L 84 570 L 84 5 Z"/></clipPath><clipPath id="iHrcEIGUzfrw"><path fill="none" stroke="none" d=" M 84 5 L 570 5 L 570 570 L 84 570 L 84 5 Z"/></clipPath><clipPath id="vqZiaruoMlTA"><path fill="none" stroke="none" d=" M 84 5 L 570 5 L 570 570 L 84 570 L 84 5 Z"/></clipPath><clipPath id="VXzoggFCLGuo"><path fill="none" stroke="none" d=" M 84 5 L 570 5 L 570 570 L 84 570 L 84 5 Z"/></clipPath></defs><g><g transform="scale(1,1) translate(0.5,0.5)"><rect fill="#FFFFFF" stroke="none" x="0" y="0" width="600" height="600"/><rect fill="#ffffff" stroke="none" x="0" y="0" width="600" height="600"/><rect fill="#FFFFFF" stroke="none" x="84" y="5" width="486" height="565"/><rect fill="#ffffff" stroke="none" x="84" y="5" width="486" height="565"/><g><rect fill="none" stroke="#e5e5e5" x="84" y="5" width="486" height="565" stroke-linejoin="bevel" stroke-miterlimit="10"/></g><g clip-path="url(#eQassEfTRCCk)"><g><g><path fill="none" stroke="#e5e5e5" paint-order="fill stroke markers" d=" M 181 570 L 181 5" stroke-linejoin="bevel" stroke-miterlimit="10"/><path fill="none" stroke="#e5e5e5" paint-order="fill stroke markers" d=" M 278 570 L 278 5" stroke-linejoin="bevel" stroke-miterlimit="10"/><path fill="none" stroke="#e5e5e5" paint-order="fill stroke markers" d=" M 376 570 L 376 5" stroke-linejoin="bevel" stroke-miterlimit="10"/><path fill="none" stroke="#e5e5e5" paint-order="fill stroke markers" d=" M 473 570 L 473 5" stroke-linejoin="bevel" stroke-miterlimit="10"/></g></g></g><g clip-path="url(#vawFXJEzoHRU)"><g><g><path fill="none" stroke="#e5e5e5" paint-order="fill stroke markers" d=" M 84 448 L 570 448" stroke-linejoin="bevel" stroke-miterlimit="10"/><path fill="none" stroke="#e5e5e5" paint-order="fill stroke markers" d=" M 84 288 L 570 288" stroke-linejoin="bevel" stroke-miterlimit="10"/><path fill="none" stroke="#e5e5e5" paint-order="fill stroke markers" d=" M 84 127 L 570 127" stroke-linejoin="bevel" stroke-miterlimit="10"/></g></g></g><g clip-path="url(#AQpcMELlOdQi)"><g><g><path fill="none" stroke="none"/><path fill="red" stroke="red" paint-order="fill stroke markers" d=" M 102.7292736 404.13663597959584 A 18.7292736 18.7292736 0 1 1 102.72926423536398 404.1179067091174" fill-opacity="0.5" stroke-linejoin="bevel" stroke-miterlimit="10" stroke-opacity="0.5"/><path fill="red" stroke="red" paint-order="fill stroke markers" d=" M 150.2545332 384.42224238603643 A 17.654533200000003 17.654533200000003 0 1 1 150.25452437273412 384.40458785577886" fill-opacity="0.5" stroke-linejoin="bevel" stroke-miterlimit="10" stroke-opacity="0.5"/><path fill="red" stroke="red" paint-order="fill stroke markers" d=" M 181.2 353.82260089255334 A 0 0 0 1 1 181.2 353.82260089255334" fill-opacity="0.5" stroke-linejoin="bevel" stroke-miterlimit="10" stroke-opacity="0.5"/><path fill="red" stroke="red" paint-order="fill stroke markers" d=" M 229.79999999999998 319.8130869165419 A 0 0 0 1 1 229.79999999999998 319.8130869165419" fill-opacity="0.5" stroke-linejoin="bevel" stroke-miterlimit="10" stroke-opacity="0.5"/><path fill="red" stroke="red" paint-order="fill stroke markers" d=" M 278.4 294.68432736717807 A 0 0 0 1 1 278.4 294.68432736717807" fill-opacity="0.5" stroke-linejoin="bevel" stroke-miterlimit="10" stroke-opacity="0.5"/><path fill="red" stroke="red" paint-order="fill stroke markers" d=" M 355.9838736 269.75368346022094 A 28.98387359999998 28.98387359999998 0 1 1 355.9838591080644 269.72469959145155" fill-opacity="0.5" stroke-linejoin="bevel" stroke-miterlimit="10" stroke-opacity="0.5"/><path fill="red" stroke="red" paint-order="fill stroke markers" d=" M 375.59999999999997 245.2537627992033 A 0 0 0 1 1 375.59999999999997 245.2537627992033" fill-opacity="0.5" stroke-linejoin="bevel" stroke-miterlimit="10" stroke-opacity="0.5"/><path fill="red" stroke="red" paint-order="fill stroke markers" d=" M 454.0461348 221.02290398587894 A 29.846134800000016 29.846134800000016 0 1 1 454.04611987693386 220.99305785605327" fill-opacity="0.5" stroke-linejoin="bevel" stroke-miterlimit="10" stroke-opacity="0.5"/><path fill="red" stroke="red" paint-order="fill stroke markers" d=" M 472.8 194.15872706287647 A 0 0 0 1 1 472.8 194.15872706287647" fill-opacity="0.5" stroke-linejoin="bevel" stroke-miterlimit="10" stroke-opacity="0.5"/><path fill="red" stroke="red" paint-order="fill stroke markers" d=" M 521.4000000000001 164.62544472820844 A 0 0 0 1 1 521.4000000000001 164.62544472820844" fill-opacity="0.5" stroke-linejoin="bevel" stroke-miterlimit="10" stroke-opacity="0.5"/><path fill="red" stroke="red" paint-order="fill stroke markers" d=" M 570 154.61600473551442 A 0 0 0 1 1 570 154.61600473551442" fill-opacity="0.5" stroke-linejoin="bevel" stroke-miterlimit="10" stroke-opacity="0.5"/></g></g></g><g clip-path="url(#tTsMaylJHaBX)"><g><g><path fill="none" stroke="none"/><path fill="none" stroke="red" paint-order="fill stroke markers" d=" M 84 404.13663597959584 L 132.6 384.42224238603643 L 181.2 353.82260089255334 L 229.79999999999998 319.8130869165419 L 278.4 294.68432736717807 L 327 269.75368346022094 L 375.59999999999997 245.2537627992033 L 424.2 221.02290398587894 L 472.8 194.15872706287647 L 521.4000000000001 164.62544472820844 L 570 154.61600473551442" stroke-linejoin="bevel" stroke-miterlimit="10" stroke-width="5" stroke-dasharray="4,4"/></g></g></g><g clip-path="url(#qRCytuAcSfNB)"><g><g><path fill="none" stroke="none"/><path fill="black" stroke="black" paint-order="fill stroke markers" d=" M 84 317.97671094598127 A 0 0 0 1 1 84 317.97671094598127" fill-opacity="0.5" stroke-linejoin="bevel" stroke-miterlimit="10" stroke-opacity="0.5"/><path fill="black" stroke="black" paint-order="fill stroke markers" d=" M 132.6 317.99394426448964 A 0 0 0 1 1 132.6 317.99394426448964" fill-opacity="0.5" stroke-linejoin="bevel" stroke-miterlimit="10" stroke-opacity="0.5"/><path fill="black" stroke="black" paint-order="fill stroke markers" d=" M 208.529724 317.4957644517875 A 27.329724 27.329724 0 1 1 208.52971033513913 317.4684347323425" fill-opacity="0.5" stroke-linejoin="bevel" stroke-miterlimit="10" stroke-opacity="0.5"/><path fill="black" stroke="black" paint-order="fill stroke markers" d=" M 257.1402216 317.3723997740185 A 27.340221600000035 27.340221600000035 0 1 1 257.1402079298904 317.3450595569752" fill-opacity="0.5" stroke-linejoin="bevel" stroke-miterlimit="10" stroke-opacity="0.5"/><path fill="black" stroke="black" paint-order="fill stroke markers" d=" M 305.7625776 317.71177058426895 A 27.36257760000001 27.36257760000001 0 1 1 305.7625639187123 317.6844080112294" fill-opacity="0.5" stroke-linejoin="bevel" stroke-miterlimit="10" stroke-opacity="0.5"/><path fill="black" stroke="black" paint-order="fill stroke markers" d=" M 327 287.34848162902557 A 0 0 0 1 1 327 287.34848162902557" fill-opacity="0.5" stroke-linejoin="bevel" stroke-miterlimit="10" stroke-opacity="0.5"/><path fill="black" stroke="black" paint-order="fill stroke markers" d=" M 403.0863132 255.14411590112618 A 27.48631320000004 27.48631320000004 0 1 1 403.08629945684453 255.11662959250722" fill-opacity="0.5" stroke-linejoin="bevel" stroke-miterlimit="10" stroke-opacity="0.5"/><path fill="black" stroke="black" paint-order="fill stroke markers" d=" M 424.2 225.09746271476646 A 0 0 0 1 1 424.2 225.09746271476646" fill-opacity="0.5" stroke-linejoin="bevel" stroke-miterlimit="10" stroke-opacity="0.5"/><path fill="black" stroke="black" paint-order="fill stroke markers" d=" M 499.68182640000003 199.93209643604493 A 26.881826400000023 26.881826400000023 0 1 1 499.68181295908795 199.9052146141252" fill-opacity="0.5" stroke-linejoin="bevel" stroke-miterlimit="10" stroke-opacity="0.5"/><path fill="black" stroke="black" paint-order="fill stroke markers" d=" M 548.2139808 199.87577459116878 A 26.813980799999854 26.813980799999854 0 1 1 548.2139673930106 199.84896061483775" fill-opacity="0.5" stroke-linejoin="bevel" stroke-miterlimit="10" stroke-opacity="0.5"/><path fill="black" stroke="black" paint-order="fill stroke markers" d=" M 596.8001784 199.70257426617454 A 26.80017840000005 26.80017840000005 0 1 1 596.800164999912 199.67577409224123" fill-opacity="0.5" stroke-linejoin="bevel" stroke-miterlimit="10" stroke-opacity="0.5"/></g></g></g><g clip-path="url(#ZydWetVRwmsk)"><g><g><path fill="none" stroke="none"/><path fill="none" stroke="black" paint-order="fill stroke markers" d=" M 84 317.97671094598127 L 132.6 317.99394426448964 L 181.2 317.4957644517875 L 229.79999999999998 317.3723997740185 L 278.4 317.71177058426895 L 327 287.34848162902557 L 375.59999999999997 255.14411590112618 L 424.2 225.09746271476646 L 472.8 199.93209643604493 L 521.4000000000001 199.87577459116878 L 570 199.70257426617454" stroke-linejoin="bevel" stroke-miterlimit="10" stroke-width="5" stroke-dasharray="4,4"/></g></g></g><g clip-path="url(#klKzemTGTZhO)"><g><g><path fill="none" stroke="none"/><path fill="green" stroke="green" paint-order="fill stroke markers" d=" M 84 301.63291051974824 A 0 0 0 1 1 84 301.63291051974824" fill-opacity="0.5" stroke-linejoin="bevel" stroke-miterlimit="10" stroke-opacity="0.5"/><path fill="green" stroke="green" paint-order="fill stroke markers" d=" M 132.6 301.7187516700097 A 0 0 0 1 1 132.6 301.7187516700097" fill-opacity="0.5" stroke-linejoin="bevel" stroke-miterlimit="10" stroke-opacity="0.5"/><path fill="green" stroke="green" paint-order="fill stroke markers" d=" M 181.2 301.67954623311005 A 0 0 0 1 1 181.2 301.67954623311005" fill-opacity="0.5" stroke-linejoin="bevel" stroke-miterlimit="10" stroke-opacity="0.5"/><path fill="green" stroke="green" paint-order="fill stroke markers" d=" M 229.79999999999998 301.67243802882945 A 0 0 0 1 1 229.79999999999998 301.67243802882945" fill-opacity="0.5" stroke-linejoin="bevel" stroke-miterlimit="10" stroke-opacity="0.5"/><path fill="green" stroke="green" paint-order="fill stroke markers" d=" M 278.4 301.8824187013943 A 0 0 0 1 1 278.4 301.8824187013943" fill-opacity="0.5" stroke-linejoin="bevel" stroke-miterlimit="10" stroke-opacity="0.5"/><path fill="green" stroke="green" paint-order="fill stroke markers" d=" M 327 283.0050483966262 A 0 0 0 1 1 327 283.0050483966262" fill-opacity="0.5" stroke-linejoin="bevel" stroke-miterlimit="10" stroke-opacity="0.5"/><path fill="green" stroke="green" paint-order="fill stroke markers" d=" M 375.59999999999997 260.496917218308 A 0 0 0 1 1 375.59999999999997 260.496917218308" fill-opacity="0.5" stroke-linejoin="bevel" stroke-miterlimit="10" stroke-opacity="0.5"/><path fill="green" stroke="green" paint-order="fill stroke markers" d=" M 424.2 225.61994298588314 A 0 0 0 1 1 424.2 225.61994298588314" fill-opacity="0.5" stroke-linejoin="bevel" stroke-miterlimit="10" stroke-opacity="0.5"/><path fill="green" stroke="green" paint-order="fill stroke markers" d=" M 472.8 185.4320221166749 A 0 0 0 1 1 472.8 185.4320221166749" fill-opacity="0.5" stroke-linejoin="bevel" stroke-miterlimit="10" stroke-opacity="0.5"/><path fill="green" stroke="green" paint-order="fill stroke markers" d=" M 521.4000000000001 185.87477470685997 A 0 0 0 1 1 521.4000000000001 185.87477470685997" fill-opacity="0.5" stroke-linejoin="bevel" stroke-miterlimit="10" stroke-opacity="0.5"/><path fill="green" stroke="green" paint-order="fill stroke markers" d=" M 570 185.7040470300176 A 0 0 0 1 1 570 185.7040470300176" fill-opacity="0.5" stroke-linejoin="bevel" stroke-miterlimit="10" stroke-opacity="0.5"/></g></g></g><g clip-path="url(#hyAEDyZAheuZ)"><g><g><path fill="none" stroke="none"/><path fill="none" stroke="green" paint-order="fill stroke markers" d=" M 84 301.63291051974824 L 132.6 301.7187516700097 L 181.2 301.67954623311005 L 229.79999999999998 301.67243802882945 L 278.4 301.8824187013943 L 327 283.0050483966262 L 375.59999999999997 260.496917218308 L 424.2 225.61994298588314 L 472.8 185.4320221166749 L 521.4000000000001 185.87477470685997 L 570 185.7040470300176" stroke-linejoin="bevel" stroke-miterlimit="10" stroke-width="5" stroke-dasharray="4,4"/></g></g></g><g clip-path="url(#mNpRLchsaoZX)"><g><g><path fill="none" stroke="none"/><path fill="yellow" stroke="yellow" paint-order="fill stroke markers" d=" M 84 249.26334954399923 A 0 0 0 1 1 84 249.26334954399923" fill-opacity="0.5" stroke-linejoin="bevel" stroke-miterlimit="10" stroke-opacity="0.5"/><path fill="yellow" stroke="yellow" paint-order="fill stroke markers" d=" M 132.6 249.26334954399923 A 0 0 0 1 1 132.6 249.26334954399923" fill-opacity="0.5" stroke-linejoin="bevel" stroke-miterlimit="10" stroke-opacity="0.5"/><path fill="yellow" stroke="yellow" paint-order="fill stroke markers" d=" M 181.2 249.26334954399923 A 0 0 0 1 1 181.2 249.26334954399923" fill-opacity="0.5" stroke-linejoin="bevel" stroke-miterlimit="10" stroke-opacity="0.5"/><path fill="yellow" stroke="yellow" paint-order="fill stroke markers" d=" M 229.79999999999998 249.26334954399923 A 0 0 0 1 1 229.79999999999998 249.26334954399923" fill-opacity="0.5" stroke-linejoin="bevel" stroke-miterlimit="10" stroke-opacity="0.5"/><path fill="yellow" stroke="yellow" paint-order="fill stroke markers" d=" M 278.4 249.26334954399923 A 0 0 0 1 1 278.4 249.26334954399923" fill-opacity="0.5" stroke-linejoin="bevel" stroke-miterlimit="10" stroke-opacity="0.5"/><path fill="yellow" stroke="yellow" paint-order="fill stroke markers" d=" M 327 249.26334954399923 A 0 0 0 1 1 327 249.26334954399923" fill-opacity="0.5" stroke-linejoin="bevel" stroke-miterlimit="10" stroke-opacity="0.5"/><path fill="yellow" stroke="yellow" paint-order="fill stroke markers" d=" M 375.59999999999997 249.26334954399923 A 0 0 0 1 1 375.59999999999997 249.26334954399923" fill-opacity="0.5" stroke-linejoin="bevel" stroke-miterlimit="10" stroke-opacity="0.5"/><path fill="yellow" stroke="yellow" paint-order="fill stroke markers" d=" M 424.2 249.26334954399923 A 0 0 0 1 1 424.2 249.26334954399923" fill-opacity="0.5" stroke-linejoin="bevel" stroke-miterlimit="10" stroke-opacity="0.5"/><path fill="yellow" stroke="yellow" paint-order="fill stroke markers" d=" M 472.8 249.26334954399923 A 0 0 0 1 1 472.8 249.26334954399923" fill-opacity="0.5" stroke-linejoin="bevel" stroke-miterlimit="10" stroke-opacity="0.5"/><path fill="yellow" stroke="yellow" paint-order="fill stroke markers" d=" M 521.4000000000001 249.26334954399923 A 0 0 0 1 1 521.4000000000001 249.26334954399923" fill-opacity="0.5" stroke-linejoin="bevel" stroke-miterlimit="10" stroke-opacity="0.5"/><path fill="yellow" stroke="yellow" paint-order="fill stroke markers" d=" M 570 249.26334954399923 A 0 0 0 1 1 570 249.26334954399923" fill-opacity="0.5" stroke-linejoin="bevel" stroke-miterlimit="10" stroke-opacity="0.5"/></g></g></g><g clip-path="url(#ObwyOvqudyIT)"><g><g><path fill="none" stroke="none"/><path fill="none" stroke="yellow" paint-order="fill stroke markers" d=" M 84 249.26334954399923 L 132.6 249.26334954399923 L 181.2 249.26334954399923 L 229.79999999999998 249.26334954399923 L 278.4 249.26334954399923 L 327 249.26334954399923 L 375.59999999999997 249.26334954399923 L 424.2 249.26334954399923 L 472.8 249.26334954399923 L 521.4000000000001 249.26334954399923 L 570 249.26334954399923" stroke-linejoin="bevel" stroke-miterlimit="10" stroke-width="5" stroke-dasharray="4,4"/></g></g></g><g clip-path="url(#DXqLecmQdWEI)"><g><g><path fill="none" stroke="none"/><path fill="purple" stroke="purple" paint-order="fill stroke markers" d=" M 84 262.66877292886716 A 0 0 0 1 1 84 262.66877292886716" fill-opacity="0.5" stroke-linejoin="bevel" stroke-miterlimit="10" stroke-opacity="0.5"/><path fill="purple" stroke="purple" paint-order="fill stroke markers" d=" M 132.6 262.66877292886716 A 0 0 0 1 1 132.6 262.66877292886716" fill-opacity="0.5" stroke-linejoin="bevel" stroke-miterlimit="10" stroke-opacity="0.5"/><path fill="purple" stroke="purple" paint-order="fill stroke markers" d=" M 181.2 262.66877292886716 A 0 0 0 1 1 181.2 262.66877292886716" fill-opacity="0.5" stroke-linejoin="bevel" stroke-miterlimit="10" stroke-opacity="0.5"/><path fill="purple" stroke="purple" paint-order="fill stroke markers" d=" M 229.79999999999998 262.66877292886716 A 0 0 0 1 1 229.79999999999998 262.66877292886716" fill-opacity="0.5" stroke-linejoin="bevel" stroke-miterlimit="10" stroke-opacity="0.5"/><path fill="purple" stroke="purple" paint-order="fill stroke markers" d=" M 278.4 262.66877292886716 A 0 0 0 1 1 278.4 262.66877292886716" fill-opacity="0.5" stroke-linejoin="bevel" stroke-miterlimit="10" stroke-opacity="0.5"/><path fill="purple" stroke="purple" paint-order="fill stroke markers" d=" M 327 262.66877292886716 A 0 0 0 1 1 327 262.66877292886716" fill-opacity="0.5" stroke-linejoin="bevel" stroke-miterlimit="10" stroke-opacity="0.5"/><path fill="purple" stroke="purple" paint-order="fill stroke markers" d=" M 375.59999999999997 262.66877292886716 A 0 0 0 1 1 375.59999999999997 262.66877292886716" fill-opacity="0.5" stroke-linejoin="bevel" stroke-miterlimit="10" stroke-opacity="0.5"/><path fill="purple" stroke="purple" paint-order="fill stroke markers" d=" M 424.2 262.66877292886716 A 0 0 0 1 1 424.2 262.66877292886716" fill-opacity="0.5" stroke-linejoin="bevel" stroke-miterlimit="10" stroke-opacity="0.5"/><path fill="purple" stroke="purple" paint-order="fill stroke markers" d=" M 472.8 262.66877292886716 A 0 0 0 1 1 472.8 262.66877292886716" fill-opacity="0.5" stroke-linejoin="bevel" stroke-miterlimit="10" stroke-opacity="0.5"/><path fill="purple" stroke="purple" paint-order="fill stroke markers" d=" M 521.4000000000001 262.66877292886716 A 0 0 0 1 1 521.4000000000001 262.66877292886716" fill-opacity="0.5" stroke-linejoin="bevel" stroke-miterlimit="10" stroke-opacity="0.5"/><path fill="purple" stroke="purple" paint-order="fill stroke markers" d=" M 570 262.66877292886716 A 0 0 0 1 1 570 262.66877292886716" fill-opacity="0.5" stroke-linejoin="bevel" stroke-miterlimit="10" stroke-opacity="0.5"/></g></g></g><g clip-path="url(#IUsDFttorGQA)"><g><g><path fill="none" stroke="none"/><path fill="none" stroke="purple" paint-order="fill stroke markers" d=" M 84 262.66877292886716 L 132.6 262.66877292886716 L 181.2 262.66877292886716 L 229.79999999999998 262.66877292886716 L 278.4 262.66877292886716 L 327 262.66877292886716 L 375.59999999999997 262.66877292886716 L 424.2 262.66877292886716 L 472.8 262.66877292886716 L 521.4000000000001 262.66877292886716 L 570 262.66877292886716" stroke-linejoin="bevel" stroke-miterlimit="10" stroke-width="5" stroke-dasharray="4,4"/></g></g></g><g clip-path="url(#iHrcEIGUzfrw)"><g><g><path fill="none" stroke="none"/><path fill="gray" stroke="none" paint-order="stroke fill markers" d=" M 84 351.70454545454544 L 570 30.681818181818187 L 570 223.29545454545456 L 84 544.3181818181818 Z" fill-opacity="0.25"/></g></g></g><g clip-path="url(#vqZiaruoMlTA)"><g><g/><g><path fill="#ffffff" stroke="#e5e5e5" paint-order="fill stroke markers" d=" M 200 502 L 560 502 L 560 560 L 200 560 L 200 502 Z" fill-opacity="0.95" stroke-linejoin="bevel" stroke-miterlimit="10" stroke-opacity="0.5"/><text fill="#444444" stroke="none" font-family="helvetica" font-size="26pt" font-style="normal" font-weight="normal" text-decoration="normal" x="235" y="531" text-anchor="start" dominant-baseline="central">Error Margins ±30%</text><rect fill="gray" stroke="none" x="212" y="514" width="16" height="16" fill-opacity="0.25"/></g></g></g><g/><g/><g><g fill="#444444"><path fill="none" stroke="black" paint-order="fill stroke markers" d=" M 84 570 L 570 570" stroke-linejoin="bevel" stroke-miterlimit="10"/><path fill="none" stroke="black" paint-order="fill stroke markers" d=" M 84 576 L 84 568" stroke-linejoin="bevel" stroke-miterlimit="10"/><path fill="none" stroke="black" paint-order="fill stroke markers" d=" M 181 576 L 181 568" stroke-linejoin="bevel" stroke-miterlimit="10"/><path fill="none" stroke="black" paint-order="fill stroke markers" d=" M 278 576 L 278 568" stroke-linejoin="bevel" stroke-miterlimit="10"/><path fill="none" stroke="black" paint-order="fill stroke markers" d=" M 376 576 L 376 568" stroke-linejoin="bevel" stroke-miterlimit="10"/><path fill="none" stroke="black" paint-order="fill stroke markers" d=" M 473 576 L 473 568" stroke-linejoin="bevel" stroke-miterlimit="10"/><path fill="none" stroke="black" paint-order="fill stroke markers" d=" M 570 576 L 570 568" stroke-linejoin="bevel" stroke-miterlimit="10"/><path fill="none" stroke="black" paint-order="fill stroke markers" d=" M 84 574 L 84 570" stroke-linejoin="bevel" stroke-miterlimit="10"/><path fill="none" stroke="black" paint-order="fill stroke markers" d=" M 103 574 L 103 570" stroke-linejoin="bevel" stroke-miterlimit="10"/><path fill="none" stroke="black" paint-order="fill stroke markers" d=" M 123 574 L 123 570" stroke-linejoin="bevel" stroke-miterlimit="10"/><path fill="none" stroke="black" paint-order="fill stroke markers" d=" M 142 574 L 142 570" stroke-linejoin="bevel" stroke-miterlimit="10"/><path fill="none" stroke="black" paint-order="fill stroke markers" d=" M 162 574 L 162 570" stroke-linejoin="bevel" stroke-miterlimit="10"/><path fill="none" stroke="black" paint-order="fill stroke markers" d=" M 181 574 L 181 570" stroke-linejoin="bevel" stroke-miterlimit="10"/><path fill="none" stroke="black" paint-order="fill stroke markers" d=" M 201 574 L 201 570" stroke-linejoin="bevel" stroke-miterlimit="10"/><path fill="none" stroke="black" paint-order="fill stroke markers" d=" M 220 574 L 220 570" stroke-linejoin="bevel" stroke-miterlimit="10"/><path fill="none" stroke="black" paint-order="fill stroke markers" d=" M 240 574 L 240 570" stroke-linejoin="bevel" stroke-miterlimit="10"/><path fill="none" stroke="black" paint-order="fill stroke markers" d=" M 259 574 L 259 570" stroke-linejoin="bevel" stroke-miterlimit="10"/><path fill="none" stroke="black" paint-order="fill stroke markers" d=" M 278 574 L 278 570" stroke-linejoin="bevel" stroke-miterlimit="10"/><path fill="none" stroke="black" paint-order="fill stroke markers" d=" M 298 574 L 298 570" stroke-linejoin="bevel" stroke-miterlimit="10"/><path fill="none" stroke="black" paint-order="fill stroke markers" d=" M 317 574 L 317 570" stroke-linejoin="bevel" stroke-miterlimit="10"/><path fill="none" stroke="black" paint-order="fill stroke markers" d=" M 337 574 L 337 570" stroke-linejoin="bevel" stroke-miterlimit="10"/><path fill="none" stroke="black" paint-order="fill stroke markers" d=" M 356 574 L 356 570" stroke-linejoin="bevel" stroke-miterlimit="10"/><path fill="none" stroke="black" paint-order="fill stroke markers" d=" M 376 574 L 376 570" stroke-linejoin="bevel" stroke-miterlimit="10"/><path fill="none" stroke="black" paint-order="fill stroke markers" d=" M 395 574 L 395 570" stroke-linejoin="bevel" stroke-miterlimit="10"/><path fill="none" stroke="black" paint-order="fill stroke markers" d=" M 414 574 L 414 570" stroke-linejoin="bevel" stroke-miterlimit="10"/><path fill="none" stroke="black" paint-order="fill stroke markers" d=" M 434 574 L 434 570" stroke-linejoin="bevel" stroke-miterlimit="10"/><path fill="none" stroke="black" paint-order="fill stroke markers" d=" M 453 574 L 453 570" stroke-linejoin="bevel" stroke-miterlimit="10"/><path fill="none" stroke="black" paint-order="fill stroke markers" d=" M 473 574 L 473 570" stroke-linejoin="bevel" stroke-miterlimit="10"/><path fill="none" stroke="black" paint-order="fill stroke markers" d=" M 492 574 L 492 570" stroke-linejoin="bevel" stroke-miterlimit="10"/><path fill="none" stroke="black" paint-order="fill stroke markers" d=" M 512 574 L 512 570" stroke-linejoin="bevel" stroke-miterlimit="10"/><path fill="none" stroke="black" paint-order="fill stroke markers" d=" M 531 574 L 531 570" stroke-linejoin="bevel" stroke-miterlimit="10"/><path fill="none" stroke="black" paint-order="fill stroke markers" d=" M 551 574 L 551 570" stroke-linejoin="bevel" stroke-miterlimit="10"/><path fill="" stroke="black" paint-order="fill stroke markers" d=" M 570 574 L 570 570" stroke-linejoin="bevel" stroke-miterlimit="10"/><g transform="translate(84,581) rotate(0,0,0)"><text fill="" stroke="none" font-family="helvetica" font-size="26px" font-style="normal" font-weight="normal" text-decoration="normal" x="0" y="0" text-anchor="middle" dominant-baseline="hanging">0</text><g transform="rotate(0,0,0) translate(-84,-581) translate(181,581) rotate(0,0,0)"><text fill="" stroke="none" font-family="helvetica" font-size="26px" font-style="normal" font-weight="normal" text-decoration="normal" x="0" y="0" text-anchor="middle" dominant-baseline="hanging">0.2</text><g transform="rotate(0,0,0) translate(-181,-581) translate(278,581) rotate(0,0,0)"><text fill="" stroke="none" font-family="helvetica" font-size="26px" font-style="normal" font-weight="normal" text-decoration="normal" x="0" y="0" text-anchor="middle" dominant-baseline="hanging">0.4</text><g transform="rotate(0,0,0) translate(-278,-581) translate(376,581) rotate(0,0,0)"><text fill="" stroke="none" font-family="helvetica" font-size="26px" font-style="normal" font-weight="normal" text-decoration="normal" x="0" y="0" text-anchor="middle" dominant-baseline="hanging">0.6</text><g transform="rotate(0,0,0) translate(-376,-581) translate(473,581) rotate(0,0,0)"><text fill="" stroke="none" font-family="helvetica" font-size="26px" font-style="normal" font-weight="normal" text-decoration="normal" x="0" y="0" text-anchor="middle" dominant-baseline="hanging">0.8</text><g transform="rotate(0,0,0) translate(-473,-581) translate(570,581) rotate(0,0,0)"><text fill="" stroke="none" font-family="helvetica" font-size="26px" font-style="normal" font-weight="normal" text-decoration="normal" x="0" y="0" text-anchor="middle" dominant-baseline="hanging">1</text><g transform="rotate(0,0,0) translate(-570,-581)"/></g></g></g></g></g></g></g></g><g><g fill="#444444"><path fill="none" stroke="black" paint-order="fill stroke markers" d=" M 84 570 L 84 5" stroke-linejoin="bevel" stroke-miterlimit="10"/><path fill="none" stroke="black" paint-order="fill stroke markers" d=" M 78 448 L 86 448" stroke-linejoin="bevel" stroke-miterlimit="10"/><path fill="none" stroke="black" paint-order="fill stroke markers" d=" M 78 288 L 86 288" stroke-linejoin="bevel" stroke-miterlimit="10"/><path fill="none" stroke="black" paint-order="fill stroke markers" d=" M 78 127 L 86 127" stroke-linejoin="bevel" stroke-miterlimit="10"/><path fill="none" stroke="black" paint-order="fill stroke markers" d=" M 80 480 L 84 480" stroke-linejoin="bevel" stroke-miterlimit="10"/><path fill="none" stroke="black" paint-order="fill stroke markers" d=" M 80 512 L 84 512" stroke-linejoin="bevel" stroke-miterlimit="10"/><path fill="none" stroke="black" paint-order="fill stroke markers" d=" M 80 544 L 84 544" stroke-linejoin="bevel" stroke-miterlimit="10"/><path fill="none" stroke="black" paint-order="fill stroke markers" d=" M 80 448 L 84 448" stroke-linejoin="bevel" stroke-miterlimit="10"/><path fill="none" stroke="black" paint-order="fill stroke markers" d=" M 80 416 L 84 416" stroke-linejoin="bevel" stroke-miterlimit="10"/><path fill="none" stroke="black" paint-order="fill stroke markers" d=" M 80 384 L 84 384" stroke-linejoin="bevel" stroke-miterlimit="10"/><path fill="none" stroke="black" paint-order="fill stroke markers" d=" M 80 352 L 84 352" stroke-linejoin="bevel" stroke-miterlimit="10"/><path fill="none" stroke="black" paint-order="fill stroke markers" d=" M 80 320 L 84 320" stroke-linejoin="bevel" stroke-miterlimit="10"/><path fill="none" stroke="black" paint-order="fill stroke markers" d=" M 80 288 L 84 288" stroke-linejoin="bevel" stroke-miterlimit="10"/><path fill="none" stroke="black" paint-order="fill stroke markers" d=" M 80 255 L 84 255" stroke-linejoin="bevel" stroke-miterlimit="10"/><path fill="none" stroke="black" paint-order="fill stroke markers" d=" M 80 223 L 84 223" stroke-linejoin="bevel" stroke-miterlimit="10"/><path fill="none" stroke="black" paint-order="fill stroke markers" d=" M 80 191 L 84 191" stroke-linejoin="bevel" stroke-miterlimit="10"/><path fill="none" stroke="black" paint-order="fill stroke markers" d=" M 80 159 L 84 159" stroke-linejoin="bevel" stroke-miterlimit="10"/><path fill="none" stroke="black" paint-order="fill stroke markers" d=" M 80 127 L 84 127" stroke-linejoin="bevel" stroke-miterlimit="10"/><path fill="none" stroke="black" paint-order="fill stroke markers" d=" M 80 95 L 84 95" stroke-linejoin="bevel" stroke-miterlimit="10"/><path fill="none" stroke="black" paint-order="fill stroke markers" d=" M 80 63 L 84 63" stroke-linejoin="bevel" stroke-miterlimit="10"/><path fill="" stroke="black" paint-order="fill stroke markers" d=" M 80 31 L 84 31" stroke-linejoin="bevel" stroke-miterlimit="10"/><g transform="translate(73,448) rotate(0,0,0)"><text fill="" stroke="none" font-family="helvetica" font-size="26px" font-style="normal" font-weight="normal" text-decoration="normal" x="0" y="0" text-anchor="end" dominant-baseline="central">0</text><g transform="rotate(0,0,0) translate(-73,-448) translate(73,288) rotate(0,0,0)"><text fill="" stroke="none" font-family="helvetica" font-size="26px" font-style="normal" font-weight="normal" text-decoration="normal" x="0" y="0" text-anchor="end" dominant-baseline="central">0.5</text><g transform="rotate(0,0,0) translate(-73,-288) translate(73,127) rotate(0,0,0)"><text fill="" stroke="none" font-family="helvetica" font-size="26px" font-style="normal" font-weight="normal" text-decoration="normal" x="0" y="0" text-anchor="end" dominant-baseline="central">1</text><g transform="rotate(0,0,0) translate(-73,-127) translate(25,288) rotate(-90,0,0)"><text fill="" stroke="none" font-family="helvetica" font-size="26pt" font-style="italic" font-weight="normal" text-decoration="normal" x="0" y="0" text-anchor="middle" dominant-baseline="alphabetic">Spread Ratio (Female)</text><g transform="rotate(90,0,0) translate(-25,-288)"/></g></g></g></g></g></g><g clip-path="url(#VXzoggFCLGuo)"><g/></g></g></g></svg>