<svg version="1.1" xmlns="http://www.w3.org/2000/svg" xmlns:xlink="http://www.w3.org/1999/xlink" width="600" height="600" style="width: 600px; height: 600px;"><defs><clipPath id="vdJundUNWohg"><path fill="none" stroke="none" d=" M 84 5 L 570 5 L 570 570 L 84 570 L 84 5 Z"/></clipPath><clipPath id="TTuozPeNizBD"><path fill="none" stroke="none" d=" M 84 5 L 570 5 L 570 570 L 84 570 L 84 5 Z"/></clipPath><clipPath id="tJznbHVwmWDW"><path fill="none" stroke="none" d=" M 84 5 L 570 5 L 570 570 L 84 570 L 84 5 Z"/></clipPath><clipPath id="VhbndehTSMeV"><path fill="none" stroke="none" d=" M 84 5 L 570 5 L 570 570 L 84 570 L 84 5 Z"/></clipPath><clipPath id="nphHoImAOpzC"><path fill="none" stroke="none" d=" M 84 5 L 570 5 L 570 570 L 84 570 L 84 5 Z"/></clipPath><clipPath id="xTwUpgPDvWKn"><path fill="none" stroke="none" d=" M 84 5 L 570 5 L 570 570 L 84 570 L 84 5 Z"/></clipPath><clipPath id="URuaERAQkEeG"><path fill="none" stroke="none" d=" M 84 5 L 570 5 L 570 570 L 84 570 L 84 5 Z"/></clipPath><clipPath id="NZaMkXqlITWy"><path fill="none" stroke="none" d=" M 84 5 L 570 5 L 570 570 L 84 570 L 84 5 Z"/></clipPath><clipPath id="yXUOznufMEOA"><path fill="none" stroke="none" d=" M 84 5 L 570 5 L 570 570 L 84 570 L 84 5 Z"/></clipPath><clipPath id="MTXwdFPhDpyy"><path fill="none" stroke="none" d=" M 84 5 L 570 5 L 570 570 L 84 570 L 84 5 Z"/></clipPath><clipPath id="TsxOCRdTcyro"><path fill="none" stroke="none" d=" M 84 5 L 570 5 L 570 570 L 84 570 L 84 5 Z"/></clipPath><clipPath id="MwNfAeVTXIlw"><path fill="none" stroke="none" d=" M 84 5 L 570 5 L 570 570 L 84 570 L 84 5 Z"/></clipPath><clipPath id="knoSONMBECHN"><path fill="none" stroke="none" d=" M 84 5 L 570 5 L 570 570 L 84 570 L 84 5 Z"/></clipPath><clipPath id="gXdudvmyUEzu"><path fill="none" stroke="none" d=" M 84 5 L 570 5 L 570 570 L 84 570 L 84 5 Z"/></clipPath><clipPath id="oaykfvURwqHd"><path fill="none" stroke="none" d=" M 84 5 L 570 5 L 570 570 L 84 570 L 84 5 Z"/></clipPath></defs><g><g transform="scale(1,1) translate(0.5,0.5)"><rect fill="#FFFFFF" stroke="none" x="0" y="0" width="600" height="600"/><rect fill="#ffffff" stroke="none" x="0" y="0" width="600" height="600"/><rect fill="#FFFFFF" stroke="none" x="84" y="5" width="486" height="565"/><rect fill="#ffffff" stroke="none" x="84" y="5" width="486" height="565"/><g><rect fill="none" stroke="#e5e5e5" x="84" y="5" width="486" height="565" stroke-linejoin="bevel" stroke-miterlimit="10"/></g><g clip-path="url(#vdJundUNWohg)"><g><g><path fill="none" stroke="#e5e5e5" paint-order="fill stroke markers" d=" M 181 570 L 181 5" stroke-linejoin="bevel" stroke-miterlimit="10"/><path fill="none" stroke="#e5e5e5" paint-order="fill stroke markers" d=" M 278 570 L 278 5" stroke-linejoin="bevel" stroke-miterlimit="10"/><path fill="none" stroke="#e5e5e5" paint-order="fill stroke markers" d=" M 376 570 L 376 5" stroke-linejoin="bevel" stroke-miterlimit="10"/><path fill="none" stroke="#e5e5e5" paint-order="fill stroke markers" d=" M 473 570 L 473 5" stroke-linejoin="bevel" stroke-miterlimit="10"/></g></g></g><g clip-path="url(#TTuozPeNizBD)"><g><g><path fill="none" stroke="#e5e5e5" paint-order="fill stroke markers" d=" M 84 448 L 570 448" stroke-linejoin="bevel" stroke-miterlimit="10"/><path fill="none" stroke="#e5e5e5" paint-order="fill stroke markers" d=" M 84 288 L 570 288" stroke-linejoin="bevel" stroke-miterlimit="10"/><path fill="none" stroke="#e5e5e5" paint-order="fill stroke markers" d=" M 84 127 L 570 127" stroke-linejoin="bevel" stroke-miterlimit="10"/></g></g></g><g clip-path="url(#tJznbHVwmWDW)"><g><g><path fill="none" stroke="none"/><path fill="red" stroke="red" paint-order="fill stroke markers" d=" M 91.791552 413.60234077299947 A 7.791551999999996 7.791551999999996 0 1 1 91.79154810422432 413.59454922229804" fill-opacity="0.5" stroke-linejoin="bevel" stroke-miterlimit="10" stroke-opacity="0.5"/><path fill="red" stroke="red" paint-order="fill stroke markers" d=" M 145.197606 382.9225535806348 A 12.597606000000013 12.597606000000013 0 1 1 145.19759970119753 382.9099559767344" fill-opacity="0.5" stroke-linejoin="bevel" stroke-miterlimit="10" stroke-opacity="0.5"/><path fill="red" stroke="red" paint-order="fill stroke markers" d=" M 194.70059400000002 355.833614911853 A 13.500594000000035 13.500594000000035 0 1 1 194.70058724970357 355.8201143201031" fill-opacity="0.5" stroke-linejoin="bevel" stroke-miterlimit="10" stroke-opacity="0.5"/><path fill="red" stroke="red" paint-order="fill stroke markers" d=" M 243.85696679999998 327.39060165299543 A 14.056966799999998 14.056966799999998 0 1 1 243.85695977151715 327.3765446885383" fill-opacity="0.5" stroke-linejoin="bevel" stroke-miterlimit="10" stroke-opacity="0.5"/><path fill="red" stroke="red" paint-order="fill stroke markers" d=" M 294.0272328 300.81022118004154 A 15.627232800000002 15.627232800000002 0 1 1 294.0272249863842 300.79459394984605" fill-opacity="0.5" stroke-linejoin="bevel" stroke-miterlimit="10" stroke-opacity="0.5"/><path fill="red" stroke="red" paint-order="fill stroke markers" d=" M 342.9678216 270.89564571253385 A 15.96782159999998 15.96782159999998 0 1 1 342.96781361608987 270.87967789359516" fill-opacity="0.5" stroke-linejoin="bevel" stroke-miterlimit="10" stroke-opacity="0.5"/><path fill="red" stroke="red" paint-order="fill stroke markers" d=" M 391.08308519999997 254.23609541656467 A 15.483085200000005 15.483085200000005 0 1 1 391.08307745845804 254.22061233394518" fill-opacity="0.5" stroke-linejoin="bevel" stroke-miterlimit="10" stroke-opacity="0.5"/><path fill="red" stroke="red" paint-order="fill stroke markers" d=" M 440.0541948 226.2699173140772 A 15.854194800000016 15.854194800000016 0 1 1 440.05418687290324 226.25406312191956" fill-opacity="0.5" stroke-linejoin="bevel" stroke-miterlimit="10" stroke-opacity="0.5"/><path fill="red" stroke="red" paint-order="fill stroke markers" d=" M 488.08732440000006 200.88160719044046 A 15.287324400000045 15.287324400000045 0 1 1 488.0873167563385 200.86631986858833" fill-opacity="0.5" stroke-linejoin="bevel" stroke-miterlimit="10" stroke-opacity="0.5"/><path fill="red" stroke="red" paint-order="fill stroke markers" d=" M 534.5411484000001 170.92840993983867 A 13.14114840000002 13.14114840000002 0 1 1 534.5411418294265 170.91526879362885" fill-opacity="0.5" stroke-linejoin="bevel" stroke-miterlimit="10" stroke-opacity="0.5"/><path fill="red" stroke="red" paint-order="fill stroke markers" d=" M 582.0127536 151.324833501046 A 12.012753599999996 12.012753599999996 0 1 1 582.0127475936237 151.3128207494481" fill-opacity="0.5" stroke-linejoin="bevel" stroke-miterlimit="10" stroke-opacity="0.5"/></g></g></g><g clip-path="url(#VhbndehTSMeV)"><g><g><path fill="none" stroke="none"/><path fill="none" stroke="red" paint-order="fill stroke markers" d=" M 84 413.60234077299947 L 132.6 382.9225535806348 L 181.2 355.833614911853 L 229.79999999999998 327.39060165299543 L 278.4 300.81022118004154 L 327 270.89564571253385 L 375.59999999999997 254.23609541656467 L 424.2 226.2699173140772 L 472.8 200.88160719044046 L 521.4000000000001 170.92840993983867 L 570 151.324833501046" stroke-linejoin="bevel" stroke-miterlimit="10" stroke-width="5" stroke-dasharray="4,4"/></g></g></g><g clip-path="url(#nphHoImAOpzC)"><g><g><path fill="none" stroke="none"/><path fill="black" stroke="black" paint-order="fill stroke markers" d=" M 84 344.45353569125257 A 0 0 0 1 1 84 344.45353569125257" fill-opacity="0.5" stroke-linejoin="bevel" stroke-miterlimit="10" stroke-opacity="0.5"/><path fill="black" stroke="black" paint-order="fill stroke markers" d=" M 132.6 344.3580971198465 A 0 0 0 1 1 132.6 344.3580971198465" fill-opacity="0.5" stroke-linejoin="bevel" stroke-miterlimit="10" stroke-opacity="0.5"/><path fill="black" stroke="black" paint-order="fill stroke markers" d=" M 181.2 344.06693666585954 A 0 0 0 1 1 181.2 344.06693666585954" fill-opacity="0.5" stroke-linejoin="bevel" stroke-miterlimit="10" stroke-opacity="0.5"/><path fill="black" stroke="black" paint-order="fill stroke markers" d=" M 229.79999999999998 344.1640858478743 A 0 0 0 1 1 229.79999999999998 344.1640858478743" fill-opacity="0.5" stroke-linejoin="bevel" stroke-miterlimit="10" stroke-opacity="0.5"/><path fill="black" stroke="black" paint-order="fill stroke markers" d=" M 278.4 323.4636310034305 A 0 0 0 1 1 278.4 323.4636310034305" fill-opacity="0.5" stroke-linejoin="bevel" stroke-miterlimit="10" stroke-opacity="0.5"/><path fill="black" stroke="black" paint-order="fill stroke markers" d=" M 327 284.0492487420844 A 0 0 0 1 1 327 284.0492487420844" fill-opacity="0.5" stroke-linejoin="bevel" stroke-miterlimit="10" stroke-opacity="0.5"/><path fill="black" stroke="black" paint-order="fill stroke markers" d=" M 375.59999999999997 253.48716744779102 A 0 0 0 1 1 375.59999999999997 253.48716744779102" fill-opacity="0.5" stroke-linejoin="bevel" stroke-miterlimit="10" stroke-opacity="0.5"/><path fill="black" stroke="black" paint-order="fill stroke markers" d=" M 424.2 226.3279892423337 A 0 0 0 1 1 424.2 226.3279892423337" fill-opacity="0.5" stroke-linejoin="bevel" stroke-miterlimit="10" stroke-opacity="0.5"/><path fill="black" stroke="black" paint-order="fill stroke markers" d=" M 472.8 194.45653480859932 A 0 0 0 1 1 472.8 194.45653480859932" fill-opacity="0.5" stroke-linejoin="bevel" stroke-miterlimit="10" stroke-opacity="0.5"/><path fill="black" stroke="black" paint-order="fill stroke markers" d=" M 521.4000000000001 185.21535436453883 A 0 0 0 1 1 521.4000000000001 185.21535436453883" fill-opacity="0.5" stroke-linejoin="bevel" stroke-miterlimit="10" stroke-opacity="0.5"/><path fill="black" stroke="black" paint-order="fill stroke markers" d=" M 570 185.4827128488646 A 0 0 0 1 1 570 185.4827128488646" fill-opacity="0.5" stroke-linejoin="bevel" stroke-miterlimit="10" stroke-opacity="0.5"/></g></g></g><g clip-path="url(#xTwUpgPDvWKn)"><g><g><path fill="none" stroke="none"/><path fill="none" stroke="black" paint-order="fill stroke markers" d=" M 84 344.45353569125257 L 132.6 344.3580971198465 L 181.2 344.06693666585954 L 229.79999999999998 344.1640858478743 L 278.4 323.4636310034305 L 327 284.0492487420844 L 375.59999999999997 253.48716744779102 L 424.2 226.3279892423337 L 472.8 194.45653480859932 L 521.4000000000001 185.21535436453883 L 570 185.4827128488646" stroke-linejoin="bevel" stroke-miterlimit="10" stroke-width="5" stroke-dasharray="4,4"/></g></g></g><g clip-path="url(#URuaERAQkEeG)"><g><g><path fill="none" stroke="none"/><path fill="green" stroke="green" paint-order="fill stroke markers" d=" M 84 409.579097153287 A 0 0 0 1 1 84 409.579097153287" fill-opacity="0.5" stroke-linejoin="bevel" stroke-miterlimit="10" stroke-opacity="0.5"/><path fill="green" stroke="green" paint-order="fill stroke markers" d=" M 132.6 408.98618322780294 A 0 0 0 1 1 132.6 408.98618322780294" fill-opacity="0.5" stroke-linejoin="bevel" stroke-miterlimit="10" stroke-opacity="0.5"/><path fill="green" stroke="green" paint-order="fill stroke markers" d=" M 181.2 388.39923495156006 A 0 0 0 1 1 181.2 388.39923495156006" fill-opacity="0.5" stroke-linejoin="bevel" stroke-miterlimit="10" stroke-opacity="0.5"/><path fill="green" stroke="green" paint-order="fill stroke markers" d=" M 229.79999999999998 351.6233424038019 A 0 0 0 1 1 229.79999999999998 351.6233424038019" fill-opacity="0.5" stroke-linejoin="bevel" stroke-miterlimit="10" stroke-opacity="0.5"/><path fill="green" stroke="green" paint-order="fill stroke markers" d=" M 278.4 321.1758988355013 A 0 0 0 1 1 278.4 321.1758988355013" fill-opacity="0.5" stroke-linejoin="bevel" stroke-miterlimit="10" stroke-opacity="0.5"/><path fill="green" stroke="green" paint-order="fill stroke markers" d=" M 327 288.6585465879265 A 0 0 0 1 1 327 288.6585465879265" fill-opacity="0.5" stroke-linejoin="bevel" stroke-miterlimit="10" stroke-opacity="0.5"/><path fill="green" stroke="green" paint-order="fill stroke markers" d=" M 375.59999999999997 249.38687200693067 A 0 0 0 1 1 375.59999999999997 249.38687200693067" fill-opacity="0.5" stroke-linejoin="bevel" stroke-miterlimit="10" stroke-opacity="0.5"/><path fill="green" stroke="green" paint-order="fill stroke markers" d=" M 424.2 224.47162413050714 A 0 0 0 1 1 424.2 224.47162413050714" fill-opacity="0.5" stroke-linejoin="bevel" stroke-miterlimit="10" stroke-opacity="0.5"/><path fill="green" stroke="green" paint-order="fill stroke markers" d=" M 472.8 190.42236258405734 A 0 0 0 1 1 472.8 190.42236258405734" fill-opacity="0.5" stroke-linejoin="bevel" stroke-miterlimit="10" stroke-opacity="0.5"/><path fill="green" stroke="green" paint-order="fill stroke markers" d=" M 521.4000000000001 177.17203357073538 A 0 0 0 1 1 521.4000000000001 177.17203357073538" fill-opacity="0.5" stroke-linejoin="bevel" stroke-miterlimit="10" stroke-opacity="0.5"/><path fill="green" stroke="green" paint-order="fill stroke markers" d=" M 570 177.79566526252142 A 0 0 0 1 1 570 177.79566526252142" fill-opacity="0.5" stroke-linejoin="bevel" stroke-miterlimit="10" stroke-opacity="0.5"/></g></g></g><g clip-path="url(#NZaMkXqlITWy)"><g><g><path fill="none" stroke="none"/><path fill="none" stroke="green" paint-order="fill stroke markers" d=" M 84 409.579097153287 L 132.6 408.98618322780294 L 181.2 388.39923495156006 L 229.79999999999998 351.6233424038019 L 278.4 321.1758988355013 L 327 288.6585465879265 L 375.59999999999997 249.38687200693067 L 424.2 224.47162413050714 L 472.8 190.42236258405734 L 521.4000000000001 177.17203357073538 L 570 177.79566526252142" stroke-linejoin="bevel" stroke-miterlimit="10" stroke-width="5" stroke-dasharray="4,4"/></g></g></g><g clip-path="url(#yXUOznufMEOA)"><g><g><path fill="none" stroke="none"/><path fill="yellow" stroke="yellow" paint-order="fill stroke markers" d=" M 84 261.41056404839696 A 0 0 0 1 1 84 261.41056404839696" fill-opacity="0.5" stroke-linejoin="bevel" stroke-miterlimit="10" stroke-opacity="0.5"/><path fill="yellow" stroke="yellow" paint-order="fill stroke markers" d=" M 132.6 261.41056404839696 A 0 0 0 1 1 132.6 261.41056404839696" fill-opacity="0.5" stroke-linejoin="bevel" stroke-miterlimit="10" stroke-opacity="0.5"/><path fill="yellow" stroke="yellow" paint-order="fill stroke markers" d=" M 181.2 261.41056404839696 A 0 0 0 1 1 181.2 261.41056404839696" fill-opacity="0.5" stroke-linejoin="bevel" stroke-miterlimit="10" stroke-opacity="0.5"/><path fill="yellow" stroke="yellow" paint-order="fill stroke markers" d=" M 229.79999999999998 261.41056404839696 A 0 0 0 1 1 229.79999999999998 261.41056404839696" fill-opacity="0.5" stroke-linejoin="bevel" stroke-miterlimit="10" stroke-opacity="0.5"/><path fill="yellow" stroke="yellow" paint-order="fill stroke markers" d=" M 278.4 261.41056404839696 A 0 0 0 1 1 278.4 261.41056404839696" fill-opacity="0.5" stroke-linejoin="bevel" stroke-miterlimit="10" stroke-opacity="0.5"/><path fill="yellow" stroke="yellow" paint-order="fill stroke markers" d=" M 327 261.41056404839696 A 0 0 0 1 1 327 261.41056404839696" fill-opacity="0.5" stroke-linejoin="bevel" stroke-miterlimit="10" stroke-opacity="0.5"/><path fill="yellow" stroke="yellow" paint-order="fill stroke markers" d=" M 375.59999999999997 261.41056404839696 A 0 0 0 1 1 375.59999999999997 261.41056404839696" fill-opacity="0.5" stroke-linejoin="bevel" stroke-miterlimit="10" stroke-opacity="0.5"/><path fill="yellow" stroke="yellow" paint-order="fill stroke markers" d=" M 424.2 261.41056404839696 A 0 0 0 1 1 424.2 261.41056404839696" fill-opacity="0.5" stroke-linejoin="bevel" stroke-miterlimit="10" stroke-opacity="0.5"/><path fill="yellow" stroke="yellow" paint-order="fill stroke markers" d=" M 472.8 261.41056404839696 A 0 0 0 1 1 472.8 261.41056404839696" fill-opacity="0.5" stroke-linejoin="bevel" stroke-miterlimit="10" stroke-opacity="0.5"/><path fill="yellow" stroke="yellow" paint-order="fill stroke markers" d=" M 521.4000000000001 261.41056404839696 A 0 0 0 1 1 521.4000000000001 261.41056404839696" fill-opacity="0.5" stroke-linejoin="bevel" stroke-miterlimit="10" stroke-opacity="0.5"/><path fill="yellow" stroke="yellow" paint-order="fill stroke markers" d=" M 570 261.41056404839696 A 0 0 0 1 1 570 261.41056404839696" fill-opacity="0.5" stroke-linejoin="bevel" stroke-miterlimit="10" stroke-opacity="0.5"/></g></g></g><g clip-path="url(#MTXwdFPhDpyy)"><g><g><path fill="none" stroke="none"/><path fill="none" stroke="yellow" paint-order="fill stroke markers" d=" M 84 261.41056404839696 L 132.6 261.41056404839696 L 181.2 261.41056404839696 L 229.79999999999998 261.41056404839696 L 278.4 261.41056404839696 L 327 261.41056404839696 L 375.59999999999997 261.41056404839696 L 424.2 261.41056404839696 L 472.8 261.41056404839696 L 521.4000000000001 261.41056404839696 L 570 261.41056404839696" stroke-linejoin="bevel" stroke-miterlimit="10" stroke-width="5" stroke-dasharray="4,4"/></g></g></g><g clip-path="url(#TsxOCRdTcyro)"><g><g><path fill="none" stroke="none"/><path fill="purple" stroke="purple" paint-order="fill stroke markers" d=" M 84 235.7073914589382 A 0 0 0 1 1 84 235.7073914589382" fill-opacity="0.5" stroke-linejoin="bevel" stroke-miterlimit="10" stroke-opacity="0.5"/><path fill="purple" stroke="purple" paint-order="fill stroke markers" d=" M 132.6 235.7073914589382 A 0 0 0 1 1 132.6 235.7073914589382" fill-opacity="0.5" stroke-linejoin="bevel" stroke-miterlimit="10" stroke-opacity="0.5"/><path fill="purple" stroke="purple" paint-order="fill stroke markers" d=" M 181.2 235.7073914589382 A 0 0 0 1 1 181.2 235.7073914589382" fill-opacity="0.5" stroke-linejoin="bevel" stroke-miterlimit="10" stroke-opacity="0.5"/><path fill="purple" stroke="purple" paint-order="fill stroke markers" d=" M 229.79999999999998 235.7073914589382 A 0 0 0 1 1 229.79999999999998 235.7073914589382" fill-opacity="0.5" stroke-linejoin="bevel" stroke-miterlimit="10" stroke-opacity="0.5"/><path fill="purple" stroke="purple" paint-order="fill stroke markers" d=" M 278.4 235.7073914589382 A 0 0 0 1 1 278.4 235.7073914589382" fill-opacity="0.5" stroke-linejoin="bevel" stroke-miterlimit="10" stroke-opacity="0.5"/><path fill="purple" stroke="purple" paint-order="fill stroke markers" d=" M 327 235.7073914589382 A 0 0 0 1 1 327 235.7073914589382" fill-opacity="0.5" stroke-linejoin="bevel" stroke-miterlimit="10" stroke-opacity="0.5"/><path fill="purple" stroke="purple" paint-order="fill stroke markers" d=" M 375.59999999999997 235.7073914589382 A 0 0 0 1 1 375.59999999999997 235.7073914589382" fill-opacity="0.5" stroke-linejoin="bevel" stroke-miterlimit="10" stroke-opacity="0.5"/><path fill="purple" stroke="purple" paint-order="fill stroke markers" d=" M 424.2 235.7073914589382 A 0 0 0 1 1 424.2 235.7073914589382" fill-opacity="0.5" stroke-linejoin="bevel" stroke-miterlimit="10" stroke-opacity="0.5"/><path fill="purple" stroke="purple" paint-order="fill stroke markers" d=" M 472.8 235.7073914589382 A 0 0 0 1 1 472.8 235.7073914589382" fill-opacity="0.5" stroke-linejoin="bevel" stroke-miterlimit="10" stroke-opacity="0.5"/><path fill="purple" stroke="purple" paint-order="fill stroke markers" d=" M 521.4000000000001 235.7073914589382 A 0 0 0 1 1 521.4000000000001 235.7073914589382" fill-opacity="0.5" stroke-linejoin="bevel" stroke-miterlimit="10" stroke-opacity="0.5"/><path fill="purple" stroke="purple" paint-order="fill stroke markers" d=" M 570 235.7073914589382 A 0 0 0 1 1 570 235.7073914589382" fill-opacity="0.5" stroke-linejoin="bevel" stroke-miterlimit="10" stroke-opacity="0.5"/></g></g></g><g clip-path="url(#MwNfAeVTXIlw)"><g><g><path fill="none" stroke="none"/><path fill="none" stroke="purple" paint-order="fill stroke markers" d=" M 84 235.7073914589382 L 132.6 235.7073914589382 L 181.2 235.7073914589382 L 229.79999999999998 235.7073914589382 L 278.4 235.7073914589382 L 327 235.7073914589382 L 375.59999999999997 235.7073914589382 L 424.2 235.7073914589382 L 472.8 235.7073914589382 L 521.4000000000001 235.7073914589382 L 570 235.7073914589382" stroke-linejoin="bevel" stroke-miterlimit="10" stroke-width="5" stroke-dasharray="4,4"/></g></g></g><g clip-path="url(#knoSONMBECHN)"><g><g><path fill="none" stroke="none"/><path fill="gray" stroke="none" paint-order="stroke fill markers" d=" M 84 351.70454545454544 L 570 30.681818181818187 L 570 223.29545454545456 L 84 544.3181818181818 Z" fill-opacity="0.25"/></g></g></g><g clip-path="url(#gXdudvmyUEzu)"><g><g/><g><path fill="#ffffff" stroke="#e5e5e5" paint-order="fill stroke markers" d=" M 200 502 L 560 502 L 560 560 L 200 560 L 200 502 Z" fill-opacity="0.95" stroke-linejoin="bevel" stroke-miterlimit="10" stroke-opacity="0.5"/><text fill="#444444" stroke="none" font-family="helvetica" font-size="26pt" font-style="normal" font-weight="normal" text-decoration="normal" x="235" y="531" text-anchor="start" dominant-baseline="central">Error Margins ±30%</text><rect fill="gray" stroke="none" x="212" y="514" width="16" height="16" fill-opacity="0.25"/></g></g></g><g/><g/><g><g fill="#444444"><path fill="none" stroke="black" paint-order="fill stroke markers" d=" M 84 570 L 570 570" stroke-linejoin="bevel" stroke-miterlimit="10"/><path fill="none" stroke="black" paint-order="fill stroke markers" d=" M 84 576 L 84 568" stroke-linejoin="bevel" stroke-miterlimit="10"/><path fill="none" stroke="black" paint-order="fill stroke markers" d=" M 181 576 L 181 568" stroke-linejoin="bevel" stroke-miterlimit="10"/><path fill="none" stroke="black" paint-order="fill stroke markers" d=" M 278 576 L 278 568" stroke-linejoin="bevel" stroke-miterlimit="10"/><path fill="none" stroke="black" paint-order="fill stroke markers" d=" M 376 576 L 376 568" stroke-linejoin="bevel" stroke-miterlimit="10"/><path fill="none" stroke="black" paint-order="fill stroke markers" d=" M 473 576 L 473 568" stroke-linejoin="bevel" stroke-miterlimit="10"/><path fill="none" stroke="black" paint-order="fill stroke markers" d=" M 570 576 L 570 568" stroke-linejoin="bevel" stroke-miterlimit="10"/><path fill="none" stroke="black" paint-order="fill stroke markers" d=" M 84 574 L 84 570" stroke-linejoin="bevel" stroke-miterlimit="10"/><path fill="none" stroke="black" paint-order="fill stroke markers" d=" M 103 574 L 103 570" stroke-linejoin="bevel" stroke-miterlimit="10"/><path fill="none" stroke="black" paint-order="fill stroke markers" d=" M 123 574 L 123 570" stroke-linejoin="bevel" stroke-miterlimit="10"/><path fill="none" stroke="black" paint-order="fill stroke markers" d=" M 142 574 L 142 570" stroke-linejoin="bevel" stroke-miterlimit="10"/><path fill="none" stroke="black" paint-order="fill stroke markers" d=" M 162 574 L 162 570" stroke-linejoin="bevel" stroke-miterlimit="10"/><path fill="none" stroke="black" paint-order="fill stroke markers" d=" M 181 574 L 181 570" stroke-linejoin="bevel" stroke-miterlimit="10"/><path fill="none" stroke="black" paint-order="fill stroke markers" d=" M 201 574 L 201 570" stroke-linejoin="bevel" stroke-miterlimit="10"/><path fill="none" stroke="black" paint-order="fill stroke markers" d=" M 220 574 L 220 570" stroke-linejoin="bevel" stroke-miterlimit="10"/><path fill="none" stroke="black" paint-order="fill stroke markers" d=" M 240 574 L 240 570" stroke-linejoin="bevel" stroke-miterlimit="10"/><path fill="none" stroke="black" paint-order="fill stroke markers" d=" M 259 574 L 259 570" stroke-linejoin="bevel" stroke-miterlimit="10"/><path fill="none" stroke="black" paint-order="fill stroke markers" d=" M 278 574 L 278 570" stroke-linejoin="bevel" stroke-miterlimit="10"/><path fill="none" stroke="black" paint-order="fill stroke markers" d=" M 298 574 L 298 570" stroke-linejoin="bevel" stroke-miterlimit="10"/><path fill="none" stroke="black" paint-order="fill stroke markers" d=" M 317 574 L 317 570" stroke-linejoin="bevel" stroke-miterlimit="10"/><path fill="none" stroke="black" paint-order="fill stroke markers" d=" M 337 574 L 337 570" stroke-linejoin="bevel" stroke-miterlimit="10"/><path fill="none" stroke="black" paint-order="fill stroke markers" d=" M 356 574 L 356 570" stroke-linejoin="bevel" stroke-miterlimit="10"/><path fill="none" stroke="black" paint-order="fill stroke markers" d=" M 376 574 L 376 570" stroke-linejoin="bevel" stroke-miterlimit="10"/><path fill="none" stroke="black" paint-order="fill stroke markers" d=" M 395 574 L 395 570" stroke-linejoin="bevel" stroke-miterlimit="10"/><path fill="none" stroke="black" paint-order="fill stroke markers" d=" M 414 574 L 414 570" stroke-linejoin="bevel" stroke-miterlimit="10"/><path fill="none" stroke="black" paint-order="fill stroke markers" d=" M 434 574 L 434 570" stroke-linejoin="bevel" stroke-miterlimit="10"/><path fill="none" stroke="black" paint-order="fill stroke markers" d=" M 453 574 L 453 570" stroke-linejoin="bevel" stroke-miterlimit="10"/><path fill="none" stroke="black" paint-order="fill stroke markers" d=" M 473 574 L 473 570" stroke-linejoin="bevel" stroke-miterlimit="10"/><path fill="none" stroke="black" paint-order="fill stroke markers" d=" M 492 574 L 492 570" stroke-linejoin="bevel" stroke-miterlimit="10"/><path fill="none" stroke="black" paint-order="fill stroke markers" d=" M 512 574 L 512 570" stroke-linejoin="bevel" stroke-miterlimit="10"/><path fill="none" stroke="black" paint-order="fill stroke markers" d=" M 531 574 L 531 570" stroke-linejoin="bevel" stroke-miterlimit="10"/><path fill="none" stroke="black" paint-order="fill stroke markers" d=" M 551 574 L 551 570" stroke-linejoin="bevel" stroke-miterlimit="10"/><path fill="" stroke="black" paint-order="fill stroke markers" d=" M 570 574 L 570 570" stroke-linejoin="bevel" stroke-miterlimit="10"/><g transform="translate(84,581) rotate(0,0,0)"><text fill="" stroke="none" font-family="helvetica" font-size="26px" font-style="normal" font-weight="normal" text-decoration="normal" x="0" y="0" text-anchor="middle" dominant-baseline="hanging">0</text><g transform="rotate(0,0,0) translate(-84,-581) translate(181,581) rotate(0,0,0)"><text fill="" stroke="none" font-family="helvetica" font-size="26px" font-style="normal" font-weight="normal" text-decoration="normal" x="0" y="0" text-anchor="middle" dominant-baseline="hanging">0.2</text><g transform="rotate(0,0,0) translate(-181,-581) translate(278,581) rotate(0,0,0)"><text fill="" stroke="none" font-family="helvetica" font-size="26px" font-style="normal" font-weight="normal" text-decoration="normal" x="0" y="0" text-anchor="middle" dominant-baseline="hanging">0.4</text><g transform="rotate(0,0,0) translate(-278,-581) translate(376,581) rotate(0,0,0)"><text fill="" stroke="none" font-family="helvetica" font-size="26px" font-style="normal" font-weight="normal" text-decoration="normal" x="0" y="0" text-anchor="middle" dominant-baseline="hanging">0.6</text><g transform="rotate(0,0,0) translate(-376,-581) translate(473,581) rotate(0,0,0)"><text fill="" stroke="none" font-family="helvetica" font-size="26px" font-style="normal" font-weight="normal" text-decoration="normal" x="0" y="0" text-anchor="middle" dominant-baseline="hanging">0.8</text><g transform="rotate(0,0,0) translate(-473,-581) translate(570,581) rotate(0,0,0)"><text fill="" stroke="none" font-family="helvetica" font-size="26px" font-style="normal" font-weight="normal" text-decoration="normal" x="0" y="0" text-anchor="middle" dominant-baseline="hanging">1</text><g transform="rotate(0,0,0) translate(-570,-581)"/></g></g></g></g></g></g></g></g><g><g fill="#444444"><path fill="none" stroke="black" paint-order="fill stroke markers" d=" M 84 570 L 84 5" stroke-linejoin="bevel" stroke-miterlimit="10"/><path fill="none" stroke="black" paint-order="fill stroke markers" d=" M 78 448 L 86 448" stroke-linejoin="bevel" stroke-miterlimit="10"/><path fill="none" stroke="black" paint-order="fill stroke markers" d=" M 78 288 L 86 288" stroke-linejoin="bevel" stroke-miterlimit="10"/><path fill="none" stroke="black" paint-order="fill stroke markers" d=" M 78 127 L 86 127" stroke-linejoin="bevel" stroke-miterlimit="10"/><path fill="none" stroke="black" paint-order="fill stroke markers" d=" M 80 480 L 84 480" stroke-linejoin="bevel" stroke-miterlimit="10"/><path fill="none" stroke="black" paint-order="fill stroke markers" d=" M 80 512 L 84 512" stroke-linejoin="bevel" stroke-miterlimit="10"/><path fill="none" stroke="black" paint-order="fill stroke markers" d=" M 80 544 L 84 544" stroke-linejoin="bevel" stroke-miterlimit="10"/><path fill="none" stroke="black" paint-order="fill stroke markers" d=" M 80 448 L 84 448" stroke-linejoin="bevel" stroke-miterlimit="10"/><path fill="none" stroke="black" paint-order="fill stroke markers" d=" M 80 416 L 84 416" stroke-linejoin="bevel" stroke-miterlimit="10"/><path fill="none" stroke="black" paint-order="fill stroke markers" d=" M 80 384 L 84 384" stroke-linejoin="bevel" stroke-miterlimit="10"/><path fill="none" stroke="black" paint-order="fill stroke markers" d=" M 80 352 L 84 352" stroke-linejoin="bevel" stroke-miterlimit="10"/><path fill="none" stroke="black" paint-order="fill stroke markers" d=" M 80 320 L 84 320" stroke-linejoin="bevel" stroke-miterlimit="10"/><path fill="none" stroke="black" paint-order="fill stroke markers" d=" M 80 288 L 84 288" stroke-linejoin="bevel" stroke-miterlimit="10"/><path fill="none" stroke="black" paint-order="fill stroke markers" d=" M 80 255 L 84 255" stroke-linejoin="bevel" stroke-miterlimit="10"/><path fill="none" stroke="black" paint-order="fill stroke markers" d=" M 80 223 L 84 223" stroke-linejoin="bevel" stroke-miterlimit="10"/><path fill="none" stroke="black" paint-order="fill stroke markers" d=" M 80 191 L 84 191" stroke-linejoin="bevel" stroke-miterlimit="10"/><path fill="none" stroke="black" paint-order="fill stroke markers" d=" M 80 159 L 84 159" stroke-linejoin="bevel" stroke-miterlimit="10"/><path fill="none" stroke="black" paint-order="fill stroke markers" d=" M 80 127 L 84 127" stroke-linejoin="bevel" stroke-miterlimit="10"/><path fill="none" stroke="black" paint-order="fill stroke markers" d=" M 80 95 L 84 95" stroke-linejoin="bevel" stroke-miterlimit="10"/><path fill="none" stroke="black" paint-order="fill stroke markers" d=" M 80 63 L 84 63" stroke-linejoin="bevel" stroke-miterlimit="10"/><path fill="" stroke="black" paint-order="fill stroke markers" d=" M 80 31 L 84 31" stroke-linejoin="bevel" stroke-miterlimit="10"/><g transform="translate(73,448) rotate(0,0,0)"><text fill="" stroke="none" font-family="helvetica" font-size="26px" font-style="normal" font-weight="normal" text-decoration="normal" x="0" y="0" text-anchor="end" dominant-baseline="central">0</text><g transform="rotate(0,0,0) translate(-73,-448) translate(73,288) rotate(0,0,0)"><text fill="" stroke="none" font-family="helvetica" font-size="26px" font-style="normal" font-weight="normal" text-decoration="normal" x="0" y="0" text-anchor="end" dominant-baseline="central">0.5</text><g transform="rotate(0,0,0) translate(-73,-288) translate(73,127) rotate(0,0,0)"><text fill="" stroke="none" font-family="helvetica" font-size="26px" font-style="normal" font-weight="normal" text-decoration="normal" x="0" y="0" text-anchor="end" dominant-baseline="central">1</text><g transform="rotate(0,0,0) translate(-73,-127) translate(25,288) rotate(-90,0,0)"><text fill="" stroke="none" font-family="helvetica" font-size="26pt" font-style="italic" font-weight="normal" text-decoration="normal" x="0" y="0" text-anchor="middle" dominant-baseline="alphabetic">Spread Ratio (Female)</text><g transform="rotate(90,0,0) translate(-25,-288)"/></g></g></g></g></g></g><g clip-path="url(#oaykfvURwqHd)"><g/></g></g></g></svg>