<svg version="1.1" xmlns="http://www.w3.org/2000/svg" xmlns:xlink="http://www.w3.org/1999/xlink" width="600" height="600" style="width: 600px; height: 600px;"><defs><clipPath id="BwJDvCXwJERi"><path fill="none" stroke="none" d=" M 84 5 L 570 5 L 570 570 L 84 570 L 84 5 Z"/></clipPath><clipPath id="lMpkfCnRgDUX"><path fill="none" stroke="none" d=" M 84 5 L 570 5 L 570 570 L 84 570 L 84 5 Z"/></clipPath><clipPath id="JfUpxLtlnQaQ"><path fill="none" stroke="none" d=" M 84 5 L 570 5 L 570 570 L 84 570 L 84 5 Z"/></clipPath><clipPath id="oXSqFiFBaZXQ"><path fill="none" stroke="none" d=" M 84 5 L 570 5 L 570 570 L 84 570 L 84 5 Z"/></clipPath><clipPath id="ZccuMqMymSbc"><path fill="none" stroke="none" d=" M 84 5 L 570 5 L 570 570 L 84 570 L 84 5 Z"/></clipPath><clipPath id="hKQuqIqxrElu"><path fill="none" stroke="none" d=" M 84 5 L 570 5 L 570 570 L 84 570 L 84 5 Z"/></clipPath><clipPath id="EQzkNQHlDHGe"><path fill="none" stroke="none" d=" M 84 5 L 570 5 L 570 570 L 84 570 L 84 5 Z"/></clipPath><clipPath id="rTzoHilPrgJX"><path fill="none" stroke="none" d=" M 84 5 L 570 5 L 570 570 L 84 570 L 84 5 Z"/></clipPath><clipPath id="uVLUxbnwOUhn"><path fill="none" stroke="none" d=" M 84 5 L 570 5 L 570 570 L 84 570 L 84 5 Z"/></clipPath><clipPath id="cBcrICfpWKTN"><path fill="none" stroke="none" d=" M 84 5 L 570 5 L 570 570 L 84 570 L 84 5 Z"/></clipPath><clipPath id="dqWWVMNxykNy"><path fill="none" stroke="none" d=" M 84 5 L 570 5 L 570 570 L 84 570 L 84 5 Z"/></clipPath><clipPath id="gsoMfATvmNcr"><path fill="none" stroke="none" d=" M 84 5 L 570 5 L 570 570 L 84 570 L 84 5 Z"/></clipPath><clipPath id="vOOPibnRoEDp"><path fill="none" stroke="none" d=" M 84 5 L 570 5 L 570 570 L 84 570 L 84 5 Z"/></clipPath><clipPath id="cpBWdnWotAPL"><path fill="none" stroke="none" d=" M 84 5 L 570 5 L 570 570 L 84 570 L 84 5 Z"/></clipPath><clipPath id="sFmIDVrGMPFG"><path fill="none" stroke="none" d=" M 84 5 L 570 5 L 570 570 L 84 570 L 84 5 Z"/></clipPath></defs><g><g transform="scale(1,1) translate(0.5,0.5)"><rect fill="#FFFFFF" stroke="none" x="0" y="0" width="600" height="600"/><rect fill="#ffffff" stroke="none" x="0" y="0" width="600" height="600"/><rect fill="#FFFFFF" stroke="none" x="84" y="5" width="486" height="565"/><rect fill="#ffffff" stroke="none" x="84" y="5" width="486" height="565"/><g><rect fill="none" stroke="#e5e5e5" x="84" y="5" width="486" height="565" stroke-linejoin="bevel" stroke-miterlimit="10"/></g><g clip-path="url(#BwJDvCXwJERi)"><g><g><path fill="none" stroke="#e5e5e5" paint-order="fill stroke markers" d=" M 181 570 L 181 5" stroke-linejoin="bevel" stroke-miterlimit="10"/><path fill="none" stroke="#e5e5e5" paint-order="fill stroke markers" d=" M 278 570 L 278 5" stroke-linejoin="bevel" stroke-miterlimit="10"/><path fill="none" stroke="#e5e5e5" paint-order="fill stroke markers" d=" M 376 570 L 376 5" stroke-linejoin="bevel" stroke-miterlimit="10"/><path fill="none" stroke="#e5e5e5" paint-order="fill stroke markers" d=" M 473 570 L 473 5" stroke-linejoin="bevel" stroke-miterlimit="10"/></g></g></g><g clip-path="url(#lMpkfCnRgDUX)"><g><g><path fill="none" stroke="#e5e5e5" paint-order="fill stroke markers" d=" M 84 448 L 570 448" stroke-linejoin="bevel" stroke-miterlimit="10"/><path fill="none" stroke="#e5e5e5" paint-order="fill stroke markers" d=" M 84 288 L 570 288" stroke-linejoin="bevel" stroke-miterlimit="10"/><path fill="none" stroke="#e5e5e5" paint-order="fill stroke markers" d=" M 84 127 L 570 127" stroke-linejoin="bevel" stroke-miterlimit="10"/></g></g></g><g clip-path="url(#JfUpxLtlnQaQ)"><g><g><path fill="none" stroke="none"/><path fill="red" stroke="red" paint-order="fill stroke markers" d=" M 94.2868704 406.29102771802997 A 10.286870399999998 10.286870399999998 0 1 1 94.28686525656522 406.28074084934445" fill-opacity="0.5" stroke-linejoin="bevel" stroke-miterlimit="10" stroke-opacity="0.5"/><path fill="red" stroke="red" paint-order="fill stroke markers" d=" M 132.6 374.7362185686654 A 0 0 0 1 1 132.6 374.7362185686654" fill-opacity="0.5" stroke-linejoin="bevel" stroke-miterlimit="10" stroke-opacity="0.5"/><path fill="red" stroke="red" paint-order="fill stroke markers" d=" M 181.2 345.83328805486207 A 0 0 0 1 1 181.2 345.83328805486207" fill-opacity="0.5" stroke-linejoin="bevel" stroke-miterlimit="10" stroke-opacity="0.5"/><path fill="red" stroke="red" paint-order="fill stroke markers" d=" M 229.79999999999998 318.21656612678316 A 0 0 0 1 1 229.79999999999998 318.21656612678316" fill-opacity="0.5" stroke-linejoin="bevel" stroke-miterlimit="10" stroke-opacity="0.5"/><path fill="red" stroke="red" paint-order="fill stroke markers" d=" M 294.41885160000004 300.73902456817586 A 16.018851600000062 16.018851600000062 0 1 1 294.4188435905749 300.7230057192457" fill-opacity="0.5" stroke-linejoin="bevel" stroke-miterlimit="10" stroke-opacity="0.5"/><path fill="red" stroke="red" paint-order="fill stroke markers" d=" M 344.5999068 265.8161752375664 A 17.599906799999985 17.599906799999985 0 1 1 344.59989800004735 265.7985753336997" fill-opacity="0.5" stroke-linejoin="bevel" stroke-miterlimit="10" stroke-opacity="0.5"/><path fill="red" stroke="red" paint-order="fill stroke markers" d=" M 391.7092476 251.51368020468848 A 16.10924760000006 16.10924760000006 0 1 1 391.7092395453769 251.49757095977336" fill-opacity="0.5" stroke-linejoin="bevel" stroke-miterlimit="10" stroke-opacity="0.5"/><path fill="red" stroke="red" paint-order="fill stroke markers" d=" M 440.93667359999995 219.7822293075011 A 16.73667359999996 16.73667359999996 0 1 1 440.9366652316638 219.76549263669054" fill-opacity="0.5" stroke-linejoin="bevel" stroke-miterlimit="10" stroke-opacity="0.5"/><path fill="red" stroke="red" paint-order="fill stroke markers" d=" M 489.04941 199.53295573500824 A 16.24941000000001 16.24941000000001 0 1 1 489.0494018752957 199.51670632771646" fill-opacity="0.5" stroke-linejoin="bevel" stroke-miterlimit="10" stroke-opacity="0.5"/><path fill="red" stroke="red" paint-order="fill stroke markers" d=" M 521.4000000000001 169.9612136435851 A 0 0 0 1 1 521.4000000000001 169.9612136435851" fill-opacity="0.5" stroke-linejoin="bevel" stroke-miterlimit="10" stroke-opacity="0.5"/><path fill="red" stroke="red" paint-order="fill stroke markers" d=" M 570 159.24937728953148 A 0 0 0 1 1 570 159.24937728953148" fill-opacity="0.5" stroke-linejoin="bevel" stroke-miterlimit="10" stroke-opacity="0.5"/></g></g></g><g clip-path="url(#oXSqFiFBaZXQ)"><g><g><path fill="none" stroke="none"/><path fill="none" stroke="red" paint-order="fill stroke markers" d=" M 84 406.29102771802997 L 132.6 374.7362185686654 L 181.2 345.83328805486207 L 229.79999999999998 318.21656612678316 L 278.4 300.73902456817586 L 327 265.8161752375664 L 375.59999999999997 251.51368020468848 L 424.2 219.7822293075011 L 472.8 199.53295573500824 L 521.4000000000001 169.9612136435851 L 570 159.24937728953148" stroke-linejoin="bevel" stroke-miterlimit="10" stroke-width="5" stroke-dasharray="4,4"/></g></g></g><g clip-path="url(#ZccuMqMymSbc)"><g><g><path fill="none" stroke="none"/><path fill="black" stroke="black" paint-order="fill stroke markers" d=" M 84 332.089497887618 A 0 0 0 1 1 84 332.089497887618" fill-opacity="0.5" stroke-linejoin="bevel" stroke-miterlimit="10" stroke-opacity="0.5"/><path fill="black" stroke="black" paint-order="fill stroke markers" d=" M 147.6540444 332.02390408635125 A 15.05404440000001 15.05404440000001 0 1 1 147.65403687297842 332.00885004446025" fill-opacity="0.5" stroke-linejoin="bevel" stroke-miterlimit="10" stroke-opacity="0.5"/><path fill="black" stroke="black" paint-order="fill stroke markers" d=" M 196.16773080000002 332.8539534848711 A 14.967730800000027 14.967730800000027 0 1 1 196.16772331613524 332.8389857565657" fill-opacity="0.5" stroke-linejoin="bevel" stroke-miterlimit="10" stroke-opacity="0.5"/><path fill="black" stroke="black" paint-order="fill stroke markers" d=" M 244.8636672 332.4832848018696 A 15.063667200000026 15.063667200000026 0 1 1 244.86365966816703 332.4682211371802" fill-opacity="0.5" stroke-linejoin="bevel" stroke-miterlimit="10" stroke-opacity="0.5"/><path fill="black" stroke="black" paint-order="fill stroke markers" d=" M 278.4 319.103168230195 A 0 0 0 1 1 278.4 319.103168230195" fill-opacity="0.5" stroke-linejoin="bevel" stroke-miterlimit="10" stroke-opacity="0.5"/><path fill="black" stroke="black" paint-order="fill stroke markers" d=" M 327 296.2624179458537 A 0 0 0 1 1 327 296.2624179458537" fill-opacity="0.5" stroke-linejoin="bevel" stroke-miterlimit="10" stroke-opacity="0.5"/><path fill="black" stroke="black" paint-order="fill stroke markers" d=" M 375.59999999999997 255.49729664741986 A 0 0 0 1 1 375.59999999999997 255.49729664741986" fill-opacity="0.5" stroke-linejoin="bevel" stroke-miterlimit="10" stroke-opacity="0.5"/><path fill="black" stroke="black" paint-order="fill stroke markers" d=" M 424.2 220.4046464632488 A 0 0 0 1 1 424.2 220.4046464632488" fill-opacity="0.5" stroke-linejoin="bevel" stroke-miterlimit="10" stroke-opacity="0.5"/><path fill="black" stroke="black" paint-order="fill stroke markers" d=" M 472.8 204.94647220375495 A 0 0 0 1 1 472.8 204.94647220375495" fill-opacity="0.5" stroke-linejoin="bevel" stroke-miterlimit="10" stroke-opacity="0.5"/><path fill="black" stroke="black" paint-order="fill stroke markers" d=" M 535.8297288 204.78021888016735 A 14.429728799999907 14.429728799999907 0 1 1 535.8297215851362 204.7657891537723" fill-opacity="0.5" stroke-linejoin="bevel" stroke-miterlimit="10" stroke-opacity="0.5"/><path fill="black" stroke="black" paint-order="fill stroke markers" d=" M 584.4232164 204.4345823758146 A 14.423216400000001 14.423216400000001 0 1 1 584.4232091883924 204.42015916181848" fill-opacity="0.5" stroke-linejoin="bevel" stroke-miterlimit="10" stroke-opacity="0.5"/></g></g></g><g clip-path="url(#hKQuqIqxrElu)"><g><g><path fill="none" stroke="none"/><path fill="none" stroke="black" paint-order="fill stroke markers" d=" M 84 332.089497887618 L 132.6 332.02390408635125 L 181.2 332.8539534848711 L 229.79999999999998 332.4832848018696 L 278.4 319.103168230195 L 327 296.2624179458537 L 375.59999999999997 255.49729664741986 L 424.2 220.4046464632488 L 472.8 204.94647220375495 L 521.4000000000001 204.78021888016735 L 570 204.4345823758146" stroke-linejoin="bevel" stroke-miterlimit="10" stroke-width="5" stroke-dasharray="4,4"/></g></g></g><g clip-path="url(#EQzkNQHlDHGe)"><g><g><path fill="none" stroke="none"/><path fill="green" stroke="green" paint-order="fill stroke markers" d=" M 84 333.3697989402881 A 0 0 0 1 1 84 333.3697989402881" fill-opacity="0.5" stroke-linejoin="bevel" stroke-miterlimit="10" stroke-opacity="0.5"/><path fill="green" stroke="green" paint-order="fill stroke markers" d=" M 132.6 332.8720245778464 A 0 0 0 1 1 132.6 332.8720245778464" fill-opacity="0.5" stroke-linejoin="bevel" stroke-miterlimit="10" stroke-opacity="0.5"/><path fill="green" stroke="green" paint-order="fill stroke markers" d=" M 181.2 334.78305088784793 A 0 0 0 1 1 181.2 334.78305088784793" fill-opacity="0.5" stroke-linejoin="bevel" stroke-miterlimit="10" stroke-opacity="0.5"/><path fill="green" stroke="green" paint-order="fill stroke markers" d=" M 229.79999999999998 333.40006330768796 A 0 0 0 1 1 229.79999999999998 333.40006330768796" fill-opacity="0.5" stroke-linejoin="bevel" stroke-miterlimit="10" stroke-opacity="0.5"/><path fill="green" stroke="green" paint-order="fill stroke markers" d=" M 278.4 320.83815678695805 A 0 0 0 1 1 278.4 320.83815678695805" fill-opacity="0.5" stroke-linejoin="bevel" stroke-miterlimit="10" stroke-opacity="0.5"/><path fill="green" stroke="green" paint-order="fill stroke markers" d=" M 327 291.74413122008167 A 0 0 0 1 1 327 291.74413122008167" fill-opacity="0.5" stroke-linejoin="bevel" stroke-miterlimit="10" stroke-opacity="0.5"/><path fill="green" stroke="green" paint-order="fill stroke markers" d=" M 375.59999999999997 248.62197423858996 A 0 0 0 1 1 375.59999999999997 248.62197423858996" fill-opacity="0.5" stroke-linejoin="bevel" stroke-miterlimit="10" stroke-opacity="0.5"/><path fill="green" stroke="green" paint-order="fill stroke markers" d=" M 424.2 221.80751940171467 A 0 0 0 1 1 424.2 221.80751940171467" fill-opacity="0.5" stroke-linejoin="bevel" stroke-miterlimit="10" stroke-opacity="0.5"/><path fill="green" stroke="green" paint-order="fill stroke markers" d=" M 472.8 201.56649527610554 A 0 0 0 1 1 472.8 201.56649527610554" fill-opacity="0.5" stroke-linejoin="bevel" stroke-miterlimit="10" stroke-opacity="0.5"/><path fill="green" stroke="green" paint-order="fill stroke markers" d=" M 521.4000000000001 201.30115042486543 A 0 0 0 1 1 521.4000000000001 201.30115042486543" fill-opacity="0.5" stroke-linejoin="bevel" stroke-miterlimit="10" stroke-opacity="0.5"/><path fill="green" stroke="green" paint-order="fill stroke markers" d=" M 570 201.6474743740932 A 0 0 0 1 1 570 201.6474743740932" fill-opacity="0.5" stroke-linejoin="bevel" stroke-miterlimit="10" stroke-opacity="0.5"/></g></g></g><g clip-path="url(#rTzoHilPrgJX)"><g><g><path fill="none" stroke="none"/><path fill="none" stroke="green" paint-order="fill stroke markers" d=" M 84 333.3697989402881 L 132.6 332.8720245778464 L 181.2 334.78305088784793 L 229.79999999999998 333.40006330768796 L 278.4 320.83815678695805 L 327 291.74413122008167 L 375.59999999999997 248.62197423858996 L 424.2 221.80751940171467 L 472.8 201.56649527610554 L 521.4000000000001 201.30115042486543 L 570 201.6474743740932" stroke-linejoin="bevel" stroke-miterlimit="10" stroke-width="5" stroke-dasharray="4,4"/></g></g></g><g clip-path="url(#uVLUxbnwOUhn)"><g><g><path fill="none" stroke="none"/><path fill="yellow" stroke="yellow" paint-order="fill stroke markers" d=" M 84 265.31195400643105 A 0 0 0 1 1 84 265.31195400643105" fill-opacity="0.5" stroke-linejoin="bevel" stroke-miterlimit="10" stroke-opacity="0.5"/><path fill="yellow" stroke="yellow" paint-order="fill stroke markers" d=" M 132.6 265.31195400643105 A 0 0 0 1 1 132.6 265.31195400643105" fill-opacity="0.5" stroke-linejoin="bevel" stroke-miterlimit="10" stroke-opacity="0.5"/><path fill="yellow" stroke="yellow" paint-order="fill stroke markers" d=" M 181.2 265.31195400643105 A 0 0 0 1 1 181.2 265.31195400643105" fill-opacity="0.5" stroke-linejoin="bevel" stroke-miterlimit="10" stroke-opacity="0.5"/><path fill="yellow" stroke="yellow" paint-order="fill stroke markers" d=" M 229.79999999999998 265.31195400643105 A 0 0 0 1 1 229.79999999999998 265.31195400643105" fill-opacity="0.5" stroke-linejoin="bevel" stroke-miterlimit="10" stroke-opacity="0.5"/><path fill="yellow" stroke="yellow" paint-order="fill stroke markers" d=" M 278.4 265.31195400643105 A 0 0 0 1 1 278.4 265.31195400643105" fill-opacity="0.5" stroke-linejoin="bevel" stroke-miterlimit="10" stroke-opacity="0.5"/><path fill="yellow" stroke="yellow" paint-order="fill stroke markers" d=" M 327 265.31195400643105 A 0 0 0 1 1 327 265.31195400643105" fill-opacity="0.5" stroke-linejoin="bevel" stroke-miterlimit="10" stroke-opacity="0.5"/><path fill="yellow" stroke="yellow" paint-order="fill stroke markers" d=" M 375.59999999999997 265.31195400643105 A 0 0 0 1 1 375.59999999999997 265.31195400643105" fill-opacity="0.5" stroke-linejoin="bevel" stroke-miterlimit="10" stroke-opacity="0.5"/><path fill="yellow" stroke="yellow" paint-order="fill stroke markers" d=" M 424.2 265.31195400643105 A 0 0 0 1 1 424.2 265.31195400643105" fill-opacity="0.5" stroke-linejoin="bevel" stroke-miterlimit="10" stroke-opacity="0.5"/><path fill="yellow" stroke="yellow" paint-order="fill stroke markers" d=" M 472.8 265.31195400643105 A 0 0 0 1 1 472.8 265.31195400643105" fill-opacity="0.5" stroke-linejoin="bevel" stroke-miterlimit="10" stroke-opacity="0.5"/><path fill="yellow" stroke="yellow" paint-order="fill stroke markers" d=" M 521.4000000000001 265.31195400643105 A 0 0 0 1 1 521.4000000000001 265.31195400643105" fill-opacity="0.5" stroke-linejoin="bevel" stroke-miterlimit="10" stroke-opacity="0.5"/><path fill="yellow" stroke="yellow" paint-order="fill stroke markers" d=" M 570 265.31195400643105 A 0 0 0 1 1 570 265.31195400643105" fill-opacity="0.5" stroke-linejoin="bevel" stroke-miterlimit="10" stroke-opacity="0.5"/></g></g></g><g clip-path="url(#cBcrICfpWKTN)"><g><g><path fill="none" stroke="none"/><path fill="none" stroke="yellow" paint-order="fill stroke markers" d=" M 84 265.31195400643105 L 132.6 265.31195400643105 L 181.2 265.31195400643105 L 229.79999999999998 265.31195400643105 L 278.4 265.31195400643105 L 327 265.31195400643105 L 375.59999999999997 265.31195400643105 L 424.2 265.31195400643105 L 472.8 265.31195400643105 L 521.4000000000001 265.31195400643105 L 570 265.31195400643105" stroke-linejoin="bevel" stroke-miterlimit="10" stroke-width="5" stroke-dasharray="4,4"/></g></g></g><g clip-path="url(#dqWWVMNxykNy)"><g><g><path fill="none" stroke="none"/><path fill="purple" stroke="purple" paint-order="fill stroke markers" d=" M 84 266.17579814549106 A 0 0 0 1 1 84 266.17579814549106" fill-opacity="0.5" stroke-linejoin="bevel" stroke-miterlimit="10" stroke-opacity="0.5"/><path fill="purple" stroke="purple" paint-order="fill stroke markers" d=" M 132.6 266.17579814549106 A 0 0 0 1 1 132.6 266.17579814549106" fill-opacity="0.5" stroke-linejoin="bevel" stroke-miterlimit="10" stroke-opacity="0.5"/><path fill="purple" stroke="purple" paint-order="fill stroke markers" d=" M 181.2 266.17579814549106 A 0 0 0 1 1 181.2 266.17579814549106" fill-opacity="0.5" stroke-linejoin="bevel" stroke-miterlimit="10" stroke-opacity="0.5"/><path fill="purple" stroke="purple" paint-order="fill stroke markers" d=" M 229.79999999999998 266.17579814549106 A 0 0 0 1 1 229.79999999999998 266.17579814549106" fill-opacity="0.5" stroke-linejoin="bevel" stroke-miterlimit="10" stroke-opacity="0.5"/><path fill="purple" stroke="purple" paint-order="fill stroke markers" d=" M 278.4 266.17579814549106 A 0 0 0 1 1 278.4 266.17579814549106" fill-opacity="0.5" stroke-linejoin="bevel" stroke-miterlimit="10" stroke-opacity="0.5"/><path fill="purple" stroke="purple" paint-order="fill stroke markers" d=" M 327 266.17579814549106 A 0 0 0 1 1 327 266.17579814549106" fill-opacity="0.5" stroke-linejoin="bevel" stroke-miterlimit="10" stroke-opacity="0.5"/><path fill="purple" stroke="purple" paint-order="fill stroke markers" d=" M 375.59999999999997 266.17579814549106 A 0 0 0 1 1 375.59999999999997 266.17579814549106" fill-opacity="0.5" stroke-linejoin="bevel" stroke-miterlimit="10" stroke-opacity="0.5"/><path fill="purple" stroke="purple" paint-order="fill stroke markers" d=" M 424.2 266.17579814549106 A 0 0 0 1 1 424.2 266.17579814549106" fill-opacity="0.5" stroke-linejoin="bevel" stroke-miterlimit="10" stroke-opacity="0.5"/><path fill="purple" stroke="purple" paint-order="fill stroke markers" d=" M 472.8 266.17579814549106 A 0 0 0 1 1 472.8 266.17579814549106" fill-opacity="0.5" stroke-linejoin="bevel" stroke-miterlimit="10" stroke-opacity="0.5"/><path fill="purple" stroke="purple" paint-order="fill stroke markers" d=" M 521.4000000000001 266.17579814549106 A 0 0 0 1 1 521.4000000000001 266.17579814549106" fill-opacity="0.5" stroke-linejoin="bevel" stroke-miterlimit="10" stroke-opacity="0.5"/><path fill="purple" stroke="purple" paint-order="fill stroke markers" d=" M 570 266.17579814549106 A 0 0 0 1 1 570 266.17579814549106" fill-opacity="0.5" stroke-linejoin="bevel" stroke-miterlimit="10" stroke-opacity="0.5"/></g></g></g><g clip-path="url(#gsoMfATvmNcr)"><g><g><path fill="none" stroke="none"/><path fill="none" stroke="purple" paint-order="fill stroke markers" d=" M 84 266.17579814549106 L 132.6 266.17579814549106 L 181.2 266.17579814549106 L 229.79999999999998 266.17579814549106 L 278.4 266.17579814549106 L 327 266.17579814549106 L 375.59999999999997 266.17579814549106 L 424.2 266.17579814549106 L 472.8 266.17579814549106 L 521.4000000000001 266.17579814549106 L 570 266.17579814549106" stroke-linejoin="bevel" stroke-miterlimit="10" stroke-width="5" stroke-dasharray="4,4"/></g></g></g><g clip-path="url(#vOOPibnRoEDp)"><g><g><path fill="none" stroke="none"/><path fill="gray" stroke="none" paint-order="stroke fill markers" d=" M 84 351.70454545454544 L 570 30.681818181818187 L 570 223.29545454545456 L 84 544.3181818181818 Z" fill-opacity="0.25"/></g></g></g><g clip-path="url(#cpBWdnWotAPL)"><g><g/><g><path fill="#ffffff" stroke="#e5e5e5" paint-order="fill stroke markers" d=" M 200 502 L 560 502 L 560 560 L 200 560 L 200 502 Z" fill-opacity="0.95" stroke-linejoin="bevel" stroke-miterlimit="10" stroke-opacity="0.5"/><text fill="#444444" stroke="none" font-family="helvetica" font-size="26pt" font-style="normal" font-weight="normal" text-decoration="normal" x="235" y="531" text-anchor="start" dominant-baseline="central">Error Margins ±30%</text><rect fill="gray" stroke="none" x="212" y="514" width="16" height="16" fill-opacity="0.25"/></g></g></g><g/><g/><g><g fill="#444444"><path fill="none" stroke="black" paint-order="fill stroke markers" d=" M 84 570 L 570 570" stroke-linejoin="bevel" stroke-miterlimit="10"/><path fill="none" stroke="black" paint-order="fill stroke markers" d=" M 84 576 L 84 568" stroke-linejoin="bevel" stroke-miterlimit="10"/><path fill="none" stroke="black" paint-order="fill stroke markers" d=" M 181 576 L 181 568" stroke-linejoin="bevel" stroke-miterlimit="10"/><path fill="none" stroke="black" paint-order="fill stroke markers" d=" M 278 576 L 278 568" stroke-linejoin="bevel" stroke-miterlimit="10"/><path fill="none" stroke="black" paint-order="fill stroke markers" d=" M 376 576 L 376 568" stroke-linejoin="bevel" stroke-miterlimit="10"/><path fill="none" stroke="black" paint-order="fill stroke markers" d=" M 473 576 L 473 568" stroke-linejoin="bevel" stroke-miterlimit="10"/><path fill="none" stroke="black" paint-order="fill stroke markers" d=" M 570 576 L 570 568" stroke-linejoin="bevel" stroke-miterlimit="10"/><path fill="none" stroke="black" paint-order="fill stroke markers" d=" M 84 574 L 84 570" stroke-linejoin="bevel" stroke-miterlimit="10"/><path fill="none" stroke="black" paint-order="fill stroke markers" d=" M 103 574 L 103 570" stroke-linejoin="bevel" stroke-miterlimit="10"/><path fill="none" stroke="black" paint-order="fill stroke markers" d=" M 123 574 L 123 570" stroke-linejoin="bevel" stroke-miterlimit="10"/><path fill="none" stroke="black" paint-order="fill stroke markers" d=" M 142 574 L 142 570" stroke-linejoin="bevel" stroke-miterlimit="10"/><path fill="none" stroke="black" paint-order="fill stroke markers" d=" M 162 574 L 162 570" stroke-linejoin="bevel" stroke-miterlimit="10"/><path fill="none" stroke="black" paint-order="fill stroke markers" d=" M 181 574 L 181 570" stroke-linejoin="bevel" stroke-miterlimit="10"/><path fill="none" stroke="black" paint-order="fill stroke markers" d=" M 201 574 L 201 570" stroke-linejoin="bevel" stroke-miterlimit="10"/><path fill="none" stroke="black" paint-order="fill stroke markers" d=" M 220 574 L 220 570" stroke-linejoin="bevel" stroke-miterlimit="10"/><path fill="none" stroke="black" paint-order="fill stroke markers" d=" M 240 574 L 240 570" stroke-linejoin="bevel" stroke-miterlimit="10"/><path fill="none" stroke="black" paint-order="fill stroke markers" d=" M 259 574 L 259 570" stroke-linejoin="bevel" stroke-miterlimit="10"/><path fill="none" stroke="black" paint-order="fill stroke markers" d=" M 278 574 L 278 570" stroke-linejoin="bevel" stroke-miterlimit="10"/><path fill="none" stroke="black" paint-order="fill stroke markers" d=" M 298 574 L 298 570" stroke-linejoin="bevel" stroke-miterlimit="10"/><path fill="none" stroke="black" paint-order="fill stroke markers" d=" M 317 574 L 317 570" stroke-linejoin="bevel" stroke-miterlimit="10"/><path fill="none" stroke="black" paint-order="fill stroke markers" d=" M 337 574 L 337 570" stroke-linejoin="bevel" stroke-miterlimit="10"/><path fill="none" stroke="black" paint-order="fill stroke markers" d=" M 356 574 L 356 570" stroke-linejoin="bevel" stroke-miterlimit="10"/><path fill="none" stroke="black" paint-order="fill stroke markers" d=" M 376 574 L 376 570" stroke-linejoin="bevel" stroke-miterlimit="10"/><path fill="none" stroke="black" paint-order="fill stroke markers" d=" M 395 574 L 395 570" stroke-linejoin="bevel" stroke-miterlimit="10"/><path fill="none" stroke="black" paint-order="fill stroke markers" d=" M 414 574 L 414 570" stroke-linejoin="bevel" stroke-miterlimit="10"/><path fill="none" stroke="black" paint-order="fill stroke markers" d=" M 434 574 L 434 570" stroke-linejoin="bevel" stroke-miterlimit="10"/><path fill="none" stroke="black" paint-order="fill stroke markers" d=" M 453 574 L 453 570" stroke-linejoin="bevel" stroke-miterlimit="10"/><path fill="none" stroke="black" paint-order="fill stroke markers" d=" M 473 574 L 473 570" stroke-linejoin="bevel" stroke-miterlimit="10"/><path fill="none" stroke="black" paint-order="fill stroke markers" d=" M 492 574 L 492 570" stroke-linejoin="bevel" stroke-miterlimit="10"/><path fill="none" stroke="black" paint-order="fill stroke markers" d=" M 512 574 L 512 570" stroke-linejoin="bevel" stroke-miterlimit="10"/><path fill="none" stroke="black" paint-order="fill stroke markers" d=" M 531 574 L 531 570" stroke-linejoin="bevel" stroke-miterlimit="10"/><path fill="none" stroke="black" paint-order="fill stroke markers" d=" M 551 574 L 551 570" stroke-linejoin="bevel" stroke-miterlimit="10"/><path fill="" stroke="black" paint-order="fill stroke markers" d=" M 570 574 L 570 570" stroke-linejoin="bevel" stroke-miterlimit="10"/><g transform="translate(84,581) rotate(0,0,0)"><text fill="" stroke="none" font-family="helvetica" font-size="26px" font-style="normal" font-weight="normal" text-decoration="normal" x="0" y="0" text-anchor="middle" dominant-baseline="hanging">0</text><g transform="rotate(0,0,0) translate(-84,-581) translate(181,581) rotate(0,0,0)"><text fill="" stroke="none" font-family="helvetica" font-size="26px" font-style="normal" font-weight="normal" text-decoration="normal" x="0" y="0" text-anchor="middle" dominant-baseline="hanging">0.2</text><g transform="rotate(0,0,0) translate(-181,-581) translate(278,581) rotate(0,0,0)"><text fill="" stroke="none" font-family="helvetica" font-size="26px" font-style="normal" font-weight="normal" text-decoration="normal" x="0" y="0" text-anchor="middle" dominant-baseline="hanging">0.4</text><g transform="rotate(0,0,0) translate(-278,-581) translate(376,581) rotate(0,0,0)"><text fill="" stroke="none" font-family="helvetica" font-size="26px" font-style="normal" font-weight="normal" text-decoration="normal" x="0" y="0" text-anchor="middle" dominant-baseline="hanging">0.6</text><g transform="rotate(0,0,0) translate(-376,-581) translate(473,581) rotate(0,0,0)"><text fill="" stroke="none" font-family="helvetica" font-size="26px" font-style="normal" font-weight="normal" text-decoration="normal" x="0" y="0" text-anchor="middle" dominant-baseline="hanging">0.8</text><g transform="rotate(0,0,0) translate(-473,-581) translate(570,581) rotate(0,0,0)"><text fill="" stroke="none" font-family="helvetica" font-size="26px" font-style="normal" font-weight="normal" text-decoration="normal" x="0" y="0" text-anchor="middle" dominant-baseline="hanging">1</text><g transform="rotate(0,0,0) translate(-570,-581)"/></g></g></g></g></g></g></g></g><g><g fill="#444444"><path fill="none" stroke="black" paint-order="fill stroke markers" d=" M 84 570 L 84 5" stroke-linejoin="bevel" stroke-miterlimit="10"/><path fill="none" stroke="black" paint-order="fill stroke markers" d=" M 78 448 L 86 448" stroke-linejoin="bevel" stroke-miterlimit="10"/><path fill="none" stroke="black" paint-order="fill stroke markers" d=" M 78 288 L 86 288" stroke-linejoin="bevel" stroke-miterlimit="10"/><path fill="none" stroke="black" paint-order="fill stroke markers" d=" M 78 127 L 86 127" stroke-linejoin="bevel" stroke-miterlimit="10"/><path fill="none" stroke="black" paint-order="fill stroke markers" d=" M 80 480 L 84 480" stroke-linejoin="bevel" stroke-miterlimit="10"/><path fill="none" stroke="black" paint-order="fill stroke markers" d=" M 80 512 L 84 512" stroke-linejoin="bevel" stroke-miterlimit="10"/><path fill="none" stroke="black" paint-order="fill stroke markers" d=" M 80 544 L 84 544" stroke-linejoin="bevel" stroke-miterlimit="10"/><path fill="none" stroke="black" paint-order="fill stroke markers" d=" M 80 448 L 84 448" stroke-linejoin="bevel" stroke-miterlimit="10"/><path fill="none" stroke="black" paint-order="fill stroke markers" d=" M 80 416 L 84 416" stroke-linejoin="bevel" stroke-miterlimit="10"/><path fill="none" stroke="black" paint-order="fill stroke markers" d=" M 80 384 L 84 384" stroke-linejoin="bevel" stroke-miterlimit="10"/><path fill="none" stroke="black" paint-order="fill stroke markers" d=" M 80 352 L 84 352" stroke-linejoin="bevel" stroke-miterlimit="10"/><path fill="none" stroke="black" paint-order="fill stroke markers" d=" M 80 320 L 84 320" stroke-linejoin="bevel" stroke-miterlimit="10"/><path fill="none" stroke="black" paint-order="fill stroke markers" d=" M 80 288 L 84 288" stroke-linejoin="bevel" stroke-miterlimit="10"/><path fill="none" stroke="black" paint-order="fill stroke markers" d=" M 80 255 L 84 255" stroke-linejoin="bevel" stroke-miterlimit="10"/><path fill="none" stroke="black" paint-order="fill stroke markers" d=" M 80 223 L 84 223" stroke-linejoin="bevel" stroke-miterlimit="10"/><path fill="none" stroke="black" paint-order="fill stroke markers" d=" M 80 191 L 84 191" stroke-linejoin="bevel" stroke-miterlimit="10"/><path fill="none" stroke="black" paint-order="fill stroke markers" d=" M 80 159 L 84 159" stroke-linejoin="bevel" stroke-miterlimit="10"/><path fill="none" stroke="black" paint-order="fill stroke markers" d=" M 80 127 L 84 127" stroke-linejoin="bevel" stroke-miterlimit="10"/><path fill="none" stroke="black" paint-order="fill stroke markers" d=" M 80 95 L 84 95" stroke-linejoin="bevel" stroke-miterlimit="10"/><path fill="none" stroke="black" paint-order="fill stroke markers" d=" M 80 63 L 84 63" stroke-linejoin="bevel" stroke-miterlimit="10"/><path fill="" stroke="black" paint-order="fill stroke markers" d=" M 80 31 L 84 31" stroke-linejoin="bevel" stroke-miterlimit="10"/><g transform="translate(73,448) rotate(0,0,0)"><text fill="" stroke="none" font-family="helvetica" font-size="26px" font-style="normal" font-weight="normal" text-decoration="normal" x="0" y="0" text-anchor="end" dominant-baseline="central">0</text><g transform="rotate(0,0,0) translate(-73,-448) translate(73,288) rotate(0,0,0)"><text fill="" stroke="none" font-family="helvetica" font-size="26px" font-style="normal" font-weight="normal" text-decoration="normal" x="0" y="0" text-anchor="end" dominant-baseline="central">0.5</text><g transform="rotate(0,0,0) translate(-73,-288) translate(73,127) rotate(0,0,0)"><text fill="" stroke="none" font-family="helvetica" font-size="26px" font-style="normal" font-weight="normal" text-decoration="normal" x="0" y="0" text-anchor="end" dominant-baseline="central">1</text><g transform="rotate(0,0,0) translate(-73,-127) translate(25,288) rotate(-90,0,0)"><text fill="" stroke="none" font-family="helvetica" font-size="26pt" font-style="italic" font-weight="normal" text-decoration="normal" x="0" y="0" text-anchor="middle" dominant-baseline="alphabetic">Spread Ratio (Female)</text><g transform="rotate(90,0,0) translate(-25,-288)"/></g></g></g></g></g></g><g clip-path="url(#sFmIDVrGMPFG)"><g/></g></g></g></svg>