<svg version="1.1" xmlns="http://www.w3.org/2000/svg" xmlns:xlink="http://www.w3.org/1999/xlink" width="600" height="600" style="width: 600px; height: 600px;"><defs><clipPath id="oGOKZuActkFI"><path fill="none" stroke="none" d=" M 84 5 L 570 5 L 570 570 L 84 570 L 84 5 Z"/></clipPath><clipPath id="oCkNgVvSdqgT"><path fill="none" stroke="none" d=" M 84 5 L 570 5 L 570 570 L 84 570 L 84 5 Z"/></clipPath><clipPath id="bbVTlUHQmEfE"><path fill="none" stroke="none" d=" M 84 5 L 570 5 L 570 570 L 84 570 L 84 5 Z"/></clipPath><clipPath id="CpVOTgLTSLCN"><path fill="none" stroke="none" d=" M 84 5 L 570 5 L 570 570 L 84 570 L 84 5 Z"/></clipPath><clipPath id="rhhOlPJkPBCI"><path fill="none" stroke="none" d=" M 84 5 L 570 5 L 570 570 L 84 570 L 84 5 Z"/></clipPath><clipPath id="mWNWqrNSqWuz"><path fill="none" stroke="none" d=" M 84 5 L 570 5 L 570 570 L 84 570 L 84 5 Z"/></clipPath><clipPath id="JXJyfftTQAHQ"><path fill="none" stroke="none" d=" M 84 5 L 570 5 L 570 570 L 84 570 L 84 5 Z"/></clipPath><clipPath id="FKBezNxgGxDr"><path fill="none" stroke="none" d=" M 84 5 L 570 5 L 570 570 L 84 570 L 84 5 Z"/></clipPath><clipPath id="TqZhuUFEHbhn"><path fill="none" stroke="none" d=" M 84 5 L 570 5 L 570 570 L 84 570 L 84 5 Z"/></clipPath><clipPath id="FUTJgXBeBmkE"><path fill="none" stroke="none" d=" M 84 5 L 570 5 L 570 570 L 84 570 L 84 5 Z"/></clipPath><clipPath id="taxgdxnhBeov"><path fill="none" stroke="none" d=" M 84 5 L 570 5 L 570 570 L 84 570 L 84 5 Z"/></clipPath><clipPath id="HuCIrhrsVIac"><path fill="none" stroke="none" d=" M 84 5 L 570 5 L 570 570 L 84 570 L 84 5 Z"/></clipPath><clipPath id="oaKNHwyAUdEt"><path fill="none" stroke="none" d=" M 84 5 L 570 5 L 570 570 L 84 570 L 84 5 Z"/></clipPath><clipPath id="UTloezPtJaFQ"><path fill="none" stroke="none" d=" M 84 5 L 570 5 L 570 570 L 84 570 L 84 5 Z"/></clipPath><clipPath id="GsZbCTqfOAoI"><path fill="none" stroke="none" d=" M 84 5 L 570 5 L 570 570 L 84 570 L 84 5 Z"/></clipPath></defs><g><g transform="scale(1,1) translate(0.5,0.5)"><rect fill="#FFFFFF" stroke="none" x="0" y="0" width="600" height="600"/><rect fill="#ffffff" stroke="none" x="0" y="0" width="600" height="600"/><rect fill="#FFFFFF" stroke="none" x="84" y="5" width="486" height="565"/><rect fill="#ffffff" stroke="none" x="84" y="5" width="486" height="565"/><g><rect fill="none" stroke="#e5e5e5" x="84" y="5" width="486" height="565" stroke-linejoin="bevel" stroke-miterlimit="10"/></g><g clip-path="url(#oGOKZuActkFI)"><g><g><path fill="none" stroke="#e5e5e5" paint-order="fill stroke markers" d=" M 181 570 L 181 5" stroke-linejoin="bevel" stroke-miterlimit="10"/><path fill="none" stroke="#e5e5e5" paint-order="fill stroke markers" d=" M 278 570 L 278 5" stroke-linejoin="bevel" stroke-miterlimit="10"/><path fill="none" stroke="#e5e5e5" paint-order="fill stroke markers" d=" M 376 570 L 376 5" stroke-linejoin="bevel" stroke-miterlimit="10"/><path fill="none" stroke="#e5e5e5" paint-order="fill stroke markers" d=" M 473 570 L 473 5" stroke-linejoin="bevel" stroke-miterlimit="10"/></g></g></g><g clip-path="url(#oCkNgVvSdqgT)"><g><g><path fill="none" stroke="#e5e5e5" paint-order="fill stroke markers" d=" M 84 439 L 570 439" stroke-linejoin="bevel" stroke-miterlimit="10"/><path fill="none" stroke="#e5e5e5" paint-order="fill stroke markers" d=" M 84 287 L 570 287" stroke-linejoin="bevel" stroke-miterlimit="10"/><path fill="none" stroke="#e5e5e5" paint-order="fill stroke markers" d=" M 84 136 L 570 136" stroke-linejoin="bevel" stroke-miterlimit="10"/></g></g></g><g clip-path="url(#bbVTlUHQmEfE)"><g><g><path fill="none" stroke="none"/><path fill="red" stroke="red" paint-order="fill stroke markers" d=" M 102.7292736 397.27565739256073 A 18.7292736 18.7292736 0 1 1 102.72926423536398 397.2569281220823" fill-opacity="0.5" stroke-linejoin="bevel" stroke-miterlimit="10" stroke-opacity="0.5"/><path fill="red" stroke="red" paint-order="fill stroke markers" d=" M 132.6 378.72093401038717 A 0 0 0 1 1 132.6 378.72093401038717" fill-opacity="0.5" stroke-linejoin="bevel" stroke-miterlimit="10" stroke-opacity="0.5"/><path fill="red" stroke="red" paint-order="fill stroke markers" d=" M 181.2 349.9212714282855 A 0 0 0 1 1 181.2 349.9212714282855" fill-opacity="0.5" stroke-linejoin="bevel" stroke-miterlimit="10" stroke-opacity="0.5"/><path fill="red" stroke="red" paint-order="fill stroke markers" d=" M 229.79999999999998 317.91231709792174 A 0 0 0 1 1 229.79999999999998 317.91231709792174" fill-opacity="0.5" stroke-linejoin="bevel" stroke-miterlimit="10" stroke-opacity="0.5"/><path fill="red" stroke="red" paint-order="fill stroke markers" d=" M 278.4 294.26171987499106 A 0 0 0 1 1 278.4 294.26171987499106" fill-opacity="0.5" stroke-linejoin="bevel" stroke-miterlimit="10" stroke-opacity="0.5"/><path fill="red" stroke="red" paint-order="fill stroke markers" d=" M 355.9838736 270.79758443314904 A 28.98387359999998 28.98387359999998 0 1 1 355.9838591080644 270.76860056437965" fill-opacity="0.5" stroke-linejoin="bevel" stroke-miterlimit="10" stroke-opacity="0.5"/><path fill="red" stroke="red" paint-order="fill stroke markers" d=" M 375.59999999999997 247.73883557572069 A 0 0 0 1 1 375.59999999999997 247.73883557572069" fill-opacity="0.5" stroke-linejoin="bevel" stroke-miterlimit="10" stroke-opacity="0.5"/><path fill="red" stroke="red" paint-order="fill stroke markers" d=" M 454.0461348 224.93332139847425 A 29.846134800000016 29.846134800000016 0 1 1 454.04611987693386 224.90347526864858" fill-opacity="0.5" stroke-linejoin="bevel" stroke-miterlimit="10" stroke-opacity="0.5"/><path fill="red" stroke="red" paint-order="fill stroke markers" d=" M 472.8 199.64939017682485 A 0 0 0 1 1 472.8 199.64939017682485" fill-opacity="0.5" stroke-linejoin="bevel" stroke-miterlimit="10" stroke-opacity="0.5"/><path fill="red" stroke="red" paint-order="fill stroke markers" d=" M 521.4000000000001 171.85335974419615 A 0 0 0 1 1 521.4000000000001 171.85335974419615" fill-opacity="0.5" stroke-linejoin="bevel" stroke-miterlimit="10" stroke-opacity="0.5"/><path fill="red" stroke="red" paint-order="fill stroke markers" d=" M 570 162.43271033930762 A 0 0 0 1 1 570 162.43271033930762" fill-opacity="0.5" stroke-linejoin="bevel" stroke-miterlimit="10" stroke-opacity="0.5"/></g></g></g><g clip-path="url(#CpVOTgLTSLCN)"><g><g><path fill="none" stroke="none"/><path fill="none" stroke="red" paint-order="fill stroke markers" d=" M 84 397.27565739256073 L 132.6 378.72093401038717 L 181.2 349.9212714282855 L 229.79999999999998 317.91231709792174 L 278.4 294.26171987499106 L 327 270.79758443314904 L 375.59999999999997 247.73883557572069 L 424.2 224.93332139847425 L 472.8 199.64939017682485 L 521.4000000000001 171.85335974419615 L 570 162.43271033930762" stroke-linejoin="bevel" stroke-miterlimit="10" stroke-width="5" stroke-dasharray="4,4"/></g></g></g><g clip-path="url(#rhhOlPJkPBCI)"><g><g><path fill="none" stroke="none"/><path fill="black" stroke="black" paint-order="fill stroke markers" d=" M 84 316.1839632432764 A 0 0 0 1 1 84 316.1839632432764" fill-opacity="0.5" stroke-linejoin="bevel" stroke-miterlimit="10" stroke-opacity="0.5"/><path fill="black" stroke="black" paint-order="fill stroke markers" d=" M 159.8741256 316.2001828371667 A 27.27412560000002 27.27412560000002 0 1 1 159.87411196293834 316.1729087161124" fill-opacity="0.5" stroke-linejoin="bevel" stroke-miterlimit="10" stroke-opacity="0.5"/><path fill="black" stroke="black" paint-order="fill stroke markers" d=" M 208.529724 315.7313077193294 A 27.329724 27.329724 0 1 1 208.52971033513913 315.70397799988433" fill-opacity="0.5" stroke-linejoin="bevel" stroke-miterlimit="10" stroke-opacity="0.5"/><path fill="black" stroke="black" paint-order="fill stroke markers" d=" M 257.1402216 315.61519978731144 A 27.340221600000035 27.340221600000035 0 1 1 257.1402079298904 315.5878595702681" fill-opacity="0.5" stroke-linejoin="bevel" stroke-miterlimit="10" stroke-opacity="0.5"/><path fill="black" stroke="black" paint-order="fill stroke markers" d=" M 305.7625776 315.93460760872364 A 27.36257760000001 27.36257760000001 0 1 1 305.7625639187123 315.90724503568407" fill-opacity="0.5" stroke-linejoin="bevel" stroke-miterlimit="10" stroke-opacity="0.5"/><path fill="black" stroke="black" paint-order="fill stroke markers" d=" M 327 287.357394474377 A 0 0 0 1 1 327 287.357394474377" fill-opacity="0.5" stroke-linejoin="bevel" stroke-miterlimit="10" stroke-opacity="0.5"/><path fill="black" stroke="black" paint-order="fill stroke markers" d=" M 403.0863132 257.04740320105986 A 27.48631320000004 27.48631320000004 0 1 1 403.08629945684453 257.0199168924409" fill-opacity="0.5" stroke-linejoin="bevel" stroke-miterlimit="10" stroke-opacity="0.5"/><path fill="black" stroke="black" paint-order="fill stroke markers" d=" M 424.2 228.7682002021331 A 0 0 0 1 1 424.2 228.7682002021331" fill-opacity="0.5" stroke-linejoin="bevel" stroke-miterlimit="10" stroke-opacity="0.5"/><path fill="black" stroke="black" paint-order="fill stroke markers" d=" M 499.68182640000003 205.08314958686574 A 26.881826400000023 26.881826400000023 0 1 1 499.68181295908795 205.05626776494603" fill-opacity="0.5" stroke-linejoin="bevel" stroke-miterlimit="10" stroke-opacity="0.5"/><path fill="black" stroke="black" paint-order="fill stroke markers" d=" M 548.2139808 205.0301407916882 A 26.813980799999854 26.813980799999854 0 1 1 548.2139673930106 205.00332681535718" fill-opacity="0.5" stroke-linejoin="bevel" stroke-miterlimit="10" stroke-opacity="0.5"/><path fill="black" stroke="black" paint-order="fill stroke markers" d=" M 596.8001784 204.8671287211054 A 26.80017840000005 26.80017840000005 0 1 1 596.800164999912 204.84032854717208" fill-opacity="0.5" stroke-linejoin="bevel" stroke-miterlimit="10" stroke-opacity="0.5"/></g></g></g><g clip-path="url(#mWNWqrNSqWuz)"><g><g><path fill="none" stroke="none"/><path fill="none" stroke="black" paint-order="fill stroke markers" d=" M 84 316.1839632432764 L 132.6 316.2001828371667 L 181.2 315.7313077193294 L 229.79999999999998 315.61519978731144 L 278.4 315.93460760872364 L 327 287.357394474377 L 375.59999999999997 257.04740320105986 L 424.2 228.7682002021331 L 472.8 205.08314958686574 L 521.4000000000001 205.0301407916882 L 570 204.8671287211054" stroke-linejoin="bevel" stroke-miterlimit="10" stroke-width="5" stroke-dasharray="4,4"/></g></g></g><g clip-path="url(#JXJyfftTQAHQ)"><g><g><path fill="none" stroke="none"/><path fill="green" stroke="green" paint-order="fill stroke markers" d=" M 84 300.8015628421159 A 0 0 0 1 1 84 300.8015628421159" fill-opacity="0.5" stroke-linejoin="bevel" stroke-miterlimit="10" stroke-opacity="0.5"/><path fill="green" stroke="green" paint-order="fill stroke markers" d=" M 132.6 300.8823545129502 A 0 0 0 1 1 132.6 300.8823545129502" fill-opacity="0.5" stroke-linejoin="bevel" stroke-miterlimit="10" stroke-opacity="0.5"/><path fill="green" stroke="green" paint-order="fill stroke markers" d=" M 181.2 300.84545527822115 A 0 0 0 1 1 181.2 300.84545527822115" fill-opacity="0.5" stroke-linejoin="bevel" stroke-miterlimit="10" stroke-opacity="0.5"/><path fill="green" stroke="green" paint-order="fill stroke markers" d=" M 229.79999999999998 300.83876520360417 A 0 0 0 1 1 229.79999999999998 300.83876520360417" fill-opacity="0.5" stroke-linejoin="bevel" stroke-miterlimit="10" stroke-opacity="0.5"/><path fill="green" stroke="green" paint-order="fill stroke markers" d=" M 278.4 301.0363940719005 A 0 0 0 1 1 278.4 301.0363940719005" fill-opacity="0.5" stroke-linejoin="bevel" stroke-miterlimit="10" stroke-opacity="0.5"/><path fill="green" stroke="green" paint-order="fill stroke markers" d=" M 327 283.26945731447165 A 0 0 0 1 1 327 283.26945731447165" fill-opacity="0.5" stroke-linejoin="bevel" stroke-miterlimit="10" stroke-opacity="0.5"/><path fill="green" stroke="green" paint-order="fill stroke markers" d=" M 375.59999999999997 262.08533385252514 A 0 0 0 1 1 375.59999999999997 262.08533385252514" fill-opacity="0.5" stroke-linejoin="bevel" stroke-miterlimit="10" stroke-opacity="0.5"/><path fill="green" stroke="green" paint-order="fill stroke markers" d=" M 424.2 229.25994633965465 A 0 0 0 1 1 424.2 229.25994633965465" fill-opacity="0.5" stroke-linejoin="bevel" stroke-miterlimit="10" stroke-opacity="0.5"/><path fill="green" stroke="green" paint-order="fill stroke markers" d=" M 472.8 191.43602081569395 A 0 0 0 1 1 472.8 191.43602081569395" fill-opacity="0.5" stroke-linejoin="bevel" stroke-miterlimit="10" stroke-opacity="0.5"/><path fill="green" stroke="green" paint-order="fill stroke markers" d=" M 521.4000000000001 191.85272913586812 A 0 0 0 1 1 521.4000000000001 191.85272913586812" fill-opacity="0.5" stroke-linejoin="bevel" stroke-miterlimit="10" stroke-opacity="0.5"/><path fill="green" stroke="green" paint-order="fill stroke markers" d=" M 570 191.6920442635459 A 0 0 0 1 1 570 191.6920442635459" fill-opacity="0.5" stroke-linejoin="bevel" stroke-miterlimit="10" stroke-opacity="0.5"/></g></g></g><g clip-path="url(#FKBezNxgGxDr)"><g><g><path fill="none" stroke="none"/><path fill="none" stroke="green" paint-order="fill stroke markers" d=" M 84 300.8015628421159 L 132.6 300.8823545129502 L 181.2 300.84545527822115 L 229.79999999999998 300.83876520360417 L 278.4 301.0363940719005 L 327 283.26945731447165 L 375.59999999999997 262.08533385252514 L 424.2 229.25994633965465 L 472.8 191.43602081569395 L 521.4000000000001 191.85272913586812 L 570 191.6920442635459" stroke-linejoin="bevel" stroke-miterlimit="10" stroke-width="5" stroke-dasharray="4,4"/></g></g></g><g clip-path="url(#TqZhuUFEHbhn)"><g><g><path fill="none" stroke="none"/><path fill="yellow" stroke="yellow" paint-order="fill stroke markers" d=" M 84 251.5125642767051 A 0 0 0 1 1 84 251.5125642767051" fill-opacity="0.5" stroke-linejoin="bevel" stroke-miterlimit="10" stroke-opacity="0.5"/><path fill="yellow" stroke="yellow" paint-order="fill stroke markers" d=" M 132.6 251.5125642767051 A 0 0 0 1 1 132.6 251.5125642767051" fill-opacity="0.5" stroke-linejoin="bevel" stroke-miterlimit="10" stroke-opacity="0.5"/><path fill="yellow" stroke="yellow" paint-order="fill stroke markers" d=" M 181.2 251.5125642767051 A 0 0 0 1 1 181.2 251.5125642767051" fill-opacity="0.5" stroke-linejoin="bevel" stroke-miterlimit="10" stroke-opacity="0.5"/><path fill="yellow" stroke="yellow" paint-order="fill stroke markers" d=" M 229.79999999999998 251.5125642767051 A 0 0 0 1 1 229.79999999999998 251.5125642767051" fill-opacity="0.5" stroke-linejoin="bevel" stroke-miterlimit="10" stroke-opacity="0.5"/><path fill="yellow" stroke="yellow" paint-order="fill stroke markers" d=" M 278.4 251.5125642767051 A 0 0 0 1 1 278.4 251.5125642767051" fill-opacity="0.5" stroke-linejoin="bevel" stroke-miterlimit="10" stroke-opacity="0.5"/><path fill="yellow" stroke="yellow" paint-order="fill stroke markers" d=" M 327 251.5125642767051 A 0 0 0 1 1 327 251.5125642767051" fill-opacity="0.5" stroke-linejoin="bevel" stroke-miterlimit="10" stroke-opacity="0.5"/><path fill="yellow" stroke="yellow" paint-order="fill stroke markers" d=" M 375.59999999999997 251.5125642767051 A 0 0 0 1 1 375.59999999999997 251.5125642767051" fill-opacity="0.5" stroke-linejoin="bevel" stroke-miterlimit="10" stroke-opacity="0.5"/><path fill="yellow" stroke="yellow" paint-order="fill stroke markers" d=" M 424.2 251.5125642767051 A 0 0 0 1 1 424.2 251.5125642767051" fill-opacity="0.5" stroke-linejoin="bevel" stroke-miterlimit="10" stroke-opacity="0.5"/><path fill="yellow" stroke="yellow" paint-order="fill stroke markers" d=" M 472.8 251.5125642767051 A 0 0 0 1 1 472.8 251.5125642767051" fill-opacity="0.5" stroke-linejoin="bevel" stroke-miterlimit="10" stroke-opacity="0.5"/><path fill="yellow" stroke="yellow" paint-order="fill stroke markers" d=" M 521.4000000000001 251.5125642767051 A 0 0 0 1 1 521.4000000000001 251.5125642767051" fill-opacity="0.5" stroke-linejoin="bevel" stroke-miterlimit="10" stroke-opacity="0.5"/><path fill="yellow" stroke="yellow" paint-order="fill stroke markers" d=" M 570 251.5125642767051 A 0 0 0 1 1 570 251.5125642767051" fill-opacity="0.5" stroke-linejoin="bevel" stroke-miterlimit="10" stroke-opacity="0.5"/></g></g></g><g clip-path="url(#FUTJgXBeBmkE)"><g><g><path fill="none" stroke="none"/><path fill="none" stroke="yellow" paint-order="fill stroke markers" d=" M 84 251.5125642767051 L 132.6 251.5125642767051 L 181.2 251.5125642767051 L 229.79999999999998 251.5125642767051 L 278.4 251.5125642767051 L 327 251.5125642767051 L 375.59999999999997 251.5125642767051 L 424.2 251.5125642767051 L 472.8 251.5125642767051 L 521.4000000000001 251.5125642767051 L 570 251.5125642767051" stroke-linejoin="bevel" stroke-miterlimit="10" stroke-width="5" stroke-dasharray="4,4"/></g></g></g><g clip-path="url(#taxgdxnhBeov)"><g><g><path fill="none" stroke="none"/><path fill="purple" stroke="purple" paint-order="fill stroke markers" d=" M 84 264.1294333448161 A 0 0 0 1 1 84 264.1294333448161" fill-opacity="0.5" stroke-linejoin="bevel" stroke-miterlimit="10" stroke-opacity="0.5"/><path fill="purple" stroke="purple" paint-order="fill stroke markers" d=" M 132.6 264.1294333448161 A 0 0 0 1 1 132.6 264.1294333448161" fill-opacity="0.5" stroke-linejoin="bevel" stroke-miterlimit="10" stroke-opacity="0.5"/><path fill="purple" stroke="purple" paint-order="fill stroke markers" d=" M 181.2 264.1294333448161 A 0 0 0 1 1 181.2 264.1294333448161" fill-opacity="0.5" stroke-linejoin="bevel" stroke-miterlimit="10" stroke-opacity="0.5"/><path fill="purple" stroke="purple" paint-order="fill stroke markers" d=" M 229.79999999999998 264.1294333448161 A 0 0 0 1 1 229.79999999999998 264.1294333448161" fill-opacity="0.5" stroke-linejoin="bevel" stroke-miterlimit="10" stroke-opacity="0.5"/><path fill="purple" stroke="purple" paint-order="fill stroke markers" d=" M 278.4 264.1294333448161 A 0 0 0 1 1 278.4 264.1294333448161" fill-opacity="0.5" stroke-linejoin="bevel" stroke-miterlimit="10" stroke-opacity="0.5"/><path fill="purple" stroke="purple" paint-order="fill stroke markers" d=" M 327 264.1294333448161 A 0 0 0 1 1 327 264.1294333448161" fill-opacity="0.5" stroke-linejoin="bevel" stroke-miterlimit="10" stroke-opacity="0.5"/><path fill="purple" stroke="purple" paint-order="fill stroke markers" d=" M 375.59999999999997 264.1294333448161 A 0 0 0 1 1 375.59999999999997 264.1294333448161" fill-opacity="0.5" stroke-linejoin="bevel" stroke-miterlimit="10" stroke-opacity="0.5"/><path fill="purple" stroke="purple" paint-order="fill stroke markers" d=" M 424.2 264.1294333448161 A 0 0 0 1 1 424.2 264.1294333448161" fill-opacity="0.5" stroke-linejoin="bevel" stroke-miterlimit="10" stroke-opacity="0.5"/><path fill="purple" stroke="purple" paint-order="fill stroke markers" d=" M 472.8 264.1294333448161 A 0 0 0 1 1 472.8 264.1294333448161" fill-opacity="0.5" stroke-linejoin="bevel" stroke-miterlimit="10" stroke-opacity="0.5"/><path fill="purple" stroke="purple" paint-order="fill stroke markers" d=" M 521.4000000000001 264.1294333448161 A 0 0 0 1 1 521.4000000000001 264.1294333448161" fill-opacity="0.5" stroke-linejoin="bevel" stroke-miterlimit="10" stroke-opacity="0.5"/><path fill="purple" stroke="purple" paint-order="fill stroke markers" d=" M 570 264.1294333448161 A 0 0 0 1 1 570 264.1294333448161" fill-opacity="0.5" stroke-linejoin="bevel" stroke-miterlimit="10" stroke-opacity="0.5"/></g></g></g><g clip-path="url(#HuCIrhrsVIac)"><g><g><path fill="none" stroke="none"/><path fill="none" stroke="purple" paint-order="fill stroke markers" d=" M 84 264.1294333448161 L 132.6 264.1294333448161 L 181.2 264.1294333448161 L 229.79999999999998 264.1294333448161 L 278.4 264.1294333448161 L 327 264.1294333448161 L 375.59999999999997 264.1294333448161 L 424.2 264.1294333448161 L 472.8 264.1294333448161 L 521.4000000000001 264.1294333448161 L 570 264.1294333448161" stroke-linejoin="bevel" stroke-miterlimit="10" stroke-width="5" stroke-dasharray="4,4"/></g></g></g><g clip-path="url(#oaKNHwyAUdEt)"><g><g><path fill="none" stroke="none"/><path fill="gray" stroke="none" paint-order="stroke fill markers" d=" M 84 332.8208556149732 L 570 30.68181818181813 L 570 242.1791443850267 L 84 544.3181818181818 Z" fill-opacity="0.25"/></g></g></g><g clip-path="url(#UTloezPtJaFQ)"><g><g/><g><path fill="#ffffff" stroke="#e5e5e5" paint-order="fill stroke markers" d=" M 200 502 L 560 502 L 560 560 L 200 560 L 200 502 Z" fill-opacity="0.95" stroke-linejoin="bevel" stroke-miterlimit="10" stroke-opacity="0.5"/><text fill="#444444" stroke="none" font-family="helvetica" font-size="26pt" font-style="normal" font-weight="normal" text-decoration="normal" x="235" y="531" text-anchor="start" dominant-baseline="central">Error Margins ±35%</text><rect fill="gray" stroke="none" x="212" y="514" width="16" height="16" fill-opacity="0.25"/></g></g></g><g/><g/><g><g fill="#444444"><path fill="none" stroke="black" paint-order="fill stroke markers" d=" M 84 570 L 570 570" stroke-linejoin="bevel" stroke-miterlimit="10"/><path fill="none" stroke="black" paint-order="fill stroke markers" d=" M 84 576 L 84 568" stroke-linejoin="bevel" stroke-miterlimit="10"/><path fill="none" stroke="black" paint-order="fill stroke markers" d=" M 181 576 L 181 568" stroke-linejoin="bevel" stroke-miterlimit="10"/><path fill="none" stroke="black" paint-order="fill stroke markers" d=" M 278 576 L 278 568" stroke-linejoin="bevel" stroke-miterlimit="10"/><path fill="none" stroke="black" paint-order="fill stroke markers" d=" M 376 576 L 376 568" stroke-linejoin="bevel" stroke-miterlimit="10"/><path fill="none" stroke="black" paint-order="fill stroke markers" d=" M 473 576 L 473 568" stroke-linejoin="bevel" stroke-miterlimit="10"/><path fill="none" stroke="black" paint-order="fill stroke markers" d=" M 570 576 L 570 568" stroke-linejoin="bevel" stroke-miterlimit="10"/><path fill="none" stroke="black" paint-order="fill stroke markers" d=" M 84 574 L 84 570" stroke-linejoin="bevel" stroke-miterlimit="10"/><path fill="none" stroke="black" paint-order="fill stroke markers" d=" M 103 574 L 103 570" stroke-linejoin="bevel" stroke-miterlimit="10"/><path fill="none" stroke="black" paint-order="fill stroke markers" d=" M 123 574 L 123 570" stroke-linejoin="bevel" stroke-miterlimit="10"/><path fill="none" stroke="black" paint-order="fill stroke markers" d=" M 142 574 L 142 570" stroke-linejoin="bevel" stroke-miterlimit="10"/><path fill="none" stroke="black" paint-order="fill stroke markers" d=" M 162 574 L 162 570" stroke-linejoin="bevel" stroke-miterlimit="10"/><path fill="none" stroke="black" paint-order="fill stroke markers" d=" M 181 574 L 181 570" stroke-linejoin="bevel" stroke-miterlimit="10"/><path fill="none" stroke="black" paint-order="fill stroke markers" d=" M 201 574 L 201 570" stroke-linejoin="bevel" stroke-miterlimit="10"/><path fill="none" stroke="black" paint-order="fill stroke markers" d=" M 220 574 L 220 570" stroke-linejoin="bevel" stroke-miterlimit="10"/><path fill="none" stroke="black" paint-order="fill stroke markers" d=" M 240 574 L 240 570" stroke-linejoin="bevel" stroke-miterlimit="10"/><path fill="none" stroke="black" paint-order="fill stroke markers" d=" M 259 574 L 259 570" stroke-linejoin="bevel" stroke-miterlimit="10"/><path fill="none" stroke="black" paint-order="fill stroke markers" d=" M 278 574 L 278 570" stroke-linejoin="bevel" stroke-miterlimit="10"/><path fill="none" stroke="black" paint-order="fill stroke markers" d=" M 298 574 L 298 570" stroke-linejoin="bevel" stroke-miterlimit="10"/><path fill="none" stroke="black" paint-order="fill stroke markers" d=" M 317 574 L 317 570" stroke-linejoin="bevel" stroke-miterlimit="10"/><path fill="none" stroke="black" paint-order="fill stroke markers" d=" M 337 574 L 337 570" stroke-linejoin="bevel" stroke-miterlimit="10"/><path fill="none" stroke="black" paint-order="fill stroke markers" d=" M 356 574 L 356 570" stroke-linejoin="bevel" stroke-miterlimit="10"/><path fill="none" stroke="black" paint-order="fill stroke markers" d=" M 376 574 L 376 570" stroke-linejoin="bevel" stroke-miterlimit="10"/><path fill="none" stroke="black" paint-order="fill stroke markers" d=" M 395 574 L 395 570" stroke-linejoin="bevel" stroke-miterlimit="10"/><path fill="none" stroke="black" paint-order="fill stroke markers" d=" M 414 574 L 414 570" stroke-linejoin="bevel" stroke-miterlimit="10"/><path fill="none" stroke="black" paint-order="fill stroke markers" d=" M 434 574 L 434 570" stroke-linejoin="bevel" stroke-miterlimit="10"/><path fill="none" stroke="black" paint-order="fill stroke markers" d=" M 453 574 L 453 570" stroke-linejoin="bevel" stroke-miterlimit="10"/><path fill="none" stroke="black" paint-order="fill stroke markers" d=" M 473 574 L 473 570" stroke-linejoin="bevel" stroke-miterlimit="10"/><path fill="none" stroke="black" paint-order="fill stroke markers" d=" M 492 574 L 492 570" stroke-linejoin="bevel" stroke-miterlimit="10"/><path fill="none" stroke="black" paint-order="fill stroke markers" d=" M 512 574 L 512 570" stroke-linejoin="bevel" stroke-miterlimit="10"/><path fill="none" stroke="black" paint-order="fill stroke markers" d=" M 531 574 L 531 570" stroke-linejoin="bevel" stroke-miterlimit="10"/><path fill="none" stroke="black" paint-order="fill stroke markers" d=" M 551 574 L 551 570" stroke-linejoin="bevel" stroke-miterlimit="10"/><path fill="" stroke="black" paint-order="fill stroke markers" d=" M 570 574 L 570 570" stroke-linejoin="bevel" stroke-miterlimit="10"/><g transform="translate(84,581) rotate(0,0,0)"><text fill="" stroke="none" font-family="helvetica" font-size="26px" font-style="normal" font-weight="normal" text-decoration="normal" x="0" y="0" text-anchor="middle" dominant-baseline="hanging">0</text><g transform="rotate(0,0,0) translate(-84,-581) translate(181,581) rotate(0,0,0)"><text fill="" stroke="none" font-family="helvetica" font-size="26px" font-style="normal" font-weight="normal" text-decoration="normal" x="0" y="0" text-anchor="middle" dominant-baseline="hanging">0.2</text><g transform="rotate(0,0,0) translate(-181,-581) translate(278,581) rotate(0,0,0)"><text fill="" stroke="none" font-family="helvetica" font-size="26px" font-style="normal" font-weight="normal" text-decoration="normal" x="0" y="0" text-anchor="middle" dominant-baseline="hanging">0.4</text><g transform="rotate(0,0,0) translate(-278,-581) translate(376,581) rotate(0,0,0)"><text fill="" stroke="none" font-family="helvetica" font-size="26px" font-style="normal" font-weight="normal" text-decoration="normal" x="0" y="0" text-anchor="middle" dominant-baseline="hanging">0.6</text><g transform="rotate(0,0,0) translate(-376,-581) translate(473,581) rotate(0,0,0)"><text fill="" stroke="none" font-family="helvetica" font-size="26px" font-style="normal" font-weight="normal" text-decoration="normal" x="0" y="0" text-anchor="middle" dominant-baseline="hanging">0.8</text><g transform="rotate(0,0,0) translate(-473,-581) translate(570,581) rotate(0,0,0)"><text fill="" stroke="none" font-family="helvetica" font-size="26px" font-style="normal" font-weight="normal" text-decoration="normal" x="0" y="0" text-anchor="middle" dominant-baseline="hanging">1</text><g transform="rotate(0,0,0) translate(-570,-581)"/></g></g></g></g></g></g></g></g><g><g fill="#444444"><path fill="none" stroke="black" paint-order="fill stroke markers" d=" M 84 570 L 84 5" stroke-linejoin="bevel" stroke-miterlimit="10"/><path fill="none" stroke="black" paint-order="fill stroke markers" d=" M 78 439 L 86 439" stroke-linejoin="bevel" stroke-miterlimit="10"/><path fill="none" stroke="black" paint-order="fill stroke markers" d=" M 78 287 L 86 287" stroke-linejoin="bevel" stroke-miterlimit="10"/><path fill="none" stroke="black" paint-order="fill stroke markers" d=" M 78 136 L 86 136" stroke-linejoin="bevel" stroke-miterlimit="10"/><path fill="none" stroke="black" paint-order="fill stroke markers" d=" M 80 469 L 84 469" stroke-linejoin="bevel" stroke-miterlimit="10"/><path fill="none" stroke="black" paint-order="fill stroke markers" d=" M 80 499 L 84 499" stroke-linejoin="bevel" stroke-miterlimit="10"/><path fill="none" stroke="black" paint-order="fill stroke markers" d=" M 80 529 L 84 529" stroke-linejoin="bevel" stroke-miterlimit="10"/><path fill="none" stroke="black" paint-order="fill stroke markers" d=" M 80 559 L 84 559" stroke-linejoin="bevel" stroke-miterlimit="10"/><path fill="none" stroke="black" paint-order="fill stroke markers" d=" M 80 439 L 84 439" stroke-linejoin="bevel" stroke-miterlimit="10"/><path fill="none" stroke="black" paint-order="fill stroke markers" d=" M 80 408 L 84 408" stroke-linejoin="bevel" stroke-miterlimit="10"/><path fill="none" stroke="black" paint-order="fill stroke markers" d=" M 80 378 L 84 378" stroke-linejoin="bevel" stroke-miterlimit="10"/><path fill="none" stroke="black" paint-order="fill stroke markers" d=" M 80 348 L 84 348" stroke-linejoin="bevel" stroke-miterlimit="10"/><path fill="none" stroke="black" paint-order="fill stroke markers" d=" M 80 318 L 84 318" stroke-linejoin="bevel" stroke-miterlimit="10"/><path fill="none" stroke="black" paint-order="fill stroke markers" d=" M 80 287 L 84 287" stroke-linejoin="bevel" stroke-miterlimit="10"/><path fill="none" stroke="black" paint-order="fill stroke markers" d=" M 80 257 L 84 257" stroke-linejoin="bevel" stroke-miterlimit="10"/><path fill="none" stroke="black" paint-order="fill stroke markers" d=" M 80 227 L 84 227" stroke-linejoin="bevel" stroke-miterlimit="10"/><path fill="none" stroke="black" paint-order="fill stroke markers" d=" M 80 197 L 84 197" stroke-linejoin="bevel" stroke-miterlimit="10"/><path fill="none" stroke="black" paint-order="fill stroke markers" d=" M 80 167 L 84 167" stroke-linejoin="bevel" stroke-miterlimit="10"/><path fill="none" stroke="black" paint-order="fill stroke markers" d=" M 80 136 L 84 136" stroke-linejoin="bevel" stroke-miterlimit="10"/><path fill="none" stroke="black" paint-order="fill stroke markers" d=" M 80 106 L 84 106" stroke-linejoin="bevel" stroke-miterlimit="10"/><path fill="none" stroke="black" paint-order="fill stroke markers" d=" M 80 76 L 84 76" stroke-linejoin="bevel" stroke-miterlimit="10"/><path fill="none" stroke="black" paint-order="fill stroke markers" d=" M 80 46 L 84 46" stroke-linejoin="bevel" stroke-miterlimit="10"/><path fill="" stroke="black" paint-order="fill stroke markers" d=" M 80 16 L 84 16" stroke-linejoin="bevel" stroke-miterlimit="10"/><g transform="translate(73,439) rotate(0,0,0)"><text fill="" stroke="none" font-family="helvetica" font-size="26px" font-style="normal" font-weight="normal" text-decoration="normal" x="0" y="0" text-anchor="end" dominant-baseline="central">0</text><g transform="rotate(0,0,0) translate(-73,-439) translate(73,287) rotate(0,0,0)"><text fill="" stroke="none" font-family="helvetica" font-size="26px" font-style="normal" font-weight="normal" text-decoration="normal" x="0" y="0" text-anchor="end" dominant-baseline="central">0.5</text><g transform="rotate(0,0,0) translate(-73,-287) translate(73,136) rotate(0,0,0)"><text fill="" stroke="none" font-family="helvetica" font-size="26px" font-style="normal" font-weight="normal" text-decoration="normal" x="0" y="0" text-anchor="end" dominant-baseline="central">1</text><g transform="rotate(0,0,0) translate(-73,-136) translate(25,288) rotate(-90,0,0)"><text fill="" stroke="none" font-family="helvetica" font-size="26pt" font-style="italic" font-weight="normal" text-decoration="normal" x="0" y="0" text-anchor="middle" dominant-baseline="alphabetic">Spread Ratio (Female)</text><g transform="rotate(90,0,0) translate(-25,-288)"/></g></g></g></g></g></g><g clip-path="url(#GsZbCTqfOAoI)"><g/></g></g></g></svg>