<svg version="1.1" xmlns="http://www.w3.org/2000/svg" xmlns:xlink="http://www.w3.org/1999/xlink" width="600" height="600" style="width: 600px; height: 600px;"><defs><clipPath id="vIvcDwRyElxX"><path fill="none" stroke="none" d=" M 98 5 L 570 5 L 570 570 L 98 570 L 98 5 Z"/></clipPath><clipPath id="hCKtWnITyGAC"><path fill="none" stroke="none" d=" M 98 5 L 570 5 L 570 570 L 98 570 L 98 5 Z"/></clipPath><clipPath id="wirWtKEXBpLx"><path fill="none" stroke="none" d=" M 98 5 L 570 5 L 570 570 L 98 570 L 98 5 Z"/></clipPath><clipPath id="clbsvlyqqdMS"><path fill="none" stroke="none" d=" M 98 5 L 570 5 L 570 570 L 98 570 L 98 5 Z"/></clipPath><clipPath id="TdhXFPizXrfC"><path fill="none" stroke="none" d=" M 98 5 L 570 5 L 570 570 L 98 570 L 98 5 Z"/></clipPath><clipPath id="GzDFTAoWoLXD"><path fill="none" stroke="none" d=" M 98 5 L 570 5 L 570 570 L 98 570 L 98 5 Z"/></clipPath><clipPath id="KtKuUUqGiEru"><path fill="none" stroke="none" d=" M 98 5 L 570 5 L 570 570 L 98 570 L 98 5 Z"/></clipPath><clipPath id="bvDRtMoyxcJH"><path fill="none" stroke="none" d=" M 98 5 L 570 5 L 570 570 L 98 570 L 98 5 Z"/></clipPath><clipPath id="uQaVUhEzodFI"><path fill="none" stroke="none" d=" M 98 5 L 570 5 L 570 570 L 98 570 L 98 5 Z"/></clipPath><clipPath id="uXwnIzvErJAu"><path fill="none" stroke="none" d=" M 98 5 L 570 5 L 570 570 L 98 570 L 98 5 Z"/></clipPath><clipPath id="zXDrITtdsTmh"><path fill="none" stroke="none" d=" M 98 5 L 570 5 L 570 570 L 98 570 L 98 5 Z"/></clipPath><clipPath id="ZyosgUpbfidd"><path fill="none" stroke="none" d=" M 98 5 L 570 5 L 570 570 L 98 570 L 98 5 Z"/></clipPath><clipPath id="uQBxwIBhHmKB"><path fill="none" stroke="none" d=" M 98 5 L 570 5 L 570 570 L 98 570 L 98 5 Z"/></clipPath><clipPath id="GmncfEFZFpwi"><path fill="none" stroke="none" d=" M 98 5 L 570 5 L 570 570 L 98 570 L 98 5 Z"/></clipPath><clipPath id="VcbTKFdBTRmK"><path fill="none" stroke="none" d=" M 98 5 L 570 5 L 570 570 L 98 570 L 98 5 Z"/></clipPath></defs><g><g transform="scale(1,1) translate(0.5,0.5)"><rect fill="#FFFFFF" stroke="none" x="0" y="0" width="600" height="600"/><rect fill="#ffffff" stroke="none" x="0" y="0" width="600" height="600"/><rect fill="#FFFFFF" stroke="none" x="98" y="5" width="472" height="565"/><rect fill="#ffffff" stroke="none" x="98" y="5" width="472" height="565"/><g><rect fill="none" stroke="#e5e5e5" x="98" y="5" width="472" height="565" stroke-linejoin="bevel" stroke-miterlimit="10"/></g><g clip-path="url(#vIvcDwRyElxX)"><g><g><path fill="none" stroke="#e5e5e5" paint-order="fill stroke markers" d=" M 192 570 L 192 5" stroke-linejoin="bevel" stroke-miterlimit="10"/><path fill="none" stroke="#e5e5e5" paint-order="fill stroke markers" d=" M 287 570 L 287 5" stroke-linejoin="bevel" stroke-miterlimit="10"/><path fill="none" stroke="#e5e5e5" paint-order="fill stroke markers" d=" M 381 570 L 381 5" stroke-linejoin="bevel" stroke-miterlimit="10"/><path fill="none" stroke="#e5e5e5" paint-order="fill stroke markers" d=" M 476 570 L 476 5" stroke-linejoin="bevel" stroke-miterlimit="10"/></g></g></g><g clip-path="url(#hCKtWnITyGAC)"><g><g><path fill="none" stroke="#e5e5e5" paint-order="fill stroke markers" d=" M 98 544 L 570 544" stroke-linejoin="bevel" stroke-miterlimit="10"/><path fill="none" stroke="#e5e5e5" paint-order="fill stroke markers" d=" M 98 471 L 570 471" stroke-linejoin="bevel" stroke-miterlimit="10"/><path fill="none" stroke="#e5e5e5" paint-order="fill stroke markers" d=" M 98 398 L 570 398" stroke-linejoin="bevel" stroke-miterlimit="10"/><path fill="none" stroke="#e5e5e5" paint-order="fill stroke markers" d=" M 98 324 L 570 324" stroke-linejoin="bevel" stroke-miterlimit="10"/><path fill="none" stroke="#e5e5e5" paint-order="fill stroke markers" d=" M 98 251 L 570 251" stroke-linejoin="bevel" stroke-miterlimit="10"/><path fill="none" stroke="#e5e5e5" paint-order="fill stroke markers" d=" M 98 177 L 570 177" stroke-linejoin="bevel" stroke-miterlimit="10"/><path fill="none" stroke="#e5e5e5" paint-order="fill stroke markers" d=" M 98 104 L 570 104" stroke-linejoin="bevel" stroke-miterlimit="10"/><path fill="none" stroke="#e5e5e5" paint-order="fill stroke markers" d=" M 98 31 L 570 31" stroke-linejoin="bevel" stroke-miterlimit="10"/></g></g></g><g clip-path="url(#wirWtKEXBpLx)"><g><g><path fill="none" stroke="none"/><path fill="red" stroke="red" paint-order="fill stroke markers" d=" M 113.11353439999999 439.37284982523613 A 15.113534399999992 15.113534399999992 0 1 1 113.11352684323342 439.35773629335506" fill-opacity="0.5" stroke-linejoin="bevel" stroke-miterlimit="10" stroke-opacity="0.5"/><path fill="red" stroke="red" paint-order="fill stroke markers" d=" M 164.43164000000002 397.4172633722885 A 19.231640000000027 19.231640000000027 0 1 1 164.4316303841808 397.39803173549376" fill-opacity="0.5" stroke-linejoin="bevel" stroke-miterlimit="10" stroke-opacity="0.5"/><path fill="red" stroke="red" paint-order="fill stroke markers" d=" M 213.589496 365.32648988460585 A 21.18949599999999 21.18949599999999 0 1 1 213.58948540525287 365.30530039213744" fill-opacity="0.5" stroke-linejoin="bevel" stroke-miterlimit="10" stroke-opacity="0.5"/><path fill="red" stroke="red" paint-order="fill stroke markers" d=" M 263.3456592 332.9499956140828 A 23.745659200000006 23.745659200000006 0 1 1 263.3456473271714 332.9262499588404" fill-opacity="0.5" stroke-linejoin="bevel" stroke-miterlimit="10" stroke-opacity="0.5"/><path fill="red" stroke="red" paint-order="fill stroke markers" d=" M 311.7127264 304.19078649708115 A 24.912726399999997 24.912726399999997 0 1 1 311.7127139436378 304.16587377483324" fill-opacity="0.5" stroke-linejoin="bevel" stroke-miterlimit="10" stroke-opacity="0.5"/><path fill="red" stroke="red" paint-order="fill stroke markers" d=" M 359.3848208 272.4682799619952 A 25.3848208 25.3848208 0 1 1 359.38480810759063 272.442895145426" fill-opacity="0.5" stroke-linejoin="bevel" stroke-miterlimit="10" stroke-opacity="0.5"/><path fill="red" stroke="red" paint-order="fill stroke markers" d=" M 406.0003904 246.19150490490642 A 24.800390400000026 24.800390400000026 0 1 1 406.00037799980583 246.16670451863982" fill-opacity="0.5" stroke-linejoin="bevel" stroke-miterlimit="10" stroke-opacity="0.5"/><path fill="red" stroke="red" paint-order="fill stroke markers" d=" M 454.6711424 221.9715978390195 A 26.27114240000003 26.27114240000003 0 1 1 454.6711292644299 221.945326700998" fill-opacity="0.5" stroke-linejoin="bevel" stroke-miterlimit="10" stroke-opacity="0.5"/><path fill="red" stroke="red" paint-order="fill stroke markers" d=" M 500.8971232 188.98379596580565 A 25.297123199999987 25.297123199999987 0 1 1 500.8971105514395 188.95849884682184" fill-opacity="0.5" stroke-linejoin="bevel" stroke-miterlimit="10" stroke-opacity="0.5"/><path fill="red" stroke="red" paint-order="fill stroke markers" d=" M 545.5792864 159.2598262097777 A 22.779286400000046 22.779286400000046 0 1 1 545.5792750103577 159.23704692717425" fill-opacity="0.5" stroke-linejoin="bevel" stroke-miterlimit="10" stroke-opacity="0.5"/><path fill="red" stroke="red" paint-order="fill stroke markers" d=" M 590.5012256 133.95657578536282 A 20.501225599999998 20.501225599999998 0 1 1 590.5012153493881 133.9360745631797" fill-opacity="0.5" stroke-linejoin="bevel" stroke-miterlimit="10" stroke-opacity="0.5"/></g></g></g><g clip-path="url(#clbsvlyqqdMS)"><g><g><path fill="none" stroke="none"/><path fill="none" stroke="red" paint-order="fill stroke markers" d=" M 98 439.37284982523613 L 145.2 397.4172633722885 L 192.4 365.32648988460585 L 239.6 332.9499956140828 L 286.8 304.19078649708115 L 334 272.4682799619952 L 381.2 246.19150490490642 L 428.4 221.9715978390195 L 475.6 188.98379596580565 L 522.8 159.2598262097777 L 570 133.95657578536282" stroke-linejoin="bevel" stroke-miterlimit="10" stroke-width="5" stroke-dasharray="4,4"/></g></g></g><g clip-path="url(#TdhXFPizXrfC)"><g><g><path fill="none" stroke="none"/><path fill="black" stroke="black" paint-order="fill stroke markers" d=" M 98 348.4131065293218 A 0 0 0 1 1 98 348.4131065293218" fill-opacity="0.5" stroke-linejoin="bevel" stroke-miterlimit="10" stroke-opacity="0.5"/><path fill="black" stroke="black" paint-order="fill stroke markers" d=" M 145.2 348.63434917087795 A 0 0 0 1 1 145.2 348.63434917087795" fill-opacity="0.5" stroke-linejoin="bevel" stroke-miterlimit="10" stroke-opacity="0.5"/><path fill="black" stroke="black" paint-order="fill stroke markers" d=" M 192.4 348.00012904679403 A 0 0 0 1 1 192.4 348.00012904679403" fill-opacity="0.5" stroke-linejoin="bevel" stroke-miterlimit="10" stroke-opacity="0.5"/><path fill="black" stroke="black" paint-order="fill stroke markers" d=" M 239.6 348.3763793343991 A 0 0 0 1 1 239.6 348.3763793343991" fill-opacity="0.5" stroke-linejoin="bevel" stroke-miterlimit="10" stroke-opacity="0.5"/><path fill="black" stroke="black" paint-order="fill stroke markers" d=" M 286.8 315.8109527264054 A 0 0 0 1 1 286.8 315.8109527264054" fill-opacity="0.5" stroke-linejoin="bevel" stroke-miterlimit="10" stroke-opacity="0.5"/><path fill="black" stroke="black" paint-order="fill stroke markers" d=" M 334 288.63532814890044 A 0 0 0 1 1 334 288.63532814890044" fill-opacity="0.5" stroke-linejoin="bevel" stroke-miterlimit="10" stroke-opacity="0.5"/><path fill="black" stroke="black" paint-order="fill stroke markers" d=" M 381.2 253.99188446083406 A 0 0 0 1 1 381.2 253.99188446083406" fill-opacity="0.5" stroke-linejoin="bevel" stroke-miterlimit="10" stroke-opacity="0.5"/><path fill="black" stroke="black" paint-order="fill stroke markers" d=" M 428.4 210.8283108548049 A 0 0 0 1 1 428.4 210.8283108548049" fill-opacity="0.5" stroke-linejoin="bevel" stroke-miterlimit="10" stroke-opacity="0.5"/><path fill="black" stroke="black" paint-order="fill stroke markers" d=" M 475.6 176.41220232858655 A 0 0 0 1 1 475.6 176.41220232858655" fill-opacity="0.5" stroke-linejoin="bevel" stroke-miterlimit="10" stroke-opacity="0.5"/><path fill="black" stroke="black" paint-order="fill stroke markers" d=" M 522.8 169.54263757530487 A 0 0 0 1 1 522.8 169.54263757530487" fill-opacity="0.5" stroke-linejoin="bevel" stroke-miterlimit="10" stroke-opacity="0.5"/><path fill="black" stroke="black" paint-order="fill stroke markers" d=" M 570 168.89978484134326 A 0 0 0 1 1 570 168.89978484134326" fill-opacity="0.5" stroke-linejoin="bevel" stroke-miterlimit="10" stroke-opacity="0.5"/></g></g></g><g clip-path="url(#GzDFTAoWoLXD)"><g><g><path fill="none" stroke="none"/><path fill="none" stroke="black" paint-order="fill stroke markers" d=" M 98 348.4131065293218 L 145.2 348.63434917087795 L 192.4 348.00012904679403 L 239.6 348.3763793343991 L 286.8 315.8109527264054 L 334 288.63532814890044 L 381.2 253.99188446083406 L 428.4 210.8283108548049 L 475.6 176.41220232858655 L 522.8 169.54263757530487 L 570 168.89978484134326" stroke-linejoin="bevel" stroke-miterlimit="10" stroke-width="5" stroke-dasharray="4,4"/></g></g></g><g clip-path="url(#KtKuUUqGiEru)"><g><g><path fill="none" stroke="none"/><path fill="green" stroke="green" paint-order="fill stroke markers" d=" M 98 463.44838413717827 A 0 0 0 1 1 98 463.44838413717827" fill-opacity="0.5" stroke-linejoin="bevel" stroke-miterlimit="10" stroke-opacity="0.5"/><path fill="green" stroke="green" paint-order="fill stroke markers" d=" M 145.2 434.80858880463416 A 0 0 0 1 1 145.2 434.80858880463416" fill-opacity="0.5" stroke-linejoin="bevel" stroke-miterlimit="10" stroke-opacity="0.5"/><path fill="green" stroke="green" paint-order="fill stroke markers" d=" M 192.4 396.3473885188988 A 0 0 0 1 1 192.4 396.3473885188988" fill-opacity="0.5" stroke-linejoin="bevel" stroke-miterlimit="10" stroke-opacity="0.5"/><path fill="green" stroke="green" paint-order="fill stroke markers" d=" M 239.6 365.6999549359115 A 0 0 0 1 1 239.6 365.6999549359115" fill-opacity="0.5" stroke-linejoin="bevel" stroke-miterlimit="10" stroke-opacity="0.5"/><path fill="green" stroke="green" paint-order="fill stroke markers" d=" M 286.8 326.4254214883474 A 0 0 0 1 1 286.8 326.4254214883474" fill-opacity="0.5" stroke-linejoin="bevel" stroke-miterlimit="10" stroke-opacity="0.5"/><path fill="green" stroke="green" paint-order="fill stroke markers" d=" M 334 286.5784528839935 A 0 0 0 1 1 334 286.5784528839935" fill-opacity="0.5" stroke-linejoin="bevel" stroke-miterlimit="10" stroke-opacity="0.5"/><path fill="green" stroke="green" paint-order="fill stroke markers" d=" M 381.2 249.638942726562 A 0 0 0 1 1 381.2 249.638942726562" fill-opacity="0.5" stroke-linejoin="bevel" stroke-miterlimit="10" stroke-opacity="0.5"/><path fill="green" stroke="green" paint-order="fill stroke markers" d=" M 428.4 214.35604060132295 A 0 0 0 1 1 428.4 214.35604060132295" fill-opacity="0.5" stroke-linejoin="bevel" stroke-miterlimit="10" stroke-opacity="0.5"/><path fill="green" stroke="green" paint-order="fill stroke markers" d=" M 475.6 177.6222484496637 A 0 0 0 1 1 475.6 177.6222484496637" fill-opacity="0.5" stroke-linejoin="bevel" stroke-miterlimit="10" stroke-opacity="0.5"/><path fill="green" stroke="green" paint-order="fill stroke markers" d=" M 522.8 139.09053386251298 A 0 0 0 1 1 522.8 139.09053386251298" fill-opacity="0.5" stroke-linejoin="bevel" stroke-miterlimit="10" stroke-opacity="0.5"/><path fill="green" stroke="green" paint-order="fill stroke markers" d=" M 570 117.2418731479998 A 0 0 0 1 1 570 117.2418731479998" fill-opacity="0.5" stroke-linejoin="bevel" stroke-miterlimit="10" stroke-opacity="0.5"/></g></g></g><g clip-path="url(#bvDRtMoyxcJH)"><g><g><path fill="none" stroke="none"/><path fill="none" stroke="green" paint-order="fill stroke markers" d=" M 98 463.44838413717827 L 145.2 434.80858880463416 L 192.4 396.3473885188988 L 239.6 365.6999549359115 L 286.8 326.4254214883474 L 334 286.5784528839935 L 381.2 249.638942726562 L 428.4 214.35604060132295 L 475.6 177.6222484496637 L 522.8 139.09053386251298 L 570 117.2418731479998" stroke-linejoin="bevel" stroke-miterlimit="10" stroke-width="5" stroke-dasharray="4,4"/></g></g></g><g clip-path="url(#uQaVUhEzodFI)"><g><g><path fill="none" stroke="none"/><path fill="yellow" stroke="yellow" paint-order="fill stroke markers" d=" M 98 256.58118045545746 A 0 0 0 1 1 98 256.58118045545746" fill-opacity="0.5" stroke-linejoin="bevel" stroke-miterlimit="10" stroke-opacity="0.5"/><path fill="yellow" stroke="yellow" paint-order="fill stroke markers" d=" M 145.2 256.58118045545746 A 0 0 0 1 1 145.2 256.58118045545746" fill-opacity="0.5" stroke-linejoin="bevel" stroke-miterlimit="10" stroke-opacity="0.5"/><path fill="yellow" stroke="yellow" paint-order="fill stroke markers" d=" M 192.4 256.58118045545746 A 0 0 0 1 1 192.4 256.58118045545746" fill-opacity="0.5" stroke-linejoin="bevel" stroke-miterlimit="10" stroke-opacity="0.5"/><path fill="yellow" stroke="yellow" paint-order="fill stroke markers" d=" M 239.6 256.58118045545746 A 0 0 0 1 1 239.6 256.58118045545746" fill-opacity="0.5" stroke-linejoin="bevel" stroke-miterlimit="10" stroke-opacity="0.5"/><path fill="yellow" stroke="yellow" paint-order="fill stroke markers" d=" M 286.8 256.58118045545746 A 0 0 0 1 1 286.8 256.58118045545746" fill-opacity="0.5" stroke-linejoin="bevel" stroke-miterlimit="10" stroke-opacity="0.5"/><path fill="yellow" stroke="yellow" paint-order="fill stroke markers" d=" M 334 256.58118045545746 A 0 0 0 1 1 334 256.58118045545746" fill-opacity="0.5" stroke-linejoin="bevel" stroke-miterlimit="10" stroke-opacity="0.5"/><path fill="yellow" stroke="yellow" paint-order="fill stroke markers" d=" M 381.2 256.58118045545746 A 0 0 0 1 1 381.2 256.58118045545746" fill-opacity="0.5" stroke-linejoin="bevel" stroke-miterlimit="10" stroke-opacity="0.5"/><path fill="yellow" stroke="yellow" paint-order="fill stroke markers" d=" M 428.4 256.58118045545746 A 0 0 0 1 1 428.4 256.58118045545746" fill-opacity="0.5" stroke-linejoin="bevel" stroke-miterlimit="10" stroke-opacity="0.5"/><path fill="yellow" stroke="yellow" paint-order="fill stroke markers" d=" M 475.6 256.58118045545746 A 0 0 0 1 1 475.6 256.58118045545746" fill-opacity="0.5" stroke-linejoin="bevel" stroke-miterlimit="10" stroke-opacity="0.5"/><path fill="yellow" stroke="yellow" paint-order="fill stroke markers" d=" M 522.8 256.58118045545746 A 0 0 0 1 1 522.8 256.58118045545746" fill-opacity="0.5" stroke-linejoin="bevel" stroke-miterlimit="10" stroke-opacity="0.5"/><path fill="yellow" stroke="yellow" paint-order="fill stroke markers" d=" M 570 256.58118045545746 A 0 0 0 1 1 570 256.58118045545746" fill-opacity="0.5" stroke-linejoin="bevel" stroke-miterlimit="10" stroke-opacity="0.5"/></g></g></g><g clip-path="url(#uXwnIzvErJAu)"><g><g><path fill="none" stroke="none"/><path fill="none" stroke="yellow" paint-order="fill stroke markers" d=" M 98 256.58118045545746 L 145.2 256.58118045545746 L 192.4 256.58118045545746 L 239.6 256.58118045545746 L 286.8 256.58118045545746 L 334 256.58118045545746 L 381.2 256.58118045545746 L 428.4 256.58118045545746 L 475.6 256.58118045545746 L 522.8 256.58118045545746 L 570 256.58118045545746" stroke-linejoin="bevel" stroke-miterlimit="10" stroke-width="5" stroke-dasharray="4,4"/></g></g></g><g clip-path="url(#zXDrITtdsTmh)"><g><g><path fill="none" stroke="none"/><path fill="purple" stroke="purple" paint-order="fill stroke markers" d=" M 98 241.80645020077594 A 0 0 0 1 1 98 241.80645020077594" fill-opacity="0.5" stroke-linejoin="bevel" stroke-miterlimit="10" stroke-opacity="0.5"/><path fill="purple" stroke="purple" paint-order="fill stroke markers" d=" M 145.2 241.80645020077594 A 0 0 0 1 1 145.2 241.80645020077594" fill-opacity="0.5" stroke-linejoin="bevel" stroke-miterlimit="10" stroke-opacity="0.5"/><path fill="purple" stroke="purple" paint-order="fill stroke markers" d=" M 192.4 241.80645020077594 A 0 0 0 1 1 192.4 241.80645020077594" fill-opacity="0.5" stroke-linejoin="bevel" stroke-miterlimit="10" stroke-opacity="0.5"/><path fill="purple" stroke="purple" paint-order="fill stroke markers" d=" M 239.6 241.80645020077594 A 0 0 0 1 1 239.6 241.80645020077594" fill-opacity="0.5" stroke-linejoin="bevel" stroke-miterlimit="10" stroke-opacity="0.5"/><path fill="purple" stroke="purple" paint-order="fill stroke markers" d=" M 286.8 241.80645020077594 A 0 0 0 1 1 286.8 241.80645020077594" fill-opacity="0.5" stroke-linejoin="bevel" stroke-miterlimit="10" stroke-opacity="0.5"/><path fill="purple" stroke="purple" paint-order="fill stroke markers" d=" M 334 241.80645020077594 A 0 0 0 1 1 334 241.80645020077594" fill-opacity="0.5" stroke-linejoin="bevel" stroke-miterlimit="10" stroke-opacity="0.5"/><path fill="purple" stroke="purple" paint-order="fill stroke markers" d=" M 381.2 241.80645020077594 A 0 0 0 1 1 381.2 241.80645020077594" fill-opacity="0.5" stroke-linejoin="bevel" stroke-miterlimit="10" stroke-opacity="0.5"/><path fill="purple" stroke="purple" paint-order="fill stroke markers" d=" M 428.4 241.80645020077594 A 0 0 0 1 1 428.4 241.80645020077594" fill-opacity="0.5" stroke-linejoin="bevel" stroke-miterlimit="10" stroke-opacity="0.5"/><path fill="purple" stroke="purple" paint-order="fill stroke markers" d=" M 475.6 241.80645020077594 A 0 0 0 1 1 475.6 241.80645020077594" fill-opacity="0.5" stroke-linejoin="bevel" stroke-miterlimit="10" stroke-opacity="0.5"/><path fill="purple" stroke="purple" paint-order="fill stroke markers" d=" M 522.8 241.80645020077594 A 0 0 0 1 1 522.8 241.80645020077594" fill-opacity="0.5" stroke-linejoin="bevel" stroke-miterlimit="10" stroke-opacity="0.5"/><path fill="purple" stroke="purple" paint-order="fill stroke markers" d=" M 570 241.80645020077594 A 0 0 0 1 1 570 241.80645020077594" fill-opacity="0.5" stroke-linejoin="bevel" stroke-miterlimit="10" stroke-opacity="0.5"/></g></g></g><g clip-path="url(#ZyosgUpbfidd)"><g><g><path fill="none" stroke="none"/><path fill="none" stroke="purple" paint-order="fill stroke markers" d=" M 98 241.80645020077594 L 145.2 241.80645020077594 L 192.4 241.80645020077594 L 239.6 241.80645020077594 L 286.8 241.80645020077594 L 334 241.80645020077594 L 381.2 241.80645020077594 L 428.4 241.80645020077594 L 475.6 241.80645020077594 L 522.8 241.80645020077594 L 570 241.80645020077594" stroke-linejoin="bevel" stroke-miterlimit="10" stroke-width="5" stroke-dasharray="4,4"/></g></g></g><g clip-path="url(#uQBxwIBhHmKB)"><g><g><path fill="none" stroke="none"/><path fill="gray" stroke="none" paint-order="stroke fill markers" d=" M 98 397.564935064935 L 570 30.681818181818187 L 570 177.43506493506487 L 98 544.3181818181818 Z" fill-opacity="0.25"/></g></g></g><g clip-path="url(#GmncfEFZFpwi)"><g><g/><g><path fill="#ffffff" stroke="#e5e5e5" paint-order="fill stroke markers" d=" M 200 502 L 560 502 L 560 560 L 200 560 L 200 502 Z" fill-opacity="0.95" stroke-linejoin="bevel" stroke-miterlimit="10" stroke-opacity="0.5"/><text fill="#444444" stroke="none" font-family="helvetica" font-size="26pt" font-style="normal" font-weight="normal" text-decoration="normal" x="235" y="531" text-anchor="start" dominant-baseline="central">Error Margins ±20%</text><rect fill="gray" stroke="none" x="212" y="514" width="16" height="16" fill-opacity="0.25"/></g></g></g><g/><g/><g><g fill="#444444"><path fill="none" stroke="black" paint-order="fill stroke markers" d=" M 98 570 L 570 570" stroke-linejoin="bevel" stroke-miterlimit="10"/><path fill="none" stroke="black" paint-order="fill stroke markers" d=" M 98 576 L 98 568" stroke-linejoin="bevel" stroke-miterlimit="10"/><path fill="none" stroke="black" paint-order="fill stroke markers" d=" M 192 576 L 192 568" stroke-linejoin="bevel" stroke-miterlimit="10"/><path fill="none" stroke="black" paint-order="fill stroke markers" d=" M 287 576 L 287 568" stroke-linejoin="bevel" stroke-miterlimit="10"/><path fill="none" stroke="black" paint-order="fill stroke markers" d=" M 381 576 L 381 568" stroke-linejoin="bevel" stroke-miterlimit="10"/><path fill="none" stroke="black" paint-order="fill stroke markers" d=" M 476 576 L 476 568" stroke-linejoin="bevel" stroke-miterlimit="10"/><path fill="none" stroke="black" paint-order="fill stroke markers" d=" M 570 576 L 570 568" stroke-linejoin="bevel" stroke-miterlimit="10"/><path fill="none" stroke="black" paint-order="fill stroke markers" d=" M 98 574 L 98 570" stroke-linejoin="bevel" stroke-miterlimit="10"/><path fill="none" stroke="black" paint-order="fill stroke markers" d=" M 117 574 L 117 570" stroke-linejoin="bevel" stroke-miterlimit="10"/><path fill="none" stroke="black" paint-order="fill stroke markers" d=" M 136 574 L 136 570" stroke-linejoin="bevel" stroke-miterlimit="10"/><path fill="none" stroke="black" paint-order="fill stroke markers" d=" M 155 574 L 155 570" stroke-linejoin="bevel" stroke-miterlimit="10"/><path fill="none" stroke="black" paint-order="fill stroke markers" d=" M 174 574 L 174 570" stroke-linejoin="bevel" stroke-miterlimit="10"/><path fill="none" stroke="black" paint-order="fill stroke markers" d=" M 192 574 L 192 570" stroke-linejoin="bevel" stroke-miterlimit="10"/><path fill="none" stroke="black" paint-order="fill stroke markers" d=" M 211 574 L 211 570" stroke-linejoin="bevel" stroke-miterlimit="10"/><path fill="none" stroke="black" paint-order="fill stroke markers" d=" M 230 574 L 230 570" stroke-linejoin="bevel" stroke-miterlimit="10"/><path fill="none" stroke="black" paint-order="fill stroke markers" d=" M 249 574 L 249 570" stroke-linejoin="bevel" stroke-miterlimit="10"/><path fill="none" stroke="black" paint-order="fill stroke markers" d=" M 268 574 L 268 570" stroke-linejoin="bevel" stroke-miterlimit="10"/><path fill="none" stroke="black" paint-order="fill stroke markers" d=" M 287 574 L 287 570" stroke-linejoin="bevel" stroke-miterlimit="10"/><path fill="none" stroke="black" paint-order="fill stroke markers" d=" M 306 574 L 306 570" stroke-linejoin="bevel" stroke-miterlimit="10"/><path fill="none" stroke="black" paint-order="fill stroke markers" d=" M 325 574 L 325 570" stroke-linejoin="bevel" stroke-miterlimit="10"/><path fill="none" stroke="black" paint-order="fill stroke markers" d=" M 343 574 L 343 570" stroke-linejoin="bevel" stroke-miterlimit="10"/><path fill="none" stroke="black" paint-order="fill stroke markers" d=" M 362 574 L 362 570" stroke-linejoin="bevel" stroke-miterlimit="10"/><path fill="none" stroke="black" paint-order="fill stroke markers" d=" M 381 574 L 381 570" stroke-linejoin="bevel" stroke-miterlimit="10"/><path fill="none" stroke="black" paint-order="fill stroke markers" d=" M 400 574 L 400 570" stroke-linejoin="bevel" stroke-miterlimit="10"/><path fill="none" stroke="black" paint-order="fill stroke markers" d=" M 419 574 L 419 570" stroke-linejoin="bevel" stroke-miterlimit="10"/><path fill="none" stroke="black" paint-order="fill stroke markers" d=" M 438 574 L 438 570" stroke-linejoin="bevel" stroke-miterlimit="10"/><path fill="none" stroke="black" paint-order="fill stroke markers" d=" M 457 574 L 457 570" stroke-linejoin="bevel" stroke-miterlimit="10"/><path fill="none" stroke="black" paint-order="fill stroke markers" d=" M 476 574 L 476 570" stroke-linejoin="bevel" stroke-miterlimit="10"/><path fill="none" stroke="black" paint-order="fill stroke markers" d=" M 494 574 L 494 570" stroke-linejoin="bevel" stroke-miterlimit="10"/><path fill="none" stroke="black" paint-order="fill stroke markers" d=" M 513 574 L 513 570" stroke-linejoin="bevel" stroke-miterlimit="10"/><path fill="none" stroke="black" paint-order="fill stroke markers" d=" M 532 574 L 532 570" stroke-linejoin="bevel" stroke-miterlimit="10"/><path fill="none" stroke="black" paint-order="fill stroke markers" d=" M 551 574 L 551 570" stroke-linejoin="bevel" stroke-miterlimit="10"/><path fill="" stroke="black" paint-order="fill stroke markers" d=" M 570 574 L 570 570" stroke-linejoin="bevel" stroke-miterlimit="10"/><g transform="translate(98,581) rotate(0,0,0)"><text fill="" stroke="none" font-family="helvetica" font-size="26px" font-style="normal" font-weight="normal" text-decoration="normal" x="0" y="0" text-anchor="middle" dominant-baseline="hanging">0</text><g transform="rotate(0,0,0) translate(-98,-581) translate(192,581) rotate(0,0,0)"><text fill="" stroke="none" font-family="helvetica" font-size="26px" font-style="normal" font-weight="normal" text-decoration="normal" x="0" y="0" text-anchor="middle" dominant-baseline="hanging">0.2</text><g transform="rotate(0,0,0) translate(-192,-581) translate(287,581) rotate(0,0,0)"><text fill="" stroke="none" font-family="helvetica" font-size="26px" font-style="normal" font-weight="normal" text-decoration="normal" x="0" y="0" text-anchor="middle" dominant-baseline="hanging">0.4</text><g transform="rotate(0,0,0) translate(-287,-581) translate(381,581) rotate(0,0,0)"><text fill="" stroke="none" font-family="helvetica" font-size="26px" font-style="normal" font-weight="normal" text-decoration="normal" x="0" y="0" text-anchor="middle" dominant-baseline="hanging">0.6</text><g transform="rotate(0,0,0) translate(-381,-581) translate(476,581) rotate(0,0,0)"><text fill="" stroke="none" font-family="helvetica" font-size="26px" font-style="normal" font-weight="normal" text-decoration="normal" x="0" y="0" text-anchor="middle" dominant-baseline="hanging">0.8</text><g transform="rotate(0,0,0) translate(-476,-581) translate(570,581) rotate(0,0,0)"><text fill="" stroke="none" font-family="helvetica" font-size="26px" font-style="normal" font-weight="normal" text-decoration="normal" x="0" y="0" text-anchor="middle" dominant-baseline="hanging">1</text><g transform="rotate(0,0,0) translate(-570,-581)"/></g></g></g></g></g></g></g></g><g><g fill="#444444"><path fill="none" stroke="black" paint-order="fill stroke markers" d=" M 98 570 L 98 5" stroke-linejoin="bevel" stroke-miterlimit="10"/><path fill="none" stroke="black" paint-order="fill stroke markers" d=" M 92 544 L 100 544" stroke-linejoin="bevel" stroke-miterlimit="10"/><path fill="none" stroke="black" paint-order="fill stroke markers" d=" M 92 471 L 100 471" stroke-linejoin="bevel" stroke-miterlimit="10"/><path fill="none" stroke="black" paint-order="fill stroke markers" d=" M 92 398 L 100 398" stroke-linejoin="bevel" stroke-miterlimit="10"/><path fill="none" stroke="black" paint-order="fill stroke markers" d=" M 92 324 L 100 324" stroke-linejoin="bevel" stroke-miterlimit="10"/><path fill="none" stroke="black" paint-order="fill stroke markers" d=" M 92 251 L 100 251" stroke-linejoin="bevel" stroke-miterlimit="10"/><path fill="none" stroke="black" paint-order="fill stroke markers" d=" M 92 177 L 100 177" stroke-linejoin="bevel" stroke-miterlimit="10"/><path fill="none" stroke="black" paint-order="fill stroke markers" d=" M 92 104 L 100 104" stroke-linejoin="bevel" stroke-miterlimit="10"/><path fill="none" stroke="black" paint-order="fill stroke markers" d=" M 92 31 L 100 31" stroke-linejoin="bevel" stroke-miterlimit="10"/><path fill="none" stroke="black" paint-order="fill stroke markers" d=" M 94 559 L 98 559" stroke-linejoin="bevel" stroke-miterlimit="10"/><path fill="none" stroke="black" paint-order="fill stroke markers" d=" M 94 544 L 98 544" stroke-linejoin="bevel" stroke-miterlimit="10"/><path fill="none" stroke="black" paint-order="fill stroke markers" d=" M 94 530 L 98 530" stroke-linejoin="bevel" stroke-miterlimit="10"/><path fill="none" stroke="black" paint-order="fill stroke markers" d=" M 94 515 L 98 515" stroke-linejoin="bevel" stroke-miterlimit="10"/><path fill="none" stroke="black" paint-order="fill stroke markers" d=" M 94 500 L 98 500" stroke-linejoin="bevel" stroke-miterlimit="10"/><path fill="none" stroke="black" paint-order="fill stroke markers" d=" M 94 486 L 98 486" stroke-linejoin="bevel" stroke-miterlimit="10"/><path fill="none" stroke="black" paint-order="fill stroke markers" d=" M 94 471 L 98 471" stroke-linejoin="bevel" stroke-miterlimit="10"/><path fill="none" stroke="black" paint-order="fill stroke markers" d=" M 94 456 L 98 456" stroke-linejoin="bevel" stroke-miterlimit="10"/><path fill="none" stroke="black" paint-order="fill stroke markers" d=" M 94 442 L 98 442" stroke-linejoin="bevel" stroke-miterlimit="10"/><path fill="none" stroke="black" paint-order="fill stroke markers" d=" M 94 427 L 98 427" stroke-linejoin="bevel" stroke-miterlimit="10"/><path fill="none" stroke="black" paint-order="fill stroke markers" d=" M 94 412 L 98 412" stroke-linejoin="bevel" stroke-miterlimit="10"/><path fill="none" stroke="black" paint-order="fill stroke markers" d=" M 94 398 L 98 398" stroke-linejoin="bevel" stroke-miterlimit="10"/><path fill="none" stroke="black" paint-order="fill stroke markers" d=" M 94 383 L 98 383" stroke-linejoin="bevel" stroke-miterlimit="10"/><path fill="none" stroke="black" paint-order="fill stroke markers" d=" M 94 368 L 98 368" stroke-linejoin="bevel" stroke-miterlimit="10"/><path fill="none" stroke="black" paint-order="fill stroke markers" d=" M 94 354 L 98 354" stroke-linejoin="bevel" stroke-miterlimit="10"/><path fill="none" stroke="black" paint-order="fill stroke markers" d=" M 94 339 L 98 339" stroke-linejoin="bevel" stroke-miterlimit="10"/><path fill="none" stroke="black" paint-order="fill stroke markers" d=" M 94 324 L 98 324" stroke-linejoin="bevel" stroke-miterlimit="10"/><path fill="none" stroke="black" paint-order="fill stroke markers" d=" M 94 310 L 98 310" stroke-linejoin="bevel" stroke-miterlimit="10"/><path fill="none" stroke="black" paint-order="fill stroke markers" d=" M 94 295 L 98 295" stroke-linejoin="bevel" stroke-miterlimit="10"/><path fill="none" stroke="black" paint-order="fill stroke markers" d=" M 94 280 L 98 280" stroke-linejoin="bevel" stroke-miterlimit="10"/><path fill="none" stroke="black" paint-order="fill stroke markers" d=" M 94 265 L 98 265" stroke-linejoin="bevel" stroke-miterlimit="10"/><path fill="none" stroke="black" paint-order="fill stroke markers" d=" M 94 251 L 98 251" stroke-linejoin="bevel" stroke-miterlimit="10"/><path fill="none" stroke="black" paint-order="fill stroke markers" d=" M 94 236 L 98 236" stroke-linejoin="bevel" stroke-miterlimit="10"/><path fill="none" stroke="black" paint-order="fill stroke markers" d=" M 94 221 L 98 221" stroke-linejoin="bevel" stroke-miterlimit="10"/><path fill="none" stroke="black" paint-order="fill stroke markers" d=" M 94 207 L 98 207" stroke-linejoin="bevel" stroke-miterlimit="10"/><path fill="none" stroke="black" paint-order="fill stroke markers" d=" M 94 192 L 98 192" stroke-linejoin="bevel" stroke-miterlimit="10"/><path fill="none" stroke="black" paint-order="fill stroke markers" d=" M 94 177 L 98 177" stroke-linejoin="bevel" stroke-miterlimit="10"/><path fill="none" stroke="black" paint-order="fill stroke markers" d=" M 94 163 L 98 163" stroke-linejoin="bevel" stroke-miterlimit="10"/><path fill="none" stroke="black" paint-order="fill stroke markers" d=" M 94 148 L 98 148" stroke-linejoin="bevel" stroke-miterlimit="10"/><path fill="none" stroke="black" paint-order="fill stroke markers" d=" M 94 133 L 98 133" stroke-linejoin="bevel" stroke-miterlimit="10"/><path fill="none" stroke="black" paint-order="fill stroke markers" d=" M 94 119 L 98 119" stroke-linejoin="bevel" stroke-miterlimit="10"/><path fill="none" stroke="black" paint-order="fill stroke markers" d=" M 94 104 L 98 104" stroke-linejoin="bevel" stroke-miterlimit="10"/><path fill="none" stroke="black" paint-order="fill stroke markers" d=" M 94 89 L 98 89" stroke-linejoin="bevel" stroke-miterlimit="10"/><path fill="none" stroke="black" paint-order="fill stroke markers" d=" M 94 75 L 98 75" stroke-linejoin="bevel" stroke-miterlimit="10"/><path fill="none" stroke="black" paint-order="fill stroke markers" d=" M 94 60 L 98 60" stroke-linejoin="bevel" stroke-miterlimit="10"/><path fill="none" stroke="black" paint-order="fill stroke markers" d=" M 94 45 L 98 45" stroke-linejoin="bevel" stroke-miterlimit="10"/><path fill="none" stroke="black" paint-order="fill stroke markers" d=" M 94 31 L 98 31" stroke-linejoin="bevel" stroke-miterlimit="10"/><path fill="" stroke="black" paint-order="fill stroke markers" d=" M 94 16 L 98 16" stroke-linejoin="bevel" stroke-miterlimit="10"/><g transform="translate(87,544) rotate(0,0,0)"><text fill="" stroke="none" font-family="helvetica" font-size="26px" font-style="normal" font-weight="normal" text-decoration="normal" x="0" y="0" text-anchor="end" dominant-baseline="central">-0.2</text><g transform="rotate(0,0,0) translate(-87,-544) translate(87,471) rotate(0,0,0)"><text fill="" stroke="none" font-family="helvetica" font-size="26px" font-style="normal" font-weight="normal" text-decoration="normal" x="0" y="0" text-anchor="end" dominant-baseline="central">0</text><g transform="rotate(0,0,0) translate(-87,-471) translate(87,398) rotate(0,0,0)"><text fill="" stroke="none" font-family="helvetica" font-size="26px" font-style="normal" font-weight="normal" text-decoration="normal" x="0" y="0" text-anchor="end" dominant-baseline="central">0.2</text><g transform="rotate(0,0,0) translate(-87,-398) translate(87,324) rotate(0,0,0)"><text fill="" stroke="none" font-family="helvetica" font-size="26px" font-style="normal" font-weight="normal" text-decoration="normal" x="0" y="0" text-anchor="end" dominant-baseline="central">0.4</text><g transform="rotate(0,0,0) translate(-87,-324) translate(87,251) rotate(0,0,0)"><text fill="" stroke="none" font-family="helvetica" font-size="26px" font-style="normal" font-weight="normal" text-decoration="normal" x="0" y="0" text-anchor="end" dominant-baseline="central">0.6</text><g transform="rotate(0,0,0) translate(-87,-251) translate(87,177) rotate(0,0,0)"><text fill="" stroke="none" font-family="helvetica" font-size="26px" font-style="normal" font-weight="normal" text-decoration="normal" x="0" y="0" text-anchor="end" dominant-baseline="central">0.8</text><g transform="rotate(0,0,0) translate(-87,-177) translate(87,104) rotate(0,0,0)"><text fill="" stroke="none" font-family="helvetica" font-size="26px" font-style="normal" font-weight="normal" text-decoration="normal" x="0" y="0" text-anchor="end" dominant-baseline="central">1</text><g transform="rotate(0,0,0) translate(-87,-104) translate(87,31) rotate(0,0,0)"><text fill="" stroke="none" font-family="helvetica" font-size="26px" font-style="normal" font-weight="normal" text-decoration="normal" x="0" y="0" text-anchor="end" dominant-baseline="central">1.2</text><g transform="rotate(0,0,0) translate(-87,-31) translate(25,288) rotate(-90,0,0)"><text fill="" stroke="none" font-family="helvetica" font-size="26pt" font-style="italic" font-weight="normal" text-decoration="normal" x="0" y="0" text-anchor="middle" dominant-baseline="alphabetic">Spread Ratio (Female)</text><g transform="rotate(90,0,0) translate(-25,-288)"/></g></g></g></g></g></g></g></g></g></g></g><g clip-path="url(#VcbTKFdBTRmK)"><g/></g></g></g></svg>