<svg version="1.1" xmlns="http://www.w3.org/2000/svg" xmlns:xlink="http://www.w3.org/1999/xlink" width="600" height="600" style="width: 600px; height: 600px;"><defs><clipPath id="BQUuiexdwkok"><path fill="none" stroke="none" d=" M 80 5 L 570 5 L 570 545 L 80 545 L 80 5 Z"/></clipPath><clipPath id="zDiLmzwZzeRD"><path fill="none" stroke="none" d=" M 80 5 L 570 5 L 570 545 L 80 545 L 80 5 Z"/></clipPath><clipPath id="BrZZrilhvxTv"><path fill="none" stroke="none" d=" M 80 5 L 570 5 L 570 545 L 80 545 L 80 5 Z"/></clipPath><clipPath id="KFWwTAZDIXlL"><path fill="none" stroke="none" d=" M 80 5 L 570 5 L 570 545 L 80 545 L 80 5 Z"/></clipPath><clipPath id="yOTQNVkObQoS"><path fill="none" stroke="none" d=" M 80 5 L 570 5 L 570 545 L 80 545 L 80 5 Z"/></clipPath><clipPath id="zgiHNxURTFhl"><path fill="none" stroke="none" d=" M 80 5 L 570 5 L 570 545 L 80 545 L 80 5 Z"/></clipPath><clipPath id="HLiTdmvoXVkQ"><path fill="none" stroke="none" d=" M 80 5 L 570 5 L 570 545 L 80 545 L 80 5 Z"/></clipPath><clipPath id="pQwXLyMEskNQ"><path fill="none" stroke="none" d=" M 80 5 L 570 5 L 570 545 L 80 545 L 80 5 Z"/></clipPath><clipPath id="zIPDDfUkVTOs"><path fill="none" stroke="none" d=" M 80 5 L 570 5 L 570 545 L 80 545 L 80 5 Z"/></clipPath><clipPath id="JzyWCwfBTZGE"><path fill="none" stroke="none" d=" M 80 5 L 570 5 L 570 545 L 80 545 L 80 5 Z"/></clipPath><clipPath id="TtyXiKtwSIdA"><path fill="none" stroke="none" d=" M 80 5 L 570 5 L 570 545 L 80 545 L 80 5 Z"/></clipPath><clipPath id="QOlVMfdTqeoC"><path fill="none" stroke="none" d=" M 80 5 L 570 5 L 570 545 L 80 545 L 80 5 Z"/></clipPath><clipPath id="TrcrWyZBGScu"><path fill="none" stroke="none" d=" M 80 5 L 570 5 L 570 545 L 80 545 L 80 5 Z"/></clipPath><clipPath id="NiiByGMheEXC"><path fill="none" stroke="none" d=" M 80 5 L 570 5 L 570 545 L 80 545 L 80 5 Z"/></clipPath><clipPath id="NFwxCePMwzyQ"><path fill="none" stroke="none" d=" M 80 5 L 570 5 L 570 545 L 80 545 L 80 5 Z"/></clipPath><clipPath id="OKRToHiKMIIu"><path fill="none" stroke="none" d=" M 80 5 L 570 5 L 570 545 L 80 545 L 80 5 Z"/></clipPath></defs><g><g transform="scale(1,1) translate(0.5,0.5)"><rect fill="#FFFFFF" stroke="none" x="0" y="0" width="600" height="600"/><rect fill="#ffffff" stroke="none" x="0" y="0" width="600" height="600"/><rect fill="#FFFFFF" stroke="none" x="80" y="5" width="490" height="540"/><rect fill="#ffffff" stroke="none" x="80" y="5" width="490" height="540"/><g><rect fill="none" stroke="#e5e5e5" x="80" y="5" width="490" height="540" stroke-linejoin="bevel" stroke-miterlimit="10"/></g><g clip-path="url(#BQUuiexdwkok)"><g><g><path fill="none" stroke="#e5e5e5" paint-order="fill stroke markers" d=" M 227 545 L 227 5" stroke-linejoin="bevel" stroke-miterlimit="10"/><path fill="none" stroke="#e5e5e5" paint-order="fill stroke markers" d=" M 325 545 L 325 5" stroke-linejoin="bevel" stroke-miterlimit="10"/><path fill="none" stroke="#e5e5e5" paint-order="fill stroke markers" d=" M 423 545 L 423 5" stroke-linejoin="bevel" stroke-miterlimit="10"/><path fill="none" stroke="#e5e5e5" paint-order="fill stroke markers" d=" M 521 545 L 521 5" stroke-linejoin="bevel" stroke-miterlimit="10"/></g></g></g><g clip-path="url(#zDiLmzwZzeRD)"><g><g><path fill="none" stroke="#e5e5e5" paint-order="fill stroke markers" d=" M 80 437 L 570 437" stroke-linejoin="bevel" stroke-miterlimit="10"/><path fill="none" stroke="#e5e5e5" paint-order="fill stroke markers" d=" M 80 329 L 570 329" stroke-linejoin="bevel" stroke-miterlimit="10"/><path fill="none" stroke="#e5e5e5" paint-order="fill stroke markers" d=" M 80 221 L 570 221" stroke-linejoin="bevel" stroke-miterlimit="10"/><path fill="none" stroke="#e5e5e5" paint-order="fill stroke markers" d=" M 80 113 L 570 113" stroke-linejoin="bevel" stroke-miterlimit="10"/></g></g></g><g clip-path="url(#BrZZrilhvxTv)"><g><g><path fill="none" stroke="none"/><path fill="rgb(0,0,0)" stroke="none" paint-order="stroke fill markers" d=" M 84.9 545 L 173.1 545 L 173.1 545 L 84.9 545 L 84.9 545 Z" fill-opacity="0"/><path fill="none" stroke="rgb(0,0,0)" paint-order="fill stroke markers" d=" M 84.9 545 L 173.1 545 L 173.1 545 L 84.9 545 L 84.9 545 Z" stroke-opacity="0" stroke-linejoin="bevel" stroke-miterlimit="10"/><path fill="rgb(0,0,0)" stroke="none" paint-order="stroke fill markers" d=" M 182.89999999999998 501.8 L 271.1 501.8 L 271.1 545 L 182.89999999999998 545 L 182.89999999999998 501.8 Z" fill-opacity="0"/><path fill="none" stroke="rgb(0,0,0)" paint-order="fill stroke markers" d=" M 182.89999999999998 501.8 L 271.1 501.8 L 271.1 545 L 182.89999999999998 545 L 182.89999999999998 501.8 Z" stroke-opacity="0" stroke-linejoin="bevel" stroke-miterlimit="10"/><path fill="rgb(0,0,0)" stroke="none" paint-order="stroke fill markers" d=" M 280.9 393.79999999999995 L 369.1 393.79999999999995 L 369.1 545 L 280.9 545 L 280.9 393.79999999999995 Z" fill-opacity="0"/><path fill="none" stroke="rgb(0,0,0)" paint-order="fill stroke markers" d=" M 280.9 393.79999999999995 L 369.1 393.79999999999995 L 369.1 545 L 280.9 545 L 280.9 393.79999999999995 Z" stroke-opacity="0" stroke-linejoin="bevel" stroke-miterlimit="10"/><path fill="rgb(0,0,0)" stroke="none" paint-order="stroke fill markers" d=" M 378.9 177.79999999999995 L 467.1 177.79999999999995 L 467.1 545 L 378.9 545 L 378.9 177.79999999999995 Z" fill-opacity="0"/><path fill="none" stroke="rgb(0,0,0)" paint-order="fill stroke markers" d=" M 378.9 177.79999999999995 L 467.1 177.79999999999995 L 467.1 545 L 378.9 545 L 378.9 177.79999999999995 Z" stroke-opacity="0" stroke-linejoin="bevel" stroke-miterlimit="10"/><path fill="rgb(0,0,0)" stroke="none" paint-order="stroke fill markers" d=" M 476.9 69.80000000000001 L 565.1 69.80000000000001 L 565.1 545 L 476.9 545 L 476.9 69.80000000000001 Z" fill-opacity="0"/><path fill="none" stroke="rgb(0,0,0)" paint-order="fill stroke markers" d=" M 476.9 69.80000000000001 L 565.1 69.80000000000001 L 565.1 545 L 476.9 545 L 476.9 69.80000000000001 Z" stroke-opacity="0" stroke-linejoin="bevel" stroke-miterlimit="10"/></g></g></g><g clip-path="url(#KFWwTAZDIXlL)"><g><g><path fill="none" stroke="none"/><path fill="gray" stroke="none" paint-order="stroke fill markers" d=" M 84.9 480.2 L 173.1 480.2 L 173.1 545 L 84.9 545 L 84.9 480.2 Z" fill-opacity="0.35"/><path fill="none" stroke="gray" paint-order="fill stroke markers" d=" M 84.9 480.2 L 173.1 480.2 L 173.1 545 L 84.9 545 L 84.9 480.2 Z" stroke-linejoin="bevel" stroke-miterlimit="10" stroke-opacity="0.35"/><path fill="gray" stroke="none" paint-order="stroke fill markers" d=" M 182.89999999999998 372.2 L 271.1 372.2 L 271.1 501.8 L 182.89999999999998 501.8 L 182.89999999999998 372.2 Z" fill-opacity="0.35"/><path fill="none" stroke="gray" paint-order="fill stroke markers" d=" M 182.89999999999998 372.2 L 271.1 372.2 L 271.1 501.8 L 182.89999999999998 501.8 L 182.89999999999998 372.2 Z" stroke-linejoin="bevel" stroke-miterlimit="10" stroke-opacity="0.35"/><path fill="gray" stroke="none" paint-order="stroke fill markers" d=" M 280.9 264.2 L 369.1 264.2 L 369.1 393.79999999999995 L 280.9 393.79999999999995 L 280.9 264.2 Z" fill-opacity="0.35"/><path fill="none" stroke="gray" paint-order="fill stroke markers" d=" M 280.9 264.2 L 369.1 264.2 L 369.1 393.79999999999995 L 280.9 393.79999999999995 L 280.9 264.2 Z" stroke-linejoin="bevel" stroke-miterlimit="10" stroke-opacity="0.35"/><path fill="gray" stroke="none" paint-order="stroke fill markers" d=" M 378.9 48.19999999999999 L 467.1 48.19999999999999 L 467.1 177.79999999999995 L 378.9 177.79999999999995 L 378.9 48.19999999999999 Z" fill-opacity="0.35"/><path fill="none" stroke="gray" paint-order="fill stroke markers" d=" M 378.9 48.19999999999999 L 467.1 48.19999999999999 L 467.1 177.79999999999995 L 378.9 177.79999999999995 L 378.9 48.19999999999999 Z" stroke-linejoin="bevel" stroke-miterlimit="10" stroke-opacity="0.35"/><path fill="gray" stroke="none" paint-order="stroke fill markers" d=" M 476.9 5 L 565.1 5 L 565.1 69.80000000000001 L 476.9 69.80000000000001 L 476.9 5 Z" fill-opacity="0.35"/><path fill="none" stroke="gray" paint-order="fill stroke markers" d=" M 476.9 5 L 565.1 5 L 565.1 69.80000000000001 L 476.9 69.80000000000001 L 476.9 5 Z" stroke-linejoin="bevel" stroke-miterlimit="10" stroke-opacity="0.35"/></g></g></g><g clip-path="url(#yOTQNVkObQoS)"><g><g><path fill="none" stroke="none"/><path fill="red" stroke="red" paint-order="fill stroke markers" d=" M 144.689898 498.53533082241836 A 15.689898 15.689898 0 1 1 144.68989015505164 498.5196409270333" fill-opacity="0.5" stroke-linejoin="bevel" stroke-miterlimit="10" stroke-opacity="0.5"/><path fill="red" stroke="red" paint-order="fill stroke markers" d=" M 248.99757 389.54957343015616 A 21.997569999999996 21.997569999999996 0 1 1 248.9975590012159 389.5275758638224" fill-opacity="0.5" stroke-linejoin="bevel" stroke-miterlimit="10" stroke-opacity="0.5"/><path fill="red" stroke="red" paint-order="fill stroke markers" d=" M 350.862788 299.56647442650035 A 25.862788000000023 25.862788000000023 0 1 1 350.8627750686071 299.5406116428108" fill-opacity="0.5" stroke-linejoin="bevel" stroke-miterlimit="10" stroke-opacity="0.5"/><path fill="red" stroke="red" paint-order="fill stroke markers" d=" M 449.261844 129.99809685869735 A 26.261843999999996 26.261843999999996 0 1 1 449.26183086907906 129.97183501907432" fill-opacity="0.5" stroke-linejoin="bevel" stroke-miterlimit="10" stroke-opacity="0.5"/><path fill="red" stroke="red" paint-order="fill stroke markers" d=" M 542.283052 49.005820217889834 A 21.283051999999998 21.283051999999998 0 1 1 542.2830413584749 48.984537169437" fill-opacity="0.5" stroke-linejoin="bevel" stroke-miterlimit="10" stroke-opacity="0.5"/></g></g></g><g clip-path="url(#zgiHNxURTFhl)"><g><g><path fill="none" stroke="none"/><path fill="none" stroke="red" paint-order="fill stroke markers" d=" M 129 498.53533082241836 L 227 389.54957343015616 L 325 299.56647442650035 L 423 129.99809685869735 L 521 49.005820217889834" stroke-linejoin="bevel" stroke-miterlimit="10" stroke-width="7" stroke-dasharray="4,4"/></g></g></g><g clip-path="url(#HLiTdmvoXVkQ)"><g><g><path fill="none" stroke="none"/><path fill="black" stroke="black" paint-order="fill stroke markers" d=" M 129 364.6554679465204 A 0 0 0 1 1 129 364.6554679465204" fill-opacity="0.5" stroke-linejoin="bevel" stroke-miterlimit="10" stroke-opacity="0.5"/><path fill="black" stroke="black" paint-order="fill stroke markers" d=" M 227 364.0476235669273 A 0 0 0 1 1 227 364.0476235669273" fill-opacity="0.5" stroke-linejoin="bevel" stroke-miterlimit="10" stroke-opacity="0.5"/><path fill="black" stroke="black" paint-order="fill stroke markers" d=" M 325 316.6697137827943 A 0 0 0 1 1 325 316.6697137827943" fill-opacity="0.5" stroke-linejoin="bevel" stroke-miterlimit="10" stroke-opacity="0.5"/><path fill="black" stroke="black" paint-order="fill stroke markers" d=" M 423 111.49449107336744 A 0 0 0 1 1 423 111.49449107336744" fill-opacity="0.5" stroke-linejoin="bevel" stroke-miterlimit="10" stroke-opacity="0.5"/><path fill="black" stroke="black" paint-order="fill stroke markers" d=" M 521 100.43727623727625 A 0 0 0 1 1 521 100.43727623727625" fill-opacity="0.5" stroke-linejoin="bevel" stroke-miterlimit="10" stroke-opacity="0.5"/></g></g></g><g clip-path="url(#pQwXLyMEskNQ)"><g><g><path fill="none" stroke="none"/><path fill="none" stroke="black" paint-order="fill stroke markers" d=" M 129 364.6554679465204 L 227 364.0476235669273 L 325 316.6697137827943 L 423 111.49449107336744 L 521 100.43727623727625" stroke-linejoin="bevel" stroke-miterlimit="10" stroke-width="7" stroke-dasharray="4,4"/></g></g></g><g clip-path="url(#zIPDDfUkVTOs)"><g><g><path fill="none" stroke="none"/><path fill="green" stroke="green" paint-order="fill stroke markers" d=" M 129 353.2199990856231 A 0 0 0 1 1 129 353.2199990856231" fill-opacity="0.5" stroke-linejoin="bevel" stroke-miterlimit="10" stroke-opacity="0.5"/><path fill="green" stroke="green" paint-order="fill stroke markers" d=" M 227 329.8407897195292 A 0 0 0 1 1 227 329.8407897195292" fill-opacity="0.5" stroke-linejoin="bevel" stroke-miterlimit="10" stroke-opacity="0.5"/><path fill="green" stroke="green" paint-order="fill stroke markers" d=" M 325 274.2321596413853 A 0 0 0 1 1 325 274.2321596413853" fill-opacity="0.5" stroke-linejoin="bevel" stroke-miterlimit="10" stroke-opacity="0.5"/><path fill="green" stroke="green" paint-order="fill stroke markers" d=" M 423 181.19027098698933 A 0 0 0 1 1 423 181.19027098698933" fill-opacity="0.5" stroke-linejoin="bevel" stroke-miterlimit="10" stroke-opacity="0.5"/><path fill="green" stroke="green" paint-order="fill stroke markers" d=" M 521 132.77206564008713 A 0 0 0 1 1 521 132.77206564008713" fill-opacity="0.5" stroke-linejoin="bevel" stroke-miterlimit="10" stroke-opacity="0.5"/></g></g></g><g clip-path="url(#JzyWCwfBTZGE)"><g><g><path fill="none" stroke="none"/><path fill="none" stroke="green" paint-order="fill stroke markers" d=" M 129 353.2199990856231 L 227 329.8407897195292 L 325 274.2321596413853 L 423 181.19027098698933 L 521 132.77206564008713" stroke-linejoin="bevel" stroke-miterlimit="10" stroke-width="7" stroke-dasharray="4,4"/></g></g></g><g clip-path="url(#TtyXiKtwSIdA)"><g><g><path fill="none" stroke="none"/><path fill="yellow" stroke="yellow" paint-order="fill stroke markers" d=" M 129 354.8664684231153 A 0 0 0 1 1 129 354.8664684231153" fill-opacity="0.5" stroke-linejoin="bevel" stroke-miterlimit="10" stroke-opacity="0.5"/><path fill="yellow" stroke="yellow" paint-order="fill stroke markers" d=" M 227 314.3703004377903 A 0 0 0 1 1 227 314.3703004377903" fill-opacity="0.5" stroke-linejoin="bevel" stroke-miterlimit="10" stroke-opacity="0.5"/><path fill="yellow" stroke="yellow" paint-order="fill stroke markers" d=" M 325 244.00726048772935 A 0 0 0 1 1 325 244.00726048772935" fill-opacity="0.5" stroke-linejoin="bevel" stroke-miterlimit="10" stroke-opacity="0.5"/><path fill="yellow" stroke="yellow" paint-order="fill stroke markers" d=" M 423 180.07976413585044 A 0 0 0 1 1 423 180.07976413585044" fill-opacity="0.5" stroke-linejoin="bevel" stroke-miterlimit="10" stroke-opacity="0.5"/><path fill="yellow" stroke="yellow" paint-order="fill stroke markers" d=" M 521 168.81493757685826 A 0 0 0 1 1 521 168.81493757685826" fill-opacity="0.5" stroke-linejoin="bevel" stroke-miterlimit="10" stroke-opacity="0.5"/></g></g></g><g clip-path="url(#QOlVMfdTqeoC)"><g><g><path fill="none" stroke="none"/><path fill="none" stroke="yellow" paint-order="fill stroke markers" d=" M 129 354.8664684231153 L 227 314.3703004377903 L 325 244.00726048772935 L 423 180.07976413585044 L 521 168.81493757685826" stroke-linejoin="bevel" stroke-miterlimit="10" stroke-width="7" stroke-dasharray="4,4"/></g></g></g><g clip-path="url(#TrcrWyZBGScu)"><g><g><path fill="none" stroke="none"/><path fill="purple" stroke="purple" paint-order="fill stroke markers" d=" M 129 225.40639999999996 A 0 0 0 1 1 129 225.40639999999996" fill-opacity="0.5" stroke-linejoin="bevel" stroke-miterlimit="10" stroke-opacity="0.5"/><path fill="purple" stroke="purple" paint-order="fill stroke markers" d=" M 227 212.37512000000004 A 0 0 0 1 1 227 212.37512000000004" fill-opacity="0.5" stroke-linejoin="bevel" stroke-miterlimit="10" stroke-opacity="0.5"/><path fill="purple" stroke="purple" paint-order="fill stroke markers" d=" M 325 185.73152 A 0 0 0 1 1 325 185.73152" fill-opacity="0.5" stroke-linejoin="bevel" stroke-miterlimit="10" stroke-opacity="0.5"/><path fill="purple" stroke="purple" paint-order="fill stroke markers" d=" M 423 183.71354000000002 A 0 0 0 1 1 423 183.71354000000002" fill-opacity="0.5" stroke-linejoin="bevel" stroke-miterlimit="10" stroke-opacity="0.5"/><path fill="purple" stroke="purple" paint-order="fill stroke markers" d=" M 521 176.22698000000003 A 0 0 0 1 1 521 176.22698000000003" fill-opacity="0.5" stroke-linejoin="bevel" stroke-miterlimit="10" stroke-opacity="0.5"/></g></g></g><g clip-path="url(#NiiByGMheEXC)"><g><g><path fill="none" stroke="none"/><path fill="none" stroke="purple" paint-order="fill stroke markers" d=" M 129 225.40639999999996 L 227 212.37512000000004 L 325 185.73152 L 423 183.71354000000002 L 521 176.22698000000003" stroke-linejoin="bevel" stroke-miterlimit="10" stroke-width="7" stroke-dasharray="4,4"/></g></g></g><g clip-path="url(#NFwxCePMwzyQ)"><g><g/><g><path fill="#ffffff" stroke="#e5e5e5" paint-order="fill stroke markers" d=" M 90 15 L 378 15 L 378 65 L 90 65 L 90 15 Z" fill-opacity="0.95" stroke-linejoin="bevel" stroke-miterlimit="10" stroke-opacity="0.5"/><text fill="#444444" stroke="none" font-family="helvetica" font-size="20pt" font-style="normal" font-weight="normal" text-decoration="normal" x="125" y="40" text-anchor="start" dominant-baseline="central">Error Margins ±12%</text><rect fill="rgb(0,0,0)" stroke="none" x="102" y="27" width="16" height="16" fill-opacity="0"/><path fill="none" stroke="rgb(0,0,0)" paint-order="fill stroke markers" d=" M 102 27 L 118 27 L 118 43 L 102 43 L 102 27 Z" stroke-opacity="0" stroke-linejoin="bevel" stroke-miterlimit="10"/><rect fill="gray" stroke="none" x="102" y="27" width="16" height="16" fill-opacity="0.35"/><path fill="none" stroke="gray" paint-order="fill stroke markers" d=" M 102 27 L 118 27 L 118 43 L 102 43 L 102 27 Z" stroke-linejoin="bevel" stroke-miterlimit="10" stroke-opacity="0.35"/></g></g></g><g/><g/><g><g fill="#444444"><path fill="none" stroke="black" paint-order="fill stroke markers" d=" M 80 545 L 570 545" stroke-linejoin="bevel" stroke-miterlimit="10"/><path fill="none" stroke="black" paint-order="fill stroke markers" d=" M 129 551 L 129 543" stroke-linejoin="bevel" stroke-miterlimit="10"/><path fill="none" stroke="black" paint-order="fill stroke markers" d=" M 227 551 L 227 543" stroke-linejoin="bevel" stroke-miterlimit="10"/><path fill="none" stroke="black" paint-order="fill stroke markers" d=" M 325 551 L 325 543" stroke-linejoin="bevel" stroke-miterlimit="10"/><path fill="none" stroke="black" paint-order="fill stroke markers" d=" M 423 551 L 423 543" stroke-linejoin="bevel" stroke-miterlimit="10"/><path fill="" stroke="black" paint-order="fill stroke markers" d=" M 521 551 L 521 543" stroke-linejoin="bevel" stroke-miterlimit="10"/><g transform="translate(129,556) rotate(0,0,0)"><text fill="" stroke="none" font-family="helvetica" font-size="20pt" font-style="normal" font-weight="normal" text-decoration="normal" x="0" y="0" text-anchor="middle" dominant-baseline="hanging">0.0</text><g transform="rotate(0,0,0) translate(-129,-556) translate(227,556) rotate(0,0,0)"><text fill="" stroke="none" font-family="helvetica" font-size="20pt" font-style="normal" font-weight="normal" text-decoration="normal" x="0" y="0" text-anchor="middle" dominant-baseline="hanging">0.2</text><g transform="rotate(0,0,0) translate(-227,-556) translate(325,556) rotate(0,0,0)"><text fill="" stroke="none" font-family="helvetica" font-size="20pt" font-style="normal" font-weight="normal" text-decoration="normal" x="0" y="0" text-anchor="middle" dominant-baseline="hanging">0.4</text><g transform="rotate(0,0,0) translate(-325,-556) translate(423,556) rotate(0,0,0)"><text fill="" stroke="none" font-family="helvetica" font-size="20pt" font-style="normal" font-weight="normal" text-decoration="normal" x="0" y="0" text-anchor="middle" dominant-baseline="hanging">0.8</text><g transform="rotate(0,0,0) translate(-423,-556) translate(521,556) rotate(0,0,0)"><text fill="" stroke="none" font-family="helvetica" font-size="20pt" font-style="normal" font-weight="normal" text-decoration="normal" x="0" y="0" text-anchor="middle" dominant-baseline="hanging">1.0</text><g transform="rotate(0,0,0) translate(-521,-556) translate(325,580) rotate(0,0,0)"><text fill="" stroke="none" font-family="helvetica" font-size="20pt" font-style="italic" font-weight="normal" text-decoration="normal" x="0" y="0" text-anchor="middle" dominant-baseline="hanging">Target Ratio(Female)</text><g transform="rotate(0,0,0) translate(-325,-580)"/></g></g></g></g></g></g></g></g><g><g fill="#444444"><path fill="none" stroke="black" paint-order="fill stroke markers" d=" M 80 545 L 80 5" stroke-linejoin="bevel" stroke-miterlimit="10"/><path fill="none" stroke="black" paint-order="fill stroke markers" d=" M 74 545 L 82 545" stroke-linejoin="bevel" stroke-miterlimit="10"/><path fill="none" stroke="black" paint-order="fill stroke markers" d=" M 74 437 L 82 437" stroke-linejoin="bevel" stroke-miterlimit="10"/><path fill="none" stroke="black" paint-order="fill stroke markers" d=" M 74 329 L 82 329" stroke-linejoin="bevel" stroke-miterlimit="10"/><path fill="none" stroke="black" paint-order="fill stroke markers" d=" M 74 221 L 82 221" stroke-linejoin="bevel" stroke-miterlimit="10"/><path fill="none" stroke="black" paint-order="fill stroke markers" d=" M 74 113 L 82 113" stroke-linejoin="bevel" stroke-miterlimit="10"/><path fill="none" stroke="black" paint-order="fill stroke markers" d=" M 74 5 L 82 5" stroke-linejoin="bevel" stroke-miterlimit="10"/><path fill="none" stroke="black" paint-order="fill stroke markers" d=" M 76 545 L 80 545" stroke-linejoin="bevel" stroke-miterlimit="10"/><path fill="none" stroke="black" paint-order="fill stroke markers" d=" M 76 523 L 80 523" stroke-linejoin="bevel" stroke-miterlimit="10"/><path fill="none" stroke="black" paint-order="fill stroke markers" d=" M 76 502 L 80 502" stroke-linejoin="bevel" stroke-miterlimit="10"/><path fill="none" stroke="black" paint-order="fill stroke markers" d=" M 76 480 L 80 480" stroke-linejoin="bevel" stroke-miterlimit="10"/><path fill="none" stroke="black" paint-order="fill stroke markers" d=" M 76 459 L 80 459" stroke-linejoin="bevel" stroke-miterlimit="10"/><path fill="none" stroke="black" paint-order="fill stroke markers" d=" M 76 437 L 80 437" stroke-linejoin="bevel" stroke-miterlimit="10"/><path fill="none" stroke="black" paint-order="fill stroke markers" d=" M 76 415 L 80 415" stroke-linejoin="bevel" stroke-miterlimit="10"/><path fill="none" stroke="black" paint-order="fill stroke markers" d=" M 76 394 L 80 394" stroke-linejoin="bevel" stroke-miterlimit="10"/><path fill="none" stroke="black" paint-order="fill stroke markers" d=" M 76 372 L 80 372" stroke-linejoin="bevel" stroke-miterlimit="10"/><path fill="none" stroke="black" paint-order="fill stroke markers" d=" M 76 351 L 80 351" stroke-linejoin="bevel" stroke-miterlimit="10"/><path fill="none" stroke="black" paint-order="fill stroke markers" d=" M 76 329 L 80 329" stroke-linejoin="bevel" stroke-miterlimit="10"/><path fill="none" stroke="black" paint-order="fill stroke markers" d=" M 76 307 L 80 307" stroke-linejoin="bevel" stroke-miterlimit="10"/><path fill="none" stroke="black" paint-order="fill stroke markers" d=" M 76 286 L 80 286" stroke-linejoin="bevel" stroke-miterlimit="10"/><path fill="none" stroke="black" paint-order="fill stroke markers" d=" M 76 264 L 80 264" stroke-linejoin="bevel" stroke-miterlimit="10"/><path fill="none" stroke="black" paint-order="fill stroke markers" d=" M 76 243 L 80 243" stroke-linejoin="bevel" stroke-miterlimit="10"/><path fill="none" stroke="black" paint-order="fill stroke markers" d=" M 76 221 L 80 221" stroke-linejoin="bevel" stroke-miterlimit="10"/><path fill="none" stroke="black" paint-order="fill stroke markers" d=" M 76 199 L 80 199" stroke-linejoin="bevel" stroke-miterlimit="10"/><path fill="none" stroke="black" paint-order="fill stroke markers" d=" M 76 178 L 80 178" stroke-linejoin="bevel" stroke-miterlimit="10"/><path fill="none" stroke="black" paint-order="fill stroke markers" d=" M 76 156 L 80 156" stroke-linejoin="bevel" stroke-miterlimit="10"/><path fill="none" stroke="black" paint-order="fill stroke markers" d=" M 76 135 L 80 135" stroke-linejoin="bevel" stroke-miterlimit="10"/><path fill="none" stroke="black" paint-order="fill stroke markers" d=" M 76 113 L 80 113" stroke-linejoin="bevel" stroke-miterlimit="10"/><path fill="none" stroke="black" paint-order="fill stroke markers" d=" M 76 91 L 80 91" stroke-linejoin="bevel" stroke-miterlimit="10"/><path fill="none" stroke="black" paint-order="fill stroke markers" d=" M 76 70 L 80 70" stroke-linejoin="bevel" stroke-miterlimit="10"/><path fill="none" stroke="black" paint-order="fill stroke markers" d=" M 76 48 L 80 48" stroke-linejoin="bevel" stroke-miterlimit="10"/><path fill="none" stroke="black" paint-order="fill stroke markers" d=" M 76 27 L 80 27" stroke-linejoin="bevel" stroke-miterlimit="10"/><path fill="" stroke="black" paint-order="fill stroke markers" d=" M 76 5 L 80 5" stroke-linejoin="bevel" stroke-miterlimit="10"/><g transform="translate(69,545) rotate(0,0,0)"><text fill="" stroke="none" font-family="helvetica" font-size="20pt" font-style="normal" font-weight="normal" text-decoration="normal" x="0" y="0" text-anchor="end" dominant-baseline="central">0</text><g transform="rotate(0,0,0) translate(-69,-545) translate(69,437) rotate(0,0,0)"><text fill="" stroke="none" font-family="helvetica" font-size="20pt" font-style="normal" font-weight="normal" text-decoration="normal" x="0" y="0" text-anchor="end" dominant-baseline="central">0.2</text><g transform="rotate(0,0,0) translate(-69,-437) translate(69,329) rotate(0,0,0)"><text fill="" stroke="none" font-family="helvetica" font-size="20pt" font-style="normal" font-weight="normal" text-decoration="normal" x="0" y="0" text-anchor="end" dominant-baseline="central">0.4</text><g transform="rotate(0,0,0) translate(-69,-329) translate(69,221) rotate(0,0,0)"><text fill="" stroke="none" font-family="helvetica" font-size="20pt" font-style="normal" font-weight="normal" text-decoration="normal" x="0" y="0" text-anchor="end" dominant-baseline="central">0.6</text><g transform="rotate(0,0,0) translate(-69,-221) translate(69,113) rotate(0,0,0)"><text fill="" stroke="none" font-family="helvetica" font-size="20pt" font-style="normal" font-weight="normal" text-decoration="normal" x="0" y="0" text-anchor="end" dominant-baseline="central">0.8</text><g transform="rotate(0,0,0) translate(-69,-113) translate(69,5) rotate(0,0,0)"><text fill="" stroke="none" font-family="helvetica" font-size="20pt" font-style="normal" font-weight="normal" text-decoration="normal" x="0" y="0" text-anchor="end" dominant-baseline="central">1</text><g transform="rotate(0,0,0) translate(-69,-5) translate(19,275) rotate(-90,0,0)"><text fill="" stroke="none" font-family="helvetica" font-size="20pt" font-style="italic" font-weight="normal" text-decoration="normal" x="0" y="0" text-anchor="middle" dominant-baseline="alphabetic">Spread Ratio (Female)</text><g transform="rotate(90,0,0) translate(-19,-275)"/></g></g></g></g></g></g></g></g></g><g clip-path="url(#OKRToHiKMIIu)"><g/></g></g></g></svg>