<svg version="1.1" xmlns="http://www.w3.org/2000/svg" xmlns:xlink="http://www.w3.org/1999/xlink" width="600" height="600" style="width: 600px; height: 600px;"><defs><clipPath id="pXXLVbuSEDIe"><path fill="none" stroke="none" d=" M 80 5 L 570 5 L 570 545 L 80 545 L 80 5 Z"/></clipPath><clipPath id="uaRhUZrgWnKR"><path fill="none" stroke="none" d=" M 80 5 L 570 5 L 570 545 L 80 545 L 80 5 Z"/></clipPath><clipPath id="hvNPNcEWeTTM"><path fill="none" stroke="none" d=" M 80 5 L 570 5 L 570 545 L 80 545 L 80 5 Z"/></clipPath><clipPath id="aCZFSGmuXtAW"><path fill="none" stroke="none" d=" M 80 5 L 570 5 L 570 545 L 80 545 L 80 5 Z"/></clipPath><clipPath id="XQDppBIoUxJu"><path fill="none" stroke="none" d=" M 80 5 L 570 5 L 570 545 L 80 545 L 80 5 Z"/></clipPath><clipPath id="bAsJlekoayXk"><path fill="none" stroke="none" d=" M 80 5 L 570 5 L 570 545 L 80 545 L 80 5 Z"/></clipPath><clipPath id="zwqHPFzIryBh"><path fill="none" stroke="none" d=" M 80 5 L 570 5 L 570 545 L 80 545 L 80 5 Z"/></clipPath><clipPath id="WnSymBQnisKg"><path fill="none" stroke="none" d=" M 80 5 L 570 5 L 570 545 L 80 545 L 80 5 Z"/></clipPath><clipPath id="vHnXKCUaybga"><path fill="none" stroke="none" d=" M 80 5 L 570 5 L 570 545 L 80 545 L 80 5 Z"/></clipPath><clipPath id="zhQtHxzkCCkJ"><path fill="none" stroke="none" d=" M 80 5 L 570 5 L 570 545 L 80 545 L 80 5 Z"/></clipPath><clipPath id="feqVlZqqZVTE"><path fill="none" stroke="none" d=" M 80 5 L 570 5 L 570 545 L 80 545 L 80 5 Z"/></clipPath><clipPath id="qfOoosprBvkq"><path fill="none" stroke="none" d=" M 80 5 L 570 5 L 570 545 L 80 545 L 80 5 Z"/></clipPath><clipPath id="UhXvUbgAVxIA"><path fill="none" stroke="none" d=" M 80 5 L 570 5 L 570 545 L 80 545 L 80 5 Z"/></clipPath><clipPath id="CnBnZVkQsWMQ"><path fill="none" stroke="none" d=" M 80 5 L 570 5 L 570 545 L 80 545 L 80 5 Z"/></clipPath><clipPath id="bGXlnCAFApxW"><path fill="none" stroke="none" d=" M 80 5 L 570 5 L 570 545 L 80 545 L 80 5 Z"/></clipPath><clipPath id="SADxwnQIGExT"><path fill="none" stroke="none" d=" M 80 5 L 570 5 L 570 545 L 80 545 L 80 5 Z"/></clipPath></defs><g><g transform="scale(1,1) translate(0.5,0.5)"><rect fill="#FFFFFF" stroke="none" x="0" y="0" width="600" height="600"/><rect fill="#ffffff" stroke="none" x="0" y="0" width="600" height="600"/><rect fill="#FFFFFF" stroke="none" x="80" y="5" width="490" height="540"/><rect fill="#ffffff" stroke="none" x="80" y="5" width="490" height="540"/><g><rect fill="none" stroke="#e5e5e5" x="80" y="5" width="490" height="540" stroke-linejoin="bevel" stroke-miterlimit="10"/></g><g clip-path="url(#pXXLVbuSEDIe)"><g><g><path fill="none" stroke="#e5e5e5" paint-order="fill stroke markers" d=" M 227 545 L 227 5" stroke-linejoin="bevel" stroke-miterlimit="10"/><path fill="none" stroke="#e5e5e5" paint-order="fill stroke markers" d=" M 325 545 L 325 5" stroke-linejoin="bevel" stroke-miterlimit="10"/><path fill="none" stroke="#e5e5e5" paint-order="fill stroke markers" d=" M 423 545 L 423 5" stroke-linejoin="bevel" stroke-miterlimit="10"/><path fill="none" stroke="#e5e5e5" paint-order="fill stroke markers" d=" M 521 545 L 521 5" stroke-linejoin="bevel" stroke-miterlimit="10"/></g></g></g><g clip-path="url(#uaRhUZrgWnKR)"><g><g><path fill="none" stroke="#e5e5e5" paint-order="fill stroke markers" d=" M 80 437 L 570 437" stroke-linejoin="bevel" stroke-miterlimit="10"/><path fill="none" stroke="#e5e5e5" paint-order="fill stroke markers" d=" M 80 329 L 570 329" stroke-linejoin="bevel" stroke-miterlimit="10"/><path fill="none" stroke="#e5e5e5" paint-order="fill stroke markers" d=" M 80 221 L 570 221" stroke-linejoin="bevel" stroke-miterlimit="10"/><path fill="none" stroke="#e5e5e5" paint-order="fill stroke markers" d=" M 80 113 L 570 113" stroke-linejoin="bevel" stroke-miterlimit="10"/></g></g></g><g clip-path="url(#hvNPNcEWeTTM)"><g><g><path fill="none" stroke="none"/><path fill="rgb(0,0,0)" stroke="none" paint-order="stroke fill markers" d=" M 84.9 545 L 173.1 545 L 173.1 545 L 84.9 545 L 84.9 545 Z" fill-opacity="0"/><path fill="none" stroke="rgb(0,0,0)" paint-order="fill stroke markers" d=" M 84.9 545 L 173.1 545 L 173.1 545 L 84.9 545 L 84.9 545 Z" stroke-opacity="0" stroke-linejoin="bevel" stroke-miterlimit="10"/><path fill="rgb(0,0,0)" stroke="none" paint-order="stroke fill markers" d=" M 182.89999999999998 501.8 L 271.1 501.8 L 271.1 545 L 182.89999999999998 545 L 182.89999999999998 501.8 Z" fill-opacity="0"/><path fill="none" stroke="rgb(0,0,0)" paint-order="fill stroke markers" d=" M 182.89999999999998 501.8 L 271.1 501.8 L 271.1 545 L 182.89999999999998 545 L 182.89999999999998 501.8 Z" stroke-opacity="0" stroke-linejoin="bevel" stroke-miterlimit="10"/><path fill="rgb(0,0,0)" stroke="none" paint-order="stroke fill markers" d=" M 280.9 393.79999999999995 L 369.1 393.79999999999995 L 369.1 545 L 280.9 545 L 280.9 393.79999999999995 Z" fill-opacity="0"/><path fill="none" stroke="rgb(0,0,0)" paint-order="fill stroke markers" d=" M 280.9 393.79999999999995 L 369.1 393.79999999999995 L 369.1 545 L 280.9 545 L 280.9 393.79999999999995 Z" stroke-opacity="0" stroke-linejoin="bevel" stroke-miterlimit="10"/><path fill="rgb(0,0,0)" stroke="none" paint-order="stroke fill markers" d=" M 378.9 177.79999999999995 L 467.1 177.79999999999995 L 467.1 545 L 378.9 545 L 378.9 177.79999999999995 Z" fill-opacity="0"/><path fill="none" stroke="rgb(0,0,0)" paint-order="fill stroke markers" d=" M 378.9 177.79999999999995 L 467.1 177.79999999999995 L 467.1 545 L 378.9 545 L 378.9 177.79999999999995 Z" stroke-opacity="0" stroke-linejoin="bevel" stroke-miterlimit="10"/><path fill="rgb(0,0,0)" stroke="none" paint-order="stroke fill markers" d=" M 476.9 69.80000000000001 L 565.1 69.80000000000001 L 565.1 545 L 476.9 545 L 476.9 69.80000000000001 Z" fill-opacity="0"/><path fill="none" stroke="rgb(0,0,0)" paint-order="fill stroke markers" d=" M 476.9 69.80000000000001 L 565.1 69.80000000000001 L 565.1 545 L 476.9 545 L 476.9 69.80000000000001 Z" stroke-opacity="0" stroke-linejoin="bevel" stroke-miterlimit="10"/></g></g></g><g clip-path="url(#aCZFSGmuXtAW)"><g><g><path fill="none" stroke="none"/><path fill="gray" stroke="none" paint-order="stroke fill markers" d=" M 84.9 480.2 L 173.1 480.2 L 173.1 545 L 84.9 545 L 84.9 480.2 Z" fill-opacity="0.35"/><path fill="none" stroke="gray" paint-order="fill stroke markers" d=" M 84.9 480.2 L 173.1 480.2 L 173.1 545 L 84.9 545 L 84.9 480.2 Z" stroke-linejoin="bevel" stroke-miterlimit="10" stroke-opacity="0.35"/><path fill="gray" stroke="none" paint-order="stroke fill markers" d=" M 182.89999999999998 372.2 L 271.1 372.2 L 271.1 501.8 L 182.89999999999998 501.8 L 182.89999999999998 372.2 Z" fill-opacity="0.35"/><path fill="none" stroke="gray" paint-order="fill stroke markers" d=" M 182.89999999999998 372.2 L 271.1 372.2 L 271.1 501.8 L 182.89999999999998 501.8 L 182.89999999999998 372.2 Z" stroke-linejoin="bevel" stroke-miterlimit="10" stroke-opacity="0.35"/><path fill="gray" stroke="none" paint-order="stroke fill markers" d=" M 280.9 264.2 L 369.1 264.2 L 369.1 393.79999999999995 L 280.9 393.79999999999995 L 280.9 264.2 Z" fill-opacity="0.35"/><path fill="none" stroke="gray" paint-order="fill stroke markers" d=" M 280.9 264.2 L 369.1 264.2 L 369.1 393.79999999999995 L 280.9 393.79999999999995 L 280.9 264.2 Z" stroke-linejoin="bevel" stroke-miterlimit="10" stroke-opacity="0.35"/><path fill="gray" stroke="none" paint-order="stroke fill markers" d=" M 378.9 48.19999999999999 L 467.1 48.19999999999999 L 467.1 177.79999999999995 L 378.9 177.79999999999995 L 378.9 48.19999999999999 Z" fill-opacity="0.35"/><path fill="none" stroke="gray" paint-order="fill stroke markers" d=" M 378.9 48.19999999999999 L 467.1 48.19999999999999 L 467.1 177.79999999999995 L 378.9 177.79999999999995 L 378.9 48.19999999999999 Z" stroke-linejoin="bevel" stroke-miterlimit="10" stroke-opacity="0.35"/><path fill="gray" stroke="none" paint-order="stroke fill markers" d=" M 476.9 5 L 565.1 5 L 565.1 69.80000000000001 L 476.9 69.80000000000001 L 476.9 5 Z" fill-opacity="0.35"/><path fill="none" stroke="gray" paint-order="fill stroke markers" d=" M 476.9 5 L 565.1 5 L 565.1 69.80000000000001 L 476.9 69.80000000000001 L 476.9 5 Z" stroke-linejoin="bevel" stroke-miterlimit="10" stroke-opacity="0.35"/></g></g></g><g clip-path="url(#XQDppBIoUxJu)"><g><g><path fill="none" stroke="none"/><path fill="red" stroke="red" paint-order="fill stroke markers" d=" M 129 471.19727227435027 A 0 0 0 1 1 129 471.19727227435027" fill-opacity="0.5" stroke-linejoin="bevel" stroke-miterlimit="10" stroke-opacity="0.5"/><path fill="red" stroke="red" paint-order="fill stroke markers" d=" M 248.053144 386.5628316606774 A 21.053144000000003 21.053144000000003 0 1 1 248.0531334734289 386.5417785201862" fill-opacity="0.5" stroke-linejoin="bevel" stroke-miterlimit="10" stroke-opacity="0.5"/><path fill="red" stroke="red" paint-order="fill stroke markers" d=" M 325 287.0849287252496 A 0 0 0 1 1 325 287.0849287252496" fill-opacity="0.5" stroke-linejoin="bevel" stroke-miterlimit="10" stroke-opacity="0.5"/><path fill="red" stroke="red" paint-order="fill stroke markers" d=" M 423 117.98841451426154 A 0 0 0 1 1 423 117.98841451426154" fill-opacity="0.5" stroke-linejoin="bevel" stroke-miterlimit="10" stroke-opacity="0.5"/><path fill="red" stroke="red" paint-order="fill stroke markers" d=" M 540.9289860000001 51.472656461297106 A 19.928986000000123 19.928986000000123 0 1 1 540.928976035508 51.45272747861859" fill-opacity="0.5" stroke-linejoin="bevel" stroke-miterlimit="10" stroke-opacity="0.5"/></g></g></g><g clip-path="url(#bAsJlekoayXk)"><g><g><path fill="none" stroke="none"/><path fill="none" stroke="red" paint-order="fill stroke markers" d=" M 129 471.19727227435027 L 227 386.5628316606774 L 325 287.0849287252496 L 423 117.98841451426154 L 521 51.472656461297106" stroke-linejoin="bevel" stroke-miterlimit="10" stroke-width="7" stroke-dasharray="4,4"/></g></g></g><g clip-path="url(#zwqHPFzIryBh)"><g><g><path fill="none" stroke="none"/><path fill="black" stroke="black" paint-order="fill stroke markers" d=" M 129 326.26560368683295 A 0 0 0 1 1 129 326.26560368683295" fill-opacity="0.5" stroke-linejoin="bevel" stroke-miterlimit="10" stroke-opacity="0.5"/><path fill="black" stroke="black" paint-order="fill stroke markers" d=" M 227 325.4565920973077 A 0 0 0 1 1 227 325.4565920973077" fill-opacity="0.5" stroke-linejoin="bevel" stroke-miterlimit="10" stroke-opacity="0.5"/><path fill="black" stroke="black" paint-order="fill stroke markers" d=" M 352.587784 325.8199411739631 A 27.587784 27.587784 0 1 1 352.58777020610916 325.7923533945611" fill-opacity="0.5" stroke-linejoin="bevel" stroke-miterlimit="10" stroke-opacity="0.5"/><path fill="black" stroke="black" paint-order="fill stroke markers" d=" M 450.10307600000004 127.69993708463204 A 27.103076000000044 27.103076000000044 0 1 1 450.10306244846316 127.6728340131492" fill-opacity="0.5" stroke-linejoin="bevel" stroke-miterlimit="10" stroke-opacity="0.5"/><path fill="black" stroke="black" paint-order="fill stroke markers" d=" M 521 127.31385235853503 A 0 0 0 1 1 521 127.31385235853503" fill-opacity="0.5" stroke-linejoin="bevel" stroke-miterlimit="10" stroke-opacity="0.5"/></g></g></g><g clip-path="url(#WnSymBQnisKg)"><g><g><path fill="none" stroke="none"/><path fill="none" stroke="black" paint-order="fill stroke markers" d=" M 129 326.26560368683295 L 227 325.4565920973077 L 325 325.8199411739631 L 423 127.69993708463204 L 521 127.31385235853503" stroke-linejoin="bevel" stroke-miterlimit="10" stroke-width="7" stroke-dasharray="4,4"/></g></g></g><g clip-path="url(#vHnXKCUaybga)"><g><g><path fill="none" stroke="none"/><path fill="green" stroke="green" paint-order="fill stroke markers" d=" M 129 298.77330647428096 A 0 0 0 1 1 129 298.77330647428096" fill-opacity="0.5" stroke-linejoin="bevel" stroke-miterlimit="10" stroke-opacity="0.5"/><path fill="green" stroke="green" paint-order="fill stroke markers" d=" M 227 298.85175352203146 A 0 0 0 1 1 227 298.85175352203146" fill-opacity="0.5" stroke-linejoin="bevel" stroke-miterlimit="10" stroke-opacity="0.5"/><path fill="green" stroke="green" paint-order="fill stroke markers" d=" M 325 299.19301014832774 A 0 0 0 1 1 325 299.19301014832774" fill-opacity="0.5" stroke-linejoin="bevel" stroke-miterlimit="10" stroke-opacity="0.5"/><path fill="green" stroke="green" paint-order="fill stroke markers" d=" M 423 103.30901561006692 A 0 0 0 1 1 423 103.30901561006692" fill-opacity="0.5" stroke-linejoin="bevel" stroke-miterlimit="10" stroke-opacity="0.5"/><path fill="green" stroke="green" paint-order="fill stroke markers" d=" M 521 103.76659521651095 A 0 0 0 1 1 521 103.76659521651095" fill-opacity="0.5" stroke-linejoin="bevel" stroke-miterlimit="10" stroke-opacity="0.5"/></g></g></g><g clip-path="url(#zhQtHxzkCCkJ)"><g><g><path fill="none" stroke="none"/><path fill="none" stroke="green" paint-order="fill stroke markers" d=" M 129 298.77330647428096 L 227 298.85175352203146 L 325 299.19301014832774 L 423 103.30901561006692 L 521 103.76659521651095" stroke-linejoin="bevel" stroke-miterlimit="10" stroke-width="7" stroke-dasharray="4,4"/></g></g></g><g clip-path="url(#feqVlZqqZVTE)"><g><g><path fill="none" stroke="none"/><path fill="yellow" stroke="yellow" paint-order="fill stroke markers" d=" M 129 304.99819279441317 A 0 0 0 1 1 129 304.99819279441317" fill-opacity="0.5" stroke-linejoin="bevel" stroke-miterlimit="10" stroke-opacity="0.5"/><path fill="yellow" stroke="yellow" paint-order="fill stroke markers" d=" M 227 294.2282837695486 A 0 0 0 1 1 227 294.2282837695486" fill-opacity="0.5" stroke-linejoin="bevel" stroke-miterlimit="10" stroke-opacity="0.5"/><path fill="yellow" stroke="yellow" paint-order="fill stroke markers" d=" M 325 214.1568975350105 A 0 0 0 1 1 325 214.1568975350105" fill-opacity="0.5" stroke-linejoin="bevel" stroke-miterlimit="10" stroke-opacity="0.5"/><path fill="yellow" stroke="yellow" paint-order="fill stroke markers" d=" M 423 167.9331127726266 A 0 0 0 1 1 423 167.9331127726266" fill-opacity="0.5" stroke-linejoin="bevel" stroke-miterlimit="10" stroke-opacity="0.5"/><path fill="yellow" stroke="yellow" paint-order="fill stroke markers" d=" M 521 131.82509074895142 A 0 0 0 1 1 521 131.82509074895142" fill-opacity="0.5" stroke-linejoin="bevel" stroke-miterlimit="10" stroke-opacity="0.5"/></g></g></g><g clip-path="url(#qfOoosprBvkq)"><g><g><path fill="none" stroke="none"/><path fill="none" stroke="yellow" paint-order="fill stroke markers" d=" M 129 304.99819279441317 L 227 294.2282837695486 L 325 214.1568975350105 L 423 167.9331127726266 L 521 131.82509074895142" stroke-linejoin="bevel" stroke-miterlimit="10" stroke-width="7" stroke-dasharray="4,4"/></g></g></g><g clip-path="url(#UhXvUbgAVxIA)"><g><g><path fill="none" stroke="none"/><path fill="purple" stroke="purple" paint-order="fill stroke markers" d=" M 129 218.56082000000004 A 0 0 0 1 1 129 218.56082000000004" fill-opacity="0.5" stroke-linejoin="bevel" stroke-miterlimit="10" stroke-opacity="0.5"/><path fill="purple" stroke="purple" paint-order="fill stroke markers" d=" M 227 208.40395999999998 A 0 0 0 1 1 227 208.40395999999998" fill-opacity="0.5" stroke-linejoin="bevel" stroke-miterlimit="10" stroke-opacity="0.5"/><path fill="purple" stroke="purple" paint-order="fill stroke markers" d=" M 325 193.10521999999997 A 0 0 0 1 1 325 193.10521999999997" fill-opacity="0.5" stroke-linejoin="bevel" stroke-miterlimit="10" stroke-opacity="0.5"/><path fill="purple" stroke="purple" paint-order="fill stroke markers" d=" M 423 183.90362 A 0 0 0 1 1 423 183.90362" fill-opacity="0.5" stroke-linejoin="bevel" stroke-miterlimit="10" stroke-opacity="0.5"/><path fill="purple" stroke="purple" paint-order="fill stroke markers" d=" M 521 190.3766 A 0 0 0 1 1 521 190.3766" fill-opacity="0.5" stroke-linejoin="bevel" stroke-miterlimit="10" stroke-opacity="0.5"/></g></g></g><g clip-path="url(#CnBnZVkQsWMQ)"><g><g><path fill="none" stroke="none"/><path fill="none" stroke="purple" paint-order="fill stroke markers" d=" M 129 218.56082000000004 L 227 208.40395999999998 L 325 193.10521999999997 L 423 183.90362 L 521 190.3766" stroke-linejoin="bevel" stroke-miterlimit="10" stroke-width="7" stroke-dasharray="4,4"/></g></g></g><g clip-path="url(#bGXlnCAFApxW)"><g><g/><g><path fill="#ffffff" stroke="#e5e5e5" paint-order="fill stroke markers" d=" M 90 15 L 378 15 L 378 65 L 90 65 L 90 15 Z" fill-opacity="0.95" stroke-linejoin="bevel" stroke-miterlimit="10" stroke-opacity="0.5"/><text fill="#444444" stroke="none" font-family="helvetica" font-size="20pt" font-style="normal" font-weight="normal" text-decoration="normal" x="125" y="40" text-anchor="start" dominant-baseline="central">Error Margins ±12%</text><rect fill="rgb(0,0,0)" stroke="none" x="102" y="27" width="16" height="16" fill-opacity="0"/><path fill="none" stroke="rgb(0,0,0)" paint-order="fill stroke markers" d=" M 102 27 L 118 27 L 118 43 L 102 43 L 102 27 Z" stroke-opacity="0" stroke-linejoin="bevel" stroke-miterlimit="10"/><rect fill="gray" stroke="none" x="102" y="27" width="16" height="16" fill-opacity="0.35"/><path fill="none" stroke="gray" paint-order="fill stroke markers" d=" M 102 27 L 118 27 L 118 43 L 102 43 L 102 27 Z" stroke-linejoin="bevel" stroke-miterlimit="10" stroke-opacity="0.35"/></g></g></g><g/><g/><g><g fill="#444444"><path fill="none" stroke="black" paint-order="fill stroke markers" d=" M 80 545 L 570 545" stroke-linejoin="bevel" stroke-miterlimit="10"/><path fill="none" stroke="black" paint-order="fill stroke markers" d=" M 129 551 L 129 543" stroke-linejoin="bevel" stroke-miterlimit="10"/><path fill="none" stroke="black" paint-order="fill stroke markers" d=" M 227 551 L 227 543" stroke-linejoin="bevel" stroke-miterlimit="10"/><path fill="none" stroke="black" paint-order="fill stroke markers" d=" M 325 551 L 325 543" stroke-linejoin="bevel" stroke-miterlimit="10"/><path fill="none" stroke="black" paint-order="fill stroke markers" d=" M 423 551 L 423 543" stroke-linejoin="bevel" stroke-miterlimit="10"/><path fill="" stroke="black" paint-order="fill stroke markers" d=" M 521 551 L 521 543" stroke-linejoin="bevel" stroke-miterlimit="10"/><g transform="translate(129,556) rotate(0,0,0)"><text fill="" stroke="none" font-family="helvetica" font-size="20pt" font-style="normal" font-weight="normal" text-decoration="normal" x="0" y="0" text-anchor="middle" dominant-baseline="hanging">0.0</text><g transform="rotate(0,0,0) translate(-129,-556) translate(227,556) rotate(0,0,0)"><text fill="" stroke="none" font-family="helvetica" font-size="20pt" font-style="normal" font-weight="normal" text-decoration="normal" x="0" y="0" text-anchor="middle" dominant-baseline="hanging">0.2</text><g transform="rotate(0,0,0) translate(-227,-556) translate(325,556) rotate(0,0,0)"><text fill="" stroke="none" font-family="helvetica" font-size="20pt" font-style="normal" font-weight="normal" text-decoration="normal" x="0" y="0" text-anchor="middle" dominant-baseline="hanging">0.4</text><g transform="rotate(0,0,0) translate(-325,-556) translate(423,556) rotate(0,0,0)"><text fill="" stroke="none" font-family="helvetica" font-size="20pt" font-style="normal" font-weight="normal" text-decoration="normal" x="0" y="0" text-anchor="middle" dominant-baseline="hanging">0.8</text><g transform="rotate(0,0,0) translate(-423,-556) translate(521,556) rotate(0,0,0)"><text fill="" stroke="none" font-family="helvetica" font-size="20pt" font-style="normal" font-weight="normal" text-decoration="normal" x="0" y="0" text-anchor="middle" dominant-baseline="hanging">1.0</text><g transform="rotate(0,0,0) translate(-521,-556) translate(325,580) rotate(0,0,0)"><text fill="" stroke="none" font-family="helvetica" font-size="20pt" font-style="italic" font-weight="normal" text-decoration="normal" x="0" y="0" text-anchor="middle" dominant-baseline="hanging">Target Ratio(Female)</text><g transform="rotate(0,0,0) translate(-325,-580)"/></g></g></g></g></g></g></g></g><g><g fill="#444444"><path fill="none" stroke="black" paint-order="fill stroke markers" d=" M 80 545 L 80 5" stroke-linejoin="bevel" stroke-miterlimit="10"/><path fill="none" stroke="black" paint-order="fill stroke markers" d=" M 74 545 L 82 545" stroke-linejoin="bevel" stroke-miterlimit="10"/><path fill="none" stroke="black" paint-order="fill stroke markers" d=" M 74 437 L 82 437" stroke-linejoin="bevel" stroke-miterlimit="10"/><path fill="none" stroke="black" paint-order="fill stroke markers" d=" M 74 329 L 82 329" stroke-linejoin="bevel" stroke-miterlimit="10"/><path fill="none" stroke="black" paint-order="fill stroke markers" d=" M 74 221 L 82 221" stroke-linejoin="bevel" stroke-miterlimit="10"/><path fill="none" stroke="black" paint-order="fill stroke markers" d=" M 74 113 L 82 113" stroke-linejoin="bevel" stroke-miterlimit="10"/><path fill="none" stroke="black" paint-order="fill stroke markers" d=" M 74 5 L 82 5" stroke-linejoin="bevel" stroke-miterlimit="10"/><path fill="none" stroke="black" paint-order="fill stroke markers" d=" M 76 545 L 80 545" stroke-linejoin="bevel" stroke-miterlimit="10"/><path fill="none" stroke="black" paint-order="fill stroke markers" d=" M 76 523 L 80 523" stroke-linejoin="bevel" stroke-miterlimit="10"/><path fill="none" stroke="black" paint-order="fill stroke markers" d=" M 76 502 L 80 502" stroke-linejoin="bevel" stroke-miterlimit="10"/><path fill="none" stroke="black" paint-order="fill stroke markers" d=" M 76 480 L 80 480" stroke-linejoin="bevel" stroke-miterlimit="10"/><path fill="none" stroke="black" paint-order="fill stroke markers" d=" M 76 459 L 80 459" stroke-linejoin="bevel" stroke-miterlimit="10"/><path fill="none" stroke="black" paint-order="fill stroke markers" d=" M 76 437 L 80 437" stroke-linejoin="bevel" stroke-miterlimit="10"/><path fill="none" stroke="black" paint-order="fill stroke markers" d=" M 76 415 L 80 415" stroke-linejoin="bevel" stroke-miterlimit="10"/><path fill="none" stroke="black" paint-order="fill stroke markers" d=" M 76 394 L 80 394" stroke-linejoin="bevel" stroke-miterlimit="10"/><path fill="none" stroke="black" paint-order="fill stroke markers" d=" M 76 372 L 80 372" stroke-linejoin="bevel" stroke-miterlimit="10"/><path fill="none" stroke="black" paint-order="fill stroke markers" d=" M 76 351 L 80 351" stroke-linejoin="bevel" stroke-miterlimit="10"/><path fill="none" stroke="black" paint-order="fill stroke markers" d=" M 76 329 L 80 329" stroke-linejoin="bevel" stroke-miterlimit="10"/><path fill="none" stroke="black" paint-order="fill stroke markers" d=" M 76 307 L 80 307" stroke-linejoin="bevel" stroke-miterlimit="10"/><path fill="none" stroke="black" paint-order="fill stroke markers" d=" M 76 286 L 80 286" stroke-linejoin="bevel" stroke-miterlimit="10"/><path fill="none" stroke="black" paint-order="fill stroke markers" d=" M 76 264 L 80 264" stroke-linejoin="bevel" stroke-miterlimit="10"/><path fill="none" stroke="black" paint-order="fill stroke markers" d=" M 76 243 L 80 243" stroke-linejoin="bevel" stroke-miterlimit="10"/><path fill="none" stroke="black" paint-order="fill stroke markers" d=" M 76 221 L 80 221" stroke-linejoin="bevel" stroke-miterlimit="10"/><path fill="none" stroke="black" paint-order="fill stroke markers" d=" M 76 199 L 80 199" stroke-linejoin="bevel" stroke-miterlimit="10"/><path fill="none" stroke="black" paint-order="fill stroke markers" d=" M 76 178 L 80 178" stroke-linejoin="bevel" stroke-miterlimit="10"/><path fill="none" stroke="black" paint-order="fill stroke markers" d=" M 76 156 L 80 156" stroke-linejoin="bevel" stroke-miterlimit="10"/><path fill="none" stroke="black" paint-order="fill stroke markers" d=" M 76 135 L 80 135" stroke-linejoin="bevel" stroke-miterlimit="10"/><path fill="none" stroke="black" paint-order="fill stroke markers" d=" M 76 113 L 80 113" stroke-linejoin="bevel" stroke-miterlimit="10"/><path fill="none" stroke="black" paint-order="fill stroke markers" d=" M 76 91 L 80 91" stroke-linejoin="bevel" stroke-miterlimit="10"/><path fill="none" stroke="black" paint-order="fill stroke markers" d=" M 76 70 L 80 70" stroke-linejoin="bevel" stroke-miterlimit="10"/><path fill="none" stroke="black" paint-order="fill stroke markers" d=" M 76 48 L 80 48" stroke-linejoin="bevel" stroke-miterlimit="10"/><path fill="none" stroke="black" paint-order="fill stroke markers" d=" M 76 27 L 80 27" stroke-linejoin="bevel" stroke-miterlimit="10"/><path fill="" stroke="black" paint-order="fill stroke markers" d=" M 76 5 L 80 5" stroke-linejoin="bevel" stroke-miterlimit="10"/><g transform="translate(69,545) rotate(0,0,0)"><text fill="" stroke="none" font-family="helvetica" font-size="20pt" font-style="normal" font-weight="normal" text-decoration="normal" x="0" y="0" text-anchor="end" dominant-baseline="central">0</text><g transform="rotate(0,0,0) translate(-69,-545) translate(69,437) rotate(0,0,0)"><text fill="" stroke="none" font-family="helvetica" font-size="20pt" font-style="normal" font-weight="normal" text-decoration="normal" x="0" y="0" text-anchor="end" dominant-baseline="central">0.2</text><g transform="rotate(0,0,0) translate(-69,-437) translate(69,329) rotate(0,0,0)"><text fill="" stroke="none" font-family="helvetica" font-size="20pt" font-style="normal" font-weight="normal" text-decoration="normal" x="0" y="0" text-anchor="end" dominant-baseline="central">0.4</text><g transform="rotate(0,0,0) translate(-69,-329) translate(69,221) rotate(0,0,0)"><text fill="" stroke="none" font-family="helvetica" font-size="20pt" font-style="normal" font-weight="normal" text-decoration="normal" x="0" y="0" text-anchor="end" dominant-baseline="central">0.6</text><g transform="rotate(0,0,0) translate(-69,-221) translate(69,113) rotate(0,0,0)"><text fill="" stroke="none" font-family="helvetica" font-size="20pt" font-style="normal" font-weight="normal" text-decoration="normal" x="0" y="0" text-anchor="end" dominant-baseline="central">0.8</text><g transform="rotate(0,0,0) translate(-69,-113) translate(69,5) rotate(0,0,0)"><text fill="" stroke="none" font-family="helvetica" font-size="20pt" font-style="normal" font-weight="normal" text-decoration="normal" x="0" y="0" text-anchor="end" dominant-baseline="central">1</text><g transform="rotate(0,0,0) translate(-69,-5) translate(19,275) rotate(-90,0,0)"><text fill="" stroke="none" font-family="helvetica" font-size="20pt" font-style="italic" font-weight="normal" text-decoration="normal" x="0" y="0" text-anchor="middle" dominant-baseline="alphabetic">Spread Ratio (Female)</text><g transform="rotate(90,0,0) translate(-19,-275)"/></g></g></g></g></g></g></g></g></g><g clip-path="url(#SADxwnQIGExT)"><g/></g></g></g></svg>