<svg version="1.1" xmlns="http://www.w3.org/2000/svg" xmlns:xlink="http://www.w3.org/1999/xlink" width="600" height="600" style="width: 600px; height: 600px;"><defs><clipPath id="vvrmbMlnvMXA"><path fill="none" stroke="none" d=" M 80 5 L 570 5 L 570 545 L 80 545 L 80 5 Z"/></clipPath><clipPath id="BTMZRsddNAgd"><path fill="none" stroke="none" d=" M 80 5 L 570 5 L 570 545 L 80 545 L 80 5 Z"/></clipPath><clipPath id="fbmiDPRATbAa"><path fill="none" stroke="none" d=" M 80 5 L 570 5 L 570 545 L 80 545 L 80 5 Z"/></clipPath><clipPath id="VgOvwAmzhJaH"><path fill="none" stroke="none" d=" M 80 5 L 570 5 L 570 545 L 80 545 L 80 5 Z"/></clipPath><clipPath id="SIpEASAyJKNC"><path fill="none" stroke="none" d=" M 80 5 L 570 5 L 570 545 L 80 545 L 80 5 Z"/></clipPath><clipPath id="KQrBILIkzmmX"><path fill="none" stroke="none" d=" M 80 5 L 570 5 L 570 545 L 80 545 L 80 5 Z"/></clipPath><clipPath id="KivhlnZvTagE"><path fill="none" stroke="none" d=" M 80 5 L 570 5 L 570 545 L 80 545 L 80 5 Z"/></clipPath><clipPath id="qLvWThXdzxIW"><path fill="none" stroke="none" d=" M 80 5 L 570 5 L 570 545 L 80 545 L 80 5 Z"/></clipPath><clipPath id="PZWDLRzbnokZ"><path fill="none" stroke="none" d=" M 80 5 L 570 5 L 570 545 L 80 545 L 80 5 Z"/></clipPath><clipPath id="GTqTUJhhhaVa"><path fill="none" stroke="none" d=" M 80 5 L 570 5 L 570 545 L 80 545 L 80 5 Z"/></clipPath><clipPath id="XvhTcWnBcDPv"><path fill="none" stroke="none" d=" M 80 5 L 570 5 L 570 545 L 80 545 L 80 5 Z"/></clipPath><clipPath id="HSZTtUTahZao"><path fill="none" stroke="none" d=" M 80 5 L 570 5 L 570 545 L 80 545 L 80 5 Z"/></clipPath><clipPath id="JssMvDvpNwLS"><path fill="none" stroke="none" d=" M 80 5 L 570 5 L 570 545 L 80 545 L 80 5 Z"/></clipPath><clipPath id="LMrTHnXnMaSF"><path fill="none" stroke="none" d=" M 80 5 L 570 5 L 570 545 L 80 545 L 80 5 Z"/></clipPath><clipPath id="erhERdooydfa"><path fill="none" stroke="none" d=" M 80 5 L 570 5 L 570 545 L 80 545 L 80 5 Z"/></clipPath><clipPath id="DDhqJEoNqyhT"><path fill="none" stroke="none" d=" M 80 5 L 570 5 L 570 545 L 80 545 L 80 5 Z"/></clipPath></defs><g><g transform="scale(1,1) translate(0.5,0.5)"><rect fill="#FFFFFF" stroke="none" x="0" y="0" width="600" height="600"/><rect fill="#ffffff" stroke="none" x="0" y="0" width="600" height="600"/><rect fill="#FFFFFF" stroke="none" x="80" y="5" width="490" height="540"/><rect fill="#ffffff" stroke="none" x="80" y="5" width="490" height="540"/><g><rect fill="none" stroke="#e5e5e5" x="80" y="5" width="490" height="540" stroke-linejoin="bevel" stroke-miterlimit="10"/></g><g clip-path="url(#vvrmbMlnvMXA)"><g><g><path fill="none" stroke="#e5e5e5" paint-order="fill stroke markers" d=" M 227 545 L 227 5" stroke-linejoin="bevel" stroke-miterlimit="10"/><path fill="none" stroke="#e5e5e5" paint-order="fill stroke markers" d=" M 325 545 L 325 5" stroke-linejoin="bevel" stroke-miterlimit="10"/><path fill="none" stroke="#e5e5e5" paint-order="fill stroke markers" d=" M 423 545 L 423 5" stroke-linejoin="bevel" stroke-miterlimit="10"/><path fill="none" stroke="#e5e5e5" paint-order="fill stroke markers" d=" M 521 545 L 521 5" stroke-linejoin="bevel" stroke-miterlimit="10"/></g></g></g><g clip-path="url(#BTMZRsddNAgd)"><g><g><path fill="none" stroke="#e5e5e5" paint-order="fill stroke markers" d=" M 80 437 L 570 437" stroke-linejoin="bevel" stroke-miterlimit="10"/><path fill="none" stroke="#e5e5e5" paint-order="fill stroke markers" d=" M 80 329 L 570 329" stroke-linejoin="bevel" stroke-miterlimit="10"/><path fill="none" stroke="#e5e5e5" paint-order="fill stroke markers" d=" M 80 221 L 570 221" stroke-linejoin="bevel" stroke-miterlimit="10"/><path fill="none" stroke="#e5e5e5" paint-order="fill stroke markers" d=" M 80 113 L 570 113" stroke-linejoin="bevel" stroke-miterlimit="10"/></g></g></g><g clip-path="url(#fbmiDPRATbAa)"><g><g><path fill="none" stroke="none"/><path fill="rgb(0,0,0)" stroke="none" paint-order="stroke fill markers" d=" M 84.9 545 L 173.1 545 L 173.1 545 L 84.9 545 L 84.9 545 Z" fill-opacity="0"/><path fill="none" stroke="rgb(0,0,0)" paint-order="fill stroke markers" d=" M 84.9 545 L 173.1 545 L 173.1 545 L 84.9 545 L 84.9 545 Z" stroke-opacity="0" stroke-linejoin="bevel" stroke-miterlimit="10"/><path fill="rgb(0,0,0)" stroke="none" paint-order="stroke fill markers" d=" M 182.89999999999998 501.8 L 271.1 501.8 L 271.1 545 L 182.89999999999998 545 L 182.89999999999998 501.8 Z" fill-opacity="0"/><path fill="none" stroke="rgb(0,0,0)" paint-order="fill stroke markers" d=" M 182.89999999999998 501.8 L 271.1 501.8 L 271.1 545 L 182.89999999999998 545 L 182.89999999999998 501.8 Z" stroke-opacity="0" stroke-linejoin="bevel" stroke-miterlimit="10"/><path fill="rgb(0,0,0)" stroke="none" paint-order="stroke fill markers" d=" M 280.9 393.79999999999995 L 369.1 393.79999999999995 L 369.1 545 L 280.9 545 L 280.9 393.79999999999995 Z" fill-opacity="0"/><path fill="none" stroke="rgb(0,0,0)" paint-order="fill stroke markers" d=" M 280.9 393.79999999999995 L 369.1 393.79999999999995 L 369.1 545 L 280.9 545 L 280.9 393.79999999999995 Z" stroke-opacity="0" stroke-linejoin="bevel" stroke-miterlimit="10"/><path fill="rgb(0,0,0)" stroke="none" paint-order="stroke fill markers" d=" M 378.9 177.79999999999995 L 467.1 177.79999999999995 L 467.1 545 L 378.9 545 L 378.9 177.79999999999995 Z" fill-opacity="0"/><path fill="none" stroke="rgb(0,0,0)" paint-order="fill stroke markers" d=" M 378.9 177.79999999999995 L 467.1 177.79999999999995 L 467.1 545 L 378.9 545 L 378.9 177.79999999999995 Z" stroke-opacity="0" stroke-linejoin="bevel" stroke-miterlimit="10"/><path fill="rgb(0,0,0)" stroke="none" paint-order="stroke fill markers" d=" M 476.9 69.80000000000001 L 565.1 69.80000000000001 L 565.1 545 L 476.9 545 L 476.9 69.80000000000001 Z" fill-opacity="0"/><path fill="none" stroke="rgb(0,0,0)" paint-order="fill stroke markers" d=" M 476.9 69.80000000000001 L 565.1 69.80000000000001 L 565.1 545 L 476.9 545 L 476.9 69.80000000000001 Z" stroke-opacity="0" stroke-linejoin="bevel" stroke-miterlimit="10"/></g></g></g><g clip-path="url(#VgOvwAmzhJaH)"><g><g><path fill="none" stroke="none"/><path fill="gray" stroke="none" paint-order="stroke fill markers" d=" M 84.9 480.2 L 173.1 480.2 L 173.1 545 L 84.9 545 L 84.9 480.2 Z" fill-opacity="0.35"/><path fill="none" stroke="gray" paint-order="fill stroke markers" d=" M 84.9 480.2 L 173.1 480.2 L 173.1 545 L 84.9 545 L 84.9 480.2 Z" stroke-linejoin="bevel" stroke-miterlimit="10" stroke-opacity="0.35"/><path fill="gray" stroke="none" paint-order="stroke fill markers" d=" M 182.89999999999998 372.2 L 271.1 372.2 L 271.1 501.8 L 182.89999999999998 501.8 L 182.89999999999998 372.2 Z" fill-opacity="0.35"/><path fill="none" stroke="gray" paint-order="fill stroke markers" d=" M 182.89999999999998 372.2 L 271.1 372.2 L 271.1 501.8 L 182.89999999999998 501.8 L 182.89999999999998 372.2 Z" stroke-linejoin="bevel" stroke-miterlimit="10" stroke-opacity="0.35"/><path fill="gray" stroke="none" paint-order="stroke fill markers" d=" M 280.9 264.2 L 369.1 264.2 L 369.1 393.79999999999995 L 280.9 393.79999999999995 L 280.9 264.2 Z" fill-opacity="0.35"/><path fill="none" stroke="gray" paint-order="fill stroke markers" d=" M 280.9 264.2 L 369.1 264.2 L 369.1 393.79999999999995 L 280.9 393.79999999999995 L 280.9 264.2 Z" stroke-linejoin="bevel" stroke-miterlimit="10" stroke-opacity="0.35"/><path fill="gray" stroke="none" paint-order="stroke fill markers" d=" M 378.9 48.19999999999999 L 467.1 48.19999999999999 L 467.1 177.79999999999995 L 378.9 177.79999999999995 L 378.9 48.19999999999999 Z" fill-opacity="0.35"/><path fill="none" stroke="gray" paint-order="fill stroke markers" d=" M 378.9 48.19999999999999 L 467.1 48.19999999999999 L 467.1 177.79999999999995 L 378.9 177.79999999999995 L 378.9 48.19999999999999 Z" stroke-linejoin="bevel" stroke-miterlimit="10" stroke-opacity="0.35"/><path fill="gray" stroke="none" paint-order="stroke fill markers" d=" M 476.9 5 L 565.1 5 L 565.1 69.80000000000001 L 476.9 69.80000000000001 L 476.9 5 Z" fill-opacity="0.35"/><path fill="none" stroke="gray" paint-order="fill stroke markers" d=" M 476.9 5 L 565.1 5 L 565.1 69.80000000000001 L 476.9 69.80000000000001 L 476.9 5 Z" stroke-linejoin="bevel" stroke-miterlimit="10" stroke-opacity="0.35"/></g></g></g><g clip-path="url(#SIpEASAyJKNC)"><g><g><path fill="none" stroke="none"/><path fill="red" stroke="red" paint-order="fill stroke markers" d=" M 129 468.54810043328297 A 0 0 0 1 1 129 468.54810043328297" fill-opacity="0.5" stroke-linejoin="bevel" stroke-miterlimit="10" stroke-opacity="0.5"/><path fill="red" stroke="red" paint-order="fill stroke markers" d=" M 250.304106 379.7551903514342 A 23.30410599999999 23.30410599999999 0 1 1 250.30409434794797 379.73188624931817" fill-opacity="0.5" stroke-linejoin="bevel" stroke-miterlimit="10" stroke-opacity="0.5"/><path fill="red" stroke="red" paint-order="fill stroke markers" d=" M 351.87140400000004 295.6115288951779 A 26.87140400000004 26.87140400000004 0 1 1 351.8713905642992 295.5846574956565" fill-opacity="0.5" stroke-linejoin="bevel" stroke-miterlimit="10" stroke-opacity="0.5"/><path fill="red" stroke="red" paint-order="fill stroke markers" d=" M 449.481756 128.34058662877186 A 26.48175600000002 26.48175600000002 0 1 1 449.4817427591231 128.31410487718546" fill-opacity="0.5" stroke-linejoin="bevel" stroke-miterlimit="10" stroke-opacity="0.5"/><path fill="red" stroke="red" paint-order="fill stroke markers" d=" M 546.7806639999999 66.24439308467771 A 25.780663999999888 25.780663999999888 0 1 1 546.780651109669 66.21861242497447" fill-opacity="0.5" stroke-linejoin="bevel" stroke-miterlimit="10" stroke-opacity="0.5"/></g></g></g><g clip-path="url(#KQrBILIkzmmX)"><g><g><path fill="none" stroke="none"/><path fill="none" stroke="red" paint-order="fill stroke markers" d=" M 129 468.54810043328297 L 227 379.7551903514342 L 325 295.6115288951779 L 423 128.34058662877186 L 521 66.24439308467771" stroke-linejoin="bevel" stroke-miterlimit="10" stroke-width="7" stroke-dasharray="4,4"/></g></g></g><g clip-path="url(#KivhlnZvTagE)"><g><g><path fill="none" stroke="none"/><path fill="black" stroke="black" paint-order="fill stroke markers" d=" M 129 356.1720421167205 A 0 0 0 1 1 129 356.1720421167205" fill-opacity="0.5" stroke-linejoin="bevel" stroke-miterlimit="10" stroke-opacity="0.5"/><path fill="black" stroke="black" paint-order="fill stroke markers" d=" M 227 356.113748897782 A 0 0 0 1 1 227 356.113748897782" fill-opacity="0.5" stroke-linejoin="bevel" stroke-miterlimit="10" stroke-opacity="0.5"/><path fill="black" stroke="black" paint-order="fill stroke markers" d=" M 325 330.83109021361645 A 0 0 0 1 1 325 330.83109021361645" fill-opacity="0.5" stroke-linejoin="bevel" stroke-miterlimit="10" stroke-opacity="0.5"/><path fill="black" stroke="black" paint-order="fill stroke markers" d=" M 423 123.8705572010366 A 0 0 0 1 1 423 123.8705572010366" fill-opacity="0.5" stroke-linejoin="bevel" stroke-miterlimit="10" stroke-opacity="0.5"/><path fill="black" stroke="black" paint-order="fill stroke markers" d=" M 521 123.60765987648847 A 0 0 0 1 1 521 123.60765987648847" fill-opacity="0.5" stroke-linejoin="bevel" stroke-miterlimit="10" stroke-opacity="0.5"/></g></g></g><g clip-path="url(#qLvWThXdzxIW)"><g><g><path fill="none" stroke="none"/><path fill="none" stroke="black" paint-order="fill stroke markers" d=" M 129 356.1720421167205 L 227 356.113748897782 L 325 330.83109021361645 L 423 123.8705572010366 L 521 123.60765987648847" stroke-linejoin="bevel" stroke-miterlimit="10" stroke-width="7" stroke-dasharray="4,4"/></g></g></g><g clip-path="url(#PZWDLRzbnokZ)"><g><g><path fill="none" stroke="none"/><path fill="green" stroke="green" paint-order="fill stroke markers" d=" M 129 353.39749740912754 A 0 0 0 1 1 129 353.39749740912754" fill-opacity="0.5" stroke-linejoin="bevel" stroke-miterlimit="10" stroke-opacity="0.5"/><path fill="green" stroke="green" paint-order="fill stroke markers" d=" M 227 353.76246796092414 A 0 0 0 1 1 227 353.76246796092414" fill-opacity="0.5" stroke-linejoin="bevel" stroke-miterlimit="10" stroke-opacity="0.5"/><path fill="green" stroke="green" paint-order="fill stroke markers" d=" M 325 328.7903038738112 A 0 0 0 1 1 325 328.7903038738112" fill-opacity="0.5" stroke-linejoin="bevel" stroke-miterlimit="10" stroke-opacity="0.5"/><path fill="green" stroke="green" paint-order="fill stroke markers" d=" M 423 124.63080436437451 A 0 0 0 1 1 423 124.63080436437451" fill-opacity="0.5" stroke-linejoin="bevel" stroke-miterlimit="10" stroke-opacity="0.5"/><path fill="green" stroke="green" paint-order="fill stroke markers" d=" M 521 125.35357735348867 A 0 0 0 1 1 521 125.35357735348867" fill-opacity="0.5" stroke-linejoin="bevel" stroke-miterlimit="10" stroke-opacity="0.5"/></g></g></g><g clip-path="url(#GTqTUJhhhaVa)"><g><g><path fill="none" stroke="none"/><path fill="none" stroke="green" paint-order="fill stroke markers" d=" M 129 353.39749740912754 L 227 353.76246796092414 L 325 328.7903038738112 L 423 124.63080436437451 L 521 125.35357735348867" stroke-linejoin="bevel" stroke-miterlimit="10" stroke-width="7" stroke-dasharray="4,4"/></g></g></g><g clip-path="url(#XvhTcWnBcDPv)"><g><g><path fill="none" stroke="none"/><path fill="yellow" stroke="yellow" paint-order="fill stroke markers" d=" M 129 347.1271458110715 A 0 0 0 1 1 129 347.1271458110715" fill-opacity="0.5" stroke-linejoin="bevel" stroke-miterlimit="10" stroke-opacity="0.5"/><path fill="yellow" stroke="yellow" paint-order="fill stroke markers" d=" M 227 319.7097976295223 A 0 0 0 1 1 227 319.7097976295223" fill-opacity="0.5" stroke-linejoin="bevel" stroke-miterlimit="10" stroke-opacity="0.5"/><path fill="yellow" stroke="yellow" paint-order="fill stroke markers" d=" M 325 273.7610201073504 A 0 0 0 1 1 325 273.7610201073504" fill-opacity="0.5" stroke-linejoin="bevel" stroke-miterlimit="10" stroke-opacity="0.5"/><path fill="yellow" stroke="yellow" paint-order="fill stroke markers" d=" M 423 169.92431388894983 A 0 0 0 1 1 423 169.92431388894983" fill-opacity="0.5" stroke-linejoin="bevel" stroke-miterlimit="10" stroke-opacity="0.5"/><path fill="yellow" stroke="yellow" paint-order="fill stroke markers" d=" M 521 120.29229561805107 A 0 0 0 1 1 521 120.29229561805107" fill-opacity="0.5" stroke-linejoin="bevel" stroke-miterlimit="10" stroke-opacity="0.5"/></g></g></g><g clip-path="url(#HSZTtUTahZao)"><g><g><path fill="none" stroke="none"/><path fill="none" stroke="yellow" paint-order="fill stroke markers" d=" M 129 347.1271458110715 L 227 319.7097976295223 L 325 273.7610201073504 L 423 169.92431388894983 L 521 120.29229561805107" stroke-linejoin="bevel" stroke-miterlimit="10" stroke-width="7" stroke-dasharray="4,4"/></g></g></g><g clip-path="url(#JssMvDvpNwLS)"><g><g><path fill="none" stroke="none"/><path fill="purple" stroke="purple" paint-order="fill stroke markers" d=" M 129 215.9375 A 0 0 0 1 1 129 215.9375" fill-opacity="0.5" stroke-linejoin="bevel" stroke-miterlimit="10" stroke-opacity="0.5"/><path fill="purple" stroke="purple" paint-order="fill stroke markers" d=" M 227 209.69941999999998 A 0 0 0 1 1 227 209.69941999999998" fill-opacity="0.5" stroke-linejoin="bevel" stroke-miterlimit="10" stroke-opacity="0.5"/><path fill="purple" stroke="purple" paint-order="fill stroke markers" d=" M 325 183.49106 A 0 0 0 1 1 325 183.49106" fill-opacity="0.5" stroke-linejoin="bevel" stroke-miterlimit="10" stroke-opacity="0.5"/><path fill="purple" stroke="purple" paint-order="fill stroke markers" d=" M 423 193.20565999999997 A 0 0 0 1 1 423 193.20565999999997" fill-opacity="0.5" stroke-linejoin="bevel" stroke-miterlimit="10" stroke-opacity="0.5"/><path fill="purple" stroke="purple" paint-order="fill stroke markers" d=" M 521 196.85066 A 0 0 0 1 1 521 196.85066" fill-opacity="0.5" stroke-linejoin="bevel" stroke-miterlimit="10" stroke-opacity="0.5"/></g></g></g><g clip-path="url(#LMrTHnXnMaSF)"><g><g><path fill="none" stroke="none"/><path fill="none" stroke="purple" paint-order="fill stroke markers" d=" M 129 215.9375 L 227 209.69941999999998 L 325 183.49106 L 423 193.20565999999997 L 521 196.85066" stroke-linejoin="bevel" stroke-miterlimit="10" stroke-width="7" stroke-dasharray="4,4"/></g></g></g><g clip-path="url(#erhERdooydfa)"><g><g/><g><path fill="#ffffff" stroke="#e5e5e5" paint-order="fill stroke markers" d=" M 90 15 L 378 15 L 378 65 L 90 65 L 90 15 Z" fill-opacity="0.95" stroke-linejoin="bevel" stroke-miterlimit="10" stroke-opacity="0.5"/><text fill="#444444" stroke="none" font-family="helvetica" font-size="20pt" font-style="normal" font-weight="normal" text-decoration="normal" x="125" y="40" text-anchor="start" dominant-baseline="central">Error Margins ±12%</text><rect fill="rgb(0,0,0)" stroke="none" x="102" y="27" width="16" height="16" fill-opacity="0"/><path fill="none" stroke="rgb(0,0,0)" paint-order="fill stroke markers" d=" M 102 27 L 118 27 L 118 43 L 102 43 L 102 27 Z" stroke-opacity="0" stroke-linejoin="bevel" stroke-miterlimit="10"/><rect fill="gray" stroke="none" x="102" y="27" width="16" height="16" fill-opacity="0.35"/><path fill="none" stroke="gray" paint-order="fill stroke markers" d=" M 102 27 L 118 27 L 118 43 L 102 43 L 102 27 Z" stroke-linejoin="bevel" stroke-miterlimit="10" stroke-opacity="0.35"/></g></g></g><g/><g/><g><g fill="#444444"><path fill="none" stroke="black" paint-order="fill stroke markers" d=" M 80 545 L 570 545" stroke-linejoin="bevel" stroke-miterlimit="10"/><path fill="none" stroke="black" paint-order="fill stroke markers" d=" M 129 551 L 129 543" stroke-linejoin="bevel" stroke-miterlimit="10"/><path fill="none" stroke="black" paint-order="fill stroke markers" d=" M 227 551 L 227 543" stroke-linejoin="bevel" stroke-miterlimit="10"/><path fill="none" stroke="black" paint-order="fill stroke markers" d=" M 325 551 L 325 543" stroke-linejoin="bevel" stroke-miterlimit="10"/><path fill="none" stroke="black" paint-order="fill stroke markers" d=" M 423 551 L 423 543" stroke-linejoin="bevel" stroke-miterlimit="10"/><path fill="" stroke="black" paint-order="fill stroke markers" d=" M 521 551 L 521 543" stroke-linejoin="bevel" stroke-miterlimit="10"/><g transform="translate(129,556) rotate(0,0,0)"><text fill="" stroke="none" font-family="helvetica" font-size="20pt" font-style="normal" font-weight="normal" text-decoration="normal" x="0" y="0" text-anchor="middle" dominant-baseline="hanging">0.0</text><g transform="rotate(0,0,0) translate(-129,-556) translate(227,556) rotate(0,0,0)"><text fill="" stroke="none" font-family="helvetica" font-size="20pt" font-style="normal" font-weight="normal" text-decoration="normal" x="0" y="0" text-anchor="middle" dominant-baseline="hanging">0.2</text><g transform="rotate(0,0,0) translate(-227,-556) translate(325,556) rotate(0,0,0)"><text fill="" stroke="none" font-family="helvetica" font-size="20pt" font-style="normal" font-weight="normal" text-decoration="normal" x="0" y="0" text-anchor="middle" dominant-baseline="hanging">0.4</text><g transform="rotate(0,0,0) translate(-325,-556) translate(423,556) rotate(0,0,0)"><text fill="" stroke="none" font-family="helvetica" font-size="20pt" font-style="normal" font-weight="normal" text-decoration="normal" x="0" y="0" text-anchor="middle" dominant-baseline="hanging">0.8</text><g transform="rotate(0,0,0) translate(-423,-556) translate(521,556) rotate(0,0,0)"><text fill="" stroke="none" font-family="helvetica" font-size="20pt" font-style="normal" font-weight="normal" text-decoration="normal" x="0" y="0" text-anchor="middle" dominant-baseline="hanging">1.0</text><g transform="rotate(0,0,0) translate(-521,-556) translate(325,580) rotate(0,0,0)"><text fill="" stroke="none" font-family="helvetica" font-size="20pt" font-style="italic" font-weight="normal" text-decoration="normal" x="0" y="0" text-anchor="middle" dominant-baseline="hanging">Target Ratio(Female)</text><g transform="rotate(0,0,0) translate(-325,-580)"/></g></g></g></g></g></g></g></g><g><g fill="#444444"><path fill="none" stroke="black" paint-order="fill stroke markers" d=" M 80 545 L 80 5" stroke-linejoin="bevel" stroke-miterlimit="10"/><path fill="none" stroke="black" paint-order="fill stroke markers" d=" M 74 545 L 82 545" stroke-linejoin="bevel" stroke-miterlimit="10"/><path fill="none" stroke="black" paint-order="fill stroke markers" d=" M 74 437 L 82 437" stroke-linejoin="bevel" stroke-miterlimit="10"/><path fill="none" stroke="black" paint-order="fill stroke markers" d=" M 74 329 L 82 329" stroke-linejoin="bevel" stroke-miterlimit="10"/><path fill="none" stroke="black" paint-order="fill stroke markers" d=" M 74 221 L 82 221" stroke-linejoin="bevel" stroke-miterlimit="10"/><path fill="none" stroke="black" paint-order="fill stroke markers" d=" M 74 113 L 82 113" stroke-linejoin="bevel" stroke-miterlimit="10"/><path fill="none" stroke="black" paint-order="fill stroke markers" d=" M 74 5 L 82 5" stroke-linejoin="bevel" stroke-miterlimit="10"/><path fill="none" stroke="black" paint-order="fill stroke markers" d=" M 76 545 L 80 545" stroke-linejoin="bevel" stroke-miterlimit="10"/><path fill="none" stroke="black" paint-order="fill stroke markers" d=" M 76 523 L 80 523" stroke-linejoin="bevel" stroke-miterlimit="10"/><path fill="none" stroke="black" paint-order="fill stroke markers" d=" M 76 502 L 80 502" stroke-linejoin="bevel" stroke-miterlimit="10"/><path fill="none" stroke="black" paint-order="fill stroke markers" d=" M 76 480 L 80 480" stroke-linejoin="bevel" stroke-miterlimit="10"/><path fill="none" stroke="black" paint-order="fill stroke markers" d=" M 76 459 L 80 459" stroke-linejoin="bevel" stroke-miterlimit="10"/><path fill="none" stroke="black" paint-order="fill stroke markers" d=" M 76 437 L 80 437" stroke-linejoin="bevel" stroke-miterlimit="10"/><path fill="none" stroke="black" paint-order="fill stroke markers" d=" M 76 415 L 80 415" stroke-linejoin="bevel" stroke-miterlimit="10"/><path fill="none" stroke="black" paint-order="fill stroke markers" d=" M 76 394 L 80 394" stroke-linejoin="bevel" stroke-miterlimit="10"/><path fill="none" stroke="black" paint-order="fill stroke markers" d=" M 76 372 L 80 372" stroke-linejoin="bevel" stroke-miterlimit="10"/><path fill="none" stroke="black" paint-order="fill stroke markers" d=" M 76 351 L 80 351" stroke-linejoin="bevel" stroke-miterlimit="10"/><path fill="none" stroke="black" paint-order="fill stroke markers" d=" M 76 329 L 80 329" stroke-linejoin="bevel" stroke-miterlimit="10"/><path fill="none" stroke="black" paint-order="fill stroke markers" d=" M 76 307 L 80 307" stroke-linejoin="bevel" stroke-miterlimit="10"/><path fill="none" stroke="black" paint-order="fill stroke markers" d=" M 76 286 L 80 286" stroke-linejoin="bevel" stroke-miterlimit="10"/><path fill="none" stroke="black" paint-order="fill stroke markers" d=" M 76 264 L 80 264" stroke-linejoin="bevel" stroke-miterlimit="10"/><path fill="none" stroke="black" paint-order="fill stroke markers" d=" M 76 243 L 80 243" stroke-linejoin="bevel" stroke-miterlimit="10"/><path fill="none" stroke="black" paint-order="fill stroke markers" d=" M 76 221 L 80 221" stroke-linejoin="bevel" stroke-miterlimit="10"/><path fill="none" stroke="black" paint-order="fill stroke markers" d=" M 76 199 L 80 199" stroke-linejoin="bevel" stroke-miterlimit="10"/><path fill="none" stroke="black" paint-order="fill stroke markers" d=" M 76 178 L 80 178" stroke-linejoin="bevel" stroke-miterlimit="10"/><path fill="none" stroke="black" paint-order="fill stroke markers" d=" M 76 156 L 80 156" stroke-linejoin="bevel" stroke-miterlimit="10"/><path fill="none" stroke="black" paint-order="fill stroke markers" d=" M 76 135 L 80 135" stroke-linejoin="bevel" stroke-miterlimit="10"/><path fill="none" stroke="black" paint-order="fill stroke markers" d=" M 76 113 L 80 113" stroke-linejoin="bevel" stroke-miterlimit="10"/><path fill="none" stroke="black" paint-order="fill stroke markers" d=" M 76 91 L 80 91" stroke-linejoin="bevel" stroke-miterlimit="10"/><path fill="none" stroke="black" paint-order="fill stroke markers" d=" M 76 70 L 80 70" stroke-linejoin="bevel" stroke-miterlimit="10"/><path fill="none" stroke="black" paint-order="fill stroke markers" d=" M 76 48 L 80 48" stroke-linejoin="bevel" stroke-miterlimit="10"/><path fill="none" stroke="black" paint-order="fill stroke markers" d=" M 76 27 L 80 27" stroke-linejoin="bevel" stroke-miterlimit="10"/><path fill="" stroke="black" paint-order="fill stroke markers" d=" M 76 5 L 80 5" stroke-linejoin="bevel" stroke-miterlimit="10"/><g transform="translate(69,545) rotate(0,0,0)"><text fill="" stroke="none" font-family="helvetica" font-size="20pt" font-style="normal" font-weight="normal" text-decoration="normal" x="0" y="0" text-anchor="end" dominant-baseline="central">0</text><g transform="rotate(0,0,0) translate(-69,-545) translate(69,437) rotate(0,0,0)"><text fill="" stroke="none" font-family="helvetica" font-size="20pt" font-style="normal" font-weight="normal" text-decoration="normal" x="0" y="0" text-anchor="end" dominant-baseline="central">0.2</text><g transform="rotate(0,0,0) translate(-69,-437) translate(69,329) rotate(0,0,0)"><text fill="" stroke="none" font-family="helvetica" font-size="20pt" font-style="normal" font-weight="normal" text-decoration="normal" x="0" y="0" text-anchor="end" dominant-baseline="central">0.4</text><g transform="rotate(0,0,0) translate(-69,-329) translate(69,221) rotate(0,0,0)"><text fill="" stroke="none" font-family="helvetica" font-size="20pt" font-style="normal" font-weight="normal" text-decoration="normal" x="0" y="0" text-anchor="end" dominant-baseline="central">0.6</text><g transform="rotate(0,0,0) translate(-69,-221) translate(69,113) rotate(0,0,0)"><text fill="" stroke="none" font-family="helvetica" font-size="20pt" font-style="normal" font-weight="normal" text-decoration="normal" x="0" y="0" text-anchor="end" dominant-baseline="central">0.8</text><g transform="rotate(0,0,0) translate(-69,-113) translate(69,5) rotate(0,0,0)"><text fill="" stroke="none" font-family="helvetica" font-size="20pt" font-style="normal" font-weight="normal" text-decoration="normal" x="0" y="0" text-anchor="end" dominant-baseline="central">1</text><g transform="rotate(0,0,0) translate(-69,-5) translate(19,275) rotate(-90,0,0)"><text fill="" stroke="none" font-family="helvetica" font-size="20pt" font-style="italic" font-weight="normal" text-decoration="normal" x="0" y="0" text-anchor="middle" dominant-baseline="alphabetic">Spread Ratio (Female)</text><g transform="rotate(90,0,0) translate(-19,-275)"/></g></g></g></g></g></g></g></g></g><g clip-path="url(#DDhqJEoNqyhT)"><g/></g></g></g></svg>