<svg version="1.1" xmlns="http://www.w3.org/2000/svg" xmlns:xlink="http://www.w3.org/1999/xlink" width="600" height="600" style="width: 600px; height: 600px;"><defs><clipPath id="gqTkQEXgPWBs"><path fill="none" stroke="none" d=" M 113 5 L 570 5 L 570 570 L 113 570 L 113 5 Z"/></clipPath><clipPath id="ovfAHOPBqqEN"><path fill="none" stroke="none" d=" M 113 5 L 570 5 L 570 570 L 113 570 L 113 5 Z"/></clipPath><clipPath id="ynioaILHFkUT"><path fill="none" stroke="none" d=" M 113 5 L 570 5 L 570 570 L 113 570 L 113 5 Z"/></clipPath><clipPath id="VFgskEKypwgE"><path fill="none" stroke="none" d=" M 113 5 L 570 5 L 570 570 L 113 570 L 113 5 Z"/></clipPath><clipPath id="UzLLfPImXhtS"><path fill="none" stroke="none" d=" M 113 5 L 570 5 L 570 570 L 113 570 L 113 5 Z"/></clipPath><clipPath id="zmGmCXRiosDq"><path fill="none" stroke="none" d=" M 113 5 L 570 5 L 570 570 L 113 570 L 113 5 Z"/></clipPath><clipPath id="HucCsENFPXzA"><path fill="none" stroke="none" d=" M 113 5 L 570 5 L 570 570 L 113 570 L 113 5 Z"/></clipPath><clipPath id="ZWLdOUqCMeSJ"><path fill="none" stroke="none" d=" M 113 5 L 570 5 L 570 570 L 113 570 L 113 5 Z"/></clipPath></defs><g><g transform="scale(1,1) translate(0.5,0.5)"><rect fill="#FFFFFF" stroke="none" x="0" y="0" width="600" height="600"/><rect fill="#ffffff" stroke="none" x="0" y="0" width="600" height="600"/><rect fill="#FFFFFF" stroke="none" x="113" y="5" width="457" height="565"/><rect fill="#ffffff" stroke="none" x="113" y="5" width="457" height="565"/><g><rect fill="none" stroke="#e5e5e5" x="113" y="5" width="457" height="565" stroke-linejoin="bevel" stroke-miterlimit="10"/></g><g clip-path="url(#gqTkQEXgPWBs)"><g><g><path fill="none" stroke="#e5e5e5" paint-order="fill stroke markers" d=" M 344 570 L 344 5" stroke-linejoin="bevel" stroke-miterlimit="10"/><path fill="none" stroke="#e5e5e5" paint-order="fill stroke markers" d=" M 435 570 L 435 5" stroke-linejoin="bevel" stroke-miterlimit="10"/><path fill="none" stroke="#e5e5e5" paint-order="fill stroke markers" d=" M 488 570 L 488 5" stroke-linejoin="bevel" stroke-miterlimit="10"/><path fill="none" stroke="#e5e5e5" paint-order="fill stroke markers" d=" M 525 570 L 525 5" stroke-linejoin="bevel" stroke-miterlimit="10"/><path fill="none" stroke="#e5e5e5" paint-order="fill stroke markers" d=" M 555 570 L 555 5" stroke-linejoin="bevel" stroke-miterlimit="10"/></g></g></g><g clip-path="url(#ovfAHOPBqqEN)"><g><g><path fill="none" stroke="#e5e5e5" paint-order="fill stroke markers" d=" M 113 537 L 570 537" stroke-linejoin="bevel" stroke-miterlimit="10"/><path fill="none" stroke="#e5e5e5" paint-order="fill stroke markers" d=" M 113 360 L 570 360" stroke-linejoin="bevel" stroke-miterlimit="10"/><path fill="none" stroke="#e5e5e5" paint-order="fill stroke markers" d=" M 113 182 L 570 182" stroke-linejoin="bevel" stroke-miterlimit="10"/></g></g></g><g clip-path="url(#ynioaILHFkUT)"><g><g fill="#444444"><path fill="" stroke="none" d=""/><g transform="translate(132.0673555445483,354.6837877145149) rotate(0,0,0)"><path fill="none" stroke="none"/><text fill="" stroke="none" font-family="helvetica" font-size="19pt" font-style="normal" font-weight="normal" text-decoration="normal" x="0" y="0" text-anchor="start" dominant-baseline="text-after-edge">Female mean: 5.33(±4.71)</text></g></g><g fill="#444444"><path fill="" stroke="none" d=""/><g transform="translate(132.0673555445483,318.45293864753967) rotate(0,0,0)"><path fill="none" stroke="none"/><text fill="" stroke="none" font-family="helvetica" font-size="19pt" font-style="normal" font-weight="normal" text-decoration="normal" x="0" y="0" text-anchor="start" dominant-baseline="text-after-edge">Male mean: 4.15(±4.31)</text></g></g></g></g><g clip-path="url(#VFgskEKypwgE)"><g><g><path fill="none" stroke="none"/><path fill="none" stroke="blue" paint-order="fill stroke markers" d=" M 133.77272727272728 47.14970610001603 L 224.38514676126175 59.6468512299773 L 277.3900142616693 73.82478555799986 L 314.99756624979625 90.90266335501747 L 344.16824982887465 106.20051545807797 L 368.00243375020375 122.93321886228426 L 388.1539491234129 136.70791085319252 L 405.6099857383307 152.80005074832565 L 421.00730125061136 170.51930456270526 L 434.78066931740915 185.79603423306395 L 447.2401962925899 198.38616139023122 L 458.6148532387383 223.09015971156572 L 469.07852330496223 244.69760603910726 L 478.76636861194737 265.3770889273877 L 487.7855368178167 298.1297697872229 L 504.14762488790007 307.7781355847216 L 511.6197207391458 339.03394770976223 L 518.6877170777645 366.5287057407894 L 525.3930888059435 378.41161401397846 L 537.8526157811244 409.66742613901863" stroke-linejoin="bevel" stroke-miterlimit="10"/><path fill="none" stroke="none"/></g></g></g><g clip-path="url(#UzLLfPImXhtS)"><g><g><path fill="none" stroke="none"/><path fill="none" stroke="red" paint-order="fill stroke markers" d=" M 133.77272727272728 30.68181818181813 L 224.38514676126175 40.54049719402781 L 277.3900142616693 50.945903261728404 L 314.99756624979625 65.4112548036635 L 344.16824982887465 78.69718837695655 L 368.00243375020375 92.3124463551606 L 388.1539491234129 109.40434112060723 L 405.6099857383307 127.15431518313727 L 421.00730125061136 142.73807737729658 L 434.78066931740915 163.93775670722744 L 447.2401962925899 184.83083440565855 L 458.6148532387383 204.62042207026184 L 469.07852330496223 223.72519932948234 L 478.76636861194737 241.2282220969944 L 487.7855368178167 263.91005958161725 L 496.2224052268652 279.6047533212747 L 504.14762488790007 290.2542541987093 L 511.6197207391458 321.5100663237498 L 518.6877170777645 394.31513392371687 L 525.3930888059435 420.2525396408059 L 531.7712361123549 490.8860180700613 L 537.8526157811244 544.3181818181819" stroke-linejoin="bevel" stroke-miterlimit="10"/><path fill="none" stroke="none"/><path fill="none" stroke="red" paint-order="fill stroke markers" d=" M 549.2272727272727 NaN" stroke-linejoin="bevel" stroke-miterlimit="10"/></g></g></g><g clip-path="url(#zmGmCXRiosDq)"><g><g/><g><path fill="#ffffff" stroke="#e5e5e5" paint-order="fill stroke markers" d=" M 123 475 L 255 475 L 255 560 L 123 560 L 123 475 Z" fill-opacity="0.95" stroke-linejoin="bevel" stroke-miterlimit="10" stroke-opacity="0.5"/><text fill="#444444" stroke="none" font-family="helvetica" font-size="22pt" font-style="normal" font-weight="normal" text-decoration="normal" x="158" y="500.5" text-anchor="start" dominant-baseline="central">male</text><g><path fill="none" stroke="blue" paint-order="fill stroke markers" d=" M 133 495 L 153 495" stroke-linejoin="bevel" stroke-miterlimit="10"/></g><text fill="#444444" stroke="none" font-family="helvetica" font-size="22pt" font-style="normal" font-weight="normal" text-decoration="normal" x="158" y="534.5" text-anchor="start" dominant-baseline="central">female</text><g><path fill="none" stroke="red" paint-order="fill stroke markers" d=" M 133 529 L 153 529" stroke-linejoin="bevel" stroke-miterlimit="10"/></g></g></g></g><g/><g/><g><g fill="#444444"><path fill="none" stroke="black" paint-order="fill stroke markers" d=" M 113 570 L 570 570" stroke-linejoin="bevel" stroke-miterlimit="10"/><path fill="none" stroke="black" paint-order="fill stroke markers" d=" M 344 576 L 344 568" stroke-linejoin="bevel" stroke-miterlimit="10"/><path fill="none" stroke="black" paint-order="fill stroke markers" d=" M 435 576 L 435 568" stroke-linejoin="bevel" stroke-miterlimit="10"/><path fill="none" stroke="black" paint-order="fill stroke markers" d=" M 488 576 L 488 568" stroke-linejoin="bevel" stroke-miterlimit="10"/><path fill="" stroke="black" paint-order="fill stroke markers" d=" M 525 576 L 525 568" stroke-linejoin="bevel" stroke-miterlimit="10"/><g transform="translate(344,581) rotate(0,0,0)"><text fill="" stroke="none" font-family="helvetica" font-size="26px" font-style="normal" font-weight="normal" text-decoration="normal" x="0" y="0" text-anchor="middle" dominant-baseline="hanging">5</text><g transform="rotate(0,0,0) translate(-344,-581) translate(435,581) rotate(0,0,0)"><text fill="" stroke="none" font-family="helvetica" font-size="26px" font-style="normal" font-weight="normal" text-decoration="normal" x="0" y="0" text-anchor="middle" dominant-baseline="hanging">10</text><g transform="rotate(0,0,0) translate(-435,-581) translate(488,581) rotate(0,0,0)"><text fill="" stroke="none" font-family="helvetica" font-size="26px" font-style="normal" font-weight="normal" text-decoration="normal" x="0" y="0" text-anchor="middle" dominant-baseline="hanging">15</text><g transform="rotate(0,0,0) translate(-488,-581) translate(525,581) rotate(0,0,0)"><text fill="" stroke="none" font-family="helvetica" font-size="26px" font-style="normal" font-weight="normal" text-decoration="normal" x="0" y="0" text-anchor="middle" dominant-baseline="hanging">20</text><g transform="rotate(0,0,0) translate(-525,-581)"/></g></g></g></g></g></g><g><g fill="#444444"><path fill="none" stroke="black" paint-order="fill stroke markers" d=" M 113 570 L 113 5" stroke-linejoin="bevel" stroke-miterlimit="10"/><path fill="none" stroke="black" paint-order="fill stroke markers" d=" M 107 537 L 115 537" stroke-linejoin="bevel" stroke-miterlimit="10"/><path fill="none" stroke="black" paint-order="fill stroke markers" d=" M 107 360 L 115 360" stroke-linejoin="bevel" stroke-miterlimit="10"/><path fill="none" stroke="black" paint-order="fill stroke markers" d=" M 107 182 L 115 182" stroke-linejoin="bevel" stroke-miterlimit="10"/><path fill="none" stroke="black" paint-order="fill stroke markers" d=" M 109 565 L 113 565" stroke-linejoin="bevel" stroke-miterlimit="10"/><path fill="none" stroke="black" paint-order="fill stroke markers" d=" M 109 554 L 113 554" stroke-linejoin="bevel" stroke-miterlimit="10"/><path fill="none" stroke="black" paint-order="fill stroke markers" d=" M 109 545 L 113 545" stroke-linejoin="bevel" stroke-miterlimit="10"/><path fill="none" stroke="black" paint-order="fill stroke markers" d=" M 109 537 L 113 537" stroke-linejoin="bevel" stroke-miterlimit="10"/><path fill="none" stroke="black" paint-order="fill stroke markers" d=" M 109 537 L 113 537" stroke-linejoin="bevel" stroke-miterlimit="10"/><path fill="none" stroke="black" paint-order="fill stroke markers" d=" M 109 484 L 113 484" stroke-linejoin="bevel" stroke-miterlimit="10"/><path fill="none" stroke="black" paint-order="fill stroke markers" d=" M 109 452 L 113 452" stroke-linejoin="bevel" stroke-miterlimit="10"/><path fill="none" stroke="black" paint-order="fill stroke markers" d=" M 109 430 L 113 430" stroke-linejoin="bevel" stroke-miterlimit="10"/><path fill="none" stroke="black" paint-order="fill stroke markers" d=" M 109 413 L 113 413" stroke-linejoin="bevel" stroke-miterlimit="10"/><path fill="none" stroke="black" paint-order="fill stroke markers" d=" M 109 399 L 113 399" stroke-linejoin="bevel" stroke-miterlimit="10"/><path fill="none" stroke="black" paint-order="fill stroke markers" d=" M 109 387 L 113 387" stroke-linejoin="bevel" stroke-miterlimit="10"/><path fill="none" stroke="black" paint-order="fill stroke markers" d=" M 109 377 L 113 377" stroke-linejoin="bevel" stroke-miterlimit="10"/><path fill="none" stroke="black" paint-order="fill stroke markers" d=" M 109 368 L 113 368" stroke-linejoin="bevel" stroke-miterlimit="10"/><path fill="none" stroke="black" paint-order="fill stroke markers" d=" M 109 360 L 113 360" stroke-linejoin="bevel" stroke-miterlimit="10"/><path fill="none" stroke="black" paint-order="fill stroke markers" d=" M 109 360 L 113 360" stroke-linejoin="bevel" stroke-miterlimit="10"/><path fill="none" stroke="black" paint-order="fill stroke markers" d=" M 109 306 L 113 306" stroke-linejoin="bevel" stroke-miterlimit="10"/><path fill="none" stroke="black" paint-order="fill stroke markers" d=" M 109 275 L 113 275" stroke-linejoin="bevel" stroke-miterlimit="10"/><path fill="none" stroke="black" paint-order="fill stroke markers" d=" M 109 253 L 113 253" stroke-linejoin="bevel" stroke-miterlimit="10"/><path fill="none" stroke="black" paint-order="fill stroke markers" d=" M 109 236 L 113 236" stroke-linejoin="bevel" stroke-miterlimit="10"/><path fill="none" stroke="black" paint-order="fill stroke markers" d=" M 109 222 L 113 222" stroke-linejoin="bevel" stroke-miterlimit="10"/><path fill="none" stroke="black" paint-order="fill stroke markers" d=" M 109 210 L 113 210" stroke-linejoin="bevel" stroke-miterlimit="10"/><path fill="none" stroke="black" paint-order="fill stroke markers" d=" M 109 199 L 113 199" stroke-linejoin="bevel" stroke-miterlimit="10"/><path fill="none" stroke="black" paint-order="fill stroke markers" d=" M 109 190 L 113 190" stroke-linejoin="bevel" stroke-miterlimit="10"/><path fill="none" stroke="black" paint-order="fill stroke markers" d=" M 109 182 L 113 182" stroke-linejoin="bevel" stroke-miterlimit="10"/><path fill="none" stroke="black" paint-order="fill stroke markers" d=" M 109 182 L 113 182" stroke-linejoin="bevel" stroke-miterlimit="10"/><path fill="none" stroke="black" paint-order="fill stroke markers" d=" M 109 129 L 113 129" stroke-linejoin="bevel" stroke-miterlimit="10"/><path fill="none" stroke="black" paint-order="fill stroke markers" d=" M 109 97 L 113 97" stroke-linejoin="bevel" stroke-miterlimit="10"/><path fill="none" stroke="black" paint-order="fill stroke markers" d=" M 109 75 L 113 75" stroke-linejoin="bevel" stroke-miterlimit="10"/><path fill="none" stroke="black" paint-order="fill stroke markers" d=" M 109 58 L 113 58" stroke-linejoin="bevel" stroke-miterlimit="10"/><path fill="none" stroke="black" paint-order="fill stroke markers" d=" M 109 44 L 113 44" stroke-linejoin="bevel" stroke-miterlimit="10"/><path fill="none" stroke="black" paint-order="fill stroke markers" d=" M 109 32 L 113 32" stroke-linejoin="bevel" stroke-miterlimit="10"/><path fill="none" stroke="black" paint-order="fill stroke markers" d=" M 109 22 L 113 22" stroke-linejoin="bevel" stroke-miterlimit="10"/><path fill="" stroke="black" paint-order="fill stroke markers" d=" M 109 13 L 113 13" stroke-linejoin="bevel" stroke-miterlimit="10"/><g transform="translate(102,537) rotate(0,0,0)"><text fill="" stroke="none" font-family="helvetica" font-size="26px" font-style="normal" font-weight="normal" text-decoration="normal" x="0" y="0" text-anchor="end" dominant-baseline="central">10^-3</text><g transform="rotate(0,0,0) translate(-102,-537) translate(102,360) rotate(0,0,0)"><text fill="" stroke="none" font-family="helvetica" font-size="26px" font-style="normal" font-weight="normal" text-decoration="normal" x="0" y="0" text-anchor="end" dominant-baseline="central">10^-2</text><g transform="rotate(0,0,0) translate(-102,-360) translate(102,182) rotate(0,0,0)"><text fill="" stroke="none" font-family="helvetica" font-size="26px" font-style="normal" font-weight="normal" text-decoration="normal" x="0" y="0" text-anchor="end" dominant-baseline="central">10^-1</text><g transform="rotate(0,0,0) translate(-102,-182) translate(26,288) rotate(-90,0,0)"><text fill="" stroke="none" font-family="helvetica" font-size="26pt" font-style="italic" font-weight="normal" text-decoration="normal" x="0" y="0" text-anchor="middle" dominant-baseline="alphabetic">CCDF</text><g transform="rotate(90,0,0) translate(-26,-288)"/></g></g></g></g></g></g><g clip-path="url(#HucCsENFPXzA)"><g/></g><g clip-path="url(#ZWLdOUqCMeSJ)"><g/></g></g></g></svg>