<svg version="1.1" xmlns="http://www.w3.org/2000/svg" xmlns:xlink="http://www.w3.org/1999/xlink" width="600" height="600" style="width: 600px; height: 600px;"><defs><clipPath id="UuhWUsywaMaJ"><path fill="none" stroke="none" d=" M 113 5 L 570 5 L 570 570 L 113 570 L 113 5 Z"/></clipPath><clipPath id="NiDwWXmdiwNa"><path fill="none" stroke="none" d=" M 113 5 L 570 5 L 570 570 L 113 570 L 113 5 Z"/></clipPath><clipPath id="EKopbTXDbZhH"><path fill="none" stroke="none" d=" M 113 5 L 570 5 L 570 570 L 113 570 L 113 5 Z"/></clipPath><clipPath id="JXhzNLosvoTe"><path fill="none" stroke="none" d=" M 113 5 L 570 5 L 570 570 L 113 570 L 113 5 Z"/></clipPath><clipPath id="PNTonHGTdBoN"><path fill="none" stroke="none" d=" M 113 5 L 570 5 L 570 570 L 113 570 L 113 5 Z"/></clipPath><clipPath id="MfAvidXfgSkE"><path fill="none" stroke="none" d=" M 113 5 L 570 5 L 570 570 L 113 570 L 113 5 Z"/></clipPath><clipPath id="JWmOMFsuDxkg"><path fill="none" stroke="none" d=" M 113 5 L 570 5 L 570 570 L 113 570 L 113 5 Z"/></clipPath><clipPath id="gKRHnDCiIefA"><path fill="none" stroke="none" d=" M 113 5 L 570 5 L 570 570 L 113 570 L 113 5 Z"/></clipPath></defs><g><g transform="scale(1,1) translate(0.5,0.5)"><rect fill="#FFFFFF" stroke="none" x="0" y="0" width="600" height="600"/><rect fill="#ffffff" stroke="none" x="0" y="0" width="600" height="600"/><rect fill="#FFFFFF" stroke="none" x="113" y="5" width="457" height="565"/><rect fill="#ffffff" stroke="none" x="113" y="5" width="457" height="565"/><g><rect fill="none" stroke="#e5e5e5" x="113" y="5" width="457" height="565" stroke-linejoin="bevel" stroke-miterlimit="10"/></g><g clip-path="url(#UuhWUsywaMaJ)"><g><g><path fill="none" stroke="#e5e5e5" paint-order="fill stroke markers" d=" M 134 570 L 134 5" stroke-linejoin="bevel" stroke-miterlimit="10"/><path fill="none" stroke="#e5e5e5" paint-order="fill stroke markers" d=" M 355 570 L 355 5" stroke-linejoin="bevel" stroke-miterlimit="10"/></g></g></g><g clip-path="url(#NiDwWXmdiwNa)"><g><g><path fill="none" stroke="#e5e5e5" paint-order="fill stroke markers" d=" M 113 537 L 570 537" stroke-linejoin="bevel" stroke-miterlimit="10"/><path fill="none" stroke="#e5e5e5" paint-order="fill stroke markers" d=" M 113 368 L 570 368" stroke-linejoin="bevel" stroke-miterlimit="10"/><path fill="none" stroke="#e5e5e5" paint-order="fill stroke markers" d=" M 113 199 L 570 199" stroke-linejoin="bevel" stroke-miterlimit="10"/><path fill="none" stroke="#e5e5e5" paint-order="fill stroke markers" d=" M 113 29 L 570 29" stroke-linejoin="bevel" stroke-miterlimit="10"/></g></g></g><g clip-path="url(#EKopbTXDbZhH)"><g><g fill="#444444"><path fill="" stroke="none" d=""/><g transform="translate(138.77272727272728,362.81347469486076) rotate(0,0,0)"><path fill="none" stroke="none"/><text fill="" stroke="none" font-family="helvetica" font-size="20pt" font-style="normal" font-weight="normal" text-decoration="normal" x="0" y="0" text-anchor="start" dominant-baseline="text-after-edge">Female mean: 12.84(±9.74)</text></g></g><g fill="#444444"><path fill="" stroke="none" d=""/><g transform="translate(138.77272727272728,328.2826712379509) rotate(0,0,0)"><path fill="none" stroke="none"/><text fill="" stroke="none" font-family="helvetica" font-size="20pt" font-style="normal" font-weight="normal" text-decoration="normal" x="0" y="0" text-anchor="start" dominant-baseline="text-after-edge">Male mean: 12.52(±10.23)</text></g></g></g></g><g clip-path="url(#JXhzNLosvoTe)"><g><g><path fill="none" stroke="none"/><path fill="none" stroke="blue" paint-order="fill stroke markers" d=" M 133.77272727272728 30.93006338805867 L 133.77272727272728 34.544032618200276 L 200.47149731213437 39.32679866008891 L 239.48777662941126 43.739672014282746 L 267.17026735154144 48.80852496988018 L 288.642475321658 53.98455406012897 L 306.1865466688183 60.279773383899794 L 321.019847638045 65.26520966601765 L 333.8690373909485 71.8001127316619 L 345.2028259860952 77.85184626290618 L 355.34124536106515 84.24450489442734 L 364.5125612712702 90.14204892622581 L 372.8853167082254 98.74067020835577 L 380.58750507770833 105.98999108829503 L 387.718617677452 111.93872554578672 L 394.357524678342 117.77024168846901 L 400.5678074303556 124.10484482327149 L 406.40147136590514 131.42125617953405 L 411.9015960255023 136.1884996426815 L 417.10426763597127 143.97487420783477 L 422.04001540047216 149.66565795161551 L 426.73489699472896 156.91497883155466 L 431.2113313106773 164.95870081717845 L 435.48874593878446 169.33688615029627 L 439.5840867476325 179.70182174942568 L 443.51222337058874 190.04427250453114 L 447.2862751171154 196.28176903556192 L 450.91787534277915 203.09837129739594 L 454.4173877168591 211.75179991311904 L 457.79408452255115 225.6074474296799 L 461.05629471774904 231.37269637915074 L 464.21152770930047 240.96926024779088 L 467.2665774697627 244.4684562036249 L 470.22761062795416 250.05108207304727 L 473.10024140531226 260.4160176721768 L 475.8895956869757 275.15913860442396 L 478.60036606490934 280.8134068269388 L 481.2368593378278 290.20522585166816 L 483.8030376753784 300.976069816307 L 486.3025544343923 309.1477312809742 L 488.7387854398792 323.4122236326541 L 491.11485640291323 348.1325788565486 L 495.6979123195421 374.3372113759143 L 500.072574035026 399.05756659980835 L 504.2569717542283 415.4517508861582 L 510.21099340999587 436.5875304499265 L 512.116520722589 466.3767386294179 L 526.1377832460291 517.3017263726776" stroke-linejoin="bevel" stroke-miterlimit="10"/><path fill="none" stroke="none"/></g></g></g><g clip-path="url(#PNTonHGTdBoN)"><g><g><path fill="none" stroke="none"/><path fill="none" stroke="red" paint-order="fill stroke markers" d=" M 133.77272727272728 30.68181818181813 L 133.77272727272728 33.50658084808822 L 200.47149731213437 36.22532400287719 L 239.48777662941126 40.27052328642219 L 267.17026735154144 45.04292973110887 L 288.642475321658 49.971036997542456 L 306.1865466688183 55.91765385059318 L 321.019847638045 64.07250121122217 L 333.8690373909485 71.10681656131072 L 345.2028259860952 76.83142392493266 L 355.34124536106515 81.67442601938154 L 364.5125612712702 88.32584446098872 L 372.8853167082254 93.22560821128258 L 380.58750507770833 99.1590826775938 L 387.718617677452 104.49817887386126 L 394.357524678342 110.65627192828805 L 400.5678074303556 117.15850437173003 L 406.40147136590514 126.00408127217878 L 411.9015960255023 133.55268865807994 L 417.10426763597127 143.20665285478157 L 422.04001540047216 151.4703233825382 L 426.73489699472896 161.9838317871521 L 431.2113313106773 170.53641038391737 L 435.48874593878446 178.6813994114521 L 439.5840867476325 185.58249763116163 L 443.51222337058874 191.37046785103917 L 447.2862751171154 195.07558369780202 L 450.91787534277915 203.09837129739594 L 454.4173877168591 210.52582488439123 L 457.79408452255115 220.55992390586954 L 461.05629471774904 227.11566634969194 L 464.21152770930047 234.31421123995915 L 467.2665774697627 243.5098506360418 L 470.22761062795416 256.9048745291834 L 473.10024140531226 263.03085690684264 L 475.8895956869757 275.15913860442396 L 478.60036606490934 283.109507048549 L 481.2368593378278 302.1755940499281 L 483.8030376753784 320.639470898667 L 486.3025544343923 350.4286790781589 L 488.7387854398792 361.7540104089113 L 493.433667034136 382.88978997267964 L 497.91010135008435 401.3536668214185 L 500.072574035026 426.0740220453126 L 502.1875159781916 442.46820633166243 L 504.2569717542283 463.6039858954308 L 517.6166453821863 493.3931940749222 L 519.382309320201 544.3181818181819" stroke-linejoin="bevel" stroke-miterlimit="10"/><path fill="none" stroke="none"/><path fill="none" stroke="red" paint-order="fill stroke markers" d=" M 549.2272727272727 NaN" stroke-linejoin="bevel" stroke-miterlimit="10"/></g></g></g><g clip-path="url(#MfAvidXfgSkE)"><g><g/><g><path fill="#ffffff" stroke="#e5e5e5" paint-order="fill stroke markers" d=" M 123 475 L 255 475 L 255 560 L 123 560 L 123 475 Z" fill-opacity="0.95" stroke-linejoin="bevel" stroke-miterlimit="10" stroke-opacity="0.5"/><text fill="#444444" stroke="none" font-family="helvetica" font-size="22pt" font-style="normal" font-weight="normal" text-decoration="normal" x="158" y="500.5" text-anchor="start" dominant-baseline="central">male</text><g><path fill="none" stroke="blue" paint-order="fill stroke markers" d=" M 133 495 L 153 495" stroke-linejoin="bevel" stroke-miterlimit="10"/></g><text fill="#444444" stroke="none" font-family="helvetica" font-size="22pt" font-style="normal" font-weight="normal" text-decoration="normal" x="158" y="534.5" text-anchor="start" dominant-baseline="central">female</text><g><path fill="none" stroke="red" paint-order="fill stroke markers" d=" M 133 529 L 153 529" stroke-linejoin="bevel" stroke-miterlimit="10"/></g></g></g></g><g/><g/><g><g fill="#444444"><path fill="none" stroke="black" paint-order="fill stroke markers" d=" M 113 570 L 570 570" stroke-linejoin="bevel" stroke-miterlimit="10"/><path fill="none" stroke="black" paint-order="fill stroke markers" d=" M 134 576 L 134 568" stroke-linejoin="bevel" stroke-miterlimit="10"/><path fill="none" stroke="black" paint-order="fill stroke markers" d=" M 355 576 L 355 568" stroke-linejoin="bevel" stroke-miterlimit="10"/><path fill="none" stroke="black" paint-order="fill stroke markers" d=" M 124 574 L 124 570" stroke-linejoin="bevel" stroke-miterlimit="10"/><path fill="none" stroke="black" paint-order="fill stroke markers" d=" M 134 574 L 134 570" stroke-linejoin="bevel" stroke-miterlimit="10"/><path fill="none" stroke="black" paint-order="fill stroke markers" d=" M 134 574 L 134 570" stroke-linejoin="bevel" stroke-miterlimit="10"/><path fill="none" stroke="black" paint-order="fill stroke markers" d=" M 200 574 L 200 570" stroke-linejoin="bevel" stroke-miterlimit="10"/><path fill="none" stroke="black" paint-order="fill stroke markers" d=" M 239 574 L 239 570" stroke-linejoin="bevel" stroke-miterlimit="10"/><path fill="none" stroke="black" paint-order="fill stroke markers" d=" M 267 574 L 267 570" stroke-linejoin="bevel" stroke-miterlimit="10"/><path fill="none" stroke="black" paint-order="fill stroke markers" d=" M 289 574 L 289 570" stroke-linejoin="bevel" stroke-miterlimit="10"/><path fill="none" stroke="black" paint-order="fill stroke markers" d=" M 306 574 L 306 570" stroke-linejoin="bevel" stroke-miterlimit="10"/><path fill="none" stroke="black" paint-order="fill stroke markers" d=" M 321 574 L 321 570" stroke-linejoin="bevel" stroke-miterlimit="10"/><path fill="none" stroke="black" paint-order="fill stroke markers" d=" M 334 574 L 334 570" stroke-linejoin="bevel" stroke-miterlimit="10"/><path fill="none" stroke="black" paint-order="fill stroke markers" d=" M 345 574 L 345 570" stroke-linejoin="bevel" stroke-miterlimit="10"/><path fill="none" stroke="black" paint-order="fill stroke markers" d=" M 355 574 L 355 570" stroke-linejoin="bevel" stroke-miterlimit="10"/><path fill="none" stroke="black" paint-order="fill stroke markers" d=" M 355 574 L 355 570" stroke-linejoin="bevel" stroke-miterlimit="10"/><path fill="none" stroke="black" paint-order="fill stroke markers" d=" M 422 574 L 422 570" stroke-linejoin="bevel" stroke-miterlimit="10"/><path fill="none" stroke="black" paint-order="fill stroke markers" d=" M 461 574 L 461 570" stroke-linejoin="bevel" stroke-miterlimit="10"/><path fill="none" stroke="black" paint-order="fill stroke markers" d=" M 489 574 L 489 570" stroke-linejoin="bevel" stroke-miterlimit="10"/><path fill="none" stroke="black" paint-order="fill stroke markers" d=" M 510 574 L 510 570" stroke-linejoin="bevel" stroke-miterlimit="10"/><path fill="none" stroke="black" paint-order="fill stroke markers" d=" M 528 574 L 528 570" stroke-linejoin="bevel" stroke-miterlimit="10"/><path fill="none" stroke="black" paint-order="fill stroke markers" d=" M 543 574 L 543 570" stroke-linejoin="bevel" stroke-miterlimit="10"/><path fill="none" stroke="black" paint-order="fill stroke markers" d=" M 555 574 L 555 570" stroke-linejoin="bevel" stroke-miterlimit="10"/><path fill="" stroke="black" paint-order="fill stroke markers" d=" M 567 574 L 567 570" stroke-linejoin="bevel" stroke-miterlimit="10"/><g transform="translate(134,581) rotate(0,0,0)"><text fill="" stroke="none" font-family="helvetica" font-size="26px" font-style="normal" font-weight="normal" text-decoration="normal" x="0" y="0" text-anchor="middle" dominant-baseline="hanging">10^0</text><g transform="rotate(0,0,0) translate(-134,-581) translate(355,581) rotate(0,0,0)"><text fill="" stroke="none" font-family="helvetica" font-size="26px" font-style="normal" font-weight="normal" text-decoration="normal" x="0" y="0" text-anchor="middle" dominant-baseline="hanging">10^1</text><g transform="rotate(0,0,0) translate(-355,-581)"/></g></g></g></g><g><g fill="#444444"><path fill="none" stroke="black" paint-order="fill stroke markers" d=" M 113 570 L 113 5" stroke-linejoin="bevel" stroke-miterlimit="10"/><path fill="none" stroke="black" paint-order="fill stroke markers" d=" M 107 537 L 115 537" stroke-linejoin="bevel" stroke-miterlimit="10"/><path fill="none" stroke="black" paint-order="fill stroke markers" d=" M 107 368 L 115 368" stroke-linejoin="bevel" stroke-miterlimit="10"/><path fill="none" stroke="black" paint-order="fill stroke markers" d=" M 107 199 L 115 199" stroke-linejoin="bevel" stroke-miterlimit="10"/><path fill="none" stroke="black" paint-order="fill stroke markers" d=" M 107 29 L 115 29" stroke-linejoin="bevel" stroke-miterlimit="10"/><path fill="none" stroke="black" paint-order="fill stroke markers" d=" M 109 563 L 113 563" stroke-linejoin="bevel" stroke-miterlimit="10"/><path fill="none" stroke="black" paint-order="fill stroke markers" d=" M 109 553 L 113 553" stroke-linejoin="bevel" stroke-miterlimit="10"/><path fill="none" stroke="black" paint-order="fill stroke markers" d=" M 109 545 L 113 545" stroke-linejoin="bevel" stroke-miterlimit="10"/><path fill="none" stroke="black" paint-order="fill stroke markers" d=" M 109 537 L 113 537" stroke-linejoin="bevel" stroke-miterlimit="10"/><path fill="none" stroke="black" paint-order="fill stroke markers" d=" M 109 537 L 113 537" stroke-linejoin="bevel" stroke-miterlimit="10"/><path fill="none" stroke="black" paint-order="fill stroke markers" d=" M 109 486 L 113 486" stroke-linejoin="bevel" stroke-miterlimit="10"/><path fill="none" stroke="black" paint-order="fill stroke markers" d=" M 109 456 L 113 456" stroke-linejoin="bevel" stroke-miterlimit="10"/><path fill="none" stroke="black" paint-order="fill stroke markers" d=" M 109 435 L 113 435" stroke-linejoin="bevel" stroke-miterlimit="10"/><path fill="none" stroke="black" paint-order="fill stroke markers" d=" M 109 419 L 113 419" stroke-linejoin="bevel" stroke-miterlimit="10"/><path fill="none" stroke="black" paint-order="fill stroke markers" d=" M 109 405 L 113 405" stroke-linejoin="bevel" stroke-miterlimit="10"/><path fill="none" stroke="black" paint-order="fill stroke markers" d=" M 109 394 L 113 394" stroke-linejoin="bevel" stroke-miterlimit="10"/><path fill="none" stroke="black" paint-order="fill stroke markers" d=" M 109 384 L 113 384" stroke-linejoin="bevel" stroke-miterlimit="10"/><path fill="none" stroke="black" paint-order="fill stroke markers" d=" M 109 376 L 113 376" stroke-linejoin="bevel" stroke-miterlimit="10"/><path fill="none" stroke="black" paint-order="fill stroke markers" d=" M 109 368 L 113 368" stroke-linejoin="bevel" stroke-miterlimit="10"/><path fill="none" stroke="black" paint-order="fill stroke markers" d=" M 109 368 L 113 368" stroke-linejoin="bevel" stroke-miterlimit="10"/><path fill="none" stroke="black" paint-order="fill stroke markers" d=" M 109 317 L 113 317" stroke-linejoin="bevel" stroke-miterlimit="10"/><path fill="none" stroke="black" paint-order="fill stroke markers" d=" M 109 287 L 113 287" stroke-linejoin="bevel" stroke-miterlimit="10"/><path fill="none" stroke="black" paint-order="fill stroke markers" d=" M 109 266 L 113 266" stroke-linejoin="bevel" stroke-miterlimit="10"/><path fill="none" stroke="black" paint-order="fill stroke markers" d=" M 109 250 L 113 250" stroke-linejoin="bevel" stroke-miterlimit="10"/><path fill="none" stroke="black" paint-order="fill stroke markers" d=" M 109 236 L 113 236" stroke-linejoin="bevel" stroke-miterlimit="10"/><path fill="none" stroke="black" paint-order="fill stroke markers" d=" M 109 225 L 113 225" stroke-linejoin="bevel" stroke-miterlimit="10"/><path fill="none" stroke="black" paint-order="fill stroke markers" d=" M 109 215 L 113 215" stroke-linejoin="bevel" stroke-miterlimit="10"/><path fill="none" stroke="black" paint-order="fill stroke markers" d=" M 109 206 L 113 206" stroke-linejoin="bevel" stroke-miterlimit="10"/><path fill="none" stroke="black" paint-order="fill stroke markers" d=" M 109 199 L 113 199" stroke-linejoin="bevel" stroke-miterlimit="10"/><path fill="none" stroke="black" paint-order="fill stroke markers" d=" M 109 199 L 113 199" stroke-linejoin="bevel" stroke-miterlimit="10"/><path fill="none" stroke="black" paint-order="fill stroke markers" d=" M 109 148 L 113 148" stroke-linejoin="bevel" stroke-miterlimit="10"/><path fill="none" stroke="black" paint-order="fill stroke markers" d=" M 109 118 L 113 118" stroke-linejoin="bevel" stroke-miterlimit="10"/><path fill="none" stroke="black" paint-order="fill stroke markers" d=" M 109 97 L 113 97" stroke-linejoin="bevel" stroke-miterlimit="10"/><path fill="none" stroke="black" paint-order="fill stroke markers" d=" M 109 80 L 113 80" stroke-linejoin="bevel" stroke-miterlimit="10"/><path fill="none" stroke="black" paint-order="fill stroke markers" d=" M 109 67 L 113 67" stroke-linejoin="bevel" stroke-miterlimit="10"/><path fill="none" stroke="black" paint-order="fill stroke markers" d=" M 109 56 L 113 56" stroke-linejoin="bevel" stroke-miterlimit="10"/><path fill="none" stroke="black" paint-order="fill stroke markers" d=" M 109 46 L 113 46" stroke-linejoin="bevel" stroke-miterlimit="10"/><path fill="none" stroke="black" paint-order="fill stroke markers" d=" M 109 37 L 113 37" stroke-linejoin="bevel" stroke-miterlimit="10"/><path fill="none" stroke="black" paint-order="fill stroke markers" d=" M 109 29 L 113 29" stroke-linejoin="bevel" stroke-miterlimit="10"/><path fill="" stroke="black" paint-order="fill stroke markers" d=" M 109 29 L 113 29" stroke-linejoin="bevel" stroke-miterlimit="10"/><g transform="translate(102,537) rotate(0,0,0)"><text fill="" stroke="none" font-family="helvetica" font-size="26px" font-style="normal" font-weight="normal" text-decoration="normal" x="0" y="0" text-anchor="end" dominant-baseline="central">10^-3</text><g transform="rotate(0,0,0) translate(-102,-537) translate(102,368) rotate(0,0,0)"><text fill="" stroke="none" font-family="helvetica" font-size="26px" font-style="normal" font-weight="normal" text-decoration="normal" x="0" y="0" text-anchor="end" dominant-baseline="central">10^-2</text><g transform="rotate(0,0,0) translate(-102,-368) translate(102,199) rotate(0,0,0)"><text fill="" stroke="none" font-family="helvetica" font-size="26px" font-style="normal" font-weight="normal" text-decoration="normal" x="0" y="0" text-anchor="end" dominant-baseline="central">10^-1</text><g transform="rotate(0,0,0) translate(-102,-199) translate(102,29) rotate(0,0,0)"><text fill="" stroke="none" font-family="helvetica" font-size="26px" font-style="normal" font-weight="normal" text-decoration="normal" x="0" y="0" text-anchor="end" dominant-baseline="central">10^0</text><g transform="rotate(0,0,0) translate(-102,-29) translate(26,288) rotate(-90,0,0)"><text fill="" stroke="none" font-family="helvetica" font-size="26pt" font-style="italic" font-weight="normal" text-decoration="normal" x="0" y="0" text-anchor="middle" dominant-baseline="alphabetic">CCDF</text><g transform="rotate(90,0,0) translate(-26,-288)"/></g></g></g></g></g></g></g><g clip-path="url(#JWmOMFsuDxkg)"><g/></g><g clip-path="url(#gKRHnDCiIefA)"><g/></g></g></g></svg>