<svg version="1.1" xmlns="http://www.w3.org/2000/svg" xmlns:xlink="http://www.w3.org/1999/xlink" width="600" height="600" style="width: 600px; height: 600px;"><defs><clipPath id="WXJViTLbMRqO"><path fill="none" stroke="none" d=" M 113 5 L 570 5 L 570 570 L 113 570 L 113 5 Z"/></clipPath><clipPath id="KneAyULqlSwz"><path fill="none" stroke="none" d=" M 113 5 L 570 5 L 570 570 L 113 570 L 113 5 Z"/></clipPath><clipPath id="IKNESubpIEqT"><path fill="none" stroke="none" d=" M 113 5 L 570 5 L 570 570 L 113 570 L 113 5 Z"/></clipPath><clipPath id="TvDCiPJachDm"><path fill="none" stroke="none" d=" M 113 5 L 570 5 L 570 570 L 113 570 L 113 5 Z"/></clipPath><clipPath id="yKZKuHytJQzX"><path fill="none" stroke="none" d=" M 113 5 L 570 5 L 570 570 L 113 570 L 113 5 Z"/></clipPath><clipPath id="XprZVNhZuBGF"><path fill="none" stroke="none" d=" M 113 5 L 570 5 L 570 570 L 113 570 L 113 5 Z"/></clipPath><clipPath id="tyLPTcREhKEZ"><path fill="none" stroke="none" d=" M 113 5 L 570 5 L 570 570 L 113 570 L 113 5 Z"/></clipPath><clipPath id="yVrhMmmyUzaO"><path fill="none" stroke="none" d=" M 113 5 L 570 5 L 570 570 L 113 570 L 113 5 Z"/></clipPath></defs><g><g transform="scale(1,1) translate(0.5,0.5)"><rect fill="#FFFFFF" stroke="none" x="0" y="0" width="600" height="600"/><rect fill="#ffffff" stroke="none" x="0" y="0" width="600" height="600"/><rect fill="#FFFFFF" stroke="none" x="113" y="5" width="457" height="565"/><rect fill="#ffffff" stroke="none" x="113" y="5" width="457" height="565"/><g><rect fill="none" stroke="#e5e5e5" x="113" y="5" width="457" height="565" stroke-linejoin="bevel" stroke-miterlimit="10"/></g><g clip-path="url(#WXJViTLbMRqO)"><g><g><path fill="none" stroke="#e5e5e5" paint-order="fill stroke markers" d=" M 134 570 L 134 5" stroke-linejoin="bevel" stroke-miterlimit="10"/><path fill="none" stroke="#e5e5e5" paint-order="fill stroke markers" d=" M 342 570 L 342 5" stroke-linejoin="bevel" stroke-miterlimit="10"/><path fill="none" stroke="#e5e5e5" paint-order="fill stroke markers" d=" M 550 570 L 550 5" stroke-linejoin="bevel" stroke-miterlimit="10"/></g></g></g><g clip-path="url(#KneAyULqlSwz)"><g><g><path fill="none" stroke="#e5e5e5" paint-order="fill stroke markers" d=" M 113 537 L 570 537" stroke-linejoin="bevel" stroke-miterlimit="10"/><path fill="none" stroke="#e5e5e5" paint-order="fill stroke markers" d=" M 113 368 L 570 368" stroke-linejoin="bevel" stroke-miterlimit="10"/><path fill="none" stroke="#e5e5e5" paint-order="fill stroke markers" d=" M 113 198 L 570 198" stroke-linejoin="bevel" stroke-miterlimit="10"/><path fill="none" stroke="#e5e5e5" paint-order="fill stroke markers" d=" M 113 29 L 570 29" stroke-linejoin="bevel" stroke-miterlimit="10"/></g></g></g><g clip-path="url(#IKNESubpIEqT)"><g><g fill="#444444"><path fill="" stroke="none" d=""/><g transform="translate(138.77272727272728,362.7281270877594) rotate(0,0,0)"><path fill="none" stroke="none"/><text fill="" stroke="none" font-family="helvetica" font-size="20pt" font-style="normal" font-weight="normal" text-decoration="normal" x="0" y="0" text-anchor="start" dominant-baseline="text-after-edge">Female mean: 22.82(±15.19)</text></g></g><g fill="#444444"><path fill="" stroke="none" d=""/><g transform="translate(138.77272727272728,328.18062650421564) rotate(0,0,0)"><path fill="none" stroke="none"/><text fill="" stroke="none" font-family="helvetica" font-size="20pt" font-style="normal" font-weight="normal" text-decoration="normal" x="0" y="0" text-anchor="start" dominant-baseline="text-after-edge">Male mean: 25.60(±16.16)</text></g></g></g></g><g clip-path="url(#TvDCiPJachDm)"><g><g><path fill="none" stroke="none"/><path fill="none" stroke="blue" paint-order="fill stroke markers" d=" M 133.77272727272728 30.68181818181813 L 133.77272727272728 32.066874692683996 L 196.44163607696603 32.769314536229786 L 233.10059768855962 34.60702907455607 L 259.11054488120476 36.28004019262232 L 279.2854273012232 38.64443199381401 L 295.7695064927983 41.200410319320554 L 309.7065968642861 43.73134040569653 L 321.7794536854435 45.628342536204286 L 332.4284681043919 48.070585551795716 L 341.95433610546195 51.501853841578736 L 350.57153189560813 53.4796795169774 L 358.43841529703707 55.92553464848402 L 365.67524650449434 58.17012898718889 L 372.3755056685248 62.42183811811441 L 378.6132977170555 64.41064161570444 L 384.44836248968227 67.09532412056382 L 389.92956331175935 70.72185455695023 L 395.0973769086306 74.53663642231027 L 399.98570921974 78.56028901453595 L 404.62324490970065 81.2404466944526 L 409.03446728011835 84.02203951061017 L 413.24044069984683 88.40234188438768 L 417.259418967188 91.69907166338191 L 421.1073241012758 96.81855966868227 L 424.7981273297191 101.03415253866632 L 428.34415530873304 106.05078580235465 L 431.75633852022423 110.84934454477991 L 435.0444144727635 117.24509430132605 L 438.2170952291021 121.8406376863042 L 441.2822065212943 125.30848609685825 L 444.24680404665844 130.4559213494138 L 447.117271293921 135.1744235332245 L 449.89940231144044 142.42424165786997 L 452.59847211599816 146.57294626373448 L 455.2192968927819 148.98315408474542 L 457.7662857128694 154.58137609554956 L 460.2434851632625 163.57024127887865 L 462.65461802397874 167.24624488072112 L 465.00311692032665 173.12976432183194 L 467.29215371393946 176.6140541740188 L 469.52466526410444 183.3349028806885 L 471.7033760843571 191.60256924808522 L 473.830818332808 194.27576394284057 L 475.9093495040856 200.9194220382667 L 477.94116813288787 202.93337686298037 L 479.92832777142684 208.22377116118565 L 481.8727494635544 215.1198955716094 L 483.7762329055146 224.079376483989 L 485.6404664558448 228.28079156382364 L 489.2574337275917 235.86532334131203 L 491.01306411297185 242.55218141024233 L 492.7352518776822 246.13849036666386 L 494.42524732446304 253.8829890251373 L 496.0842319241041 264.8742821666617 L 497.71332327700236 269.77641516318295 L 500.88600403334084 277.80308212517497 L 502.4315480610735 283.6866015662858 L 503.951115325533 290.0823513228318 L 505.44556462234954 297.0881025288209 L 506.9157128508972 304.83260118729424 L 508.3623376959507 309.03401626712895 L 509.7861800981597 318.23410214982937 L 515.267380920237 323.3054061135475 L 516.5872893830204 341.0319634849891 L 517.8882056970208 348.0377146909782 L 520.4351945171081 355.78221334945164 L 521.6822780674164 364.43982626959144 L 522.9123939675014 385.58582589060006 L 525.3235268282175 398.9873268531352 L 527.6720257245654 415.38943843174843 L 528.8237881021541 436.535438052757 L 533.2894920192339 466.3390505939054 L 541.6091160960531 517.2886627560624" stroke-linejoin="bevel" stroke-miterlimit="10"/><path fill="none" stroke="none"/></g></g></g><g clip-path="url(#yKZKuHytJQzX)"><g><g><path fill="none" stroke="none"/><path fill="none" stroke="red" paint-order="fill stroke markers" d=" M 133.77272727272728 30.97642680386764 L 133.77272727272728 31.72962601731001 L 196.44163607696603 32.35167277174662 L 233.10059768855962 33.25958149870587 L 259.11054488120476 34.75031323844905 L 279.2854273012232 35.615933677582234 L 295.7695064927983 36.7124943343448 L 309.7065968642861 38.350965985100856 L 321.7794536854435 39.64255559643789 L 332.4284681043919 40.56812609838403 L 341.95433610546195 42.375389039131505 L 350.57153189560813 44.63725220272511 L 358.43841529703707 46.296572163830774 L 365.67524650449434 48.94490897779406 L 372.3755056685248 51.782598021147464 L 378.6132977170555 54.078373412702035 L 384.44836248968227 56.351897519098316 L 389.92956331175935 58.49959951998608 L 395.0973769086306 60.91641183831052 L 399.98570921974 64.05364842829971 L 404.62324490970065 66.44249169377531 L 409.03446728011835 69.48450177746503 L 413.24044069984683 73.26085720967347 L 417.259418967188 76.10018470497914 L 421.1073241012758 79.7116708333549 L 424.7981273297191 83.09335055817638 L 428.34415530873304 87.36808709326937 L 431.75633852022423 91.13066652457701 L 435.0444144727635 95.42297410121853 L 438.2170952291021 98.60114901184346 L 441.2822065212943 104.84166164035912 L 444.24680404665844 110.24601897316728 L 447.117271293921 114.78989395935594 L 449.89940231144044 121.71047162997291 L 452.59847211599816 127.80888884031538 L 455.2192968927819 132.53582272445277 L 457.7662857128694 137.5877552945152 L 460.2434851632625 143.0126982020377 L 462.65461802397874 149.8934412949008 L 465.00311692032665 159.02486322790799 L 467.29215371393946 165.52675705026576 L 469.52466526410444 175.52426767684966 L 471.7033760843571 181.08397711058296 L 473.830818332808 194.27576394284057 L 475.9093495040856 205.81628568801318 L 477.94116813288787 210.3644219428079 L 479.92832777142684 216.0527095219968 L 481.8727494635544 221.30528300496007 L 483.7762329055146 232.0335892727399 L 485.6404664558448 237.48087744652418 L 487.46703613395783 244.59979996478717 L 489.2574337275917 255.31031062594315 L 491.01306411297185 264.5103965086436 L 492.7352518776822 273.16800942878336 L 494.42524732446304 285.11392316709146 L 496.0842319241041 289.57012100739655 L 497.71332327700236 294.31400904979193 L 499.31357963557235 296.80593422530217 L 500.88600403334084 307.71551001232706 L 502.4315480610735 310.71612062840506 L 503.951115325533 320.5313126345186 L 506.9157128508972 324.1176215909402 L 508.3623376959507 327.8879225152747 L 511.1879465329902 331.8621202494135 L 512.5683111156791 336.0635353292487 L 515.267380920237 340.5197331695539 L 516.5872893830204 355.78221334945164 L 519.1706686740961 361.66573279056246 L 520.4351945171081 375.06723375309764 L 522.9123939675014 382.81173241157103 L 526.5054014871669 391.4693453317109 L 527.6720257245654 401.2845373378244 L 528.8237881021541 426.01684591525463 L 533.2894920192339 442.4189574938678 L 534.3722848885959 463.5649571148765 L 535.4422633402553 493.3685696560248 L 538.5782583083244 544.3181818181819" stroke-linejoin="bevel" stroke-miterlimit="10"/><path fill="none" stroke="none"/><path fill="none" stroke="red" paint-order="fill stroke markers" d=" M 549.2272727272727 NaN" stroke-linejoin="bevel" stroke-miterlimit="10"/></g></g></g><g clip-path="url(#XprZVNhZuBGF)"><g><g/><g><path fill="#ffffff" stroke="#e5e5e5" paint-order="fill stroke markers" d=" M 123 475 L 255 475 L 255 560 L 123 560 L 123 475 Z" fill-opacity="0.95" stroke-linejoin="bevel" stroke-miterlimit="10" stroke-opacity="0.5"/><text fill="#444444" stroke="none" font-family="helvetica" font-size="22pt" font-style="normal" font-weight="normal" text-decoration="normal" x="158" y="500.5" text-anchor="start" dominant-baseline="central">male</text><g><path fill="none" stroke="blue" paint-order="fill stroke markers" d=" M 133 495 L 153 495" stroke-linejoin="bevel" stroke-miterlimit="10"/></g><text fill="#444444" stroke="none" font-family="helvetica" font-size="22pt" font-style="normal" font-weight="normal" text-decoration="normal" x="158" y="534.5" text-anchor="start" dominant-baseline="central">female</text><g><path fill="none" stroke="red" paint-order="fill stroke markers" d=" M 133 529 L 153 529" stroke-linejoin="bevel" stroke-miterlimit="10"/></g></g></g></g><g/><g/><g><g fill="#444444"><path fill="none" stroke="black" paint-order="fill stroke markers" d=" M 113 570 L 570 570" stroke-linejoin="bevel" stroke-miterlimit="10"/><path fill="none" stroke="black" paint-order="fill stroke markers" d=" M 134 576 L 134 568" stroke-linejoin="bevel" stroke-miterlimit="10"/><path fill="none" stroke="black" paint-order="fill stroke markers" d=" M 342 576 L 342 568" stroke-linejoin="bevel" stroke-miterlimit="10"/><path fill="none" stroke="black" paint-order="fill stroke markers" d=" M 550 576 L 550 568" stroke-linejoin="bevel" stroke-miterlimit="10"/><path fill="none" stroke="black" paint-order="fill stroke markers" d=" M 114 574 L 114 570" stroke-linejoin="bevel" stroke-miterlimit="10"/><path fill="none" stroke="black" paint-order="fill stroke markers" d=" M 124 574 L 124 570" stroke-linejoin="bevel" stroke-miterlimit="10"/><path fill="none" stroke="black" paint-order="fill stroke markers" d=" M 134 574 L 134 570" stroke-linejoin="bevel" stroke-miterlimit="10"/><path fill="none" stroke="black" paint-order="fill stroke markers" d=" M 134 574 L 134 570" stroke-linejoin="bevel" stroke-miterlimit="10"/><path fill="none" stroke="black" paint-order="fill stroke markers" d=" M 196 574 L 196 570" stroke-linejoin="bevel" stroke-miterlimit="10"/><path fill="none" stroke="black" paint-order="fill stroke markers" d=" M 233 574 L 233 570" stroke-linejoin="bevel" stroke-miterlimit="10"/><path fill="none" stroke="black" paint-order="fill stroke markers" d=" M 259 574 L 259 570" stroke-linejoin="bevel" stroke-miterlimit="10"/><path fill="none" stroke="black" paint-order="fill stroke markers" d=" M 279 574 L 279 570" stroke-linejoin="bevel" stroke-miterlimit="10"/><path fill="none" stroke="black" paint-order="fill stroke markers" d=" M 296 574 L 296 570" stroke-linejoin="bevel" stroke-miterlimit="10"/><path fill="none" stroke="black" paint-order="fill stroke markers" d=" M 310 574 L 310 570" stroke-linejoin="bevel" stroke-miterlimit="10"/><path fill="none" stroke="black" paint-order="fill stroke markers" d=" M 322 574 L 322 570" stroke-linejoin="bevel" stroke-miterlimit="10"/><path fill="none" stroke="black" paint-order="fill stroke markers" d=" M 332 574 L 332 570" stroke-linejoin="bevel" stroke-miterlimit="10"/><path fill="none" stroke="black" paint-order="fill stroke markers" d=" M 342 574 L 342 570" stroke-linejoin="bevel" stroke-miterlimit="10"/><path fill="none" stroke="black" paint-order="fill stroke markers" d=" M 342 574 L 342 570" stroke-linejoin="bevel" stroke-miterlimit="10"/><path fill="none" stroke="black" paint-order="fill stroke markers" d=" M 405 574 L 405 570" stroke-linejoin="bevel" stroke-miterlimit="10"/><path fill="none" stroke="black" paint-order="fill stroke markers" d=" M 441 574 L 441 570" stroke-linejoin="bevel" stroke-miterlimit="10"/><path fill="none" stroke="black" paint-order="fill stroke markers" d=" M 467 574 L 467 570" stroke-linejoin="bevel" stroke-miterlimit="10"/><path fill="none" stroke="black" paint-order="fill stroke markers" d=" M 487 574 L 487 570" stroke-linejoin="bevel" stroke-miterlimit="10"/><path fill="none" stroke="black" paint-order="fill stroke markers" d=" M 504 574 L 504 570" stroke-linejoin="bevel" stroke-miterlimit="10"/><path fill="none" stroke="black" paint-order="fill stroke markers" d=" M 518 574 L 518 570" stroke-linejoin="bevel" stroke-miterlimit="10"/><path fill="none" stroke="black" paint-order="fill stroke markers" d=" M 530 574 L 530 570" stroke-linejoin="bevel" stroke-miterlimit="10"/><path fill="none" stroke="black" paint-order="fill stroke markers" d=" M 541 574 L 541 570" stroke-linejoin="bevel" stroke-miterlimit="10"/><path fill="none" stroke="black" paint-order="fill stroke markers" d=" M 550 574 L 550 570" stroke-linejoin="bevel" stroke-miterlimit="10"/><path fill="" stroke="black" paint-order="fill stroke markers" d=" M 550 574 L 550 570" stroke-linejoin="bevel" stroke-miterlimit="10"/><g transform="translate(134,581) rotate(0,0,0)"><text fill="" stroke="none" font-family="helvetica" font-size="26px" font-style="normal" font-weight="normal" text-decoration="normal" x="0" y="0" text-anchor="middle" dominant-baseline="hanging">10^0</text><g transform="rotate(0,0,0) translate(-134,-581) translate(342,581) rotate(0,0,0)"><text fill="" stroke="none" font-family="helvetica" font-size="26px" font-style="normal" font-weight="normal" text-decoration="normal" x="0" y="0" text-anchor="middle" dominant-baseline="hanging">10^1</text><g transform="rotate(0,0,0) translate(-342,-581) translate(550,581) rotate(0,0,0)"><text fill="" stroke="none" font-family="helvetica" font-size="26px" font-style="normal" font-weight="normal" text-decoration="normal" x="0" y="0" text-anchor="middle" dominant-baseline="hanging">10^2</text><g transform="rotate(0,0,0) translate(-550,-581)"/></g></g></g></g></g><g><g fill="#444444"><path fill="none" stroke="black" paint-order="fill stroke markers" d=" M 113 570 L 113 5" stroke-linejoin="bevel" stroke-miterlimit="10"/><path fill="none" stroke="black" paint-order="fill stroke markers" d=" M 107 537 L 115 537" stroke-linejoin="bevel" stroke-miterlimit="10"/><path fill="none" stroke="black" paint-order="fill stroke markers" d=" M 107 368 L 115 368" stroke-linejoin="bevel" stroke-miterlimit="10"/><path fill="none" stroke="black" paint-order="fill stroke markers" d=" M 107 198 L 115 198" stroke-linejoin="bevel" stroke-miterlimit="10"/><path fill="none" stroke="black" paint-order="fill stroke markers" d=" M 107 29 L 115 29" stroke-linejoin="bevel" stroke-miterlimit="10"/><path fill="none" stroke="black" paint-order="fill stroke markers" d=" M 109 563 L 113 563" stroke-linejoin="bevel" stroke-miterlimit="10"/><path fill="none" stroke="black" paint-order="fill stroke markers" d=" M 109 553 L 113 553" stroke-linejoin="bevel" stroke-miterlimit="10"/><path fill="none" stroke="black" paint-order="fill stroke markers" d=" M 109 545 L 113 545" stroke-linejoin="bevel" stroke-miterlimit="10"/><path fill="none" stroke="black" paint-order="fill stroke markers" d=" M 109 537 L 113 537" stroke-linejoin="bevel" stroke-miterlimit="10"/><path fill="none" stroke="black" paint-order="fill stroke markers" d=" M 109 537 L 113 537" stroke-linejoin="bevel" stroke-miterlimit="10"/><path fill="none" stroke="black" paint-order="fill stroke markers" d=" M 109 486 L 113 486" stroke-linejoin="bevel" stroke-miterlimit="10"/><path fill="none" stroke="black" paint-order="fill stroke markers" d=" M 109 456 L 113 456" stroke-linejoin="bevel" stroke-miterlimit="10"/><path fill="none" stroke="black" paint-order="fill stroke markers" d=" M 109 435 L 113 435" stroke-linejoin="bevel" stroke-miterlimit="10"/><path fill="none" stroke="black" paint-order="fill stroke markers" d=" M 109 419 L 113 419" stroke-linejoin="bevel" stroke-miterlimit="10"/><path fill="none" stroke="black" paint-order="fill stroke markers" d=" M 109 405 L 113 405" stroke-linejoin="bevel" stroke-miterlimit="10"/><path fill="none" stroke="black" paint-order="fill stroke markers" d=" M 109 394 L 113 394" stroke-linejoin="bevel" stroke-miterlimit="10"/><path fill="none" stroke="black" paint-order="fill stroke markers" d=" M 109 384 L 113 384" stroke-linejoin="bevel" stroke-miterlimit="10"/><path fill="none" stroke="black" paint-order="fill stroke markers" d=" M 109 375 L 113 375" stroke-linejoin="bevel" stroke-miterlimit="10"/><path fill="none" stroke="black" paint-order="fill stroke markers" d=" M 109 368 L 113 368" stroke-linejoin="bevel" stroke-miterlimit="10"/><path fill="none" stroke="black" paint-order="fill stroke markers" d=" M 109 368 L 113 368" stroke-linejoin="bevel" stroke-miterlimit="10"/><path fill="none" stroke="black" paint-order="fill stroke markers" d=" M 109 317 L 113 317" stroke-linejoin="bevel" stroke-miterlimit="10"/><path fill="none" stroke="black" paint-order="fill stroke markers" d=" M 109 287 L 113 287" stroke-linejoin="bevel" stroke-miterlimit="10"/><path fill="none" stroke="black" paint-order="fill stroke markers" d=" M 109 266 L 113 266" stroke-linejoin="bevel" stroke-miterlimit="10"/><path fill="none" stroke="black" paint-order="fill stroke markers" d=" M 109 249 L 113 249" stroke-linejoin="bevel" stroke-miterlimit="10"/><path fill="none" stroke="black" paint-order="fill stroke markers" d=" M 109 236 L 113 236" stroke-linejoin="bevel" stroke-miterlimit="10"/><path fill="none" stroke="black" paint-order="fill stroke markers" d=" M 109 225 L 113 225" stroke-linejoin="bevel" stroke-miterlimit="10"/><path fill="none" stroke="black" paint-order="fill stroke markers" d=" M 109 215 L 113 215" stroke-linejoin="bevel" stroke-miterlimit="10"/><path fill="none" stroke="black" paint-order="fill stroke markers" d=" M 109 206 L 113 206" stroke-linejoin="bevel" stroke-miterlimit="10"/><path fill="none" stroke="black" paint-order="fill stroke markers" d=" M 109 198 L 113 198" stroke-linejoin="bevel" stroke-miterlimit="10"/><path fill="none" stroke="black" paint-order="fill stroke markers" d=" M 109 198 L 113 198" stroke-linejoin="bevel" stroke-miterlimit="10"/><path fill="none" stroke="black" paint-order="fill stroke markers" d=" M 109 148 L 113 148" stroke-linejoin="bevel" stroke-miterlimit="10"/><path fill="none" stroke="black" paint-order="fill stroke markers" d=" M 109 118 L 113 118" stroke-linejoin="bevel" stroke-miterlimit="10"/><path fill="none" stroke="black" paint-order="fill stroke markers" d=" M 109 97 L 113 97" stroke-linejoin="bevel" stroke-miterlimit="10"/><path fill="none" stroke="black" paint-order="fill stroke markers" d=" M 109 80 L 113 80" stroke-linejoin="bevel" stroke-miterlimit="10"/><path fill="none" stroke="black" paint-order="fill stroke markers" d=" M 109 67 L 113 67" stroke-linejoin="bevel" stroke-miterlimit="10"/><path fill="none" stroke="black" paint-order="fill stroke markers" d=" M 109 55 L 113 55" stroke-linejoin="bevel" stroke-miterlimit="10"/><path fill="none" stroke="black" paint-order="fill stroke markers" d=" M 109 46 L 113 46" stroke-linejoin="bevel" stroke-miterlimit="10"/><path fill="none" stroke="black" paint-order="fill stroke markers" d=" M 109 37 L 113 37" stroke-linejoin="bevel" stroke-miterlimit="10"/><path fill="none" stroke="black" paint-order="fill stroke markers" d=" M 109 29 L 113 29" stroke-linejoin="bevel" stroke-miterlimit="10"/><path fill="" stroke="black" paint-order="fill stroke markers" d=" M 109 29 L 113 29" stroke-linejoin="bevel" stroke-miterlimit="10"/><g transform="translate(102,537) rotate(0,0,0)"><text fill="" stroke="none" font-family="helvetica" font-size="26px" font-style="normal" font-weight="normal" text-decoration="normal" x="0" y="0" text-anchor="end" dominant-baseline="central">10^-3</text><g transform="rotate(0,0,0) translate(-102,-537) translate(102,368) rotate(0,0,0)"><text fill="" stroke="none" font-family="helvetica" font-size="26px" font-style="normal" font-weight="normal" text-decoration="normal" x="0" y="0" text-anchor="end" dominant-baseline="central">10^-2</text><g transform="rotate(0,0,0) translate(-102,-368) translate(102,198) rotate(0,0,0)"><text fill="" stroke="none" font-family="helvetica" font-size="26px" font-style="normal" font-weight="normal" text-decoration="normal" x="0" y="0" text-anchor="end" dominant-baseline="central">10^-1</text><g transform="rotate(0,0,0) translate(-102,-198) translate(102,29) rotate(0,0,0)"><text fill="" stroke="none" font-family="helvetica" font-size="26px" font-style="normal" font-weight="normal" text-decoration="normal" x="0" y="0" text-anchor="end" dominant-baseline="central">10^0</text><g transform="rotate(0,0,0) translate(-102,-29) translate(26,288) rotate(-90,0,0)"><text fill="" stroke="none" font-family="helvetica" font-size="26pt" font-style="italic" font-weight="normal" text-decoration="normal" x="0" y="0" text-anchor="middle" dominant-baseline="alphabetic">CCDF</text><g transform="rotate(90,0,0) translate(-26,-288)"/></g></g></g></g></g></g></g><g clip-path="url(#tyLPTcREhKEZ)"><g/></g><g clip-path="url(#yVrhMmmyUzaO)"><g/></g></g></g></svg>