<svg version="1.1" xmlns="http://www.w3.org/2000/svg" xmlns:xlink="http://www.w3.org/1999/xlink" width="300" height="300" style="width: 300px; height: 300px;"><defs><clipPath id="aIkbNITWODxX"><path fill="none" stroke="none" d=" M 0 0 L 300 0 L 300 300 L 0 300 L 0 0 Z"/></clipPath></defs><g><g transform="scale(1,1) translate(0.5,0.5)"><rect fill="#FFFFFF" stroke="none" x="0" y="0" width="300" height="300"/><rect fill="#ffffff" stroke="none" x="0" y="0" width="300" height="300"/><rect fill="#FFFFFF" stroke="none" x="0" y="0" width="300" height="300"/><rect fill="#ffffff" stroke="none" x="0" y="0" width="300" height="300"/><g><rect fill="none" stroke="#e5e5e5" x="0" y="0" width="299" height="299" stroke-linejoin="bevel" stroke-miterlimit="10"/></g><g clip-path="url(#aIkbNITWODxX)"><g><g><path fill="none" stroke="none"/><path fill="yellow" stroke="yellow" paint-order="fill stroke markers" d=" M 18.636363636363654 13.636363636363683 A 5 5 0 1 1 18.636361136363863 13.631363637197014" stroke-linejoin="bevel" stroke-miterlimit="10" stroke-width="3"/><path fill="yellow" stroke="yellow" paint-order="fill stroke markers" d=" M 53.35227272727275 132.9545454545455 A 5.625 5.625 0 1 1 53.35226991477298 132.948920455483" stroke-linejoin="bevel" stroke-miterlimit="10" stroke-width="3"/><path fill="yellow" stroke="yellow" paint-order="fill stroke markers" d=" M 88.06818181818183 218.1818181818182 A 6.25 6.25 0 1 1 88.06817869318209 218.17556818285985" stroke-linejoin="bevel" stroke-miterlimit="10" stroke-width="3"/><path fill="yellow" stroke="yellow" paint-order="fill stroke markers" d=" M 122.7840909090909 269.3181818181818 A 6.875 6.875 0 1 1 122.78408747159119 269.3113068193276" stroke-linejoin="bevel" stroke-miterlimit="10" stroke-width="3"/><path fill="yellow" stroke="yellow" paint-order="fill stroke markers" d=" M 157.5 286.3636363636364 A 7.5 7.5 0 1 1 157.49999625000032 286.35613636488637" stroke-linejoin="bevel" stroke-miterlimit="10" stroke-width="3"/><path fill="yellow" stroke="yellow" paint-order="fill stroke markers" d=" M 192.2159090909091 269.3181818181818 A 8.125 8.125 0 1 1 192.21590502840942 269.310056819536" stroke-linejoin="bevel" stroke-miterlimit="10" stroke-width="3"/><path fill="yellow" stroke="yellow" paint-order="fill stroke markers" d=" M 226.9318181818182 218.1818181818182 A 8.75 8.75 0 1 1 226.93181380681855 218.1730681832765" stroke-linejoin="bevel" stroke-miterlimit="10" stroke-width="3"/><path fill="yellow" stroke="yellow" paint-order="fill stroke markers" d=" M 261.64772727272725 132.9545454545455 A 9.375 9.375 0 1 1 261.64772258522765 132.945170456108" stroke-linejoin="bevel" stroke-miterlimit="10" stroke-width="3"/><path fill="yellow" stroke="yellow" paint-order="fill stroke markers" d=" M 296.3636363636364 13.636363636363683 A 10 10 0 1 1 296.3636313636368 13.626363638030343" stroke-linejoin="bevel" stroke-miterlimit="10" stroke-width="3"/></g></g></g></g></g></svg>