<svg version="1.1" xmlns="http://www.w3.org/2000/svg" xmlns:xlink="http://www.w3.org/1999/xlink" width="600" height="500" style="width: 600px; height: 500px;"><defs><clipPath id="zfFvGKhkczbq"><path fill="none" stroke="none" d=" M 84 5 L 570 5 L 570 440 L 84 440 L 84 5 Z"/></clipPath><clipPath id="LQbcJOzNnbRZ"><path fill="none" stroke="none" d=" M 84 5 L 570 5 L 570 440 L 84 440 L 84 5 Z"/></clipPath><clipPath id="ftyazTTOyUed"><path fill="none" stroke="none" d=" M 84 5 L 570 5 L 570 440 L 84 440 L 84 5 Z"/></clipPath><clipPath id="hFxlXuksDJbQ"><path fill="none" stroke="none" d=" M 84 5 L 570 5 L 570 440 L 84 440 L 84 5 Z"/></clipPath><clipPath id="ScCFaLIAgVvH"><path fill="none" stroke="none" d=" M 84 5 L 570 5 L 570 440 L 84 440 L 84 5 Z"/></clipPath><clipPath id="gkZputmQMTwV"><path fill="none" stroke="none" d=" M 84 5 L 570 5 L 570 440 L 84 440 L 84 5 Z"/></clipPath><clipPath id="ReTtIixQLiTU"><path fill="none" stroke="none" d=" M 84 5 L 570 5 L 570 440 L 84 440 L 84 5 Z"/></clipPath><clipPath id="OrDerLOSyTcM"><path fill="none" stroke="none" d=" M 84 5 L 570 5 L 570 440 L 84 440 L 84 5 Z"/></clipPath></defs><g><g transform="scale(1,1) translate(0.5,0.5)"><rect fill="#FFFFFF" stroke="none" x="0" y="0" width="600" height="500"/><rect fill="#ffffff" stroke="none" x="0" y="0" width="600" height="500"/><rect fill="#FFFFFF" stroke="none" x="84" y="5" width="486" height="435"/><rect fill="#ffffff" stroke="none" x="84" y="5" width="486" height="435"/><g><rect fill="none" stroke="#e5e5e5" x="84" y="5" width="486" height="435" stroke-linejoin="bevel" stroke-miterlimit="10"/></g><g clip-path="url(#zfFvGKhkczbq)"><g><g><path fill="none" stroke="#e5e5e5" paint-order="fill stroke markers" d=" M 181 440 L 181 5" stroke-linejoin="bevel" stroke-miterlimit="10"/><path fill="none" stroke="#e5e5e5" paint-order="fill stroke markers" d=" M 278 440 L 278 5" stroke-linejoin="bevel" stroke-miterlimit="10"/><path fill="none" stroke="#e5e5e5" paint-order="fill stroke markers" d=" M 376 440 L 376 5" stroke-linejoin="bevel" stroke-miterlimit="10"/><path fill="none" stroke="#e5e5e5" paint-order="fill stroke markers" d=" M 473 440 L 473 5" stroke-linejoin="bevel" stroke-miterlimit="10"/></g></g></g><g clip-path="url(#LQbcJOzNnbRZ)"><g><g><path fill="none" stroke="#e5e5e5" paint-order="fill stroke markers" d=" M 84 361 L 570 361" stroke-linejoin="bevel" stroke-miterlimit="10"/><path fill="none" stroke="#e5e5e5" paint-order="fill stroke markers" d=" M 84 282 L 570 282" stroke-linejoin="bevel" stroke-miterlimit="10"/><path fill="none" stroke="#e5e5e5" paint-order="fill stroke markers" d=" M 84 203 L 570 203" stroke-linejoin="bevel" stroke-miterlimit="10"/><path fill="none" stroke="#e5e5e5" paint-order="fill stroke markers" d=" M 84 124 L 570 124" stroke-linejoin="bevel" stroke-miterlimit="10"/><path fill="none" stroke="#e5e5e5" paint-order="fill stroke markers" d=" M 84 45 L 570 45" stroke-linejoin="bevel" stroke-miterlimit="10"/></g></g></g><g clip-path="url(#ftyazTTOyUed)"><g><g><path fill="none" stroke="none"/><path fill="none" stroke="red" paint-order="fill stroke markers" d=" M 84 371.94568655808746 L 132.6 360.5907473309609 L 181.2 370.5019004785115 L 229.79999999999998 379.79711041632856 L 278.4 396.8902908266924 L 327 407.59533627205354 L 375.59999999999997 430.0400293991853 L 424.2 423.08117975105654 L 472.8 415.1037975301907 L 521.4000000000001 400.0904020018339 L 570 375.5470309939997" stroke-linejoin="bevel" stroke-miterlimit="10" stroke-width="5" stroke-dasharray="4,4"/></g></g></g><g clip-path="url(#hFxlXuksDJbQ)"><g><g><path fill="none" stroke="none"/><path fill="none" stroke="green" paint-order="fill stroke markers" d=" M 84 159.1100996708621 L 132.6 238.2010087617712 L 181.2 283.04964150840135 L 229.79999999999998 302.1793649426585 L 278.4 359.784476242433 L 327 379.6863644098448 L 375.59999999999997 436.32851310044634 L 424.2 390.44861082624146 L 472.8 340.12536067562166 L 521.4000000000001 296.5909914659462 L 570 252.85909577967033" stroke-linejoin="bevel" stroke-miterlimit="10" stroke-width="5" stroke-dasharray="4,4"/></g></g></g><g clip-path="url(#ScCFaLIAgVvH)"><g><g><path fill="none" stroke="none"/><path fill="none" stroke="orange" paint-order="fill stroke markers" d=" M 84 161.5215951651689 L 132.6 214.89937732573404 L 181.2 260.3908440755515 L 229.79999999999998 215.148959210308 L 278.4 315.51568455273497 L 327 373.3466863623845 L 375.59999999999997 427.56240454670643 L 424.2 348.44744031483117 L 472.8 341.7518606091079 L 521.4000000000001 298.38876100834074 L 570 200.06903082177328" stroke-linejoin="bevel" stroke-miterlimit="10" stroke-width="5" stroke-dasharray="4,4"/></g></g></g><g clip-path="url(#gkZputmQMTwV)"><g><g><path fill="none" stroke="none"/><path fill="none" stroke="purple" paint-order="fill stroke markers" d=" M 84 -28.091636363636383 L 132.6 31.270045454545425 L 181.2 111.00396363636366 L 229.79999999999998 117.47992727272731 L 278.4 230.16232727272728 L 327 313.0946818181818 L 375.59999999999997 375.47605454545453 L 424.2 390.8260181818182 L 472.8 336.4296636363636 L 521.4000000000001 265.9122090909091 L 570 189.21300909090908" stroke-linejoin="bevel" stroke-miterlimit="10" stroke-width="5" stroke-dasharray="4,4"/></g></g></g><g clip-path="url(#ReTtIixQLiTU)"><g><g><path fill="none" stroke="none"/><path fill="none" stroke="black" paint-order="fill stroke markers" d=" M 84 -53.95851652614698 L 132.6 25.132392564762085 L 181.2 104.22330165567121 L 229.79999999999998 183.31421074658027 L 278.4 262.4051198374894 L 327 341.49602892839846 L 375.59999999999997 420.5869380193075 L 424.2 380.3221528897834 L 472.8 301.23124379887423 L 521.4000000000001 222.14033470796517 L 570 143.0494256170561" stroke-linejoin="bevel" stroke-miterlimit="10" stroke-width="5" stroke-dasharray="4,4"/></g></g></g><g/><g/><g><g fill="#444444"><path fill="none" stroke="black" paint-order="fill stroke markers" d=" M 84 440 L 570 440" stroke-linejoin="bevel" stroke-miterlimit="10"/><path fill="none" stroke="black" paint-order="fill stroke markers" d=" M 84 446 L 84 438" stroke-linejoin="bevel" stroke-miterlimit="10"/><path fill="none" stroke="black" paint-order="fill stroke markers" d=" M 181 446 L 181 438" stroke-linejoin="bevel" stroke-miterlimit="10"/><path fill="none" stroke="black" paint-order="fill stroke markers" d=" M 278 446 L 278 438" stroke-linejoin="bevel" stroke-miterlimit="10"/><path fill="none" stroke="black" paint-order="fill stroke markers" d=" M 376 446 L 376 438" stroke-linejoin="bevel" stroke-miterlimit="10"/><path fill="none" stroke="black" paint-order="fill stroke markers" d=" M 473 446 L 473 438" stroke-linejoin="bevel" stroke-miterlimit="10"/><path fill="none" stroke="black" paint-order="fill stroke markers" d=" M 570 446 L 570 438" stroke-linejoin="bevel" stroke-miterlimit="10"/><path fill="none" stroke="black" paint-order="fill stroke markers" d=" M 84 444 L 84 440" stroke-linejoin="bevel" stroke-miterlimit="10"/><path fill="none" stroke="black" paint-order="fill stroke markers" d=" M 103 444 L 103 440" stroke-linejoin="bevel" stroke-miterlimit="10"/><path fill="none" stroke="black" paint-order="fill stroke markers" d=" M 123 444 L 123 440" stroke-linejoin="bevel" stroke-miterlimit="10"/><path fill="none" stroke="black" paint-order="fill stroke markers" d=" M 142 444 L 142 440" stroke-linejoin="bevel" stroke-miterlimit="10"/><path fill="none" stroke="black" paint-order="fill stroke markers" d=" M 162 444 L 162 440" stroke-linejoin="bevel" stroke-miterlimit="10"/><path fill="none" stroke="black" paint-order="fill stroke markers" d=" M 181 444 L 181 440" stroke-linejoin="bevel" stroke-miterlimit="10"/><path fill="none" stroke="black" paint-order="fill stroke markers" d=" M 201 444 L 201 440" stroke-linejoin="bevel" stroke-miterlimit="10"/><path fill="none" stroke="black" paint-order="fill stroke markers" d=" M 220 444 L 220 440" stroke-linejoin="bevel" stroke-miterlimit="10"/><path fill="none" stroke="black" paint-order="fill stroke markers" d=" M 240 444 L 240 440" stroke-linejoin="bevel" stroke-miterlimit="10"/><path fill="none" stroke="black" paint-order="fill stroke markers" d=" M 259 444 L 259 440" stroke-linejoin="bevel" stroke-miterlimit="10"/><path fill="none" stroke="black" paint-order="fill stroke markers" d=" M 278 444 L 278 440" stroke-linejoin="bevel" stroke-miterlimit="10"/><path fill="none" stroke="black" paint-order="fill stroke markers" d=" M 298 444 L 298 440" stroke-linejoin="bevel" stroke-miterlimit="10"/><path fill="none" stroke="black" paint-order="fill stroke markers" d=" M 317 444 L 317 440" stroke-linejoin="bevel" stroke-miterlimit="10"/><path fill="none" stroke="black" paint-order="fill stroke markers" d=" M 337 444 L 337 440" stroke-linejoin="bevel" stroke-miterlimit="10"/><path fill="none" stroke="black" paint-order="fill stroke markers" d=" M 356 444 L 356 440" stroke-linejoin="bevel" stroke-miterlimit="10"/><path fill="none" stroke="black" paint-order="fill stroke markers" d=" M 376 444 L 376 440" stroke-linejoin="bevel" stroke-miterlimit="10"/><path fill="none" stroke="black" paint-order="fill stroke markers" d=" M 395 444 L 395 440" stroke-linejoin="bevel" stroke-miterlimit="10"/><path fill="none" stroke="black" paint-order="fill stroke markers" d=" M 414 444 L 414 440" stroke-linejoin="bevel" stroke-miterlimit="10"/><path fill="none" stroke="black" paint-order="fill stroke markers" d=" M 434 444 L 434 440" stroke-linejoin="bevel" stroke-miterlimit="10"/><path fill="none" stroke="black" paint-order="fill stroke markers" d=" M 453 444 L 453 440" stroke-linejoin="bevel" stroke-miterlimit="10"/><path fill="none" stroke="black" paint-order="fill stroke markers" d=" M 473 444 L 473 440" stroke-linejoin="bevel" stroke-miterlimit="10"/><path fill="none" stroke="black" paint-order="fill stroke markers" d=" M 492 444 L 492 440" stroke-linejoin="bevel" stroke-miterlimit="10"/><path fill="none" stroke="black" paint-order="fill stroke markers" d=" M 512 444 L 512 440" stroke-linejoin="bevel" stroke-miterlimit="10"/><path fill="none" stroke="black" paint-order="fill stroke markers" d=" M 531 444 L 531 440" stroke-linejoin="bevel" stroke-miterlimit="10"/><path fill="none" stroke="black" paint-order="fill stroke markers" d=" M 551 444 L 551 440" stroke-linejoin="bevel" stroke-miterlimit="10"/><path fill="" stroke="black" paint-order="fill stroke markers" d=" M 570 444 L 570 440" stroke-linejoin="bevel" stroke-miterlimit="10"/><g transform="translate(84,451) rotate(0,0,0)"><text fill="" stroke="none" font-family="helvetica" font-size="26px" font-style="normal" font-weight="normal" text-decoration="normal" x="0" y="0" text-anchor="middle" dominant-baseline="hanging">0</text><g transform="rotate(0,0,0) translate(-84,-451) translate(181,451) rotate(0,0,0)"><text fill="" stroke="none" font-family="helvetica" font-size="26px" font-style="normal" font-weight="normal" text-decoration="normal" x="0" y="0" text-anchor="middle" dominant-baseline="hanging">0.2</text><g transform="rotate(0,0,0) translate(-181,-451) translate(278,451) rotate(0,0,0)"><text fill="" stroke="none" font-family="helvetica" font-size="26px" font-style="normal" font-weight="normal" text-decoration="normal" x="0" y="0" text-anchor="middle" dominant-baseline="hanging">0.4</text><g transform="rotate(0,0,0) translate(-278,-451) translate(376,451) rotate(0,0,0)"><text fill="" stroke="none" font-family="helvetica" font-size="26px" font-style="normal" font-weight="normal" text-decoration="normal" x="0" y="0" text-anchor="middle" dominant-baseline="hanging">0.6</text><g transform="rotate(0,0,0) translate(-376,-451) translate(473,451) rotate(0,0,0)"><text fill="" stroke="none" font-family="helvetica" font-size="26px" font-style="normal" font-weight="normal" text-decoration="normal" x="0" y="0" text-anchor="middle" dominant-baseline="hanging">0.8</text><g transform="rotate(0,0,0) translate(-473,-451) translate(570,451) rotate(0,0,0)"><text fill="" stroke="none" font-family="helvetica" font-size="26px" font-style="normal" font-weight="normal" text-decoration="normal" x="0" y="0" text-anchor="middle" dominant-baseline="hanging">1</text><g transform="rotate(0,0,0) translate(-570,-451) translate(327,475) rotate(0,0,0)"><text fill="" stroke="none" font-family="helvetica" font-size="26pt" font-style="italic" font-weight="normal" text-decoration="normal" x="0" y="0" text-anchor="middle" dominant-baseline="hanging">Target Ratio(Female)</text><g transform="rotate(0,0,0) translate(-327,-475)"/></g></g></g></g></g></g></g></g></g><g><g fill="#444444"><path fill="none" stroke="black" paint-order="fill stroke markers" d=" M 84 440 L 84 5" stroke-linejoin="bevel" stroke-miterlimit="10"/><path fill="none" stroke="black" paint-order="fill stroke markers" d=" M 78 440 L 86 440" stroke-linejoin="bevel" stroke-miterlimit="10"/><path fill="none" stroke="black" paint-order="fill stroke markers" d=" M 78 361 L 86 361" stroke-linejoin="bevel" stroke-miterlimit="10"/><path fill="none" stroke="black" paint-order="fill stroke markers" d=" M 78 282 L 86 282" stroke-linejoin="bevel" stroke-miterlimit="10"/><path fill="none" stroke="black" paint-order="fill stroke markers" d=" M 78 203 L 86 203" stroke-linejoin="bevel" stroke-miterlimit="10"/><path fill="none" stroke="black" paint-order="fill stroke markers" d=" M 78 124 L 86 124" stroke-linejoin="bevel" stroke-miterlimit="10"/><path fill="none" stroke="black" paint-order="fill stroke markers" d=" M 78 45 L 86 45" stroke-linejoin="bevel" stroke-miterlimit="10"/><path fill="none" stroke="black" paint-order="fill stroke markers" d=" M 80 440 L 84 440" stroke-linejoin="bevel" stroke-miterlimit="10"/><path fill="none" stroke="black" paint-order="fill stroke markers" d=" M 80 424 L 84 424" stroke-linejoin="bevel" stroke-miterlimit="10"/><path fill="none" stroke="black" paint-order="fill stroke markers" d=" M 80 408 L 84 408" stroke-linejoin="bevel" stroke-miterlimit="10"/><path fill="none" stroke="black" paint-order="fill stroke markers" d=" M 80 393 L 84 393" stroke-linejoin="bevel" stroke-miterlimit="10"/><path fill="none" stroke="black" paint-order="fill stroke markers" d=" M 80 377 L 84 377" stroke-linejoin="bevel" stroke-miterlimit="10"/><path fill="none" stroke="black" paint-order="fill stroke markers" d=" M 80 361 L 84 361" stroke-linejoin="bevel" stroke-miterlimit="10"/><path fill="none" stroke="black" paint-order="fill stroke markers" d=" M 80 345 L 84 345" stroke-linejoin="bevel" stroke-miterlimit="10"/><path fill="none" stroke="black" paint-order="fill stroke markers" d=" M 80 329 L 84 329" stroke-linejoin="bevel" stroke-miterlimit="10"/><path fill="none" stroke="black" paint-order="fill stroke markers" d=" M 80 313 L 84 313" stroke-linejoin="bevel" stroke-miterlimit="10"/><path fill="none" stroke="black" paint-order="fill stroke markers" d=" M 80 298 L 84 298" stroke-linejoin="bevel" stroke-miterlimit="10"/><path fill="none" stroke="black" paint-order="fill stroke markers" d=" M 80 282 L 84 282" stroke-linejoin="bevel" stroke-miterlimit="10"/><path fill="none" stroke="black" paint-order="fill stroke markers" d=" M 80 266 L 84 266" stroke-linejoin="bevel" stroke-miterlimit="10"/><path fill="none" stroke="black" paint-order="fill stroke markers" d=" M 80 250 L 84 250" stroke-linejoin="bevel" stroke-miterlimit="10"/><path fill="none" stroke="black" paint-order="fill stroke markers" d=" M 80 234 L 84 234" stroke-linejoin="bevel" stroke-miterlimit="10"/><path fill="none" stroke="black" paint-order="fill stroke markers" d=" M 80 219 L 84 219" stroke-linejoin="bevel" stroke-miterlimit="10"/><path fill="none" stroke="black" paint-order="fill stroke markers" d=" M 80 203 L 84 203" stroke-linejoin="bevel" stroke-miterlimit="10"/><path fill="none" stroke="black" paint-order="fill stroke markers" d=" M 80 187 L 84 187" stroke-linejoin="bevel" stroke-miterlimit="10"/><path fill="none" stroke="black" paint-order="fill stroke markers" d=" M 80 171 L 84 171" stroke-linejoin="bevel" stroke-miterlimit="10"/><path fill="none" stroke="black" paint-order="fill stroke markers" d=" M 80 155 L 84 155" stroke-linejoin="bevel" stroke-miterlimit="10"/><path fill="none" stroke="black" paint-order="fill stroke markers" d=" M 80 139 L 84 139" stroke-linejoin="bevel" stroke-miterlimit="10"/><path fill="none" stroke="black" paint-order="fill stroke markers" d=" M 80 124 L 84 124" stroke-linejoin="bevel" stroke-miterlimit="10"/><path fill="none" stroke="black" paint-order="fill stroke markers" d=" M 80 108 L 84 108" stroke-linejoin="bevel" stroke-miterlimit="10"/><path fill="none" stroke="black" paint-order="fill stroke markers" d=" M 80 92 L 84 92" stroke-linejoin="bevel" stroke-miterlimit="10"/><path fill="none" stroke="black" paint-order="fill stroke markers" d=" M 80 76 L 84 76" stroke-linejoin="bevel" stroke-miterlimit="10"/><path fill="none" stroke="black" paint-order="fill stroke markers" d=" M 80 60 L 84 60" stroke-linejoin="bevel" stroke-miterlimit="10"/><path fill="none" stroke="black" paint-order="fill stroke markers" d=" M 80 45 L 84 45" stroke-linejoin="bevel" stroke-miterlimit="10"/><path fill="none" stroke="black" paint-order="fill stroke markers" d=" M 80 29 L 84 29" stroke-linejoin="bevel" stroke-miterlimit="10"/><path fill="" stroke="black" paint-order="fill stroke markers" d=" M 80 13 L 84 13" stroke-linejoin="bevel" stroke-miterlimit="10"/><g transform="translate(73,440) rotate(0,0,0)"><text fill="" stroke="none" font-family="helvetica" font-size="26px" font-style="normal" font-weight="normal" text-decoration="normal" x="0" y="0" text-anchor="end" dominant-baseline="central">0</text><g transform="rotate(0,0,0) translate(-73,-440) translate(73,361) rotate(0,0,0)"><text fill="" stroke="none" font-family="helvetica" font-size="26px" font-style="normal" font-weight="normal" text-decoration="normal" x="0" y="0" text-anchor="end" dominant-baseline="central">0.1</text><g transform="rotate(0,0,0) translate(-73,-361) translate(73,282) rotate(0,0,0)"><text fill="" stroke="none" font-family="helvetica" font-size="26px" font-style="normal" font-weight="normal" text-decoration="normal" x="0" y="0" text-anchor="end" dominant-baseline="central">0.2</text><g transform="rotate(0,0,0) translate(-73,-282) translate(73,203) rotate(0,0,0)"><text fill="" stroke="none" font-family="helvetica" font-size="26px" font-style="normal" font-weight="normal" text-decoration="normal" x="0" y="0" text-anchor="end" dominant-baseline="central">0.3</text><g transform="rotate(0,0,0) translate(-73,-203) translate(73,124) rotate(0,0,0)"><text fill="" stroke="none" font-family="helvetica" font-size="26px" font-style="normal" font-weight="normal" text-decoration="normal" x="0" y="0" text-anchor="end" dominant-baseline="central">0.4</text><g transform="rotate(0,0,0) translate(-73,-124) translate(73,45) rotate(0,0,0)"><text fill="" stroke="none" font-family="helvetica" font-size="26px" font-style="normal" font-weight="normal" text-decoration="normal" x="0" y="0" text-anchor="end" dominant-baseline="central">0.5</text><g transform="rotate(0,0,0) translate(-73,-45) translate(25,223) rotate(-90,0,0)"><text fill="" stroke="none" font-family="helvetica" font-size="26pt" font-style="italic" font-weight="normal" text-decoration="normal" x="0" y="0" text-anchor="middle" dominant-baseline="alphabetic">Absolute error</text><g transform="rotate(90,0,0) translate(-25,-223)"/></g></g></g></g></g></g></g></g></g><g clip-path="url(#OrDerLOSyTcM)"><g/></g></g></g></svg>