<svg version="1.1" xmlns="http://www.w3.org/2000/svg" xmlns:xlink="http://www.w3.org/1999/xlink" width="600" height="600" style="width: 600px; height: 600px;"><defs><clipPath id="HOlrpZkdxJXw"><path fill="none" stroke="none" d=" M 113 5 L 570 5 L 570 570 L 113 570 L 113 5 Z"/></clipPath><clipPath id="wMmOSUiDntoC"><path fill="none" stroke="none" d=" M 113 5 L 570 5 L 570 570 L 113 570 L 113 5 Z"/></clipPath><clipPath id="sdTTHqRGxdbk"><path fill="none" stroke="none" d=" M 113 5 L 570 5 L 570 570 L 113 570 L 113 5 Z"/></clipPath><clipPath id="vCiTQrNQIBMr"><path fill="none" stroke="none" d=" M 113 5 L 570 5 L 570 570 L 113 570 L 113 5 Z"/></clipPath><clipPath id="luzkllPSqNKq"><path fill="none" stroke="none" d=" M 113 5 L 570 5 L 570 570 L 113 570 L 113 5 Z"/></clipPath><clipPath id="uwhvieITeTar"><path fill="none" stroke="none" d=" M 113 5 L 570 5 L 570 570 L 113 570 L 113 5 Z"/></clipPath><clipPath id="UcuvLvDALkHB"><path fill="none" stroke="none" d=" M 113 5 L 570 5 L 570 570 L 113 570 L 113 5 Z"/></clipPath><clipPath id="aTDEtZQDJUMX"><path fill="none" stroke="none" d=" M 113 5 L 570 5 L 570 570 L 113 570 L 113 5 Z"/></clipPath></defs><g><g transform="scale(1,1) translate(0.5,0.5)"><rect fill="#FFFFFF" stroke="none" x="0" y="0" width="600" height="600"/><rect fill="#ffffff" stroke="none" x="0" y="0" width="600" height="600"/><rect fill="#FFFFFF" stroke="none" x="113" y="5" width="457" height="565"/><rect fill="#ffffff" stroke="none" x="113" y="5" width="457" height="565"/><g><rect fill="none" stroke="#e5e5e5" x="113" y="5" width="457" height="565" stroke-linejoin="bevel" stroke-miterlimit="10"/></g><g clip-path="url(#HOlrpZkdxJXw)"><g><g><path fill="none" stroke="#e5e5e5" paint-order="fill stroke markers" d=" M 194 570 L 194 5" stroke-linejoin="bevel" stroke-miterlimit="10"/><path fill="none" stroke="#e5e5e5" paint-order="fill stroke markers" d=" M 330 570 L 330 5" stroke-linejoin="bevel" stroke-miterlimit="10"/><path fill="none" stroke="#e5e5e5" paint-order="fill stroke markers" d=" M 458 570 L 458 5" stroke-linejoin="bevel" stroke-miterlimit="10"/></g></g></g><g clip-path="url(#wMmOSUiDntoC)"><g><g><path fill="none" stroke="#e5e5e5" paint-order="fill stroke markers" d=" M 113 537 L 570 537" stroke-linejoin="bevel" stroke-miterlimit="10"/><path fill="none" stroke="#e5e5e5" paint-order="fill stroke markers" d=" M 113 368 L 570 368" stroke-linejoin="bevel" stroke-miterlimit="10"/><path fill="none" stroke="#e5e5e5" paint-order="fill stroke markers" d=" M 113 199 L 570 199" stroke-linejoin="bevel" stroke-miterlimit="10"/><path fill="none" stroke="#e5e5e5" paint-order="fill stroke markers" d=" M 113 31 L 570 31" stroke-linejoin="bevel" stroke-miterlimit="10"/></g></g></g><g clip-path="url(#sdTTHqRGxdbk)"><g><g fill="#444444"><path fill="" stroke="none" d=""/><g transform="translate(142.7338075601042,363.20439508142067) rotate(0,0,0)"><path fill="none" stroke="none"/><text fill="" stroke="none" font-family="helvetica" font-size="20pt" font-style="normal" font-weight="normal" text-decoration="normal" x="0" y="0" text-anchor="start" dominant-baseline="text-after-edge">Female mean: 0.9161(±0.02)</text></g></g><g fill="#444444"><path fill="" stroke="none" d=""/><g transform="translate(142.7338075601042,328.7500700100203) rotate(0,0,0)"><path fill="none" stroke="none"/><text fill="" stroke="none" font-family="helvetica" font-size="20pt" font-style="normal" font-weight="normal" text-decoration="normal" x="0" y="0" text-anchor="start" dominant-baseline="text-after-edge">Male mean: 0.9156(±0.02)</text></g></g></g></g><g clip-path="url(#vCiTQrNQIBMr)"><g><g><path fill="none" stroke="none"/><path fill="none" stroke="blue" paint-order="fill stroke markers" d=" M 133.77272727272737 30.71133560060298 L 144.83761587059365 30.80734937799855 L 151.1525095249744 30.903489075138054 L 164.27402644410105 30.99975502273685 L 206.4452772750883 31.09614755281484 L 238.24997499573914 31.192666998702975 L 240.93060230858237 31.289313695051078 L 251.9143798083683 31.38608797783411 L 253.25497139039183 31.482990184359096 L 271.16895324467896 31.58002065327321 L 276.1700139954441 31.677179724569214 L 278.4790869109341 31.774467739594456 L 281.00709662492284 31.871885041056203 L 283.0212011308878 31.969431973030623 L 290.1186925218958 32.06710888096882 L 291.25318163787216 32.16491611170477 L 292.21397365989117 32.2628540134624 L 293.80651110327426 32.36092293586353 L 294.1217259049189 32.45912322993479 L 294.57111321129946 32.55745524811516 L 297.2061586297983 32.655919344264476 L 301.7619314548191 32.75451587366979 L 302.9928023627756 32.85324519305368 L 305.8733054990847 32.95210766058233 L 306.6620157615971 33.051103635872664 L 308.70923972711023 33.15023348000068 L 311.7613035526326 33.24949755550904 L 314.50400548346533 33.34889622641526 L 316.1282806834974 33.44842985821958 L 316.38354078042835 33.548098817913 L 318.77576055170834 33.64790347398548 L 319.0452238963926 33.747844196434244 L 323.08548781555044 33.847921356771735 L 324.220533141116 33.94813532803403 L 324.4040939449423 34.04848648478912 L 325.7464455104662 34.14897520314548 L 326.09852811209856 34.24960186076055 L 327.4561993152454 34.35036683684882 L 327.7827282250344 34.451270512190945 L 328.6857353611608 34.552313269141905 L 329.11253885014173 34.65349549164023 L 330.7994913361722 34.75481756521617 L 331.26180048586025 34.85627987700104 L 336.97897295166814 34.957882815735616 L 337.2819087583289 35.05962677177945 L 339.0549104184612 35.161512137119644 L 339.22335220778467 35.26353930538028 L 340.23295583790286 35.3657086718307 L 340.3738236049945 35.46802063339578 L 340.67614399037325 35.570475588664294 L 340.9993442608561 35.673073937898835 L 343.06188577608987 35.77581608304479 L 343.8198214565399 35.878702427739995 L 344.99847825018526 35.98173337732419 L 345.03432238435994 36.08490933884866 L 346.26716684178484 36.188230721085915 L 349.1903721712778 36.291697934539116 L 349.39973751544994 36.395311391452196 L 351.3715700120199 36.49907150581976 L 351.7760449138003 36.60297869339627 L 352.6700432561204 36.70703337170744 L 355.2380483690587 36.811235960058866 L 355.4671691119978 36.915586879546936 L 356.07855999341353 37.02008655306895 L 356.5294739097052 37.12473540533324 L 357.17172976533317 37.229533862869744 L 357.6098709634122 37.33448235404012 L 359.72791874958534 37.43958130904866 L 362.85176205281357 37.54483115995254 L 363.69853720884373 37.65023234067269 L 364.15935242750254 37.75578528700407 L 364.9012169517342 37.861490436627264 L 365.49953485016056 37.96734822911901 L 366.54798136598504 38.07335910596248 L 367.00805582200553 38.17952351055965 L 367.0515735665629 38.28584188824141 L 367.05851780919227 38.39231468627895 L 367.7381777072515 38.498942353895586 L 367.84971169844584 38.605725342277424 L 368.2885432051919 38.71266410458509 L 369.0398326760519 38.81975909596565 L 369.0595675866476 38.92701077356344 L 370.13686039033274 39.03441959653264 L 370.86149456953996 39.14198602604847 L 371.16064780228504 39.249710525319074 L 371.2338125618356 39.357593559597944 L 372.08527440096196 39.46563559619574 L 372.11129517087096 39.5738371044921 L 372.17180383850655 39.682198555948275 L 372.6142526050737 39.79072042411951 L 373.00367059445676 39.89940318466722 L 373.21682130313616 40.00824731537148 L 374.10998663221955 40.11725329614387 L 374.62879734736333 40.22642160903979 L 375.2697231389149 40.335752738271935 L 375.42869598328167 40.44524717022216 L 375.97148620280706 40.55490539345567 L 376.19342195540366 40.66472789873285 L 376.4313175527587 40.774715179023474 L 376.44330387086336 40.88486772951944 L 376.50569315631503 40.99518604764819 L 377.11627870960507 41.10567063308656 L 377.7670894353443 41.21632198777377 L 377.8047160813809 41.32714061592549 L 379.1732815245945 41.43812702404762 L 379.3841571520911 41.549281720950034 L 379.4312714790865 41.6606052177608 L 380.4741316851073 41.77209802793982 L 380.576903125654 41.883760667293814 L 380.6522147214045 41.995593653989545 L 380.7825852183743 42.107597508569484 L 380.8014499670159 42.21977275396546 L 381.0613992080191 42.33211991551366 L 381.7135164944834 42.444639520969076 L 381.95895039656443 42.557332100520966 L 382.240683295137 42.67019818680728 L 382.33969524694686 42.78323831493026 L 382.35027056794627 42.89645302247084 L 382.93811848772106 43.00984284950516 L 383.2940316111306 43.12340833861913 L 384.69981748489755 43.23715003492407 L 385.05851209442534 43.35106848607302 L 385.14056133687785 43.465164242275705 L 385.3276101146131 43.579437856315394 L 385.3764361497462 43.69388988356411 L 385.4649019254409 43.80852088199947 L 385.6560556442745 43.923331412220705 L 386.2647614738134 44.03832203746515 L 386.82420244505124 44.15349332362473 L 386.888138390317 44.268845839262895 L 387.07274700203 44.384380155631334 L 387.73121835542 44.500096846686915 L 387.7923763181884 44.61599648910885 L 388.35433973438063 44.73207966231598 L 388.90363108705395 44.848346948483936 L 389.371965859044 44.9647989325631 L 390.55481949734843 45.08143620229555 L 390.72446738783293 45.198259348233705 L 390.7345450755683 45.31526896375772 L 390.7551583863735 45.432465645093544 L 390.7980640020397 45.5498499913316 L 391.36400520294615 45.66742260444448 L 391.4299485743353 45.78518408930631 L 392.1526032963415 45.90313505371046 L 392.42054433293276 46.021276108389316 L 392.4927120311344 46.13960786703251 L 392.5459590095217 46.258130946306665 L 392.71286252960255 46.37684596587383 L 392.8655668176356 46.49575354841204 L 393.07241035144654 46.61485431963388 L 393.1285415809741 46.734148908306906 L 394.2876112041608 46.85363794627324 L 394.8609007150937 46.973322068469884 L 394.9108908162368 47.09320191294853 L 395.08295186374824 47.21327812089646 L 395.2734380324893 47.33355133665714 L 395.3790365770189 47.45402220775031 L 395.45476579774777 47.574691384893526 L 395.5425292533617 47.69555952202336 L 395.8784669212109 47.816627276315785 L 396.1759695958078 47.93789530820857 L 396.24359909384305 48.059364281422745 L 396.48576904303695 48.18103486298355 L 396.75166887040257 48.30290772324361 L 396.885977389154 48.42498353590429 L 397.1335590382434 48.547262978038134 L 397.7514800448862 48.66974673011191 L 398.0651706299959 48.79243547600845 L 398.20092215808467 48.91532990305063 L 398.2257278813444 49.03843070202356 L 398.25449000142123 49.16173856719831 L 398.4083382382113 49.28525419635537 L 399.0067392290444 49.408978290808136 L 399.16175269284025 49.53291155542718 L 399.31234430098607 49.657054698663956 L 399.41425408306685 49.78140843257552 L 399.63767883827705 49.90597347284847 L 400.10985448947775 50.03075053882412 L 400.16930658199124 50.15574035352347 L 400.319526313881 50.28094364367166 L 400.3227191339412 50.40636113972448 L 400.3695466380344 50.5319935758929 L 400.56231967670465 50.65784169016911 L 401.22169680859065 50.78390622435279 L 401.31440138574334 50.91018792407738 L 401.47578937036604 51.03668753883619 L 401.6859410193345 51.163405822009395 L 402.0785358996405 51.29034353089082 L 403.01856925799586 51.41750142671481 L 403.0934329437989 51.54488027468449 L 403.1218288590055 51.6724808439983 L 403.19866305797393 51.80030390787863 L 403.7780233541527 51.928350243599766 L 403.7988204495542 52.05662063251589 L 403.8628803607242 52.18511586009038 L 403.9553237765452 52.31383671592391 L 404.4756072565291 52.44278399378413 L 405.0429547349752 52.57195849163486 L 405.3172450077658 52.7013610116652 L 405.7020746144422 52.830992360320465 L 406.5550772981547 52.96085334833185 L 406.74352807170993 53.09094479074611 L 407.8751117171842 53.221267506957474 L 408.07890570204 53.35182232073805 L 408.24101851509386 53.48261006026871 L 408.78348074179337 53.61363155817128 L 409.1374266484696 53.744887651540125 L 409.1658973990265 53.87637918197379 L 409.16741179050405 54.008106995608046 L 410.08343078246725 54.140071943148314 L 410.1715305245786 54.27227487990217 L 410.58836783167243 54.40471666581345 L 410.73153368030154 54.53739816549523 L 410.7413703208743 54.67032024826358 L 411.1688440745389 54.80348378817246 L 411.488223364465 54.936889664047385 L 411.99541472642363 55.07053875952056 L 412.090698812457 55.20443196306633 L 413.10076306989714 55.3385701680362 L 413.18451139882035 55.472954272694324 L 413.3610680018495 55.607585180254546 L 413.71731317862134 55.74246379891588 L 413.76824389604235 55.877591041899564 L 414.1026651772834 56.01296782748682 L 414.1909090010396 56.1485950790551 L 414.8940153908243 56.28447372511664 L 415.12043085524186 56.420604699356545 L 415.22645610421654 56.55698894067132 L 415.29079376306635 56.69362739320741 L 415.3351947303404 56.830521006400545 L 415.538310368938 56.96767073501553 L 415.74699436980967 57.10507753918614 L 415.9980839771574 57.2427423844548 L 416.14754667178784 57.380666241814765 L 416.3605515000522 57.51885008774957 L 416.4082521409665 57.65729490427543 L 416.5812339087663 57.79600167898309 L 416.68749181921436 57.93497140507975 L 416.83222991648245 58.074205081431955 L 417.0599583937159 58.21370371260883 L 417.2562782571604 58.35346830892502 L 417.27800668361857 58.49349988648521 L 417.3350427991146 58.63379946722813 L 417.44564043533563 58.77436807897135 L 417.8157180077091 58.91520675545644 L 417.9701880501468 59.05631653639455 L 418.3870832493479 59.19769846751274 L 418.55885646551053 59.339353600599964 L 418.85577133723274 59.4812829935546 L 419.48641505635095 59.62348771043139 L 419.4939521563582 59.76596882148965 L 419.54490228645966 59.90872740324119 L 419.9595449628592 60.05176453849958 L 420.08493248593965 60.19508131642914 L 420.2775212694222 60.33867883259467 L 420.58505630643504 60.48255818901197 L 421.10781406539877 60.62672049419831 L 421.1099229271444 60.77116686322387 L 421.2057234074127 60.91589841776329 L 422.2298995223234 61.0609162861482 L 422.56381119842246 61.206221603419465 L 422.9428263719275 61.3518155113814 L 423.34359743444105 61.49769915865471 L 423.9437920254319 61.64387370073126 L 424.1086706449983 61.79034030002913 L 424.1628252049635 61.93710012594761 L 424.2117136124708 62.08415435492384 L 424.63602011729097 62.23150417048873 L 424.762348939982 62.379150763324844 L 425.1477581619437 62.52709533132321 L 425.29916687446337 62.67533907964264 L 425.7262736703694 62.82388322076781 L 425.76159916324116 62.97272897456935 L 425.95249749473714 63.12187756836357 L 426.518182407268 63.271330236973256 L 426.56716964210676 63.42108822278925 L 426.8069812402658 63.57115277583205 L 426.83267381560034 63.72152515381464 L 427.1722087930541 63.872206622205795 L 427.3152187239116 64.02319845429389 L 427.31687109616394 64.17450193125126 L 427.32077669845495 64.32611834219972 L 427.47324007537634 64.47804898427648 L 428.21302810770345 64.63029516270046 L 428.34426012120485 64.7828581908397 L 428.66254836098227 64.9357393902796 L 428.76793382805465 65.08894009089101 L 428.818823323342 65.24246163090032 L 429.02522165028756 65.39630535695909 L 429.20518545220773 65.55047262421522 L 429.421302998003 65.7049647963845 L 429.78625412585876 65.85978324582277 L 429.815513665687 66.01492935359948 L 430.26756244223265 66.1704045095712 L 430.53952787151155 66.32621011245658 L 430.78041392970437 66.48234756991195 L 430.9684850140454 66.63881829860713 L 431.1542909190994 66.79562372430325 L 431.3346833421017 66.95276528193 L 431.66229157115424 67.11024441566491 L 431.68253123846733 67.26806257901285 L 431.82300447669996 67.4262212348865 L 432.04096790077114 67.58472185568763 L 432.178870516657 67.7435659233895 L 432.2431722003176 67.9027549296199 L 432.34853902934066 68.06229037574542 L 432.40818974270127 68.2221737729559 L 432.4852237380179 68.38240664235087 L 432.64213108540895 68.5429905150259 L 433.1207279306007 68.70392693216098 L 433.2146671385968 68.86521744510867 L 433.2251545247295 69.02686361548416 L 433.32583093052216 69.18886701525605 L 433.35998796754143 69.35122922683746 L 433.787955410612 69.51395184317983 L 433.8674881164873 69.67703646786572 L 433.92964447778655 69.84048471520418 L 434.0605416250295 70.00429821032634 L 434.1834940982238 70.16847858928253 L 434.36603835248764 70.33302749914037 L 434.45198922624957 70.49794659808373 L 434.6035182647966 70.66323755551309 L 434.64124919632627 70.82890205214682 L 434.6816744883191 70.99494178012401 L 434.7974065632374 71.16135844310787 L 434.8009997013124 71.32815375639075 L 435.09846157744056 71.49532944700013 L 435.22315325721735 71.66288725380616 L 435.61364922308576 71.8308289276298 L 435.67710399272767 71.99915623135297 L 436.85173977334057 72.16787094002933 L 437.1652307915383 72.33697484099667 L 437.1813827647895 72.50646973399057 L 437.2854704621262 72.67635743125908 L 437.721060829668 72.84663975767944 L 437.8131624521446 73.0173185508753 L 438.2449130174795 73.18839566133602 L 438.5603013831618 73.35987295253653 L 438.65371357342474 73.53175230105984 L 438.79210590523286 73.70403559671945 L 438.93840987189276 73.87672474268498 L 439.5683491268641 74.04982165560739 L 439.8454602460338 74.22332826574717 L 439.8916172003018 74.3972465171035 L 439.92193985911916 74.5715783675443 L 440.1238812721208 74.74632578893949 L 440.1855653625196 74.92149076729407 L 440.19333176183704 75.0970753028837 L 440.4772348925419 75.27308141039191 L 440.6028217861001 75.44951111904862 L 440.68898136835764 75.62636647277077 L 440.6989858188881 75.80364953030397 L 440.8829402787779 75.98136236536686 L 440.9985013357013 76.15950706679621 L 441.11883376707704 76.33808573869419 L 441.1397345222752 76.5171005005779 L 441.1464525806955 76.6965534875302 L 441.2893185138895 76.87644685035195 L 441.3069335353483 77.05678275571745 L 441.45561073354094 77.23756338633063 L 441.4611336921466 77.41879094108356 L 441.8348719693222 77.60046763521711 L 441.8717349423038 77.782595700483 L 442.56739101091307 77.96517738530889 L 442.6028991821146 78.14821495496454 L 442.7449262318952 78.33171069173045 L 443.23643135465653 78.51566689506882 L 443.2473193200388 78.70008588179621 L 443.27938630751777 78.88496998625862 L 443.31533061693335 79.07032156050934 L 443.60346081018236 79.25614297448743 L 443.6611718698068 79.44243661620067 L 443.79716723939606 79.62920489190878 L 444.0218695448327 79.8164502263104 L 444.47448596566335 80.00417506273203 L 444.60044493410516 80.19238186331904 L 444.6116243815823 80.3810731092293 L 444.77170794241175 80.5702513008302 L 445.00570147829296 80.7599189578965 L 445.0065956741666 80.95007861981242 L 445.03565684551495 81.14073284577518 L 445.40328532870575 81.33188421500193 L 445.45245683257826 81.52353532693894 L 445.5835755599491 81.71568880147396 L 445.61218226116193 81.90834727915075 L 445.7029167216611 82.10151342138704 L 445.76444719306664 82.29518991069506 L 445.8210596914213 82.48937945090518 L 446.0325989819357 82.68408476739211 L 446.0841400323089 82.87930860730467 L 446.2938670897925 83.07505373979825 L 446.3255925534915 83.27132295627058 L 446.3454021219291 83.46811907060038 L 446.3468915560755 83.66544491938959 L 446.52651004421256 83.86330336220857 L 446.5300843951562 84.061697281845 L 446.81660961952576 84.26062958455549 L 447.0392221325931 84.46010320032144 L 447.03996661888664 84.66012108310764 L 447.478872611738 84.86068621112503 L 447.77376074056394 85.06180158709645 L 447.82079634311833 85.26347023852685 L 447.86574716581265 85.46569521797608 L 448.0026778810403 85.66847960333695 L 448.0934642785888 85.87182649811535 L 448.552102514261 86.07573903171618 L 448.5903429228224 86.28022035973169 L 449.2169758802958 86.48527366423474 L 449.4515461576318 86.69090215407584 L 449.7591127816121 86.89710906518462 L 449.8812056026033 87.10389766087508 L 450.02485318011884 87.31127123215566 L 450.24491646715387 87.5192330980434 L 450.52799308125253 87.72778660588278 L 450.7120331375782 87.93693513166914 L 450.8499789238751 88.14668208037602 L 450.89739582368185 88.3570308862885 L 451.0225478298156 88.56798501333998 L 451.07352817242275 88.77954795545486 L 451.54403824660983 88.99172323689561 L 451.6621703713523 89.20451441261491 L 451.91490759225127 89.41792506861333 L 452.19985276927065 89.6319588223015 L 452.4547573245238 89.84661932286849 L 452.6217070394052 90.06191025165504 L 452.99120979466477 90.27783532253164 L 453.0001198793021 90.49439828228418 L 453.2083087561195 90.71160291100313 L 453.3251652075505 90.92945302247972 L 453.45597186053544 91.36710511979152 L 453.53124532125656 91.58691490535932 L 453.6394743204768 91.80738577398415 L 453.68386302704977 92.02852171410967 L 453.9522549063803 92.25032675038352 L 454.0552684600744 92.47280494409671 L 454.2109672645975 92.6959603936296 L 454.21631040591683 92.91979723490545 L 454.2189819717915 93.1443196418495 L 454.2776071976323 93.36953182685687 L 454.3270292959338 93.59543804126605 L 454.4055384327483 93.82204257584112 L 454.4335873429911 94.04934976126009 L 454.45139599238655 94.27736396861167 L 454.8473050243289 94.50608960990002 L 455.265693449868 94.73553113855667 L 455.3656796675244 94.96569304996058 L 455.68622849692684 95.1965798819673 L 455.69038153532375 95.42819621544476 L 455.80458707042226 95.6605466748199 L 455.89298111874604 95.89363592863151 L 456.0954140622037 96.12746869009368 L 456.239552950237 96.36204971766745 L 456.26387176479324 96.59738381564216 L 456.621505753033 96.83347583472516 L 456.6529368532512 97.07033067264251 L 456.82342805236897 97.307953274748 L 456.93031199599795 97.54634863464281 L 457.2057258676634 97.78552179480573 L 457.3266719461021 98.02547784723237 L 457.37054292727635 98.26622193408622 L 457.6070756924472 98.50775924835926 L 458.0496923249785 98.75009503454453 L 458.2765234911755 98.99323458931946 L 458.6470192605817 99.2371832622402 L 458.81765481266484 99.48194645644776 L 458.94814075497976 99.7275296293866 L 458.9496218230181 99.97393829353427 L 459.07713810504123 100.22117801714404 L 459.34947432916516 100.46925442499992 L 459.51309706467464 100.71817319918432 L 459.6624941612766 100.96794007985932 L 460.0872367564113 101.21856086606044 L 460.464241140184 101.4700414165049 L 460.5906351434493 101.72238765041328 L 460.6467257450236 101.97560554834536 L 461.02911073899145 102.22970115305077 L 461.17500357791926 102.48468057033415 L 461.2393650414874 102.74054996993567 L 461.7068548180524 102.99731558642628 L 461.740729237343 103.2549837201201 L 461.9256242330555 103.5135607380011 L 461.98168137718505 103.77305307466764 L 462.3101568876717 104.03346723329338 L 462.31814263459705 104.29480978660456 L 462.4898292996824 104.55708737787603 L 462.5165940785448 104.82030672194401 L 462.555335898477 105.08447460623808 L 462.55577950321737 105.34959789183102 L 462.8689425014763 105.6156835145083 L 462.9682938402706 105.88273848585646 L 462.97509451463236 106.15076989437205 L 463.1517569640215 106.41978490659045 L 463.222418038194 106.68979076823553 L 463.2738602616885 106.96079480539089 L 463.280660007325 107.2328044256925 L 463.3119976983902 107.50582711954331 L 463.4136943515684 107.77987046135149 L 463.428475457101 108.05494211079076 L 463.4765133756955 108.33104981408547 L 463.5443559407433 108.60820140531894 L 463.9439793231682 108.88640480776792 L 464.32905178146325 109.16566803526092 L 464.38105955832 109.44599919356403 L 464.75084136403535 109.72740648179229 L 464.8508477570187 110.00989819384853 L 465.261314615457 110.29348271989056 L 465.26781294541973 110.5781685478255 L 465.5262539485243 110.86396426483554 L 465.5569695228806 111.15087855893051 L 465.9481132054431 111.43892022053427 L 466.11258280259244 111.72809814409919 L 466.27954989156893 112.01842132975537 L 466.2916548901618 112.30989888499056 L 466.36413588966803 112.60254002636498 L 466.62702588066605 112.89635408125974 L 466.721339914973 113.19135048966064 L 466.80399057308045 113.48753880597849 L 466.9247140831885 113.78492870090525 L 466.9452275774062 114.08352996330916 L 467.2322491904744 114.3833525021679 L 467.4608071624837 114.68440634854176 L 467.70571748604874 114.9867016575871 L 468.07303271260565 115.29024871061239 L 468.2277591076198 115.59505791717561 L 468.6290538741103 115.90113981722698 L 468.75985362969755 116.208505083295 L 468.95286883874144 116.51716452272046 L 468.97483819281734 116.82712907993533 L 468.97808197178637 117.13840983879254 L 469.09559206603245 117.4510180249431 L 469.11343182931074 117.7649650082659 L 469.1334829637038 118.08026230534881 L 469.2608624441499 118.39692158202348 L 469.3146721985719 118.71495465595586 L 469.41874985943787 119.0343734992918 L 469.7260897633102 119.35519024136175 L 469.7411240136014 119.67741717144457 L 469.7843100726457 120.00106674159196 L 469.9372969808648 120.32615156951573 L 470.2529652257773 120.65268444154003 L 470.2545861895933 120.98067831561843 L 470.4938865085802 121.31014632441963 L 470.82126210962525 121.64110177848278 L 470.88446277341706 121.97355816944383 L 470.92630092538593 122.30752917333604 L 470.9610672452251 122.6430286539657 L 471.4271194702906 122.98007066636524 L 471.52992070354355 123.31866946032648 L 471.7714408326208 123.65883948401535 L 471.78204355795657 124.00059538767192 L 472.06181954262115 124.34395202739574 L 472.1270464930708 124.68892446902089 L 472.1497208791894 125.03552799208313 L 472.1635609759611 125.38377809388021 L 472.16444438348674 125.73369049362998 L 472.3261020884684 126.08528113672782 L 472.386315861795 126.43856619910667 L 472.403687749472 126.79356209170282 L 472.42400385378085 127.1502854650301 L 472.75830977111093 127.50875321386604 L 472.7827440879355 127.86898248205335 L 473.0906524882069 128.23099066741952 L 473.6229161568593 128.5947954268189 L 474.4343855718077 128.9604146813005 L 474.6035272238873 129.32786662140467 L 474.65926762789684 129.6971697125946 L 475.0147087287326 130.06834270082334 L 475.24923657945004 130.44140461824463 L 475.4862391244694 130.81637478906794 L 475.57415303972556 131.1932728355652 L 475.7367405768948 131.57211868423246 L 475.76128938632036 131.95293257211108 L 475.87653289135324 132.3357350532749 L 475.9387090008741 132.7205470054866 L 476.0948031084712 133.1073896370309 L 476.27102056289016 133.49628449372796 L 476.50556371692824 133.8872534661342 L 476.7142217955371 134.28031879693634 L 476.84631287224937 134.67550308854453 L 477.00880799288944 135.07282931089134 L 477.0155661238395 135.47232080944343 L 477.16321149883254 135.8740013134323 L 477.3422827144476 136.27789494431198 L 477.5477782858092 136.6840262244512 L 477.6717421837011 137.09242008606753 L 477.6839325752485 137.50310188041175 L 477.9156842524275 137.91609738721093 L 478.12303612741636 138.33143282437925 L 478.13155300319335 138.74913485800505 L 478.3039393470117 139.16923061262435 L 478.5494274660702 139.59174768179076 L 478.701522618915 140.01671413895087 L 478.80032020470145 140.44415854863746 L 478.9205449630456 140.87410997799088 L 478.95210472651746 141.30659800862009 L 479.40989141556474 141.74165274881568 L 479.5402091959635 142.17930484612742 L 479.9484304065068 142.61958550032006 L 480.08487883155425 143.06252647671943 L 480.1324137477474 143.5081601199655 L 480.4514877371331 143.9565193681854 L 480.5921592403335 144.40763776760195 L 480.64599052052546 145.31828933623586 L 481.27118922934574 145.77789277629648 L 481.3516912153058 146.24039594178072 L 481.8934279687979 146.70583565496736 L 481.8951871167076 147.1742494440034 L 481.9511859356896 147.64567556106118 L 481.9555836893412 148.12015300108385 L 482.2645775377648 148.59772152114164 L 482.69413707444176 149.07842166042207 L 483.2228027031652 149.56229476088043 L 483.73054403464107 150.04938298857604 L 483.9451202004181 150.5397293557225 L 484.20990665094195 151.03337774347995 L 484.30260379344696 151.53037292552028 L 484.317979725348 152.03076059239635 L 484.5303032185411 152.5345873767492 L 484.65461293250394 153.04190087938673 L 484.70058674267807 153.55274969627158 L 484.72005944116495 154.067183446456 L 484.76866724220724 154.5852528010036 L 485.1268975897605 155.10700951294046 L 485.4272574148189 155.63250644827986 L 485.72552809620606 156.16179761816693 L 486.0730701167488 156.69493821219237 L 486.29385929792494 157.2319846329263 L 486.2991263681685 157.77299453172685 L 486.33584920776826 158.31802684587922 L 487.38841188225325 158.86714183712667 L 488.0206475333982 159.42040113165484 L 488.0966675398688 159.97786776159688 L 488.2877294981191 160.53960620812825 L 488.33348254184506 161.1056824462264 L 488.3388909867745 161.6761639911714 L 488.5058154798606 162.25111994687012 L 489.6632739936602 162.83062105609122 L 489.9901939573309 163.41473975270088 L 490.0435074728889 164.00355021599654 L 490.04847359869973 164.59712842724122 L 490.52896717044996 165.19555222850374 L 490.54532258235497 165.79890138392307 L 490.7244941317857 166.4072576435115 L 491.0102335726529 167.02070480963084 L 491.3111184928992 167.63932880627124 L 491.5026359982226 168.263217751279 L 491.5151891646448 168.89246203168466 L 492.0835110819167 169.52715438229177 L 492.1734018908531 170.16738996769766 L 492.32763793228713 170.8132664679278 L 492.520089756012 171.46488416787594 L 492.680429316195 172.1223460507556 L 492.7047929206778 172.78575789577968 L 493.14810583066367 173.4552283803016 L 493.7129508834825 174.13086918666227 L 494.89162198907695 174.81279511400788 L 495.14272916814974 175.50112419535685 L 495.2801485012456 176.19597782021611 L 495.2840829708005 176.89748086306366 L 495.5100847750368 177.6057618180388 L 496.07579061155013 178.32095294020195 L 496.4310501002404 179.04319039375537 L 496.7744576812275 179.77261440763635 L 496.84828779584313 180.50936943893043 L 496.8980889824116 181.25360434458054 L 496.89939952498355 182.00547256190112 L 497.0202573736041 182.76513229844704 L 497.0281201881744 183.53274673182256 L 497.1140269175217 184.30848422006392 L 497.48193249368046 185.09251852327225 L 497.5809232693403 185.88502903722724 L 497.640315632524 186.6862010397682 L 497.9279386932501 187.4962259507871 L 498.16764484677134 188.3153016067476 L 498.912069254112 189.1436325507151 L 499.45306206288535 189.9814303389602 L 499.51080484593234 190.82891386528667 L 499.5905078010551 191.68630970432673 L 499.6748618506318 192.55385247515153 L 499.77637336964307 193.4317852266559 L 500.049326345156 194.32035984630153 L 500.1262474079145 195.21983749393797 L 500.20185721739796 196.13048906257188 L 500.3306788150652 197.05259566811657 L 500.50863234331825 197.9864491703393 L 500.74370121328263 198.93235272741975 L 500.97278600826195 199.89062138675803 L 501.06697142916164 200.861582714912 L 501.5628329774868 201.8455774698158 L 502.28375795801526 202.84296031873225 L 502.56962276802886 203.85410060572258 L 502.7367960841657 204.87938317279185 L 503.0114212195911 205.9192092392763 L 503.0350917183542 206.97399734450278 L 503.332476401891 208.0441843592622 L 503.334944761688 209.13022657221512 L 503.81041622902046 210.2326008579907 L 503.8438043213604 211.35180593446415 L 504.403343634112 212.48836371750724 L 504.628716434131 213.64282078242718 L 504.68095672688764 214.8157499423325 L 504.8266426548127 216.0077519548397 L 504.8317211764109 217.21945736984736 L 505.72463626086443 218.4515285326072 L 506.57732398528657 219.70466175802056 L 506.85916152381304 220.97958969403368 L 507.0365965766909 222.2770838942119 L 507.2704008568075 223.5979576221156 L 508.01600516964373 224.94306891299829 L 509.51153670444194 227.70968058939962 L 510.4073628500248 229.1331526665379 L 511.1901208179051 230.58481413397226 L 511.2504551830316 232.0658040709165 L 511.43651206878195 233.5773320247829 L 512.1745106854723 235.12068394639982 L 513.5769338794794 236.69722876356315 L 513.5853168594306 238.308425677123 L 513.586328596266 239.95583227705106 L 513.9626629619058 241.64111359162257 L 514.0633838106938 243.36605220148738 L 516.2489351968582 245.13255957263732 L 516.2757863491584 246.94268878890767 L 516.3151963278281 248.7986488966751 L 516.7356705763561 250.70282111309388 L 517.1136402230254 252.6577771961517 L 517.3964623377224 254.66630033205837 L 517.4449425393366 256.7314089656124 L 517.8007204470359 258.8563840855983 L 518.1575957002997 261.04480058432677 L 518.1949532378017 263.30056344384326 L 518.4125953679379 265.6279496686684 L 518.5807523231797 268.0316570961834 L 518.8271962434036 270.5168614843565 L 519.0074335329609 273.08928362054775 L 519.384875469229 275.75526863933413 L 519.8132770884947 278.5218803157355 L 519.8150066730532 284.3895317511188 L 520.011449952387 287.50942848989905 L 520.3466464189087 290.7680320033869 L 520.3936217911871 294.17825192782334 L 521.3165022136702 297.7548885152436 L 522.3173236517518 301.5150208394297 L 522.4126303455769 305.47850005839433 L 524.1831279495021 309.66858381193396 L 524.2412429467086 314.11276317017894 L 524.3272618797423 318.84385682251906 L 524.3655234193864 323.9014833468834 L 524.912333022742 329.33408004207115 L 525.7127466742304 335.2017314774545 L 525.7295656604239 341.5802317297231 L 526.0183437435572 348.56708824157977 L 526.6006737694396 356.2906997847306 L 527.5969803450894 364.92496289651524 L 527.9089263184268 374.71368307321984 L 529.0332656033536 386.0139312037909 L 530.2401061857197 399.3792879679157 L 530.4620308446446 415.7371626228511 L 531.4944728738828 436.82613093012674 L 532.0782464236711 466.54936234918705 L 534.3869026216116 517.3615620755229" stroke-linejoin="bevel" stroke-miterlimit="10"/><path fill="none" stroke="none"/><path fill="none" stroke="blue" paint-order="fill stroke markers" d=" M 549.2272727272727 NaN" stroke-linejoin="bevel" stroke-miterlimit="10"/></g></g></g><g clip-path="url(#luzkllPSqNKq)"><g><g><path fill="none" stroke="none"/><path fill="none" stroke="red" paint-order="fill stroke markers" d=" M 141.41702412710882 30.68181818181813 L 159.99314799811555 30.748249095799565 L 159.99551791233284 30.81474026458659 L 162.34117884270373 30.88129179758414 L 169.87382096707097 30.947903804495468 L 172.75254717129275 31.01457639532316 L 194.4937880618443 31.081309680370282 L 196.48184234729544 31.14810377024139 L 205.28104891599895 31.21495877584357 L 207.90169964315487 31.28187480838767 L 222.68513289400732 31.34885197938945 L 231.56358716791362 31.415890400670378 L 243.76277000190274 31.482990184359096 L 255.39169513504865 31.550151442892798 L 255.49648264293506 31.617374289017334 L 256.10532099314685 31.68465883578949 L 258.232197323196 31.752005196577556 L 265.33757946009234 31.81941348506234 L 276.37346876607984 31.88688381523889 L 280.7320503176378 31.954416301416927 L 282.74111432097345 32.02201105822269 L 283.9760848499383 32.08966820059959 L 287.3708619785794 32.15738784380983 L 290.2098880663159 32.22517010343506 L 290.5115575225849 32.293015095377996 L 292.84097915476366 32.36092293586353 L 293.3815306206239 32.42889374143954 L 297.0025196395694 32.496927628978824 L 299.70531622524163 32.565024715679556 L 301.22356007471194 32.63318511906698 L 303.72395165180814 32.70140895699444 L 304.44089687332337 32.76969634764441 L 308.3331815865737 32.83804740953042 L 309.04009960903363 32.90646226149738 L 310.1458840242849 32.974941022723556 L 312.0640352547691 33.04348381272132 L 313.15220247986144 33.112090751338656 L 313.7008289176267 33.18076195876017 L 314.08657294792226 33.24949755550904 L 315.94940761618227 33.31829766244732 L 317.11979589641 33.38716240077781 L 317.8646426525673 33.45609189204538 L 319.21076456832077 33.525086258137776 L 320.297195644966 33.59414562128745 L 321.18353934983844 33.66327010407247 L 323.43153783292416 33.7324598294183 L 323.82284505871837 33.80171492059833 L 324.3249774673981 33.87103550123618 L 325.9652462156968 33.9404216953061 L 327.45572809912335 34.009873627134766 L 328.1892914096401 34.07939142140276 L 329.8394399584102 34.14897520314548 L 330.3187327857362 34.218625097754966 L 330.3681466657795 34.288341230980905 L 330.6228853540817 34.35812372893179 L 331.1084398571435 34.42797271807717 L 331.7556819886506 34.49788832524803 L 332.6022391492696 34.567870677638666 L 332.92660775548507 34.637919902808335 L 333.2805389715212 34.708036128681556 L 333.94265830936433 34.7782194835512 L 335.62456575716294 34.84847009607836 L 335.8721344612938 34.9187880952943 L 336.5477230487509 34.98917361060262 L 336.8582251008163 35.05962677177945 L 337.473157894962 35.130147708975414 L 337.57667268550597 35.20073655271756 L 338.48933450333095 35.27139343390991 L 339.1800710662073 35.34211848383575 L 339.3474097576299 35.41291183415831 L 339.90652082632187 35.48377361692292 L 340.0064868460662 35.55470396455826 L 340.24748030823594 35.62570300987761 L 341.7782680146889 35.69677088608057 L 342.75317954111983 35.767907726754515 L 343.6220967372161 35.83911366587597 L 345.1055414165154 35.91038883781266 L 345.6831577693941 35.98173337732419 L 346.05532734203496 36.0531474195642 L 346.3666933282684 36.12463110008173 L 347.02230491388127 36.196184554822594 L 347.7890177169951 36.267807920131304 L 347.98761964907476 36.33950133275209 L 348.98969903336126 36.41126492983119 L 349.5723791896552 36.48309884891762 L 349.8156102575731 36.55500322796547 L 351.31826648335414 36.626978205335035 L 351.6335624819839 36.699023919794286 L 352.3264670419976 36.77114051052138 L 353.06807214788563 36.84332811710499 L 353.17040211732365 36.915586879546936 L 353.2646533506487 36.98791693826331 L 353.51773009874887 37.0603184340863 L 353.95953659249517 37.13279150826588 L 354.123755837123 37.205336302471096 L 355.5313869655048 37.27795295879241 L 356.2758072484021 37.35064161974253 L 357.0035487895713 37.42340242825878 L 357.3251741886013 37.49623552770436 L 357.3392781478915 37.56914106187048 L 357.63513082189246 37.642119174977665 L 358.1644374674304 37.7151700116774 L 358.97272101577806 37.788293717054216 L 359.1520590369461 37.861490436627264 L 359.22205581500054 37.934760316352026 L 359.28337862621356 38.00810350262202 L 359.5269498629084 38.081520142270506 L 359.56921985666963 38.155010382572755 L 359.6181467643819 38.22857437124674 L 360.2632315926639 38.3022122564563 L 360.5546740061588 38.37592418681186 L 360.7532293293957 38.449710311372314 L 361.071840524604 38.5235707796478 L 361.2472971566288 38.597505741600344 L 361.40061703972026 38.671515347646164 L 362.3323779214759 38.745599748657924 L 362.4285635376676 38.81975909596565 L 362.7784772844401 38.893993541359464 L 363.6585088717819 38.96830323709082 L 364.64741635167934 39.04268833587503 L 365.8647173964873 39.11714899089236 L 366.68257180832995 39.19168535579058 L 366.9099063121111 39.26629758468653 L 366.98104970383815 39.340985832168144 L 367.2532564584568 39.41575025329632 L 367.57603469995524 39.49059100360671 L 368.29779707303237 39.56550823911232 L 368.8771672122241 39.64050211630422 L 369.95377724023206 39.71557279215506 L 370.4026741557436 39.79072042411951 L 370.4479749173796 39.86594517013759 L 370.87089185527174 39.94124718863566 L 372.37210202804306 40.016626638528805 L 372.4951048652054 40.09208367922304 L 372.52774027761853 40.167618470616844 L 372.763101396155 40.24323117310382 L 372.8733077711987 40.31892194757427 L 373.0198307458667 40.394690955417104 L 373.5144288265915 40.47053835852273 L 373.88584410970424 40.54646431928404 L 374.0602987720127 40.622469000599494 L 374.87070381982323 40.698552565874365 L 375.15748212307875 40.774715179023474 L 375.42024026534875 40.850957004473 L 375.7169399817414 40.92727820716277 L 376.11288825763984 41.00367895254817 L 376.57023196574715 41.08015940660255 L 376.72573211703934 41.15671973581925 L 376.84772763457494 41.233360107214025 L 376.8720030271607 41.31008068832648 L 376.90626468368583 41.38688164722328 L 377.2308793667921 41.46376315249972 L 377.98884715440227 41.54072537328216 L 378.1027889022172 41.61776847922988 L 378.56878403558176 41.69489264053823 L 378.8601544078308 41.77209802793982 L 379.1396685073085 41.84938481270751 L 379.18571360854116 41.926753166656226 L 379.27242930973745 42.00420326214578 L 379.6783368855801 42.0817352720826 L 380.2184097193184 42.15934936992244 L 380.2277677869673 42.23704572967256 L 380.57536925825895 42.314824525894096 L 380.89929871265633 42.39268593370457 L 381.16997083416584 42.47063012877959 L 381.3010778516272 42.54865728735638 L 381.82466260262373 42.62676758623502 L 381.8410657675724 42.70496120278153 L 382.01398153632124 42.78323831493026 L 382.37433306859634 42.8615991011859 L 382.4433005856569 42.940043740626265 L 382.45510148112686 43.01857241290486 L 383.1759108894414 43.097185298253066 L 383.2538927138994 43.17588257748241 L 383.3482639392081 43.25466443198786 L 383.8543689542424 43.333531043749645 L 385.02039491155523 43.41248259533586 L 385.2845994642784 43.49151926990521 L 385.4598512054098 43.57064125120951 L 385.67227770608423 43.64984872359605 L 386.2089167830382 43.72914187201059 L 386.3496733326202 43.80852088199947 L 386.93341250018403 43.88798593971251 L 387.1871446945094 43.96753723190557 L 387.9218727868149 44.04717494594297 L 387.9759930570325 44.126899269800674 L 388.0152829415021 44.206710392068544 L 388.21569647990174 44.28660850195263 L 388.2768412012616 44.36659378927891 L 388.40921379823067 44.44666644449512 L 388.6647655253526 44.526826658673826 L 388.7592144578278 44.60707462351502 L 389.60724225440396 44.68741053134886 L 389.8486040144719 44.76783457513886 L 390.0108211488027 44.848346948483936 L 390.1696664553613 44.928947845621906 L 390.29352742178605 45.009637461431794 L 390.6711770419774 45.09041599143666 L 390.9469294202117 45.17128363180723 L 391.05670177852863 45.252240579363615 L 391.26004885801393 45.33328703157906 L 391.42903270748656 45.41442318658221 L 392.4837102677308 45.49564924316053 L 392.60347652803324 45.5769654007629 L 392.8086662382296 45.658371859502836 L 392.85443089319733 45.739868820161064 L 392.93741507986243 45.82145648418873 L 393.0037697057761 45.90313505371046 L 393.0472423592099 45.984904731527195 L 393.11572914174593 46.06676572111917 L 393.12183031243376 46.148718226649294 L 393.19534811111276 46.23076245296579 L 393.1964157791897 46.3128986056056 L 393.89898341080124 46.39512689079697 L 393.9861980330171 46.47744751546338 L 394.3347176362443 46.55986068722598 L 394.4042321126618 46.6423666144068 L 394.53105997826844 46.72496550603216 L 394.8423065510208 46.80765757183599 L 395.58732385684164 46.890443022262616 L 395.7829469205511 46.973322068469884 L 396.3931687865875 47.05629492233288 L 396.5643544121744 47.13936179644702 L 396.67461295129647 47.2225229041311 L 397.1664460520628 47.30577845943094 L 397.44002899837176 47.38912867712202 L 397.4732159731875 47.47257377271376 L 398.00353184728215 47.55611396245206 L 398.0176860883268 47.63974946332314 L 398.5827172167963 47.72348049305663 L 398.8465422948558 47.80730727012917 L 398.9201764981498 47.891230013767654 L 398.9623172969084 47.975248943952806 L 399.0125201005619 48.059364281422745 L 399.4577544570505 48.14357624767604 L 399.5115964060252 48.22788506497568 L 400.6433462878502 48.3122909563524 L 400.8912725317908 48.396794145608055 L 401.0724495672371 48.48139485731963 L 401.55419966933647 48.5660933168424 L 401.5546555351331 48.65088975031347 L 401.8099257924085 48.73578438465597 L 401.9054926992741 48.82077744758203 L 402.4289871399691 48.90586916759696 L 402.5623477480884 48.99105977400245 L 402.7323026517717 49.07634949690089 L 402.7449082652806 49.16173856719831 L 402.78378778250044 49.24722721660919 L 402.85759625722727 49.33281567765903 L 402.9490181937279 49.41850418368904 L 402.99700562215764 49.504292968859545 L 403.04453645913134 49.59018226815408 L 403.23540891607786 49.67617231738279 L 403.24953009771787 49.762263353186995 L 403.2704839449382 49.848455613042574 L 403.4546567823415 49.93474933526386 L 403.45921156560473 50.02114475900805 L 403.4649809444271 50.107642124278755 L 403.56548720948194 50.1942416719304 L 403.56988994868755 50.28094364367166 L 403.6180158778142 50.36774828207024 L 403.67403497732283 50.454655830556135 L 403.7283827903083 50.54166653342645 L 403.78637257626235 50.62878063584924 L 403.92602767231165 50.71599838386726 L 404.1711620051452 50.80332002440309 L 404.8297800572321 50.890745805262554 L 405.13201173459635 50.97827597513867 L 405.14581752790923 51.06591078361703 L 405.2063496160545 51.153650481179056 L 405.28553949927374 51.241495319206706 L 405.8055137771055 51.329445549986644 L 405.8743694540856 51.41750142671481 L 405.948076046372 51.50566320350083 L 406.05211043722886 51.59393113537169 L 406.08016553079983 51.68230547827716 L 406.39541993497033 51.77078648909378 L 406.549164265644 51.8593744256292 L 406.7218487022056 51.94806954662704 L 406.79507258230734 52.036872111771004 L 406.94409017928433 52.12578238168999 L 406.9745594932189 52.21480061796183 L 407.0180647098232 52.30392708311922 L 407.19040981521744 52.39316204065278 L 407.51929898757436 52.4825057550172 L 407.5603688480332 52.57195849163486 L 407.63432300569696 52.661520516900964 L 407.8746571373614 52.75119209818865 L 407.98829921847897 52.84097350385309 L 408.33479617214294 52.930865003237045 L 408.51597741009033 53.020866866674965 L 409.0659452951045 53.110979365498224 L 409.1552966299832 53.20120277204035 L 409.15999126247016 53.29153735964155 L 409.322025765615 53.381983402653645 L 409.3436799551562 53.472541176445134 L 409.4716322517505 53.56321095740668 L 409.53341014948745 53.65399302295509 L 409.85877587631745 53.744887651540125 L 409.9008625421419 53.83589512264757 L 409.93098884193296 53.927015716805954 L 409.9502149619134 54.01824971559131 L 410.40069470480296 54.10959740163196 L 411.03644943011034 54.20105905861419 L 411.15235191172 54.29263497128761 L 411.5644682395957 54.384325425470024 L 411.6649138707118 54.47613070805346 L 411.7461444640994 54.56805110700884 L 411.91358816947576 54.66008691139177 L 412.13168484574385 54.75223841134812 L 412.2275680572149 54.84450589811922 L 412.22953407376514 54.936889664047385 L 412.322691031509 55.029390002581636 L 412.355053092815 55.12200720828366 L 412.50188628518777 55.21474157683224 L 412.5983584615642 55.307593405030616 L 412.7190184321706 55.4005629908105 L 412.9252442185937 55.49365063323887 L 413.0646324077206 55.58685663252356 L 413.1367419779602 55.68018129001905 L 413.13916070732705 55.77362490823168 L 413.3003026612222 55.86718779082673 L 413.5486441279799 55.960870242633405 L 413.5587706752874 56.054672569651075 L 414.07607046569734 56.1485950790551 L 414.6113792812873 56.24263807920329 L 414.8275515315555 56.33680187964194 L 414.91531361891674 56.431086791111284 L 415.042041436363 56.525493125552316 L 415.07904641756977 56.6200211961127 L 415.1148424904797 56.71467131715326 L 415.4454382200267 56.80944380425376 L 415.6056591418576 56.90433897421963 L 415.6112462808305 56.99935714508831 L 415.67345888568406 57.09449863613554 L 415.6927867213996 57.18976376788157 L 415.75046723845145 57.28515286209813 L 415.9117232024228 57.380666241814765 L 416.1383376428837 57.47630423132489 L 416.2412954483305 57.57206715619327 L 416.2426540973742 57.66795534326195 L 416.43119639081914 57.76396912065741 L 416.46198961950716 57.86010881779703 L 416.65926755394537 57.95637476539582 L 417.15427254571824 58.05276729547376 L 417.29852778151786 58.14928674136195 L 417.3060722554856 58.24593343770999 L 417.5554782428921 58.34270772049297 L 417.6650089285221 58.43960992701807 L 417.6669701729247 58.53664039593207 L 417.75205635180816 58.63379946722813 L 417.95133241524786 58.731087482253315 L 418.2330944680986 58.82850478371506 L 418.33143132810017 58.92605171568954 L 418.37562117821807 59.023728623627676 L 418.3804473205877 59.12153585436363 L 418.6491866936944 59.21947375612132 L 419.04077657551045 59.317542678522386 L 419.04725977422896 59.41574297259365 L 419.1006323706757 59.51407499077408 L 419.2322491799884 59.61253908692339 L 419.2370734749248 59.71113561632865 L 419.2468727919898 59.809864935712596 L 419.4372725418448 59.90872740324119 L 419.4773705028269 60.00772337853158 L 419.4826464968259 60.10685322265954 L 419.59193214600106 60.20611729816795 L 419.73587957883234 60.30551596907418 L 419.8257101421523 60.40504960087844 L 420.1360198585398 60.50471856057186 L 420.1372254461642 60.604523216644395 L 420.9523553541858 60.70446393909316 L 421.43903163094757 60.804541099430594 L 421.621263223105 60.904755070692886 L 421.6950552655811 61.00510622744798 L 421.75107535430493 61.1055949458044 L 421.7629719130135 61.206221603419465 L 421.82335726723136 61.306986579507736 L 422.2199627034961 61.40789025484986 L 422.2965955125372 61.50893301180082 L 422.7211148049976 61.610115234299144 L 422.7769586884973 61.71143730787509 L 422.8246732474972 61.81289961965996 L 422.8681723846208 61.914502558394474 L 423.01868190434504 62.01624651443831 L 423.1351693219257 62.118131879778616 L 423.3138016807385 62.220159048039136 L 423.329903475702 62.32232841448962 L 423.394008538377 62.42464037605464 L 423.4690964051639 62.52709533132321 L 423.4710525684138 62.62969368055769 L 423.62257478611093 62.73243582570365 L 423.69374305060904 62.835322170398854 L 423.7164622524392 62.938353119983105 L 423.7247374010861 63.04152908150763 L 423.7665640477483 63.14485046374483 L 423.93326104385784 63.24831767719803 L 424.01495007331346 63.35193113411117 L 424.14552597412256 63.455691248478615 L 424.30301925445815 63.55959843605524 L 424.42590745686044 63.663653114366355 L 424.73933957855246 63.76785570271778 L 424.7927269501531 63.872206622205795 L 424.8109234814895 63.97670629572781 L 425.07783906189695 64.0813551479921 L 425.50649147892244 64.1861536055286 L 425.537911733129 64.29110209669898 L 425.6933528153528 64.39620105170764 L 425.698163198816 64.50145090261151 L 425.8713301158451 64.60685208333155 L 425.93476117076796 64.71240502966299 L 426.1188814165478 64.81811017928618 L 426.13180684013446 64.92396797177787 L 426.1558539411413 65.02997884862145 L 426.1908720697529 65.13614325321856 L 426.37421984713626 65.24246163090032 L 426.8104369839457 65.34893442893792 L 427.32077669845495 65.4555620965545 L 427.47864745264883 65.56234508493628 L 427.61247587588105 65.66928384724406 L 427.6695495361685 65.77637883862451 L 427.8371574488236 65.8836305162223 L 427.92381002107226 65.99103933919162 L 427.9553465194306 66.09860576870733 L 428.17218545285203 66.20633026797799 L 428.2280436021957 66.31421330225686 L 428.77198701612065 66.4222553388546 L 429.1807208313814 66.53045684715096 L 429.27362493369895 66.63881829860713 L 429.3584209488132 66.74734016677843 L 429.4463652792218 66.85602292732614 L 429.5108956094963 66.96486705803039 L 429.6480538967449 67.07387303880279 L 429.77109903429454 67.1830413516987 L 429.91259257741973 67.2923724809308 L 430.0041159781679 67.40186691288113 L 430.22060643197375 67.51152513611459 L 430.46227685020017 67.62134764139171 L 430.4705270864903 67.73133492168233 L 430.5717775087042 67.8414874721783 L 430.61302636712526 67.95180579030716 L 430.665373823421 68.06229037574542 L 430.8366569396065 68.17294173043263 L 430.85660412081575 68.28376035858435 L 430.9386406580351 68.39474676670648 L 430.987681173362 68.50590146360895 L 431.09325710572483 68.61722496041966 L 431.1844323110639 68.72871777059879 L 431.4478897789681 68.84038040995267 L 431.73050601482606 68.95221339664846 L 431.91310059857216 69.0642172512284 L 431.9622696639241 69.17639249662443 L 432.08653666195136 69.28873965817252 L 432.1136676217331 69.40125926362799 L 432.5721460731115 69.51395184317983 L 432.6277446235165 69.62681792946626 L 432.7684582313335 69.73985805758912 L 432.89777507446513 69.85307276512981 L 432.9661016978527 69.96646259216413 L 433.1324143626762 70.08002808127804 L 433.47159394854225 70.19376977758304 L 433.5870890416743 70.30768822873188 L 433.58963555891216 70.42178398493462 L 433.6257358738504 70.53605759897425 L 433.6378690439376 70.65050962622303 L 433.7536551225323 70.76514062465839 L 433.783461953022 70.87995115487962 L 433.93039333908206 70.99494178012401 L 434.1781029012087 71.11011306628359 L 434.2420476512825 71.22546558192175 L 434.24384466703793 71.34099989829025 L 434.33698800745384 71.45671658934583 L 434.5532093662858 71.57261623176782 L 434.833187972513 71.6886994049749 L 434.8755560142646 71.80496669114285 L 434.9403790624194 71.92141867522201 L 435.17989366576296 72.03805594495446 L 435.18677933144676 72.15487909089268 L 435.223602314334 72.27188870641663 L 435.2509946280187 72.38908538775257 L 435.71272168332024 72.50646973399057 L 435.768092597408 72.62404234710345 L 435.826604695842 72.74180383196517 L 435.9130980384737 72.85975479636937 L 436.08038882209024 72.97789585104829 L 436.1762985583631 73.09622760969148 L 436.3070643357794 73.21475068896552 L 436.3607748378275 73.3334657085328 L 436.5473302693029 73.45237329107096 L 436.6061211793653 73.5714740622928 L 436.69019099265876 73.69076865096582 L 437.00938817081555 73.81025768893215 L 437.0131273243221 73.92994181112874 L 437.0162682084385 74.04982165560739 L 437.1383105769986 74.16989786355538 L 437.22101442731497 74.290171079316 L 437.2854704621262 74.41064195040917 L 437.3131366360365 74.53131112755244 L 437.5112762611371 74.65217926468222 L 437.5392387047399 74.7732470189747 L 437.6561687735447 74.89451505086748 L 437.97134113161707 75.01598402408166 L 438.6584961726154 75.13765460564247 L 438.6966071445949 75.25952746590252 L 438.75160536368406 75.38160327856315 L 438.7593767421507 75.50388272069705 L 438.7889675130882 75.62636647277077 L 439.07439374429583 75.74905521866742 L 439.07693402371206 75.87194964570955 L 439.1118999296598 75.99505044468259 L 439.5956882996513 76.11835830985729 L 439.8916172003018 76.24187393901428 L 440.0135028323116 76.36559803346705 L 440.01693823798075 76.48953129808609 L 440.1736170032356 76.61367444132287 L 440.20528001583835 76.73802817523438 L 440.22170876090576 76.86259321550733 L 440.28592906143615 76.9873702814831 L 440.35238766415364 77.11236009618233 L 440.4596133375853 77.23756338633063 L 440.5120295892418 77.3629808823834 L 440.6437368021138 77.48861331855181 L 440.6837551450684 77.61446143282797 L 440.7858882683478 77.74052596701165 L 440.8913014857845 77.86680766673629 L 440.9574435042447 77.99330728149516 L 441.128239131078 78.12002556466842 L 441.2296055448568 78.24696327354974 L 441.3033508303544 78.5015000173434 L 441.52352725047655 78.62910058665727 L 441.5477080181666 78.7569236505376 L 441.69204086880626 78.88496998625862 L 441.76756189703275 79.01324037517486 L 441.78412842197804 79.1417356027494 L 441.8793462497407 79.27045645858288 L 442.14542725227744 79.39940373644316 L 442.3401552119402 79.52857823429372 L 442.41401310822886 79.65798075432406 L 442.41804165063365 79.7876121029795 L 442.4810053337211 79.91747309099077 L 442.6484025272869 80.04756453340497 L 442.6748089622599 80.17788724961645 L 442.70076752676187 80.30844206339691 L 442.75089355763487 80.43922980292763 L 442.7596953340503 80.5702513008302 L 442.98554602401975 80.70150739419898 L 443.0261191615561 80.8329989246327 L 443.14321030412697 80.96472673826696 L 443.14813247272167 81.09669168580717 L 443.2978805471392 81.22889462256103 L 443.3090665049739 81.36133640847231 L 443.56796851488417 81.49401790815409 L 443.60152216993396 81.6269399909225 L 443.77211608189276 81.76010353083132 L 443.78359789723277 81.89350940670624 L 444.1570975465351 82.02715850217953 L 444.2659300242063 82.16105170572524 L 444.4290197441775 82.29518991069506 L 444.45704493419447 82.42957401535324 L 444.5135414575599 82.5642049229134 L 444.51756622141187 82.69908354157474 L 444.51875874264425 82.83421078455848 L 444.68704692752607 82.96958757014573 L 445.0244795165908 83.10521482171396 L 445.14399952669316 83.2410934677755 L 445.230431466088 83.37722444201546 L 445.4061164446112 83.51360868333023 L 445.53559891703463 83.65024713586632 L 445.6387027303552 83.78714074905946 L 445.6448113332108 83.9242904776745 L 445.64913204223353 84.061697281845 L 445.9965493335463 84.19936212711372 L 446.0233631769477 84.33728598447368 L 446.0242569661935 84.47546983040843 L 446.114080964343 84.61391464693429 L 446.4055744723279 84.75262142164195 L 446.4276174036123 84.89159114773861 L 446.4311919125461 85.03082482409093 L 446.64937508243474 85.17032345526775 L 446.65801261310105 85.31008805158399 L 446.6958386477339 85.45011962914418 L 446.8030585774764 85.5904192098871 L 446.80395205530374 85.73098782163026 L 446.8304584018761 85.87182649811535 L 446.8450516496609 86.01293627905346 L 447.0518783658927 86.15431821017165 L 447.14240557070644 86.29597334325888 L 447.20196094478894 86.43790273621352 L 447.4066704533002 86.58010745309036 L 447.45311829471706 86.72258856414862 L 447.5239791694467 86.8653471459001 L 447.54571335775057 87.0083842811585 L 447.56387464085105 87.151701059088 L 447.6305639896232 87.29529857525358 L 447.71868615171985 87.43917793167088 L 448.05357824943485 87.58334023685723 L 448.0769444050156 87.72778660588278 L 448.27204971964017 87.8725181604222 L 448.33529531193335 88.017536028807 L 448.48573823054295 88.16284134607832 L 448.5492753763978 88.30843525404026 L 448.5547808520993 88.45431890131357 L 448.57680261943443 88.60049344339018 L 448.5918308632525 88.74696004268799 L 448.6852715399624 88.89371986860652 L 448.8129278129337 89.0407740975827 L 448.90263992649597 89.18812391314765 L 448.9039788860207 89.3357705059837 L 448.94132065663945 89.48371507398207 L 449.1945141513826 89.6319588223015 L 449.2581799225871 89.78050296342667 L 449.3521877488355 89.92934871722821 L 449.395174188784 90.07849731102249 L 449.40275994539587 90.22794997963211 L 449.4754926591651 90.37770796544811 L 449.6257102070586 90.5277725184909 L 449.6321053837842 90.6781448964735 L 449.78350213586725 90.82882636486471 L 449.823506049795 90.97981819695275 L 450.12105918537895 91.13112167391017 L 450.19659361348994 91.28273808485869 L 450.267962383643 91.43466872693534 L 450.29085938171266 91.58691490535932 L 450.29323827716576 91.73947793349862 L 450.4939484714207 91.89235913293845 L 450.5734841967277 92.04555983354993 L 450.6591120226435 92.19908137355924 L 450.79052057613205 92.352925099618 L 450.9174622341453 92.50709236687413 L 450.96799906311566 92.66158453904342 L 451.11885957135195 92.81640298848168 L 451.31771236489624 92.97154909625834 L 451.36021522853605 93.12702425223006 L 451.5184792806576 93.28282985511555 L 451.6834186325682 93.43896731257087 L 451.80377210777607 93.59543804126605 L 451.8382425277573 93.75224346696211 L 451.86721509929436 93.90938502458886 L 451.92382196414644 94.06686415832382 L 452.05708758954535 94.22468232167176 L 452.1444413514644 94.38284097754541 L 452.3537496692907 94.54134159834655 L 452.41465188961155 94.70018566604841 L 452.44406261217244 94.85937467227893 L 452.4500041253456 95.01891011840439 L 452.4651549125218 95.17879351561481 L 452.4706507609434 95.33902638500973 L 452.5290247501679 95.49961025768482 L 452.57358402227476 95.6605466748199 L 452.90819580081086 95.82183718776758 L 453.24929087489454 95.98348335814319 L 453.4011854417373 96.14548675791491 L 453.529612196125 96.30784896949649 L 453.566134527942 96.4705715858388 L 453.6728772753219 96.63365621052469 L 453.72127356075424 96.79710445786304 L 453.8162816284472 96.96091795298526 L 453.9757079768046 97.12509833194139 L 454.0022779304501 97.28964724179929 L 454.1193897757234 97.45456634074259 L 454.1441769214522 97.61985729817195 L 454.18321240856505 97.78552179480573 L 454.4223084583907 97.95156152278292 L 454.44204646912823 98.11797818576684 L 454.76999845756376 98.2847734990496 L 454.817332353881 98.45194918965905 L 454.8176291149624 98.61950699646508 L 454.95769595170486 98.78744867028877 L 455.1955224122291 98.95577597401183 L 455.3554438950528 99.12449068268825 L 455.5761701703881 99.29359458365559 L 455.7618719163516 99.46308947664937 L 455.85753493153885 99.63297717391794 L 455.9297615059414 99.80325950033836 L 456.01058724866243 99.97393829353427 L 456.0294214518075 100.14501540399493 L 456.1129128998078 100.3164926951955 L 456.3335644642498 100.4883720437187 L 456.4125963243092 100.66065533937842 L 456.4671607824824 100.83334448534384 L 456.52869247447217 101.0064413982663 L 456.5753961230509 101.17994800840614 L 456.6246192307763 101.35386625976236 L 456.8419589216575 101.52819811020316 L 457.0033933621894 101.7029455315984 L 457.19105181782584 101.87811050995293 L 457.4053723166513 102.05369504554261 L 457.6749482721642 102.22970115305077 L 457.7831252021072 102.40613086170754 L 457.88299898417324 102.58298621542963 L 457.9492332918852 102.76026927296294 L 458.0858446196009 102.93798210802578 L 458.1243669136302 103.11612680945512 L 458.43518792702383 103.2947054813531 L 458.4498538193879 103.47372024323681 L 458.57443595742984 103.65317323018905 L 458.89882062938466 103.83306659301087 L 458.99020270581343 104.01340249837631 L 459.08261773594626 104.19418312898955 L 459.1923556265698 104.37541068374253 L 459.3684285257881 104.55708737787603 L 459.41211141434593 104.73921544314186 L 459.74037214112576 104.9217971279678 L 459.81158518343 105.10483469762346 L 459.95415250881246 105.28833043438942 L 460.01085121508464 105.47228663772773 L 460.1804946375643 105.65670562445513 L 460.38594431779893 105.8415897289176 L 460.51900288473723 106.0269413031682 L 460.62141855007246 106.2127627171464 L 460.62452646662507 106.39905635885953 L 460.6553094069552 106.58582463456764 L 460.8558321382321 106.77306996896937 L 460.91724325445176 106.96079480539089 L 461.0468669682059 107.1490016059779 L 461.1180384392213 107.33769285188822 L 461.20341162457197 107.52687104348911 L 461.31112219160406 107.71653870055542 L 461.3711892940887 107.90669836247133 L 461.3842085519329 108.09735258843409 L 461.51779951390967 108.2885039576608 L 461.61765465802546 108.48015506959786 L 461.61854223932374 108.67230854413287 L 461.7087778337519 108.86496702180972 L 461.8321432329266 109.0581331640459 L 462.0269402102328 109.25180965335397 L 462.03936404346615 109.44599919356403 L 462.0795931253337 109.64070451005097 L 462.0861007029613 109.83592834996358 L 462.38912579901347 110.03167348245722 L 462.6252764929832 110.22794269892955 L 462.6940320287629 110.4247388132593 L 462.8436604298538 110.62206466204844 L 462.9221669816233 110.81992310486748 L 463.0309775341649 111.01831702450386 L 463.0782848195466 111.21724932721435 L 463.16757459499007 111.41672294298036 L 463.2373482306292 111.61674082576656 L 463.25612169753776 111.81730595378389 L 463.4481341761563 112.01842132975537 L 463.5158297969279 112.22008998118571 L 463.5397740457879 112.42231496063499 L 463.54361692606255 112.6250993459958 L 463.55618014243754 112.82844624077421 L 463.6488501591638 113.03235877437504 L 463.7460978195832 113.23684010239054 L 463.92196051413015 113.44189340689366 L 463.99008512070145 113.6475218967347 L 464.08111172620664 113.85372880784348 L 464.1017990746224 114.06051740353399 L 464.2702460775155 114.26789097481452 L 464.30216092270496 114.47585284070226 L 464.30467271989994 114.89355487432806 L 464.35727206039957 115.10330182303494 L 464.6189206287817 115.31365062894736 L 464.69810354867224 115.5246047559989 L 465.02366953839777 115.94834297955452 L 465.0771381889924 116.16113415527383 L 465.1660528394702 116.37454481127224 L 465.1818562364163 116.58857856496041 L 465.3211280763164 116.80323906552752 L 465.4388303903814 117.0185299943139 L 465.43942110156115 117.23445506519056 L 465.55061970314233 117.4510180249431 L 465.57321316577674 117.6682226536621 L 465.6544296113441 117.88607276513864 L 465.79278611211697 118.10457220726676 L 465.79337672985326 118.32372486245043 L 465.8137529462791 118.54353464801824 L 465.83176654828685 118.76400551664301 L 466.09368565395124 118.98514145676853 L 466.1114017354783 119.20694649304238 L 466.13162742372623 119.42942468675557 L 466.2954930467723 119.65258013628858 L 466.5709374023179 119.87641697756436 L 467.0342155940965 120.10093938450842 L 467.16820745626006 120.32615156951573 L 467.43306864057854 120.55205778392497 L 467.52823394397575 120.77866231850004 L 467.8094274525962 121.00596950391895 L 467.9258188307596 121.23398371127053 L 468.0690500997947 121.46270935255887 L 468.16817080009395 121.69215088121553 L 468.19811264804 121.9223127926195 L 468.2456057918794 122.15319962462615 L 468.64822455327743 122.38481595810373 L 468.6971827731326 122.61716641747881 L 468.8543727071433 122.85025567129037 L 469.04207192270945 123.0840884327526 L 469.48449614148535 123.31866946032648 L 469.71193978839796 123.55400355830108 L 469.82336841840294 123.79009557738408 L 469.92609598219127 124.02695041530143 L 470.0381034456079 124.26457301740686 L 470.4311168568716 124.50296837730173 L 470.5177561956583 124.74214153746459 L 470.97049530664236 125.22284167674508 L 471.00864908698446 125.46437899101812 L 471.17642961166473 125.70671477720344 L 471.19572577485144 125.94985433197837 L 471.37556979585116 126.19380300489905 L 471.5686540405102 126.43856619910667 L 471.6282991226152 126.68414937204545 L 471.9434343957517 126.93055803619319 L 471.96154596213427 127.17779775980296 L 472.0077813285189 127.42587416765878 L 472.08508354898004 127.67479294184324 L 472.2645616432482 127.92455982251823 L 472.32315760811576 128.17518060871936 L 472.4394616356542 128.4266611591638 L 472.98071109257035 128.6790073930722 L 473.0394354820633 128.93222529100422 L 473.0937431321026 129.18632089570974 L 473.1315663806153 129.44130031299312 L 473.239292907332 129.6971697125946 L 473.31331509603194 129.95393532908525 L 473.49666766535046 130.211603462779 L 473.50270068075116 130.47018048065996 L 473.59392966239625 130.72967281732656 L 473.7631348608257 130.9900869759523 L 473.793149055403 131.25142952926348 L 473.8093330128436 131.5137071205349 L 473.9277665929406 131.77692646460292 L 474.0975349769998 132.04109434889693 L 474.46674409436633 132.30621763448994 L 474.62411750848094 132.57230325716722 L 474.7403019916332 132.83935822851544 L 474.7948624961071 133.1073896370309 L 474.92206713046465 133.37640464924937 L 474.9528010382628 133.64641051089444 L 475.0139734930537 133.91741454804986 L 475.0936716342573 134.18942416835137 L 475.13307852232833 134.46244686220217 L 475.2027740802676 134.73649020401035 L 475.2287990800023 135.01156185344968 L 475.35347962529147 135.28766955674433 L 475.37406300937454 135.56482114797785 L 475.42360937883416 135.84302455042678 L 475.5873839319193 136.12228777791984 L 475.79627464926165 136.40261893622295 L 475.93532831120683 136.6840262244512 L 475.9850092366135 136.9665179365075 L 476.0836328938057 137.25010246254948 L 476.3559644697655 137.53478829048447 L 476.36316544853446 137.8205840074944 L 476.3646350331908 138.1074983015895 L 476.7117238913707 138.39553996319313 L 476.7419924245966 138.6847178867581 L 476.812225599017 138.97504107241434 L 477.1521935236795 139.26651862764948 L 477.2349004654538 139.55915976902395 L 477.401333410157 139.85297382391866 L 477.55115653993965 140.1479702323196 L 477.65264866586375 140.44415854863746 L 477.8313869905078 140.74154844356417 L 477.8883687627784 141.04014970596808 L 478.19131706436235 141.3399722448268 L 478.3415277910219 141.64102609120062 L 478.4958393554519 141.94332140024608 L 478.70049498365665 142.2468684532713 L 478.73132383609277 142.55167765983452 L 478.8439189405758 142.85775955988578 L 478.88135152079525 143.16512482595397 L 478.9525450921609 143.47378426537927 L 479.0550011425436 143.78374882259425 L 479.43630779523124 144.0950295814514 L 479.60683269647336 144.72158475092482 L 480.44840724029274 145.03688204800767 L 480.8419430433888 145.35354132468245 L 481.08055366816785 145.67157439861472 L 481.322218146713 145.99099324195078 L 481.42544550143435 146.3118099840206 L 481.4401080916599 146.6340369141035 L 481.5594580016764 146.95768648425081 L 481.9866609021046 147.28277131217465 L 482.4379647861953 147.609304184199 L 482.57880455408025 147.9372980582774 L 482.6172005386777 148.26676606707855 L 482.66805222160474 148.59772152114164 L 482.91760439001735 148.9301779121027 L 483.09914599345376 149.26414891599495 L 483.31041315487795 149.59964839662462 L 483.39450424133213 149.93669040902415 L 483.43347220973743 150.27528920298533 L 483.5168262244579 150.61545922667426 L 483.8383473291414 150.95721513033084 L 483.9912550497749 151.30057177005466 L 484.14210204362956 151.6455442116798 L 484.22352590307787 151.99214773474205 L 484.2983570888708 152.34039783653913 L 484.45401551019455 152.6903102362889 L 484.99090271213527 153.04190087938673 L 485.0105192757061 153.3951859417656 L 485.09191153800566 153.75018183436168 L 485.1036224112218 154.10690520768895 L 485.1544176142541 154.4653729565249 L 485.4746789646134 154.82560222471227 L 485.8424545745714 155.18761041007843 L 486.00429766451714 155.55141516947782 L 486.0432202056347 155.91703442395936 L 486.07555759136557 156.28448636406358 L 486.2322629171906 156.65378945525345 L 486.30351558389987 157.02496244348225 L 486.52837821594227 157.39802436090343 L 486.5722654887156 157.77299453172685 L 486.7137229386434 158.14989257822413 L 486.7229385738818 158.52873842689132 L 486.95711999452504 158.90955231477 L 487.03346866334516 159.29235479593376 L 487.48024628158294 159.6771667481455 L 487.4859492489513 160.06400937968988 L 487.55394504768026 160.45290423638698 L 487.56315722275286 160.84387320879313 L 487.6723844075071 161.2369385395952 L 487.67311549519616 161.6321228312034 L 487.87137765949274 162.02944905355025 L 488.01304539068707 162.4289405521024 L 488.03731367895494 162.83062105609122 L 488.0757622955757 163.23451468697095 L 488.12839050950726 163.64064596711006 L 488.22984251742895 164.04903982872645 L 488.4740978611719 164.45972162307066 L 488.5385557759196 164.8727171298699 L 489.1529321189515 165.28805256703816 L 489.1672519151363 165.70575460066397 L 489.38276838986224 166.1258503552832 L 489.48810821148885 166.54836742444968 L 489.6756913976193 166.97333388160973 L 489.8013224324148 167.40077829129632 L 489.9291374666689 167.83072972064969 L 490.0934603538432 168.263217751279 L 490.2138100830858 168.69827249147454 L 490.5454686122799 169.1359245887864 L 490.8271425969271 169.57620524297886 L 490.8418897135588 170.01914621937834 L 491.0731585106104 170.46477986262448 L 491.1547684971102 170.91313911084433 L 491.5182544620256 171.36425751026093 L 491.5516805275427 171.8181692302548 L 491.63312710287346 172.27490907889484 L 491.9391820827374 172.7345125189554 L 492.0473202560154 173.19701568443958 L 492.12655989072897 173.66245539762633 L 492.29553669956084 174.13086918666227 L 492.918656050681 174.60229530372004 L 493.151460611585 175.0767727437427 L 493.2671245468947 175.55434126380055 L 493.41399308358206 176.0350414030811 L 493.4775796480553 176.51891450353935 L 493.53781020880365 177.00600273123496 L 493.6980768543321 177.49634909838147 L 493.71222176671125 177.98999748613886 L 493.76078042464076 178.48699266817914 L 493.82669019019164 178.98738033505526 L 494.7895970920931 179.4912071194081 L 495.03780098304884 179.99852062204565 L 495.14272916814974 180.50936943893043 L 495.51576731148134 181.02380318911497 L 495.9547360557198 181.54187254366246 L 495.9822688947486 182.06362925559944 L 496.0846764280121 182.58912619093883 L 496.09341654092464 183.1184173608259 L 496.4330891472805 183.65155795485128 L 496.4416822536747 184.18860437558527 L 496.4743066282905 184.72961427438577 L 497.19716401823234 185.27464658853813 L 497.3929826344279 185.82376157978553 L 497.5902398227257 186.37702087431376 L 497.7112059235981 186.93448750425574 L 498.0858536480371 187.4962259507871 L 498.1041914366131 188.06230218888527 L 498.1801606739038 188.6327837338302 L 498.22833140178153 189.2077396895291 L 498.2791205626377 189.7872407987502 L 498.396265949801 190.3713594953598 L 498.6220991251234 190.96016995865546 L 498.9261812416794 191.55374816990002 L 499.1158842688118 192.15217197116266 L 499.2917525383423 192.75552112658187 L 499.29437082005137 193.36387738617054 L 499.4773520297862 193.97732455228982 L 499.49931458721665 194.5959485489302 L 499.55385642978865 195.21983749393797 L 500.45774838395437 195.8490817743437 L 500.6778495303242 196.48377412495074 L 500.8325179629302 197.12400971035663 L 500.95389030742734 197.76988621058678 L 501.0036001934618 198.42150391053485 L 501.25489437945726 199.0789657934145 L 501.5682095373712 199.7423776384386 L 501.61441835718813 200.41184812296052 L 501.7308080419406 201.08748892932118 L 501.880318490277 201.76941485666674 L 502.3807934008752 202.4577439380157 L 502.4718692467852 203.15259756287497 L 502.48770183056706 203.85410060572258 L 502.5889405662243 204.5623815606976 L 502.8388949281715 205.2775726828608 L 503.57726635812907 205.99981013641428 L 504.30349317931905 206.72923415029516 L 504.3606755257151 207.46598918158935 L 504.47967978428676 208.2102240872394 L 504.8481174674546 208.96209230456003 L 504.9415595227311 209.7217520411059 L 504.99350233165336 210.48936647448141 L 505.0091719925512 211.26510396272278 L 505.02832365128194 212.0491382659311 L 505.35982449250497 212.8416487798861 L 505.41103227773385 213.64282078242718 L 505.8318201422787 214.45284569344602 L 505.83211021347523 215.27192134940657 L 506.20337051674665 216.100252293374 L 506.5877630457657 216.93805008161917 L 506.5924026125668 217.78553360794558 L 506.7210017756455 218.6429294469857 L 506.7244812444358 219.5104722178105 L 506.74071869391094 220.38840496931488 L 506.9704949663306 221.2769795889604 L 507.18125951528145 222.17645723659683 L 507.52910805346283 223.08710880523074 L 507.9225465299485 224.00921541077548 L 508.1123576644741 224.94306891299829 L 508.1206162566741 225.88897247007867 L 508.12771572384804 226.8472411294169 L 508.3135978374354 227.81820245757086 L 508.80394536179574 228.80219721247477 L 508.91170601157535 229.7995800613911 L 509.4206021706768 230.81072034838155 L 509.7043983561508 231.83600291545082 L 509.9885928478724 232.87582898193534 L 510.2817256044407 233.9306170871618 L 510.2827388362528 235.00080410192118 L 510.42313937882426 236.08684631487404 L 510.85239195543863 237.18922060064972 L 511.1632085619808 238.308425677123 L 511.4090240784056 239.44498346016616 L 511.5176720066056 240.59944052508598 L 511.52186736008554 241.77236968499136 L 511.96566239134614 242.96437169749856 L 512.3380756183592 244.17607711250628 L 512.6186100826324 245.408148275266 L 512.9663372302741 246.66128150067942 L 513.4076776859886 247.93620943669242 L 514.1349116457475 249.2337036368707 L 514.4032290238597 250.5545773647744 L 515.261859543321 251.8996886556571 L 515.7362473537235 253.2699436643515 L 515.7554518041643 254.66630033205837 L 516.2307455235026 256.0897724091968 L 516.351718508824 257.54143387663123 L 516.7378355327796 259.0224238135754 L 517.5975905986054 260.5339517674419 L 518.0658579423475 262.0773036890588 L 518.5496024172933 263.6538485062222 L 518.5935871119451 265.265045419782 L 518.9043395806341 266.9124520197101 L 519.7402009192807 268.59773333428154 L 520.0571353156326 270.32267194414635 L 520.0758703683805 272.08917931529624 L 521.1119627427789 273.89930853156665 L 521.1759193472049 275.75526863933413 L 521.8752893816022 277.6594408557528 L 521.9684550074629 279.6143969388106 L 521.9769505979538 281.62292007471746 L 522.0616167540244 283.6880287082712 L 522.3901717319897 285.813003828257 L 523.2699201282048 288.0014203269855 L 523.4978613186933 290.25718318650206 L 523.5662103696257 292.58456941132727 L 523.7437642518339 294.9882768388422 L 524.3366115645005 297.4734812270153 L 524.9999079418329 300.0459033632066 L 525.2209151153053 302.71188838199294 L 525.2811598684582 305.47850005839433 L 525.2851857129938 308.35363360296697 L 525.419472233483 311.3461514937776 L 525.7762844031458 314.4660482325578 L 526.9959452292447 317.7246517460457 L 527.8774751738422 321.1348716704821 L 527.9949479670045 324.7115082579023 L 528.0519588232737 328.4716405820885 L 528.1125581910876 332.435119801053 L 528.2218339451947 336.62520355459316 L 528.4782735598438 341.06938291283825 L 530.1820033339616 345.8004765651784 L 530.2885958056918 350.85810308954285 L 530.5706181483529 356.2906997847306 L 530.9435330908539 362.1583512201139 L 531.9420653323947 368.53685147238195 L 531.9770431616456 375.52370798423874 L 533.5670967082136 383.24731952738944 L 534.0644012661592 391.8815826391742 L 535.5243082297418 401.6703028158787 L 536.9529405975841 412.97055094644975 L 537.9510825603363 426.3359077105746 L 537.9618051637615 442.69378236551006 L 539.4428891445369 463.7827506727857 L 542.3213582954684 493.5059820918459 L 547.9335649199558 544.3181818181819" stroke-linejoin="bevel" stroke-miterlimit="10"/><path fill="none" stroke="none"/></g></g></g><g clip-path="url(#uwhvieITeTar)"><g><g/><g><path fill="#ffffff" stroke="#e5e5e5" paint-order="fill stroke markers" d=" M 123 475 L 255 475 L 255 560 L 123 560 L 123 475 Z" fill-opacity="0.95" stroke-linejoin="bevel" stroke-miterlimit="10" stroke-opacity="0.5"/><text fill="#444444" stroke="none" font-family="helvetica" font-size="22pt" font-style="normal" font-weight="normal" text-decoration="normal" x="158" y="500.5" text-anchor="start" dominant-baseline="central">male</text><g><path fill="none" stroke="blue" paint-order="fill stroke markers" d=" M 133 495 L 153 495" stroke-linejoin="bevel" stroke-miterlimit="10"/></g><text fill="#444444" stroke="none" font-family="helvetica" font-size="22pt" font-style="normal" font-weight="normal" text-decoration="normal" x="158" y="534.5" text-anchor="start" dominant-baseline="central">female</text><g><path fill="none" stroke="red" paint-order="fill stroke markers" d=" M 133 529 L 153 529" stroke-linejoin="bevel" stroke-miterlimit="10"/></g></g></g></g><g/><g/><g><g fill="#444444"><path fill="none" stroke="black" paint-order="fill stroke markers" d=" M 113 570 L 570 570" stroke-linejoin="bevel" stroke-miterlimit="10"/><path fill="none" stroke="black" paint-order="fill stroke markers" d=" M 194 576 L 194 568" stroke-linejoin="bevel" stroke-miterlimit="10"/><path fill="none" stroke="black" paint-order="fill stroke markers" d=" M 330 576 L 330 568" stroke-linejoin="bevel" stroke-miterlimit="10"/><path fill="none" stroke="black" paint-order="fill stroke markers" d=" M 458 576 L 458 568" stroke-linejoin="bevel" stroke-miterlimit="10"/><path fill="none" stroke="black" paint-order="fill stroke markers" d=" M 180 574 L 180 570" stroke-linejoin="bevel" stroke-miterlimit="10"/><path fill="none" stroke="black" paint-order="fill stroke markers" d=" M 166 574 L 166 570" stroke-linejoin="bevel" stroke-miterlimit="10"/><path fill="none" stroke="black" paint-order="fill stroke markers" d=" M 152 574 L 152 570" stroke-linejoin="bevel" stroke-miterlimit="10"/><path fill="none" stroke="black" paint-order="fill stroke markers" d=" M 138 574 L 138 570" stroke-linejoin="bevel" stroke-miterlimit="10"/><path fill="none" stroke="black" paint-order="fill stroke markers" d=" M 123 574 L 123 570" stroke-linejoin="bevel" stroke-miterlimit="10"/><path fill="none" stroke="black" paint-order="fill stroke markers" d=" M 194 574 L 194 570" stroke-linejoin="bevel" stroke-miterlimit="10"/><path fill="none" stroke="black" paint-order="fill stroke markers" d=" M 208 574 L 208 570" stroke-linejoin="bevel" stroke-miterlimit="10"/><path fill="none" stroke="black" paint-order="fill stroke markers" d=" M 222 574 L 222 570" stroke-linejoin="bevel" stroke-miterlimit="10"/><path fill="none" stroke="black" paint-order="fill stroke markers" d=" M 236 574 L 236 570" stroke-linejoin="bevel" stroke-miterlimit="10"/><path fill="none" stroke="black" paint-order="fill stroke markers" d=" M 250 574 L 250 570" stroke-linejoin="bevel" stroke-miterlimit="10"/><path fill="none" stroke="black" paint-order="fill stroke markers" d=" M 263 574 L 263 570" stroke-linejoin="bevel" stroke-miterlimit="10"/><path fill="none" stroke="black" paint-order="fill stroke markers" d=" M 277 574 L 277 570" stroke-linejoin="bevel" stroke-miterlimit="10"/><path fill="none" stroke="black" paint-order="fill stroke markers" d=" M 290 574 L 290 570" stroke-linejoin="bevel" stroke-miterlimit="10"/><path fill="none" stroke="black" paint-order="fill stroke markers" d=" M 304 574 L 304 570" stroke-linejoin="bevel" stroke-miterlimit="10"/><path fill="none" stroke="black" paint-order="fill stroke markers" d=" M 317 574 L 317 570" stroke-linejoin="bevel" stroke-miterlimit="10"/><path fill="none" stroke="black" paint-order="fill stroke markers" d=" M 330 574 L 330 570" stroke-linejoin="bevel" stroke-miterlimit="10"/><path fill="none" stroke="black" paint-order="fill stroke markers" d=" M 343 574 L 343 570" stroke-linejoin="bevel" stroke-miterlimit="10"/><path fill="none" stroke="black" paint-order="fill stroke markers" d=" M 356 574 L 356 570" stroke-linejoin="bevel" stroke-miterlimit="10"/><path fill="none" stroke="black" paint-order="fill stroke markers" d=" M 369 574 L 369 570" stroke-linejoin="bevel" stroke-miterlimit="10"/><path fill="none" stroke="black" paint-order="fill stroke markers" d=" M 382 574 L 382 570" stroke-linejoin="bevel" stroke-miterlimit="10"/><path fill="none" stroke="black" paint-order="fill stroke markers" d=" M 395 574 L 395 570" stroke-linejoin="bevel" stroke-miterlimit="10"/><path fill="none" stroke="black" paint-order="fill stroke markers" d=" M 408 574 L 408 570" stroke-linejoin="bevel" stroke-miterlimit="10"/><path fill="none" stroke="black" paint-order="fill stroke markers" d=" M 420 574 L 420 570" stroke-linejoin="bevel" stroke-miterlimit="10"/><path fill="none" stroke="black" paint-order="fill stroke markers" d=" M 433 574 L 433 570" stroke-linejoin="bevel" stroke-miterlimit="10"/><path fill="none" stroke="black" paint-order="fill stroke markers" d=" M 445 574 L 445 570" stroke-linejoin="bevel" stroke-miterlimit="10"/><path fill="none" stroke="black" paint-order="fill stroke markers" d=" M 458 574 L 458 570" stroke-linejoin="bevel" stroke-miterlimit="10"/><path fill="none" stroke="black" paint-order="fill stroke markers" d=" M 470 574 L 470 570" stroke-linejoin="bevel" stroke-miterlimit="10"/><path fill="none" stroke="black" paint-order="fill stroke markers" d=" M 483 574 L 483 570" stroke-linejoin="bevel" stroke-miterlimit="10"/><path fill="none" stroke="black" paint-order="fill stroke markers" d=" M 495 574 L 495 570" stroke-linejoin="bevel" stroke-miterlimit="10"/><path fill="none" stroke="black" paint-order="fill stroke markers" d=" M 507 574 L 507 570" stroke-linejoin="bevel" stroke-miterlimit="10"/><path fill="none" stroke="black" paint-order="fill stroke markers" d=" M 519 574 L 519 570" stroke-linejoin="bevel" stroke-miterlimit="10"/><path fill="none" stroke="black" paint-order="fill stroke markers" d=" M 531 574 L 531 570" stroke-linejoin="bevel" stroke-miterlimit="10"/><path fill="none" stroke="black" paint-order="fill stroke markers" d=" M 543 574 L 543 570" stroke-linejoin="bevel" stroke-miterlimit="10"/><path fill="none" stroke="black" paint-order="fill stroke markers" d=" M 555 574 L 555 570" stroke-linejoin="bevel" stroke-miterlimit="10"/><path fill="" stroke="black" paint-order="fill stroke markers" d=" M 567 574 L 567 570" stroke-linejoin="bevel" stroke-miterlimit="10"/><g transform="translate(194,581) rotate(0,0,0)"><text fill="" stroke="none" font-family="helvetica" font-size="26px" font-style="normal" font-weight="normal" text-decoration="normal" x="0" y="0" text-anchor="middle" dominant-baseline="hanging">0.8</text><g transform="rotate(0,0,0) translate(-194,-581) translate(330,581) rotate(0,0,0)"><text fill="" stroke="none" font-family="helvetica" font-size="26px" font-style="normal" font-weight="normal" text-decoration="normal" x="0" y="0" text-anchor="middle" dominant-baseline="hanging">0.85</text><g transform="rotate(0,0,0) translate(-330,-581) translate(458,581) rotate(0,0,0)"><text fill="" stroke="none" font-family="helvetica" font-size="26px" font-style="normal" font-weight="normal" text-decoration="normal" x="0" y="0" text-anchor="middle" dominant-baseline="hanging">0.9</text><g transform="rotate(0,0,0) translate(-458,-581)"/></g></g></g></g></g><g><g fill="#444444"><path fill="none" stroke="black" paint-order="fill stroke markers" d=" M 113 570 L 113 5" stroke-linejoin="bevel" stroke-miterlimit="10"/><path fill="none" stroke="black" paint-order="fill stroke markers" d=" M 107 537 L 115 537" stroke-linejoin="bevel" stroke-miterlimit="10"/><path fill="none" stroke="black" paint-order="fill stroke markers" d=" M 107 368 L 115 368" stroke-linejoin="bevel" stroke-miterlimit="10"/><path fill="none" stroke="black" paint-order="fill stroke markers" d=" M 107 199 L 115 199" stroke-linejoin="bevel" stroke-miterlimit="10"/><path fill="none" stroke="black" paint-order="fill stroke markers" d=" M 107 31 L 115 31" stroke-linejoin="bevel" stroke-miterlimit="10"/><path fill="none" stroke="black" paint-order="fill stroke markers" d=" M 109 563 L 113 563" stroke-linejoin="bevel" stroke-miterlimit="10"/><path fill="none" stroke="black" paint-order="fill stroke markers" d=" M 109 553 L 113 553" stroke-linejoin="bevel" stroke-miterlimit="10"/><path fill="none" stroke="black" paint-order="fill stroke markers" d=" M 109 545 L 113 545" stroke-linejoin="bevel" stroke-miterlimit="10"/><path fill="none" stroke="black" paint-order="fill stroke markers" d=" M 109 537 L 113 537" stroke-linejoin="bevel" stroke-miterlimit="10"/><path fill="none" stroke="black" paint-order="fill stroke markers" d=" M 109 537 L 113 537" stroke-linejoin="bevel" stroke-miterlimit="10"/><path fill="none" stroke="black" paint-order="fill stroke markers" d=" M 109 486 L 113 486" stroke-linejoin="bevel" stroke-miterlimit="10"/><path fill="none" stroke="black" paint-order="fill stroke markers" d=" M 109 456 L 113 456" stroke-linejoin="bevel" stroke-miterlimit="10"/><path fill="none" stroke="black" paint-order="fill stroke markers" d=" M 109 435 L 113 435" stroke-linejoin="bevel" stroke-miterlimit="10"/><path fill="none" stroke="black" paint-order="fill stroke markers" d=" M 109 419 L 113 419" stroke-linejoin="bevel" stroke-miterlimit="10"/><path fill="none" stroke="black" paint-order="fill stroke markers" d=" M 109 406 L 113 406" stroke-linejoin="bevel" stroke-miterlimit="10"/><path fill="none" stroke="black" paint-order="fill stroke markers" d=" M 109 394 L 113 394" stroke-linejoin="bevel" stroke-miterlimit="10"/><path fill="none" stroke="black" paint-order="fill stroke markers" d=" M 109 385 L 113 385" stroke-linejoin="bevel" stroke-miterlimit="10"/><path fill="none" stroke="black" paint-order="fill stroke markers" d=" M 109 376 L 113 376" stroke-linejoin="bevel" stroke-miterlimit="10"/><path fill="none" stroke="black" paint-order="fill stroke markers" d=" M 109 368 L 113 368" stroke-linejoin="bevel" stroke-miterlimit="10"/><path fill="none" stroke="black" paint-order="fill stroke markers" d=" M 109 368 L 113 368" stroke-linejoin="bevel" stroke-miterlimit="10"/><path fill="none" stroke="black" paint-order="fill stroke markers" d=" M 109 317 L 113 317" stroke-linejoin="bevel" stroke-miterlimit="10"/><path fill="none" stroke="black" paint-order="fill stroke markers" d=" M 109 288 L 113 288" stroke-linejoin="bevel" stroke-miterlimit="10"/><path fill="none" stroke="black" paint-order="fill stroke markers" d=" M 109 267 L 113 267" stroke-linejoin="bevel" stroke-miterlimit="10"/><path fill="none" stroke="black" paint-order="fill stroke markers" d=" M 109 250 L 113 250" stroke-linejoin="bevel" stroke-miterlimit="10"/><path fill="none" stroke="black" paint-order="fill stroke markers" d=" M 109 237 L 113 237" stroke-linejoin="bevel" stroke-miterlimit="10"/><path fill="none" stroke="black" paint-order="fill stroke markers" d=" M 109 226 L 113 226" stroke-linejoin="bevel" stroke-miterlimit="10"/><path fill="none" stroke="black" paint-order="fill stroke markers" d=" M 109 216 L 113 216" stroke-linejoin="bevel" stroke-miterlimit="10"/><path fill="none" stroke="black" paint-order="fill stroke markers" d=" M 109 207 L 113 207" stroke-linejoin="bevel" stroke-miterlimit="10"/><path fill="none" stroke="black" paint-order="fill stroke markers" d=" M 109 199 L 113 199" stroke-linejoin="bevel" stroke-miterlimit="10"/><path fill="none" stroke="black" paint-order="fill stroke markers" d=" M 109 199 L 113 199" stroke-linejoin="bevel" stroke-miterlimit="10"/><path fill="none" stroke="black" paint-order="fill stroke markers" d=" M 109 149 L 113 149" stroke-linejoin="bevel" stroke-miterlimit="10"/><path fill="none" stroke="black" paint-order="fill stroke markers" d=" M 109 119 L 113 119" stroke-linejoin="bevel" stroke-miterlimit="10"/><path fill="none" stroke="black" paint-order="fill stroke markers" d=" M 109 98 L 113 98" stroke-linejoin="bevel" stroke-miterlimit="10"/><path fill="none" stroke="black" paint-order="fill stroke markers" d=" M 109 81 L 113 81" stroke-linejoin="bevel" stroke-miterlimit="10"/><path fill="none" stroke="black" paint-order="fill stroke markers" d=" M 109 68 L 113 68" stroke-linejoin="bevel" stroke-miterlimit="10"/><path fill="none" stroke="black" paint-order="fill stroke markers" d=" M 109 57 L 113 57" stroke-linejoin="bevel" stroke-miterlimit="10"/><path fill="none" stroke="black" paint-order="fill stroke markers" d=" M 109 47 L 113 47" stroke-linejoin="bevel" stroke-miterlimit="10"/><path fill="none" stroke="black" paint-order="fill stroke markers" d=" M 109 38 L 113 38" stroke-linejoin="bevel" stroke-miterlimit="10"/><path fill="none" stroke="black" paint-order="fill stroke markers" d=" M 109 31 L 113 31" stroke-linejoin="bevel" stroke-miterlimit="10"/><path fill="" stroke="black" paint-order="fill stroke markers" d=" M 109 31 L 113 31" stroke-linejoin="bevel" stroke-miterlimit="10"/><g transform="translate(102,537) rotate(0,0,0)"><text fill="" stroke="none" font-family="helvetica" font-size="26px" font-style="normal" font-weight="normal" text-decoration="normal" x="0" y="0" text-anchor="end" dominant-baseline="central">10^-3</text><g transform="rotate(0,0,0) translate(-102,-537) translate(102,368) rotate(0,0,0)"><text fill="" stroke="none" font-family="helvetica" font-size="26px" font-style="normal" font-weight="normal" text-decoration="normal" x="0" y="0" text-anchor="end" dominant-baseline="central">10^-2</text><g transform="rotate(0,0,0) translate(-102,-368) translate(102,199) rotate(0,0,0)"><text fill="" stroke="none" font-family="helvetica" font-size="26px" font-style="normal" font-weight="normal" text-decoration="normal" x="0" y="0" text-anchor="end" dominant-baseline="central">10^-1</text><g transform="rotate(0,0,0) translate(-102,-199) translate(102,31) rotate(0,0,0)"><text fill="" stroke="none" font-family="helvetica" font-size="26px" font-style="normal" font-weight="normal" text-decoration="normal" x="0" y="0" text-anchor="end" dominant-baseline="central">10^0</text><g transform="rotate(0,0,0) translate(-102,-31) translate(26,288) rotate(-90,0,0)"><text fill="" stroke="none" font-family="helvetica" font-size="26pt" font-style="italic" font-weight="normal" text-decoration="normal" x="0" y="0" text-anchor="middle" dominant-baseline="alphabetic">CCDF</text><g transform="rotate(90,0,0) translate(-26,-288)"/></g></g></g></g></g></g></g><g clip-path="url(#UcuvLvDALkHB)"><g/></g><g clip-path="url(#aTDEtZQDJUMX)"><g/></g></g></g></svg>