<svg version="1.1" xmlns="http://www.w3.org/2000/svg" xmlns:xlink="http://www.w3.org/1999/xlink" width="600" height="600" style="width: 600px; height: 600px;"><defs><clipPath id="HEAmsOGicNGP"><path fill="none" stroke="none" d=" M 113 5 L 570 5 L 570 570 L 113 570 L 113 5 Z"/></clipPath><clipPath id="tcHaREXTOHTO"><path fill="none" stroke="none" d=" M 113 5 L 570 5 L 570 570 L 113 570 L 113 5 Z"/></clipPath><clipPath id="kGRsoBXASdgG"><path fill="none" stroke="none" d=" M 113 5 L 570 5 L 570 570 L 113 570 L 113 5 Z"/></clipPath><clipPath id="oBJLFRpKrTnH"><path fill="none" stroke="none" d=" M 113 5 L 570 5 L 570 570 L 113 570 L 113 5 Z"/></clipPath><clipPath id="KRLfQQNDIOpz"><path fill="none" stroke="none" d=" M 113 5 L 570 5 L 570 570 L 113 570 L 113 5 Z"/></clipPath><clipPath id="KdTmdmJGCIXT"><path fill="none" stroke="none" d=" M 113 5 L 570 5 L 570 570 L 113 570 L 113 5 Z"/></clipPath><clipPath id="tcQPytPxDlDu"><path fill="none" stroke="none" d=" M 113 5 L 570 5 L 570 570 L 113 570 L 113 5 Z"/></clipPath><clipPath id="BDVQutcHFlpw"><path fill="none" stroke="none" d=" M 113 5 L 570 5 L 570 570 L 113 570 L 113 5 Z"/></clipPath></defs><g><g transform="scale(1,1) translate(0.5,0.5)"><rect fill="#FFFFFF" stroke="none" x="0" y="0" width="600" height="600"/><rect fill="#ffffff" stroke="none" x="0" y="0" width="600" height="600"/><rect fill="#FFFFFF" stroke="none" x="113" y="5" width="457" height="565"/><rect fill="#ffffff" stroke="none" x="113" y="5" width="457" height="565"/><g><rect fill="none" stroke="#e5e5e5" x="113" y="5" width="457" height="565" stroke-linejoin="bevel" stroke-miterlimit="10"/></g><g clip-path="url(#HEAmsOGicNGP)"><g><g><path fill="none" stroke="#e5e5e5" paint-order="fill stroke markers" d=" M 150 570 L 150 5" stroke-linejoin="bevel" stroke-miterlimit="10"/><path fill="none" stroke="#e5e5e5" paint-order="fill stroke markers" d=" M 286 570 L 286 5" stroke-linejoin="bevel" stroke-miterlimit="10"/><path fill="none" stroke="#e5e5e5" paint-order="fill stroke markers" d=" M 415 570 L 415 5" stroke-linejoin="bevel" stroke-miterlimit="10"/><path fill="none" stroke="#e5e5e5" paint-order="fill stroke markers" d=" M 536 570 L 536 5" stroke-linejoin="bevel" stroke-miterlimit="10"/></g></g></g><g clip-path="url(#tcHaREXTOHTO)"><g><g><path fill="none" stroke="#e5e5e5" paint-order="fill stroke markers" d=" M 113 537 L 570 537" stroke-linejoin="bevel" stroke-miterlimit="10"/><path fill="none" stroke="#e5e5e5" paint-order="fill stroke markers" d=" M 113 368 L 570 368" stroke-linejoin="bevel" stroke-miterlimit="10"/><path fill="none" stroke="#e5e5e5" paint-order="fill stroke markers" d=" M 113 199 L 570 199" stroke-linejoin="bevel" stroke-miterlimit="10"/><path fill="none" stroke="#e5e5e5" paint-order="fill stroke markers" d=" M 113 31 L 570 31" stroke-linejoin="bevel" stroke-miterlimit="10"/></g></g></g><g clip-path="url(#kGRsoBXASdgG)"><g><g fill="#444444"><path fill="" stroke="none" d=""/><g transform="translate(135.5018343411985,363.20439508142067) rotate(0,0,0)"><path fill="none" stroke="none"/><text fill="" stroke="none" font-family="helvetica" font-size="20pt" font-style="normal" font-weight="normal" text-decoration="normal" x="0" y="0" text-anchor="start" dominant-baseline="text-after-edge">Female mean: 0.9063(±0.03)</text></g></g><g fill="#444444"><path fill="" stroke="none" d=""/><g transform="translate(135.5018343411985,328.7500700100203) rotate(0,0,0)"><path fill="none" stroke="none"/><text fill="" stroke="none" font-family="helvetica" font-size="20pt" font-style="normal" font-weight="normal" text-decoration="normal" x="0" y="0" text-anchor="start" dominant-baseline="text-after-edge">Male mean: 0.9003(±0.03)</text></g></g></g></g><g clip-path="url(#oBJLFRpKrTnH)"><g><g><path fill="none" stroke="none"/><path fill="none" stroke="blue" paint-order="fill stroke markers" d=" M 147.95606801843746 30.71133560060298 L 229.18700799808823 30.80734937799855 L 233.75094628805016 30.903489075138054 L 234.92986538114133 30.99975502273685 L 259.66320785352696 31.09614755281484 L 269.1776079015906 31.192666998702975 L 284.70485369197627 31.289313695051078 L 289.8492988701774 31.38608797783411 L 290.1806320896116 31.482990184359096 L 295.34207875906543 31.58002065327321 L 296.49179892330176 31.677179724569214 L 299.31911058858304 31.774467739594456 L 302.0122036737406 31.871885041056203 L 304.61094640070934 31.969431973030623 L 305.72953219598185 32.06710888096882 L 313.0237062149563 32.16491611170477 L 313.5476615130253 32.2628540134624 L 313.76966337129863 32.36092293586353 L 314.7701120607906 32.45912322993479 L 317.5373903304544 32.55745524811516 L 317.61012245634754 32.655919344264476 L 318.00575642069634 32.75451587366979 L 318.32302131292533 32.85324519305368 L 321.6461715522909 32.95210766058233 L 322.9828319368545 33.051103635872664 L 329.0729477476726 33.15023348000068 L 330.05996226964544 33.24949755550904 L 332.95296364510807 33.34889622641526 L 333.9342644200228 33.44842985821958 L 333.96311518365354 33.548098817913 L 334.13081255576003 33.64790347398548 L 334.5237030180615 33.747844196434244 L 335.0869267126751 33.847921356771735 L 335.85380668527336 33.94813532803403 L 336.06328869170625 34.04848648478912 L 337.02058407128897 34.14897520314548 L 337.1251961128804 34.24960186076055 L 342.3082511532174 34.35036683684882 L 343.05208094008697 34.451270512190945 L 344.71051862987974 34.552313269141905 L 345.85321735975225 34.65349549164023 L 348.1817927623945 34.75481756521617 L 348.4581901567044 34.85627987700104 L 349.387850008171 34.957882815735616 L 350.17360763225406 35.05962677177945 L 351.0042601510831 35.161512137119644 L 351.20881328177154 35.26353930538028 L 351.83246290486795 35.3657086718307 L 352.31638391458284 35.46802063339578 L 353.2956913238366 35.570475588664294 L 355.78281328071114 35.673073937898835 L 356.42993998567965 35.77581608304479 L 359.21186673905163 35.878702427739995 L 359.3005008214849 35.98173337732419 L 359.465555320491 36.08490933884866 L 360.9146769703302 36.188230721085915 L 361.5673380013317 36.291697934539116 L 361.7654460685405 36.395311391452196 L 362.2949184464453 36.49907150581976 L 363.5153531226322 36.60297869339627 L 363.8314340361376 36.70703337170744 L 363.93419643213053 36.811235960058866 L 364.3532661052906 36.915586879546936 L 364.4319566344084 37.02008655306895 L 364.55265067937273 37.12473540533324 L 365.14354699407363 37.229533862869744 L 365.93811309781336 37.33448235404012 L 367.1143095974078 37.43958130904866 L 367.1795260091717 37.54483115995254 L 368.8535260302921 37.65023234067269 L 368.8808686197033 37.75578528700407 L 369.3836091571918 37.861490436627264 L 369.7925534636477 37.96734822911901 L 370.35080249617806 38.07335910596248 L 370.4895461710613 38.17952351055965 L 370.499868115233 38.28584188824141 L 370.5006270798449 38.39231468627895 L 370.6982527409877 38.498942353895586 L 371.56383655079543 38.605725342277424 L 371.8156794543773 38.71266410458509 L 372.5745268791769 38.81975909596565 L 372.88691007776976 38.92701077356344 L 373.64448641534375 39.03441959653264 L 373.67813707402746 39.14198602604847 L 373.9673300682315 39.249710525319074 L 374.0421989189012 39.357593559597944 L 374.4572665867433 39.46563559619574 L 375.1447857640044 39.5738371044921 L 377.0271903651853 39.682198555948275 L 377.2118330354664 39.79072042411951 L 378.075214523215 39.89940318466722 L 379.25656840157757 40.00824731537148 L 380.18309801676924 40.11725329614387 L 380.2233009652545 40.22642160903979 L 380.98022146927667 40.335752738271935 L 382.0331997730518 40.44524717022216 L 382.6349174497829 40.55490539345567 L 382.72368925415935 40.66472789873285 L 382.87254022584307 40.774715179023474 L 383.4009872048471 40.88486772951944 L 383.76468455856786 40.99518604764819 L 384.2782879385862 41.10567063308656 L 384.58060119750047 41.21632198777377 L 384.9804551125512 41.32714061592549 L 385.005189117552 41.43812702404762 L 385.0187625411864 41.549281720950034 L 385.08300896725893 41.6606052177608 L 385.19913047604945 41.77209802793982 L 386.13150436649863 41.883760667293814 L 387.26026866416436 41.995593653989545 L 387.4112299230556 42.107597508569484 L 387.53988550623876 42.21977275396546 L 388.1200999609191 42.33211991551366 L 388.3824426695705 42.444639520969076 L 388.7846319762227 42.557332100520966 L 389.3926729727808 42.67019818680728 L 389.68993444729836 42.78323831493026 L 389.7502850127419 42.89645302247084 L 390.17028607504716 43.00984284950516 L 390.61788979062624 43.12340833861913 L 390.9062648561843 43.23715003492407 L 390.9217581392152 43.35106848607302 L 391.1606119361648 43.465164242275705 L 391.16377041200974 43.579437856315394 L 391.6842566632929 43.69388988356411 L 392.02105724996983 43.80852088199947 L 392.1547109914501 43.923331412220705 L 392.52345787543425 44.03832203746515 L 392.80437443018127 44.15349332362473 L 392.9600733487605 44.268845839262895 L 393.20171594247927 44.384380155631334 L 393.4086243030839 44.500096846686915 L 393.4102770891042 44.61599648910885 L 393.93550095851384 44.73207966231598 L 394.29809820705003 44.848346948483936 L 394.6538793124122 44.9647989325631 L 394.9069016677547 45.08143620229555 L 395.0112557058805 45.198259348233705 L 395.3876407281437 45.31526896375772 L 395.4873189025488 45.432465645093544 L 395.7749196937419 45.5498499913316 L 395.9935977476492 45.66742260444448 L 396.09294889935626 45.78518408930631 L 396.5077150192179 45.90313505371046 L 396.7995360326851 46.021276108389316 L 397.15942143164926 46.13960786703251 L 397.60488542375674 46.258130946306665 L 398.23513359660024 46.37684596587383 L 398.4708126965424 46.49575354841204 L 398.588043348342 46.61485431963388 L 398.92486005310917 46.734148908306906 L 399.0309760861514 46.85363794627324 L 399.1612161754134 46.973322068469884 L 399.36083305314986 47.09320191294853 L 399.4606348427804 47.21327812089646 L 399.5499431968143 47.33355133665714 L 399.6797037081516 47.45402220775031 L 399.93216082981604 47.574691384893526 L 400.4071827643998 47.69555952202336 L 400.47443571796026 47.816627276315785 L 400.5722409870414 47.93789530820857 L 400.7561572839783 48.059364281422745 L 401.3781860326087 48.18103486298355 L 401.62476363713745 48.30290772324361 L 401.84481915988147 48.42498353590429 L 401.8735595146512 48.547262978038134 L 402.034618450904 48.66974673011191 L 402.2079384995802 48.79243547600845 L 402.4743283994151 48.91532990305063 L 402.5494506288558 49.03843070202356 L 402.87235782845886 49.16173856719831 L 402.8858237566101 49.28525419635537 L 403.0759839703493 49.408978290808136 L 403.7221989636732 49.53291155542718 L 404.33727684583863 49.657054698663956 L 404.3915535346528 49.78140843257552 L 404.6389967566749 49.90597347284847 L 404.7286975399318 50.03075053882412 L 404.8967273709863 50.15574035352347 L 405.13768772626065 50.28094364367166 L 405.60727689898675 50.40636113972448 L 405.88745921053294 50.5319935758929 L 405.9715818000727 50.65784169016911 L 406.06451641703876 50.78390622435279 L 406.17014643520696 50.91018792407738 L 406.42426564162207 51.03668753883619 L 406.54884974539067 51.163405822009395 L 406.68223969599313 51.29034353089082 L 406.78455472870513 51.41750142671481 L 406.8378761911704 51.54488027468449 L 407.00918336392346 51.6724808439983 L 407.28067922858577 51.80030390787863 L 407.3749036238546 51.928350243599766 L 407.69786471577635 52.05662063251589 L 408.3346921846315 52.18511586009038 L 408.35857343570655 52.31383671592391 L 408.8477847115704 52.44278399378413 L 409.1923177509101 52.57195849163486 L 409.27392957587335 52.7013610116652 L 409.47160589826683 52.830992360320465 L 409.69954613764685 52.96085334833185 L 409.7462352315042 53.09094479074611 L 409.86750301034004 53.221267506957474 L 409.88018130553843 53.35182232073805 L 409.8845068251819 53.48261006026871 L 409.9292530915366 53.61363155817128 L 410.21068668038527 53.744887651540125 L 410.71246675555767 53.87637918197379 L 410.92969606221305 54.008106995608046 L 411.0216804554955 54.140071943148314 L 411.1607680187649 54.27227487990217 L 411.3624520537973 54.40471666581345 L 411.4547168376988 54.53739816549523 L 411.6826050532568 54.67032024826358 L 411.7575691136688 54.80348378817246 L 411.91240743628094 54.936889664047385 L 412.0825831603371 55.07053875952056 L 412.4273655659224 55.20443196306633 L 412.7046133000081 55.3385701680362 L 412.72800125414767 55.472954272694324 L 413.01027615142135 55.607585180254546 L 413.0235325176155 55.74246379891588 L 413.0874300846751 55.877591041899564 L 413.5115804574014 56.01296782748682 L 413.7029282773745 56.1485950790551 L 413.7891411534108 56.28447372511664 L 414.26302955888445 56.420604699356545 L 414.59973777580814 56.55698894067132 L 414.646027489375 56.69362739320741 L 414.8402552817829 56.830521006400545 L 414.8735923106027 56.96767073501553 L 415.409298153856 57.10507753918614 L 415.87109313001577 57.2427423844548 L 415.9796844804397 57.380666241814765 L 416.4544496872851 57.51885008774957 L 416.50724475795596 57.65729490427543 L 416.527024000242 57.79600167898309 L 416.5432339261438 57.93497140507975 L 416.55959244841665 58.074205081431955 L 418.01740207008066 58.21370371260883 L 418.37717466721506 58.35346830892502 L 418.8282579197457 58.49349988648521 L 419.0086064494774 58.63379946722813 L 419.4154516609878 58.91520675545644 L 419.49431674358215 59.05631653639455 L 420.3901545263657 59.19769846751274 L 420.4642348502071 59.339353600599964 L 420.588339899869 59.4812829935546 L 420.8739336191166 59.62348771043139 L 420.95809074856265 59.76596882148965 L 421.51727712148846 59.90872740324119 L 421.93108635435533 60.05176453849958 L 422.0350830746726 60.19508131642914 L 422.11385627408777 60.33867883259467 L 422.25567074205264 60.48255818901197 L 422.564041816468 60.62672049419831 L 422.6511018909578 60.77116686322387 L 422.6866961799694 60.91589841776329 L 423.039197509285 61.0609162861482 L 423.115711318258 61.206221603419465 L 423.15396724579335 61.3518155113814 L 423.5462753345921 61.49769915865471 L 423.9835751269119 61.64387370073126 L 424.11504490006655 61.79034030002913 L 424.49029172740615 61.93710012594761 L 425.1475636623232 62.08415435492384 L 425.43598548598266 62.23150417048873 L 425.6292829377538 62.379150763324844 L 426.0127180991978 62.52709533132321 L 426.4071925987213 62.67533907964264 L 426.43295541600094 62.82388322076781 L 426.70004216325833 62.97272897456935 L 427.26431398088306 63.12187756836357 L 427.50880750389445 63.271330236973256 L 427.8238570849394 63.42108822278925 L 428.5341473585593 63.57115277583205 L 428.95480082130535 63.72152515381464 L 428.9574629342406 63.872206622205795 L 429.0941138289254 64.02319845429389 L 429.1798861195394 64.17450193125126 L 429.3021799134469 64.32611834219972 L 429.3987385092922 64.47804898427648 L 429.42816365774536 64.63029516270046 L 429.47429678323283 64.7828581908397 L 429.98169866458505 64.9357393902796 L 430.17268391177 65.08894009089101 L 430.23047887936224 65.24246163090032 L 430.2452599623016 65.39630535695909 L 430.3018706106855 65.55047262421522 L 430.4171568166224 65.7049647963845 L 430.43267566189604 65.85978324582277 L 430.91326341544993 66.01492935359948 L 431.6089877301884 66.1704045095712 L 431.7032315400867 66.32621011245658 L 431.79983472880673 66.48234756991195 L 432.32413739442836 66.63881829860713 L 432.35765906598147 66.79562372430325 L 432.7824697008407 66.95276528193 L 432.9250888407628 67.11024441566491 L 433.0424549458011 67.26806257901285 L 433.59052517038765 67.4262212348865 L 433.59760950150053 67.58472185568763 L 433.7050524520294 67.7435659233895 L 433.9873608865261 67.9027549296199 L 434.04697611433954 68.06229037574542 L 434.05745288454483 68.2221737729559 L 434.1198698129772 68.38240664235087 L 434.2079588399644 68.5429905150259 L 434.21592652135564 68.70392693216098 L 434.33632360131827 68.86521744510867 L 434.3667169424268 69.02686361548416 L 434.36907757307574 69.18886701525605 L 434.5118911140526 69.35122922683746 L 434.54183949670556 69.51395184317983 L 434.8699178080155 69.67703646786572 L 434.9302471395576 69.84048471520418 L 435.0691901971322 70.00429821032634 L 435.25133713665815 70.16847858928253 L 435.5992188843028 70.33302749914037 L 435.84914730031994 70.49794659808373 L 436.044647144342 70.66323755551309 L 436.2051919893642 70.82890205214682 L 436.75676556660204 70.99494178012401 L 436.75720771451876 71.16135844310787 L 437.05593243763917 71.32815375639075 L 437.0669846379517 71.49532944700013 L 437.19400735767795 71.66288725380616 L 437.213752704084 71.8308289276298 L 437.3241171541629 71.99915623135297 L 438.0798721960842 72.16787094002933 L 438.5399774814624 72.33697484099667 L 438.80710166375104 72.50646973399057 L 438.9812895794104 72.67635743125908 L 439.0575569608016 72.84663975767944 L 439.09259786277084 73.0173185508753 L 439.15207780674587 73.18839566133602 L 439.78505888110277 73.35987295253653 L 440.0958903501202 73.53175230105984 L 440.1578454611636 73.70403559671945 L 440.39417160074805 73.87672474268498 L 440.8905815655305 74.04982165560739 L 441.2025839852471 74.22332826574717 L 441.20817344972824 74.3972465171035 L 441.2608314063131 74.5715783675443 L 441.771461326754 74.74632578893949 L 441.8069010904407 74.92149076729407 L 441.91865768074024 75.0970753028837 L 442.154357634356 75.27308141039191 L 442.2902083848396 75.44951111904862 L 442.673751294606 75.62636647277077 L 443.0660469348658 75.80364953030397 L 443.1443802738853 75.98136236536686 L 443.8993560247052 76.15950706679621 L 444.9216514029338 76.33808573869419 L 445.4518573880096 76.5171005005779 L 445.83735649129665 76.6965534875302 L 445.88946572858345 76.87644685035195 L 445.96021492794597 77.05678275571745 L 446.1495534873169 77.23756338633063 L 446.1731829939755 77.41879094108356 L 446.2018022500657 77.60046763521711 L 446.6052215946422 77.782595700483 L 446.6100639478966 77.96517738530889 L 446.61505302821456 78.14821495496454 L 446.89104930366216 78.33171069173045 L 447.25180352621436 78.51566689506882 L 447.6318605126474 78.70008588179621 L 447.95099418780677 78.88496998625862 L 448.04396854351944 79.07032156050934 L 448.68632503007825 79.25614297448743 L 448.70655605666434 79.44243661620067 L 448.7876249373461 79.62920489190878 L 448.79099663576073 79.8164502263104 L 449.36235314768606 80.00417506273203 L 449.3885869131706 80.19238186331904 L 449.6157379970809 80.3810731092293 L 449.76505900740835 80.5702513008302 L 449.8698269038677 80.7599189578965 L 449.9463117100319 80.95007861981242 L 449.97034088183165 81.14073284577518 L 450.205197855107 81.33188421500193 L 450.75481080920747 81.52353532693894 L 450.88223384862863 81.71568880147396 L 451.24571596370345 81.90834727915075 L 451.3400183972086 82.10151342138704 L 451.34528984502055 82.29518991069506 L 451.4349025658659 82.48937945090518 L 451.6268550445773 82.68408476739211 L 452.2633581263652 82.87930860730467 L 452.2980473406687 83.07505373979825 L 452.3183922425403 83.27132295627058 L 452.34854334107695 83.46811907060038 L 452.6970079911796 83.66544491938959 L 452.71559320596845 83.86330336220857 L 452.9838178101068 84.061697281845 L 453.8491470036389 84.26062958455549 L 454.555500113867 84.46010320032144 L 454.5851825570602 84.66012108310764 L 454.59278587844375 84.86068621112503 L 455.14936685847704 85.06180158709645 L 455.17465607417466 85.46569521797608 L 455.1771411262556 85.66847960333695 L 455.69236462939085 85.87182649811535 L 456.35474654616314 86.07573903171618 L 456.5141391223292 86.28022035973169 L 456.8889812256951 86.48527366423474 L 457.3715385361008 86.69090215407584 L 457.50150750625477 86.89710906518462 L 457.5667812207136 87.10389766087508 L 457.594087558888 87.31127123215566 L 457.85895642146636 87.5192330980434 L 458.31955530686076 87.72778660588278 L 458.32714600324806 87.93693513166914 L 458.7352541585207 88.14668208037602 L 459.0161868346991 88.3570308862885 L 459.2149346105117 88.56798501333998 L 459.2626489708441 88.77954795545486 L 459.3021912968484 88.99172323689561 L 459.39834482475277 89.20451441261491 L 459.81048897668546 89.41792506861333 L 460.0014356331611 89.6319588223015 L 460.2326212899689 89.84661932286849 L 460.37205047801734 90.06191025165504 L 460.5810322119866 90.27783532253164 L 460.7299180186226 90.49439828228418 L 460.733563482719 90.71160291100313 L 460.7897028830021 90.92945302247972 L 461.27623420573326 91.14795246460784 L 461.30101721908767 91.36710511979152 L 461.49475265051734 91.58691490535932 L 461.6027649277664 91.80738577398415 L 461.6381848275331 92.02852171410967 L 461.9563558481092 92.25032675038352 L 462.0410286809613 92.47280494409671 L 462.2467951419321 92.6959603936296 L 462.29065651921974 92.91979723490545 L 462.66541052248465 93.1443196418495 L 462.6747348641004 93.36953182685687 L 463.182707316404 93.59543804126605 L 463.47473584781375 93.82204257584112 L 463.5548367923433 94.04934976126009 L 463.7544941726456 94.27736396861167 L 464.07076408533544 94.50608960990002 L 464.1284217582669 94.73553113855667 L 465.1760485971338 94.96569304996058 L 465.66221324676764 95.1965798819673 L 465.92118649208413 95.42819621544476 L 465.9817062739631 95.6605466748199 L 466.06826418696426 95.89363592863151 L 466.31831781466485 96.12746869009368 L 466.53561931175796 96.36204971766745 L 467.23319836307826 96.59738381564216 L 467.28001580189596 96.83347583472516 L 467.5424371143492 97.07033067264251 L 467.92416542667667 97.307953274748 L 468.2729845587816 97.54634863464281 L 468.2892614626374 97.78552179480573 L 468.3315517956493 98.02547784723237 L 468.4937300240858 98.26622193408622 L 468.5236648690642 98.50775924835926 L 468.5304946079225 98.75009503454453 L 468.54909464254735 98.99323458931946 L 468.5502571395996 99.2371832622402 L 468.5614461429766 99.48194645644776 L 468.6606916173168 99.7275296293866 L 469.1166123051543 99.97393829353427 L 469.1446502968789 100.22117801714404 L 469.18590763820225 100.46925442499992 L 469.8049673390227 100.71817319918432 L 470.0122023912991 100.96794007985932 L 470.0463282651335 101.21856086606044 L 470.08742384238724 101.4700414165049 L 470.10121900901936 101.72238765041328 L 470.2092540169331 101.97560554834536 L 470.4135479589318 102.22970115305077 L 470.44345724040204 102.48468057033415 L 470.7847723509419 102.74054996993567 L 470.9853851149406 102.99731558642628 L 471.15375827059717 103.2549837201201 L 471.1562257144269 103.5135607380011 L 471.8606426931192 103.77305307466764 L 472.2200221543016 104.03346723329338 L 472.3028584410135 104.29480978660456 L 472.49303668092034 104.55708737787603 L 472.5172611286564 104.82030672194401 L 473.4824001279018 105.08447460623808 L 473.92690624283836 105.34959789183102 L 473.95039042179434 105.6156835145083 L 473.974889087663 105.88273848585646 L 474.26102532393 106.15076989437205 L 474.732621242707 106.41978490659045 L 474.79681672133626 106.68979076823553 L 474.8576775583412 106.96079480539089 L 474.9391125761112 107.2328044256925 L 475.14964174726157 107.50582711954331 L 475.3776806875476 107.77987046135149 L 475.3866626879818 108.05494211079076 L 475.9052398996031 108.60820140531894 L 475.97041571997823 108.88640480776792 L 476.08193440588093 109.16566803526092 L 476.1500015331809 109.44599919356403 L 476.16868342666544 109.72740648179229 L 476.1691178874567 110.00989819384853 L 476.4868310541808 110.29348271989056 L 476.79132435141764 110.5781685478255 L 477.24140078091955 110.86396426483554 L 477.92683773043035 111.15087855893051 L 478.54436241156975 111.43892022053427 L 478.828615586056 111.72809814409919 L 479.3490022667351 112.60254002636498 L 479.6345996533704 112.89635408125974 L 479.73957468347385 113.19135048966064 L 479.8150495672162 113.48753880597849 L 479.87461799203567 113.78492870090525 L 479.95890750673584 114.08352996330916 L 480.1433791861954 114.3833525021679 L 480.429020182297 114.68440634854176 L 480.63585595017156 114.9867016575871 L 480.9727363481507 115.29024871061239 L 481.1760541307467 115.59505791717561 L 481.234141547084 115.90113981722698 L 481.7936978833158 116.208505083295 L 481.8202780380512 116.51716452272046 L 482.0509632406578 116.82712907993533 L 482.150192483568 117.13840983879254 L 482.1878897810268 117.4510180249431 L 482.4055395879918 117.7649650082659 L 482.60800575007784 118.08026230534881 L 482.7928376725589 118.39692158202348 L 482.7978914569101 118.71495465595586 L 482.91961202929156 119.0343734992918 L 483.1477301011551 119.35519024136175 L 483.18873114745503 119.67741717144457 L 483.3795782849255 120.00106674159196 L 483.4059953332174 120.32615156951573 L 483.5034325801898 120.65268444154003 L 483.60057691819713 120.98067831561843 L 484.278738139202 121.31014632441963 L 484.3443930216461 121.64110177848278 L 484.80623173165236 121.97355816944383 L 484.81373348270415 122.30752917333604 L 485.27432187526375 122.6430286539657 L 485.4791257252743 122.98007066636524 L 485.8925707034699 123.31866946032648 L 485.98196979941474 123.65883948401535 L 486.44130971034 124.00059538767192 L 487.13057591916794 124.34395202739574 L 487.15651656654245 124.68892446902089 L 487.15925472851467 125.03552799208313 L 487.2363542354625 125.38377809388021 L 487.2461536094851 125.73369049362998 L 487.777273395401 126.08528113672782 L 487.8592500463212 126.43856619910667 L 488.1959136460441 126.79356209170282 L 488.3311699264015 127.1502854650301 L 488.6012260023476 127.50875321386604 L 488.8306401471201 127.86898248205335 L 488.8637614095748 128.23099066741952 L 488.93878646394097 128.5947954268189 L 489.3721835230557 128.9604146813005 L 489.49930707055347 129.32786662140467 L 490.33054370818917 129.6971697125946 L 490.3339975566105 130.06834270082334 L 490.41415413081927 130.44140461824463 L 490.45545451699695 130.81637478906794 L 490.50510031803424 131.1932728355652 L 490.6993559534992 131.57211868423246 L 490.73619068366315 131.95293257211108 L 490.7384928342508 132.3357350532749 L 490.86496360835366 132.7205470054866 L 490.921794004637 133.1073896370309 L 491.27367883555365 133.49628449372796 L 491.6439184238166 133.8872534661342 L 491.66275959996165 134.28031879693634 L 491.8816508460364 134.67550308854453 L 492.7148820185066 135.07282931089134 L 492.82284156664036 135.47232080944343 L 493.0193405079445 135.8740013134323 L 493.0478005247481 136.27789494431198 L 493.235800065603 136.6840262244512 L 493.2572149175775 137.50310188041175 L 493.6949530062475 137.91609738721093 L 493.7146391568762 138.33143282437925 L 493.7221112272905 138.74913485800505 L 493.8929562124584 139.16923061262435 L 494.18087749339327 139.59174768179076 L 494.1860493946799 140.01671413895087 L 494.18633672218016 141.74165274881568 L 494.19912275874736 142.17930484612742 L 494.2462437036028 142.61958550032006 L 494.8065911461267 143.06252647671943 L 495.03221326790987 143.5081601199655 L 495.0398245676594 143.9565193681854 L 495.9799808186267 144.40763776760195 L 496.1997437676356 144.86154948759588 L 496.45349945606847 145.31828933623586 L 496.54290993301294 145.77789277629648 L 496.56113603032117 146.24039594178072 L 497.6442470119792 146.70583565496736 L 498.02548573779546 147.1742494440034 L 498.0262028302092 147.64567556106118 L 498.48136692115065 148.12015300108385 L 498.49914713800644 148.59772152114164 L 498.7318542640509 149.07842166042207 L 498.7655467675559 149.56229476088043 L 498.7675539645867 150.04938298857604 L 499.01514230475203 150.5397293557225 L 499.42137466447514 151.03337774347995 L 499.8602065689928 151.53037292552028 L 499.9844454969113 152.03076059239635 L 500.04606087156844 152.5345873767492 L 500.49651823595985 153.04190087938673 L 500.91207963230494 153.55274969627158 L 502.01686135107 154.067183446456 L 502.6250828260193 154.5852528010036 L 502.86652214491164 155.10700951294046 L 503.46678786464656 155.63250644827986 L 503.5244449981727 156.16179761816693 L 503.76249749860716 156.69493821219237 L 503.87207328672116 157.2319846329263 L 504.09707313471955 158.31802684587922 L 504.0973591977453 159.42040113165484 L 504.11066108822257 159.97786776159688 L 504.124678048898 160.53960620812825 L 504.18875446999454 161.1056824462264 L 504.5693135954047 161.6761639911714 L 504.7715085722936 162.25111994687012 L 505.5821077148165 162.83062105609122 L 505.59239915738135 163.41473975270088 L 505.94585301364884 164.00355021599654 L 506.61387616434706 164.59712842724122 L 506.88902966355084 165.19555222850374 L 507.19757295210565 165.79890138392307 L 507.7238557472237 166.4072576435115 L 507.725854958384 167.02070480963084 L 507.81510364455323 167.63932880627124 L 508.1163810283975 168.263217751279 L 508.1196648721265 168.89246203168466 L 508.1366551173838 169.52715438229177 L 508.14422216005846 170.16738996769766 L 508.54766568836516 170.8132664679278 L 508.6571511349869 171.46488416787594 L 508.75849536000237 172.1223460507556 L 509.27156956144074 172.78575789577968 L 509.44737221397287 173.4552283803016 L 510.527571648107 174.13086918666227 L 510.6589234087517 174.81279511400788 L 510.73793043313407 175.50112419535685 L 510.94228048358104 176.19597782021611 L 511.08686866486255 176.89748086306366 L 511.13021478825306 177.6057618180388 L 511.3234085579793 178.32095294020195 L 511.37145490910433 179.04319039375537 L 511.50418296159427 179.77261440763635 L 511.82050317872074 180.50936943893043 L 511.9214197733193 181.25360434458054 L 512.0009525400816 182.00547256190112 L 512.0159180686152 182.76513229844704 L 512.0632369887676 183.53274673182256 L 512.2366836667959 184.30848422006392 L 512.8311749600521 185.09251852327225 L 512.9507097058083 185.88502903722724 L 513.005844567253 186.6862010397682 L 513.4680978734161 187.4962259507871 L 513.5333327478553 188.3153016067476 L 513.6535422723719 189.1436325507151 L 513.6539695459423 190.82891386528667 L 513.9163001804709 191.68630970432673 L 514.2032337474016 192.55385247515153 L 514.2506490177697 193.4317852266559 L 514.4330389746374 194.32035984630153 L 514.8158531184506 195.21983749393797 L 515.3839037082994 196.13048906257188 L 515.5486983288134 197.05259566811657 L 515.5770167402079 197.9864491703393 L 515.7844844674229 198.93235272741975 L 515.9274809058434 199.89062138675803 L 516.607905446052 200.861582714912 L 516.6170086218972 201.8455774698158 L 516.6235515067578 202.84296031873225 L 516.6271074144527 203.85410060572258 L 516.6899749333314 204.87938317279185 L 516.8218203296165 205.9192092392763 L 517.007272604746 206.97399734450278 L 517.3595044536085 208.0441843592622 L 517.6492686733575 209.13022657221512 L 517.6613532192482 210.2326008579907 L 517.6707364688832 211.35180593446415 L 517.7030088616873 212.48836371750724 L 517.877442362786 213.64282078242718 L 518.1534944457993 214.8157499423325 L 518.2534163718444 216.0077519548397 L 518.3649882364407 217.21945736984736 L 518.5253009114476 218.4515285326072 L 518.9925300591879 219.70466175802056 L 519.2631886369196 220.97958969403368 L 519.3606461576703 222.2770838942119 L 519.8585227813878 223.5979576221156 L 520.237715702521 224.94306891299829 L 520.4820979038334 226.3133239216927 L 520.5187316433337 227.70968058939962 L 520.7302869052787 229.1331526665379 L 521.3320456162821 230.58481413397226 L 521.8631174685959 232.0658040709165 L 521.9794766857135 233.5773320247829 L 522.1832327035431 235.12068394639982 L 522.3936382256155 236.69722876356315 L 522.3971850143189 241.64111359162257 L 523.2170523325806 243.36605220148738 L 523.4738731033976 245.13255957263732 L 524.3253834292161 246.94268878890767 L 524.3748535483126 248.7986488966751 L 524.6039044315803 250.70282111309388 L 524.6094319799746 252.6577771961517 L 524.6097154436284 254.66630033205837 L 524.6431639037155 256.7314089656124 L 525.3315813659119 258.8563840855983 L 526.3170767935092 261.04480058432677 L 526.320617395007 263.30056344384326 L 527.5318837610919 265.6279496686684 L 529.3189195624399 268.0316570961834 L 529.4678457963621 270.5168614843565 L 530.0466267870177 273.08928362054775 L 531.1159824631491 275.75526863933413 L 533.8082498634624 278.5218803157355 L 533.809237933058 284.3895317511188 L 533.8165778650234 287.50942848989905 L 534.1595517967215 290.7680320033869 L 535.0078698118411 294.17825192782334 L 535.6864911681995 297.7548885152436 L 535.8001624213014 301.5150208394297 L 535.837534468101 305.47850005839433 L 535.9785554620452 309.66858381193396 L 536.9048433823936 314.11276317017894 L 536.9237317356734 318.84385682251906 L 537.6145980506649 323.9014833468834 L 538.2197419259845 329.33408004207115 L 538.4685151632327 335.2017314774545 L 538.5573963181557 341.5802317297231 L 538.7072608588893 348.56708824157977 L 540.0035099988838 356.2906997847306 L 540.1819919324787 364.92496289651524 L 542.1544834905687 374.71368307321984 L 542.2449064632469 386.0139312037909 L 542.6393218246287 399.3792879679157 L 542.7861025931381 415.7371626228511 L 544.4141074450879 436.82613093012674 L 545.66592999252 466.54936234918705 L 545.7024362843705 517.3615620755229" stroke-linejoin="bevel" stroke-miterlimit="10"/><path fill="none" stroke="none"/><path fill="none" stroke="blue" paint-order="fill stroke markers" d=" M 549.2272727272727 NaN" stroke-linejoin="bevel" stroke-miterlimit="10"/></g></g></g><g clip-path="url(#KRLfQQNDIOpz)"><g><g><path fill="none" stroke="none"/><path fill="none" stroke="red" paint-order="fill stroke markers" d=" M 133.77272727272722 30.68181818181813 L 144.61458388975322 30.748249095799565 L 162.899013436474 30.81474026458659 L 211.8450868505385 30.88129179758414 L 268.6657569217411 30.947903804495468 L 272.4512987646624 31.01457639532316 L 273.819437002205 31.081309680370282 L 277.51737089610094 31.14810377024139 L 283.6811447500895 31.21495877584357 L 286.9443451015694 31.28187480838767 L 287.7851541528772 31.34885197938945 L 288.20418109082675 31.415890400670378 L 293.15650697005856 31.482990184359096 L 297.6034567802609 31.550151442892798 L 301.17983310217414 31.617374289017334 L 302.5506229435039 31.68465883578949 L 307.23822509583135 31.752005196577556 L 309.5176153365244 31.81941348506234 L 309.9179512867627 31.88688381523889 L 312.50975321681165 31.954416301416927 L 314.9327129275754 32.02201105822269 L 320.14727945846573 32.08966820059959 L 323.130732258792 32.15738784380983 L 323.8425020464599 32.22517010343506 L 325.8084623523092 32.293015095377996 L 326.24925445905 32.36092293586353 L 327.6299053049995 32.42889374143954 L 328.84100986167346 32.496927628978824 L 329.2436387393631 32.565024715679556 L 329.65222401672105 32.63318511906698 L 330.01591526476534 32.70140895699444 L 332.43366843861287 32.76969634764441 L 332.76557427943624 32.83804740953042 L 333.9182189152548 32.90646226149738 L 335.84579079747596 32.974941022723556 L 336.42995080339915 33.04348381272132 L 336.7358420952207 33.112090751338656 L 338.2819206517536 33.18076195876017 L 338.7096500951682 33.24949755550904 L 339.18763148517434 33.31829766244732 L 339.96957759998816 33.38716240077781 L 342.7711758146978 33.45609189204538 L 344.8358078941758 33.525086258137776 L 345.39522520624064 33.59414562128745 L 346.19910532326264 33.66327010407247 L 346.4183651944711 33.7324598294183 L 346.6230293511862 33.80171492059833 L 348.0177471734623 33.87103550123618 L 348.46432171565004 33.9404216953061 L 348.9074358418808 34.009873627134766 L 350.19964675696804 34.07939142140276 L 350.90748900847416 34.14897520314548 L 351.201770594268 34.218625097754966 L 351.3046528785942 34.288341230980905 L 351.8376669108831 34.35812372893179 L 351.8492993513395 34.42797271807717 L 352.5688629929665 34.49788832524803 L 352.97996064333825 34.567870677638666 L 353.1090729300903 34.637919902808335 L 353.47571749678883 34.708036128681556 L 353.69916237980465 34.7782194835512 L 356.2955191781814 34.84847009607836 L 356.99411417098327 34.9187880952943 L 357.5894438141928 34.98917361060262 L 360.10643761324195 35.05962677177945 L 361.03312113326353 35.130147708975414 L 361.31845903919805 35.20073655271756 L 361.93153860321183 35.27139343390991 L 362.2725231490148 35.34211848383575 L 364.4112568783708 35.41291183415831 L 365.51568779071476 35.48377361692292 L 365.5710624289864 35.55470396455826 L 366.0266343726156 35.62570300987761 L 366.4276741923384 35.69677088608057 L 367.7255061836288 35.767907726754515 L 368.36510095457413 35.83911366587597 L 368.3839410908017 35.91038883781266 L 368.718479139763 35.98173337732419 L 369.30114311927656 36.0531474195642 L 370.49668046106365 36.12463110008173 L 370.60354030721606 36.196184554822594 L 371.88212486403137 36.267807920131304 L 372.3124554381546 36.33950133275209 L 372.551475524686 36.41126492983119 L 372.59894285862237 36.48309884891762 L 372.8506697878084 36.55500322796547 L 374.6171206854726 36.626978205335035 L 375.0381416589365 36.699023919794286 L 375.70973331147883 36.77114051052138 L 375.75849692311846 36.84332811710499 L 377.3257893416099 36.915586879546936 L 377.3864728782748 36.98791693826331 L 377.4494246408684 37.0603184340863 L 377.8162046462482 37.13279150826588 L 378.83285880993583 37.205336302471096 L 379.46824205297366 37.27795295879241 L 381.470897338847 37.35064161974253 L 382.0902830471955 37.42340242825878 L 382.122297370499 37.49623552770436 L 382.3297753715807 37.56914106187048 L 382.5278733143466 37.642119174977665 L 382.62676476131423 37.7151700116774 L 382.78407623253014 37.788293717054216 L 383.1404773185941 37.861490436627264 L 383.47916446565296 37.934760316352026 L 383.5985380084662 38.00810350262202 L 383.65135613646254 38.081520142270506 L 383.86035283878346 38.155010382572755 L 385.1353397925651 38.22857437124674 L 385.29986479438446 38.3022122564563 L 385.3633492231772 38.37592418681186 L 385.6169674542487 38.449710311372314 L 386.0047278617931 38.5235707796478 L 386.1307506628729 38.597505741600344 L 386.9578636626473 38.671515347646164 L 387.0924215860023 38.745599748657924 L 387.16640240886704 38.81975909596565 L 387.8721865696923 38.893993541359464 L 387.8858933098536 38.96830323709082 L 388.0773270633063 39.04268833587503 L 389.0845331189502 39.11714899089236 L 389.1336095151677 39.19168535579058 L 389.2260388358117 39.26629758468653 L 389.2281463004207 39.340985832168144 L 389.9802344083051 39.41575025329632 L 390.0339561052234 39.49059100360671 L 390.1776590937325 39.56550823911232 L 390.95545190054116 39.64050211630422 L 391.06690846659427 39.71557279215506 L 392.81158851803286 39.79072042411951 L 393.0326590223996 39.86594517013759 L 393.3452165033077 39.94124718863566 L 393.74156101667415 40.016626638528805 L 393.76664946528103 40.09208367922304 L 393.88367511480146 40.167618470616844 L 394.54350158583975 40.24323117310382 L 394.65357897221315 40.31892194757427 L 395.45984779886066 40.394690955417104 L 395.79188038641246 40.47053835852273 L 396.02061209077283 40.54646431928404 L 396.2328134687695 40.622469000599494 L 396.23926623774855 40.698552565874365 L 396.52346982059186 40.774715179023474 L 396.8419932072291 40.850957004473 L 396.93080562136254 40.92727820716277 L 397.0601174211728 41.00367895254817 L 397.2852702094953 41.08015940660255 L 397.3049193825368 41.15671973581925 L 397.47140548007854 41.233360107214025 L 397.7271101033058 41.31008068832648 L 397.7409068274757 41.38688164722328 L 398.0765010483941 41.46376315249972 L 398.2721662370416 41.54072537328216 L 398.28940794643756 41.61776847922988 L 398.3612219912255 41.69489264053823 L 398.4094965309831 41.77209802793982 L 398.6453072489954 41.84938481270751 L 398.6670431642883 41.926753166656226 L 398.68668025870915 42.00420326214578 L 398.91571705307285 42.0817352720826 L 398.94854174909136 42.15934936992244 L 399.08987731464174 42.23704572967256 L 399.9168793654119 42.314824525894096 L 399.93680517585733 42.39268593370457 L 400.4209630435631 42.47063012877959 L 400.48162522419835 42.54865728735638 L 400.5100834606632 42.62676758623502 L 400.5722409870414 42.70496120278153 L 400.736088973446 42.78323831493026 L 401.21887682400984 42.8615991011859 L 401.8036539489525 42.940043740626265 L 401.9704058163538 43.01857241290486 L 402.36119137855775 43.097185298253066 L 402.36268793717284 43.17588257748241 L 402.4197060780343 43.25466443198786 L 402.44604467821017 43.333531043749645 L 402.47537593780834 43.41248259533586 L 402.7200376002074 43.49151926990521 L 402.87280669403066 43.57064125120951 L 403.1124881026265 43.64984872359605 L 403.5285035557233 43.72914187201059 L 403.56380373131503 43.80852088199947 L 403.61869739424566 43.88798593971251 L 403.7218998330584 43.96753723190557 L 403.9239534926101 44.04717494594297 L 404.0737994697535 44.126899269800674 L 404.43132570297337 44.206710392068544 L 404.60640458523875 44.28660850195263 L 404.66605687011827 44.36659378927891 L 404.68908013548423 44.44666644449512 L 404.69087414625557 44.526826658673826 L 405.06519306635346 44.60707462351502 L 405.6246118584798 44.68741053134886 L 405.71890571843517 44.76783457513886 L 406.25231628299986 44.848346948483936 L 406.3014673557536 44.928947845621906 L 406.3303001595236 45.009637461431794 L 406.3724282542606 45.09041599143666 L 406.4021564699154 45.17128363180723 L 406.4571302245894 45.252240579363615 L 406.82279097578987 45.33328703157906 L 407.0036575299285 45.41442318658221 L 407.028449003199 45.49564924316053 L 407.09520540571907 45.5769654007629 L 407.1173077597073 45.658371859502836 L 407.28306848552813 45.739868820161064 L 407.41298050736674 45.82145648418873 L 407.9229992213179 45.90313505371046 L 408.01645028924844 45.984904731527195 L 408.30275061457763 46.06676572111917 L 408.6585600335374 46.148718226649294 L 408.85599204604335 46.23076245296579 L 408.95044884686837 46.3128986056056 L 409.45400222168746 46.39512689079697 L 409.6539002710392 46.47744751546338 L 409.68134756994544 46.55986068722598 L 409.7972490429227 46.6423666144068 L 410.13552185844355 46.72496550603216 L 410.2873402783999 46.80765757183599 L 410.386657977657 46.890443022262616 L 410.6298634165304 46.973322068469884 L 410.6996440536474 47.05629492233288 L 410.736322750463 47.13936179644702 L 410.8105729137624 47.2225229041311 L 411.0668513154747 47.30577845943094 L 411.07609408580856 47.38912867712202 L 411.0875729573299 47.47257377271376 L 411.26094150939684 47.55611396245206 L 411.2731647546437 47.63974946332314 L 411.4269930842904 47.72348049305663 L 411.5047975897543 47.80730727012917 L 411.6961673250237 47.891230013767654 L 411.8121139555945 47.975248943952806 L 411.9042112573782 48.059364281422745 L 411.9262663616867 48.14357624767604 L 411.99064218485995 48.22788506497568 L 412.22637309192146 48.3122909563524 L 412.25274599791874 48.396794145608055 L 412.64919628410024 48.48139485731963 L 412.7350026962608 48.5660933168424 L 413.00014763915595 48.65088975031347 L 413.1659218119021 48.73578438465597 L 413.7356865819015 48.82077744758203 L 413.8232382520516 48.90586916759696 L 414.2764274013406 48.99105977400245 L 414.29816150920493 49.07634949690089 L 414.51965878497265 49.16173856719831 L 414.7272926543001 49.24722721660919 L 414.99071446843396 49.33281567765903 L 415.10485433201393 49.41850418368904 L 415.1951799451245 49.504292968859545 L 415.31912994261927 49.59018226815408 L 415.48041838195445 49.67617231738279 L 415.81783682388584 49.762263353186995 L 415.99366709488976 49.848455613042574 L 416.17409451674325 49.93474933526386 L 416.238051295605 50.02114475900805 L 416.4013559286743 50.107642124278755 L 416.56375641689004 50.1942416719304 L 416.6746935928467 50.28094364367166 L 417.16819355264425 50.36774828207024 L 417.17235639352356 50.454655830556135 L 417.2805875496613 50.54166653342645 L 417.4817230914913 50.62878063584924 L 417.51085875030867 50.71599838386726 L 417.7387281934047 50.80332002440309 L 417.97727516173234 50.890745805262554 L 418.0374652555538 50.97827597513867 L 418.0685256856657 51.06591078361703 L 418.61297948082847 51.153650481179056 L 419.08971400207776 51.241495319206706 L 419.1728981945848 51.329445549986644 L 419.52535704337 51.41750142671481 L 419.8548924465041 51.50566320350083 L 420.2636630378721 51.59393113537169 L 420.59041815574693 51.68230547827716 L 420.6827501558373 51.77078648909378 L 420.75607865551115 51.8593744256292 L 420.76394574107724 51.94806954662704 L 420.8061009756631 52.036872111771004 L 420.88684682251653 52.12578238168999 L 420.94042840247204 52.21480061796183 L 421.29661695483827 52.30392708311922 L 421.41385000355314 52.39316204065278 L 421.466825463529 52.4825057550172 L 421.4706835714889 52.57195849163486 L 421.61743514474654 52.661520516900964 L 421.7307938031902 52.75119209818865 L 421.8309423103474 52.84097350385309 L 421.9886486145399 52.930865003237045 L 422.0488797101949 53.020866866674965 L 422.0803297885183 53.110979365498224 L 422.24187537610436 53.20120277204035 L 422.56255865139616 53.29153735964155 L 422.5647833986369 53.472541176445134 L 422.7034549624904 53.56321095740668 L 422.88482741792154 53.65399302295509 L 422.9463691193294 53.744887651540125 L 423.11793551792346 53.83589512264757 L 423.2436733588929 53.927015716805954 L 423.52759555000665 54.01824971559131 L 423.6224753868146 54.10959740163196 L 423.74373784621747 54.20105905861419 L 423.8111854041104 54.29263497128761 L 424.1750708182825 54.384325425470024 L 424.2327238325767 54.47613070805346 L 424.46658130228764 54.56805110700884 L 424.5024432233163 54.66008691139177 L 424.6934501769372 54.75223841134812 L 424.7144910673466 54.84450589811922 L 425.3158512586999 54.936889664047385 L 425.5892917256996 55.029390002581636 L 425.7639147871385 55.12200720828366 L 425.8370776679216 55.21474157683224 L 426.18849288055253 55.307593405030616 L 426.3398229161024 55.4005629908105 L 426.58190016714286 55.49365063323887 L 426.7682892829492 55.58685663252356 L 426.86747337566385 55.68018129001905 L 426.9857483841324 55.77362490823168 L 427.076633835379 55.86718779082673 L 427.1621871391775 55.960870242633405 L 427.30116731018177 56.054672569651075 L 427.5899048068837 56.1485950790551 L 427.61047464286355 56.24263807920329 L 427.665967865476 56.33680187964194 L 428.9537655543122 56.431086791111284 L 429.1025433197915 56.6200211961127 L 429.4141165243881 56.71467131715326 L 429.43038161814314 56.80944380425376 L 429.5174717991214 56.90433897421963 L 429.7074615838709 56.99935714508831 L 430.1604152235504 57.09449863613554 L 430.807755721646 57.18976376788157 L 430.8155876954622 57.28515286209813 L 430.9435553253831 57.380666241814765 L 430.97561997539714 57.47630423132489 L 431.02556308113793 57.57206715619327 L 431.0625025339898 57.66795534326195 L 431.14243743120403 57.76396912065741 L 432.0670228376565 57.86010881779703 L 432.30198623574535 57.95637476539582 L 432.36814371521433 58.05276729547376 L 432.377299284393 58.14928674136195 L 432.717948544777 58.24593343770999 L 433.0145533705918 58.34270772049297 L 433.04540747317253 58.43960992701807 L 433.0647464315338 58.53664039593207 L 433.1243861405443 58.63379946722813 L 433.2793829322278 58.731087482253315 L 433.4213801327081 58.82850478371506 L 433.60247996618506 58.92605171568954 L 433.7422430457193 59.023728623627676 L 433.8303468768865 59.12153585436363 L 433.83728287772254 59.21947375612132 L 434.0133320712809 59.317542678522386 L 434.02189069140917 59.41574297259365 L 434.24440337392264 59.51407499077408 L 434.29663459039284 59.61253908692339 L 434.47884415963864 59.71113561632865 L 434.4953676975954 59.809864935712596 L 434.5118911140526 59.90872740324119 L 434.6188477908201 60.00772337853158 L 434.7811171656412 60.10685322265954 L 434.89440374666407 60.20611729816795 L 434.9414573014489 60.30551596907418 L 434.99440981018506 60.40504960087844 L 434.99765477014444 60.50471856057186 L 435.1385110155907 60.604523216644395 L 435.33156559862437 60.70446393909316 L 435.4176900242916 60.804541099430594 L 435.6747164156662 60.904755070692886 L 435.8296848465047 61.00510622744798 L 437.16144189239856 61.1055949458044 L 437.19548089698264 61.206221603419465 L 437.5719385304955 61.306986579507736 L 437.64339205562777 61.40789025484986 L 437.79925598547055 61.50893301180082 L 438.16868986866393 61.610115234299144 L 438.34852385843874 61.71143730787509 L 438.5563239196092 61.81289961965996 L 438.5731120296086 61.914502558394474 L 438.60094467248325 62.01624651443831 L 438.74614006582283 62.118131879778616 L 438.8845529028142 62.220159048039136 L 438.9795227368085 62.32232841448962 L 439.02707976563056 62.42464037605464 L 439.07095501725144 62.52709533132321 L 439.27486063236563 62.62969368055769 L 439.2892879100132 62.73243582570365 L 440.31294649043514 62.835322170398854 L 440.592366204839 62.938353119983105 L 440.76376763485536 63.04152908150763 L 440.76597443497303 63.14485046374483 L 441.0145933722362 63.24831767719803 L 441.02724425133266 63.455691248478615 L 441.0273913541591 63.55959843605524 L 441.1577206745935 63.663653114366355 L 441.1933172108699 63.76785570271778 L 441.55072224978124 63.872206622205795 L 441.693668350233 63.97670629572781 L 442.21978461624997 64.0813551479921 L 442.35960083723006 64.1861536055286 L 442.5358656734727 64.29110209669898 L 442.85631177568536 64.39620105170764 L 442.9497911112458 64.50145090261151 L 443.03371342840325 64.60685208333155 L 443.3061821466175 64.71240502966299 L 444.1599680075941 64.81811017928618 L 444.17171980871035 64.92396797177787 L 444.1861156813221 65.02997884862145 L 444.2746923373843 65.13614325321856 L 444.4231936233938 65.24246163090032 L 444.5073546836695 65.34893442893792 L 444.7567349191903 65.4555620965545 L 444.93266498451226 65.56234508493628 L 445.3628866640215 65.66928384724406 L 445.6525424396459 65.77637883862451 L 445.9881030044152 65.8836305162223 L 446.0225956728622 65.99103933919162 L 446.24905991610655 66.09860576870733 L 446.40931764456855 66.20633026797799 L 446.42766143577666 66.31421330225686 L 446.6333951400454 66.4222553388546 L 446.6705191162211 66.53045684715096 L 446.7861424323849 66.63881829860713 L 446.9228872035584 66.74734016677843 L 446.930663211951 66.85602292732614 L 446.95780567186927 66.96486705803039 L 446.9864149368802 67.07387303880279 L 447.16994571213394 67.1830413516987 L 447.2767416941712 67.2923724809308 L 447.3481806786202 67.40186691288113 L 447.51158698293165 67.51152513611459 L 447.5335887194562 67.62134764139171 L 447.5929923320728 67.73133492168233 L 447.60985973828946 67.8414874721783 L 448.0301839450247 67.95180579030716 L 448.07593675500686 68.06229037574542 L 448.1186092093372 68.17294173043263 L 448.46303863126894 68.28376035858435 L 448.4879633608947 68.39474676670648 L 448.76534228149836 68.50590146360895 L 449.0976534407708 68.61722496041966 L 449.11509585392685 68.72871777059879 L 449.1984951009673 68.84038040995267 L 449.3664567736668 68.95221339664846 L 449.99480934761107 69.0642172512284 L 450.04184080006314 69.17639249662443 L 450.6039443060709 69.28873965817252 L 450.62342569589276 69.40125926362799 L 450.97523345977334 69.51395184317983 L 451.04245440427275 69.62681792946626 L 451.2023706605168 69.73985805758912 L 451.38731455615203 69.85307276512981 L 451.43270621836973 69.96646259216413 L 451.52948989440205 70.08002808127804 L 451.5331503147123 70.19376977758304 L 451.83562684433724 70.30768822873188 L 451.8728113711142 70.42178398493462 L 452.0585783934019 70.53605759897425 L 452.13381771912714 70.65050962622303 L 452.34781152308744 70.76514062465839 L 452.4079661664602 70.87995115487962 L 452.4564107061902 70.99494178012401 L 452.4991464119661 71.11011306628359 L 452.5642728936724 71.22546558192175 L 452.6828128810723 71.34099989829025 L 452.75876299358254 71.45671658934583 L 453.2986811292882 71.57261623176782 L 453.32618568080665 71.6886994049749 L 453.3721233831845 71.80496669114285 L 453.48886529270925 71.92141867522201 L 453.89405017618213 72.03805594495446 L 453.95138451892444 72.15487909089268 L 453.95884372638443 72.27188870641663 L 454.1877269772858 72.38908538775257 L 454.43691264779085 72.50646973399057 L 454.52303906212063 72.62404234710345 L 454.9211663247142 72.74180383196517 L 455.03183405170546 72.85975479636937 L 455.0549317801628 72.97789585104829 L 455.06516487510623 73.09622760969148 L 455.1468817756809 73.21475068896552 L 455.2737636675904 73.3334657085328 L 455.40370785677163 73.45237329107096 L 455.43981025150197 73.5714740622928 L 455.473573504698 73.69076865096582 L 455.70785604574564 73.81025768893215 L 455.9450367554606 73.92994181112874 L 455.95263547708225 74.04982165560739 L 455.9786462911921 74.16989786355538 L 456.09992869664785 74.290171079316 L 456.3601523457871 74.41064195040917 L 456.5193984463663 74.53131112755244 L 456.82471032596527 74.65217926468222 L 457.3965106856829 74.7732470189747 L 457.81223430343726 74.89451505086748 L 457.83267534960794 75.01598402408166 L 457.9175037042475 75.13765460564247 L 458.1347431330802 75.25952746590252 L 458.27576232701375 75.38160327856315 L 458.2826232835703 75.50388272069705 L 458.3874327390274 75.62636647277077 L 458.40903630881087 75.74905521866742 L 458.53412857227977 75.87194964570955 L 459.506020219814 75.99505044468259 L 459.5805729243536 76.11835830985729 L 459.9671568706874 76.24187393901428 L 460.21351473352826 76.36559803346705 L 460.31108773421954 76.48953129808609 L 460.3479864346149 76.61367444132287 L 460.65627837755386 76.73802817523438 L 460.7030872209307 76.86259321550733 L 460.8437995236392 76.9873702814831 L 461.0288264360346 77.11236009618233 L 461.3342551843631 77.23756338633063 L 461.6492625416562 77.3629808823834 L 461.7970573448828 77.48861331855181 L 461.79749459319254 77.61446143282797 L 461.79968083346495 77.74052596701165 L 461.8232920928757 77.86680766673629 L 461.8627893857821 77.99330728149516 L 461.8703681227478 78.12002556466842 L 461.9557728915576 78.24696327354974 L 461.9878352773142 78.37412116937378 L 462.0695922904259 78.5015000173434 L 462.3684682845886 78.62910058665727 L 462.41844707979675 78.7569236505376 L 462.43199799015116 78.88496998625862 L 462.53297155551036 79.01324037517486 L 462.6218478513706 79.1417356027494 L 463.1646454528164 79.27045645858288 L 463.2928232796126 79.39940373644316 L 463.64425520120966 79.52857823429372 L 463.74284433875425 79.65798075432406 L 463.8855506424005 79.7876121029795 L 464.04251710968975 79.91747309099077 L 464.1265289793584 80.04756453340497 L 464.36995638369524 80.17788724961645 L 464.5573134657891 80.30844206339691 L 464.7251500186071 80.43922980292763 L 464.7389781435292 80.5702513008302 L 464.840575862533 80.70150739419898 L 465.07592141465466 80.8329989246327 L 465.1457780589896 80.96472673826696 L 465.20384474177683 81.09669168580717 L 465.211994331569 81.22889462256103 L 465.34369342555783 81.36133640847231 L 465.46010608727346 81.49401790815409 L 465.8242932553247 81.6269399909225 L 466.0753923370895 81.76010353083132 L 466.08426612503774 81.89350940670624 L 466.30580852124075 82.02715850217953 L 466.4515520146061 82.16105170572524 L 466.6637504396775 82.29518991069506 L 466.7287585587266 82.42957401535324 L 466.8603687912693 82.5642049229134 L 466.89236127433304 82.69908354157474 L 467.0512989946629 82.83421078455848 L 467.1055359185189 82.96958757014573 L 467.10786240607933 83.10521482171396 L 467.2455570985175 83.2410934677755 L 467.3057504382241 83.37722444201546 L 467.3775732313767 83.51360868333023 L 467.4883561154635 83.65024713586632 L 467.6277719573215 83.78714074905946 L 467.6460887243386 83.9242904776745 L 467.7087425684187 84.061697281845 L 467.74101370440167 84.19936212711372 L 467.75366037453813 84.33728598447368 L 467.77197611544864 84.47546983040843 L 467.8918969208555 84.61391464693429 L 467.9887010482372 84.75262142164195 L 468.05585101120073 84.89159114773861 L 468.22691446858386 85.03082482409093 L 468.2997251242864 85.17032345526775 L 468.42513994360223 85.31008805158399 L 468.48312194934454 85.45011962914418 L 468.5233742414183 85.5904192098871 L 468.5502571395996 86.01293627905346 L 468.6285789932962 86.15431821017165 L 468.78608629287254 86.29597334325888 L 468.8009065221607 86.43790273621352 L 468.90638885996077 86.58010745309036 L 468.9085681948982 86.72258856414862 L 468.91626849474966 86.8653471459001 L 468.96188859790686 87.0083842811585 L 469.16353579360685 87.151701059088 L 469.233846555202 87.29529857525358 L 469.2928245469726 87.43917793167088 L 469.3000877393985 87.58334023685723 L 469.6427384785946 87.72778660588278 L 469.8556523794106 87.8725181604222 L 469.9401733137233 88.017536028807 L 470.0236745513933 88.16284134607832 L 470.03253276152117 88.30843525404026 L 470.0708695306389 88.45431890131357 L 470.0853908633027 88.60049344339018 L 470.110076913472 88.74696004268799 L 470.1195156256922 88.89371986860652 L 470.23219626666145 89.0407740975827 L 470.7249624751978 89.18812391314765 L 470.74514122772075 89.3357705059837 L 470.787530534968 89.48371507398207 L 470.81191854115315 89.6319588223015 L 470.85169365004657 89.78050296342667 L 470.9553378890577 89.92934871722821 L 471.05201013920083 90.07849731102249 L 471.2121053345143 90.22794997963211 L 471.2212491400526 90.37770796544811 L 471.3688511385836 90.5277725184909 L 471.4650702301329 90.6781448964735 L 471.8935797393541 90.82882636486471 L 472.07276622489957 90.97981819695275 L 472.3106921874921 91.13112167391017 L 472.3507309096685 91.28273808485869 L 472.37133026415756 91.43466872693534 L 472.43689878326734 91.58691490535932 L 472.4873794369487 91.73947793349862 L 472.6402650731967 91.89235913293845 L 472.6523040126239 92.04555983354993 L 472.78733878158073 92.19908137355924 L 472.8788561221954 92.352925099618 L 472.9219303475289 92.50709236687413 L 473.00329052047243 92.66158453904342 L 473.0161976568583 92.81640298848168 L 473.0231587782926 92.97154909625834 L 473.24996352086316 93.12702425223006 L 473.38713737686635 93.28282985511555 L 473.68755657002777 93.43896731257087 L 473.720466849564 93.59543804126605 L 473.8307925083337 93.75224346696211 L 473.95039042179434 93.90938502458886 L 473.9590882035699 94.06686415832382 L 474.0250452863994 94.22468232167176 L 474.0305537024277 94.70018566604841 L 474.0308436186868 95.82183718776758 L 474.08375270966457 95.98348335814319 L 474.120136046613 96.14548675791491 L 474.2026124259794 96.30784896949649 L 474.2921879114043 96.4705715858388 L 474.3519029180416 96.63365621052469 L 474.3645124373952 96.79710445786304 L 474.3648023105714 96.96091795298526 L 474.57944313232383 97.12509833194139 L 474.76609586331625 97.28964724179929 L 474.8160894980633 97.45456634074259 L 474.91071208654915 97.61985729817195 L 475.2051323873095 97.78552179480573 L 475.22237332543665 97.95156152278292 L 475.3022014912322 98.11797818576684 L 475.30640289508796 98.2847734990496 L 475.3866626879818 98.61950699646508 L 475.3873870412911 98.78744867028877 L 475.5037151529641 98.95577597401183 L 475.77053721351894 99.12449068268825 L 475.9052398996031 99.29359458365559 L 475.99576136184095 99.46308947664937 L 476.0293620006331 99.63297717391794 L 476.1032237077076 99.80325950033836 L 476.4416530700523 99.97393829353427 L 476.59774494499635 100.14501540399493 L 476.6458155835707 100.3164926951955 L 476.66116322148434 100.4883720437187 L 476.7628024796603 100.66065533937842 L 476.867332647876 100.83334448534384 L 476.99473126440165 101.0064413982663 L 477.16902403482845 101.17994800840614 L 477.18813172227334 101.35386625976236 L 477.4748722747196 101.52819811020316 L 477.5006351568476 101.7029455315984 L 477.74421005689624 101.87811050995293 L 477.8569431553552 102.05369504554261 L 477.86258689738037 102.22970115305077 L 478.1398363609679 102.40613086170754 L 478.2784482662438 102.58298621542963 L 478.5828435715899 102.76026927296294 L 478.6236386682425 102.93798210802578 L 478.6368028853494 103.11612680945512 L 478.67238928403714 103.2947054813531 L 478.7402333364196 103.47372024323681 L 478.75513271540143 103.65317323018905 L 478.89356202835063 103.83306659301087 L 479.1165932022145 104.01340249837631 L 479.1738661182801 104.19418312898955 L 479.24357512227107 104.37541068374253 L 479.27163166292354 104.55708737787603 L 479.31559584683436 104.73921544314186 L 479.3490022667351 105.28833043438942 L 479.3492914976394 105.65670562445513 L 479.3537745718944 105.8415897289176 L 479.3800943758383 106.0269413031682 L 479.78873485727854 106.2127627171464 L 479.83196600373867 106.39905635885953 L 479.908305261425 106.58582463456764 L 480.2129135616672 106.77306996896937 L 480.7428075799133 106.96079480539089 L 480.89917904386095 107.1490016059779 L 480.93256193027 107.33769285188822 L 480.93964308484385 107.52687104348911 L 481.1217222529442 107.71653870055542 L 481.1238897732274 107.90669836247133 L 481.1646387654289 108.09735258843409 L 481.38123182138605 108.2885039576608 L 481.429922649606 108.48015506959786 L 481.6089282275975 108.67230854413287 L 481.78098552425746 108.86496702180972 L 481.9109948941395 109.0581331640459 L 482.0490854980393 109.25180965335397 L 482.6145040052021 109.44599919356403 L 483.05908443687804 109.64070451005097 L 483.1114926381663 109.83592834996358 L 483.18006901690416 110.03167348245722 L 483.30826513935824 110.22794269892955 L 483.594081513979 110.4247388132593 L 483.72210968606055 110.62206466204844 L 483.7427493963195 110.81992310486748 L 483.7815746312759 111.01831702450386 L 483.9935861070518 111.21724932721435 L 484.1619975775479 111.41672294298036 L 484.1865294720663 111.61674082576656 L 484.74203303017975 111.81730595378389 L 484.7808410038024 112.01842132975537 L 485.04699659080296 112.22008998118571 L 485.10498403224517 112.42231496063499 L 485.1639796696113 112.6250993459958 L 485.4188403333413 112.82844624077421 L 485.56017674155396 113.03235877437504 L 485.82436545301334 113.23684010239054 L 485.973462619212 113.44189340689366 L 486.0294075527434 113.6475218967347 L 486.30521878444716 113.85372880784348 L 486.6166011304887 114.06051740353399 L 487.07091129374555 114.26789097481452 L 488.01282215518097 114.47585284070226 L 488.1887112728924 114.68440634854176 L 488.2736978051639 114.89355487432806 L 488.33361858062386 115.10330182303494 L 488.55312238901666 115.31365062894736 L 488.60943519876736 115.5246047559989 L 489.02446460437744 115.73616769811377 L 489.2034421797209 115.94834297955452 L 489.28464693342767 116.16113415527383 L 489.4584210062938 116.37454481127224 L 489.4713779381631 116.58857856496041 L 489.50420183120264 116.80323906552752 L 489.820755032112 117.0185299943139 L 490.1238787824676 117.23445506519056 L 490.1653284250081 117.4510180249431 L 490.1915219020949 117.6682226536621 L 490.2498084889798 117.88607276513864 L 490.2559968526354 118.10457220726676 L 490.39559029533535 118.32372486245043 L 490.4479715765043 118.54353464801824 L 490.448691091096 118.76400551664301 L 490.59316495357893 118.98514145676853 L 490.6912982757893 119.20694649304238 L 490.78165772108 119.42942468675557 L 490.87143802983985 119.87641697756436 L 491.05343357929513 120.10093938450842 L 491.250806557386 120.32615156951573 L 491.38199533069 120.55205778392497 L 491.43953185020223 120.77866231850004 L 491.5233886891378 121.00596950391895 L 491.5491348437035 121.23398371127053 L 491.56409336785885 121.46270935255887 L 491.67901178530343 121.69215088121553 L 491.7434440713232 121.9223127926195 L 491.86583156276276 122.15319962462615 L 491.8715840422928 122.38481595810373 L 492.0073382847431 122.61716641747881 L 492.05421761170476 122.85025567129037 L 493.09465815097604 123.0840884327526 L 493.19929374007563 123.31866946032648 L 493.24226765985725 123.55400355830108 L 493.2572149175775 124.26457301740686 L 493.25793353323235 124.50296837730173 L 493.3056490984759 124.98209758989134 L 493.3134099681077 125.22284167674508 L 493.55728882666654 125.46437899101812 L 493.6764162542087 125.70671477720344 L 493.6950967014025 125.94985433197837 L 493.82901659092823 126.19380300489905 L 493.9912328924318 126.43856619910667 L 494.00502576672926 126.68414937204545 L 494.18389443725715 126.93055803619319 L 494.1860493946799 127.17779775980296 L 494.18633672218016 129.6971697125946 L 494.2462437036028 129.95393532908525 L 494.4571265574562 130.211603462779 L 495.18084436335977 130.47018048065996 L 495.22248802796037 130.72967281732656 L 495.29744467951804 130.9900869759523 L 495.5188537503857 131.25142952926348 L 495.7181319769081 131.5137071205349 L 495.98026791683884 131.77692646460292 L 496.1276880036121 132.04109434889693 L 496.4767493926583 132.30621763448994 L 496.6502552121404 132.57230325716722 L 496.7042129345452 132.83935822851544 L 496.9144347879099 133.1073896370309 L 497.04931080780557 133.37640464924937 L 497.2553398223243 133.64641051089444 L 497.4036804937092 133.91741454804986 L 497.5259035532288 134.18942416835137 L 497.8069053048027 134.46244686220217 L 497.91921011206875 134.73649020401035 L 497.9246602664267 135.01156185344968 L 497.93943298676595 135.28766955674433 L 498.3449994518351 135.56482114797785 L 498.5146330187071 135.84302455042678 L 498.6355052534482 136.12228777791984 L 498.6654713853739 136.40261893622295 L 498.7684141913367 136.9665179365075 L 498.91149399150646 137.25010246254948 L 498.976149309417 137.53478829048447 L 498.98532419272135 137.8205840074944 L 499.0118451291286 138.1074983015895 L 499.01342203981295 138.39553996319313 L 499.0551380933391 138.6847178867581 L 499.11806909362645 138.97504107241434 L 499.6777764104173 139.26651862764948 L 499.8289666344146 139.55915976902395 L 500.0533686295148 139.85297382391866 L 500.26986808815803 140.1479702323196 L 500.2992393396775 140.44415854863746 L 500.41543111280856 140.74154844356417 L 500.43018746784867 141.04014970596808 L 500.84175044483425 141.3399722448268 L 500.9233951208559 141.64102609120062 L 501.0749312359096 141.94332140024608 L 502.18020552710306 142.2468684532713 L 502.26867270060427 142.55167765983452 L 502.2839894788792 142.85775955988578 L 502.30846747788354 143.16512482595397 L 502.38318814135556 143.47378426537927 L 502.65771514515126 143.78374882259425 L 502.6657300282387 144.0950295814514 L 502.66673188661457 144.40763776760195 L 503.0431127842608 144.72158475092482 L 503.38680939144155 145.03688204800767 L 503.9175614047308 145.35354132468245 L 504.0973591977453 145.67157439861472 L 504.39241381835035 145.99099324195078 L 505.19357128065775 146.3118099840206 L 505.3628316132176 146.6340369141035 L 505.39742548364796 146.95768648425081 L 506.37155317896537 147.28277131217465 L 506.40141632650113 147.609304184199 L 506.435994212059 147.9372980582774 L 506.4751437377594 148.26676606707855 L 506.5377244097206 148.59772152114164 L 506.7205985772002 148.9301779121027 L 507.14772322538414 149.26414891599495 L 507.152294020016 149.59964839662462 L 507.3349753563775 149.93669040902415 L 507.61760939519934 150.27528920298533 L 508.2734290508535 150.61545922667426 L 508.28113839842223 150.95721513033084 L 508.3325333729764 151.30057177005466 L 508.3432405113888 151.6455442116798 L 508.5219708080915 151.99214773474205 L 508.91535578902113 152.34039783653913 L 509.58563590407215 152.6903102362889 L 510.04231648896166 153.04190087938673 L 510.0825444448917 153.3951859417656 L 510.0886784316321 153.75018183436168 L 510.089962287203 154.10690520768895 L 510.2270453115182 154.4653729565249 L 510.3328830912598 154.82560222471227 L 510.36740053442566 155.18761041007843 L 510.4402847986724 155.55141516947782 L 510.52186672882715 155.91703442395936 L 510.6392425264728 156.28448636406358 L 510.6835955756583 156.65378945525345 L 510.70441696239584 157.02496244348225 L 510.7404974017742 157.39802436090343 L 510.7429217583528 157.77299453172685 L 510.7573252346833 158.14989257822413 L 510.7653112807846 158.52873842689132 L 510.79326221863676 158.90955231477 L 510.7942604599872 159.29235479593376 L 510.7985386321803 160.45290423638698 L 510.7995368711868 161.2369385395952 L 510.9993183526052 161.6321228312034 L 511.41579350864055 162.02944905355025 L 511.50418296159427 162.4289405521024 L 511.82207112657403 162.83062105609122 L 511.9808558164084 163.23451468697095 L 512.0009525400816 163.64064596711006 L 512.0774894803001 164.04903982872645 L 512.1444749796633 164.45972162307066 L 512.8603824873348 164.8727171298699 L 513.1612691556747 165.28805256703816 L 513.557973375786 165.70575460066397 L 513.6113842139407 166.1258503552832 L 513.7213353293923 166.54836742444968 L 514.1072610391458 166.97333388160973 L 514.1669240801614 167.40077829129632 L 514.2795533313838 167.83072972064969 L 514.4280558391899 168.263217751279 L 514.7291597553116 168.69827249147454 L 514.7496589805392 169.1359245887864 L 514.8333622094756 169.57620524297886 L 514.8357821544148 170.01914621937834 L 515.1430939816637 170.46477986262448 L 515.5010258251797 170.91313911084433 L 515.5817127236814 171.36425751026093 L 515.8183491229144 171.8181692302548 L 516.0619319430441 172.27490907889484 L 516.281873650242 172.7345125189554 L 516.2895555717648 173.19701568443958 L 516.794797631632 173.66245539762633 L 516.7950820827768 174.13086918666227 L 517.2119065478983 174.60229530372004 L 517.3390290227303 175.0767727437427 L 517.4529212396119 175.55434126380055 L 517.5106471751401 176.0350414030811 L 517.5308366843431 176.51891450353935 L 517.8964913301018 177.00600273123496 L 517.9546323287611 177.49634909838147 L 517.9601762574089 177.98999748613886 L 518.0470293539287 178.48699266817914 L 518.0891042787646 178.98738033505526 L 518.3372734496206 179.4912071194081 L 518.4056359721428 179.99852062204565 L 518.4150161144278 180.50936943893043 L 518.7694431019647 181.02380318911497 L 518.8238669944715 181.54187254366246 L 519.2275289251625 182.06362925559944 L 519.6196125874255 182.58912619093883 L 519.7132195483016 183.1184173608259 L 519.7135036302601 183.65155795485128 L 520.100531942971 184.18860437558527 L 520.1297871532537 184.72961427438577 L 520.2061897411794 185.27464658853813 L 520.3291668897459 185.82376157978553 L 520.4396417764248 186.37702087431376 L 520.478548091135 186.93448750425574 L 520.5245532291128 187.4962259507871 L 520.6283453123593 188.06230218888527 L 520.6591554457663 188.6327837338302 L 520.7165151218198 189.2077396895291 L 520.740083277191 189.7872407987502 L 520.7764288635922 190.3713594953598 L 520.8022679464005 190.96016995865546 L 520.8070949948673 191.55374816990002 L 520.8325078143325 192.15217197116266 L 520.8593400324603 192.75552112658187 L 520.867148289721 193.36387738617054 L 520.8680000979625 193.97732455228982 L 520.8697037134771 194.5959485489302 L 520.8699876492706 198.42150391053485 L 520.8909987984342 199.0789657934145 L 520.9775967316198 199.7423776384386 L 520.989521431497 200.41184812296052 L 521.0681660815162 203.15259756287497 L 521.1055000331489 203.85410060572258 L 521.5744638380577 204.5623815606976 L 521.6945278165558 205.2775726828608 L 521.762220635949 205.99981013641428 L 521.8138758391606 206.72923415029516 L 521.8510554977702 207.46598918158935 L 521.8649622348962 208.2102240872394 L 521.9564891228449 208.96209230456003 L 521.9671315422952 209.7217520411059 L 521.9881324354794 210.48936647448141 L 522.1208024607057 211.26510396272278 L 522.174719590742 212.0491382659311 L 522.3913682779074 212.8416487798861 L 522.4213030290415 213.64282078242718 L 522.450669909244 214.45284569344602 L 522.4801782718682 215.27192134940657 L 522.4814550672743 216.100252293374 L 522.522454000762 216.93805008161917 L 522.7569421770331 217.78553360794558 L 522.8390710878964 218.6429294469857 L 522.910700934277 219.5104722178105 L 522.9294236068285 220.38840496931488 L 522.9533940735236 221.2769795889604 L 523.1474177889684 222.17645723659683 L 523.2106704377516 223.08710880523074 L 523.2112377180258 224.00921541077548 L 523.226412412211 225.88897247007867 L 524.1593883381241 226.8472411294169 L 524.1728555190455 227.81820245757086 L 524.1854720679478 228.80219721247477 L 524.2773297493061 229.7995800613911 L 524.5421083494803 230.81072034838155 L 524.609006784427 231.83600291545082 L 524.6094319799746 232.87582898193534 L 524.6097154436284 236.08684631487404 L 524.8767223249024 237.18922060064972 L 524.881115484931 238.308425677123 L 524.9677014991264 239.44498346016616 L 525.1733122004616 240.59944052508598 L 525.2902085867827 241.77236968499136 L 525.2917671641873 242.96437169749856 L 525.4994733539063 244.17607711250628 L 525.6126693950096 245.408148275266 L 525.7828069106057 246.66128150067942 L 525.8821068677005 247.93620943669242 L 525.9634134081987 249.2337036368707 L 527.0941758635441 250.5545773647744 L 527.2442405686511 251.8996886556571 L 527.4095832810474 253.2699436643515 L 527.4193505778378 254.66630033205837 L 527.8485035017047 256.0897724091968 L 527.8644960734291 257.54143387663123 L 528.2932810013948 259.0224238135754 L 529.0384362387397 260.5339517674419 L 529.4678457963621 262.0773036890588 L 530.9184055575699 263.6538485062222 L 531.2718552733967 265.265045419782 L 531.4127391634529 266.9124520197101 L 531.5194206859585 268.59773333428154 L 531.728388752824 270.32267194414635 L 532.4489605310209 272.08917931529624 L 532.4711348252299 273.89930853156665 L 532.4753719266117 279.6143969388106 L 532.4825749806253 281.62292007471746 L 532.8724940957549 283.6880287082712 L 532.8885921629848 285.813003828257 L 533.7640685932251 288.0014203269855 L 533.7704205865018 290.25718318650206 L 533.8120609866512 292.58456941132727 L 533.9132651153919 294.9882768388422 L 534.3911354487593 297.4734812270153 L 535.0078698118411 300.0459033632066 L 535.0154879837503 302.71188838199294 L 535.5172429164895 305.47850005839433 L 535.6104720720857 308.35363360296697 L 535.614280139941 311.3461514937776 L 535.7839441698679 314.4660482325578 L 535.7852134285499 317.7246517460457 L 535.9782734288892 321.1348716704821 L 536.6668929162718 324.7115082579023 L 536.8435256188775 328.4716405820885 L 536.972643375314 332.435119801053 L 537.304566000573 336.62520355459316 L 538.3146903410569 341.06938291283825 L 538.767682738436 345.8004765651784 L 538.830215560307 350.85810308954285 L 538.9196457388291 356.2906997847306 L 538.9242931941287 362.1583512201139 L 538.9971020723146 368.53685147238195 L 539.8243100108638 375.52370798423874 L 539.8250138879471 383.24731952738944 L 541.8312935756239 391.8815826391742 L 543.9167241889298 401.6703028158787 L 544.1977452072364 412.97055094644975 L 544.3744894245283 426.3359077105746 L 544.5767868875726 442.69378236551006 L 545.4338203492711 463.7827506727857 L 548.1960965261183 493.5059820918459 L 548.797837064788 544.3181818181819" stroke-linejoin="bevel" stroke-miterlimit="10"/><path fill="none" stroke="none"/></g></g></g><g clip-path="url(#KdTmdmJGCIXT)"><g><g/><g><path fill="#ffffff" stroke="#e5e5e5" paint-order="fill stroke markers" d=" M 123 475 L 255 475 L 255 560 L 123 560 L 123 475 Z" fill-opacity="0.95" stroke-linejoin="bevel" stroke-miterlimit="10" stroke-opacity="0.5"/><text fill="#444444" stroke="none" font-family="helvetica" font-size="22pt" font-style="normal" font-weight="normal" text-decoration="normal" x="158" y="500.5" text-anchor="start" dominant-baseline="central">male</text><g><path fill="none" stroke="blue" paint-order="fill stroke markers" d=" M 133 495 L 153 495" stroke-linejoin="bevel" stroke-miterlimit="10"/></g><text fill="#444444" stroke="none" font-family="helvetica" font-size="22pt" font-style="normal" font-weight="normal" text-decoration="normal" x="158" y="534.5" text-anchor="start" dominant-baseline="central">female</text><g><path fill="none" stroke="red" paint-order="fill stroke markers" d=" M 133 529 L 153 529" stroke-linejoin="bevel" stroke-miterlimit="10"/></g></g></g></g><g/><g/><g><g fill="#444444"><path fill="none" stroke="black" paint-order="fill stroke markers" d=" M 113 570 L 570 570" stroke-linejoin="bevel" stroke-miterlimit="10"/><path fill="none" stroke="black" paint-order="fill stroke markers" d=" M 150 576 L 150 568" stroke-linejoin="bevel" stroke-miterlimit="10"/><path fill="none" stroke="black" paint-order="fill stroke markers" d=" M 286 576 L 286 568" stroke-linejoin="bevel" stroke-miterlimit="10"/><path fill="none" stroke="black" paint-order="fill stroke markers" d=" M 415 576 L 415 568" stroke-linejoin="bevel" stroke-miterlimit="10"/><path fill="none" stroke="black" paint-order="fill stroke markers" d=" M 536 576 L 536 568" stroke-linejoin="bevel" stroke-miterlimit="10"/><path fill="none" stroke="black" paint-order="fill stroke markers" d=" M 136 574 L 136 570" stroke-linejoin="bevel" stroke-miterlimit="10"/><path fill="none" stroke="black" paint-order="fill stroke markers" d=" M 122 574 L 122 570" stroke-linejoin="bevel" stroke-miterlimit="10"/><path fill="none" stroke="black" paint-order="fill stroke markers" d=" M 150 574 L 150 570" stroke-linejoin="bevel" stroke-miterlimit="10"/><path fill="none" stroke="black" paint-order="fill stroke markers" d=" M 164 574 L 164 570" stroke-linejoin="bevel" stroke-miterlimit="10"/><path fill="none" stroke="black" paint-order="fill stroke markers" d=" M 178 574 L 178 570" stroke-linejoin="bevel" stroke-miterlimit="10"/><path fill="none" stroke="black" paint-order="fill stroke markers" d=" M 192 574 L 192 570" stroke-linejoin="bevel" stroke-miterlimit="10"/><path fill="none" stroke="black" paint-order="fill stroke markers" d=" M 206 574 L 206 570" stroke-linejoin="bevel" stroke-miterlimit="10"/><path fill="none" stroke="black" paint-order="fill stroke markers" d=" M 219 574 L 219 570" stroke-linejoin="bevel" stroke-miterlimit="10"/><path fill="none" stroke="black" paint-order="fill stroke markers" d=" M 233 574 L 233 570" stroke-linejoin="bevel" stroke-miterlimit="10"/><path fill="none" stroke="black" paint-order="fill stroke markers" d=" M 246 574 L 246 570" stroke-linejoin="bevel" stroke-miterlimit="10"/><path fill="none" stroke="black" paint-order="fill stroke markers" d=" M 260 574 L 260 570" stroke-linejoin="bevel" stroke-miterlimit="10"/><path fill="none" stroke="black" paint-order="fill stroke markers" d=" M 273 574 L 273 570" stroke-linejoin="bevel" stroke-miterlimit="10"/><path fill="none" stroke="black" paint-order="fill stroke markers" d=" M 286 574 L 286 570" stroke-linejoin="bevel" stroke-miterlimit="10"/><path fill="none" stroke="black" paint-order="fill stroke markers" d=" M 300 574 L 300 570" stroke-linejoin="bevel" stroke-miterlimit="10"/><path fill="none" stroke="black" paint-order="fill stroke markers" d=" M 313 574 L 313 570" stroke-linejoin="bevel" stroke-miterlimit="10"/><path fill="none" stroke="black" paint-order="fill stroke markers" d=" M 326 574 L 326 570" stroke-linejoin="bevel" stroke-miterlimit="10"/><path fill="none" stroke="black" paint-order="fill stroke markers" d=" M 339 574 L 339 570" stroke-linejoin="bevel" stroke-miterlimit="10"/><path fill="none" stroke="black" paint-order="fill stroke markers" d=" M 352 574 L 352 570" stroke-linejoin="bevel" stroke-miterlimit="10"/><path fill="none" stroke="black" paint-order="fill stroke markers" d=" M 364 574 L 364 570" stroke-linejoin="bevel" stroke-miterlimit="10"/><path fill="none" stroke="black" paint-order="fill stroke markers" d=" M 377 574 L 377 570" stroke-linejoin="bevel" stroke-miterlimit="10"/><path fill="none" stroke="black" paint-order="fill stroke markers" d=" M 390 574 L 390 570" stroke-linejoin="bevel" stroke-miterlimit="10"/><path fill="none" stroke="black" paint-order="fill stroke markers" d=" M 402 574 L 402 570" stroke-linejoin="bevel" stroke-miterlimit="10"/><path fill="none" stroke="black" paint-order="fill stroke markers" d=" M 415 574 L 415 570" stroke-linejoin="bevel" stroke-miterlimit="10"/><path fill="none" stroke="black" paint-order="fill stroke markers" d=" M 427 574 L 427 570" stroke-linejoin="bevel" stroke-miterlimit="10"/><path fill="none" stroke="black" paint-order="fill stroke markers" d=" M 440 574 L 440 570" stroke-linejoin="bevel" stroke-miterlimit="10"/><path fill="none" stroke="black" paint-order="fill stroke markers" d=" M 452 574 L 452 570" stroke-linejoin="bevel" stroke-miterlimit="10"/><path fill="none" stroke="black" paint-order="fill stroke markers" d=" M 464 574 L 464 570" stroke-linejoin="bevel" stroke-miterlimit="10"/><path fill="none" stroke="black" paint-order="fill stroke markers" d=" M 476 574 L 476 570" stroke-linejoin="bevel" stroke-miterlimit="10"/><path fill="none" stroke="black" paint-order="fill stroke markers" d=" M 489 574 L 489 570" stroke-linejoin="bevel" stroke-miterlimit="10"/><path fill="none" stroke="black" paint-order="fill stroke markers" d=" M 501 574 L 501 570" stroke-linejoin="bevel" stroke-miterlimit="10"/><path fill="none" stroke="black" paint-order="fill stroke markers" d=" M 513 574 L 513 570" stroke-linejoin="bevel" stroke-miterlimit="10"/><path fill="none" stroke="black" paint-order="fill stroke markers" d=" M 525 574 L 525 570" stroke-linejoin="bevel" stroke-miterlimit="10"/><path fill="none" stroke="black" paint-order="fill stroke markers" d=" M 536 574 L 536 570" stroke-linejoin="bevel" stroke-miterlimit="10"/><path fill="none" stroke="black" paint-order="fill stroke markers" d=" M 548 574 L 548 570" stroke-linejoin="bevel" stroke-miterlimit="10"/><path fill="" stroke="black" paint-order="fill stroke markers" d=" M 560 574 L 560 570" stroke-linejoin="bevel" stroke-miterlimit="10"/><g transform="translate(150,581) rotate(0,0,0)"><text fill="" stroke="none" font-family="helvetica" font-size="26px" font-style="normal" font-weight="normal" text-decoration="normal" x="0" y="0" text-anchor="middle" dominant-baseline="hanging">0.8</text><g transform="rotate(0,0,0) translate(-150,-581) translate(286,581) rotate(0,0,0)"><text fill="" stroke="none" font-family="helvetica" font-size="26px" font-style="normal" font-weight="normal" text-decoration="normal" x="0" y="0" text-anchor="middle" dominant-baseline="hanging">0.85</text><g transform="rotate(0,0,0) translate(-286,-581) translate(415,581) rotate(0,0,0)"><text fill="" stroke="none" font-family="helvetica" font-size="26px" font-style="normal" font-weight="normal" text-decoration="normal" x="0" y="0" text-anchor="middle" dominant-baseline="hanging">0.9</text><g transform="rotate(0,0,0) translate(-415,-581) translate(536,581) rotate(0,0,0)"><text fill="" stroke="none" font-family="helvetica" font-size="26px" font-style="normal" font-weight="normal" text-decoration="normal" x="0" y="0" text-anchor="middle" dominant-baseline="hanging">0.95</text><g transform="rotate(0,0,0) translate(-536,-581)"/></g></g></g></g></g></g><g><g fill="#444444"><path fill="none" stroke="black" paint-order="fill stroke markers" d=" M 113 570 L 113 5" stroke-linejoin="bevel" stroke-miterlimit="10"/><path fill="none" stroke="black" paint-order="fill stroke markers" d=" M 107 537 L 115 537" stroke-linejoin="bevel" stroke-miterlimit="10"/><path fill="none" stroke="black" paint-order="fill stroke markers" d=" M 107 368 L 115 368" stroke-linejoin="bevel" stroke-miterlimit="10"/><path fill="none" stroke="black" paint-order="fill stroke markers" d=" M 107 199 L 115 199" stroke-linejoin="bevel" stroke-miterlimit="10"/><path fill="none" stroke="black" paint-order="fill stroke markers" d=" M 107 31 L 115 31" stroke-linejoin="bevel" stroke-miterlimit="10"/><path fill="none" stroke="black" paint-order="fill stroke markers" d=" M 109 563 L 113 563" stroke-linejoin="bevel" stroke-miterlimit="10"/><path fill="none" stroke="black" paint-order="fill stroke markers" d=" M 109 553 L 113 553" stroke-linejoin="bevel" stroke-miterlimit="10"/><path fill="none" stroke="black" paint-order="fill stroke markers" d=" M 109 545 L 113 545" stroke-linejoin="bevel" stroke-miterlimit="10"/><path fill="none" stroke="black" paint-order="fill stroke markers" d=" M 109 537 L 113 537" stroke-linejoin="bevel" stroke-miterlimit="10"/><path fill="none" stroke="black" paint-order="fill stroke markers" d=" M 109 537 L 113 537" stroke-linejoin="bevel" stroke-miterlimit="10"/><path fill="none" stroke="black" paint-order="fill stroke markers" d=" M 109 486 L 113 486" stroke-linejoin="bevel" stroke-miterlimit="10"/><path fill="none" stroke="black" paint-order="fill stroke markers" d=" M 109 456 L 113 456" stroke-linejoin="bevel" stroke-miterlimit="10"/><path fill="none" stroke="black" paint-order="fill stroke markers" d=" M 109 435 L 113 435" stroke-linejoin="bevel" stroke-miterlimit="10"/><path fill="none" stroke="black" paint-order="fill stroke markers" d=" M 109 419 L 113 419" stroke-linejoin="bevel" stroke-miterlimit="10"/><path fill="none" stroke="black" paint-order="fill stroke markers" d=" M 109 406 L 113 406" stroke-linejoin="bevel" stroke-miterlimit="10"/><path fill="none" stroke="black" paint-order="fill stroke markers" d=" M 109 394 L 113 394" stroke-linejoin="bevel" stroke-miterlimit="10"/><path fill="none" stroke="black" paint-order="fill stroke markers" d=" M 109 385 L 113 385" stroke-linejoin="bevel" stroke-miterlimit="10"/><path fill="none" stroke="black" paint-order="fill stroke markers" d=" M 109 376 L 113 376" stroke-linejoin="bevel" stroke-miterlimit="10"/><path fill="none" stroke="black" paint-order="fill stroke markers" d=" M 109 368 L 113 368" stroke-linejoin="bevel" stroke-miterlimit="10"/><path fill="none" stroke="black" paint-order="fill stroke markers" d=" M 109 368 L 113 368" stroke-linejoin="bevel" stroke-miterlimit="10"/><path fill="none" stroke="black" paint-order="fill stroke markers" d=" M 109 317 L 113 317" stroke-linejoin="bevel" stroke-miterlimit="10"/><path fill="none" stroke="black" paint-order="fill stroke markers" d=" M 109 288 L 113 288" stroke-linejoin="bevel" stroke-miterlimit="10"/><path fill="none" stroke="black" paint-order="fill stroke markers" d=" M 109 267 L 113 267" stroke-linejoin="bevel" stroke-miterlimit="10"/><path fill="none" stroke="black" paint-order="fill stroke markers" d=" M 109 250 L 113 250" stroke-linejoin="bevel" stroke-miterlimit="10"/><path fill="none" stroke="black" paint-order="fill stroke markers" d=" M 109 237 L 113 237" stroke-linejoin="bevel" stroke-miterlimit="10"/><path fill="none" stroke="black" paint-order="fill stroke markers" d=" M 109 226 L 113 226" stroke-linejoin="bevel" stroke-miterlimit="10"/><path fill="none" stroke="black" paint-order="fill stroke markers" d=" M 109 216 L 113 216" stroke-linejoin="bevel" stroke-miterlimit="10"/><path fill="none" stroke="black" paint-order="fill stroke markers" d=" M 109 207 L 113 207" stroke-linejoin="bevel" stroke-miterlimit="10"/><path fill="none" stroke="black" paint-order="fill stroke markers" d=" M 109 199 L 113 199" stroke-linejoin="bevel" stroke-miterlimit="10"/><path fill="none" stroke="black" paint-order="fill stroke markers" d=" M 109 199 L 113 199" stroke-linejoin="bevel" stroke-miterlimit="10"/><path fill="none" stroke="black" paint-order="fill stroke markers" d=" M 109 149 L 113 149" stroke-linejoin="bevel" stroke-miterlimit="10"/><path fill="none" stroke="black" paint-order="fill stroke markers" d=" M 109 119 L 113 119" stroke-linejoin="bevel" stroke-miterlimit="10"/><path fill="none" stroke="black" paint-order="fill stroke markers" d=" M 109 98 L 113 98" stroke-linejoin="bevel" stroke-miterlimit="10"/><path fill="none" stroke="black" paint-order="fill stroke markers" d=" M 109 81 L 113 81" stroke-linejoin="bevel" stroke-miterlimit="10"/><path fill="none" stroke="black" paint-order="fill stroke markers" d=" M 109 68 L 113 68" stroke-linejoin="bevel" stroke-miterlimit="10"/><path fill="none" stroke="black" paint-order="fill stroke markers" d=" M 109 57 L 113 57" stroke-linejoin="bevel" stroke-miterlimit="10"/><path fill="none" stroke="black" paint-order="fill stroke markers" d=" M 109 47 L 113 47" stroke-linejoin="bevel" stroke-miterlimit="10"/><path fill="none" stroke="black" paint-order="fill stroke markers" d=" M 109 38 L 113 38" stroke-linejoin="bevel" stroke-miterlimit="10"/><path fill="none" stroke="black" paint-order="fill stroke markers" d=" M 109 31 L 113 31" stroke-linejoin="bevel" stroke-miterlimit="10"/><path fill="" stroke="black" paint-order="fill stroke markers" d=" M 109 31 L 113 31" stroke-linejoin="bevel" stroke-miterlimit="10"/><g transform="translate(102,537) rotate(0,0,0)"><text fill="" stroke="none" font-family="helvetica" font-size="26px" font-style="normal" font-weight="normal" text-decoration="normal" x="0" y="0" text-anchor="end" dominant-baseline="central">10^-3</text><g transform="rotate(0,0,0) translate(-102,-537) translate(102,368) rotate(0,0,0)"><text fill="" stroke="none" font-family="helvetica" font-size="26px" font-style="normal" font-weight="normal" text-decoration="normal" x="0" y="0" text-anchor="end" dominant-baseline="central">10^-2</text><g transform="rotate(0,0,0) translate(-102,-368) translate(102,199) rotate(0,0,0)"><text fill="" stroke="none" font-family="helvetica" font-size="26px" font-style="normal" font-weight="normal" text-decoration="normal" x="0" y="0" text-anchor="end" dominant-baseline="central">10^-1</text><g transform="rotate(0,0,0) translate(-102,-199) translate(102,31) rotate(0,0,0)"><text fill="" stroke="none" font-family="helvetica" font-size="26px" font-style="normal" font-weight="normal" text-decoration="normal" x="0" y="0" text-anchor="end" dominant-baseline="central">10^0</text><g transform="rotate(0,0,0) translate(-102,-31) translate(26,288) rotate(-90,0,0)"><text fill="" stroke="none" font-family="helvetica" font-size="26pt" font-style="italic" font-weight="normal" text-decoration="normal" x="0" y="0" text-anchor="middle" dominant-baseline="alphabetic">CCDF</text><g transform="rotate(90,0,0) translate(-26,-288)"/></g></g></g></g></g></g></g><g clip-path="url(#tcQPytPxDlDu)"><g/></g><g clip-path="url(#BDVQutcHFlpw)"><g/></g></g></g></svg>