<svg version="1.1" xmlns="http://www.w3.org/2000/svg" xmlns:xlink="http://www.w3.org/1999/xlink" width="600" height="600" style="width: 600px; height: 600px;"><defs><clipPath id="WmnorMgwJwxb"><path fill="none" stroke="none" d=" M 113 5 L 570 5 L 570 570 L 113 570 L 113 5 Z"/></clipPath><clipPath id="doMBTlvoRyHq"><path fill="none" stroke="none" d=" M 113 5 L 570 5 L 570 570 L 113 570 L 113 5 Z"/></clipPath><clipPath id="IwmggDtfSuHp"><path fill="none" stroke="none" d=" M 113 5 L 570 5 L 570 570 L 113 570 L 113 5 Z"/></clipPath><clipPath id="OTLykoRhkual"><path fill="none" stroke="none" d=" M 113 5 L 570 5 L 570 570 L 113 570 L 113 5 Z"/></clipPath><clipPath id="LeqhMxfochAk"><path fill="none" stroke="none" d=" M 113 5 L 570 5 L 570 570 L 113 570 L 113 5 Z"/></clipPath><clipPath id="DpcXhuLUpTcv"><path fill="none" stroke="none" d=" M 113 5 L 570 5 L 570 570 L 113 570 L 113 5 Z"/></clipPath><clipPath id="BhMtXVqvtaTZ"><path fill="none" stroke="none" d=" M 113 5 L 570 5 L 570 570 L 113 570 L 113 5 Z"/></clipPath><clipPath id="UixXEmiqsRtc"><path fill="none" stroke="none" d=" M 113 5 L 570 5 L 570 570 L 113 570 L 113 5 Z"/></clipPath></defs><g><g transform="scale(1,1) translate(0.5,0.5)"><rect fill="#FFFFFF" stroke="none" x="0" y="0" width="600" height="600"/><rect fill="#ffffff" stroke="none" x="0" y="0" width="600" height="600"/><rect fill="#FFFFFF" stroke="none" x="113" y="5" width="457" height="565"/><rect fill="#ffffff" stroke="none" x="113" y="5" width="457" height="565"/><g><rect fill="none" stroke="#e5e5e5" x="113" y="5" width="457" height="565" stroke-linejoin="bevel" stroke-miterlimit="10"/></g><g clip-path="url(#WmnorMgwJwxb)"><g><g><path fill="none" stroke="#e5e5e5" paint-order="fill stroke markers" d=" M 134 570 L 134 5" stroke-linejoin="bevel" stroke-miterlimit="10"/><path fill="none" stroke="#e5e5e5" paint-order="fill stroke markers" d=" M 236 570 L 236 5" stroke-linejoin="bevel" stroke-miterlimit="10"/><path fill="none" stroke="#e5e5e5" paint-order="fill stroke markers" d=" M 338 570 L 338 5" stroke-linejoin="bevel" stroke-miterlimit="10"/><path fill="none" stroke="#e5e5e5" paint-order="fill stroke markers" d=" M 440 570 L 440 5" stroke-linejoin="bevel" stroke-miterlimit="10"/><path fill="none" stroke="#e5e5e5" paint-order="fill stroke markers" d=" M 542 570 L 542 5" stroke-linejoin="bevel" stroke-miterlimit="10"/></g></g></g><g clip-path="url(#doMBTlvoRyHq)"><g><g><path fill="none" stroke="#e5e5e5" paint-order="fill stroke markers" d=" M 113 537 L 570 537" stroke-linejoin="bevel" stroke-miterlimit="10"/><path fill="none" stroke="#e5e5e5" paint-order="fill stroke markers" d=" M 113 367 L 570 367" stroke-linejoin="bevel" stroke-miterlimit="10"/><path fill="none" stroke="#e5e5e5" paint-order="fill stroke markers" d=" M 113 198 L 570 198" stroke-linejoin="bevel" stroke-miterlimit="10"/><path fill="none" stroke="#e5e5e5" paint-order="fill stroke markers" d=" M 113 29 L 570 29" stroke-linejoin="bevel" stroke-miterlimit="10"/></g></g></g><g clip-path="url(#IwmggDtfSuHp)"><g><g fill="#444444"><path fill="" stroke="none" d=""/><g transform="translate(138.7727272727273,362.4855890630812) rotate(0,0,0)"><path fill="none" stroke="none"/><text fill="" stroke="none" font-family="helvetica" font-size="20pt" font-style="normal" font-weight="normal" text-decoration="normal" x="0" y="0" text-anchor="start" dominant-baseline="text-after-edge">Female mean: 1036.66(±1439)</text></g></g><g fill="#444444"><path fill="" stroke="none" d=""/><g transform="translate(138.7727272727273,327.89063913386565) rotate(0,0,0)"><path fill="none" stroke="none"/><text fill="" stroke="none" font-family="helvetica" font-size="20pt" font-style="normal" font-weight="normal" text-decoration="normal" x="0" y="0" text-anchor="start" dominant-baseline="text-after-edge">Male mean: 736.73(±1174.8)</text></g></g></g></g><g clip-path="url(#OTLykoRhkual)"><g><g><path fill="none" stroke="none"/><path fill="none" stroke="blue" paint-order="fill stroke markers" d=" M 133.7727272727273 31.463397691151613 L 133.7727272727273 32.57330602632487 L 164.47355628936265 33.18583972556951 L 182.43239000514632 34.11430525667549 L 195.17438530599804 34.42641473383219 L 205.0578447027861 35.05463227201733 L 213.1332190217817 35.582274015930466 L 219.9608507238275 36.22047779519778 L 225.87521432263338 36.54166684918823 L 231.09205273756538 37.08011627362532 L 235.7586737194215 37.62253367359733 L 239.9801458912531 38.168977965656836 L 243.83404803841708 38.38869666038238 L 247.37929434574335 38.609073196492545 L 250.6616797404629 38.94088010583528 L 253.71750743520514 39.16291860928402 L 256.5760433392688 39.609015175214154 L 259.26122507380455 40.05783185896075 L 261.7928817542007 40.28327065104622 L 264.18762353801986 40.50940203651487 L 266.45950273605683 40.736230284056774 L 268.62051345624656 40.963759701948675 L 270.68097490788847 41.191994638544315 L 272.6498294317903 41.88097665577277 L 274.53487705505245 42.22790129523605 L 276.34296213284495 42.69302580081944 L 278.0801233623787 43.27859538144014 L 279.7517154699844 43.7504284591638 L 281.3625087570982 43.98748408460244 L 282.91677117020305 44.106298812704495 L 284.4183364518405 44.34450519561017 L 287.2768723559042 44.8232431959741 L 289.96205409043995 45.06378493971158 L 292.49371077083606 45.54723960436877 L 293.7072643210373 45.66860106315164 L 294.8884525546552 45.9119259395427 L 296.0389570781623 46.40100221119576 L 297.16033175269223 46.523780735204696 L 298.25401531423915 46.64676440304186 L 299.32134247288195 47.14076429810052 L 300.36355370583124 47.51345222381792 L 302.3771701676242 47.6381020556006 L 303.35065844842563 48.013323130234994 L 304.3032098657914 48.51661198392253 L 305.2357060716878 48.64297374556054 L 306.14897417492773 48.76955281042103 L 307.9208878062236 49.02336584839156 L 308.7809523790141 49.661754135256274 L 310.4525444866198 49.7900989072283 L 312.0633377737336 50.04746178508094 L 313.61760018683833 50.305727692424966 L 315.1191654684759 50.56490298864253 L 318.66441177580214 50.824994100530034 L 320.0066943086314 51.086007523254466 L 320.6628831070753 51.34794982132678 L 321.9467971705217 51.87464765423658 L 322.57506208418636 52.0069131131454 L 323.1945397874714 52.13941667381903 L 323.80547269787314 52.272159195055906 L 324.4080933376727 52.405141540309955 L 325.0026248652639 52.538364577722746 L 325.5892815712906 52.67182918015885 L 326.73978609479775 52.80553622523951 L 327.8611607693275 53.0736811778105 L 328.4113782024034 53.61291954618537 L 330.02217148951723 53.884027433071765 L 331.0643827224666 54.156137569508246 L 331.57643390262206 54.292570802410296 L 332.0826329411592 54.5661982851002 L 333.0779991842595 54.84084676822465 L 333.56741779684353 55.254750622210736 L 335.0040388824268 55.531985255330255 L 335.47274096807865 55.67099513248638 L 335.9365350883231 56.08960692284427 L 336.39552296541024 56.370009959391155 L 336.84980319156307 56.510613073925015 L 337.7446201661156 56.65148528549298 L 338.1853395612884 56.93404113372981 L 338.62171682285896 57.21768583185565 L 339.0538366774215 57.502427804272315 L 339.4817813956494 57.64521292776135 L 340.741352543521 57.78827557353088 L 341.1533735032551 58.07523776186156 L 341.56159698077533 58.21913948526537 L 341.9660923379473 58.36332309273445 L 342.3669270534563 58.65254039245099 L 343.1578754606895 58.79757631736146 L 343.5481152870742 59.234406727544865 L 343.9349468618491 59.380594875056204 L 344.3184292034737 59.52707394444599 L 345.075574713719 59.67384509592222 L 345.81999448511124 59.96826832079336 L 346.1875645097789 60.11592274959935 L 346.55210923245613 60.26387397142656 L 346.9136780466581 60.412123181817435 L 347.2723191460313 61.00812407443465 L 347.62807956290374 61.157881416179976 L 347.9810052053009 61.6089903342795 L 348.3311408924975 61.75997645507181 L 349.02321643825024 62.06288103101201 L 349.70464424459885 62.36703728230856 L 350.0414666569428 63.13297247756202 L 351.0368329000432 63.441592250771066 L 351.3637121237107 63.596388749625646 L 351.6881966062906 63.751511479488215 L 352.33011992591446 63.90696181831623 L 352.647626187157 64.21885087851564 L 352.9628725982104 64.37529239984406 L 354.20188860026184 64.53206713020222 L 354.80863690734674 64.68917649204235 L 355.108922354308 64.84662191694451 L 355.7034538818993 65.00440484569526 L 356.29011058792594 65.32098902439549 L 356.58055053864257 65.47979320266575 L 356.8690983589887 65.79843312918626 L 357.4406151114331 65.95827186317422 L 359.11220721903874 66.11845845104699 L 359.38477382551 66.27899441016234 L 359.9249260537309 66.43988126782807 L 360.19255184545295 66.60112056138911 L 360.4585702653698 66.7627138383155 L 360.72300050615263 66.92466265629179 L 360.9858614187594 67.08696858330677 L 361.2471715204988 67.24963319774497 L 362.2772629192574 67.4126580884784 L 363.0344084295027 68.06839256411536 L 364.51094294823974 68.23324304304879 L 364.75231648169637 68.5640557710339 L 364.9923817510961 68.8963620152685 L 365.23115286181496 69.06307943213056 L 365.4686436923304 69.2301753224545 L 366.17356998471405 69.39765140853336 L 366.6373641049585 69.56550942444369 L 366.86745259004454 70.41058998263566 L 367.32407450822114 70.58077666672324 L 367.55063220819846 70.75135775831092 L 368.445449182751 71.26548586543964 L 368.66635704105045 71.4376630388652 L 368.88616857792374 71.61024391060499 L 369.7546656940569 71.78323037818592 L 369.9691548966283 72.13042775815666 L 370.1826104122848 72.30464253315904 L 370.8168732857086 72.47927062948588 L 371.6486711358901 72.6543140129964 L 372.0587845638608 72.82977466360848 L 372.26242599741073 73.18195575690953 L 372.8677921468206 73.35868023094474 L 373.0677560700917 73.53583003505076 L 373.46499580700436 73.89141385740123 L 374.0542541714519 74.06985202497634 L 374.2489443037096 74.24872382157463 L 374.4427823976518 74.42803135988612 L 374.6357758784845 74.96858978507771 L 374.8279320747723 75.33118021327238 L 375.20976145475123 75.5131474458181 L 376.3358882277539 75.8784370693806 L 376.7049898118807 76.06176395886268 L 377.0710409348224 76.24554859386217 L 377.6145070632935 76.42979326597487 L 378.3289085795391 76.61450028404784 L 378.6818342219363 76.79967197435406 L 379.72404545488564 76.98531068076704 L 379.8953877721375 77.1714187649398 L 380.23609663504106 77.35799860648444 L 380.5742046415735 77.54505260315517 L 380.9097511992192 77.73258317103307 L 381.2427748265552 77.92059274471302 L 381.4083523419022 78.10908377749382 L 381.90140307829597 78.29805874157023 L 382.2270805292626 78.67747044803644 L 382.8713381976681 78.86791223105803 L 383.3484552037924 79.0588480270402 L 383.50635887824836 79.25028040562563 L 384.28754198090445 79.63464528989476 L 384.5961978207422 80.02102784684058 L 385.50946592398213 80.21498239405156 L 385.6598631271425 80.60443149347861 L 385.8097513709434 80.79993149705899 L 386.108014678348 80.99595214041136 L 386.4042828985347 81.19249620399313 L 386.5516771569314 81.38956649059531 L 386.698582544585 81.5871658255814 L 387.42588843966155 81.78529705713089 L 387.71349940984055 81.98396305648549 L 387.9992548124589 82.18316671819866 L 388.4244606422851 82.38291096038921 L 388.8456232492754 82.78403297804363 L 389.5387818995259 82.98541670989522 L 389.6761213390971 83.18735293553044 L 390.49133331689166 83.38984469481085 L 390.62575507036627 83.59289505275541 L 391.423829522788 83.796507099819 L 391.6866904353948 84.00068395217471 L 392.33709762602786 84.20542875200005 L 392.8506330457081 84.61663489453514 L 392.9780919358928 84.82310265425275 L 393.6099419346518 85.03015119605647 L 393.73523744613806 85.2377837965796 L 394.2329048591507 85.44600376026273 L 394.7250425198202 85.65481441966944 L 395.2117719648751 85.86421913580648 L 395.3326231551948 86.07422129844787 L 395.57334077907717 86.4960316681595 L 395.6932107677315 86.70784680160318 L 395.81275722026055 86.92027323498053 L 395.9319818784503 87.13331450693835 L 396.52333824321903 87.77616320515318 L 396.9908036249165 87.9916998396252 L 397.1069031246119 88.20786947540086 L 397.4533867724121 88.4246758415091 L 397.91118861316784 88.64212270002787 L 398.13832723286754 89.07895311021139 L 398.47686595442735 89.51839147858868 L 399.03540972153905 89.73909841479798 L 399.14627819938636 89.96046913226587 L 399.25686985178254 90.40521796621857 L 399.4772281857766 90.62860420164469 L 399.6964956324622 90.85267045710106 L 400.02337485612964 91.07742088539135 L 400.131800696747 91.30285967747687 L 400.3478593387096 91.75581931048737 L 400.4554947106923 91.98334872837933 L 401.9355538332408 92.21158366497491 L 402.75961358049614 92.67018769107716 L 402.86155133268085 92.90056568220336 L 403.0647256970828 93.13166699630926 L 403.367750371218 93.36349618977141 L 403.56862116345593 93.59605786215474 L 404.6574162603687 93.82935665676047 L 404.8525352269023 94.0633972611821 L 405.04679840574534 94.29818440787068 L 405.1436114142872 94.53372287470876 L 405.72008723674446 94.7700174855944 L 405.91059047138657 95.00707311103298 L 406.10027784385215 95.24489466874053 L 406.57097232435706 95.7228554915597 L 406.6645139299247 95.96300483371351 L 406.75785839813744 96.20394026349504 L 407.1292814029975 96.68819008958206 L 407.31383139405335 96.93151496597329 L 407.680640395469 97.1756468915246 L 408.0444365579291 97.4205912376263 L 408.4052689712803 97.6663534294724 L 408.76318553528665 97.91293894678176 L 409.1182329977888 98.16035332453112 L 409.29469511874464 98.40860215370043 L 409.73279892576824 98.65769108203119 L 409.9935961489733 99.1584121155887 L 410.16661173527694 99.66256277199113 L 410.33895410748033 99.91593895361109 L 410.5962167887729 100.1701903569396 L 410.7668988257082 100.4253230493897 L 411.02169492879284 100.93825688875268 L 411.61058021585455 101.1960704906046 L 411.7774050223908 101.71442268972385 L 413.65204448351517 101.97497414082306 L 413.8113681580922 102.23645117628513 L 414.04928422042775 102.49886039566292 L 414.1283064247494 102.76220846934558 L 414.28592913121946 103.55795360415334 L 414.5995016535036 103.82512525167004 L 415.0657368403956 104.09327020424115 L 415.14296778197473 104.36239557929451 L 415.373855883135 104.6325085726159 L 415.6035466335326 104.90361645950236 L 416.2855573780531 105.1757265959389 L 416.5105803875788 105.44884641979542 L 416.80884369498335 105.72298345204706 L 417.17887035648425 105.99814529801682 L 417.6917686211967 106.55157428176074 L 417.9097769388075 107.1091959492748 L 418.2707563922594 107.38959898582169 L 418.4143284264759 107.67107431192363 L 418.48594029942996 107.95363016016034 L 418.7712355452364 108.23727485828618 L 418.98400745372567 108.52201683070297 L 419.33637155377096 108.80786459996153 L 419.6162583225563 109.09482678829215 L 420.03279995470695 109.38291211916498 L 420.17078116839593 109.96248761819709 L 420.6503582224963 110.54666297087653 L 420.9220887298298 110.84049852307777 L 421.192162333527 111.13551177602989 L 421.32658408700166 111.43171220824797 L 421.4605991174539 112.02771310086518 L 421.793873329266 112.32753310024867 L 422.05869883434656 112.62857936071009 L 422.1905201631182 112.93086195425138 L 422.5836464165105 113.23439107747731 L 422.6488295537695 113.5391770536591 L 422.9086070361286 113.84523033484123 L 423.03792664266325 114.15256150399256 L 423.3595833487961 114.4611812772016 L 423.93274361721586 114.77110050591875 L 423.9959726554676 115.08233017924613 L 424.12216058632987 115.3948814262746 L 424.5610085308806 115.70876551847289 L 424.93373387578606 116.0239938721258 L 425.42587153645553 116.34057805082602 L 425.48700603032063 116.65852976801926 L 425.7914191445673 116.97786088960481 L 426.63281089508564 117.29858343659282 L 426.8703017256011 117.62070958781965 L 426.9294759946212 117.94425168272238 L 427.45851666251224 118.26922222417556 L 428.03902213822926 118.59563388139031 L 428.26911062331527 118.92349949287785 L 428.7824807027122 119.25283206947938 L 429.1776949710627 119.5836447974645 L 429.2899686275645 119.91595104169903 L 429.4019584059972 120.58509845087423 L 429.5694139316382 120.92196726805781 L 430.232975912205 121.26038491283362 L 430.34260946762 121.60036569315378 L 430.3973246490976 121.94192411615444 L 430.50655265457397 122.28507489187024 L 430.5610658107149 122.62983293703553 L 430.6155119561985 123.32423155958958 L 430.6698912555688 123.67390303942699 L 430.88674326168166 124.02524360186345 L 430.9407907775687 124.37826925737528 L 430.9947724220002 125.089441051407 L 431.048688355345 125.44762038631666 L 431.10253873738685 125.80755121637986 L 431.2100434837897 126.16925075541178 L 431.4776692755118 126.53273647224864 L 431.637471976005 126.89802609581119 L 431.74368769542855 127.26513762029282 L 431.79670018981636 127.63408931047843 L 432.0081179362114 128.00489970719758 L 432.1134495762775 128.37758763291498 L 432.3756879608791 128.7521721974636 L 432.5843664801003 129.12867280392442 L 433.0503291691608 129.50710915465748 L 433.20456705145466 129.88750125748857 L 433.5114407993961 130.26986943205617 L 433.56238034931624 130.6542343163253 L 434.66847930933926 131.04061687327112 L 434.76767741076696 131.42903839773953 L 434.8666538402751 131.81952052348953 L 435.11313157023767 132.21208523042372 L 435.358245277004 132.60675485201193 L 435.4071056611906 133.00355208291597 L 435.6991414473434 133.40249998681975 L 435.8444404309226 134.20694196196104 L 436.37316214225956 134.6124840791859 L 436.42091625337986 135.43033369419726 L 436.61141948802197 135.8426916806833 L 436.75376112238916 136.25737282301014 L 436.94284116950934 136.67440344609997 L 437.1780617636251 137.09381032487852 L 437.2718013409924 137.5156206945901 L 437.3185968379745 137.93986226141106 L 437.9685949527938 138.36656321336937 L 438.10664784515143 138.79575223158366 L 438.1984446319448 139.22745850183145 L 439.28541780278533 139.66171172645852 L 439.81906201442416 140.09854213664192 L 440.2589060835868 140.98005815869635 L 440.30265120691905 141.42480699264917 L 440.3463531678138 141.87225948353165 L 441.0827641403692 142.3224487039074 L 441.29704580540823 142.7754083369179 L 442.10199071576744 143.23117269140545 L 442.14395370684895 143.68977671750775 L 442.5198422466642 144.61564688858527 L 443.09828990183365 145.0829862876127 L 444.03249645213094 145.5533119011394 L 444.1128082307507 146.02666213746352 L 445.0260763339907 146.50307615068573 L 445.33937160151066 147.4652559704861 L 445.53406173376845 147.95110399240383 L 445.80519816107056 148.44018026405683 L 445.8437967986101 148.93252797321236 L 445.8823618282763 149.42819118013097 L 446.11304950483117 149.92721484122762 L 446.2661764811133 150.93552798004163 L 446.7602143265161 151.4449120758203 L 447.2114094042141 151.9578459151832 L 447.7320594571709 152.47437931970205 L 448.2101007427534 152.99456316725366 L 448.3196890884088 153.51844942209345 L 448.46538637035763 154.0460911660066 L 448.61060595544285 154.57754263058388 L 449.507597603307 155.11285923067163 L 449.75553390560003 155.65209759904639 L 450.14236548037485 156.19531562236938 L 450.5605457742429 156.7425724784776 L 450.9404399327966 157.29392867507187 L 453.0555760411448 157.8494460898641 L 453.47973776455706 158.40918801225223 L 453.70646113816434 158.97321918659088 L 454.1884238238267 159.5416058571335 L 454.696801672103 160.1144158147227 L 455.3864281606776 160.69171844531212 L 455.6654822191734 161.27358478040605 L 455.85054627855044 161.86008754950842 L 456.0654815609351 162.4513012346785 L 456.6436737233042 163.04730212729572 L 456.85480353160244 163.64816838714063 L 456.9749988123479 164.25398010390785 L 457.27406769860676 164.86481936127177 L 457.511877310291 165.48077030363214 L 457.6007277588897 166.10191920567667 L 457.8956152248164 166.72835454490342 L 458.6532588813924 167.36016707725656 L 458.82627446769595 167.99744991603535 L 458.85504480568284 168.64029861425018 L 459.08453720394004 169.2888112506061 L 459.17029121673625 169.9430885193084 L 459.34130275649125 170.60323382389498 L 459.56829586714906 171.26935337531552 L 459.65311925810454 171.9415562944884 L 459.8785239876981 172.61995471958437 L 460.4648109024588 173.30466391830078 L 460.6032665756096 173.99580240540632 L 461.0434384842554 174.69349206585753 L 461.18009991255593 175.39785828380587 L 461.4521642432494 176.10903007783753 L 461.8302684130778 176.82714024281057 L 462.2318299467225 177.55232549867918 L 462.6825748569361 178.2847266467233 L 463.20705622253195 179.02448873362817 L 463.36319716134517 179.7717612238941 L 463.46698615734005 180.52669818108814 L 463.5446686100625 181.28945845848676 L 463.5705325137308 182.06020589970166 L 463.6480337299589 182.83910954992018 L 465.0453715014163 183.62634387844258 L 465.3196258375645 184.42208901325034 L 465.3693083259746 185.22653098839157 L 465.7647746475891 186.0398620050359 L 466.08351122323774 186.86228070711388 L 466.35143135361574 187.69399247253057 L 466.8824581738378 188.5352097210207 L 466.9783281977903 189.38615223979997 L 467.2409057771142 190.247047528262 L 467.5255897809019 191.1181311630724 L 468.2526645914462 191.99964718512695 L 468.9679966007282 192.89184850996224 L 470.1648435685574 193.79499736334844 L 470.3205271515979 194.7093657439383 L 470.78432127184243 195.63523591501593 L 471.00348022355445 196.57290092757 L 471.0471821844492 197.52266517711627 L 471.1344569590389 200.44778020656156 L 471.26504752177004 201.4492338599713 L 471.2867752307039 202.46450110225084 L 471.50346809821235 203.4939683461326 L 471.63297676876846 204.53803844852405 L 472.4233529620635 205.59713165701442 L 473.90162286094073 206.67168662547692 L 474.43085263079155 207.7621615049082 L 474.63273052710707 208.86903511629464 L 475.37177881211807 209.99280821302136 L 475.5891387270403 211.13400484115317 L 475.8446509240191 212.29317380683653 L 476.0986975675781 213.47089026110893 L 476.31252781458255 214.6677574135711 L 476.50602717770596 215.8844083877023 L 477.9122384208495 217.12150823210726 L 478.3032986064758 218.3797561036872 L 478.7276778067402 219.65988764068078 L 479.2751746886176 220.96267754573898 L 479.49229244580147 222.28894240174623 L 479.9947995155858 223.6395437460149 L 480.26167278997775 225.01539143183686 L 480.29713470842404 226.41744731023647 L 480.7906432544126 227.8467292692411 L 480.82568434308644 229.30431567315384 L 480.8956834627899 230.79135025032463 L 481.13981284967684 232.30904748491736 L 481.3998954159754 233.85869857635072 L 481.89843205103534 235.44167803968094 L 482.42521744613725 237.05945103146644 L 483.0292077206997 238.7135814989611 L 483.7400097461832 240.4057412662305 L 486.1028063906633 242.13772018950306 L 486.3199241478472 243.91143753639267 L 487.10197272246006 245.72895477036872 L 488.12367728434106 247.59248995400043 L 488.25715383067995 249.5044340233472 L 488.71385168932034 251.46736923299198 L 488.860174695783 253.48409012868137 L 489.2383675610756 255.5576274749546 L 491.3179173847658 257.69127565190763 L 492.166552707036 259.88862414272523 L 492.9193320687866 262.15359386758394 L 493.5808129083111 264.4904792875397 L 493.751191913807 266.903997414133 L 493.86876384656927 269.3993451301178 L 493.959993402558 271.9822665721695 L 495.2684514968336 274.65913277244545 L 496.7232226176827 277.437036336667 L 497.7628735985803 280.3239046995845 L 497.7748201755303 283.32863651134784 L 497.90602029072045 286.4612670661115 L 499.081253306343 289.73317052539164 L 499.9199014102854 293.1573092159336 L 501.1211502782835 296.74854379679937 L 501.1432962456317 300.5240230497777 L 501.9115105885657 304.50367915511185 L 503.28268841211315 308.710864678338 L 503.8278267862105 313.17318289401425 L 505.7844484097856 317.9235864405633 L 506.09241195775473 323.00185559859983 L 506.8676755231255 328.4566253630973 L 509.54770679989633 334.34822553777826 L 512.1784523269785 340.75275955182246 L 514.5391197212803 347.7681328232302 L 515.5820919709436 355.5232681815428 L 516.0035822672235 364.1927719204451 L 516.974317444234 374.0214446250309 L 521.8803339957187 385.3678145642093 L 522.7451970012936 398.7877218496608 L 524.1435480399035 415.2123609468757 L 526.1899368209633 436.3874035906398 L 526.4782804594108 466.2319499733063 L 532.8672813276653 517.2515389997369" stroke-linejoin="bevel" stroke-miterlimit="10"/><path fill="none" stroke="none"/><path fill="none" stroke="blue" paint-order="fill stroke markers" d=" M 549.2272727272727 NaN" stroke-linejoin="bevel" stroke-miterlimit="10"/></g></g></g><g clip-path="url(#LeqhMxfochAk)"><g><g><path fill="none" stroke="none"/><path fill="none" stroke="red" paint-order="fill stroke markers" d=" M 133.7727272727273 30.68181818181813 L 133.7727272727273 31.301804414225103 L 164.47355628936265 31.78765243614282 L 182.43239000514632 31.996858758155554 L 195.17438530599804 32.628069270232345 L 205.0578447027861 32.83968141812204 L 213.1332190217817 32.91035421095114 L 219.9608507238275 33.19372591061767 L 225.87521432263338 33.33582191628625 L 231.09205273756538 33.549481596286796 L 235.7586737194215 33.83532936554536 L 239.9801458912531 34.19420724897327 L 243.83404803841708 34.26619327727974 L 247.37929434574335 34.41037688474887 L 250.6616797404629 34.48257474053901 L 253.71750743520514 34.627183250857 L 256.5760433392688 34.69959418446547 L 259.26122507380455 34.91725538224023 L 261.7928817542007 35.281460519559346 L 264.18762353801986 35.35451830032309 L 266.45950273605683 35.500851764180084 L 268.62051345624656 35.794394358922204 L 270.68097490788847 36.08911230252329 L 272.6498294317903 36.162976541613716 L 276.34296213284495 36.53341370032308 L 278.0801233623787 36.68211215105043 L 279.7517154699844 36.756574178722644 L 281.3625087570982 36.980413301283875 L 282.91677117020305 37.13001845050394 L 284.4183364518405 37.4301440776444 L 285.87066111276056 37.505367086824776 L 287.2768723559042 37.80703024708612 L 288.63980862367214 37.88263960974564 L 289.96205409043995 37.95832671983521 L 291.24596815388634 38.10993482302638 L 292.49371077083606 38.18585613772723 L 293.7072643210373 38.4903269258574 L 294.8884525546552 38.71950938836744 L 296.0389570781623 39.10307309155132 L 298.25401531423915 39.25705998469425 L 300.36355370583124 39.411369701748754 L 301.38180392452387 39.56600359911931 L 302.3771701676242 39.72096304177717 L 303.35065844842563 39.876249403332736 L 304.3032098657914 40.1097949448299 L 305.2357060716878 40.736230284056774 L 306.14897417492773 40.893675708958995 L 307.9208878062236 41.05145863770963 L 308.7809523790141 41.288769025142756 L 309.6246337691604 41.52684699468011 L 310.4525444866198 41.92536290090766 L 311.26526332131186 42.0053256551887 L 312.0633377737336 42.16551224306147 L 312.8472862704389 42.406447672843115 L 314.37474569708365 42.56751055565758 L 315.1191654684759 42.64817435340353 L 316.5714901293959 42.728926646831155 L 317.28017618866556 42.97171644830621 L 317.97770137253946 43.05282467477957 L 318.66441177580214 43.13402237532125 L 319.3406376403075 43.37815430087255 L 321.3094921642093 43.70492823636573 L 321.9467971705217 43.8688608388203 L 322.57506208418636 43.95096425846168 L 323.1945397874714 44.03315936256615 L 323.80547269787314 44.197825444836894 L 324.4080933376727 44.44551734905224 L 325.5892815712906 44.69404558092333 L 326.1682693423533 44.94341580728292 L 326.73978609479775 45.11013322414499 L 327.30402218087033 45.19363375275577 L 327.8611607693275 45.27722911446892 L 328.4113782024034 45.52858635843097 L 328.9548443308745 45.61256321645817 L 329.4917228288176 45.696635993247355 L 330.02217148951723 45.86507018133898 L 330.54634250386334 46.03389068671413 L 331.0643827224666 46.372697766287615 L 331.57643390262206 46.54268792977996 L 332.58311209413614 46.71307158937225 L 333.0779991842595 46.79841155032534 L 333.56741779684353 46.88385057103471 L 334.05148746506103 46.96938888173827 L 334.5303238451796 47.226601868267835 L 335.0040388824268 47.39857789995267 L 335.47274096807865 47.65729770261942 L 336.39552296541024 47.83028417020034 L 337.2994713560911 48.090528547646954 L 337.7446201661156 48.26453739482736 L 338.62171682285896 48.61379407894378 L 339.0538366774215 48.70136780501082 L 339.4817813956494 48.78904584763143 L 339.9056308863053 48.8768284556229 L 340.32546278579576 48.96471587869348 L 340.741352543521 49.140806173388114 L 341.56159698077533 49.40573402295911 L 341.9660923379473 49.5828838270653 L 342.3669270534563 49.67161886864585 L 342.76416679036896 49.84941052049135 L 343.1578754606895 49.93846764941566 L 343.5481152870742 50.206287379979926 L 343.9349468618491 50.3853767823847 L 344.3184292034737 50.65483056009316 L 344.69861981058136 50.83501598196381 L 345.075574713719 50.92527437227636 L 345.44934852490474 51.10612386885032 L 345.81999448511124 51.28741880798384 L 346.1875645097789 51.3782340052868 L 346.55210923245613 51.56020123783253 L 347.2723191460313 51.65135382914332 L 347.62807956290374 51.74261944291504 L 347.9810052053009 51.83399835977434 L 348.67853038917485 51.92549086139502 L 349.3652407924375 52.200652707364725 L 349.70464424459885 52.38466707339717 L 350.0414666569428 52.47684705798929 L 350.37574698912005 52.754081691108695 L 351.0368329000432 52.84672576636842 L 351.6881966062906 53.03236447278141 L 352.33011992591446 53.12535969434521 L 352.647626187157 53.218472556954225 L 352.9628725982104 53.31170335862271 L 353.89536880410685 53.40505239849881 L 354.20188860026184 53.592106395169594 L 354.80863690734674 53.873581721271535 L 355.7034538818993 53.96764653672744 L 355.9977535279496 54.06183171666328 L 356.29011058792594 54.156137569508246 L 356.58055053864257 54.250564404879015 L 356.8690983589887 54.3451125335846 L 357.4406151114331 54.62948780583247 L 357.7236316256497 54.72452424005087 L 358.5619897859629 54.81968353976481 L 359.38477382551 55.010372009309435 L 359.9249260537309 55.20155577413652 L 360.19255184545295 55.29733419764 L 360.72300050615263 55.393237413913084 L 361.2471715204988 55.58541952851294 L 361.5069490028579 55.87463682822954 L 362.2772629192574 56.068081638855006 L 363.0344084295027 56.16499502754505 L 363.2839411107716 56.262036186065984 L 363.77882820089485 56.35920545176418 L 364.0242135031848 56.45650316332342 L 364.9923817510961 56.553929660772724 L 365.23115286181496 56.65148528549298 L 365.4686436923304 56.74917038022443 L 365.93983892108463 56.84698528907347 L 366.17356998471405 57.043005932425785 L 367.09635198204563 57.14121236203982 L 367.55063220819846 57.23954999600767 L 368.0003003727265 57.43662028260985 L 368.2234340122658 57.535353641581196 L 368.445449182751 57.63421961759593 L 368.88616857792374 57.73321856739096 L 369.3225458394943 57.93161682248672 L 369.53913274429794 58.03101684849986 L 369.7546656940569 58.230220510213144 L 370.1826104122848 58.33002487543882 L 370.6064599029407 58.42996475240369 L 371.02629180243116 58.53004050959652 L 371.44218156015637 58.63025251701151 L 371.6486711358901 58.83108677005799 L 371.8542025198905 59.13336936359934 L 372.0587845638608 59.234406727544865 L 372.26242599741073 59.43689848682527 L 372.6669213545826 59.53835364841052 L 372.8677921468206 59.74168446300695 L 373.0677560700917 60.04773774418925 L 374.0542541714519 60.15003895325839 L 374.2489443037096 60.25248254401447 L 375.0192582201091 60.457798459781145 L 375.39944882721676 60.766850172359455 L 375.5883272958502 60.870156446267174 L 375.96368491328934 61.07720498807089 L 376.15017754154013 61.1809480751204 L 376.7049898118807 61.28483758859403 L 376.88839352641423 61.38887394241823 L 377.0710409348224 61.493057552277094 L 377.25293824909147 61.806496101478274 L 377.6145070632935 61.911272927820846 L 377.7941906110359 62.01619911533487 L 377.9731481626667 62.12127509046235 L 378.1513855612366 62.33187811847938 L 379.37935940581025 62.43740603343929 L 379.5520377289072 62.648916834375484 L 379.72404545488564 62.861037177367166 L 380.23609663504106 62.96732702699501 L 380.5742046415735 63.07377058578635 L 381.0765760057554 63.18036829895277 L 381.4083523419022 63.28712061364274 L 381.7376619166785 63.39402797895332 L 381.90140307829597 63.50109084594084 L 382.064541140346 63.71568489904058 L 382.2270805292626 63.82321699716755 L 382.389025622926 63.93090642102459 L 382.71115019748004 64.14675909207028 L 383.03094894254986 64.25492326741534 L 383.3484552037924 64.36324662482713 L 383.50635887824836 64.47172963352347 L 383.6637016148458 64.58037276480002 L 383.82048738483877 64.68917649204235 L 383.97672011745715 64.79814129073833 L 384.28754198090445 64.90726763849068 L 384.44213876533934 65.12600690222575 L 384.9027176168972 65.34539814684649 L 385.3585562932454 65.45533947882734 L 385.8097513709434 65.67571601493756 L 386.108014678348 65.7861522068124 L 386.25639650480633 66.00752292428024 L 386.4042828985347 66.11845845104699 L 386.5516771569314 66.452271758233 L 386.698582544585 66.67565799365912 L 386.8450022937074 66.78760586022224 L 386.9909396045613 66.89972424911554 L 387.71349940984055 67.12447467740577 L 387.85660755945474 67.23710776453572 L 388.1414441280685 67.57604485495978 L 388.28317843709027 67.80287310250174 L 388.4244606422851 68.0304025203937 L 388.8456232492754 68.1444315255024 L 389.1241897887288 68.25863745698945 L 389.5387818995259 68.37302086474278 L 389.81303623567413 68.48758230121808 L 390.0856028421454 68.60232232145478 L 390.2212597131944 68.71724148309158 L 390.49133331689166 68.94761947421779 L 390.62575507036627 69.06307943213056 L 390.75977010081857 69.17872078832374 L 391.0265897858754 69.29454411368101 L 391.55545498005455 69.41054998178578 L 392.0780797312863 69.5267389689376 L 392.2077780194933 69.64311165416916 L 392.4660407557373 69.87641044877483 L 392.8506330457081 70.11045105319653 L 392.9780919358928 70.2277510112113 L 393.1051850898785 70.4629132178772 L 393.23191460058047 70.58077666672324 L 393.35828254300037 70.69882915085287 L 393.73523744613806 70.81707127760876 L 393.8601795142452 70.93550365726531 L 393.9847701274069 71.1729416311494 L 394.7250425198202 71.2919484607549 L 395.090590127932 71.41114801405519 L 395.3326231551948 71.53054091626962 L 395.57334077907717 71.65012779566462 L 395.6932107677315 71.76990928357418 L 395.81275722026055 72.01005862572788 L 395.9319818784503 72.13042775815666 L 396.0508864700586 72.49272073607005 L 396.40569691569755 72.61388242281379 L 396.52333824321903 72.7352438815966 L 396.7576876458769 72.97856875798766 L 397.1069031246119 73.10053350515904 L 397.2226990958573 73.22270068353902 L 398.02490352485654 73.46764502964066 L 398.36430697701786 73.59042355364977 L 398.8128367216476 73.71340722148688 L 398.9242630289012 74.08359597200104 L 399.14627819938636 74.20740711654554 L 399.36718605768584 74.33142687305815 L 399.4772281857766 74.58009504226294 L 399.58699759455914 74.70474487404556 L 399.80572363793857 74.82960615602582 L 400.02337485612964 74.95467960681151 L 400.131800696747 75.07996594868001 L 400.23996176093334 75.20546590760313 L 400.5628691481839 75.33118021327238 L 400.7768402588764 75.7096165640055 L 400.9897826583335 75.83619562886594 L 401.3072889195761 75.96299274562546 L 401.4126205596421 76.09000866683652 L 402.2463756966881 76.21724414895408 L 402.3495001525254 76.34469995236282 L 402.45238506237274 76.47237684140418 L 402.86155133268085 76.6002755844043 L 403.367750371218 76.72839695370124 L 403.4682996397658 76.85674172567332 L 403.56862116345593 76.98531068076704 L 404.5595334939603 77.11410460352602 L 404.6574162603687 77.24312428261914 L 404.7550831880872 77.50184408528594 L 404.8525352269023 77.63154580708749 L 405.04679840574534 77.76147648173833 L 405.24021327106163 78.02202793283755 L 405.3366048951198 78.28350496829955 L 405.91059047138657 78.41459263977168 L 406.4772327469898 78.54591418767728 L 406.57097232435706 78.67747044803644 L 406.6645139299247 78.80926226135995 L 406.9439592339985 78.9412904726816 L 407.0367172443893 79.07355593159042 L 407.1292814029975 79.20605949226393 L 407.40581882851603 79.33880201350092 L 407.4976156153095 79.47178435875486 L 407.58922254304963 79.73847199860393 L 407.680640395469 79.87217904368447 L 407.86291198510264 80.14032399625552 L 408.13492062162186 80.27476368308527 L 408.2252202120702 80.5443819628573 L 408.31533607992884 80.67956236463027 L 408.49501962767124 80.81499148853385 L 409.0297375961744 80.95067025151673 L 409.29469511874464 81.0865995756078 L 409.3826632385717 81.35921362085531 L 409.4704569913472 81.49590021180978 L 409.73279892576824 81.63284110354516 L 410.424874471521 81.77003724406154 L 410.5106284843172 81.90748958666967 L 410.68164002407224 82.04519909003125 L 410.8519938255111 82.18316671819866 L 411.1063022778696 82.32139344065575 L 411.86058238725514 82.4598802323581 L 411.9436038431906 82.59862807377522 L 412.02646997357976 82.73763795093129 L 412.35639279345355 82.87691085544793 L 412.6838762356038 83.01644778458615 L 413.0089561078959 83.29631773422642 L 413.0898546395614 83.43665277783606 L 413.25120976800605 83.57725589237009 L 413.3316674354956 83.71812810393811 L 413.4921456319705 83.85927044455269 L 413.5721672143035 84.00068395217471 L 413.65204448351517 84.14236967075902 L 413.7317779591852 84.4265619468813 L 413.8113681580922 84.56907062271733 L 413.89081559423397 84.71185574620642 L 414.1283064247494 84.85491839197596 L 414.28592913121946 84.99825964093168 L 414.4429928907484 85.14188058030652 L 414.52131640147417 85.28578230371028 L 414.9108697813118 85.57443250922739 L 415.0657368403956 85.71918321089595 L 415.14296778197473 85.86421913580648 L 415.2200642919079 86.00954141021151 L 415.4505518915172 86.15515116704807 L 415.6035466335326 86.30104954598988 L 415.9079597477792 86.44723769350122 L 416.1349043968436 86.593716762891 L 416.4356996702111 86.74048791436712 L 416.5853347239289 86.88755231509225 L 416.88309674468485 87.18256556804431 L 417.3260197734695 87.33051678987164 L 417.39941156122035 87.62731440199707 L 417.54583131034275 87.77616320515318 L 417.9097769388075 87.9253136271642 L 418.12671745629694 88.07476689287955 L 418.19879547671695 88.22452423462494 L 418.5574365760901 88.52495611325537 L 418.7000838290943 88.67563315272452 L 419.0547048889647 88.82661927351671 L 419.26612263535975 88.97791574626586 L 419.6162583225563 89.12952384945692 L 419.68595453485017 89.28144486949174 L 419.7555412479437 89.43368010075346 L 419.8250188053642 89.58623084567347 L 420.1018442925754 89.73909841479798 L 420.17078116839593 89.8922841268556 L 420.3083338683091 90.04578930882565 L 420.71844729627975 90.19961529600698 L 420.78643185878076 90.3537634320877 L 420.85431223034055 90.50823506921603 L 421.32658408700166 90.66303156807055 L 421.4605991174539 90.97360463676114 L 421.5274548792396 91.1293839712605 L 421.6608644191789 91.28549369696066 L 421.9264840084876 91.59870994864724 L 422.05869883434656 91.75581931048737 L 422.25628399668994 91.91326473538953 L 422.321950330102 92.07104766414028 L 422.7139169038709 92.22916954681148 L 422.7789087479217 92.38763184284039 L 422.84380536579334 92.54643602111071 L 422.9733140363494 92.70558356003369 L 423.8060141065138 92.86507594763117 L 423.9959726554676 93.0249146816193 L 424.12216058632987 93.18510126949195 L 424.31077095128717 93.34563722860736 L 424.37346301238864 93.50652408627303 L 424.68559914404227 93.66776337983407 L 424.93373387578606 93.82935665676047 L 425.3646525442997 93.9913054747368 L 425.42587153645553 94.15361140175179 L 425.5480562588333 94.64268767340474 L 425.60902245396966 94.80643792576177 L 426.2141129271572 94.97055328489228 L 426.3341453414691 95.13503538256032 L 426.51358623689595 95.46510637548278 L 426.7517154866939 95.63069858947892 L 427.0475878880094 95.79666417969639 L 427.1065259323329 95.96300483371351 L 427.2241672598544 96.29681814089946 L 427.34149695435536 96.46429422697832 L 427.5169107827351 96.6321522428886 L 427.6334685704572 96.96902106007224 L 427.80773214124724 97.13803538938953 L 427.92352811249265 97.30743870484804 L 428.4408959728782 97.47723280108056 L 428.8957593674601 97.64741948516826 L 429.51366573828295 97.98897790816886 L 429.9576988684179 98.16035332453112 L 430.2878266111945 98.3321286838846 L 430.3973246490976 98.50430585731027 L 430.7784499711238 98.67688672904995 L 431.1563237273276 98.84987319663094 L 431.3172879278885 99.02326717099015 L 431.42427332718415 99.37128535160406 L 431.69061167496886 99.54591344793084 L 431.79670018981636 99.72095683144136 L 431.9025352073737 99.89641748205344 L 432.3233643472648 100.07229739387782 L 432.9472047133235 100.24859857535444 L 433.10180149775834 100.78005003993178 L 433.1532140790081 100.95805667584625 L 433.20456705145466 101.49467417833114 L 433.3582696942144 101.6744195865237 L 433.66408403068147 101.8546050083944 L 433.8162030140039 102.03523260352273 L 433.8667934635629 102.39782303171734 L 434.01821902566445 102.57979026426295 L 434.3195258595615 102.76220846934558 L 434.36954498828055 102.94507988782556 L 434.4195076938306 103.12840677730765 L 434.8666538402751 103.31219141230719 L 435.01470501023624 103.49643608441977 L 435.5533642435377 103.6811431024928 L 435.89276769569904 103.86631479279902 L 436.22959010804306 104.051953499212 L 436.32535648864564 104.23806158338476 L 436.5638704402203 104.4246414249294 L 436.8011068604875 104.61169542160019 L 436.89564677636696 104.79922598947797 L 437.03707936202505 104.98723556315792 L 437.13111747330214 105.1757265959389 L 437.36534294656 105.36470156001525 L 437.45868741477284 105.55416294667202 L 437.55183557481087 105.74411326648146 L 437.87632005739084 105.93455504950305 L 438.29005155968497 106.31692322407065 L 438.51824337701464 106.5088547750035 L 438.60919193828 106.89422585466002 L 438.6999541294121 107.0876706652856 L 439.01616509656424 107.28162521249658 L 439.0611543678508 107.47609218975396 L 439.19584864430664 107.86657431550401 L 439.464014551922 108.06259495885627 L 439.5085514423246 108.25913902243815 L 439.6862525182944 108.45620930904033 L 439.77483641536935 108.85193987557591 L 439.81906201442416 109.05060587493045 L 439.9073809545025 109.24980953664368 L 439.99552413538 109.44955377883423 L 440.2589060835868 109.649841543442 L 440.30265120691905 109.85067579648859 L 440.4336279424035 110.05205952834018 L 440.65106546192715 110.2539957539754 L 440.6944251656087 110.45648751325581 L 440.73774246370533 110.65953787120037 L 441.2114575009526 110.86314991826396 L 441.2542723266871 111.06732677061979 L 441.3824690407076 111.27207157044506 L 442.4365867075387 111.47738748621174 L 442.5198422466642 111.6832777129801 L 442.7686739897428 111.88974547269771 L 442.85130821851305 112.09679401450154 L 443.0161156041004 112.30442661502457 L 443.1803120248544 112.51264657870769 L 443.3030611115667 112.72145723811445 L 443.3439019939196 112.93086195425138 L 443.50688997461697 113.14086411689294 L 443.6692803811749 113.35146714490998 L 444.5519387061273 113.56267448660458 L 445.0260763339907 113.77448962004809 L 445.06535964811656 114.19995732538337 L 445.1046081520348 114.41361700538386 L 445.26125529594736 114.62789869406373 L 445.33937160151066 114.84280602359814 L 445.3783781507279 115.05834265807022 L 445.6116987979472 115.27451229384587 L 445.72789982771064 115.49131865995412 L 445.80519816107056 115.70876551847289 L 445.92089330854327 115.92685666492122 L 446.34254190308826 116.14559592865635 L 446.38067529655314 116.36498717327714 L 446.68456625727555 116.58503429703359 L 446.7602143265161 117.02711195071078 L 446.8357334134789 117.24915045415958 L 446.9111239572528 117.47186078466353 L 446.94877116204674 117.69524702008971 L 447.24880234334813 117.91931327554607 L 447.39805921171484 118.14406370383637 L 447.4352949715989 118.59563388139031 L 447.47249945406656 118.82246212893227 L 447.7320594571709 119.04999154682429 L 447.9165325842015 119.27822648341999 L 448.1368909181956 119.73683050952212 L 448.283189758965 119.96720850064833 L 448.46538637035763 120.19830981475428 L 448.57434567198214 120.6627006805997 L 448.64683657813663 120.89599947520549 L 448.6830375885487 121.36482722631564 L 448.86360014506835 121.60036569315378 L 448.93561956544596 121.83666030403941 L 449.07930804109475 122.07371592947794 L 449.32964664568277 122.55012994270021 L 449.43650299129547 122.78949831000472 L 449.5431021613392 123.02964765215842 L 449.9317853668818 123.27058308194012 L 450.0722832920612 123.51230976250054 L 450.14236548037485 123.75483290802714 L 450.52584782199955 123.99815778441825 L 450.6298602387389 124.24228970996961 L 450.87161018503133 124.48723405607126 L 451.043484416126 124.73299624791736 L 451.21469426894487 124.97958176522678 L 451.3171034099981 125.22699614297613 L 451.8593220716323 125.47524497214539 L 452.228283895875 125.97426863324205 L 452.4282478191461 126.22505493403366 L 452.6604037504375 126.47669862555517 L 452.69346977196096 126.72920559043604 L 452.82548755605876 126.98258177205605 L 453.02277934673737 127.23683317538467 L 453.3170789927877 127.49196586783467 L 453.382214201252 127.74798598013183 L 453.57704706867094 128.00489970719758 L 453.8354981814295 128.26271330904967 L 453.9641603888922 128.52143311171642 L 454.0924499319447 128.78106550816892 L 454.1244643415593 129.30309399473015 L 454.1884238238267 129.56550321410788 L 454.31606637260865 129.82885128779054 L 454.3797499691635 130.09314495802096 L 454.4433421319518 130.35839103993152 L 454.8859490077006 130.6245964225983 L 455.0115999679225 131.15991302268606 L 455.3241766623437 131.42903839773953 L 455.6963799768083 131.69915139106092 L 455.881315250801 131.97025927794726 L 456.4315326838768 132.2423694143838 L 456.46190082615215 132.51548923824032 L 457.1546823600903 132.78962627049208 L 457.27406769860676 133.06478811646173 L 457.36339599868063 133.61821710020575 L 458.2760570346201 133.89649988187853 L 458.3051868835974 134.17583876771977 L 458.3633891702557 134.4562418042666 L 458.4795648008578 134.7377171303686 L 458.50856115788264 135.30391767673103 L 458.5664969853368 135.58865964914793 L 458.5954365053297 135.87450741840655 L 458.85504480568284 136.16146960673706 L 458.941243860668 136.44955493761 L 459.0559155979208 136.7387722373266 L 459.08453720394004 137.0291304366421 L 459.22736845887914 137.32063857242042 L 459.2558795211919 137.61330578932154 L 459.65311925810454 137.9071413415228 L 459.8222802547137 138.2021545944749 L 459.8785239876981 138.498355026693 L 459.96275589981684 138.79575223158366 L 460.1865943232723 139.0943559193102 L 460.49253668350406 139.39417591869358 L 460.87888621904733 139.695222179155 L 461.0708045239109 139.9975047726964 L 461.34353896802287 140.30103389592233 L 461.61460428023844 140.605819872104 L 461.641619794204 140.9118731532862 L 461.91087250042506 141.21920432243752 L 461.9377079655135 141.5278240956465 L 461.9645271814546 141.83774332436383 L 461.99133016791455 142.1489729976911 L 462.1251023438195 142.4615242447196 L 462.3648788114837 142.7754083369179 L 462.41798665210723 143.09063669057088 L 462.44451671206394 143.407220869271 L 462.76164408431407 143.72517258646423 L 463.0765169775145 144.04450370804977 L 463.3372118665115 144.36522625503784 L 463.5705325137308 144.68735240626455 L 463.6480337299589 145.0108945011673 L 463.90539606809 145.33586504262047 L 463.93105024417554 145.66227669983533 L 463.95668956979654 145.9901423113228 L 464.2377469141014 146.3194748879244 L 464.26320936595164 146.65028761590946 L 464.39030251993734 146.98259386014405 L 464.86995767303654 147.31640716733006 L 464.9452201104721 147.65174126931925 L 465.02035487619685 147.98861008650283 L 465.12033671046595 148.6670085115988 L 465.29476367930664 149.00856693459946 L 465.56748285691043 149.35171771031514 L 465.5921924440358 150.0428561974207 L 465.7647746475891 150.3908743780346 L 466.2541932601731 150.7405458578719 L 466.327141836268 151.0918864203084 L 466.35143135361574 151.4449120758203 L 466.3757075579908 151.79963906636237 L 466.47267953711696 152.15608386985195 L 466.5452694475579 152.51426320476168 L 466.6177405852536 152.87419403482494 L 466.73826292839055 153.23589357385669 L 466.7623280926737 153.5993792906936 L 466.78638018871595 153.9646689142561 L 467.02618550528103 154.33178043873772 L 467.145603031849 154.70073212892345 L 467.19328003728515 155.07154252564254 L 467.2646994568556 155.44423045135994 L 467.83194648993754 155.81881501590857 L 467.8788907802605 156.19531562236938 L 467.94921405585404 156.5737519731025 L 467.9726303576278 156.95414407593353 L 467.99603428619 157.3365122505012 L 468.5309394362682 157.72087713477032 L 468.55405028144355 158.49568121618455 L 468.73850420247095 158.88616334193455 L 469.1279366952955 159.27872804886874 L 469.35542529899755 159.673397670457 L 469.3781100286988 160.070194901361 L 469.4460945911998 160.46914280526482 L 469.9862468194207 160.87026482291913 L 470.0533050211376 161.27358478040605 L 470.1425583183899 161.6791268976309 L 470.6523034877447 162.08691579705038 L 471.0471821844492 162.49697651264222 L 471.178029942163 162.90933449912825 L 471.4818464557164 163.32401564145516 L 471.5682697685477 163.741046264545 L 471.6975893750823 164.16045314332348 L 471.8050680344063 164.58226351303506 L 471.89086357459547 165.00650507985608 L 471.93369910382734 165.4332060318144 L 472.4233529620635 165.86239505002874 L 472.46567683893295 166.29410132027647 L 472.61349272650233 166.72835454490342 L 472.8447827234843 167.16518495508694 L 472.88670599568525 167.60462332346412 L 472.97043368370623 168.04670097714137 L 473.3037706005714 168.49144981109413 L 473.34526187646134 168.93890230197655 L 473.4901760213503 169.38909152235237 L 473.6140118907618 169.84205115536287 L 473.655213692592 170.29781550985047 L 473.67580022969213 170.7564195359526 L 474.02431527671877 171.21789884118476 L 474.3295675791687 171.6822897070303 L 474.43085263079155 172.14962910605766 L 474.53190659608185 172.61995471958437 L 475.15334695425383 173.09330495590854 L 475.19314204567615 173.56971896913075 L 475.3519658241905 174.04923667858907 L 475.6285443646693 175.0177468108488 L 475.68758716449025 175.5068230825018 L 475.9229744347449 175.99917079165732 L 475.9816263088289 176.49483399857598 L 476.8713631937452 177.49628765198582 L 477.6307805762009 178.0021707984866 L 477.72479872607227 179.02448873362817 L 477.76235017704863 179.54102213814696 L 477.8560897544159 180.06120598569868 L 478.19191899931633 181.1127339844515 L 478.21050172825414 181.64418544902878 L 478.4513703992877 182.1795020491166 L 478.5621002913933 182.7187404174914 L 478.70931084244074 183.26195844081434 L 478.8193985555528 184.36057149351683 L 478.837719934831 184.91608890830906 L 479.166215386993 185.47583083069713 L 479.32955398798794 186.0398620050359 L 479.6004535099877 186.60824867557847 L 479.69038640133914 187.1810586331677 L 480.10174186236503 187.75836126375708 L 480.1373320079308 188.34022759885096 L 480.2084266199424 188.92673036795327 L 480.4033504278476 189.51794405312347 L 480.59742015538535 190.11394494574074 L 480.70291905506167 190.7148112055856 L 481.05277817090774 191.3206229223528 L 481.12241959055933 191.9314621797168 L 481.20931766389833 192.54741312207716 L 481.46899361060343 193.16856202412163 L 482.00088067136085 193.79499736334844 L 482.18808989205155 194.42680989570158 L 482.39141970792843 195.06409273448043 L 482.4589894140513 195.7069414326952 L 482.8287913888202 196.35545406905118 L 483.32814204175827 197.0097313377534 L 483.41082254695755 197.66987664234006 L 483.47685600499324 198.3359961937606 L 483.5592596264802 199.00819911293343 L 483.93635406671063 200.3713067367458 L 483.9689936656626 201.06244522385128 L 484.27787608530633 201.76013488430254 L 484.45572311071766 202.46450110225084 L 484.55243042811816 203.17567289628255 L 484.77726306202936 203.89378306125548 L 484.937161913574 204.61896831712414 L 485.3344016504866 205.35136946516832 L 486.2425042124328 206.0911315520732 L 486.39720899344366 206.8384040423391 L 486.5821442674364 207.59334099953304 L 487.0259089329031 208.35610127693172 L 487.10197272246006 209.12684871814668 L 487.16272984278754 209.90575236836509 L 487.22340373415705 210.69298669688754 L 487.37472582795874 211.4887318316953 L 487.5405851780325 212.29317380683653 L 488.49345680544343 213.1065048234808 L 488.9914533705032 213.92892352555873 L 489.7137774967741 214.76063529097547 L 489.8425540061489 215.6018525394656 L 490.04213177312664 216.45279505824504 L 490.3115568848967 217.31369034670706 L 490.38218667784724 218.18477398151754 L 490.41040708897935 219.06629000357196 L 490.55124006541854 219.95849132840726 L 490.9153237715537 220.86164018179352 L 490.97107196490896 221.77600856238337 L 491.62091065062583 222.7018787334609 L 492.0579607218443 223.6395437460149 L 492.2748791047165 224.58930799556128 L 492.39643045527095 225.55148781536172 L 492.7590957754573 226.5264121089324 L 493.475637593177 227.51442302500658 L 493.5939422796163 228.51587667841636 L 494.03804088314695 229.5311439206958 L 494.1937244661874 230.56061116457755 L 494.2066734309847 231.6046812669689 L 494.3617664418853 232.66377447545938 L 494.87485568701265 233.73832944392194 L 494.9130988326668 234.82880432335315 L 494.95130898638683 235.93567793473954 L 495.2937250688595 237.05945103146644 L 496.19410029443054 238.20064765959825 L 496.3300600137203 239.35981662528155 L 496.4409901966427 240.537533079554 L 496.6987519354174 241.73440023201613 L 496.78434023987313 242.95105120614738 L 496.7965536506146 244.18815105055216 L 497.3306366047625 245.44639892213206 L 497.4390919450259 246.72653045912568 L 497.65520915557056 248.02932036418395 L 497.71505504195346 249.35558522019113 L 499.2086455425515 250.70618656445987 L 499.7374421047869 252.0820342502817 L 500.8210908665083 253.48409012868137 L 500.9324611383459 254.91337208768613 L 501.0657368671103 256.3709584915989 L 501.2980087464577 257.85799306876976 L 502.3553537954486 259.3756903033624 L 502.7947934036563 260.92534139479574 L 502.82677698942933 262.5083208581259 L 503.1665058555682 264.12609384991146 L 503.69216991516146 265.7802243174061 L 503.7443948165941 267.4723840846756 L 503.7652675473166 269.2043630079481 L 503.89029778919513 270.9780803548378 L 505.0101117620291 272.79559758881385 L 505.2024436244579 276.57107684179226 L 505.7445547491075 278.5340120514371 L 506.13199367064226 280.5507329471264 L 506.30967494478983 282.62427029339955 L 506.32937338130466 284.7579184703526 L 507.11021218093 286.95526696117014 L 507.47634293304105 289.2202366860288 L 507.5338773863879 291.5571221059846 L 507.8109118449181 293.97064023257786 L 508.3033651873046 296.46598794856266 L 509.11522784969173 299.0489093906144 L 509.41932429327665 301.72577559089035 L 510.6688525512907 304.50367915511185 L 511.4125283143214 307.39054751802934 L 511.5002351425324 310.39527932979274 L 512.2129543219254 313.5279098845563 L 512.4794374056385 316.7998133438365 L 513.3703118112398 320.2239520343784 L 514.9462924156994 323.8151866152442 L 516.5776357827292 327.5906658682226 L 517.8104009385262 331.5703219735567 L 518.0528894622112 335.7775074967833 L 519.429334778471 340.2398257124596 L 522.3080121191044 344.99022925900874 L 522.8266909226711 350.06849841704536 L 524.3865680830451 355.5232681815428 L 524.6217470450017 361.4148683562237 L 525.836357139787 367.8194023702674 L 529.4444631092065 374.83477564167526 L 530.4039761651804 382.58991099998775 L 532.1035143142952 391.2594147388902 L 532.1365187374122 401.08808744347584 L 536.0847145898501 412.4344573826543 L 537.5782315484248 425.85436466810575 L 538.6685939325488 442.2790037653207 L 538.8957568218943 463.45404640908487 L 539.8206800001733 493.2985927917513 L 542.6673681575614 544.3181818181819" stroke-linejoin="bevel" stroke-miterlimit="10"/><path fill="none" stroke="none"/></g></g></g><g clip-path="url(#DpcXhuLUpTcv)"><g><g/><g><path fill="#ffffff" stroke="#e5e5e5" paint-order="fill stroke markers" d=" M 123 475 L 255 475 L 255 560 L 123 560 L 123 475 Z" fill-opacity="0.95" stroke-linejoin="bevel" stroke-miterlimit="10" stroke-opacity="0.5"/><text fill="#444444" stroke="none" font-family="helvetica" font-size="22pt" font-style="normal" font-weight="normal" text-decoration="normal" x="158" y="500.5" text-anchor="start" dominant-baseline="central">male</text><g><path fill="none" stroke="blue" paint-order="fill stroke markers" d=" M 133 495 L 153 495" stroke-linejoin="bevel" stroke-miterlimit="10"/></g><text fill="#444444" stroke="none" font-family="helvetica" font-size="22pt" font-style="normal" font-weight="normal" text-decoration="normal" x="158" y="534.5" text-anchor="start" dominant-baseline="central">female</text><g><path fill="none" stroke="red" paint-order="fill stroke markers" d=" M 133 529 L 153 529" stroke-linejoin="bevel" stroke-miterlimit="10"/></g></g></g></g><g/><g/><g><g fill="#444444"><path fill="none" stroke="black" paint-order="fill stroke markers" d=" M 113 570 L 570 570" stroke-linejoin="bevel" stroke-miterlimit="10"/><path fill="none" stroke="black" paint-order="fill stroke markers" d=" M 134 576 L 134 568" stroke-linejoin="bevel" stroke-miterlimit="10"/><path fill="none" stroke="black" paint-order="fill stroke markers" d=" M 236 576 L 236 568" stroke-linejoin="bevel" stroke-miterlimit="10"/><path fill="none" stroke="black" paint-order="fill stroke markers" d=" M 338 576 L 338 568" stroke-linejoin="bevel" stroke-miterlimit="10"/><path fill="none" stroke="black" paint-order="fill stroke markers" d=" M 440 576 L 440 568" stroke-linejoin="bevel" stroke-miterlimit="10"/><path fill="none" stroke="black" paint-order="fill stroke markers" d=" M 542 576 L 542 568" stroke-linejoin="bevel" stroke-miterlimit="10"/><path fill="none" stroke="black" paint-order="fill stroke markers" d=" M 118 574 L 118 570" stroke-linejoin="bevel" stroke-miterlimit="10"/><path fill="none" stroke="black" paint-order="fill stroke markers" d=" M 124 574 L 124 570" stroke-linejoin="bevel" stroke-miterlimit="10"/><path fill="none" stroke="black" paint-order="fill stroke markers" d=" M 129 574 L 129 570" stroke-linejoin="bevel" stroke-miterlimit="10"/><path fill="none" stroke="black" paint-order="fill stroke markers" d=" M 134 574 L 134 570" stroke-linejoin="bevel" stroke-miterlimit="10"/><path fill="none" stroke="black" paint-order="fill stroke markers" d=" M 134 574 L 134 570" stroke-linejoin="bevel" stroke-miterlimit="10"/><path fill="none" stroke="black" paint-order="fill stroke markers" d=" M 164 574 L 164 570" stroke-linejoin="bevel" stroke-miterlimit="10"/><path fill="none" stroke="black" paint-order="fill stroke markers" d=" M 182 574 L 182 570" stroke-linejoin="bevel" stroke-miterlimit="10"/><path fill="none" stroke="black" paint-order="fill stroke markers" d=" M 195 574 L 195 570" stroke-linejoin="bevel" stroke-miterlimit="10"/><path fill="none" stroke="black" paint-order="fill stroke markers" d=" M 205 574 L 205 570" stroke-linejoin="bevel" stroke-miterlimit="10"/><path fill="none" stroke="black" paint-order="fill stroke markers" d=" M 213 574 L 213 570" stroke-linejoin="bevel" stroke-miterlimit="10"/><path fill="none" stroke="black" paint-order="fill stroke markers" d=" M 220 574 L 220 570" stroke-linejoin="bevel" stroke-miterlimit="10"/><path fill="none" stroke="black" paint-order="fill stroke markers" d=" M 226 574 L 226 570" stroke-linejoin="bevel" stroke-miterlimit="10"/><path fill="none" stroke="black" paint-order="fill stroke markers" d=" M 231 574 L 231 570" stroke-linejoin="bevel" stroke-miterlimit="10"/><path fill="none" stroke="black" paint-order="fill stroke markers" d=" M 236 574 L 236 570" stroke-linejoin="bevel" stroke-miterlimit="10"/><path fill="none" stroke="black" paint-order="fill stroke markers" d=" M 236 574 L 236 570" stroke-linejoin="bevel" stroke-miterlimit="10"/><path fill="none" stroke="black" paint-order="fill stroke markers" d=" M 266 574 L 266 570" stroke-linejoin="bevel" stroke-miterlimit="10"/><path fill="none" stroke="black" paint-order="fill stroke markers" d=" M 284 574 L 284 570" stroke-linejoin="bevel" stroke-miterlimit="10"/><path fill="none" stroke="black" paint-order="fill stroke markers" d=" M 297 574 L 297 570" stroke-linejoin="bevel" stroke-miterlimit="10"/><path fill="none" stroke="black" paint-order="fill stroke markers" d=" M 307 574 L 307 570" stroke-linejoin="bevel" stroke-miterlimit="10"/><path fill="none" stroke="black" paint-order="fill stroke markers" d=" M 315 574 L 315 570" stroke-linejoin="bevel" stroke-miterlimit="10"/><path fill="none" stroke="black" paint-order="fill stroke markers" d=" M 322 574 L 322 570" stroke-linejoin="bevel" stroke-miterlimit="10"/><path fill="none" stroke="black" paint-order="fill stroke markers" d=" M 328 574 L 328 570" stroke-linejoin="bevel" stroke-miterlimit="10"/><path fill="none" stroke="black" paint-order="fill stroke markers" d=" M 333 574 L 333 570" stroke-linejoin="bevel" stroke-miterlimit="10"/><path fill="none" stroke="black" paint-order="fill stroke markers" d=" M 338 574 L 338 570" stroke-linejoin="bevel" stroke-miterlimit="10"/><path fill="none" stroke="black" paint-order="fill stroke markers" d=" M 338 574 L 338 570" stroke-linejoin="bevel" stroke-miterlimit="10"/><path fill="none" stroke="black" paint-order="fill stroke markers" d=" M 368 574 L 368 570" stroke-linejoin="bevel" stroke-miterlimit="10"/><path fill="none" stroke="black" paint-order="fill stroke markers" d=" M 386 574 L 386 570" stroke-linejoin="bevel" stroke-miterlimit="10"/><path fill="none" stroke="black" paint-order="fill stroke markers" d=" M 399 574 L 399 570" stroke-linejoin="bevel" stroke-miterlimit="10"/><path fill="none" stroke="black" paint-order="fill stroke markers" d=" M 409 574 L 409 570" stroke-linejoin="bevel" stroke-miterlimit="10"/><path fill="none" stroke="black" paint-order="fill stroke markers" d=" M 417 574 L 417 570" stroke-linejoin="bevel" stroke-miterlimit="10"/><path fill="none" stroke="black" paint-order="fill stroke markers" d=" M 424 574 L 424 570" stroke-linejoin="bevel" stroke-miterlimit="10"/><path fill="none" stroke="black" paint-order="fill stroke markers" d=" M 430 574 L 430 570" stroke-linejoin="bevel" stroke-miterlimit="10"/><path fill="none" stroke="black" paint-order="fill stroke markers" d=" M 435 574 L 435 570" stroke-linejoin="bevel" stroke-miterlimit="10"/><path fill="none" stroke="black" paint-order="fill stroke markers" d=" M 440 574 L 440 570" stroke-linejoin="bevel" stroke-miterlimit="10"/><path fill="none" stroke="black" paint-order="fill stroke markers" d=" M 440 574 L 440 570" stroke-linejoin="bevel" stroke-miterlimit="10"/><path fill="none" stroke="black" paint-order="fill stroke markers" d=" M 470 574 L 470 570" stroke-linejoin="bevel" stroke-miterlimit="10"/><path fill="none" stroke="black" paint-order="fill stroke markers" d=" M 488 574 L 488 570" stroke-linejoin="bevel" stroke-miterlimit="10"/><path fill="none" stroke="black" paint-order="fill stroke markers" d=" M 501 574 L 501 570" stroke-linejoin="bevel" stroke-miterlimit="10"/><path fill="none" stroke="black" paint-order="fill stroke markers" d=" M 511 574 L 511 570" stroke-linejoin="bevel" stroke-miterlimit="10"/><path fill="none" stroke="black" paint-order="fill stroke markers" d=" M 519 574 L 519 570" stroke-linejoin="bevel" stroke-miterlimit="10"/><path fill="none" stroke="black" paint-order="fill stroke markers" d=" M 526 574 L 526 570" stroke-linejoin="bevel" stroke-miterlimit="10"/><path fill="none" stroke="black" paint-order="fill stroke markers" d=" M 532 574 L 532 570" stroke-linejoin="bevel" stroke-miterlimit="10"/><path fill="none" stroke="black" paint-order="fill stroke markers" d=" M 537 574 L 537 570" stroke-linejoin="bevel" stroke-miterlimit="10"/><path fill="none" stroke="black" paint-order="fill stroke markers" d=" M 542 574 L 542 570" stroke-linejoin="bevel" stroke-miterlimit="10"/><path fill="" stroke="black" paint-order="fill stroke markers" d=" M 542 574 L 542 570" stroke-linejoin="bevel" stroke-miterlimit="10"/><g transform="translate(134,581) rotate(0,0,0)"><text fill="" stroke="none" font-family="helvetica" font-size="26px" font-style="normal" font-weight="normal" text-decoration="normal" x="0" y="0" text-anchor="middle" dominant-baseline="hanging">10^0</text><g transform="rotate(0,0,0) translate(-134,-581) translate(236,581) rotate(0,0,0)"><text fill="" stroke="none" font-family="helvetica" font-size="26px" font-style="normal" font-weight="normal" text-decoration="normal" x="0" y="0" text-anchor="middle" dominant-baseline="hanging">10^1</text><g transform="rotate(0,0,0) translate(-236,-581) translate(338,581) rotate(0,0,0)"><text fill="" stroke="none" font-family="helvetica" font-size="26px" font-style="normal" font-weight="normal" text-decoration="normal" x="0" y="0" text-anchor="middle" dominant-baseline="hanging">10^2</text><g transform="rotate(0,0,0) translate(-338,-581) translate(440,581) rotate(0,0,0)"><text fill="" stroke="none" font-family="helvetica" font-size="26px" font-style="normal" font-weight="normal" text-decoration="normal" x="0" y="0" text-anchor="middle" dominant-baseline="hanging">10^3</text><g transform="rotate(0,0,0) translate(-440,-581) translate(542,581) rotate(0,0,0)"><text fill="" stroke="none" font-family="helvetica" font-size="26px" font-style="normal" font-weight="normal" text-decoration="normal" x="0" y="0" text-anchor="middle" dominant-baseline="hanging">10^4</text><g transform="rotate(0,0,0) translate(-542,-581)"/></g></g></g></g></g></g></g><g><g fill="#444444"><path fill="none" stroke="black" paint-order="fill stroke markers" d=" M 113 570 L 113 5" stroke-linejoin="bevel" stroke-miterlimit="10"/><path fill="none" stroke="black" paint-order="fill stroke markers" d=" M 107 537 L 115 537" stroke-linejoin="bevel" stroke-miterlimit="10"/><path fill="none" stroke="black" paint-order="fill stroke markers" d=" M 107 367 L 115 367" stroke-linejoin="bevel" stroke-miterlimit="10"/><path fill="none" stroke="black" paint-order="fill stroke markers" d=" M 107 198 L 115 198" stroke-linejoin="bevel" stroke-miterlimit="10"/><path fill="none" stroke="black" paint-order="fill stroke markers" d=" M 107 29 L 115 29" stroke-linejoin="bevel" stroke-miterlimit="10"/><path fill="none" stroke="black" paint-order="fill stroke markers" d=" M 109 563 L 113 563" stroke-linejoin="bevel" stroke-miterlimit="10"/><path fill="none" stroke="black" paint-order="fill stroke markers" d=" M 109 553 L 113 553" stroke-linejoin="bevel" stroke-miterlimit="10"/><path fill="none" stroke="black" paint-order="fill stroke markers" d=" M 109 545 L 113 545" stroke-linejoin="bevel" stroke-miterlimit="10"/><path fill="none" stroke="black" paint-order="fill stroke markers" d=" M 109 537 L 113 537" stroke-linejoin="bevel" stroke-miterlimit="10"/><path fill="none" stroke="black" paint-order="fill stroke markers" d=" M 109 537 L 113 537" stroke-linejoin="bevel" stroke-miterlimit="10"/><path fill="none" stroke="black" paint-order="fill stroke markers" d=" M 109 486 L 113 486" stroke-linejoin="bevel" stroke-miterlimit="10"/><path fill="none" stroke="black" paint-order="fill stroke markers" d=" M 109 456 L 113 456" stroke-linejoin="bevel" stroke-miterlimit="10"/><path fill="none" stroke="black" paint-order="fill stroke markers" d=" M 109 435 L 113 435" stroke-linejoin="bevel" stroke-miterlimit="10"/><path fill="none" stroke="black" paint-order="fill stroke markers" d=" M 109 419 L 113 419" stroke-linejoin="bevel" stroke-miterlimit="10"/><path fill="none" stroke="black" paint-order="fill stroke markers" d=" M 109 405 L 113 405" stroke-linejoin="bevel" stroke-miterlimit="10"/><path fill="none" stroke="black" paint-order="fill stroke markers" d=" M 109 394 L 113 394" stroke-linejoin="bevel" stroke-miterlimit="10"/><path fill="none" stroke="black" paint-order="fill stroke markers" d=" M 109 384 L 113 384" stroke-linejoin="bevel" stroke-miterlimit="10"/><path fill="none" stroke="black" paint-order="fill stroke markers" d=" M 109 375 L 113 375" stroke-linejoin="bevel" stroke-miterlimit="10"/><path fill="none" stroke="black" paint-order="fill stroke markers" d=" M 109 367 L 113 367" stroke-linejoin="bevel" stroke-miterlimit="10"/><path fill="none" stroke="black" paint-order="fill stroke markers" d=" M 109 367 L 113 367" stroke-linejoin="bevel" stroke-miterlimit="10"/><path fill="none" stroke="black" paint-order="fill stroke markers" d=" M 109 316 L 113 316" stroke-linejoin="bevel" stroke-miterlimit="10"/><path fill="none" stroke="black" paint-order="fill stroke markers" d=" M 109 287 L 113 287" stroke-linejoin="bevel" stroke-miterlimit="10"/><path fill="none" stroke="black" paint-order="fill stroke markers" d=" M 109 265 L 113 265" stroke-linejoin="bevel" stroke-miterlimit="10"/><path fill="none" stroke="black" paint-order="fill stroke markers" d=" M 109 249 L 113 249" stroke-linejoin="bevel" stroke-miterlimit="10"/><path fill="none" stroke="black" paint-order="fill stroke markers" d=" M 109 236 L 113 236" stroke-linejoin="bevel" stroke-miterlimit="10"/><path fill="none" stroke="black" paint-order="fill stroke markers" d=" M 109 224 L 113 224" stroke-linejoin="bevel" stroke-miterlimit="10"/><path fill="none" stroke="black" paint-order="fill stroke markers" d=" M 109 214 L 113 214" stroke-linejoin="bevel" stroke-miterlimit="10"/><path fill="none" stroke="black" paint-order="fill stroke markers" d=" M 109 206 L 113 206" stroke-linejoin="bevel" stroke-miterlimit="10"/><path fill="none" stroke="black" paint-order="fill stroke markers" d=" M 109 198 L 113 198" stroke-linejoin="bevel" stroke-miterlimit="10"/><path fill="none" stroke="black" paint-order="fill stroke markers" d=" M 109 198 L 113 198" stroke-linejoin="bevel" stroke-miterlimit="10"/><path fill="none" stroke="black" paint-order="fill stroke markers" d=" M 109 147 L 113 147" stroke-linejoin="bevel" stroke-miterlimit="10"/><path fill="none" stroke="black" paint-order="fill stroke markers" d=" M 109 117 L 113 117" stroke-linejoin="bevel" stroke-miterlimit="10"/><path fill="none" stroke="black" paint-order="fill stroke markers" d=" M 109 96 L 113 96" stroke-linejoin="bevel" stroke-miterlimit="10"/><path fill="none" stroke="black" paint-order="fill stroke markers" d=" M 109 80 L 113 80" stroke-linejoin="bevel" stroke-miterlimit="10"/><path fill="none" stroke="black" paint-order="fill stroke markers" d=" M 109 66 L 113 66" stroke-linejoin="bevel" stroke-miterlimit="10"/><path fill="none" stroke="black" paint-order="fill stroke markers" d=" M 109 55 L 113 55" stroke-linejoin="bevel" stroke-miterlimit="10"/><path fill="none" stroke="black" paint-order="fill stroke markers" d=" M 109 45 L 113 45" stroke-linejoin="bevel" stroke-miterlimit="10"/><path fill="none" stroke="black" paint-order="fill stroke markers" d=" M 109 36 L 113 36" stroke-linejoin="bevel" stroke-miterlimit="10"/><path fill="none" stroke="black" paint-order="fill stroke markers" d=" M 109 29 L 113 29" stroke-linejoin="bevel" stroke-miterlimit="10"/><path fill="" stroke="black" paint-order="fill stroke markers" d=" M 109 29 L 113 29" stroke-linejoin="bevel" stroke-miterlimit="10"/><g transform="translate(102,537) rotate(0,0,0)"><text fill="" stroke="none" font-family="helvetica" font-size="26px" font-style="normal" font-weight="normal" text-decoration="normal" x="0" y="0" text-anchor="end" dominant-baseline="central">10^-3</text><g transform="rotate(0,0,0) translate(-102,-537) translate(102,367) rotate(0,0,0)"><text fill="" stroke="none" font-family="helvetica" font-size="26px" font-style="normal" font-weight="normal" text-decoration="normal" x="0" y="0" text-anchor="end" dominant-baseline="central">10^-2</text><g transform="rotate(0,0,0) translate(-102,-367) translate(102,198) rotate(0,0,0)"><text fill="" stroke="none" font-family="helvetica" font-size="26px" font-style="normal" font-weight="normal" text-decoration="normal" x="0" y="0" text-anchor="end" dominant-baseline="central">10^-1</text><g transform="rotate(0,0,0) translate(-102,-198) translate(102,29) rotate(0,0,0)"><text fill="" stroke="none" font-family="helvetica" font-size="26px" font-style="normal" font-weight="normal" text-decoration="normal" x="0" y="0" text-anchor="end" dominant-baseline="central">10^0</text><g transform="rotate(0,0,0) translate(-102,-29) translate(26,288) rotate(-90,0,0)"><text fill="" stroke="none" font-family="helvetica" font-size="26pt" font-style="italic" font-weight="normal" text-decoration="normal" x="0" y="0" text-anchor="middle" dominant-baseline="alphabetic">CCDF</text><g transform="rotate(90,0,0) translate(-26,-288)"/></g></g></g></g></g></g></g><g clip-path="url(#BhMtXVqvtaTZ)"><g/></g><g clip-path="url(#UixXEmiqsRtc)"><g/></g></g></g></svg>