<svg version="1.1" xmlns="http://www.w3.org/2000/svg" xmlns:xlink="http://www.w3.org/1999/xlink" width="600" height="600" style="width: 600px; height: 600px;"><defs><clipPath id="bGDVlcTsqTKe"><path fill="none" stroke="none" d=" M 113 5 L 570 5 L 570 570 L 113 570 L 113 5 Z"/></clipPath><clipPath id="flCUgyLDOXFa"><path fill="none" stroke="none" d=" M 113 5 L 570 5 L 570 570 L 113 570 L 113 5 Z"/></clipPath><clipPath id="IRvrDPKgTXhH"><path fill="none" stroke="none" d=" M 113 5 L 570 5 L 570 570 L 113 570 L 113 5 Z"/></clipPath><clipPath id="CwusvMXGaAkv"><path fill="none" stroke="none" d=" M 113 5 L 570 5 L 570 570 L 113 570 L 113 5 Z"/></clipPath><clipPath id="ztTrWUzlTKzB"><path fill="none" stroke="none" d=" M 113 5 L 570 5 L 570 570 L 113 570 L 113 5 Z"/></clipPath><clipPath id="LCWLiMxtsIOq"><path fill="none" stroke="none" d=" M 113 5 L 570 5 L 570 570 L 113 570 L 113 5 Z"/></clipPath><clipPath id="tgffMbmXsCWU"><path fill="none" stroke="none" d=" M 113 5 L 570 5 L 570 570 L 113 570 L 113 5 Z"/></clipPath><clipPath id="CJLgZtugdazr"><path fill="none" stroke="none" d=" M 113 5 L 570 5 L 570 570 L 113 570 L 113 5 Z"/></clipPath></defs><g><g transform="scale(1,1) translate(0.5,0.5)"><rect fill="#FFFFFF" stroke="none" x="0" y="0" width="600" height="600"/><rect fill="#ffffff" stroke="none" x="0" y="0" width="600" height="600"/><rect fill="#FFFFFF" stroke="none" x="113" y="5" width="457" height="565"/><rect fill="#ffffff" stroke="none" x="113" y="5" width="457" height="565"/><g><rect fill="none" stroke="#e5e5e5" x="113" y="5" width="457" height="565" stroke-linejoin="bevel" stroke-miterlimit="10"/></g><g clip-path="url(#bGDVlcTsqTKe)"><g><g><path fill="none" stroke="#e5e5e5" paint-order="fill stroke markers" d=" M 134 570 L 134 5" stroke-linejoin="bevel" stroke-miterlimit="10"/><path fill="none" stroke="#e5e5e5" paint-order="fill stroke markers" d=" M 234 570 L 234 5" stroke-linejoin="bevel" stroke-miterlimit="10"/><path fill="none" stroke="#e5e5e5" paint-order="fill stroke markers" d=" M 334 570 L 334 5" stroke-linejoin="bevel" stroke-miterlimit="10"/><path fill="none" stroke="#e5e5e5" paint-order="fill stroke markers" d=" M 434 570 L 434 5" stroke-linejoin="bevel" stroke-miterlimit="10"/><path fill="none" stroke="#e5e5e5" paint-order="fill stroke markers" d=" M 534 570 L 534 5" stroke-linejoin="bevel" stroke-miterlimit="10"/></g></g></g><g clip-path="url(#flCUgyLDOXFa)"><g><g><path fill="none" stroke="#e5e5e5" paint-order="fill stroke markers" d=" M 113 537 L 570 537" stroke-linejoin="bevel" stroke-miterlimit="10"/><path fill="none" stroke="#e5e5e5" paint-order="fill stroke markers" d=" M 113 368 L 570 368" stroke-linejoin="bevel" stroke-miterlimit="10"/><path fill="none" stroke="#e5e5e5" paint-order="fill stroke markers" d=" M 113 198 L 570 198" stroke-linejoin="bevel" stroke-miterlimit="10"/><path fill="none" stroke="#e5e5e5" paint-order="fill stroke markers" d=" M 113 29 L 570 29" stroke-linejoin="bevel" stroke-miterlimit="10"/></g></g></g><g clip-path="url(#IRvrDPKgTXhH)"><g><g fill="#444444"><path fill="" stroke="none" d=""/><g transform="translate(138.7727272727273,362.5091915659343) rotate(0,0,0)"><path fill="none" stroke="none"/><text fill="" stroke="none" font-family="helvetica" font-size="20pt" font-style="normal" font-weight="normal" text-decoration="normal" x="0" y="0" text-anchor="start" dominant-baseline="text-after-edge">Female mean: 882.49(±1398.9)</text></g></g><g fill="#444444"><path fill="" stroke="none" d=""/><g transform="translate(138.7727272727273,327.9188591531601) rotate(0,0,0)"><path fill="none" stroke="none"/><text fill="" stroke="none" font-family="helvetica" font-size="20pt" font-style="normal" font-weight="normal" text-decoration="normal" x="0" y="0" text-anchor="start" dominant-baseline="text-after-edge">Male mean: 632.15(±1199.2)</text></g></g></g></g><g clip-path="url(#CwusvMXGaAkv)"><g><g><path fill="none" stroke="none"/><path fill="none" stroke="blue" paint-order="fill stroke markers" d=" M 133.7727272727273 30.735134736341138 L 133.7727272727273 31.63204895550905 L 163.8645060052827 32.743332554555195 L 181.467068143826 33.87165391646897 L 193.95628473783808 34.807868594949014 L 203.64367373698164 35.43869431701842 L 211.55884687638135 36.07497393142546 L 218.25103041103495 36.60944166635602 L 224.04806347039343 37.25596896021966 L 229.16140901492466 37.58137501865133 L 233.73545246953705 37.90822626046918 L 237.87317808116674 38.67657206925753 L 241.65062560893674 39.119255410889764 L 245.12554048418863 39.453024162774 L 248.34280914359033 40.01269137432905 L 251.33801460808033 40.57664726533221 L 254.13984220294878 40.80344523726569 L 256.77175466917464 41.25914875919227 L 259.25318774748 41.60278775076256 L 261.6004220792058 41.71769157371216 L 263.82723120209243 42.179109283587536 L 265.94537128213364 42.52708101292251 L 267.9649568137221 43.110715186961784 L 269.8947527374003 43.34547099573797 L 271.7424043414921 43.93565766819552 L 273.51462020123597 44.29205489567346 L 275.217319216744 45.13042227812946 L 276.8557498860233 45.37172047346701 L 278.4345878761457 45.85670333987866 L 279.9580164650654 46.46746106625835 L 282.85330644253133 47.20712441437024 L 284.23162093550417 47.455340108846485 L 285.5675189522654 47.95429716340186 L 286.86353340173 48.07956678283699 L 288.1219768752893 48.20504999081459 L 290.5344452687995 48.709133356356574 L 291.69220081176115 48.83569552623919 L 292.8198813552873 49.08947468684107 L 293.91900993464776 49.72777776565033 L 294.99099674385315 50.11343393364257 L 296.037150014689 50.242436391999945 L 297.05868561548664 50.50112166237386 L 298.0567355462774 51.0212360790556 L 299.032355479179 51.282678214206726 L 299.9865314699557 51.67659110990792 L 300.9201859477296 51.808365332488734 L 302.7293335493426 52.20510960139268 L 303.60639893379135 52.33783440499246 L 304.4660955402733 53.00507273464723 L 305.30909794929937 53.2736711482969 L 306.1360421891211 53.408338859521564 L 307.7441245454211 54.08539868206799 L 308.5263666087011 54.357976340506525 L 310.0497951976207 54.63156730112007 L 310.79192027672866 54.906179125891526 L 312.2391629555742 55.320027734593054 L 312.9450851750868 55.59722536417655 L 313.63971215323227 55.87547100241295 L 314.32339966805955 56.154772603855804 L 314.99648694844296 56.71657597051285 L 315.6592976848208 56.857699472335185 L 316.3121409639285 57.14076091223649 L 318.2137556078447 57.710170976262475 L 319.4367452125908 57.85321452692938 L 320.03555829188196 57.9965366435963 L 321.20896107233466 58.2840209296574 L 322.3514812194744 58.71736398921445 L 322.9116600878426 58.86238055564138 L 324.550090757122 59.445321295684096 L 325.08277547640853 59.738532375354055 L 325.6090032521346 60.18055102328509 L 326.12892874724434 60.4767119205315 L 326.642701133429 60.62524049495926 L 327.1504643480421 60.77406943071287 L 328.14851427883286 60.923199945063175 L 328.63906480837977 61.07263326269617 L 329.1241342117344 61.37241324399088 L 329.60384362249624 61.522762394644815 L 330.07831020251103 61.97566156945095 L 330.54764731363 62.58389547478322 L 331.011964680285 62.736742640105604 L 331.47136854346013 63.197198054416276 L 331.92596180660286 63.66055247258896 L 332.375844173973 64.12684262999181 L 332.82111228189797 64.43935215964467 L 333.26185982336403 64.59610596469741 L 333.69817766634674 64.75319435656746 L 334.1301539662537 65.06838063552141 L 334.5578742728286 65.38492255855562 L 334.98142163183957 65.70283183755237 L 335.4008766818547 66.18228554400116 L 335.816317746388 66.50366545928523 L 336.2278209216764 66.66488323163901 L 336.6354601603375 66.82645494011064 L 337.4394323950643 67.15066640561696 L 338.6181453412564 67.31330930860491 L 339.00404352615425 67.47631243980078 L 339.38654168285984 67.63967739844367 L 339.7656992016547 67.8034057944464 L 340.514222226386 67.96749924849047 L 341.25005780748234 68.2967878678499 L 341.9736288896062 68.62755644103174 L 343.0368639076421 68.79349987920551 L 343.3855666654904 68.95981833111779 L 344.0746804986734 69.12651349558718 L 345.0882656809983 69.29358708300197 L 346.4039196964839 69.46104081542569 L 346.7266963502777 69.62887642670324 L 347.04709086684073 69.96570028075485 L 347.99432684322346 70.13469205110192 L 348.3055343404 70.6440081574936 L 349.5285239451461 70.98552099142313 L 350.4236744204412 71.5007801578293 L 350.7180027339103 71.67333799455918 L 351.30073980489 72.19345241124097 L 351.5892010651777 72.54224872121671 L 351.8757582768719 72.89270597226414 L 352.16043641137196 73.24484005864679 L 352.44325995202973 73.59866710387405 L 353.2808407862815 73.95420346513117 L 353.55648145797045 74.13261781590143 L 354.373055875708 74.49074934328513 L 355.9615230684758 74.67047076019071 L 356.7344798659843 74.85063213204393 L 356.98910382140315 75.03123561813635 L 357.2422430805974 75.21228339369497 L 357.49391485758196 75.94096146174326 L 357.99292333954367 76.1242638819046 L 358.2402930113882 76.30802398648638 L 358.9740557173702 76.49224406677843 L 359.2159129442897 76.86207340607285 L 360.1700889350665 77.23377057823382 L 360.4053917330539 77.42032551627415 L 360.8722054776141 77.98284456297375 L 361.10374341284034 78.36026017804267 L 362.24326447463125 78.54969627658448 L 362.69082781954165 78.73962124301937 L 362.9128910144533 79.12094791814138 L 363.3536385559195 79.31235474553631 L 363.5723456177114 79.50426067865237 L 364.2219326988091 79.69666832719696 L 364.436319603373 80.27692797160529 L 364.64965300538404 80.47136899263302 L 365.07320036439495 80.66632508981479 L 365.28343447959764 81.05779347903268 L 365.4926554144101 81.45135529204765 L 365.70087288764523 81.64892825271664 L 365.9080964789433 81.84703303895486 L 366.3195996542318 82.04567252162076 L 366.52389772513067 82.24484959488149 L 367.13108608368947 82.4445671764662 L 367.33160958083903 82.64482820792233 L 367.5312111276196 82.8456356548752 L 367.92768201053184 83.24890177974953 L 368.3205648724536 83.45136651170293 L 368.5156809759425 83.6543897677621 L 369.4783204154152 84.06212423808262 L 370.04582209057304 84.2668417098592 L 370.42007664929156 84.67799296718334 L 370.60600095894137 84.88443316888225 L 370.79113241198394 85.09145407514819 L 371.7051295383018 85.5072511339684 L 371.88564231375625 85.71603392264097 L 372.77711634750716 85.92541068875283 L 373.1286426401975 86.13538482162573 L 373.650652055142 86.55713889074082 L 374.1664592312287 86.76892575243198 L 374.33704200452763 86.98132383246445 L 374.50695713317026 87.19433666901256 L 375.01274840710715 87.40796783106208 L 375.18004441355373 87.83709956382427 L 376.17050395006885 88.05260742982131 L 376.4956984290393 88.48552564079029 L 376.97896790868253 88.70294347586935 L 377.29818449359493 88.92100551288252 L 378.08610557577884 89.13971558067567 L 378.24198818472865 90.021113943513 L 378.3973130729554 90.24312281065812 L 378.70630555138365 90.46580341518728 L 379.01311431914274 90.68915983442304 L 379.1657094145588 90.91319618292414 L 379.3177700251834 91.13791661294005 L 379.92074166187507 91.36332531487278 L 380.0701850450717 91.58942651774555 L 380.36753730309306 91.81622448967897 L 380.80978146646567 92.04372353837448 L 381.6809797977331 92.27192801160561 L 381.8244948373524 92.50084229771579 L 382.393857226993 92.73047082612533 L 382.5350386845851 93.4236867863595 L 382.8160316393411 93.88948507322203 L 382.95584902250954 94.12349443937507 L 383.37261951883687 94.35825024815125 L 383.5106586174867 94.59375727679549 L 384.19434613231385 95.06704433330572 L 384.46483460826335 95.54339475778028 L 384.59944947565316 96.02284846422918 L 385.0008075881043 96.26375173546421 L 385.2663329415193 96.50544615186692 L 385.5302441490751 96.74793692692862 L 385.92312701099684 96.99122932584487 L 386.31248621235517 97.2353286662015 L 386.57013242820534 97.48024031867169 L 386.95375725097085 97.72596970772537 L 387.08088255395853 97.97252231235001 L 387.3340218131528 98.21990366678352 L 387.58569359013734 98.46811936125965 L 387.71098447060336 98.96707641581509 L 388.2085630974846 99.21782924322775 L 389.9065047561363 99.46943934693127 L 390.14373627514243 99.72191260876986 L 390.2618676676218 99.97525497132989 L 391.079907536589 100.2294724387794 L 391.1955221453957 100.48457107772163 L 391.769021369772 100.9974364539001 L 392.22242768372877 101.25521564441323 L 392.3350432071867 101.5139009147872 L 392.4473673576841 102.03401533146888 L 392.6711475436359 102.55783166126474 L 392.78260655209704 102.82114458490202 L 393.0046697470087 103.08540297887481 L 393.3356491896694 103.35061365740569 L 393.66412435026683 103.61678350865151 L 393.99013284058026 103.88391949577618 L 394.2061196539927 104.42111811193485 L 394.84770660116806 104.6911950522719 L 395.2702234150363 104.96226675338187 L 395.5844341469655 105.23434057026793 L 395.7926516202006 106.05664950106751 L 396.1031172576561 106.33280698700634 L 396.4113783867872 106.61000461658983 L 396.51364759768336 106.88825025482618 L 396.7174660938819 107.16755185626903 L 396.9203321637267 107.44791746638128 L 397.0214108122964 107.72935522292613 L 397.1222546670459 108.0118733573845 L 397.3232423406137 108.29548019639907 L 397.4233883133944 108.8659937793426 L 397.5233038004184 109.15291766576428 L 397.622989860175 109.4409645448182 L 398.11801529153996 109.73014324162767 L 399.0914475522926 110.02046268575606 L 399.4747900867506 110.31193191286098 L 399.6651994268521 110.89835639926065 L 399.76009183610586 111.19333027569832 L 399.9492566667654 111.48949117294472 L 400.1376008231284 111.78684868312615 L 400.51185538184694 112.0854125151094 L 400.6977796914967 112.38519249640416 L 401.7969082708572 112.68619857510322 L 402.24679063822737 112.98844082186417 L 402.4254462810933 113.29192943193078 L 402.51449915324037 113.59667472719644 L 402.6033697266476 113.90268715831058 L 403.7424307876974 114.20997730682944 L 404.59873586572564 114.51855588741125 L 404.7679885555382 114.82843375005802 L 405.1882557286806 115.13962188240504 L 406.0167782020733 115.76597360898069 L 406.0987673859308 116.08115988793463 L 406.180602018926 116.71561108996559 L 406.3438099553145 117.03489958924047 L 406.8297843577821 117.35557932819916 L 406.91025381538844 117.67766248405223 L 407.2306483319515 118.00116139459004 L 408.0997326041525 118.3260885610182 L 408.3337669172841 118.9802785009037 L 408.411498826948 119.30956712026318 L 408.5665463487127 119.64033569344497 L 408.6438629496454 119.97259758353101 L 408.7210420987706 120.30636633541525 L 408.9517597008629 120.64165567911647 L 409.636645665909 120.97847953316807 L 410.3108944895481 121.31685200808408 L 410.45931603564844 121.65678740990683 L 410.60723188555204 121.99830024383635 L 410.82816498297836 122.68611724697246 L 411.0479794270181 123.03245145622873 L 411.2666864888101 123.38042318556364 L 411.4842972700008 123.73004799345 L 412.34399387648267 124.08134166115684 L 413.25651312974463 124.78899984083671 L 413.74003892308116 125.14539706831465 L 414.0139405253305 125.50352859569841 L 414.28612486486924 125.86341138445704 L 414.42157976399153 126.22506264610826 L 415.4242400340793 126.58849984715664 L 415.55619533308334 126.95374071415648 L 415.81890875173457 127.3208032388996 L 415.88433944980073 127.68970568373305 L 416.08004192973834 128.0604665870115 L 416.27486616073827 128.43310476868737 L 416.9180373310951 128.8076393360431 L 417.1726612865139 129.18408968956976 L 418.36214007527803 129.9428168594822 L 418.42385047649896 130.32513399794954 L 418.85338446761233 130.70944757961018 L 419.4597247701472 131.0957785646412 L 419.9982834886917 131.48414824504624 L 420.3536464001772 132.2670905615617 L 420.412591772368 132.66170750512993 L 420.5889491981646 133.45734642887942 L 420.88129548775817 133.85841490728842 L 421.46014752943205 134.26168103216287 L 421.5176104894417 134.66716902017532 L 421.7467047411263 135.0749034904959 L 421.8608001023274 135.89721242129554 L 422.1447334881899 136.31183821459035 L 422.42682193974207 136.7288131750542 L 422.4830203423458 137.14816407403902 L 422.5391460902394 137.5699181431541 L 422.9300076624714 137.99410308487768 L 423.20705557111177 138.4207470834753 L 423.70132952447415 138.84987881623744 L 423.97351386401283 139.71572272828257 L 424.02774655057715 140.15249483308895 L 424.67330877978117 140.5918745479953 L 424.77997531980327 141.03389319592623 L 425.30941188077406 142.37610456728606 L 425.5717284489443 143.28470726401883 L 425.67621287952085 143.7432500785386 L 425.884430352756 144.20466778841404 L 426.4519320279138 144.66899667028605 L 426.7074551902413 145.13627369178835 L 426.8600502856575 145.6065365292087 L 427.4651229367206 147.0356277166424 L 428.1605447165459 147.51822540428014 L 428.35720761208165 148.49301957108491 L 428.5041223375643 148.9853015647633 L 428.60179000518946 149.97985566822837 L 428.6505415655614 150.4822185993445 L 428.7478807542081 150.9880342237431 L 429.37532066883176 151.49735033013485 L 429.47105005701223 152.01021570631337 L 430.0410353993208 152.52668016720042 L 430.1823700654932 153.0467945838821 L 430.2293795556838 153.57061091367797 L 430.46366647048666 154.09818223128804 L 430.51037251043977 154.62956276106468 L 430.7431519418684 155.1648079104579 L 430.88222283479155 155.70397430468506 L 430.9746898770947 156.2471198226811 L 431.02084964747104 156.79430363438445 L 431.06696038993556 157.34558623941956 L 431.3426010616244 157.9010295072395 L 431.6619853919198 158.46069671879457 L 431.84344128806225 159.02465260979773 L 432.06919977886696 159.59296341566062 L 433.00477057613404 160.16569691817756 L 433.3559414288565 160.7429224940409 L 433.53046733203917 161.32471116527427 L 433.7042944309357 161.91113565167387 L 433.8774282992815 162.50227042535795 L 434.04987444439183 163.09819176752274 L 434.3072660676273 163.6989778275164 L 434.9862751773691 164.30470868434406 L 435.1963058722179 164.9154664107238 L 435.23819035202155 165.53133513982448 L 435.5718193518996 166.15240113481832 L 435.73767728027866 166.77875286139403 L 436.313240293273 167.41048106338212 L 436.5981853571472 168.0476788416537 L 436.9215630903374 168.69044173646546 L 437.0422114124026 169.33886781343142 L 437.4419680118567 169.99305775331686 L 437.95620853872043 170.65311494585814 L 439.4253637614654 171.31914558782842 L 440.3282717301159 171.9912587855813 L 440.47694742319567 172.6695666623201 L 440.625115689715 173.35418447035698 L 440.84642420609373 174.04523070864195 L 441.32209047273636 174.74282724586323 L 441.68447371167883 175.44709944943673 L 441.82858425047925 176.15817632072793 L 441.93635408641586 176.87619063687043 L 442.85931996804896 177.60127909956987 L 443.55617698394764 178.33358249131282 L 443.7974581287547 179.07324583942477 L 443.9347333734082 179.82041858845628 L 444.2760343447019 180.57525478141105 L 446.07407969804564 181.33791325036282 L 446.2043521437328 182.10855781705442 L 446.78578842339124 182.88735750411013 L 447.10547514006765 184.4701256812927 L 447.92580823879337 185.2744602845761 L 448.42303068134436 186.08768274290912 L 448.6080306485819 186.90999167370876 L 448.63878747590377 187.74159242746737 L 449.06711063975973 188.58269739556732 L 449.49124914195585 189.43352633588853 L 449.6717619174103 190.29430671745934 L 450.1791760259529 191.16527408550212 L 450.26810728262103 192.04667244833956 L 450.73935489432114 192.93875468775065 L 450.8855768579127 193.84178299450548 L 451.37907961050644 194.75602933095183 L 451.6380922048271 195.68177592269933 L 452.12316160818165 196.619315781622 L 452.6589605098841 197.56895326260678 L 453.4366980586131 198.53100465669343 L 453.68375489959095 199.50579882349814 L 454.2007474956905 200.49367786608616 L 455.7157808301381 201.49499785175772 L 455.8461902401525 202.51012958254807 L 456.2866747227668 203.5394594196137 L 457.20496827740715 204.58339016609125 L 457.9308338686592 205.6423420134779 L 458.20301820819793 206.7167535570983 L 458.8639602206468 207.80708288679767 L 458.8882473597132 208.91380875965274 L 459.15451296129055 210.03743186221095 L 459.41915543191027 211.17847617059073 L 459.68219444065045 212.33749041768743 L 460.6954128469577 213.51504967777112 L 461.6171727377037 214.7117570799296 L 461.66275096755845 215.92824566313703 L 462.9862233028107 217.16518038723154 L 463.1626105843567 218.4232603157954 L 463.5132496228333 219.7032209888788 L 463.79607316349103 221.0058370057302 L 463.86107930483456 222.33192484024175 L 463.9908002976136 223.68234591473333 L 464.0986058160092 225.05800996105523 L 464.2276200564224 226.45987870184996 L 464.8246684049172 227.88896988928366 L 465.24615967640733 229.34636174372605 L 467.4341521608172 230.83319784086956 L 468.43945304322176 232.35069250277604 L 468.8274204147561 233.90013675652335 L 469.57412774825264 235.48290493370592 L 470.64287350075915 237.10046199532235 L 470.73537994945997 238.75437167988065 L 472.7574856250105 240.44630558830175 L 473.31834296868135 242.1780533379154 L 473.47478731797617 243.9515339401638 L 474.63893501979254 245.76880858336494 L 475.39251100828403 247.63209503403516 L 475.5747459102704 249.5437839091066 L 477.46714884287803 251.50645711849927 L 479.52268976896926 253.5229088349613 L 481.8015454789213 255.59616941850447 L 482.214940340737 257.7295328095116 L 482.511856807975 259.926588012066 L 483.07185502674446 262.1912554230041 L 484.33308042077823 264.52782893018446 L 486.6483014334891 266.94102491555043 L 487.2336004389034 269.4360395682086 L 487.548418786947 272.0186162581434 L 487.56096415907564 274.6951251671466 L 490.2363883433653 277.4726579542632 L 490.93831567892335 280.35914099613933 L 491.04263273339865 283.36347175518927 L 492.7341987164187 286.49568418611915 L 493.52856769412375 289.7671509322939 L 498.0117758035545 293.1908325903286 L 498.7062462746352 296.7815878357782 L 502.272128974487 300.5565631615199 L 502.3524991176797 304.53568808737447 L 503.5839140067859 308.74231206192474 L 504.38303269532264 313.2040346754171 L 504.5275311976203 317.9538041679634 L 506.7522188232088 323.0313955105564 L 506.79250955459173 328.4854372066762 L 508.14060950514386 334.37625100760226 L 508.5447458853579 340.7799301847074 L 508.6374762729441 347.7943670881918 L 511.1274854876534 355.5484673397881 L 513.0870610048312 364.21681392783074 L 514.404586792494 374.0441747629701 L 514.5125968247569 385.38903026001606 L 516.4637867480395 398.807146340605 L 516.669567657455 415.229593180244 L 517.281121857549 436.4018095124293 L 526.312025356714 466.24237243265725 L 533.5280136736465 517.2551516850705" stroke-linejoin="bevel" stroke-miterlimit="10"/><path fill="none" stroke="none"/><path fill="none" stroke="blue" paint-order="fill stroke markers" d=" M 549.2272727272727 NaN" stroke-linejoin="bevel" stroke-miterlimit="10"/></g></g></g><g clip-path="url(#ztTrWUzlTKzB)"><g><g><path fill="none" stroke="none"/><path fill="none" stroke="red" paint-order="fill stroke markers" d=" M 133.7727272727273 30.681818181818244 L 133.7727272727273 31.647476244874724 L 163.8645060052827 32.415197497882104 L 181.467068143826 32.837354775774315 L 193.95628473783808 33.19101179293466 L 203.64367373698164 33.76042185696065 L 211.55884687638135 33.90346540762755 L 218.25103041103495 33.97509157741683 L 224.04806347039343 34.11855338434441 L 229.16140901492466 34.76761486991268 L 233.73545246953705 35.42245157061632 L 237.87317808116674 35.715370897197545 L 241.65062560893674 36.009460733687206 L 245.12554048418863 36.37873337821145 L 248.34280914359033 36.67549137565743 L 251.33801460808033 36.74986822246217 L 254.13984220294878 37.048129557333255 L 256.77175466917464 37.197714738198556 L 259.25318774748 37.497800306457066 L 261.6004220792058 37.57301327534299 L 263.82723120209243 37.79911447821564 L 265.94537128213364 38.02591245014912 L 267.9649568137221 38.40546916378298 L 269.8947527374003 38.634146355481334 L 271.7424043414921 38.86353630840995 L 273.51462020123597 39.093643479658795 L 275.217319216744 39.401576496470966 L 276.8557498860233 39.78831350647522 L 278.4345878761457 40.17709351068993 L 279.9580164650654 40.724859128731396 L 281.4297933406357 40.882115350207755 L 282.85330644253133 41.19763945043064 L 284.23162093550417 41.35591022895403 L 286.86353340173 41.59395642134052 L 288.1219768752893 41.91255381780684 L 289.3449664800354 42.072371217525415 L 291.69220081176115 42.23253642469945 L 292.8198813552873 42.3930509564841 L 293.91900993464776 42.71513411233718 L 294.99099674385315 42.87670582080875 L 296.037150014689 42.95762488739888 L 297.05868561548664 43.11973042353213 L 299.032355479179 43.445016626671645 L 299.9865314699557 43.60820047102118 L 300.9201859477296 43.853656675144634 L 301.8341830740475 44.017750129188585 L 302.7293335493426 44.09993426240726 L 303.60639893379135 44.26457836608449 L 304.4660955402733 44.42959162725367 L 305.30909794929937 44.59497570505198 L 306.1360421891211 44.6778073217298 L 306.9475286185787 45.0100692118159 L 307.7441245454211 45.4275172036979 L 308.5263666087011 45.59516165807747 L 309.2947629503045 45.67912730740147 L 310.0497951976207 45.763188862684956 L 310.79192027672866 46.01595116145302 L 312.2391629555742 46.18494293180004 L 312.9450851750868 46.524095069552914 L 313.63971215323227 46.77948879137614 L 314.32339966805955 47.035771872121245 L 314.99648694844296 47.121398273460954 L 315.6592976848208 47.2929505274783 L 316.3121409639285 47.37887684622865 L 316.9553121342854 47.551031038527526 L 317.58909360849896 47.63725938307164 L 318.2137556078447 47.89655225369211 L 318.829556854032 48.24370329193914 L 319.4367452125908 48.33074751692857 L 320.03555829188196 48.592499601914824 L 320.62622400135496 48.67995758445841 L 321.20896107233466 48.94295685296231 L 321.7839795443166 49.2068993366413 L 322.3514812194744 49.29509093934496 L 324.0107886672031 49.47179182530829 L 325.08277547640853 49.737641182357265 L 325.6090032521346 49.91540910369065 L 326.12892874724434 50.1828686965996 L 326.642701133429 50.27223832949949 L 327.1504643480421 50.36171661851483 L 327.6523573361641 50.54100022398336 L 328.14851427883286 50.81074719786284 L 328.63906480837977 50.991129355932 L 329.1241342117344 51.171954713852074 L 329.60384362249624 51.26253427439315 L 330.07831020251103 51.353225454876906 L 330.54764731363 51.44402853073814 L 331.011964680285 51.534943778432535 L 331.47136854346013 51.71711190027747 L 331.92596180660286 51.89973205266483 L 332.375844173973 52.17451476260271 L 332.82111228189797 52.35827486718449 L 333.26185982336403 52.542494947476484 L 334.1301539662537 52.72717731201794 L 334.5578742728286 52.81969257705998 L 335.4008766818547 52.91232428677097 L 335.816317746388 53.00507273464723 L 336.2278209216764 53.2840214589321 L 336.6354601603375 53.56403149987875 L 337.0393073511341 54.12726805236207 L 337.4394323950643 54.41051105874078 L 337.8359032779765 54.50516815686922 L 338.6181453412564 54.7898721237176 L 339.00404352615425 54.9802884877671 L 339.7656992016547 55.07568173981281 L 340.14157393017615 55.26683998663282 L 340.514222226386 55.362605626234426 L 340.883699009284 55.65065250528835 L 341.25005780748234 55.84331199659243 L 341.9736288896062 56.0364771564324 L 342.33094168812966 56.424335148458795 L 342.6853376149518 56.61903336690409 L 343.0368639076421 56.71657597051285 L 343.3855666654904 56.81424802685194 L 343.73149088578765 57.00998187533651 L 344.0746804986734 57.1080443597308 L 344.4151784006149 57.501606172745824 L 345.0882656809983 57.69917913341487 L 345.4209359674577 57.9965366435963 L 345.7510764173761 58.2951004755796 L 346.07872521751347 58.494818057164366 L 346.4039196964839 58.895886535573425 L 347.36513814975456 58.99649609826787 L 347.6808723410544 59.09724338799043 L 348.3055343404 59.19812878233438 L 349.225991292628 59.29915266044776 L 349.8289629293197 59.501617392401045 L 350.12733702443734 59.80636268766665 L 350.7180027339103 60.21466267332772 L 351.01034902350386 60.31709259055731 L 351.30073980489 60.41966526729965 L 351.5892010651777 60.62524049495926 L 352.44325995202973 60.831391564344756 L 352.72425290678575 60.934684049580426 L 353.00343882039806 61.03812171052829 L 353.2808407862815 61.14170495584642 L 353.55648145797045 61.24543419592078 L 354.373055875708 61.45333231058095 L 354.90902885554897 61.87089872806047 L 355.70078198468997 61.97566156945095 L 355.9615230684758 62.3962106203727 L 356.7344798659843 62.50172445012987 L 356.98910382140315 62.6073897714391 L 357.2422430805974 62.819176633130155 L 357.49391485758196 63.03157471316257 L 357.7441360687194 63.138004064536915 L 358.2402930113882 63.24458754971073 L 358.73084354093515 63.779832699103906 L 358.9740557173702 63.88735044452238 L 359.4564302351006 63.99502549467206 L 359.6956223550517 64.10285831051942 L 359.9335038266729 64.21084935506013 L 360.1700889350665 64.31899909333106 L 360.4053917330539 64.53577652148846 L 360.63942604618546 64.64440515176273 L 360.8722054776141 64.75319435656746 L 361.33405302433096 64.86214461132715 L 361.5631472760155 65.08053018299421 L 362.0177405391582 65.18996646137384 L 362.24326447463125 65.29956571267797 L 362.4676229065284 65.51925508073339 L 362.69082781954165 65.6293461762802 L 362.9128910144533 65.85002365391512 L 363.1338241118797 66.07136482421123 L 363.3536385559195 66.40462977248268 L 363.5723456177114 66.62764777238306 L 364.0064818350272 66.73941071512115 L 364.2219326988091 66.85134363958673 L 364.436319603373 67.07572150744045 L 364.64965300538404 67.18816749363828 L 365.07320036439495 67.30078554721183 L 365.28343447959764 67.41357619557095 L 365.4926554144101 67.52653996855423 L 365.9080964789433 67.75298901997985 L 366.11433563141674 67.86647537037709 L 366.3195996542318 68.20798820430656 L 366.72723889289284 68.43654703287893 L 367.33160958083903 68.7807217068235 L 367.5312111276196 68.89580520744266 L 367.72989916298064 69.01106894854365 L 367.92768201053184 69.12651349558718 L 368.3205648724536 69.24213941669899 L 368.7099240738118 69.3579472826869 L 368.90330194343335 69.47393766705767 L 369.2874925919015 69.8230097063751 L 370.04582209057304 70.17374532007324 L 370.60600095894137 70.29102962162699 L 370.9754777418394 70.40850112884937 L 371.15904359651375 70.52616044031987 L 371.3418365400377 70.88027122925996 L 371.52386305387506 70.99868780130691 L 371.7051295383018 71.11729521400389 L 371.88564231375625 71.35508502878491 L 372.422720420685 71.5936456384785 L 372.9532352906671 71.71321655616862 L 373.47734539804566 71.95294277350325 L 373.8232696183431 72.31400261616238 L 373.99520354583973 72.43475060657846 L 374.8448052191407 72.67684254740863 L 375.18004441355373 73.04148020654304 L 375.5127147000131 73.28557954689961 L 375.6780987474489 73.40793349636033 L 375.8428551499315 73.5304911993698 L 376.0069886533754 73.8993936442032 L 376.17050395006885 74.02277319304818 L 376.4956984290393 74.14635992847042 L 376.97896790868253 74.27015454748175 L 377.1388695993962 74.51837024195788 L 377.45691688230994 74.7674259234642 L 377.6150710096755 75.0173272965132 L 378.55208421709 75.14259691594845 L 378.70630555138365 75.39377765003997 L 378.8599809683075 75.6458185938036 L 379.01311431914274 76.025505852028 L 379.1657094145588 76.15250481995236 L 379.3177700251834 76.40716211088687 L 379.46929988216084 76.5348219584198 L 379.770782065622 76.79080789876173 L 379.92074166187507 76.91913554008045 L 380.36753730309306 77.04768733459827 L 380.51545315299666 77.17646406675402 L 380.662866740983 77.56415179548537 L 381.2475659488616 77.6938362055165 L 381.8244948373524 77.82374953783767 L 382.25221514392734 77.95389260207742 L 382.5350386845851 78.21487118637111 L 382.8160316393411 78.34570834731818 L 382.95584902250954 78.47677852203196 L 383.23414010333744 78.73962124301937 L 383.37261951883687 78.87139546560013 L 383.64826019052583 79.00340605462611 L 383.785427002736 79.13565385957293 L 383.9221617927751 79.26813973450413 L 384.19434613231385 79.40086453810386 L 384.46483460826335 79.66703438934962 L 384.59944947565316 79.93417037647447 L 384.7336482222327 80.06810286775868 L 384.8674334126973 80.20227953874286 L 385.0008075881043 80.60628357422723 L 385.1337732661629 81.01251763407998 L 385.5302441490751 81.2845914509661 L 385.7925607172453 81.42100647361787 L 385.92312701099684 81.69459743423147 L 386.0533018010312 81.8317752626694 L 386.31248621235517 81.96920925900292 L 386.4415004527683 82.10690038176574 L 386.57013242820534 82.38305786770451 L 386.6983843972528 82.66025549728795 L 386.82625859853977 82.9385011355244 L 387.58569359013734 83.07801944015046 L 387.71098447060336 83.21780273696726 L 387.96048665130814 83.35785203450922 L 388.084702072099 83.49816834707946 L 388.45523001079306 83.63875269479354 L 389.0658344499256 83.77960610362436 L 389.6679697607048 84.20379104534788 L 389.787401087607 84.34573107709718 L 389.9065047561363 84.63043504394551 L 390.14373627514243 84.77320110937382 L 390.61434532742874 84.91624466004083 L 390.8477505130277 85.0595667767077 L 391.079907536589 85.20316854646245 L 391.54053000048424 85.63566274107103 L 392.5594016390838 85.92541068875283 L 393.4454172884748 86.07071356645423 L 393.66412435026683 86.21630388821586 L 393.99013284058026 86.50835142879549 L 394.84770660116806 86.65481094707991 L 395.05947902085325 86.94860727995876 L 395.2702234150363 87.09594643557546 L 395.37521321215297 87.24358115639643 L 395.4799497163889 87.53974205364284 L 395.68866771432215 87.68827062807065 L 395.89638705772796 87.83709956382427 L 396.1031172576561 87.98623007817457 L 396.2061143639721 88.13566339580763 L 396.8190176254482 88.2854007488844 L 397.0214108122964 88.43544337710227 L 397.3232423406137 88.73644945580133 L 397.4233883133944 88.88741542391534 L 397.5233038004184 89.03869170256235 L 397.7224475438788 89.19027957005693 L 397.821677895536 89.34218031262901 L 398.11801529153996 89.49439522448904 L 398.2163466131913 89.79977277321694 L 398.7046898946025 90.10642273207213 L 399.0914475522926 90.26022818752762 L 399.18760099126496 90.56880676810943 L 399.8547772824706 90.72358260570041 L 399.9492566667654 90.87868463075625 L 400.1376008231284 91.03411422105012 L 400.4185937778843 91.18987276310321 L 400.6977796914967 91.34596165225844 L 400.79044410223617 91.50238229275601 L 400.9751816573802 91.65913609780881 L 401.06725647439475 91.81622448967897 L 401.1591364239261 92.13141076863286 L 401.25082232906914 92.2895115461892 L 401.43361527259304 92.44795269166696 L 401.88725848026087 92.60673567375386 L 402.15718635471694 92.7658619706637 L 402.6920587461523 93.08515046993864 L 403.1328062876184 93.56669559239668 L 403.7424307876974 93.88948507322203 L 403.82882536337195 94.05141227528816 L 404.8523680960939 94.21369653872841 L 405.35523001124386 94.37633944171637 L 405.4384769398181 94.53934257291223 L 405.5215645440298 94.70270753155506 L 405.7698774800043 94.86643592755775 L 406.0167782020733 95.03052938160181 L 406.0987673859308 95.3598180009613 L 406.180602018926 95.5250164623547 L 406.2622826826242 95.85653001231691 L 406.3438099553145 96.02284846422918 L 406.7491654674852 96.18954362869852 L 406.8297843577821 96.35661721611336 L 407.3103788593186 96.52407094853714 L 407.46940196734386 96.69190655981464 L 407.70684974223076 96.86012579568023 L 407.86442980616505 97.19772218421332 L 408.0214399590394 97.3671028887822 L 408.0997326041525 97.5368743219662 L 408.2558955781111 97.70703829060506 L 408.4890918055108 98.21990366678352 L 408.5665463487127 98.39165609864187 L 409.48537979876414 98.56381029094075 L 409.93760534573 98.90933150610539 L 410.0873063904423 99.08270233692684 L 410.1619637776271 99.43067406626182 L 410.60723188555204 99.6052788543281 L 410.68100124900985 99.78029887414817 L 411.12100427173664 99.95573610537554 L 411.1939064886146 100.30787019175818 L 411.4118814734785 100.48457107772163 L 411.4842972700008 100.6616972369855 L 411.70082270612585 101.01723359824257 L 411.9162735699078 101.19564794901288 L 412.41487268398043 101.37449587092811 L 412.4856359595484 101.55377947639658 L 412.6972363457174 102.09426575124775 L 412.7675412354936 102.27531352680637 L 412.8377324552287 102.45680778315136 L 413.3259188358928 102.6387507278547 L 414.21823859622924 103.00399159485471 L 414.28612486486924 103.187294015016 L 414.42157976399153 103.37105411959777 L 414.82542695478804 103.73995656443117 L 414.9592121452527 104.1107174677096 L 415.55619533308334 104.29680071134527 L 415.88433944980073 104.48335564938554 L 415.94967168176777 104.67038467926466 L 416.21002184704116 104.85789021674123 L 416.4688199901869 105.04587469608515 L 416.9180373310951 105.23434057026793 L 417.0455359835262 105.612726409696 L 417.236084614009 105.99306774018038 L 417.4888554005824 106.18397805125278 L 417.61469102476815 106.37538487864771 L 417.74016296167173 106.56729081176377 L 417.80276320315875 106.75969846030836 L 417.8652733074778 106.9526104545111 L 417.99002414030053 107.14602944533931 L 418.0522653838635 107.53439912574441 L 418.36214007527803 107.72935522292613 L 418.6084571045614 107.92482913239502 L 419.09693775688237 108.12082361214408 L 419.2182039249737 108.31734144225987 L 419.4597247701472 108.5143854251591 L 419.8195052266441 108.7119583858281 L 419.9982834886917 108.91006317206626 L 420.23551500769776 109.30787972799283 L 420.3536464001772 109.50759730957765 L 420.70612405998406 109.70785834103361 L 420.93952924558306 109.90866578798665 L 420.99768499433196 110.11002264040366 L 421.0557629427248 110.31193191286098 L 421.11376329864515 110.51439664481427 L 421.46014752943205 110.7174199008735 L 421.8608001023274 110.92100477108102 L 422.25778891653266 111.12515437119407 L 422.3142064162841 111.74102310029468 L 422.5391460902394 111.94746330199365 L 423.0964484795641 112.15448420825965 L 423.3724396185476 112.36208909528847 L 423.4274279222248 112.57028126707974 L 423.5919761670355 112.77906405575231 L 423.9192133441769 113.19841495473713 L 424.29789838654807 113.40898987278598 L 424.83321047049475 113.62016902385233 L 424.9925253646936 113.83195588554338 L 425.0455006732182 114.04435396557591 L 425.0984114170608 114.25736680212395 L 425.67621287952085 114.47099796417348 L 425.884430352756 114.68525105188064 L 425.9881657902833 114.90012969693566 L 426.0399407039322 115.1156375629327 L 426.0916539440541 115.54855577390168 L 426.1948959902114 115.76597360898069 L 427.1636407532595 115.98403564599391 L 427.2643676196734 116.20274571378707 L 427.4150210731691 116.42210767544367 L 427.71476859273037 116.86280290632834 L 427.7645259161703 117.08414407662445 L 427.86386980379797 117.30615294376958 L 428.60179000518946 117.52883354829868 L 428.8934815389226 117.75218996753438 L 429.51883570845104 117.97622631603554 L 429.661877880526 118.2009467460515 L 429.8518705686611 118.42635544798418 L 429.99382140886075 118.87925462279031 L 430.0410353993208 119.10675367148593 L 430.7431519418684 119.334958144717 L 430.9284809744362 119.56387243082719 L 430.9746898770947 119.79350095923672 L 431.11302220852616 120.02384820095688 L 431.2967823133619 120.25491866911221 L 431.4340937402699 120.71924755098416 L 432.2040934967669 120.95251520633343 L 432.51722501364867 121.18652457248646 L 432.6062778857957 121.65678740990683 L 433.2245850201738 121.89305048167319 L 433.2684146654403 122.13007446641711 L 433.399638724895 122.36786428119814 L 433.9637369955996 122.84576130881135 L 434.04987444439183 123.32678186857567 L 434.264473299304 123.56847628497832 L 434.3072660676273 124.29835879931284 L 434.6480981220694 124.54327045178303 L 434.85976728809356 124.78899984083671 L 434.9441468286493 125.0355524454614 L 435.1124154887244 125.28293379989486 L 435.69627216512384 125.5311494943711 L 435.8203692289924 125.78020517587748 L 436.19054611848617 126.03010654892648 L 436.2723807514813 126.28085937633921 L 436.4355886878698 126.53246948004266 L 436.6387395496796 126.7849427418812 L 436.8005785439954 127.2925025718909 L 436.9215630903374 127.54760121083297 L 436.9618164635959 127.80358715117495 L 437.40215759187396 128.0604665870115 L 437.9168671133286 128.31824577752468 L 438.0347845962781 128.5769310478986 L 438.4644290021468 128.83652879025095 L 438.54209138412637 129.09704546458033 L 438.92833289933867 129.3584875997314 L 439.00517054762537 129.62086179437614 L 439.0435384334183 129.8841747180134 L 439.12017262798497 130.41364379051714 L 439.3873319938566 130.67981364176285 L 439.50132749029416 130.94694962888764 L 439.65285734727155 131.21505879115603 L 439.9167685548274 131.48414824504624 L 440.06685776205273 131.75422518538323 L 440.1790851229976 132.02529688649327 L 440.21642986504156 132.29737070337933 L 440.2910231135459 132.57045407291866 L 440.51403692562155 132.84455451508262 L 440.5510947682038 133.1196796341789 L 440.6990106181074 133.39583712011768 L 440.91994371553375 133.67303474970117 L 441.0666102737779 134.23058198938043 L 441.5398832035037 134.51094759949268 L 441.79260143868123 134.79238535603753 L 441.9722179958896 135.0749034904959 L 442.04385705496605 135.3585103295104 L 442.43577260903805 135.6432142963588 L 442.5066514165358 135.92902391245406 L 442.5420474722667 136.5039946779296 L 442.5774146921038 136.79317337473918 L 442.61275312299193 137.37496204597238 L 442.7185961496959 137.6675901994932 L 442.8944297636941 138.2563604088097 L 443.1394064876203 138.55252130605612 L 443.2439748078247 138.84987881623744 L 443.41769756844826 139.14844264822085 L 443.9347333734082 139.4482226295155 L 444.0032085610256 140.05147095497557 L 444.5133584965469 140.35495956504224 L 444.9172056873434 140.65970486030784 L 444.9506906561836 140.96571729142204 L 444.98414981772345 141.2730074399409 L 445.0175832117124 141.5815860205226 L 445.482967177715 141.89146388316948 L 445.5160187666346 142.20265201551643 L 445.7795294994874 142.5151615451693 L 446.431392496569 142.8290037420922 L 446.4960436774659 143.1441900210461 L 447.26444001906924 143.46073194408024 L 447.39119415276105 143.77864122307705 L 447.4228249446514 144.09792972235186 L 447.5806341331378 144.41860946131055 L 447.643597537864 145.06419152770133 L 447.6750450292421 145.3891186941296 L 447.7378717550391 145.7154867839683 L 447.76925105524805 146.0433086340151 L 447.92580823879337 146.70336582655636 L 447.9882733717988 147.0356277166424 L 448.14404411641885 147.3693964685266 L 448.57725201563795 147.70468581222786 L 448.7615973454934 148.04150966627947 L 449.0366558788132 148.37988214119548 L 449.06711063975973 148.71981754301828 L 449.1583469464371 149.0613303769478 L 449.27969785689464 149.4044353510551 L 449.4610905718309 149.74914738008385 L 449.52138677589716 150.09548158934018 L 450.0305512318747 150.44345331867498 L 450.1197871521919 150.7930781265614 L 450.386399617251 151.14437179426818 L 450.7979027925395 151.49735033013485 L 450.8855768579127 151.85202997394816 L 451.03130797813844 152.2084272014261 L 451.3502048106731 152.5665587288098 L 451.465588958194 152.92644151756855 L 451.5231662344706 153.28809277921965 L 451.66677622301563 153.65152998026798 L 451.75271473992535 154.01677084726794 L 451.83848347368166 154.383833372011 L 451.98105588408293 154.75273581684445 L 452.2082023012883 155.1234967201229 L 452.6589605098841 155.49613490179877 L 452.68697810359544 155.8706694691545 L 452.9939841142501 156.2471198226811 L 453.02178639502677 156.62550566210916 L 453.07733759895837 157.00584699259355 L 453.35403235299646 157.38816413106093 L 453.7931082570295 157.77247771272158 L 453.9838163262681 158.1588086977526 L 454.03815082641313 158.93760838480824 L 454.17369030569097 159.3301206946732 L 454.3357810725177 159.72473763824132 L 454.4435063385839 160.12148190714538 L 454.47039593990746 160.52037656199087 L 454.76508751233655 160.92144504039993 L 454.89837978759925 161.32471116527427 L 455.3748715704203 161.73019915328672 L 455.63734673482134 162.1379336236073 L 455.66350718149965 162.54793960687266 L 456.697205062794 162.96024255440693 L 457.07858315190464 163.37486834770175 L 457.4064222813555 163.7918433081656 L 457.45664005439164 164.2111942071504 L 458.0795095617389 164.63294827626555 L 458.3753421201086 165.05713321798908 L 458.522505854077 165.9129089493489 L 458.6447623695364 166.34455759815762 L 458.9125209191653 166.77875286139403 L 458.9367809141799 167.21552496620035 L 459.15451296129055 167.65490468110664 L 459.6106144410064 168.09692332903768 L 459.7536566130813 168.5416128007119 L 459.96734003028956 168.98900556844876 L 460.03833474758136 169.4391347003974 L 460.0856001414162 169.89203387520354 L 460.2035389804515 170.34773739713023 L 460.2270883490512 170.8062802116499 L 460.57880450408936 171.26769792152538 L 460.6021512429951 171.73202680339745 L 460.71869697728204 172.6695666623201 L 460.9508540008433 173.1428537188304 L 462.1159206350902 173.61920414330496 L 462.1384554188554 174.5812555373916 L 462.3855690793071 175.06703871136955 L 462.4750809872021 175.5560497041963 L 462.51976782588673 176.04833169787463 L 463.0745065258096 176.54392874678433 L 463.38209163803066 177.0428858013397 L 463.44772016141184 177.54524873245595 L 463.92598825280805 178.0510643568545 L 464.1631608612855 178.56038046324625 L 464.5271705988856 179.07324583942477 L 464.84584044140064 179.58971030031182 L 465.01484604636994 180.10982471699356 L 465.07805390992445 180.63364104678936 L 465.2880846047733 181.16121236439943 L 465.4762473551683 181.69259289417607 L 465.4971040742574 182.2278380435693 L 465.601237633298 182.76700443779646 L 465.953434945115 183.3101499557925 L 466.13874200357856 183.8573337674959 L 466.932722932596 184.40861637253096 L 467.0535951961512 184.9640596403509 L 467.37428555521575 185.52372685190585 L 467.6132582317463 186.08768274290912 L 467.73225307997603 186.65599354877202 L 467.910136023836 187.22872705128896 L 467.9298558787965 187.8059526271523 L 468.2832900692633 188.3877412983856 L 468.32238350724856 188.9741657847852 L 468.45893397688906 189.5653005584693 L 468.5562077347022 190.16122190063408 L 468.69202586543054 190.76200796062778 L 468.9431377465709 191.3677388174554 L 469.05854745551926 191.97849654383526 L 469.25021778871115 192.59436527293587 L 469.2884505168087 193.21543126792966 L 469.4029470929312 193.84178299450548 L 469.46008234129516 194.47351119649346 L 469.57412774825264 195.11070897476515 L 469.6310383003601 196.40189794654287 L 469.7446360798269 197.05608788642832 L 469.7824360473425 197.7161450789696 L 469.8767922243449 198.38217572093987 L 470.25217943092673 199.0542889186927 L 470.47586353221726 199.73259679543156 L 470.8276897013323 200.41721460346844 L 471.19497835527454 201.1082608417534 L 471.93834321106095 201.80585737897468 L 472.15352709622266 202.51012958254807 L 472.2785602292007 203.2212064538394 L 472.3142179395824 203.93922076998183 L 472.6691934246591 204.6643092326812 L 472.9510987006043 205.39661262442422 L 473.14385213912664 206.1362759725361 L 473.49213527423063 206.88344872156773 L 473.630669926926 207.6382849145224 L 473.66523462616357 208.40094338347416 L 474.6558240532477 209.17158795016582 L 475.27614378577044 209.95038763722152 L 475.32605365133526 210.73751689065455 L 475.39251100828403 211.53315581440404 L 475.67382528370337 212.33749041768743 L 476.3123874800913 213.15071287602046 L 476.458423625849 213.9730218068201 L 476.7168366504344 214.80462256057876 L 477.03770477739135 215.64572752867872 L 477.27680907162943 216.4965564690001 L 477.65665773579815 217.35733685057085 L 477.95503183091574 218.22830421861363 L 479.0369419327231 219.10970258145096 L 479.82354516532206 220.00178482086204 L 479.83853334428983 220.90481312761688 L 480.04782632515776 221.8190594640633 L 480.1818409538024 222.74480605581073 L 480.2264207214873 223.68234591473333 L 480.7284844253146 224.63198339571824 L 480.9627555365389 225.59403478980488 L 480.977355590468 226.56882895660954 L 481.18124245944256 227.5567079991976 L 481.4275389382211 228.55802798486917 L 481.9445405355711 229.57315971565947 L 482.2433057517095 230.60248955272505 L 482.4695642961558 231.64642029920253 L 482.4977638813948 232.7053721465893 L 482.68061604846775 233.77978369020968 L 483.1968653001472 234.87011301990913 L 483.30768414768374 235.97683889276408 L 483.5009390421011 237.10046199532235 L 484.1570713291236 238.24150630370218 L 484.46798811153246 239.4005205507989 L 486.3139559543058 240.5780798108825 L 486.3268631225141 241.77478721304107 L 487.068988201622 242.9912757962485 L 487.1703618844599 244.22821052034288 L 487.5107609040459 245.4862904489067 L 488.45483466043555 246.76625112199008 L 488.8827959061639 248.06886713884154 L 489.0770390040332 249.39495497335304 L 489.19800107713246 250.74537604784467 L 489.65460752212294 252.12104009416646 L 489.69045169089844 253.5229088349613 L 490.14193465378327 254.9520000223951 L 490.6121614004173 256.4093918768376 L 491.2505178550462 257.896227973981 L 492.4773478118625 259.41372263588755 L 492.57803574246014 260.9631668896348 L 492.9008951708734 262.5459350668174 L 493.122166087953 264.1634921284338 L 493.1552596684774 265.8174018129921 L 496.2305207361339 267.5093357214133 L 497.0849798638556 269.24108347102685 L 497.1956382158418 271.0145640732753 L 497.27594022245813 272.83183871647645 L 498.2673799745989 274.6951251671466 L 498.89988290229917 276.60681404221805 L 499.2750081205304 278.56948725161084 L 500.1660539052397 280.58593896807275 L 500.31591644007267 282.6591995516158 L 500.5676422647726 284.79256294262296 L 500.771678470057 286.98961814517736 L 501.36897054523314 289.2542855561154 L 501.55111161353733 291.5908590632958 L 502.41490652541665 294.0040550486617 L 502.5927206586979 296.4990697013199 L 502.7432921488459 299.0816463912547 L 503.0077392200322 301.7581553002579 L 503.29678247041227 304.53568808737447 L 503.4014137962934 307.4221711292506 L 504.21241640203704 310.42650188830055 L 505.4593801523494 313.55871431923043 L 505.4842897408394 316.83018106540516 L 507.02546127248394 320.25386272343985 L 507.04148092578345 323.84461796888957 L 507.74843646835353 327.6195932946311 L 507.7799410125148 331.5987182204857 L 508.0702793053432 335.8053421950365 L 508.3664570928936 340.26706480852897 L 509.6521896438309 345.0168343010753 L 513.4271234482019 350.09442564366833 L 514.6942566045234 355.5484673397881 L 515.8732093387279 361.43928114071423 L 516.0752986079871 367.8429603178188 L 516.2829248172716 374.85739722130324 L 516.8040832145659 382.6114974728995 L 519.1930371290991 391.2798440609422 L 523.2249788172506 401.1072048960815 L 523.914527002381 412.45206039312745 L 524.9711499427281 425.8701764737164 L 526.4965883836464 442.29262331335536 L 526.537496052114 463.4648396455407 L 535.4347247845969 493.30540256576865 L 538.5435957348758 544.3181818181819" stroke-linejoin="bevel" stroke-miterlimit="10"/><path fill="none" stroke="none"/></g></g></g><g clip-path="url(#LCWLiMxtsIOq)"><g><g/><g><path fill="#ffffff" stroke="#e5e5e5" paint-order="fill stroke markers" d=" M 123 475 L 255 475 L 255 560 L 123 560 L 123 475 Z" fill-opacity="0.95" stroke-linejoin="bevel" stroke-miterlimit="10" stroke-opacity="0.5"/><text fill="#444444" stroke="none" font-family="helvetica" font-size="22pt" font-style="normal" font-weight="normal" text-decoration="normal" x="158" y="500.5" text-anchor="start" dominant-baseline="central">male</text><g><path fill="none" stroke="blue" paint-order="fill stroke markers" d=" M 133 495 L 153 495" stroke-linejoin="bevel" stroke-miterlimit="10"/></g><text fill="#444444" stroke="none" font-family="helvetica" font-size="22pt" font-style="normal" font-weight="normal" text-decoration="normal" x="158" y="534.5" text-anchor="start" dominant-baseline="central">female</text><g><path fill="none" stroke="red" paint-order="fill stroke markers" d=" M 133 529 L 153 529" stroke-linejoin="bevel" stroke-miterlimit="10"/></g></g></g></g><g/><g/><g><g fill="#444444"><path fill="none" stroke="black" paint-order="fill stroke markers" d=" M 113 570 L 570 570" stroke-linejoin="bevel" stroke-miterlimit="10"/><path fill="none" stroke="black" paint-order="fill stroke markers" d=" M 134 576 L 134 568" stroke-linejoin="bevel" stroke-miterlimit="10"/><path fill="none" stroke="black" paint-order="fill stroke markers" d=" M 234 576 L 234 568" stroke-linejoin="bevel" stroke-miterlimit="10"/><path fill="none" stroke="black" paint-order="fill stroke markers" d=" M 334 576 L 334 568" stroke-linejoin="bevel" stroke-miterlimit="10"/><path fill="none" stroke="black" paint-order="fill stroke markers" d=" M 434 576 L 434 568" stroke-linejoin="bevel" stroke-miterlimit="10"/><path fill="none" stroke="black" paint-order="fill stroke markers" d=" M 534 576 L 534 568" stroke-linejoin="bevel" stroke-miterlimit="10"/><path fill="none" stroke="black" paint-order="fill stroke markers" d=" M 118 574 L 118 570" stroke-linejoin="bevel" stroke-miterlimit="10"/><path fill="none" stroke="black" paint-order="fill stroke markers" d=" M 124 574 L 124 570" stroke-linejoin="bevel" stroke-miterlimit="10"/><path fill="none" stroke="black" paint-order="fill stroke markers" d=" M 129 574 L 129 570" stroke-linejoin="bevel" stroke-miterlimit="10"/><path fill="none" stroke="black" paint-order="fill stroke markers" d=" M 134 574 L 134 570" stroke-linejoin="bevel" stroke-miterlimit="10"/><path fill="none" stroke="black" paint-order="fill stroke markers" d=" M 134 574 L 134 570" stroke-linejoin="bevel" stroke-miterlimit="10"/><path fill="none" stroke="black" paint-order="fill stroke markers" d=" M 164 574 L 164 570" stroke-linejoin="bevel" stroke-miterlimit="10"/><path fill="none" stroke="black" paint-order="fill stroke markers" d=" M 181 574 L 181 570" stroke-linejoin="bevel" stroke-miterlimit="10"/><path fill="none" stroke="black" paint-order="fill stroke markers" d=" M 194 574 L 194 570" stroke-linejoin="bevel" stroke-miterlimit="10"/><path fill="none" stroke="black" paint-order="fill stroke markers" d=" M 204 574 L 204 570" stroke-linejoin="bevel" stroke-miterlimit="10"/><path fill="none" stroke="black" paint-order="fill stroke markers" d=" M 212 574 L 212 570" stroke-linejoin="bevel" stroke-miterlimit="10"/><path fill="none" stroke="black" paint-order="fill stroke markers" d=" M 218 574 L 218 570" stroke-linejoin="bevel" stroke-miterlimit="10"/><path fill="none" stroke="black" paint-order="fill stroke markers" d=" M 224 574 L 224 570" stroke-linejoin="bevel" stroke-miterlimit="10"/><path fill="none" stroke="black" paint-order="fill stroke markers" d=" M 229 574 L 229 570" stroke-linejoin="bevel" stroke-miterlimit="10"/><path fill="none" stroke="black" paint-order="fill stroke markers" d=" M 234 574 L 234 570" stroke-linejoin="bevel" stroke-miterlimit="10"/><path fill="none" stroke="black" paint-order="fill stroke markers" d=" M 234 574 L 234 570" stroke-linejoin="bevel" stroke-miterlimit="10"/><path fill="none" stroke="black" paint-order="fill stroke markers" d=" M 264 574 L 264 570" stroke-linejoin="bevel" stroke-miterlimit="10"/><path fill="none" stroke="black" paint-order="fill stroke markers" d=" M 281 574 L 281 570" stroke-linejoin="bevel" stroke-miterlimit="10"/><path fill="none" stroke="black" paint-order="fill stroke markers" d=" M 294 574 L 294 570" stroke-linejoin="bevel" stroke-miterlimit="10"/><path fill="none" stroke="black" paint-order="fill stroke markers" d=" M 304 574 L 304 570" stroke-linejoin="bevel" stroke-miterlimit="10"/><path fill="none" stroke="black" paint-order="fill stroke markers" d=" M 312 574 L 312 570" stroke-linejoin="bevel" stroke-miterlimit="10"/><path fill="none" stroke="black" paint-order="fill stroke markers" d=" M 318 574 L 318 570" stroke-linejoin="bevel" stroke-miterlimit="10"/><path fill="none" stroke="black" paint-order="fill stroke markers" d=" M 324 574 L 324 570" stroke-linejoin="bevel" stroke-miterlimit="10"/><path fill="none" stroke="black" paint-order="fill stroke markers" d=" M 329 574 L 329 570" stroke-linejoin="bevel" stroke-miterlimit="10"/><path fill="none" stroke="black" paint-order="fill stroke markers" d=" M 334 574 L 334 570" stroke-linejoin="bevel" stroke-miterlimit="10"/><path fill="none" stroke="black" paint-order="fill stroke markers" d=" M 334 574 L 334 570" stroke-linejoin="bevel" stroke-miterlimit="10"/><path fill="none" stroke="black" paint-order="fill stroke markers" d=" M 364 574 L 364 570" stroke-linejoin="bevel" stroke-miterlimit="10"/><path fill="none" stroke="black" paint-order="fill stroke markers" d=" M 381 574 L 381 570" stroke-linejoin="bevel" stroke-miterlimit="10"/><path fill="none" stroke="black" paint-order="fill stroke markers" d=" M 394 574 L 394 570" stroke-linejoin="bevel" stroke-miterlimit="10"/><path fill="none" stroke="black" paint-order="fill stroke markers" d=" M 404 574 L 404 570" stroke-linejoin="bevel" stroke-miterlimit="10"/><path fill="none" stroke="black" paint-order="fill stroke markers" d=" M 411 574 L 411 570" stroke-linejoin="bevel" stroke-miterlimit="10"/><path fill="none" stroke="black" paint-order="fill stroke markers" d=" M 418 574 L 418 570" stroke-linejoin="bevel" stroke-miterlimit="10"/><path fill="none" stroke="black" paint-order="fill stroke markers" d=" M 424 574 L 424 570" stroke-linejoin="bevel" stroke-miterlimit="10"/><path fill="none" stroke="black" paint-order="fill stroke markers" d=" M 429 574 L 429 570" stroke-linejoin="bevel" stroke-miterlimit="10"/><path fill="none" stroke="black" paint-order="fill stroke markers" d=" M 434 574 L 434 570" stroke-linejoin="bevel" stroke-miterlimit="10"/><path fill="none" stroke="black" paint-order="fill stroke markers" d=" M 434 574 L 434 570" stroke-linejoin="bevel" stroke-miterlimit="10"/><path fill="none" stroke="black" paint-order="fill stroke markers" d=" M 464 574 L 464 570" stroke-linejoin="bevel" stroke-miterlimit="10"/><path fill="none" stroke="black" paint-order="fill stroke markers" d=" M 481 574 L 481 570" stroke-linejoin="bevel" stroke-miterlimit="10"/><path fill="none" stroke="black" paint-order="fill stroke markers" d=" M 494 574 L 494 570" stroke-linejoin="bevel" stroke-miterlimit="10"/><path fill="none" stroke="black" paint-order="fill stroke markers" d=" M 504 574 L 504 570" stroke-linejoin="bevel" stroke-miterlimit="10"/><path fill="none" stroke="black" paint-order="fill stroke markers" d=" M 511 574 L 511 570" stroke-linejoin="bevel" stroke-miterlimit="10"/><path fill="none" stroke="black" paint-order="fill stroke markers" d=" M 518 574 L 518 570" stroke-linejoin="bevel" stroke-miterlimit="10"/><path fill="none" stroke="black" paint-order="fill stroke markers" d=" M 524 574 L 524 570" stroke-linejoin="bevel" stroke-miterlimit="10"/><path fill="none" stroke="black" paint-order="fill stroke markers" d=" M 529 574 L 529 570" stroke-linejoin="bevel" stroke-miterlimit="10"/><path fill="none" stroke="black" paint-order="fill stroke markers" d=" M 534 574 L 534 570" stroke-linejoin="bevel" stroke-miterlimit="10"/><path fill="none" stroke="black" paint-order="fill stroke markers" d=" M 534 574 L 534 570" stroke-linejoin="bevel" stroke-miterlimit="10"/><path fill="" stroke="black" paint-order="fill stroke markers" d=" M 564 574 L 564 570" stroke-linejoin="bevel" stroke-miterlimit="10"/><g transform="translate(134,581) rotate(0,0,0)"><text fill="" stroke="none" font-family="helvetica" font-size="26px" font-style="normal" font-weight="normal" text-decoration="normal" x="0" y="0" text-anchor="middle" dominant-baseline="hanging">10^0</text><g transform="rotate(0,0,0) translate(-134,-581) translate(234,581) rotate(0,0,0)"><text fill="" stroke="none" font-family="helvetica" font-size="26px" font-style="normal" font-weight="normal" text-decoration="normal" x="0" y="0" text-anchor="middle" dominant-baseline="hanging">10^1</text><g transform="rotate(0,0,0) translate(-234,-581) translate(334,581) rotate(0,0,0)"><text fill="" stroke="none" font-family="helvetica" font-size="26px" font-style="normal" font-weight="normal" text-decoration="normal" x="0" y="0" text-anchor="middle" dominant-baseline="hanging">10^2</text><g transform="rotate(0,0,0) translate(-334,-581) translate(434,581) rotate(0,0,0)"><text fill="" stroke="none" font-family="helvetica" font-size="26px" font-style="normal" font-weight="normal" text-decoration="normal" x="0" y="0" text-anchor="middle" dominant-baseline="hanging">10^3</text><g transform="rotate(0,0,0) translate(-434,-581) translate(534,581) rotate(0,0,0)"><text fill="" stroke="none" font-family="helvetica" font-size="26px" font-style="normal" font-weight="normal" text-decoration="normal" x="0" y="0" text-anchor="middle" dominant-baseline="hanging">10^4</text><g transform="rotate(0,0,0) translate(-534,-581)"/></g></g></g></g></g></g></g><g><g fill="#444444"><path fill="none" stroke="black" paint-order="fill stroke markers" d=" M 113 570 L 113 5" stroke-linejoin="bevel" stroke-miterlimit="10"/><path fill="none" stroke="black" paint-order="fill stroke markers" d=" M 107 537 L 115 537" stroke-linejoin="bevel" stroke-miterlimit="10"/><path fill="none" stroke="black" paint-order="fill stroke markers" d=" M 107 368 L 115 368" stroke-linejoin="bevel" stroke-miterlimit="10"/><path fill="none" stroke="black" paint-order="fill stroke markers" d=" M 107 198 L 115 198" stroke-linejoin="bevel" stroke-miterlimit="10"/><path fill="none" stroke="black" paint-order="fill stroke markers" d=" M 107 29 L 115 29" stroke-linejoin="bevel" stroke-miterlimit="10"/><path fill="none" stroke="black" paint-order="fill stroke markers" d=" M 109 563 L 113 563" stroke-linejoin="bevel" stroke-miterlimit="10"/><path fill="none" stroke="black" paint-order="fill stroke markers" d=" M 109 553 L 113 553" stroke-linejoin="bevel" stroke-miterlimit="10"/><path fill="none" stroke="black" paint-order="fill stroke markers" d=" M 109 545 L 113 545" stroke-linejoin="bevel" stroke-miterlimit="10"/><path fill="none" stroke="black" paint-order="fill stroke markers" d=" M 109 537 L 113 537" stroke-linejoin="bevel" stroke-miterlimit="10"/><path fill="none" stroke="black" paint-order="fill stroke markers" d=" M 109 537 L 113 537" stroke-linejoin="bevel" stroke-miterlimit="10"/><path fill="none" stroke="black" paint-order="fill stroke markers" d=" M 109 486 L 113 486" stroke-linejoin="bevel" stroke-miterlimit="10"/><path fill="none" stroke="black" paint-order="fill stroke markers" d=" M 109 456 L 113 456" stroke-linejoin="bevel" stroke-miterlimit="10"/><path fill="none" stroke="black" paint-order="fill stroke markers" d=" M 109 435 L 113 435" stroke-linejoin="bevel" stroke-miterlimit="10"/><path fill="none" stroke="black" paint-order="fill stroke markers" d=" M 109 419 L 113 419" stroke-linejoin="bevel" stroke-miterlimit="10"/><path fill="none" stroke="black" paint-order="fill stroke markers" d=" M 109 405 L 113 405" stroke-linejoin="bevel" stroke-miterlimit="10"/><path fill="none" stroke="black" paint-order="fill stroke markers" d=" M 109 394 L 113 394" stroke-linejoin="bevel" stroke-miterlimit="10"/><path fill="none" stroke="black" paint-order="fill stroke markers" d=" M 109 384 L 113 384" stroke-linejoin="bevel" stroke-miterlimit="10"/><path fill="none" stroke="black" paint-order="fill stroke markers" d=" M 109 375 L 113 375" stroke-linejoin="bevel" stroke-miterlimit="10"/><path fill="none" stroke="black" paint-order="fill stroke markers" d=" M 109 368 L 113 368" stroke-linejoin="bevel" stroke-miterlimit="10"/><path fill="none" stroke="black" paint-order="fill stroke markers" d=" M 109 368 L 113 368" stroke-linejoin="bevel" stroke-miterlimit="10"/><path fill="none" stroke="black" paint-order="fill stroke markers" d=" M 109 316 L 113 316" stroke-linejoin="bevel" stroke-miterlimit="10"/><path fill="none" stroke="black" paint-order="fill stroke markers" d=" M 109 287 L 113 287" stroke-linejoin="bevel" stroke-miterlimit="10"/><path fill="none" stroke="black" paint-order="fill stroke markers" d=" M 109 265 L 113 265" stroke-linejoin="bevel" stroke-miterlimit="10"/><path fill="none" stroke="black" paint-order="fill stroke markers" d=" M 109 249 L 113 249" stroke-linejoin="bevel" stroke-miterlimit="10"/><path fill="none" stroke="black" paint-order="fill stroke markers" d=" M 109 236 L 113 236" stroke-linejoin="bevel" stroke-miterlimit="10"/><path fill="none" stroke="black" paint-order="fill stroke markers" d=" M 109 224 L 113 224" stroke-linejoin="bevel" stroke-miterlimit="10"/><path fill="none" stroke="black" paint-order="fill stroke markers" d=" M 109 214 L 113 214" stroke-linejoin="bevel" stroke-miterlimit="10"/><path fill="none" stroke="black" paint-order="fill stroke markers" d=" M 109 206 L 113 206" stroke-linejoin="bevel" stroke-miterlimit="10"/><path fill="none" stroke="black" paint-order="fill stroke markers" d=" M 109 198 L 113 198" stroke-linejoin="bevel" stroke-miterlimit="10"/><path fill="none" stroke="black" paint-order="fill stroke markers" d=" M 109 198 L 113 198" stroke-linejoin="bevel" stroke-miterlimit="10"/><path fill="none" stroke="black" paint-order="fill stroke markers" d=" M 109 147 L 113 147" stroke-linejoin="bevel" stroke-miterlimit="10"/><path fill="none" stroke="black" paint-order="fill stroke markers" d=" M 109 117 L 113 117" stroke-linejoin="bevel" stroke-miterlimit="10"/><path fill="none" stroke="black" paint-order="fill stroke markers" d=" M 109 96 L 113 96" stroke-linejoin="bevel" stroke-miterlimit="10"/><path fill="none" stroke="black" paint-order="fill stroke markers" d=" M 109 80 L 113 80" stroke-linejoin="bevel" stroke-miterlimit="10"/><path fill="none" stroke="black" paint-order="fill stroke markers" d=" M 109 66 L 113 66" stroke-linejoin="bevel" stroke-miterlimit="10"/><path fill="none" stroke="black" paint-order="fill stroke markers" d=" M 109 55 L 113 55" stroke-linejoin="bevel" stroke-miterlimit="10"/><path fill="none" stroke="black" paint-order="fill stroke markers" d=" M 109 45 L 113 45" stroke-linejoin="bevel" stroke-miterlimit="10"/><path fill="none" stroke="black" paint-order="fill stroke markers" d=" M 109 36 L 113 36" stroke-linejoin="bevel" stroke-miterlimit="10"/><path fill="none" stroke="black" paint-order="fill stroke markers" d=" M 109 29 L 113 29" stroke-linejoin="bevel" stroke-miterlimit="10"/><path fill="" stroke="black" paint-order="fill stroke markers" d=" M 109 29 L 113 29" stroke-linejoin="bevel" stroke-miterlimit="10"/><g transform="translate(102,537) rotate(0,0,0)"><text fill="" stroke="none" font-family="helvetica" font-size="26px" font-style="normal" font-weight="normal" text-decoration="normal" x="0" y="0" text-anchor="end" dominant-baseline="central">10^-3</text><g transform="rotate(0,0,0) translate(-102,-537) translate(102,368) rotate(0,0,0)"><text fill="" stroke="none" font-family="helvetica" font-size="26px" font-style="normal" font-weight="normal" text-decoration="normal" x="0" y="0" text-anchor="end" dominant-baseline="central">10^-2</text><g transform="rotate(0,0,0) translate(-102,-368) translate(102,198) rotate(0,0,0)"><text fill="" stroke="none" font-family="helvetica" font-size="26px" font-style="normal" font-weight="normal" text-decoration="normal" x="0" y="0" text-anchor="end" dominant-baseline="central">10^-1</text><g transform="rotate(0,0,0) translate(-102,-198) translate(102,29) rotate(0,0,0)"><text fill="" stroke="none" font-family="helvetica" font-size="26px" font-style="normal" font-weight="normal" text-decoration="normal" x="0" y="0" text-anchor="end" dominant-baseline="central">10^0</text><g transform="rotate(0,0,0) translate(-102,-29) translate(26,288) rotate(-90,0,0)"><text fill="" stroke="none" font-family="helvetica" font-size="26pt" font-style="italic" font-weight="normal" text-decoration="normal" x="0" y="0" text-anchor="middle" dominant-baseline="alphabetic">CCDF</text><g transform="rotate(90,0,0) translate(-26,-288)"/></g></g></g></g></g></g></g><g clip-path="url(#tgffMbmXsCWU)"><g/></g><g clip-path="url(#CJLgZtugdazr)"><g/></g></g></g></svg>