<svg version="1.1" xmlns="http://www.w3.org/2000/svg" xmlns:xlink="http://www.w3.org/1999/xlink" width="600" height="600" style="width: 600px; height: 600px;"><defs><clipPath id="SWdEEVquQWrN"><path fill="none" stroke="none" d=" M 113 5 L 570 5 L 570 570 L 113 570 L 113 5 Z"/></clipPath><clipPath id="AyIzbqqlUfhk"><path fill="none" stroke="none" d=" M 113 5 L 570 5 L 570 570 L 113 570 L 113 5 Z"/></clipPath><clipPath id="wzVctxcIwFqM"><path fill="none" stroke="none" d=" M 113 5 L 570 5 L 570 570 L 113 570 L 113 5 Z"/></clipPath><clipPath id="PxKcByvKLVXT"><path fill="none" stroke="none" d=" M 113 5 L 570 5 L 570 570 L 113 570 L 113 5 Z"/></clipPath><clipPath id="caFHqElFyJQw"><path fill="none" stroke="none" d=" M 113 5 L 570 5 L 570 570 L 113 570 L 113 5 Z"/></clipPath><clipPath id="RIDArSyHpHvp"><path fill="none" stroke="none" d=" M 113 5 L 570 5 L 570 570 L 113 570 L 113 5 Z"/></clipPath><clipPath id="vdxzsHAswOhn"><path fill="none" stroke="none" d=" M 113 5 L 570 5 L 570 570 L 113 570 L 113 5 Z"/></clipPath><clipPath id="WXiHDyDSSMJg"><path fill="none" stroke="none" d=" M 113 5 L 570 5 L 570 570 L 113 570 L 113 5 Z"/></clipPath></defs><g><g transform="scale(1,1) translate(0.5,0.5)"><rect fill="#FFFFFF" stroke="none" x="0" y="0" width="600" height="600"/><rect fill="#ffffff" stroke="none" x="0" y="0" width="600" height="600"/><rect fill="#FFFFFF" stroke="none" x="113" y="5" width="457" height="565"/><rect fill="#ffffff" stroke="none" x="113" y="5" width="457" height="565"/><g><rect fill="none" stroke="#e5e5e5" x="113" y="5" width="457" height="565" stroke-linejoin="bevel" stroke-miterlimit="10"/></g><g clip-path="url(#SWdEEVquQWrN)"><g><g><path fill="none" stroke="#e5e5e5" paint-order="fill stroke markers" d=" M 134 570 L 134 5" stroke-linejoin="bevel" stroke-miterlimit="10"/><path fill="none" stroke="#e5e5e5" paint-order="fill stroke markers" d=" M 239 570 L 239 5" stroke-linejoin="bevel" stroke-miterlimit="10"/><path fill="none" stroke="#e5e5e5" paint-order="fill stroke markers" d=" M 345 570 L 345 5" stroke-linejoin="bevel" stroke-miterlimit="10"/><path fill="none" stroke="#e5e5e5" paint-order="fill stroke markers" d=" M 450 570 L 450 5" stroke-linejoin="bevel" stroke-miterlimit="10"/><path fill="none" stroke="#e5e5e5" paint-order="fill stroke markers" d=" M 555 570 L 555 5" stroke-linejoin="bevel" stroke-miterlimit="10"/></g></g></g><g clip-path="url(#AyIzbqqlUfhk)"><g><g><path fill="none" stroke="#e5e5e5" paint-order="fill stroke markers" d=" M 113 537 L 570 537" stroke-linejoin="bevel" stroke-miterlimit="10"/><path fill="none" stroke="#e5e5e5" paint-order="fill stroke markers" d=" M 113 363 L 570 363" stroke-linejoin="bevel" stroke-miterlimit="10"/><path fill="none" stroke="#e5e5e5" paint-order="fill stroke markers" d=" M 113 190 L 570 190" stroke-linejoin="bevel" stroke-miterlimit="10"/><path fill="none" stroke="#e5e5e5" paint-order="fill stroke markers" d=" M 113 16 L 570 16" stroke-linejoin="bevel" stroke-miterlimit="10"/></g></g></g><g clip-path="url(#wzVctxcIwFqM)"><g><g fill="#444444"><path fill="" stroke="none" d=""/><g transform="translate(122.44715592574906,358.2092565328362) rotate(0,0,0)"><path fill="none" stroke="none"/><text fill="" stroke="none" font-family="helvetica" font-size="20pt" font-style="normal" font-weight="normal" text-decoration="normal" x="0" y="0" text-anchor="start" dominant-baseline="text-after-edge">Female mean: 203.57(±539)</text></g></g><g fill="#444444"><path fill="" stroke="none" d=""/><g transform="translate(122.44715592574906,322.7776988976567) rotate(0,0,0)"><path fill="none" stroke="none"/><text fill="" stroke="none" font-family="helvetica" font-size="20pt" font-style="normal" font-weight="normal" text-decoration="normal" x="0" y="0" text-anchor="start" dominant-baseline="text-after-edge">Male mean: 96.79(±392)</text></g></g></g></g><g clip-path="url(#PxKcByvKLVXT)"><g><g><path fill="none" stroke="none"/><path fill="none" stroke="blue" paint-order="fill stroke markers" d=" M 133.7727272727273 42.302576739718575 L 133.7727272727273 46.611504391097924 L 165.4991603807731 51.971120977050305 L 184.0579340306181 54.883377513048686 L 197.22559348881896 57.05892080741705 L 207.43922365686348 60.17877474146388 L 215.7843671386639 62.15092720560676 L 222.84008541793105 64.36289158498306 L 228.95202659686475 67.02832061800348 L 234.3431407885089 69.59069602000181 L 239.16565676490933 71.62277891422161 L 243.52815311328223 73.71115929640388 L 247.51080024670972 75.85904563397327 L 251.17448046068657 77.39982912314713 L 254.56651852597687 78.97276241567994 L 257.72443041475424 81.74800994423782 L 260.67845970491055 83.17491142211423 L 263.45334368727913 85.3672190540724 L 266.06957389655474 86.1123886541875 L 268.54431537582263 88.13628767924365 L 270.8920898729551 89.429384747879 L 273.12529217582187 90.74505009138778 L 275.25458622132805 92.0840854868323 L 277.28921308167105 92.89907408096354 L 279.2372333547556 94.27727902458616 L 281.1057200409996 95.68115033462493 L 282.90091356873245 96.53619591768006 L 284.6283475463997 97.6915550947694 L 286.2929516340227 98.27594337570571 L 287.89913635480013 98.86489723635054 L 289.4508635228001 99.45848857670262 L 290.95170511834397 100.05679100870105 L 292.4048928129564 100.96324334142753 L 293.813359871173 103.12167288929749 L 295.179776795325 104.06597388852333 L 296.5065818020672 105.34372838852374 L 297.7960070046005 106.31646073288289 L 299.0501010068383 106.6435142208145 L 300.2707484838685 106.97199278290981 L 301.4596872185774 107.63327518750208 L 302.6185229810009 108.30040972482209 L 303.74874257011976 109.65265603990315 L 304.85172528386767 110.33798540280532 L 305.9287530393301 111.02960227885586 L 306.98101932937385 112.4321675867165 L 308.00963717264506 113.14335881165408 L 309.0156461897169 113.50148637699488 L 310.00001891817493 114.22288624311909 L 312.83215314904544 114.58619157629232 L 313.7385504451699 114.95125626418582 L 314.62734667677825 115.31809742957415 L 315.49921242263406 116.4294548160778 L 316.3547806544455 117.55744160733644 L 317.19464949741837 118.31891990740542 L 318.82952213371345 119.86534768726011 L 319.62556946284593 120.65062260803774 L 320.40800847681646 121.04634903237616 L 321.933868694306 121.84408886525443 L 322.67813822638976 123.46534943088756 L 323.4104989337127 123.87617175947423 L 324.13132592100226 124.70459449972105 L 324.84097684482276 125.54222212544312 L 326.22810020122563 126.81637714537862 L 326.9062099033708 127.67793750273046 L 327.57441983956187 128.54945831602964 L 328.23301491011307 129.43117258627456 L 328.8822678910901 129.87592733192724 L 329.52244011264634 130.323321587068 L 330.1537820905734 132.13993263964727 L 330.7765341148842 133.06492229037303 L 331.3909267988904 134.00140278949044 L 331.9971815919143 134.94966322624066 L 332.595511258486 135.42830426736685 L 333.76920550755517 136.3948009766072 L 334.3449560890468 136.88273608280696 L 336.02998935251003 137.86818424244927 L 338.1843431126909 138.8666850747461 L 338.7074524374197 139.8785890025938 L 339.2246507958188 140.38968052449633 L 339.7360702806909 141.42237764258135 L 340.2418386058904 141.94408014496832 L 340.7420792977627 142.46941823418678 L 341.7264520262207 142.99844293664046 L 342.2108117599588 144.06776172691877 L 343.16442057930976 144.60816340110648 L 345.0140284994747 145.15246692621628 L 345.46498355321575 145.70072905718877 L 346.35377978482404 146.80936243022393 L 348.0812137624913 148.50349464070723 L 349.3353077647291 149.07677277015978 L 350.15267890869416 150.82323799956367 L 350.5559552417593 151.4145015068247 L 350.9557094658072 152.61112521459694 L 351.3520025708917 153.2166361866802 L 352.5207018324829 153.827050134976 L 354.40457133443556 154.44244710939824 L 355.1369320417584 155.68852028481916 L 355.49876450082866 156.95553684438022 L 357.9545333092715 157.59712123377648 L 358.2948439305359 158.2442128526544 L 358.96796735153765 158.89690706606712 L 359.63133501660957 159.55530173777794 L 359.95944801815887 160.21949731832376 L 360.6087009991359 160.8895969369919 L 361.2488732206922 161.56570649792252 L 361.56563273893624 162.24793478055818 L 362.19265032102567 163.63119764029705 L 362.81119443288026 164.33246512261155 L 363.11735990693626 165.04031737243054 L 364.912553434669 165.75487922224755 L 366.07138919709257 166.4762790883717 L 367.2016087862114 167.20464910943855 L 367.4798562553092 167.94012529167634 L 367.7564224605558 169.4329604246701 L 368.03132759749616 170.95595587442028 L 368.57623364864594 171.72914942910023 L 369.1147288916042 173.29974187762883 L 369.3816192554217 174.09748171050717 L 370.17307818620344 175.7187422761403 L 372.7165973909745 176.54263802580004 L 373.4528851342666 177.37563778014788 L 373.69570569160345 179.06976999063124 L 377.4152389542559 179.93133034798308 L 378.2997412163776 180.8028511612822 L 378.7356642038327 181.68456543152723 L 379.1674746489809 182.57671443232056 L 379.5952494234662 183.4795481061853 L 380.0190632635477 184.3933254849 L 381.47225095816015 185.31831513562577 L 381.6761335567812 186.25479563474318 L 382.2823883498051 187.20305607149334 L 382.68214257385307 188.16339658370043 L 383.66651530231115 190.121577087702 L 386.86336514980434 191.12007791999872 L 388.2938430609144 192.13198184784642 L 389.5098575537096 193.157653597982 L 390.02127703858173 194.19747299022106 L 390.1904882024976 196.3211545721715 L 390.69440045958345 197.4058597714689 L 390.8611458815546 198.5064006416003 L 391.02728605565346 199.6232464130016 L 392.01165878411155 200.75688748595996 L 392.97530632873804 201.90783672355133 L 397.07699531784885 203.07663084481624 L 399.4828555686016 205.47002903193294 L 400.03102460800517 206.69583995465092 L 400.4378856665849 207.94191313007184 L 400.57270628750695 209.20892968963295 L 401.10805236346755 210.49760569790715 L 401.50549249627363 211.80869458303073 L 402.4196483427531 213.14298978224468 L 402.6775170119104 214.50132762581086 L 403.06161633760775 215.88459048554978 L 403.44251923797106 217.29371021768327 L 403.9455085602426 218.72967193362445 L 404.31915608590134 221.68635326992273 L 404.5665705678378 223.20934871967302 L 404.8126548579621 224.763748340145 L 405.05742318302663 226.3508745557598 L 405.7839712587194 229.62903062540056 L 406.26200764262217 231.32316283588392 L 406.73510299355246 233.05624400653494 L 406.96982949622287 234.8301072775733 L 408.2397400671623 236.64671833015268 L 409.25317410942836 238.5081884799958 L 411.2151130591323 240.41678942895305 L 412.2698041401977 242.37496993295463 L 414.30896396095153 244.3853746930991 L 414.50797109057845 246.45086583547356 L 414.7061167147831 250.75979348685314 L 414.9034082603709 253.01028033121275 L 416.73644516992874 255.33002369006903 L 417.3936892297593 257.7234218771857 L 417.8574375505272 260.1953059753246 L 418.1334478404311 262.75099854315977 L 419.3106252451397 265.39638262749736 L 420.45828494409426 268.13798333080246 L 420.97842199259804 270.9830647788772 L 423.24855174217134 273.9397461151754 L 427.1011367546602 277.01714118539763 L 427.4017721061343 280.22552796664564 L 427.47662341915236 283.57655568113665 L 427.6259598247403 287.08350012282597 L 429.3809953034008 290.76158132524847 L 430.0928536284279 294.62836277820725 L 432.96734933174383 298.7042586807263 L 434.33961902333675 303.0131863321056 L 437.32984568011676 307.58341653532153 L 437.98844075066796 312.448698820577 L 438.1071738074165 317.64977547274975 L 440.36295705189076 323.23645762412957 L 441.0908382994563 329.2705340306501 L 441.422918844692 335.82994852638956 L 453.133832633409 343.01497417050143 L 454.97498485021714 350.9576515259794 L 458.638665064194 359.83680938057455 L 462.38090811034886 369.90316831800294 L 462.728453954092 381.5239268759033 L 468.2348327941846 395.2683670157541 L 483.91115116018585 412.0902022258273 L 484.8602657414548 433.77731972115595 L 486.5576435640911 464.3435950710799 L 497.9050053923082 516.5969879163326" stroke-linejoin="bevel" stroke-miterlimit="10"/><path fill="none" stroke="none"/></g></g></g><g clip-path="url(#caFHqElFyJQw)"><g><g><path fill="none" stroke="none"/><path fill="none" stroke="red" paint-order="fill stroke markers" d=" M 133.7727272727273 30.68181818181813 L 133.7727272727273 32.95239047510165 L 165.4991603807731 35.29348048870281 L 184.0579340306181 36.715894588338756 L 197.22559348881896 38.90114065776754 L 207.43922365686348 41.15162750212721 L 215.7843671386639 42.787373977877905 L 222.84008541793105 43.86503081938167 L 228.95202659686475 45.058497076598314 L 234.3431407885089 46.373103480828945 L 239.16565676490933 48.54634927791028 L 243.52815311328223 49.28491358298925 L 247.51080024670972 50.2452540951964 L 251.17448046068657 51.00073640237724 L 254.56651852597687 52.313728270265415 L 257.72443041475424 53.09033554327107 L 260.67845970491055 53.87502660597704 L 263.45334368727913 54.78193331173213 L 266.06957389655474 55.93112798552852 L 268.54431537582263 56.62914881262918 L 270.8920898729551 57.68845023385052 L 273.12529217582187 58.64271247871079 L 275.25458622132805 59.12441194979175 L 277.28921308167105 60.46517941436508 L 279.2372333547556 61.58018971078411 L 281.1057200409996 62.83874499745599 L 282.90091356873245 63.22044561407807 L 284.6283475463997 63.4759906409098 L 286.2929516340227 63.86093978747613 L 287.89913635480013 64.76687339393271 L 289.4508635228001 65.81573498439633 L 290.95170511834397 66.61207031959458 L 292.4048928129564 66.87939581507123 L 293.813359871173 67.82257161245036 L 295.179776795325 68.9151372685327 L 296.5065818020672 69.32896654595316 L 297.7960070046005 69.74508008118278 L 299.0501010068383 70.86607784832916 L 300.2707484838685 71.57526191880817 L 301.4596872185774 72.14745222351831 L 302.6185229810009 72.29118098150366 L 303.74874257011976 73.45098402270224 L 304.85172528386767 74.33269829294716 L 305.9287530393301 75.07542066260123 L 306.98101932937385 76.12768096760522 L 308.00963717264506 76.88839086078241 L 310.00001891817493 77.3485288756911 L 310.96366646280137 77.81149273030366 L 311.90744356313485 78.27731734779024 L 312.83215314904544 78.74603830274577 L 313.7385504451699 79.06014588521555 L 314.62734667677825 79.37556772917924 L 315.49921242263406 79.6923148788996 L 316.3547806544455 79.85118893291332 L 317.19464949741837 80.16994505572416 L 318.0193847420686 80.65062071652113 L 318.82952213371345 81.4586210639983 L 319.62556946284593 82.11131527741105 L 320.40800847681646 82.27537564842504 L 321.17729663084594 82.43979383950642 L 321.933868694306 82.93521102707086 L 322.67813822638976 83.60087284205889 L 323.4104989337127 84.10400514833589 L 324.13132592100226 84.2724649072141 L 324.84097684482276 84.95009383590997 L 325.53979297921876 85.46234299190212 L 326.9062099033708 85.80578645940187 L 327.57441983956187 85.97809673036983 L 328.23301491011307 86.3239033492539 L 329.52244011264634 86.67130355265425 L 330.1537820905734 87.02031209606179 L 330.7765341148842 88.61115986825075 L 331.3909267988904 89.32912444486084 L 331.9971815919143 89.69068729971565 L 332.595511258486 90.41905732078237 L 333.1861203266232 91.15453350302033 L 333.76920550755517 91.71088813689659 L 334.3449560890468 91.89725587267446 L 334.9135543042905 92.647368636014 L 335.47517567816556 92.83606888655027 L 336.02998935251003 93.025242663933 L 336.5781583919135 93.40502034737995 L 337.1198400714153 93.5956290727641 L 337.6551861473759 94.17036408576416 L 338.1843431126909 94.36292028426834 L 338.7074524374197 94.5559695849712 L 339.2246507958188 94.94355764044411 L 339.7360702806909 95.33314874385667 L 341.23691187623473 95.92133672694598 L 341.7264520262207 96.11842366463435 L 342.2108117599588 96.31602721349736 L 342.6900995708472 97.11166215280645 L 343.16442057930976 98.11816189335286 L 343.6338766711807 98.93315048748417 L 344.09856662906384 99.34397281607085 L 344.5585862570913 99.75704623714398 L 345.46498355321575 100.17239555631772 L 345.91153897531876 100.38093154193155 L 346.35377978482404 100.59004599149176 L 346.79178855995804 100.79974212316296 L 347.2256455306799 101.22089244044861 L 347.65542866688253 101.43235319825311 L 348.0812137624913 101.6444087831639 L 348.5030745156867 101.85706255105288 L 348.9210826054642 102.9294236025043 L 349.3353077647291 103.5802395358225 L 349.74581785011435 103.79843277273977 L 350.15267890869416 104.01725937262626 L 350.5559552417593 104.4568274444506 L 350.9557094658072 104.67757638909183 L 351.3520025708917 104.89897364287117 L 351.74489397646823 105.12102302499636 L 352.5207018324829 105.34372838852374 L 352.90372973889174 105.79112264366455 L 353.28357895383715 106.467232204595 L 353.66030180235185 107.14946048723078 L 354.0339493280105 107.37824885927932 L 354.40457133443556 107.83791925135506 L 354.77221642513587 108.30040972482209 L 355.1369320417584 108.53272334696965 L 355.49876450082866 109.70515305506603 L 355.85775902904805 110.17927858476156 L 356.2139597972209 110.65640492892015 L 356.5674099528686 110.89610532396352 L 356.9181516515961 111.13657031486292 L 357.2662260872646 111.37780479504437 L 357.61167352102643 111.86260203320364 L 358.2948439305359 112.35053713940357 L 358.63264301141663 113.08841295592168 L 358.96796735153765 113.58437336800313 L 359.30085294760767 114.08361831005453 L 359.63133501660957 114.33448613134266 L 359.95944801815887 115.34639005919036 L 360.28522567606575 116.11433263272886 L 360.6087009991359 116.63067513577289 L 361.2488732206922 117.15057864972829 L 361.56563273893624 117.411881201565 L 362.19265032102567 117.67409263367227 L 362.50296722293 118.46624399323707 L 362.81119443288026 119.26680773691442 L 363.11735990693626 119.53556278351545 L 363.42149104388625 120.07596445770298 L 364.02375720306065 120.34762497052202 L 364.3219443665318 120.89390062708168 L 364.912553434669 121.44416373247265 L 365.2050245110006 121.9984729264354 L 365.495638615601 122.27716348682054 L 366.07138919709257 123.11947069358183 L 366.35657122687485 123.68628321895397 L 366.63998741233627 123.9712956973039 L 366.9216594871526 124.25738981952935 L 367.7564224605558 124.83285605465568 L 368.03132759749616 125.1222449348952 L 368.3045914999593 125.70437686795498 L 368.84627317946115 125.99713727755505 L 369.1147288916042 126.29103905616017 L 369.3816192554217 127.17968247855185 L 369.64696242003316 128.07892627119355 L 369.9107762207367 128.68443724327688 L 370.17307818620344 128.98902638785404 L 370.6932152347072 129.91024816599491 L 370.9510839038646 130.21984084229837 L 371.71608612992526 130.84286679114672 L 371.9682717139362 131.47108468274598 L 372.2190754521968 131.78716779037262 L 372.7165973909745 132.10458177816594 L 373.93724486800465 132.42333790097683 L 374.1775161163815 132.7434475570306 L 374.416532678893 133.06492229037303 L 374.6543075913249 133.71201390925103 L 374.8908536873557 134.0376546347323 L 375.1261836027136 134.6931866847591 L 375.593244468769 135.3544690893513 L 375.82499973710964 135.68729837492032 L 376.05558746766116 136.02160362667132 L 376.2850193651371 137.71573583715474 L 376.74046160752056 138.40419460127896 L 376.9664945000039 138.7507961807052 L 377.19141666126154 139.09899869689372 L 377.6379720833647 139.80026617920817 L 378.0802128928699 140.50811842902715 L 378.2997412163776 140.86455271350337 L 378.5182216680039 141.22268027884417 L 378.7356642038327 141.94408014496832 L 378.9520786387257 142.3073854781416 L 379.1674746489809 142.6724501660351 L 380.0190632635477 143.03929133142339 L 380.22950762373256 143.40792634827295 L 380.8550968752384 143.77837284667936 L 381.47225095816015 144.15064871792708 L 381.6761335567812 144.5247721196742 L 381.87911201673995 144.9007614812666 L 383.0784356789376 145.27863550918568 L 383.2753029403221 146.04011380925465 L 383.66651530231115 146.42375693101684 L 384.4390495517081 146.80936243022393 L 385.38673491039765 147.19695048569685 L 387.40504682930606 147.58654158910934 L 387.5841921370939 147.9781565514889 L 387.7626390208564 148.37181650988708 L 387.9403929052667 148.7675429342254 L 388.1174591520421 149.165357634322 L 388.4695498705817 149.56528276710378 L 388.99265919531047 150.3715547386056 L 389.1657088067702 150.7779476943699 L 389.33810662907223 151.1865433327369 L 389.6809664173173 151.59736566132358 L 390.1904882024976 152.01043908239672 L 390.69440045958345 152.42578840157034 L 391.3577681246555 153.26341602729246 L 391.6858811262047 154.11045539630555 L 392.01165878411155 154.5375710472279 L 392.1736822018271 154.967120418695 L 392.6563394092873 155.83363238107523 L 393.2920658469821 156.27065221787888 L 393.44962733720064 156.71022028970327 L 393.606648306665 157.15236648812373 L 394.53762754092605 157.59712123377648 L 394.84379301498205 158.04451548891723 L 395.8995267166945 158.4945807703565 L 396.19674573320964 159.40285333248346 L 396.492047194337 159.86112654149662 L 396.63898654271486 160.78611619222232 L 396.7854556843742 161.25290227016518 L 398.6480925951985 161.72259669133973 L 398.7882812735776 162.1952359243558 L 399.06737706337873 163.63119764029705 L 399.62051452262 164.11599487845643 L 399.75776070554195 164.60392998465625 L 400.30266675669174 165.09504384360167 L 403.06161633760775 166.08697540128952 L 403.18893649678256 166.58787897659533 L 403.31590347891796 167.0921331023908 L 403.9455085602426 167.59978290444303 L 404.8126548579621 168.11087442634562 L 405.05742318302663 168.6254546545785 L 405.17931824231243 170.190612136036 L 405.3008895427594 170.7196368384898 L 405.54306771466827 171.2524002624324 L 405.6636779760505 171.78895562876812 L 405.7839712587194 172.87366082806557 L 406.02361352189337 173.97420169819696 L 406.1429657869388 174.53055633207322 L 406.26200764262217 175.0910474695982 L 406.73510299355246 175.65573708172684 L 407.2033584094869 176.22468854255658 L 407.6668719169642 176.797966672009 L 408.35345830630325 177.37563778014788 L 409.0298977266334 177.9577697132076 L 411.6399102400888 178.54443190141285 L 412.684968598403 179.73163298424595 L 412.99388923815604 180.9378300885295 L 413.50416841067465 181.54824403682522 L 414.0088214578509 182.16364101124748 L 416.3565959549834 182.78410303829554 L 417.48681554410217 183.4097141866685 L 417.7650630132 184.0405606356253 L 417.94962603629386 185.31831513562577 L 418.0416292184466 186.61810096791646 L 419.7554447587298 187.27649563962729 L 420.63232153289573 187.94069122017305 L 421.3219250510187 188.61079083884124 L 421.6628694036898 189.2869003997718 L 421.7477101466275 189.96912868240747 L 423.24855174217134 190.6575874465317 L 423.3305062272894 191.35239154214628 L 423.5754929015897 192.05365902446079 L 423.7380918921574 194.19747299022106 L 423.9001153098729 195.66131919352557 L 424.2224516258955 196.40404156317982 L 425.5676074668858 197.1541543265193 L 425.8009379689984 197.91180603788524 L 426.1871982166191 198.67714977626952 L 426.26406064897185 199.45034333094947 L 426.41739937767613 200.23154939674157 L 426.6464485681365 201.02093577947812 L 426.7225442925797 201.8186756123564 L 427.1764809160518 202.62494758385816 L 427.326798186488 203.43993617798952 L 428.14483335534345 204.26383192764933 L 428.438712809272 205.09683168199712 L 429.3809953034008 205.93913888875846 L 429.5242554131842 206.79096389248053 L 430.72419560635495 207.65252424983237 L 430.7938101714245 208.5240450631316 L 430.93272247140084 209.40575933337652 L 431.14030363312924 210.2979083341699 L 433.23192560431943 211.20074200803458 L 433.62594440229503 212.11451938674924 L 433.9517220602019 213.03950903747506 L 434.46819092728765 213.97598953659246 L 434.91536960482836 214.92424997334268 L 435.16895234601685 215.88459048554978 L 435.7344284598501 216.85732282990892 L 435.7968300614855 217.84277098955118 L 435.9835260417805 218.84127182184807 L 436.1694636070662 219.8531757496957 L 436.2312753216727 220.87884749983124 L 436.84484439831033 221.91866689207035 L 437.0879874280225 222.97302968374242 L 437.5104043667652 224.0423484740208 L 437.98844075066796 225.1270536733183 L 438.4615361015983 226.22759454344964 L 438.81317599531815 228.47808138780925 L 438.8715208951368 229.62903062540056 L 439.3356218822653 230.79782474666547 L 439.7950643116004 231.9850258294985 L 440.13664476038036 233.19122293378217 L 440.2499407779044 234.4170338565002 L 440.4193607160955 235.66310703192107 L 440.53195995543905 238.21879959975632 L 441.14635263944535 239.52988848487985 L 441.69782398163227 240.86418368409386 L 441.7526074324692 242.22252152765998 L 442.29686554200237 243.605784387399 L 444.5146070888666 245.01490411953245 L 447.7960590464615 246.45086583547356 L 449.9972644464453 247.91471203877836 L 450.0429674634328 249.40754717177208 L 450.134236821112 250.93054262152236 L 450.4975051383176 252.4849422419943 L 453.6011102368088 254.07206845760913 L 453.9379770210898 255.6933290232423 L 454.5215932593746 257.3502245272499 L 455.13874734229637 259.0443567377334 L 455.5050846552366 260.7774379083843 L 455.86851321599465 262.55130117942264 L 458.1055459358442 264.36791223200197 L 461.393501640865 266.22938238184514 L 462.3460079426572 268.13798333080246 L 463.0733807387116 270.0961638348039 L 463.58594564387903 272.10656859494844 L 464.99132347267386 274.172059737323 L 465.12294561286495 276.2957413192735 L 469.35681544051903 278.48098738870226 L 469.56602310083065 280.73147423306193 L 470.85958958974635 283.0512175919182 L 471.20612677344116 285.44461577903485 L 473.06655741516096 287.91649987717375 L 473.1493519527378 290.472192445009 L 473.8063713828231 293.1175765293465 L 474.18532206776365 295.8591772326516 L 474.9869461946746 298.7042586807263 L 475.82681503764746 301.6609400170246 L 475.8528142247766 304.7383350872468 L 476.34401339604665 307.94672186849476 L 476.3954132528912 311.2977495829858 L 476.9823998630542 314.8046940246751 L 477.88631099271265 318.4827752270976 L 480.2601835050215 322.34955668005637 L 482.7187708248354 326.4254525825754 L 483.2304388784238 330.7343802339552 L 483.2746626187821 335.30461043717116 L 485.49628664273985 340.16989272242677 L 485.85281382957794 345.37096937459955 L 491.283371270454 350.9576515259794 L 491.59769957143504 356.9917279324999 L 492.9234516199488 363.55114242823885 L 493.5103886442241 370.7361680723508 L 494.8341639929925 378.6788454278286 L 500.90316345969495 387.5580032824239 L 504.6962072296415 397.6243622198522 L 505.871303058541 409.2451207777526 L 515.1665552432273 422.9895609176034 L 517.1700542660775 439.8113961276765 L 517.8811644348114 461.4985136230053 L 520.3946655405499 492.0647889729292 L 531.1861089108254 544.3181818181819" stroke-linejoin="bevel" stroke-miterlimit="10"/><path fill="none" stroke="none"/><path fill="none" stroke="red" paint-order="fill stroke markers" d=" M 549.2272727272727 NaN" stroke-linejoin="bevel" stroke-miterlimit="10"/></g></g></g><g clip-path="url(#RIDArSyHpHvp)"><g><g/><g><path fill="#ffffff" stroke="#e5e5e5" paint-order="fill stroke markers" d=" M 123 475 L 255 475 L 255 560 L 123 560 L 123 475 Z" fill-opacity="0.95" stroke-linejoin="bevel" stroke-miterlimit="10" stroke-opacity="0.5"/><text fill="#444444" stroke="none" font-family="helvetica" font-size="22pt" font-style="normal" font-weight="normal" text-decoration="normal" x="158" y="500.5" text-anchor="start" dominant-baseline="central">male</text><g><path fill="none" stroke="blue" paint-order="fill stroke markers" d=" M 133 495 L 153 495" stroke-linejoin="bevel" stroke-miterlimit="10"/></g><text fill="#444444" stroke="none" font-family="helvetica" font-size="22pt" font-style="normal" font-weight="normal" text-decoration="normal" x="158" y="534.5" text-anchor="start" dominant-baseline="central">female</text><g><path fill="none" stroke="red" paint-order="fill stroke markers" d=" M 133 529 L 153 529" stroke-linejoin="bevel" stroke-miterlimit="10"/></g></g></g></g><g/><g/><g><g fill="#444444"><path fill="none" stroke="black" paint-order="fill stroke markers" d=" M 113 570 L 570 570" stroke-linejoin="bevel" stroke-miterlimit="10"/><path fill="none" stroke="black" paint-order="fill stroke markers" d=" M 134 576 L 134 568" stroke-linejoin="bevel" stroke-miterlimit="10"/><path fill="none" stroke="black" paint-order="fill stroke markers" d=" M 239 576 L 239 568" stroke-linejoin="bevel" stroke-miterlimit="10"/><path fill="none" stroke="black" paint-order="fill stroke markers" d=" M 345 576 L 345 568" stroke-linejoin="bevel" stroke-miterlimit="10"/><path fill="none" stroke="black" paint-order="fill stroke markers" d=" M 450 576 L 450 568" stroke-linejoin="bevel" stroke-miterlimit="10"/><path fill="none" stroke="black" paint-order="fill stroke markers" d=" M 555 576 L 555 568" stroke-linejoin="bevel" stroke-miterlimit="10"/><path fill="none" stroke="black" paint-order="fill stroke markers" d=" M 117 574 L 117 570" stroke-linejoin="bevel" stroke-miterlimit="10"/><path fill="none" stroke="black" paint-order="fill stroke markers" d=" M 124 574 L 124 570" stroke-linejoin="bevel" stroke-miterlimit="10"/><path fill="none" stroke="black" paint-order="fill stroke markers" d=" M 129 574 L 129 570" stroke-linejoin="bevel" stroke-miterlimit="10"/><path fill="none" stroke="black" paint-order="fill stroke markers" d=" M 134 574 L 134 570" stroke-linejoin="bevel" stroke-miterlimit="10"/><path fill="none" stroke="black" paint-order="fill stroke markers" d=" M 134 574 L 134 570" stroke-linejoin="bevel" stroke-miterlimit="10"/><path fill="none" stroke="black" paint-order="fill stroke markers" d=" M 165 574 L 165 570" stroke-linejoin="bevel" stroke-miterlimit="10"/><path fill="none" stroke="black" paint-order="fill stroke markers" d=" M 184 574 L 184 570" stroke-linejoin="bevel" stroke-miterlimit="10"/><path fill="none" stroke="black" paint-order="fill stroke markers" d=" M 197 574 L 197 570" stroke-linejoin="bevel" stroke-miterlimit="10"/><path fill="none" stroke="black" paint-order="fill stroke markers" d=" M 207 574 L 207 570" stroke-linejoin="bevel" stroke-miterlimit="10"/><path fill="none" stroke="black" paint-order="fill stroke markers" d=" M 216 574 L 216 570" stroke-linejoin="bevel" stroke-miterlimit="10"/><path fill="none" stroke="black" paint-order="fill stroke markers" d=" M 223 574 L 223 570" stroke-linejoin="bevel" stroke-miterlimit="10"/><path fill="none" stroke="black" paint-order="fill stroke markers" d=" M 229 574 L 229 570" stroke-linejoin="bevel" stroke-miterlimit="10"/><path fill="none" stroke="black" paint-order="fill stroke markers" d=" M 234 574 L 234 570" stroke-linejoin="bevel" stroke-miterlimit="10"/><path fill="none" stroke="black" paint-order="fill stroke markers" d=" M 239 574 L 239 570" stroke-linejoin="bevel" stroke-miterlimit="10"/><path fill="none" stroke="black" paint-order="fill stroke markers" d=" M 239 574 L 239 570" stroke-linejoin="bevel" stroke-miterlimit="10"/><path fill="none" stroke="black" paint-order="fill stroke markers" d=" M 271 574 L 271 570" stroke-linejoin="bevel" stroke-miterlimit="10"/><path fill="none" stroke="black" paint-order="fill stroke markers" d=" M 289 574 L 289 570" stroke-linejoin="bevel" stroke-miterlimit="10"/><path fill="none" stroke="black" paint-order="fill stroke markers" d=" M 303 574 L 303 570" stroke-linejoin="bevel" stroke-miterlimit="10"/><path fill="none" stroke="black" paint-order="fill stroke markers" d=" M 313 574 L 313 570" stroke-linejoin="bevel" stroke-miterlimit="10"/><path fill="none" stroke="black" paint-order="fill stroke markers" d=" M 321 574 L 321 570" stroke-linejoin="bevel" stroke-miterlimit="10"/><path fill="none" stroke="black" paint-order="fill stroke markers" d=" M 328 574 L 328 570" stroke-linejoin="bevel" stroke-miterlimit="10"/><path fill="none" stroke="black" paint-order="fill stroke markers" d=" M 334 574 L 334 570" stroke-linejoin="bevel" stroke-miterlimit="10"/><path fill="none" stroke="black" paint-order="fill stroke markers" d=" M 340 574 L 340 570" stroke-linejoin="bevel" stroke-miterlimit="10"/><path fill="none" stroke="black" paint-order="fill stroke markers" d=" M 345 574 L 345 570" stroke-linejoin="bevel" stroke-miterlimit="10"/><path fill="none" stroke="black" paint-order="fill stroke markers" d=" M 345 574 L 345 570" stroke-linejoin="bevel" stroke-miterlimit="10"/><path fill="none" stroke="black" paint-order="fill stroke markers" d=" M 376 574 L 376 570" stroke-linejoin="bevel" stroke-miterlimit="10"/><path fill="none" stroke="black" paint-order="fill stroke markers" d=" M 395 574 L 395 570" stroke-linejoin="bevel" stroke-miterlimit="10"/><path fill="none" stroke="black" paint-order="fill stroke markers" d=" M 408 574 L 408 570" stroke-linejoin="bevel" stroke-miterlimit="10"/><path fill="none" stroke="black" paint-order="fill stroke markers" d=" M 418 574 L 418 570" stroke-linejoin="bevel" stroke-miterlimit="10"/><path fill="none" stroke="black" paint-order="fill stroke markers" d=" M 427 574 L 427 570" stroke-linejoin="bevel" stroke-miterlimit="10"/><path fill="none" stroke="black" paint-order="fill stroke markers" d=" M 434 574 L 434 570" stroke-linejoin="bevel" stroke-miterlimit="10"/><path fill="none" stroke="black" paint-order="fill stroke markers" d=" M 440 574 L 440 570" stroke-linejoin="bevel" stroke-miterlimit="10"/><path fill="none" stroke="black" paint-order="fill stroke markers" d=" M 445 574 L 445 570" stroke-linejoin="bevel" stroke-miterlimit="10"/><path fill="none" stroke="black" paint-order="fill stroke markers" d=" M 450 574 L 450 570" stroke-linejoin="bevel" stroke-miterlimit="10"/><path fill="none" stroke="black" paint-order="fill stroke markers" d=" M 450 574 L 450 570" stroke-linejoin="bevel" stroke-miterlimit="10"/><path fill="none" stroke="black" paint-order="fill stroke markers" d=" M 482 574 L 482 570" stroke-linejoin="bevel" stroke-miterlimit="10"/><path fill="none" stroke="black" paint-order="fill stroke markers" d=" M 500 574 L 500 570" stroke-linejoin="bevel" stroke-miterlimit="10"/><path fill="none" stroke="black" paint-order="fill stroke markers" d=" M 513 574 L 513 570" stroke-linejoin="bevel" stroke-miterlimit="10"/><path fill="none" stroke="black" paint-order="fill stroke markers" d=" M 524 574 L 524 570" stroke-linejoin="bevel" stroke-miterlimit="10"/><path fill="none" stroke="black" paint-order="fill stroke markers" d=" M 532 574 L 532 570" stroke-linejoin="bevel" stroke-miterlimit="10"/><path fill="none" stroke="black" paint-order="fill stroke markers" d=" M 539 574 L 539 570" stroke-linejoin="bevel" stroke-miterlimit="10"/><path fill="none" stroke="black" paint-order="fill stroke markers" d=" M 545 574 L 545 570" stroke-linejoin="bevel" stroke-miterlimit="10"/><path fill="none" stroke="black" paint-order="fill stroke markers" d=" M 551 574 L 551 570" stroke-linejoin="bevel" stroke-miterlimit="10"/><path fill="none" stroke="black" paint-order="fill stroke markers" d=" M 555 574 L 555 570" stroke-linejoin="bevel" stroke-miterlimit="10"/><path fill="" stroke="black" paint-order="fill stroke markers" d=" M 555 574 L 555 570" stroke-linejoin="bevel" stroke-miterlimit="10"/><g transform="translate(134,581) rotate(0,0,0)"><text fill="" stroke="none" font-family="helvetica" font-size="26px" font-style="normal" font-weight="normal" text-decoration="normal" x="0" y="0" text-anchor="middle" dominant-baseline="hanging">10^0</text><g transform="rotate(0,0,0) translate(-134,-581) translate(239,581) rotate(0,0,0)"><text fill="" stroke="none" font-family="helvetica" font-size="26px" font-style="normal" font-weight="normal" text-decoration="normal" x="0" y="0" text-anchor="middle" dominant-baseline="hanging">10^1</text><g transform="rotate(0,0,0) translate(-239,-581) translate(345,581) rotate(0,0,0)"><text fill="" stroke="none" font-family="helvetica" font-size="26px" font-style="normal" font-weight="normal" text-decoration="normal" x="0" y="0" text-anchor="middle" dominant-baseline="hanging">10^2</text><g transform="rotate(0,0,0) translate(-345,-581) translate(450,581) rotate(0,0,0)"><text fill="" stroke="none" font-family="helvetica" font-size="26px" font-style="normal" font-weight="normal" text-decoration="normal" x="0" y="0" text-anchor="middle" dominant-baseline="hanging">10^3</text><g transform="rotate(0,0,0) translate(-450,-581) translate(555,581) rotate(0,0,0)"><text fill="" stroke="none" font-family="helvetica" font-size="26px" font-style="normal" font-weight="normal" text-decoration="normal" x="0" y="0" text-anchor="middle" dominant-baseline="hanging">10^4</text><g transform="rotate(0,0,0) translate(-555,-581)"/></g></g></g></g></g></g></g><g><g fill="#444444"><path fill="none" stroke="black" paint-order="fill stroke markers" d=" M 113 570 L 113 5" stroke-linejoin="bevel" stroke-miterlimit="10"/><path fill="none" stroke="black" paint-order="fill stroke markers" d=" M 107 537 L 115 537" stroke-linejoin="bevel" stroke-miterlimit="10"/><path fill="none" stroke="black" paint-order="fill stroke markers" d=" M 107 363 L 115 363" stroke-linejoin="bevel" stroke-miterlimit="10"/><path fill="none" stroke="black" paint-order="fill stroke markers" d=" M 107 190 L 115 190" stroke-linejoin="bevel" stroke-miterlimit="10"/><path fill="none" stroke="black" paint-order="fill stroke markers" d=" M 107 16 L 115 16" stroke-linejoin="bevel" stroke-miterlimit="10"/><path fill="none" stroke="black" paint-order="fill stroke markers" d=" M 109 564 L 113 564" stroke-linejoin="bevel" stroke-miterlimit="10"/><path fill="none" stroke="black" paint-order="fill stroke markers" d=" M 109 554 L 113 554" stroke-linejoin="bevel" stroke-miterlimit="10"/><path fill="none" stroke="black" paint-order="fill stroke markers" d=" M 109 545 L 113 545" stroke-linejoin="bevel" stroke-miterlimit="10"/><path fill="none" stroke="black" paint-order="fill stroke markers" d=" M 109 537 L 113 537" stroke-linejoin="bevel" stroke-miterlimit="10"/><path fill="none" stroke="black" paint-order="fill stroke markers" d=" M 109 537 L 113 537" stroke-linejoin="bevel" stroke-miterlimit="10"/><path fill="none" stroke="black" paint-order="fill stroke markers" d=" M 109 485 L 113 485" stroke-linejoin="bevel" stroke-miterlimit="10"/><path fill="none" stroke="black" paint-order="fill stroke markers" d=" M 109 454 L 113 454" stroke-linejoin="bevel" stroke-miterlimit="10"/><path fill="none" stroke="black" paint-order="fill stroke markers" d=" M 109 432 L 113 432" stroke-linejoin="bevel" stroke-miterlimit="10"/><path fill="none" stroke="black" paint-order="fill stroke markers" d=" M 109 415 L 113 415" stroke-linejoin="bevel" stroke-miterlimit="10"/><path fill="none" stroke="black" paint-order="fill stroke markers" d=" M 109 402 L 113 402" stroke-linejoin="bevel" stroke-miterlimit="10"/><path fill="none" stroke="black" paint-order="fill stroke markers" d=" M 109 390 L 113 390" stroke-linejoin="bevel" stroke-miterlimit="10"/><path fill="none" stroke="black" paint-order="fill stroke markers" d=" M 109 380 L 113 380" stroke-linejoin="bevel" stroke-miterlimit="10"/><path fill="none" stroke="black" paint-order="fill stroke markers" d=" M 109 371 L 113 371" stroke-linejoin="bevel" stroke-miterlimit="10"/><path fill="none" stroke="black" paint-order="fill stroke markers" d=" M 109 363 L 113 363" stroke-linejoin="bevel" stroke-miterlimit="10"/><path fill="none" stroke="black" paint-order="fill stroke markers" d=" M 109 363 L 113 363" stroke-linejoin="bevel" stroke-miterlimit="10"/><path fill="none" stroke="black" paint-order="fill stroke markers" d=" M 109 311 L 113 311" stroke-linejoin="bevel" stroke-miterlimit="10"/><path fill="none" stroke="black" paint-order="fill stroke markers" d=" M 109 280 L 113 280" stroke-linejoin="bevel" stroke-miterlimit="10"/><path fill="none" stroke="black" paint-order="fill stroke markers" d=" M 109 259 L 113 259" stroke-linejoin="bevel" stroke-miterlimit="10"/><path fill="none" stroke="black" paint-order="fill stroke markers" d=" M 109 242 L 113 242" stroke-linejoin="bevel" stroke-miterlimit="10"/><path fill="none" stroke="black" paint-order="fill stroke markers" d=" M 109 228 L 113 228" stroke-linejoin="bevel" stroke-miterlimit="10"/><path fill="none" stroke="black" paint-order="fill stroke markers" d=" M 109 217 L 113 217" stroke-linejoin="bevel" stroke-miterlimit="10"/><path fill="none" stroke="black" paint-order="fill stroke markers" d=" M 109 206 L 113 206" stroke-linejoin="bevel" stroke-miterlimit="10"/><path fill="none" stroke="black" paint-order="fill stroke markers" d=" M 109 198 L 113 198" stroke-linejoin="bevel" stroke-miterlimit="10"/><path fill="none" stroke="black" paint-order="fill stroke markers" d=" M 109 190 L 113 190" stroke-linejoin="bevel" stroke-miterlimit="10"/><path fill="none" stroke="black" paint-order="fill stroke markers" d=" M 109 190 L 113 190" stroke-linejoin="bevel" stroke-miterlimit="10"/><path fill="none" stroke="black" paint-order="fill stroke markers" d=" M 109 137 L 113 137" stroke-linejoin="bevel" stroke-miterlimit="10"/><path fill="none" stroke="black" paint-order="fill stroke markers" d=" M 109 107 L 113 107" stroke-linejoin="bevel" stroke-miterlimit="10"/><path fill="none" stroke="black" paint-order="fill stroke markers" d=" M 109 85 L 113 85" stroke-linejoin="bevel" stroke-miterlimit="10"/><path fill="none" stroke="black" paint-order="fill stroke markers" d=" M 109 68 L 113 68" stroke-linejoin="bevel" stroke-miterlimit="10"/><path fill="none" stroke="black" paint-order="fill stroke markers" d=" M 109 55 L 113 55" stroke-linejoin="bevel" stroke-miterlimit="10"/><path fill="none" stroke="black" paint-order="fill stroke markers" d=" M 109 43 L 113 43" stroke-linejoin="bevel" stroke-miterlimit="10"/><path fill="none" stroke="black" paint-order="fill stroke markers" d=" M 109 33 L 113 33" stroke-linejoin="bevel" stroke-miterlimit="10"/><path fill="none" stroke="black" paint-order="fill stroke markers" d=" M 109 24 L 113 24" stroke-linejoin="bevel" stroke-miterlimit="10"/><path fill="none" stroke="black" paint-order="fill stroke markers" d=" M 109 16 L 113 16" stroke-linejoin="bevel" stroke-miterlimit="10"/><path fill="" stroke="black" paint-order="fill stroke markers" d=" M 109 16 L 113 16" stroke-linejoin="bevel" stroke-miterlimit="10"/><g transform="translate(102,537) rotate(0,0,0)"><text fill="" stroke="none" font-family="helvetica" font-size="26px" font-style="normal" font-weight="normal" text-decoration="normal" x="0" y="0" text-anchor="end" dominant-baseline="central">10^-3</text><g transform="rotate(0,0,0) translate(-102,-537) translate(102,363) rotate(0,0,0)"><text fill="" stroke="none" font-family="helvetica" font-size="26px" font-style="normal" font-weight="normal" text-decoration="normal" x="0" y="0" text-anchor="end" dominant-baseline="central">10^-2</text><g transform="rotate(0,0,0) translate(-102,-363) translate(102,190) rotate(0,0,0)"><text fill="" stroke="none" font-family="helvetica" font-size="26px" font-style="normal" font-weight="normal" text-decoration="normal" x="0" y="0" text-anchor="end" dominant-baseline="central">10^-1</text><g transform="rotate(0,0,0) translate(-102,-190) translate(102,16) rotate(0,0,0)"><text fill="" stroke="none" font-family="helvetica" font-size="26px" font-style="normal" font-weight="normal" text-decoration="normal" x="0" y="0" text-anchor="end" dominant-baseline="central">10^0</text><g transform="rotate(0,0,0) translate(-102,-16) translate(26,288) rotate(-90,0,0)"><text fill="" stroke="none" font-family="helvetica" font-size="26pt" font-style="italic" font-weight="normal" text-decoration="normal" x="0" y="0" text-anchor="middle" dominant-baseline="alphabetic">CCDF</text><g transform="rotate(90,0,0) translate(-26,-288)"/></g></g></g></g></g></g></g><g clip-path="url(#vdxzsHAswOhn)"><g/></g><g clip-path="url(#WXiHDyDSSMJg)"><g/></g></g></g></svg>