<svg version="1.1" xmlns="http://www.w3.org/2000/svg" xmlns:xlink="http://www.w3.org/1999/xlink" width="600" height="600" style="width: 600px; height: 600px;"><defs><clipPath id="JMGqblogQewu"><path fill="none" stroke="none" d=" M 113 5 L 570 5 L 570 570 L 113 570 L 113 5 Z"/></clipPath><clipPath id="tcpgtbEgEpmB"><path fill="none" stroke="none" d=" M 113 5 L 570 5 L 570 570 L 113 570 L 113 5 Z"/></clipPath><clipPath id="UrtIqrXrGxHQ"><path fill="none" stroke="none" d=" M 113 5 L 570 5 L 570 570 L 113 570 L 113 5 Z"/></clipPath><clipPath id="FGiWchnTcJCv"><path fill="none" stroke="none" d=" M 113 5 L 570 5 L 570 570 L 113 570 L 113 5 Z"/></clipPath><clipPath id="lLvZbASuwTNy"><path fill="none" stroke="none" d=" M 113 5 L 570 5 L 570 570 L 113 570 L 113 5 Z"/></clipPath><clipPath id="MvNpqLHDIWOb"><path fill="none" stroke="none" d=" M 113 5 L 570 5 L 570 570 L 113 570 L 113 5 Z"/></clipPath><clipPath id="bXVnSrGDcgud"><path fill="none" stroke="none" d=" M 113 5 L 570 5 L 570 570 L 113 570 L 113 5 Z"/></clipPath><clipPath id="uipyAKgwVoeK"><path fill="none" stroke="none" d=" M 113 5 L 570 5 L 570 570 L 113 570 L 113 5 Z"/></clipPath></defs><g><g transform="scale(1,1) translate(0.5,0.5)"><rect fill="#FFFFFF" stroke="none" x="0" y="0" width="600" height="600"/><rect fill="#ffffff" stroke="none" x="0" y="0" width="600" height="600"/><rect fill="#FFFFFF" stroke="none" x="113" y="5" width="457" height="565"/><rect fill="#ffffff" stroke="none" x="113" y="5" width="457" height="565"/><g><rect fill="none" stroke="#e5e5e5" x="113" y="5" width="457" height="565" stroke-linejoin="bevel" stroke-miterlimit="10"/></g><g clip-path="url(#JMGqblogQewu)"><g><g><path fill="none" stroke="#e5e5e5" paint-order="fill stroke markers" d=" M 134 570 L 134 5" stroke-linejoin="bevel" stroke-miterlimit="10"/><path fill="none" stroke="#e5e5e5" paint-order="fill stroke markers" d=" M 236 570 L 236 5" stroke-linejoin="bevel" stroke-miterlimit="10"/><path fill="none" stroke="#e5e5e5" paint-order="fill stroke markers" d=" M 338 570 L 338 5" stroke-linejoin="bevel" stroke-miterlimit="10"/><path fill="none" stroke="#e5e5e5" paint-order="fill stroke markers" d=" M 439 570 L 439 5" stroke-linejoin="bevel" stroke-miterlimit="10"/><path fill="none" stroke="#e5e5e5" paint-order="fill stroke markers" d=" M 541 570 L 541 5" stroke-linejoin="bevel" stroke-miterlimit="10"/></g></g></g><g clip-path="url(#tcpgtbEgEpmB)"><g><g><path fill="none" stroke="#e5e5e5" paint-order="fill stroke markers" d=" M 113 537 L 570 537" stroke-linejoin="bevel" stroke-miterlimit="10"/><path fill="none" stroke="#e5e5e5" paint-order="fill stroke markers" d=" M 113 368 L 570 368" stroke-linejoin="bevel" stroke-miterlimit="10"/><path fill="none" stroke="#e5e5e5" paint-order="fill stroke markers" d=" M 113 199 L 570 199" stroke-linejoin="bevel" stroke-miterlimit="10"/><path fill="none" stroke="#e5e5e5" paint-order="fill stroke markers" d=" M 113 29 L 570 29" stroke-linejoin="bevel" stroke-miterlimit="10"/></g></g></g><g clip-path="url(#UrtIqrXrGxHQ)"><g><g fill="#444444"><path fill="" stroke="none" d=""/><g transform="translate(138.7727272727273,362.81347469486076) rotate(0,0,0)"><path fill="none" stroke="none"/><text fill="" stroke="none" font-family="helvetica" font-size="20pt" font-style="normal" font-weight="normal" text-decoration="normal" x="0" y="0" text-anchor="start" dominant-baseline="text-after-edge">Female mean: 1026.64(±1347)</text></g></g><g fill="#444444"><path fill="" stroke="none" d=""/><g transform="translate(138.7727272727273,328.2826712379509) rotate(0,0,0)"><path fill="none" stroke="none"/><text fill="" stroke="none" font-family="helvetica" font-size="20pt" font-style="normal" font-weight="normal" text-decoration="normal" x="0" y="0" text-anchor="start" dominant-baseline="text-after-edge">Male mean: 751.19(±1101.7)</text></g></g></g></g><g clip-path="url(#FGiWchnTcJCv)"><g><g><path fill="none" stroke="none"/><path fill="none" stroke="blue" paint-order="fill stroke markers" d=" M 133.7727272727273 30.93006338805867 L 133.7727272727273 31.916242319551316 L 164.44661855470065 32.41434068353033 L 182.38969470585266 32.81526515608789 L 195.120509836674 33.218389499585555 L 204.99529721986175 33.929223781266955 L 213.063585987826 34.338524156162066 L 219.88522694183501 34.64700282044396 L 225.79440111864733 34.85337719005963 L 231.00666213897802 34.95678217162572 L 235.6691885018351 35.16402977668315 L 239.88695664022885 35.371863655803054 L 243.73747726979937 35.7893035701577 L 247.27961288248326 36.103947422694205 L 250.55911822380835 36.3144611119219 L 253.6122646529871 36.9496457076217 L 256.4682924006207 37.269309274752004 L 259.1511180843461 37.590369773779 L 264.07319399379924 38.02064466260856 L 268.50219437496037 38.12860827832594 L 270.56084792220224 38.453454322396965 L 272.52797492009086 38.67081905868531 L 274.41136855177274 39.10748737104518 L 276.2178671669962 39.65699799017807 L 277.9535041644566 39.988688067216685 L 279.62362957210337 40.43328384015888 L 281.2330095057817 40.65659473328219 L 282.78590816716314 40.88058645335252 L 284.28615593496045 40.99283892327901 L 285.7372062870878 41.10526316445839 L 287.14218368259407 41.443571792672515 L 289.8250093663195 41.55668840820431 L 291.10779688896946 42.01090455217047 L 292.35444470292475 42.23907003764748 L 293.5669334485399 42.353419052598156 L 294.74708527577263 42.58265239699017 L 295.8965803156086 42.69753784225247 L 297.01697106578183 42.927849088144285 L 298.10969499990085 43.04327602040928 L 299.17608565693376 43.274675352722056 L 301.2347392041755 43.50680580578273 L 302.22923208611246 43.973278657123956 L 304.15358182514836 44.090361115806445 L 305.0852598337461 44.32508728120024 L 306.89175844896954 44.4427321858808 L 307.7680855174715 44.796801436344595 L 308.62739544643 45.15258531456152 L 309.47033656779024 45.27156384627165 L 310.29752085407677 45.390735368385435 L 311.10952658736335 45.74941416349259 L 311.9069007877551 45.86936394895258 L 312.6901614269246 46.10985263266559 L 313.45979944913654 46.472068126945146 L 314.21628061950867 46.71454104430916 L 315.6915195870714 46.83607825527531 L 316.4110975690612 46.95781685359282 L 317.1191618080858 47.2019008896408 L 317.8160749645674 47.324247674408525 L 318.5021828296177 47.44679854064657 L 319.17781535532754 47.69251524886556 L 319.84328760758274 48.062638083414754 L 320.4989006482929 48.18642788064449 L 321.1449423532162 48.310426605901284 L 321.78168817094286 48.43463496561981 L 322.4094018280427 48.55905366982472 L 323.02833598489804 48.683683432152975 L 323.6387328463016 48.80852496988018 L 324.2408247305133 49.05884625897124 L 324.83483460012155 49.18432746329927 L 325.4209765577459 49.56206211170479 L 327.1342126077084 49.814968479428444 L 328.2405970052288 49.94174888582336 L 329.3199937081561 50.195967918967995 L 329.84997693890705 50.45106965885941 L 330.3736880314806 50.57895346360203 L 331.40287560028855 50.70706025678294 L 332.4086705052309 50.83539081740196 L 333.392112551591 50.96394592854767 L 334.3541737202132 51.22173295539301 L 335.29576394093374 51.61011744016491 L 335.7591511157194 51.870185772876084 L 336.217736264475 52.131177973717854 L 337.12089150647955 52.39310063000596 L 338.4419767994448 52.655960399761284 L 338.87371750040285 52.91976401272518 L 339.30128672840334 53.184518271393245 L 340.14422784976364 53.583447182446776 L 340.5597526946086 53.71690630592968 L 340.9714121360501 53.98455406012897 L 341.37927742729096 54.11874446688557 L 341.78341786933674 54.657970573877265 L 342.1839008816653 54.79339775927349 L 342.58079206972843 55.06500334503528 L 342.9741552894526 55.20118360140134 L 343.36405270889793 55.337616746039544 L 343.7505448672253 55.61124546931603 L 344.1336907311098 55.748442945739725 L 344.890171901482 56.02360891261844 L 345.6339384989072 56.161579333024406 L 346.00118600773044 56.29980934045136 L 346.36541086904475 56.57705203651881 L 346.72666243302615 56.85534489682027 L 347.0849888510345 57.134695907424316 L 347.44043711413065 57.274770739702376 L 347.79305309005906 57.5557241500552 L 348.14288155876875 57.696604782436 L 348.48996624654075 57.83775607902237 L 348.8343498587886 57.97917908183342 L 349.1760741115911 58.120874838917075 L 349.51517976201774 58.262844404397185 L 349.8517066373009 58.54760920770303 L 350.18569366290694 58.69040658458039 L 350.51717888955613 58.97683668333997 L 351.1727919302662 59.40858656802067 L 351.4969917014174 59.55306887077853 L 352.13835178022293 59.69783586791317 L 352.45557945291614 59.98822844864185 L 352.7705492582737 60.13385630063266 L 353.70222726687143 60.425980849613666 L 354.00847811429765 60.572479855831034 L 354.91471601248656 60.719271567550095 L 355.50872588209495 60.86635715676596 L 355.80276730170544 61.01373780252709 L 356.0948678397193 61.16141469099142 L 356.38505295059684 61.3093890154845 L 356.67334759130995 61.60623478204087 L 356.9597762342223 61.75510864711413 L 357.5271310674561 62.05376445380239 L 357.8081038896818 62.20354886302181 L 358.0873040009156 62.50403691901556 L 359.1868157363881 62.65474307908994 L 359.72649402048864 62.80575901566198 L 359.99388499012946 62.957086004846246 L 360.52386822088044 63.10872533065907 L 360.7864984922393 63.41294616813644 L 361.047579313454 63.71843196075838 L 361.30712886005 63.87165251112981 L 361.5651649896099 64.02519327187059 L 362.33036683610396 64.1790555841776 L 362.5825217681222 64.33324079769164 L 362.83324805263396 64.95323795617458 L 363.33047879884805 65.42169370233177 L 364.0660038335643 65.57851174964912 L 364.78950339567433 65.73566523689544 L 365.5013643890951 65.89315560218563 L 365.969655222907 66.0509842929028 L 366.20195534078664 66.36766248697194 L 366.43304239769276 66.68571158658665 L 367.1191502627431 66.84525394520932 L 367.34550917488946 67.16538180366575 L 368.2395410129163 67.48691066377683 L 368.4602550407081 67.64820431203827 L 368.67987370901585 67.80985284210004 L 369.11586808141817 67.97185781904358 L 370.6088843644642 68.13422081832675 L 371.02636926116804 68.46002723817674 L 371.64530341802345 68.62347386237275 L 372.0531687092643 68.78728491635582 L 372.6580036941021 68.9514620288644 L 372.8577921636386 69.28092099922713 L 373.45180203324696 69.4462061696695 L 374.0379439908713 69.9443045336485 L 374.8075820130832 70.44580291277367 L 374.9979180950539 70.61373264822777 L 375.3761517722828 71.11983724850023 L 375.56406318345535 71.45918763138513 L 375.7511800408338 71.62945242896774 L 375.9375090354272 71.8001127316619 L 376.3078297808805 71.97117038117023 L 377.4005537149995 72.14262723208964 L 378.114328396104 72.31448515203135 L 378.81677284074203 72.65941173523572 L 379.16385752851414 72.83248419990076 L 379.84996539356445 73.17985708001174 L 380.0198430334139 73.35416137831703 L 380.18907104399113 73.52888019377417 L 380.3576543748705 73.87956929529793 L 380.5255979192743 74.23194036537228 L 380.69290651492474 74.40876169566855 L 381.5200908012112 74.58600961583613 L 381.84668321223955 74.76368618919037 L 382.4927249171629 75.12033362389724 L 382.6527723640831 75.29930868749597 L 382.8122430621963 75.47872080907098 L 383.12947073488954 75.65857212844412 L 383.28723586040655 75.8388648011906 L 383.4444405402471 76.01960099879415 L 383.9127313740591 76.38241273499176 L 384.0677335319582 76.56449269751676 L 384.52950889596497 76.74702503308424 L 384.682369396271 76.93001199511264 L 385.2885853260414 77.11345585389995 L 385.4388505666431 77.29735889679267 L 385.73785893960496 77.48172342835704 L 386.1826171640683 77.66655177055236 L 386.4766585836788 77.85184626290618 L 386.91408953420586 78.03760926269257 L 387.2033263209646 78.22384314511135 L 387.3472388732833 78.41055030347064 L 387.77618960665615 78.785394112895 L 388.4819951716551 78.9735356427907 L 388.6218154169994 79.16216020666923 L 389.45158480541807 79.3512702911961 L 389.7247527767522 79.5408684022886 L 389.86070701836144 79.73095706531473 L 389.99624486041637 79.92153882529533 L 390.1313688458209 80.30419191569581 L 390.400385302462 80.49626843627436 L 390.6677762721028 80.68884843454686 L 390.9335612802897 80.88193455691834 L 391.06585755471724 81.07552947071417 L 391.1977595028538 81.26963586440093 L 391.59112272257795 81.46425644781056 L 391.7214705954273 81.85505113131836 L 392.1102262800505 82.05123075996511 L 392.2390562715833 82.44516857925265 L 392.3675123003507 82.64293243291655 L 392.75065816423523 82.84123006281106 L 393.2564130500956 83.04006435812272 L 393.50713933460736 83.23943823155923 L 393.8805851865792 83.4393546196057 L 394.00437008082133 83.63981648278389 L 394.86130279343604 83.84082680591524 L 394.9823783021701 84.04238859838813 L 395.1031234543989 84.24450489442734 L 395.2235400479843 84.44717875336869 L 395.8207565456754 84.65041325993678 L 396.057404547256 84.85421152452665 L 396.1752556710684 85.05857668348943 L 396.5269375550962 85.26351189942176 L 396.9915409914999 85.46902036145991 L 397.451317291914 85.67510528557705 L 397.6794264095555 85.88176991488541 L 398.3567825548429 86.08901751994284 L 398.4686740704263 86.29685139906269 L 398.5802833876885 86.50527487862934 L 399.1341463226815 86.71429131341745 L 399.3537649909892 86.92390408691574 L 399.57229911824425 87.13411661165617 L 399.89809006825465 87.34493232954657 L 400.00615622900864 87.76838726132485 L 400.8613146432741 87.98103350897765 L 401.4920104137103 88.19429701801175 L 401.70026054314144 88.40818138238745 L 402.1138436547711 88.62269022754515 L 402.21663829062607 88.83782721077381 L 402.7270599912377 89.27000038209508 L 403.6312404523653 89.4870440474046 L 403.7305739864129 89.70473080599538 L 404.22392436740233 89.92306448012408 L 404.32193785339933 90.36168803532252 L 404.71183527284467 91.0245727783614 L 405.6718093770272 91.2468701560478 L 405.8613303126807 91.46984218538336 L 406.704271434041 91.69349297384582 L 406.796948056054 91.91782666653882 L 407.2574420223239 92.14284744665247 L 407.62241787123867 92.36855953593226 L 408.16429897878197 92.82207472460408 L 408.9648788781021 93.04988646457502 L 409.49066412271543 93.27840679585785 L 410.0102756209706 93.5076401402498 L 410.09628744753735 93.73759096106772 L 410.1821324227353 93.96826376366903 L 410.2678111926499 94.1996630959818 L 410.69373431538725 94.43179354904242 L 410.77842921365567 94.6646597575425 L 410.94733426922926 94.89826640038359 L 411.11559709870664 95.13261820124177 L 411.1994892012476 95.36771992914055 L 411.3667977968981 95.60357639903316 L 411.8649614535028 95.84019247239428 L 412.1119559784443 96.07757305782127 L 412.19398208318455 96.31572311164518 L 412.60184737442546 96.55464763855178 L 412.84477426536404 96.79435169221239 L 412.92545445332206 97.27611884326825 L 413.00598781647113 97.51819229875997 L 413.16661619913623 97.761065998535 L 413.24671227681614 98.00474525102754 L 413.88231488497297 98.24923541766827 L 413.9611271423799 98.74067020835577 L 414.1967252365871 98.9876258266745 L 414.43107567396277 99.23541434916098 L 414.818922773912 99.48404141308441 L 414.9731148143598 100.23501109226515 L 415.2034001779383 100.73995622268819 L 415.27989643006725 100.99373618927132 L 415.3562606782443 101.24839581087656 L 415.66040669222167 101.50394120686161 L 415.8871522139355 101.7603785606617 L 416.1876835614247 102.0177141206866 L 416.2624985764333 102.27595420123532 L 416.33718732131433 102.5351051834246 L 417.442650403666 102.79517351613578 L 417.51537526939626 103.31808837326565 L 417.58798081617925 103.58094814302098 L 417.9492323801606 103.84475175598487 L 418.16457621550154 104.109506014653 L 418.307558798169 104.37521779532756 L 418.3788772194669 104.64189404918926 L 419.2957066989727 104.90954180338866 L 419.50461222069873 105.1781681621564 L 419.5740288166381 105.44778030793555 L 419.6433366942934 105.71838550253324 L 419.78162765320144 105.98999108829503 L 420.1254760873914 106.26260448929924 L 420.39864405872555 106.53623321257567 L 420.73774970915224 106.81088484934526 L 420.80526012779416 107.08656707628404 L 421.0742765844354 107.64105444239766 L 421.2081740264887 107.91987537390912 L 421.474759596764 108.19975848296212 L 421.80574895457295 108.48071189331483 L 421.9374546197586 109.04586258217677 L 422.2650140045513 109.33007658178002 L 422.33023593358274 109.61539432784008 L 422.59016661239303 109.90182442659972 L 422.6549114239966 110.1893755853539 L 422.7841175620238 110.47805661403828 L 423.1054920378951 110.76787642684866 L 423.8674001696118 111.0588440438924 L 424.11848209615016 111.35096859287336 L 424.9247972140059 111.64425931080979 L 424.9862171695106 111.93872554578672 L 425.1088019316568 112.23437675874413 L 425.3529574245831 112.53122252530056 L 425.7166833421097 112.82927253761414 L 425.77701473637217 113.1285366062815 L 425.8372639912025 113.73074675892167 L 426.01752114812484 114.0337130739187 L 426.137285959621 114.33793391139614 L 426.316327623284 114.64341970401813 L 426.6722523637163 114.95018101513028 L 427.0253372488399 115.25822854095134 L 427.37562723749613 115.56757311281069 L 427.49177709639866 116.19019740927735 L 427.66543227347324 116.50349949290887 L 427.95335177212263 116.81814334544526 L 428.06799709748014 117.13414050903799 L 428.29640055077294 117.45150267541345 L 428.35331769152884 117.77024168846901 L 428.8623043090286 118.09036954692539 L 428.9184986922461 118.41189840703652 L 429.0306738368162 118.73484058535973 L 429.08665495856036 119.05920856158644 L 429.36550320847095 119.71227265961556 L 429.42106262673855 120.37119391292924 L 429.4765523780057 120.7028839899678 L 429.5319726367672 121.03607833553923 L 429.64260537148164 121.37079065603342 L 430.0276562729625 121.70703484603024 L 430.08239106143355 122.04482499175998 L 430.3550540980148 122.38417537464477 L 430.78785041651605 122.72510047492165 L 430.84165354878166 123.06761497534927 L 430.8953913463229 123.41173376500359 L 430.9490639676231 123.75747194316045 L 431.5352059252475 124.10484482327149 L 431.9042032935319 124.45386793703392 L 432.11368567683814 125.15692810863203 L 432.21805617530595 125.51099735909577 L 432.5814265405287 125.8667812373127 L 433.9556978872942 126.22429643075566 L 434.05581799976846 126.5835598717037 L 434.15571210728194 126.94458874205384 L 434.3051317343387 127.30740047825151 L 434.65182796297216 127.67201277634393 L 434.70113501078885 128.0384435971597 L 434.84872737940907 128.40671117161673 L 435.2885737806988 129.14883088837104 L 435.5793945699933 129.52272089263136 L 435.6276794311255 129.89852338605039 L 435.82029375408996 130.2762580344558 L 435.91628743779864 130.65594480857447 L 436.0598886590083 131.03760399036798 L 436.34570065900056 131.42125617953405 L 436.44056258350855 131.80692230017803 L 436.7709870475601 132.19462360766067 L 437.2387828501248 132.5843816956272 L 437.65561234482726 132.97621850322486 L 437.7016853014484 133.3701563225124 L 437.8396170624781 133.7662178060707 L 437.97712024147796 134.16442597481893 L 438.02285985365046 134.56480422604346 L 439.1066626969546 134.96737634164782 L 439.417835747916 135.7791992677864 L 439.63877016007547 136.1884996426815 L 439.7708032888622 137.0140052632026 L 439.81472693597914 137.43026262188909 L 439.94623690152264 137.84889183017555 L 440.2080901557033 138.26992007280631 L 440.4251237973827 138.69337500458454 L 440.6841669029439 139.11928476127144 L 441.02721568159427 139.54767797080478 L 441.3252172847358 139.97858376484533 L 441.3676255973606 140.4120317906643 L 442.2489392083025 140.84805222338383 L 442.2904718916301 141.2866757785822 L 442.62133751394674 141.7279337252781 L 442.7036688322757 142.17185789930744 L 442.9497477101357 142.6184807171055 L 443.76026617020847 143.06783518991222 L 443.8805736412366 143.51995493841315 L 444.55620616694637 143.97487420783477 L 445.22167841920157 144.43262788350955 L 445.3768164250194 144.89325150692872 L 445.60850842462526 145.35678129230217 L 446.7866331305898 145.82325414364334 L 446.9737499879682 146.2927076724003 L 447.16007898256163 146.76518021565397 L 447.34562672121507 147.240710854905 L 447.6408943443152 147.71933943547202 L 447.8976472368382 148.20110658652794 L 448.5871309225839 148.68605374179475 L 448.9457477217417 149.1742231609279 L 449.2305633200991 149.66565795161551 L 449.4076466729952 150.16040209242067 L 449.724621874231 150.65850045639962 L 449.9346843137803 151.15999883552485 L 450.2825876059365 151.66494396594788 L 450.9702948543186 152.6853663039214 L 451.0384814176354 153.200941944495 L 451.3101818618434 153.72016125939552 L 451.6810669121767 154.24307611652534 L 452.3806031101588 154.76973949924462 L 452.677052032344 155.3002055385872 L 452.74266074834566 156.37276805119512 L 452.77542866604966 156.91497883155466 L 453.1017802250334 157.46122095583536 L 453.8433790950665 158.0115548195438 L 454.06663830436463 158.56604218565735 L 454.09844072818197 159.12474622622182 L 454.28877681015257 159.6877315655418 L 454.5412914515852 160.82681216985947 L 454.85492189855404 161.40304435729797 L 454.88616303704697 161.9838317871521 L 454.9173821359342 162.56924705406954 L 455.1042356331243 163.15936450200388 L 456.66142051377756 163.7542602808739 L 456.75133535169476 164.3540124055349 L 457.13886893027575 164.95870081717845 L 457.43467932878036 165.56840744727782 L 458.45471624361284 166.18321628421103 L 458.56980882041773 166.80321344269402 L 458.5985352549463 167.4284872361685 L 459.02720897350224 168.05912825229774 L 459.0840530029461 168.69522943172876 L 459.2258444438202 169.9841963048462 L 459.732564531832 170.6372604028752 L 460.0115886014758 171.29618165618888 L 460.5918744607905 171.96106607879892 L 460.6467449834277 173.30916311790452 L 460.7836243713619 173.99260271860902 L 461.19174042870856 174.6824596864202 L 461.21881480755076 175.37885568029367 L 461.7033423213605 176.08191585189172 L 461.81029843587237 176.79176898057239 L 461.99685185629676 178.2323882215112 L 462.3676158394225 178.96343134041933 L 462.47298034357243 179.70182174942568 L 462.6305582103842 180.44770863589105 L 462.76144582676363 181.20124577771554 L 462.86587790080387 181.96259173362773 L 462.94404054256177 182.73191004343778 L 463.0480431070881 183.50936943888695 L 463.2811590324843 184.2951440657721 L 463.3069851615146 185.08941371807867 L 464.0748425551844 185.89236408490757 L 464.52924202686546 186.7041870110461 L 464.9043762668093 187.52508077209643 L 465.0535440625566 188.35525036514872 L 465.84072338799024 189.194907816066 L 466.2774348680297 190.04427250453114 L 466.9483118114624 190.90357150810502 L 467.39782561820283 191.7730399666434 L 468.1678694810964 192.6529214685379 L 468.2603041274188 193.54346846036532 L 468.3064491481144 195.35761562676925 L 468.3525461010714 196.28176903556192 L 468.71960322538405 197.2176954156601 L 469.2419704039972 198.16569859816457 L 469.5345165601102 199.1260943297877 L 469.98084480991974 200.09921090418766 L 470.9037327631759 201.08538983568042 L 471.12066001538903 203.09837129739594 L 471.228726176143 204.12592968775476 L 471.7864552462185 205.1680638597851 L 471.8929096416423 206.22519328184694 L 471.93541979941386 207.29775579445487 L 472.86045828708615 208.38620869909505 L 473.4392082377605 209.4910299289171 L 474.2127406704074 210.6127193088015 L 474.7343150861071 211.75179991311904 L 475.52492246237944 212.90881953041173 L 475.72038687396923 214.08435224526352 L 476.0507077069928 216.4933951905375 L 476.28239970659854 217.7282011859537 L 476.3016527288023 218.98411599555754 L 476.4937236502757 220.26187389355601 L 476.51288497156975 221.562248146135 L 477.21608362921063 222.8860538220586 L 477.833970264535 224.2341508611642 L 477.88971631957077 225.6074474296799 L 478.2963890054303 227.00690359515147 L 479.2069781463394 228.4335353582232 L 479.5839078182153 229.88841908367903 L 480.0107896252118 231.37269637915074 L 480.4160564947244 232.88757947688737 L 480.9564788879099 234.43435718214664 L 481.3875466918734 236.01440146133837 L 481.74642662267223 237.62917475430584 L 483.2687953960975 239.28023810840847 L 483.3181024439142 240.96926024779088 L 483.7919260786632 242.69802770990316 L 484.3410588214213 244.4684562036249 L 486.7311649267082 246.28260337002888 L 487.1247973003189 248.14268315891962 L 487.2000960607652 250.05108207304727 L 487.39527531554523 252.01037757893994 L 487.87208069142304 254.02335904065563 L 488.0495665075626 256.0930516030448 L 488.09382695883073 258.2227435377147 L 488.2851123508922 260.4160176721768 L 490.09748357853726 262.67678765637896 L 490.6019572336085 265.0093399885233 L 491.0180029571277 267.4183829337973 L 491.48484079828324 269.90910373881724 L 492.12217197021835 272.4872358893947 L 492.72389998650823 275.15913860442396 L 495.0017537993768 277.9318913384111 L 495.70260893667694 280.8134068269388 L 495.801831110167 283.81256722014706 L 496.07355051210254 290.20522585166816 L 496.15965797383905 293.6230154531629 L 496.46582406872864 297.20759111328863 L 496.7335091187647 300.976069816307 L 498.6098258986213 304.94834678391527 L 500.1185994483229 309.1477312809742 L 501.8269988638929 313.60177539963837 L 502.4816579039166 318.3433706770568 L 503.2421112467718 323.4122236326541 L 504.94712829924214 328.8568790816706 L 506.14981244288134 334.7375549634066 L 506.8309417554243 341.13021359492814 L 509.4188104423885 348.1325788565486 L 510.97579156280653 355.8733345271754 L 512.2924803458246 364.5267631428985 L 515.2151362352224 374.3372113759143 L 516.4287046110526 385.66254270666684 L 519.5207001963013 399.05756659980835 L 522.620696486838 415.4517508861582 L 523.4044313871582 436.5875304499265 L 525.0275626837113 466.3767386294179 L 531.3896469735326 517.3017263726776" stroke-linejoin="bevel" stroke-miterlimit="10"/><path fill="none" stroke="none"/><path fill="none" stroke="blue" paint-order="fill stroke markers" d=" M 549.2272727272727 NaN" stroke-linejoin="bevel" stroke-miterlimit="10"/></g></g></g><g clip-path="url(#lLvZbASuwTNy)"><g><g><path fill="none" stroke="none"/><path fill="none" stroke="red" paint-order="fill stroke markers" d=" M 133.7727272727273 30.68181818181813 L 133.7727272727273 31.08847545957167 L 164.44661855470065 31.36083620624254 L 182.38969470585266 31.634210390584144 L 195.120509836674 31.702713171560504 L 204.99529721986175 31.908605582651944 L 219.88522694183501 32.11507661486303 L 225.79440111864733 32.32212952956854 L 231.00666213897802 32.39127704269595 L 235.6691885018351 32.46048969715491 L 239.88695664022885 32.599110921815736 L 243.73747726979937 32.73799419053569 L 247.27961288248326 32.877140495906474 L 250.55911822380835 32.946812599064856 L 253.6122646529871 33.08635533289396 L 259.1511180843461 33.29616764285902 L 261.68055342095136 33.50658084808822 L 264.07319399379924 33.64719185229967 L 266.34307978380843 33.8586142349626 L 270.56084792220224 33.929223781266955 L 272.52797492009086 34.070646784077894 L 274.41136855177274 34.354312106641714 L 276.2178671669962 34.4965565407648 L 277.9535041644566 34.71044090514056 L 279.62362957210337 34.85337719005963 L 281.2330095057817 34.9249497502982 L 284.28615593496045 35.35585554433874 L 285.7372062870878 35.572259904848124 L 287.14218368259407 35.7893035701577 L 288.5039240733542 36.00699032874843 L 289.8250093663195 36.15247399465295 L 291.10779688896946 36.37124108614432 L 292.35444470292475 36.44430844897886 L 293.5669334485399 36.66394755807562 L 294.74708527577263 36.88424525619098 L 295.8965803156086 37.03147822585527 L 297.01697106578183 37.1790068442516 L 298.10969499990085 37.47495579337442 L 300.21738242566323 37.6977024842854 L 301.2347392041755 37.846576349358656 L 302.22923208611246 37.92112656100596 L 303.2018662020642 37.995752496598925 L 305.0852598337461 38.14523215604686 L 305.9977266109427 38.29501656526634 L 306.89175844896954 38.52026731076842 L 307.7680855174715 38.59550462126015 L 308.62739544643 38.746210781334526 L 311.10952658736335 38.97285125085705 L 311.9069007877551 39.04855370709072 L 313.45979944913654 39.12433424735718 L 314.21628061950867 39.27613022547746 L 315.6915195870714 39.4282404812094 L 316.4110975690612 39.50441387038097 L 318.5021828296177 39.65699799017807 L 319.17781535532754 39.733409049873444 L 319.84328760758274 39.96312021337428 L 320.4989006482929 40.03985048382083 L 321.1449423532162 40.11666097411512 L 321.78168817094286 40.19355185216898 L 322.4094018280427 40.42470849993617 L 323.02833598489804 40.65659473328219 L 325.4209765577459 40.966919280295656 L 325.9994563093366 41.122574481049924 L 326.570471597582 41.513161404576294 L 327.1342126077084 41.82713293914003 L 327.69086234775517 42.14245199514744 L 330.3736880314806 42.22149366740234 L 331.40287560028855 42.37983258057443 L 331.9086304861489 42.53851347870568 L 332.4086705052309 42.617982634398345 L 332.90312336808586 42.69753784225247 L 333.392112551591 43.01662293567131 L 333.87575748403754 43.09661121496549 L 334.3541737202132 43.49786413629272 L 334.8274731071217 43.57837836602141 L 335.7591511157194 43.820451821513075 L 336.6716178929161 43.90132054434457 L 337.12089150647955 43.982278378734236 L 337.56564973094294 44.06332552128822 L 338.00598242704245 44.22568852057134 L 338.4419767994448 44.46990778348106 L 338.87371750040285 44.63317280016736 L 339.30128672840334 44.714941564617334 L 339.72476432209487 44.796801436344595 L 340.14422784976364 45.125156071280685 L 340.9714121360501 45.372388701471664 L 341.37927742729096 45.78630093583752 L 341.78341786933674 46.11911793657782 L 342.1839008816653 46.20255829452401 L 342.9741552894526 46.28609352498404 L 343.36405270889793 46.369723843945394 L 343.7505448672253 46.62118750281047 L 344.1336907311098 46.87351480501502 L 344.890171901482 47.12671170331669 L 345.26361775345384 47.211304950744875 L 345.6339384989072 47.29599571202448 L 346.72666243302615 47.63573840888807 L 347.0849888510345 47.97705947470024 L 347.44043711413065 48.062638083414754 L 347.79305309005906 48.234094934334166 L 348.48996624654075 48.319973643439766 L 349.1760741115911 48.49203280234747 L 349.51517976201774 48.66449585636508 L 350.18569366290694 48.75087943748031 L 350.51717888955613 48.83736470617771 L 350.84619951923787 48.92395190214529 L 351.1727919302662 49.097433038888994 L 351.4969917014174 49.18432746329927 L 352.13835178022293 49.4456290805615 L 353.08329311001603 49.53293655046116 L 353.70222726687143 49.795483204874586 L 354.31262412827493 49.971036997542456 L 355.2127176156281 50.14701127873809 L 355.50872588209495 50.411765537406154 L 355.80276730170544 50.76626189356773 L 356.0948678397193 50.94415357194248 L 356.67334759130995 51.122477026659 L 356.9597762342223 51.30123435882183 L 357.2443628795553 51.4804276849095 L 357.5271310674561 51.660059136924815 L 357.8081038896818 51.840130862547085 L 358.0873040009156 51.930332503435125 L 358.3647536297285 52.0206450252864 L 358.91448828720206 52.111068701038675 L 359.45747756384753 52.20160380463892 L 359.99388499012946 52.292250611048075 L 360.2596699983164 52.38300939624594 L 361.30712886005 52.47388043723629 L 361.8217052491465 52.747169880469755 L 362.83324805263396 52.838492735328714 L 363.0825617872042 52.92992924653936 L 363.33047879884805 53.11314437209842 L 363.5770146500592 53.204923556144536 L 363.8221846446726 53.57319113060157 L 364.5496487660109 53.75801947279683 L 364.78950339567433 53.85060830329235 L 365.2653474518477 54.12907696493721 L 365.5013643890951 54.22213489666228 L 365.7361292412111 54.31531084735582 L 366.20195534078664 54.408605116748845 L 366.43304239769276 54.59554981627832 L 367.1191502627431 54.782971416067994 L 367.5707161282994 54.87686181513959 L 367.79478278845295 54.97087235550953 L 368.01772064452416 55.06500334503528 L 368.4602550407081 55.15925509275894 L 368.67987370901585 55.2536279089137 L 369.11586808141817 55.44273799344069 L 369.3322649470353 55.53747588828901 L 369.54760878237624 55.632336104533124 L 369.9751780103767 55.72731895845379 L 370.39865560406815 55.91765385059318 L 370.6088843644642 56.013006527539915 L 371.02636926116804 56.20408394935282 L 371.4399523727977 56.395659617940396 L 371.8497059561956 56.58773613851895 L 372.0531687092643 56.87679576624987 L 372.25570027942695 57.166997172958645 L 372.45730915131 57.26398626595471 L 372.8577921636386 57.36110356664551 L 373.648046571426 57.45834941442968 L 374.0379439908713 57.5557241500552 L 374.8075820130832 57.750861654612095 L 375.3761517722828 57.84862511185156 L 375.56406318345535 57.94651883356289 L 376.1230567740806 58.0445431673499 L 376.8575644383541 58.14269846220975 L 377.0393021510181 58.24098506853983 L 377.4005537149995 58.33940333814627 L 377.9369611412814 58.43795362425044 L 378.99065546460594 58.536636281497294 L 379.16385752851414 58.73440013516114 L 379.3363843389973 58.83348204805367 L 379.508241140762 59.13153206036725 L 379.6794331176476 59.23115136684993 L 379.84996539356445 59.33090593380382 L 380.0198430334139 59.83172060159211 L 380.18907104399113 59.93229450815977 L 380.85958494488034 60.03300628167477 L 381.1910701715295 60.13385630063266 L 381.355886268329 60.33597259667181 L 381.5200908012112 60.43723963858281 L 382.0090799847164 60.538646455613275 L 382.4927249171629 60.64019343414918 L 382.8122430621963 60.74188096218137 L 383.28723586040655 60.84370942931338 L 383.4444405402471 60.94567922677129 L 383.6010887421806 61.04779074741231 L 383.7571843919894 61.15004438573396 L 384.2221946690085 61.354979601666344 L 384.3761185488448 61.45766197655638 L 384.52950889596497 61.56048806370438 L 384.98651541024833 61.66345826594818 L 385.1378081074813 61.86983263556385 L 385.2885853260414 61.973237617129996 L 385.4388505666431 62.07678834219968 L 385.88660889760143 62.28432867025214 L 386.0348605298468 62.492456932030564 L 386.329882094771 62.70117646807404 L 386.4766585836788 63.015371789160326 L 386.91408953420586 63.120402868198425 L 387.2033263209646 63.2255843139007 L 387.3472388732833 63.64782241445408 L 387.49068493352826 63.753762198166555 L 387.63366751619566 63.859854963569376 L 388.05986410904853 64.07250121122217 L 388.3417317552202 64.1790555841776 L 388.90013753466474 64.49964908463198 L 389.176720127734 64.60682521928334 L 389.3143658711719 64.71415792978962 L 389.5883795691754 64.82164767431027 L 390.1313688458209 64.92929491301834 L 390.400385302462 65.14506372383016 L 390.5342827445154 65.25318622645648 L 390.6677762721028 65.3614680843396 L 390.8008683147906 65.46990976790124 L 390.9335612802897 65.68727450418965 L 391.1977595028538 65.79619850823985 L 391.3292694683973 65.90528424064064 L 391.7214705954273 66.23351662847034 L 391.98102014202334 66.34325410559313 L 392.1102262800505 66.45315573756704 L 393.00425811807725 66.5632220162421 L 393.1305151818593 66.78385049217871 L 393.38195376077914 67.0051435127209 L 393.50713933460736 67.11604048060593 L 393.7564530691776 67.2271050932531 L 393.8805851865792 67.4497392856631 L 394.00437008082133 67.56130988762789 L 394.1278096889966 67.7849606760904 L 394.37366071487116 67.89704189885674 L 394.4960759266459 68.34708451451309 L 394.9823783021701 68.57314385370847 L 395.1031234543989 68.68643489739793 L 395.4633946776477 68.79990090801977 L 395.582836236898 69.0273599976747 L 395.70195628415985 69.36987449810238 L 395.8207565456754 69.48440176568158 L 396.41002052318447 69.59910784249439 L 396.5269375550962 69.7139932877567 L 396.75984899189405 69.82905866331225 L 396.9915409914999 70.05973146591361 L 397.10693367966616 70.1753400299329 L 397.22202625647105 70.29113079822633 L 397.33682027891524 70.4071043460246 L 397.451317291914 70.52326125128701 L 397.9063657317097 70.75612745978702 L 398.5802833876885 70.87283793274133 L 398.80266109603235 71.10681656131072 L 399.1341463226815 71.22408590348635 L 399.24409189684377 71.45918763138513 L 399.3537649909892 71.69504410127774 L 399.57229911824425 71.81325688184887 L 399.6811628160414 72.05025459469937 L 399.78975936339157 72.1690407600658 L 399.89809006825465 72.28801929177587 L 400.00615622900864 72.40719081388971 L 400.3287802886164 72.64611534079631 L 400.4358010683149 72.76586960899687 L 400.8613146432741 72.88581939445686 L 401.4920104137103 73.00596533664441 L 401.8040192561791 73.12630807816993 L 401.9075352585553 73.24684826480694 L 402.0108096831102 73.36758654551284 L 402.1138436547711 73.48852357244937 L 402.21663829062607 73.60966000100461 L 402.625445547423 73.85253370077959 L 402.8284416411628 73.9742722990971 L 403.92857463367517 74.09621295327213 L 404.0272437288155 74.21835633514507 L 404.22392436740233 74.46325398615079 L 404.8087752258206 74.58600961583613 L 404.90550328802 74.70897069436978 L 405.09832743117204 74.83213791060024 L 405.2903150244353 74.95551195684601 L 405.4814732950566 75.07909352891909 L 405.5767436673476 75.20288332614882 L 405.8613303126807 75.3268820514055 L 406.0500430542562 75.45109041112414 L 406.1440985005815 75.57550911532894 L 406.2379544654287 75.7001388776572 L 406.3316117931648 75.82498041538446 L 406.4250713228071 75.95003444944865 L 406.6114003174006 76.07530170447546 L 406.8894309963751 76.32647879450968 L 406.98172106285386 76.45239009743466 L 407.07381905829584 76.57851755720895 L 407.1657257805048 76.70486191727889 L 407.4403062116095 76.83142392493266 L 407.62241787123867 76.95820433132758 L 407.80378316951345 77.08520389151585 L 407.89418784005056 77.33986351312109 L 408.2539708855286 77.4675251043638 L 408.343461453614 77.72351570228722 L 408.4327714149813 77.98040137405201 L 408.52190149715045 78.10918182293125 L 408.6108524232548 78.23818840089729 L 408.6996249120757 78.49688313041378 L 408.7882196780774 78.62657288566919 L 409.2285523741769 78.75649197748118 L 409.31609556956573 79.01702142522305 L 409.4034659253646 79.14763341922207 L 409.5776908387415 79.27847802597802 L 409.6645467465793 79.40955607551018 L 409.92409629317535 79.5408684022886 L 410.0102756209706 79.67241584526556 L 410.09628744753735 79.80419924790795 L 410.1821324227353 79.93621945822946 L 410.353324399621 80.06847732882392 L 410.77842921365567 80.20097371689747 L 410.8629623259644 80.3337094843028 L 411.0315456568439 80.46668549757209 L 411.1994892012476 80.7333617514339 L 411.4502154857594 80.86706374879662 L 411.5334762268537 81.00100950563325 L 411.78232264174306 81.1351999123898 L 411.8649614535028 81.26963586440093 L 412.0297775503023 81.40431826192486 L 412.52057449421284 81.67442601938154 L 412.6829712666897 81.80985320477777 L 412.76394671625025 81.94553048668803 L 412.84477426536404 82.08145879053956 L 412.92545445332206 82.21763904690556 L 413.5656547084915 82.49075916543455 L 413.6450324353119 82.764898391244 L 413.72426803541924 83.04006435812272 L 413.8033620168629 83.17803477852868 L 413.88231488497297 83.31626478595564 L 414.3530966743364 83.45475535905513 L 414.818922773912 83.87180034232455 L 415.12677146470054 84.01134307615371 L 415.3562606782443 84.1511513529286 L 415.4324933772638 84.29122618520665 L 416.03767300815974 84.43156859134791 L 416.11274184861645 84.57217959555948 L 416.70875181182015 84.85421152452665 L 416.7826917970039 84.99563452733764 L 417.0772224738335 85.13733028442135 L 417.1505498656521 85.27929984990146 L 417.877217602938 85.42154428402455 L 418.16457621550154 85.56406465320731 L 418.307558798169 85.70686203008461 L 418.3788772194669 85.84993749355789 L 418.5211701743386 85.99329212884419 L 418.6630070612651 86.13692702752553 L 418.8749136314028 86.28084328759849 L 419.01562303719356 86.42504201352494 L 419.2957066989727 86.71429131341745 L 419.5740288166381 87.15031174613688 L 419.71253619367525 87.58893530133525 L 419.78162765320144 87.88281260227023 L 420.1254760873914 88.32584446098872 L 420.19392632661874 88.62269022754515 L 420.3305099870102 88.92074023985867 L 420.39864405872555 89.22000430852603 L 420.53459830033484 89.37009471266532 L 421.0742765844354 89.82221446116625 L 421.474759596764 89.97354145035047 L 421.5411558145267 90.27713373058793 L 421.607452562263 90.42940161364066 L 421.9374546197586 90.58198573343782 L 422.2650140045513 90.73488740626266 L 422.4603921181072 91.19551102968182 L 422.52532693656275 91.34969624319592 L 422.59016661239303 91.5042057160727 L 422.6549114239966 91.65904081505533 L 423.23339117558726 91.81420291554565 L 423.29720239188873 91.9696934016788 L 423.42454944620863 92.12551366639644 L 423.67814940005064 92.28166511152193 L 423.8674001696118 92.43814914783604 L 424.36814747395914 92.5949671951534 L 424.43034435115095 92.7521206823996 L 424.49245393445136 92.90961104768985 L 424.67826136279473 93.06743973840707 L 425.04755199684456 93.22560821128258 L 425.7166833421097 93.54297037765804 L 425.95751697508433 93.70216703209087 L 426.37584756613325 94.02159895822513 L 426.7312958292294 94.18183724916997 L 426.8491469530418 94.34242578802383 L 426.90795502925414 94.5033661092811 L 427.0253372488399 94.82630828760432 L 427.6076228977313 94.98831326454786 L 428.01071156088864 95.15067626383109 L 428.12520857388733 95.31339887137977 L 428.23941011039506 95.47648268368101 L 428.4101617209727 95.63992930787703 L 428.4669328266898 95.8037403618601 L 428.63681046653926 95.96791747436862 L 428.7497010145906 96.29737644473141 L 429.08665495856036 96.46266161517372 L 429.14256535239963 96.62831946951769 L 429.1984051968273 96.79435169221239 L 429.42106262673855 96.96075997915267 L 429.4765523780057 97.12754603778376 L 429.5319726367672 97.29471158720509 L 429.7529622138032 97.63018809373204 L 429.8080376046548 97.79850254827471 L 430.1370582343365 97.96720348870093 L 430.46365064536485 98.13629269400445 L 430.57198135022793 98.30577195549051 L 430.62604741784173 98.47564307688941 L 430.73398179046404 98.64590787447196 L 430.84165354878166 98.81656817716612 L 430.8953913463229 98.9876258266745 L 431.10969235028824 99.33094059753569 L 431.37611742256155 99.84893964540498 L 431.48223994545083 100.19631252551602 L 431.58810858646393 100.37061682382131 L 431.7464381680149 100.54533563927845 L 431.8516773872616 100.72047094813433 L 432.11368567683814 100.89602474080215 L 432.1659016956837 101.07199902199773 L 432.2701492605884 101.24839581087656 L 432.47791053815246 101.42521714117288 L 432.52969880718445 101.60246506134035 L 432.68470096508355 101.7801416346947 L 433.0442751962809 101.95824893955728 L 433.0954052664834 102.13678906940152 L 433.9055527591668 102.31576413300024 L 434.3051317343387 102.4951762545752 L 434.35482637273026 102.67502757394828 L 434.4540485462203 102.85532024669487 L 434.65182796297216 103.03605644429837 L 434.9958291353726 103.39886818049598 L 435.044754591807 103.76348047858852 L 435.14244352957303 103.94646744061686 L 435.23991729329316 104.12991129940417 L 435.385726554818 104.3138143422969 L 435.43422307565766 104.49817887386126 L 435.5793945699933 104.68300721605658 L 435.6276794311255 104.86830170841046 L 435.91628743779864 105.24029859061557 L 436.01207334280883 105.42700574897492 L 436.1076523666536 105.61418859487588 L 436.44056258350855 105.80184955839923 L 436.62967855866384 105.98999108829503 L 436.7709870475601 106.1786156521735 L 437.00550307513817 106.36772573670044 L 437.2387828501248 106.55732384779293 L 437.2852915993739 106.747412510819 L 437.37816271601434 106.9379942707996 L 437.6094913705251 107.12907169261251 L 437.7016853014484 107.32064736120009 L 437.8396170624781 107.70530388005108 L 438.1141974935829 107.89839000242262 L 438.296309153212 108.09198491621845 L 438.47767445148685 108.2860913099052 L 438.52289987273247 108.67584939787179 L 438.5680791220239 108.87150657682258 L 438.74833627894617 109.06768620546939 L 438.8830489273815 109.46162402475699 L 439.24029059165866 109.85768550831534 L 439.4621109600507 110.056519803627 L 439.63877016007547 110.25589367706351 L 439.6828249878426 110.45581006510986 L 439.81472693597914 110.65627192828805 L 440.2080901557033 110.85728225141952 L 440.3384380285527 111.0588440438924 L 440.5116400924609 111.26096033993156 L 440.59798757514864 111.46363419887297 L 440.94170247462324 111.66686870544106 L 440.984479733476 111.87066697003098 L 441.0699103986902 112.07503212899366 L 441.1977479575111 112.48547580696413 L 441.873380483221 112.69156073108127 L 442.12410676773266 112.89822536038974 L 442.49755261970455 113.10547296544706 L 442.5388527354762 113.31330684456697 L 442.9497477101357 113.52173032413361 L 443.11304335977127 113.73074675892167 L 443.3973687948205 113.94035953242002 L 443.76026617020847 114.15057205716045 L 443.9206035587895 114.3613877750509 L 444.19980367002336 114.57281015771377 L 444.31892371728526 114.78484270682907 L 444.35855925136104 114.99748895448192 L 444.43772397880076 115.21075246351603 L 444.63501842435323 115.42463682789173 L 444.71369057100645 115.63914567304937 L 444.9879468679044 115.85428265627809 L 445.2605139380058 116.07005146708991 L 445.41551609590493 116.28645582759935 L 445.4541819531811 116.50349949290887 L 445.56997723295524 116.7211862514996 L 445.6854703063491 116.9395199256283 L 445.7622985736276 117.15850437173003 L 445.8389936895964 117.37814348082662 L 445.87729145991165 117.59844117894204 L 446.14445181929403 117.81940142752273 L 446.33429797419507 118.04102822386568 L 446.4100089778418 118.26332560155203 L 446.485590671428 118.48629763088758 L 446.52333316483504 118.70994841935016 L 446.5610434959089 118.93428211204298 L 446.5987217194173 119.15930289215669 L 446.63636788998815 119.38501498143648 L 447.0483757574865 119.61142264065768 L 447.0856415035517 119.83853017010824 L 447.23439146154817 120.06634191007936 L 447.34562672121507 120.29486224136213 L 447.3826430937935 120.52409558575408 L 447.45658307897725 120.754046406572 L 447.7877926396615 120.9847192091733 L 447.8244411476255 121.21611854148608 L 448.0072298041934 121.91472184588787 L 448.1165416856394 122.14907364674605 L 448.1892665513696 122.38417537464477 L 448.2255842151538 122.62003184453738 L 448.26187209815254 122.85664791789861 L 448.37055754984686 123.09402850332549 L 448.5511088849113 123.33217855714946 L 448.5871309225839 123.57110308405606 L 448.9457477217417 123.81080713771661 L 449.195061456312 124.05129582142968 L 449.3368983432385 124.29257428877253 L 449.4782820763995 124.5346477442643 L 449.724621874231 124.77752144403922 L 449.9346843137803 125.02120069653182 L 450.10897784683567 125.2656908631725 L 450.2479200986114 125.51099735909577 L 450.3864274756486 126.00408127217878 L 450.4555189351748 126.2518697946652 L 450.52450269168065 126.50049685858869 L 451.1745401592106 126.74996815864421 L 451.2084895823081 127.00028944773516 L 451.34402742436305 127.5035053004687 L 451.9154764620592 127.75641166819236 L 451.9488624092008 128.0101916347756 L 452.04886939150816 128.26485125638078 L 452.24820788549073 128.77683400616593 L 452.5126034193272 129.03416956619094 L 452.61134590173197 129.29240964673954 L 452.93890528652463 129.55156062892888 L 452.97152826687216 129.8116289616401 L 453.26405789436643 130.07262116248177 L 453.32880270597 130.33454381876993 L 453.45800884399716 130.59740358852525 L 453.6189878168475 130.86120720148915 L 453.87534231121754 131.1259614601572 L 453.97109367386213 131.39167324083178 L 454.0348130093307 131.6583494946936 L 454.1302203136319 131.92599724889288 L 454.16197709349296 132.19462360766067 L 454.3836387346605 132.46423575343977 L 454.6356141960062 132.73484094803746 L 454.6670104873815 133.00644653379914 L 454.7297363247259 133.27905993480346 L 455.0420387559325 133.55268865807994 L 455.13530132119354 133.82734029484953 L 455.22836775052593 134.10302252178832 L 455.29030347909264 134.37974310231488 L 455.35215264476807 134.65750988790194 L 455.47559225294333 134.9363308194134 L 455.90493934340543 135.21621392846635 L 455.9659360048025 135.4971673388191 L 456.390574624083 135.7791992677864 L 456.69141243009824 136.06231802768093 L 456.75133535169476 136.3465320272843 L 456.9306188008447 136.63184977334436 L 457.1091788447359 136.91827987210394 L 457.25743047698126 137.20583103085818 L 457.46415190451995 137.49451205954261 L 457.5230382350151 137.78433187235288 L 457.55245204190544 138.36742403837764 L 457.64057634086583 138.66071475631406 L 457.72852550032906 138.955180991291 L 457.7578030871311 139.2508322042484 L 457.7870613168497 139.54767797080478 L 458.07858457689355 139.84572798311842 L 458.10763155584084 140.14499205178572 L 458.3393235554466 140.44548010777947 L 458.5122999483382 140.74720220442595 L 458.65593224202934 141.05016851942298 L 458.7418883794534 141.35438935690036 L 458.82767788128865 141.65987514952235 L 458.91330139236845 141.96663646063456 L 458.9987595537906 142.58402855831503 L 459.02720897350224 142.89468114493855 L 459.1124476595746 143.51995493841315 L 459.59238997421943 143.8345987909496 L 460.1227074817992 144.15059595454227 L 460.1781624650427 144.46795812091773 L 460.5644136650987 144.7866971339733 L 461.2458726322013 145.10682499242967 L 461.32694698312963 145.42835385254074 L 462.1826221416168 145.7512960308639 L 462.23555644318833 146.07566400709072 L 462.7091372263028 146.40147042694076 L 462.839792977657 146.72872810511973 L 462.91800166517777 147.05745002834425 L 463.0480431070881 147.38764935843346 L 463.1777035304569 147.71933943547202 L 463.82036761106366 148.05253378104345 L 464.5543501528367 148.72349029153446 L 464.62958916926755 149.06128043726426 L 464.9292725098498 149.4006308201491 L 465.02871765470366 149.74155592042587 L 465.1279398281937 150.42818921050787 L 465.3996592301292 150.77392738866467 L 465.79193278675535 151.1213002687757 L 465.8894602550719 151.4703233825382 L 466.108114357631 151.8210124840619 L 466.3015707130988 152.17338355413625 L 466.3979826702693 152.52745280460005 L 466.44610999511866 152.88323668281697 L 466.49418503606336 153.24075187625994 L 466.614144640118 153.60001531720803 L 466.73377994098166 153.96104418755812 L 466.80540618403245 154.32385592375567 L 467.138137607464 155.05489904266392 L 467.185467099502 155.42316661712096 L 467.4448783295334 155.7932894516702 L 467.6091699506734 156.16528633387526 L 467.72614879446354 156.53917633813563 L 467.7728538867538 156.91497883155466 L 468.0288544845665 157.29271347996007 L 468.3064491481144 157.6724002540787 L 468.4216016222426 158.0540594358722 L 468.9019963566899 158.43771162503833 L 468.94747742013556 158.8233777456823 L 469.10629404579083 159.21107905316495 L 469.2193865449528 159.60083714113148 L 469.5793525019773 159.9926739487292 L 469.69124401756073 160.38661176801673 L 469.84741836460864 160.78267325157503 L 470.5324983116194 161.1808814203232 L 471.14229436968805 161.5812596715478 L 471.18553137443416 161.9838317871521 L 471.2503077765889 162.79565471329073 L 471.35805818491724 163.20495508818573 L 471.44407001148403 163.61654847434096 L 471.59418961067155 164.0304607087068 L 471.9141698250141 164.44671806739336 L 471.95665957464155 164.8653472756797 L 472.0838845904086 165.2863755183106 L 472.25295096925475 165.70983045008882 L 472.4423817638787 166.13574020677572 L 472.505345593572 166.56413341630906 L 472.7354495292755 166.99503921034966 L 472.7563088607186 167.4284872361685 L 473.0058569139499 167.86450766888805 L 473.19209877758954 168.30313122408637 L 473.2333796302446 168.74438917078243 L 473.2952287959201 169.63493616260973 L 473.33641360190546 170.08429063541644 L 473.3569916403314 170.53641038391737 L 473.68494549580095 171.44908332901377 L 473.7869346417446 172.3732367378064 L 473.8886892757639 172.8397095891475 L 473.9090121559545 173.30916311790452 L 474.0104867953212 173.78163566115825 L 474.1521615085348 174.25716630040915 L 474.27323701726874 174.73579488097636 L 474.5944948407629 175.21756203203222 L 474.67444621000317 175.70250918729897 L 474.71436779217584 176.1906786064322 L 474.7941030765174 176.68211339711968 L 474.9134372724381 177.1768575379249 L 475.19063862255393 178.17645428102912 L 475.54450780053367 178.6813994114521 L 475.73988591408965 179.18983899964047 L 475.7983315367219 179.70182174942568 L 475.83725244585986 180.21739738999923 L 475.9732066874692 180.7366167048998 L 476.26313830440665 181.25953156202962 L 476.4745540286473 181.7861949447489 L 476.5703192052479 182.3166609840914 L 476.6658775901167 182.85098499215258 L 476.9133679838983 183.3892234966994 L 477.17835722382495 183.93143427705888 L 477.44176913750493 184.4776764013397 L 477.61028114038 185.02801026504807 L 477.79676717630997 185.58249763116163 L 478.14894006989255 186.14120167172598 L 478.2227259491582 186.7041870110461 L 478.3882957276392 187.27151977054405 L 478.44334827984056 187.84326761536363 L 478.5532483466821 188.41949980280225 L 479.31500034197217 189.00028723265632 L 479.35094922358945 189.5857024995737 L 479.83342237038926 190.1758199475081 L 479.90445460207246 190.7707157263781 L 479.92219485921015 191.37046785103917 L 480.0638614734724 191.97515626268267 L 480.13452507465445 192.58486289278204 L 480.1698146066978 193.1996717297153 L 480.1874488252366 193.81966888819824 L 480.5736343615362 194.44494268167284 L 480.782869128809 195.07558369780202 L 480.8871166937138 195.7116848772331 L 481.0257325340269 196.35334159580054 L 481.5246062542802 197.00065175035053 L 481.6271230665462 197.65371584837948 L 481.8144559532676 198.31263710169316 L 482.0348317854023 198.9775215243032 L 482.2541156039783 199.64847803479415 L 482.40529344602686 200.32561856340885 L 482.95523512620974 201.0090581641133 L 483.1205437638521 201.69891513192442 L 483.25234749743674 202.39531112579795 L 483.2687953960975 203.09837129739594 L 483.30167286479946 203.80822442607666 L 483.36735461464906 204.52500306046778 L 483.7594109626983 205.24884366701542 L 483.7919260786632 205.97988678592367 L 483.8893283281922 206.71827719492984 L 484.3731495195914 207.46416408139538 L 484.45327460184177 208.21770122321982 L 484.6927830567962 208.97904717913195 L 484.77233201015525 209.74836548894206 L 484.80411159560526 210.52582488439123 L 485.5444365066693 211.31159951127637 L 485.6536456210972 212.1058691635829 L 485.68479878735195 212.90881953041173 L 485.8247172729761 213.72064245655025 L 485.8557502832501 214.54153621760065 L 486.04149272104644 215.371705810653 L 486.27257977795256 216.21136326157017 L 486.3033004114926 217.06072795003553 L 486.31865273457373 217.9200269536093 L 486.3493414118349 218.7894954121478 L 486.3646777733946 219.66937691404218 L 486.51774977256594 220.55992390586954 L 487.1247973003189 221.46139812717718 L 487.4551576938807 222.37407107227358 L 487.5895975061522 223.2982244810662 L 488.4316943691045 224.2341508611642 L 488.73794521653065 225.1821540436689 L 489.042091230508 226.14254977529197 L 489.41577966142677 227.11566634969194 L 489.501569163262 228.10184528118464 L 489.8147153906365 229.10144202428887 L 490.21008687297524 230.11482674290022 L 491.64843828899313 231.14238513325898 L 492.16254272336386 232.1845193052893 L 492.39061726314765 233.24164872735116 L 492.51088840392686 234.31421123995915 L 492.55090625518795 235.40266414459933 L 492.81677110314865 236.50748537442126 L 493.1205540090476 237.62917475430584 L 493.2125972738036 238.76825535862338 L 493.76087242134685 239.92527497591607 L 493.86453998462645 241.1008076907678 L 493.89041897415774 243.5098506360418 L 494.0969078683127 244.74465663145793 L 494.96389290657487 246.0005714410616 L 495.1403005979603 247.27832933906018 L 495.6901905078492 248.57870359163917 L 496.28237871481963 249.90250926756283 L 496.4047600727868 251.25060630666837 L 496.59986899545413 252.623902875184 L 496.7335091187647 254.02335904065563 L 496.90301493250035 255.44999080372753 L 497.0357440788214 256.9048745291834 L 497.0959441572621 258.3891518246551 L 497.25208217264935 259.9040349223917 L 499.0609786134993 261.450812627651 L 499.14147012480595 263.03085690684264 L 499.58726228744393 264.6456301998101 L 500.24203905649813 266.2966935539128 L 500.34277961790815 267.9857156932953 L 500.65473609189314 269.71448315540755 L 501.30496100856806 271.48491164912923 L 501.5232256721809 273.2990588155332 L 502.42836020888285 275.15913860442396 L 502.4923097443429 277.06753751855166 L 502.5029590214577 279.02683302444433 L 503.2316383865081 281.03981448615997 L 503.4197717060143 283.109507048549 L 503.61749298635374 285.2391989832189 L 504.24637656264457 287.432473117681 L 504.5219067765308 289.69324310188307 L 505.4580353012106 292.02579543402754 L 505.5078081900897 294.4348383793014 L 505.9828009882999 296.92555918432134 L 506.2868795860282 299.5036913348988 L 506.3357294318511 302.1755940499281 L 506.40402874997505 304.94834678391527 L 507.3397688720899 307.82986227244294 L 508.3588611672344 310.8290226656513 L 508.795129898168 313.95584465010216 L 508.94267100866426 317.22168129717227 L 509.30025500396164 320.639470898667 L 510.2846001936719 324.2240465587928 L 514.3600557658741 327.9925252618111 L 514.5388891390108 331.9648022294194 L 514.8219156824298 336.1641867264788 L 515.2949578132085 340.6182308451431 L 515.5732049311563 345.35982612256146 L 515.8339594285908 350.4286790781589 L 515.8812047044348 355.8733345271754 L 516.9080402534835 361.7540104089113 L 519.4263671408402 368.1466690404324 L 524.5319591538515 375.1490343020529 L 525.1426220111427 382.88978997267964 L 525.770155840212 391.5432185884028 L 531.8802808755661 401.3536668214185 L 532.4900769336348 412.67899815217106 L 534.2498320860843 426.0740220453126 L 536.9852025314262 442.46820633166243 L 537.3258370435922 463.6039858954308 L 538.8738879127973 493.3931940749222 L 539.8918829889761 544.3181818181819" stroke-linejoin="bevel" stroke-miterlimit="10"/><path fill="none" stroke="none"/></g></g></g><g clip-path="url(#MvNpqLHDIWOb)"><g><g/><g><path fill="#ffffff" stroke="#e5e5e5" paint-order="fill stroke markers" d=" M 123 475 L 255 475 L 255 560 L 123 560 L 123 475 Z" fill-opacity="0.95" stroke-linejoin="bevel" stroke-miterlimit="10" stroke-opacity="0.5"/><text fill="#444444" stroke="none" font-family="helvetica" font-size="22pt" font-style="normal" font-weight="normal" text-decoration="normal" x="158" y="500.5" text-anchor="start" dominant-baseline="central">male</text><g><path fill="none" stroke="blue" paint-order="fill stroke markers" d=" M 133 495 L 153 495" stroke-linejoin="bevel" stroke-miterlimit="10"/></g><text fill="#444444" stroke="none" font-family="helvetica" font-size="22pt" font-style="normal" font-weight="normal" text-decoration="normal" x="158" y="534.5" text-anchor="start" dominant-baseline="central">female</text><g><path fill="none" stroke="red" paint-order="fill stroke markers" d=" M 133 529 L 153 529" stroke-linejoin="bevel" stroke-miterlimit="10"/></g></g></g></g><g/><g/><g><g fill="#444444"><path fill="none" stroke="black" paint-order="fill stroke markers" d=" M 113 570 L 570 570" stroke-linejoin="bevel" stroke-miterlimit="10"/><path fill="none" stroke="black" paint-order="fill stroke markers" d=" M 134 576 L 134 568" stroke-linejoin="bevel" stroke-miterlimit="10"/><path fill="none" stroke="black" paint-order="fill stroke markers" d=" M 236 576 L 236 568" stroke-linejoin="bevel" stroke-miterlimit="10"/><path fill="none" stroke="black" paint-order="fill stroke markers" d=" M 338 576 L 338 568" stroke-linejoin="bevel" stroke-miterlimit="10"/><path fill="none" stroke="black" paint-order="fill stroke markers" d=" M 439 576 L 439 568" stroke-linejoin="bevel" stroke-miterlimit="10"/><path fill="none" stroke="black" paint-order="fill stroke markers" d=" M 541 576 L 541 568" stroke-linejoin="bevel" stroke-miterlimit="10"/><path fill="none" stroke="black" paint-order="fill stroke markers" d=" M 118 574 L 118 570" stroke-linejoin="bevel" stroke-miterlimit="10"/><path fill="none" stroke="black" paint-order="fill stroke markers" d=" M 124 574 L 124 570" stroke-linejoin="bevel" stroke-miterlimit="10"/><path fill="none" stroke="black" paint-order="fill stroke markers" d=" M 129 574 L 129 570" stroke-linejoin="bevel" stroke-miterlimit="10"/><path fill="none" stroke="black" paint-order="fill stroke markers" d=" M 134 574 L 134 570" stroke-linejoin="bevel" stroke-miterlimit="10"/><path fill="none" stroke="black" paint-order="fill stroke markers" d=" M 134 574 L 134 570" stroke-linejoin="bevel" stroke-miterlimit="10"/><path fill="none" stroke="black" paint-order="fill stroke markers" d=" M 164 574 L 164 570" stroke-linejoin="bevel" stroke-miterlimit="10"/><path fill="none" stroke="black" paint-order="fill stroke markers" d=" M 182 574 L 182 570" stroke-linejoin="bevel" stroke-miterlimit="10"/><path fill="none" stroke="black" paint-order="fill stroke markers" d=" M 195 574 L 195 570" stroke-linejoin="bevel" stroke-miterlimit="10"/><path fill="none" stroke="black" paint-order="fill stroke markers" d=" M 205 574 L 205 570" stroke-linejoin="bevel" stroke-miterlimit="10"/><path fill="none" stroke="black" paint-order="fill stroke markers" d=" M 213 574 L 213 570" stroke-linejoin="bevel" stroke-miterlimit="10"/><path fill="none" stroke="black" paint-order="fill stroke markers" d=" M 220 574 L 220 570" stroke-linejoin="bevel" stroke-miterlimit="10"/><path fill="none" stroke="black" paint-order="fill stroke markers" d=" M 226 574 L 226 570" stroke-linejoin="bevel" stroke-miterlimit="10"/><path fill="none" stroke="black" paint-order="fill stroke markers" d=" M 231 574 L 231 570" stroke-linejoin="bevel" stroke-miterlimit="10"/><path fill="none" stroke="black" paint-order="fill stroke markers" d=" M 236 574 L 236 570" stroke-linejoin="bevel" stroke-miterlimit="10"/><path fill="none" stroke="black" paint-order="fill stroke markers" d=" M 236 574 L 236 570" stroke-linejoin="bevel" stroke-miterlimit="10"/><path fill="none" stroke="black" paint-order="fill stroke markers" d=" M 266 574 L 266 570" stroke-linejoin="bevel" stroke-miterlimit="10"/><path fill="none" stroke="black" paint-order="fill stroke markers" d=" M 284 574 L 284 570" stroke-linejoin="bevel" stroke-miterlimit="10"/><path fill="none" stroke="black" paint-order="fill stroke markers" d=" M 297 574 L 297 570" stroke-linejoin="bevel" stroke-miterlimit="10"/><path fill="none" stroke="black" paint-order="fill stroke markers" d=" M 307 574 L 307 570" stroke-linejoin="bevel" stroke-miterlimit="10"/><path fill="none" stroke="black" paint-order="fill stroke markers" d=" M 315 574 L 315 570" stroke-linejoin="bevel" stroke-miterlimit="10"/><path fill="none" stroke="black" paint-order="fill stroke markers" d=" M 322 574 L 322 570" stroke-linejoin="bevel" stroke-miterlimit="10"/><path fill="none" stroke="black" paint-order="fill stroke markers" d=" M 328 574 L 328 570" stroke-linejoin="bevel" stroke-miterlimit="10"/><path fill="none" stroke="black" paint-order="fill stroke markers" d=" M 333 574 L 333 570" stroke-linejoin="bevel" stroke-miterlimit="10"/><path fill="none" stroke="black" paint-order="fill stroke markers" d=" M 338 574 L 338 570" stroke-linejoin="bevel" stroke-miterlimit="10"/><path fill="none" stroke="black" paint-order="fill stroke markers" d=" M 338 574 L 338 570" stroke-linejoin="bevel" stroke-miterlimit="10"/><path fill="none" stroke="black" paint-order="fill stroke markers" d=" M 368 574 L 368 570" stroke-linejoin="bevel" stroke-miterlimit="10"/><path fill="none" stroke="black" paint-order="fill stroke markers" d=" M 386 574 L 386 570" stroke-linejoin="bevel" stroke-miterlimit="10"/><path fill="none" stroke="black" paint-order="fill stroke markers" d=" M 399 574 L 399 570" stroke-linejoin="bevel" stroke-miterlimit="10"/><path fill="none" stroke="black" paint-order="fill stroke markers" d=" M 409 574 L 409 570" stroke-linejoin="bevel" stroke-miterlimit="10"/><path fill="none" stroke="black" paint-order="fill stroke markers" d=" M 417 574 L 417 570" stroke-linejoin="bevel" stroke-miterlimit="10"/><path fill="none" stroke="black" paint-order="fill stroke markers" d=" M 424 574 L 424 570" stroke-linejoin="bevel" stroke-miterlimit="10"/><path fill="none" stroke="black" paint-order="fill stroke markers" d=" M 430 574 L 430 570" stroke-linejoin="bevel" stroke-miterlimit="10"/><path fill="none" stroke="black" paint-order="fill stroke markers" d=" M 435 574 L 435 570" stroke-linejoin="bevel" stroke-miterlimit="10"/><path fill="none" stroke="black" paint-order="fill stroke markers" d=" M 439 574 L 439 570" stroke-linejoin="bevel" stroke-miterlimit="10"/><path fill="none" stroke="black" paint-order="fill stroke markers" d=" M 439 574 L 439 570" stroke-linejoin="bevel" stroke-miterlimit="10"/><path fill="none" stroke="black" paint-order="fill stroke markers" d=" M 470 574 L 470 570" stroke-linejoin="bevel" stroke-miterlimit="10"/><path fill="none" stroke="black" paint-order="fill stroke markers" d=" M 488 574 L 488 570" stroke-linejoin="bevel" stroke-miterlimit="10"/><path fill="none" stroke="black" paint-order="fill stroke markers" d=" M 501 574 L 501 570" stroke-linejoin="bevel" stroke-miterlimit="10"/><path fill="none" stroke="black" paint-order="fill stroke markers" d=" M 511 574 L 511 570" stroke-linejoin="bevel" stroke-miterlimit="10"/><path fill="none" stroke="black" paint-order="fill stroke markers" d=" M 519 574 L 519 570" stroke-linejoin="bevel" stroke-miterlimit="10"/><path fill="none" stroke="black" paint-order="fill stroke markers" d=" M 526 574 L 526 570" stroke-linejoin="bevel" stroke-miterlimit="10"/><path fill="none" stroke="black" paint-order="fill stroke markers" d=" M 531 574 L 531 570" stroke-linejoin="bevel" stroke-miterlimit="10"/><path fill="none" stroke="black" paint-order="fill stroke markers" d=" M 537 574 L 537 570" stroke-linejoin="bevel" stroke-miterlimit="10"/><path fill="none" stroke="black" paint-order="fill stroke markers" d=" M 541 574 L 541 570" stroke-linejoin="bevel" stroke-miterlimit="10"/><path fill="" stroke="black" paint-order="fill stroke markers" d=" M 541 574 L 541 570" stroke-linejoin="bevel" stroke-miterlimit="10"/><g transform="translate(134,581) rotate(0,0,0)"><text fill="" stroke="none" font-family="helvetica" font-size="26px" font-style="normal" font-weight="normal" text-decoration="normal" x="0" y="0" text-anchor="middle" dominant-baseline="hanging">10^0</text><g transform="rotate(0,0,0) translate(-134,-581) translate(236,581) rotate(0,0,0)"><text fill="" stroke="none" font-family="helvetica" font-size="26px" font-style="normal" font-weight="normal" text-decoration="normal" x="0" y="0" text-anchor="middle" dominant-baseline="hanging">10^1</text><g transform="rotate(0,0,0) translate(-236,-581) translate(338,581) rotate(0,0,0)"><text fill="" stroke="none" font-family="helvetica" font-size="26px" font-style="normal" font-weight="normal" text-decoration="normal" x="0" y="0" text-anchor="middle" dominant-baseline="hanging">10^2</text><g transform="rotate(0,0,0) translate(-338,-581) translate(439,581) rotate(0,0,0)"><text fill="" stroke="none" font-family="helvetica" font-size="26px" font-style="normal" font-weight="normal" text-decoration="normal" x="0" y="0" text-anchor="middle" dominant-baseline="hanging">10^3</text><g transform="rotate(0,0,0) translate(-439,-581) translate(541,581) rotate(0,0,0)"><text fill="" stroke="none" font-family="helvetica" font-size="26px" font-style="normal" font-weight="normal" text-decoration="normal" x="0" y="0" text-anchor="middle" dominant-baseline="hanging">10^4</text><g transform="rotate(0,0,0) translate(-541,-581)"/></g></g></g></g></g></g></g><g><g fill="#444444"><path fill="none" stroke="black" paint-order="fill stroke markers" d=" M 113 570 L 113 5" stroke-linejoin="bevel" stroke-miterlimit="10"/><path fill="none" stroke="black" paint-order="fill stroke markers" d=" M 107 537 L 115 537" stroke-linejoin="bevel" stroke-miterlimit="10"/><path fill="none" stroke="black" paint-order="fill stroke markers" d=" M 107 368 L 115 368" stroke-linejoin="bevel" stroke-miterlimit="10"/><path fill="none" stroke="black" paint-order="fill stroke markers" d=" M 107 199 L 115 199" stroke-linejoin="bevel" stroke-miterlimit="10"/><path fill="none" stroke="black" paint-order="fill stroke markers" d=" M 107 29 L 115 29" stroke-linejoin="bevel" stroke-miterlimit="10"/><path fill="none" stroke="black" paint-order="fill stroke markers" d=" M 109 563 L 113 563" stroke-linejoin="bevel" stroke-miterlimit="10"/><path fill="none" stroke="black" paint-order="fill stroke markers" d=" M 109 553 L 113 553" stroke-linejoin="bevel" stroke-miterlimit="10"/><path fill="none" stroke="black" paint-order="fill stroke markers" d=" M 109 545 L 113 545" stroke-linejoin="bevel" stroke-miterlimit="10"/><path fill="none" stroke="black" paint-order="fill stroke markers" d=" M 109 537 L 113 537" stroke-linejoin="bevel" stroke-miterlimit="10"/><path fill="none" stroke="black" paint-order="fill stroke markers" d=" M 109 537 L 113 537" stroke-linejoin="bevel" stroke-miterlimit="10"/><path fill="none" stroke="black" paint-order="fill stroke markers" d=" M 109 486 L 113 486" stroke-linejoin="bevel" stroke-miterlimit="10"/><path fill="none" stroke="black" paint-order="fill stroke markers" d=" M 109 456 L 113 456" stroke-linejoin="bevel" stroke-miterlimit="10"/><path fill="none" stroke="black" paint-order="fill stroke markers" d=" M 109 435 L 113 435" stroke-linejoin="bevel" stroke-miterlimit="10"/><path fill="none" stroke="black" paint-order="fill stroke markers" d=" M 109 419 L 113 419" stroke-linejoin="bevel" stroke-miterlimit="10"/><path fill="none" stroke="black" paint-order="fill stroke markers" d=" M 109 405 L 113 405" stroke-linejoin="bevel" stroke-miterlimit="10"/><path fill="none" stroke="black" paint-order="fill stroke markers" d=" M 109 394 L 113 394" stroke-linejoin="bevel" stroke-miterlimit="10"/><path fill="none" stroke="black" paint-order="fill stroke markers" d=" M 109 384 L 113 384" stroke-linejoin="bevel" stroke-miterlimit="10"/><path fill="none" stroke="black" paint-order="fill stroke markers" d=" M 109 376 L 113 376" stroke-linejoin="bevel" stroke-miterlimit="10"/><path fill="none" stroke="black" paint-order="fill stroke markers" d=" M 109 368 L 113 368" stroke-linejoin="bevel" stroke-miterlimit="10"/><path fill="none" stroke="black" paint-order="fill stroke markers" d=" M 109 368 L 113 368" stroke-linejoin="bevel" stroke-miterlimit="10"/><path fill="none" stroke="black" paint-order="fill stroke markers" d=" M 109 317 L 113 317" stroke-linejoin="bevel" stroke-miterlimit="10"/><path fill="none" stroke="black" paint-order="fill stroke markers" d=" M 109 287 L 113 287" stroke-linejoin="bevel" stroke-miterlimit="10"/><path fill="none" stroke="black" paint-order="fill stroke markers" d=" M 109 266 L 113 266" stroke-linejoin="bevel" stroke-miterlimit="10"/><path fill="none" stroke="black" paint-order="fill stroke markers" d=" M 109 250 L 113 250" stroke-linejoin="bevel" stroke-miterlimit="10"/><path fill="none" stroke="black" paint-order="fill stroke markers" d=" M 109 236 L 113 236" stroke-linejoin="bevel" stroke-miterlimit="10"/><path fill="none" stroke="black" paint-order="fill stroke markers" d=" M 109 225 L 113 225" stroke-linejoin="bevel" stroke-miterlimit="10"/><path fill="none" stroke="black" paint-order="fill stroke markers" d=" M 109 215 L 113 215" stroke-linejoin="bevel" stroke-miterlimit="10"/><path fill="none" stroke="black" paint-order="fill stroke markers" d=" M 109 206 L 113 206" stroke-linejoin="bevel" stroke-miterlimit="10"/><path fill="none" stroke="black" paint-order="fill stroke markers" d=" M 109 199 L 113 199" stroke-linejoin="bevel" stroke-miterlimit="10"/><path fill="none" stroke="black" paint-order="fill stroke markers" d=" M 109 199 L 113 199" stroke-linejoin="bevel" stroke-miterlimit="10"/><path fill="none" stroke="black" paint-order="fill stroke markers" d=" M 109 148 L 113 148" stroke-linejoin="bevel" stroke-miterlimit="10"/><path fill="none" stroke="black" paint-order="fill stroke markers" d=" M 109 118 L 113 118" stroke-linejoin="bevel" stroke-miterlimit="10"/><path fill="none" stroke="black" paint-order="fill stroke markers" d=" M 109 97 L 113 97" stroke-linejoin="bevel" stroke-miterlimit="10"/><path fill="none" stroke="black" paint-order="fill stroke markers" d=" M 109 80 L 113 80" stroke-linejoin="bevel" stroke-miterlimit="10"/><path fill="none" stroke="black" paint-order="fill stroke markers" d=" M 109 67 L 113 67" stroke-linejoin="bevel" stroke-miterlimit="10"/><path fill="none" stroke="black" paint-order="fill stroke markers" d=" M 109 56 L 113 56" stroke-linejoin="bevel" stroke-miterlimit="10"/><path fill="none" stroke="black" paint-order="fill stroke markers" d=" M 109 46 L 113 46" stroke-linejoin="bevel" stroke-miterlimit="10"/><path fill="none" stroke="black" paint-order="fill stroke markers" d=" M 109 37 L 113 37" stroke-linejoin="bevel" stroke-miterlimit="10"/><path fill="none" stroke="black" paint-order="fill stroke markers" d=" M 109 29 L 113 29" stroke-linejoin="bevel" stroke-miterlimit="10"/><path fill="" stroke="black" paint-order="fill stroke markers" d=" M 109 29 L 113 29" stroke-linejoin="bevel" stroke-miterlimit="10"/><g transform="translate(102,537) rotate(0,0,0)"><text fill="" stroke="none" font-family="helvetica" font-size="26px" font-style="normal" font-weight="normal" text-decoration="normal" x="0" y="0" text-anchor="end" dominant-baseline="central">10^-3</text><g transform="rotate(0,0,0) translate(-102,-537) translate(102,368) rotate(0,0,0)"><text fill="" stroke="none" font-family="helvetica" font-size="26px" font-style="normal" font-weight="normal" text-decoration="normal" x="0" y="0" text-anchor="end" dominant-baseline="central">10^-2</text><g transform="rotate(0,0,0) translate(-102,-368) translate(102,199) rotate(0,0,0)"><text fill="" stroke="none" font-family="helvetica" font-size="26px" font-style="normal" font-weight="normal" text-decoration="normal" x="0" y="0" text-anchor="end" dominant-baseline="central">10^-1</text><g transform="rotate(0,0,0) translate(-102,-199) translate(102,29) rotate(0,0,0)"><text fill="" stroke="none" font-family="helvetica" font-size="26px" font-style="normal" font-weight="normal" text-decoration="normal" x="0" y="0" text-anchor="end" dominant-baseline="central">10^0</text><g transform="rotate(0,0,0) translate(-102,-29) translate(26,288) rotate(-90,0,0)"><text fill="" stroke="none" font-family="helvetica" font-size="26pt" font-style="italic" font-weight="normal" text-decoration="normal" x="0" y="0" text-anchor="middle" dominant-baseline="alphabetic">CCDF</text><g transform="rotate(90,0,0) translate(-26,-288)"/></g></g></g></g></g></g></g><g clip-path="url(#bXVnSrGDcgud)"><g/></g><g clip-path="url(#uipyAKgwVoeK)"><g/></g></g></g></svg>