<svg version="1.1" xmlns="http://www.w3.org/2000/svg" xmlns:xlink="http://www.w3.org/1999/xlink" width="600" height="600" style="width: 600px; height: 600px;"><defs><clipPath id="gOUXksrstIJP"><path fill="none" stroke="none" d=" M 113 5 L 570 5 L 570 570 L 113 570 L 113 5 Z"/></clipPath><clipPath id="KlrEeKgrgxuN"><path fill="none" stroke="none" d=" M 113 5 L 570 5 L 570 570 L 113 570 L 113 5 Z"/></clipPath><clipPath id="FnFLITErMqvb"><path fill="none" stroke="none" d=" M 113 5 L 570 5 L 570 570 L 113 570 L 113 5 Z"/></clipPath><clipPath id="EiPZsygWnSwd"><path fill="none" stroke="none" d=" M 113 5 L 570 5 L 570 570 L 113 570 L 113 5 Z"/></clipPath><clipPath id="cxuLtyogFAKI"><path fill="none" stroke="none" d=" M 113 5 L 570 5 L 570 570 L 113 570 L 113 5 Z"/></clipPath><clipPath id="IoTXyPvMeHKT"><path fill="none" stroke="none" d=" M 113 5 L 570 5 L 570 570 L 113 570 L 113 5 Z"/></clipPath><clipPath id="LZodKABMFglB"><path fill="none" stroke="none" d=" M 113 5 L 570 5 L 570 570 L 113 570 L 113 5 Z"/></clipPath><clipPath id="qQcgBWxDdghg"><path fill="none" stroke="none" d=" M 113 5 L 570 5 L 570 570 L 113 570 L 113 5 Z"/></clipPath></defs><g><g transform="scale(1,1) translate(0.5,0.5)"><rect fill="#FFFFFF" stroke="none" x="0" y="0" width="600" height="600"/><rect fill="#ffffff" stroke="none" x="0" y="0" width="600" height="600"/><rect fill="#FFFFFF" stroke="none" x="113" y="5" width="457" height="565"/><rect fill="#ffffff" stroke="none" x="113" y="5" width="457" height="565"/><g><rect fill="none" stroke="#e5e5e5" x="113" y="5" width="457" height="565" stroke-linejoin="bevel" stroke-miterlimit="10"/></g><g clip-path="url(#gOUXksrstIJP)"><g><g><path fill="none" stroke="#e5e5e5" paint-order="fill stroke markers" d=" M 134 570 L 134 5" stroke-linejoin="bevel" stroke-miterlimit="10"/><path fill="none" stroke="#e5e5e5" paint-order="fill stroke markers" d=" M 241 570 L 241 5" stroke-linejoin="bevel" stroke-miterlimit="10"/><path fill="none" stroke="#e5e5e5" paint-order="fill stroke markers" d=" M 349 570 L 349 5" stroke-linejoin="bevel" stroke-miterlimit="10"/><path fill="none" stroke="#e5e5e5" paint-order="fill stroke markers" d=" M 457 570 L 457 5" stroke-linejoin="bevel" stroke-miterlimit="10"/><path fill="none" stroke="#e5e5e5" paint-order="fill stroke markers" d=" M 564 570 L 564 5" stroke-linejoin="bevel" stroke-miterlimit="10"/></g></g></g><g clip-path="url(#KlrEeKgrgxuN)"><g><g><path fill="none" stroke="#e5e5e5" paint-order="fill stroke markers" d=" M 113 537 L 570 537" stroke-linejoin="bevel" stroke-miterlimit="10"/><path fill="none" stroke="#e5e5e5" paint-order="fill stroke markers" d=" M 113 368 L 570 368" stroke-linejoin="bevel" stroke-miterlimit="10"/><path fill="none" stroke="#e5e5e5" paint-order="fill stroke markers" d=" M 113 198 L 570 198" stroke-linejoin="bevel" stroke-miterlimit="10"/><path fill="none" stroke="#e5e5e5" paint-order="fill stroke markers" d=" M 113 29 L 570 29" stroke-linejoin="bevel" stroke-miterlimit="10"/></g></g></g><g clip-path="url(#FnFLITErMqvb)"><g><g fill="#444444"><path fill="" stroke="none" d=""/><g transform="translate(138.77272727272725,362.7281270877594) rotate(0,0,0)"><path fill="none" stroke="none"/><text fill="" stroke="none" font-family="helvetica" font-size="20pt" font-style="normal" font-weight="normal" text-decoration="normal" x="0" y="0" text-anchor="start" dominant-baseline="text-after-edge">Female mean: 877.98(±1011.8)</text></g></g><g fill="#444444"><path fill="" stroke="none" d=""/><g transform="translate(138.77272727272725,328.18062650421564) rotate(0,0,0)"><path fill="none" stroke="none"/><text fill="" stroke="none" font-family="helvetica" font-size="20pt" font-style="normal" font-weight="normal" text-decoration="normal" x="0" y="0" text-anchor="start" dominant-baseline="text-after-edge">Male mean: 638.67(±886.0)</text></g></g></g></g><g clip-path="url(#EiPZsygWnSwd)"><g><g><path fill="none" stroke="none"/><path fill="none" stroke="blue" paint-order="fill stroke markers" d=" M 133.77272727272725 30.68181818181813 L 133.77272727272725 31.27222097688525 L 166.15742130082475 31.86740441341624 L 185.10125290459018 31.96707189011238 L 198.54211532892225 32.769314536229786 L 208.96765818089784 32.9712507973079 L 217.48594693268765 33.37679528977219 L 224.68805745183624 33.78458969384326 L 230.92680935701975 34.194659113331454 L 236.42977853645306 34.50371949633893 L 241.3523522089953 34.60702907455607 L 245.8053617534222 34.917831875048364 L 249.87064096078515 35.22995443661284 L 253.61033531414586 35.543408015258706 L 257.07275147993374 35.64819028931288 L 260.2961838127607 35.96343631706145 L 263.31150338511725 36.17435397340637 L 268.81447256455056 36.70431122798493 L 271.34056004913475 37.02412936618032 L 276.0165830836992 37.34534511174866 L 278.1900557815197 37.45272972223074 L 280.2668971367758 37.77582805696807 L 282.2553349888826 38.10035287904361 L 284.1625890890684 38.317501494287626 L 285.99502934224336 38.42631684029152 L 287.75830416831593 38.64443199381401 L 289.45744550803124 38.97282309610148 L 291.09695539424627 39.302687910589725 L 292.6808778408582 39.63403972400749 L 294.2128589397357 39.96689200358344 L 295.69619741321475 40.52501733355609 L 297.1338873852851 40.86193810435361 L 298.5286547659351 41.0874129829989 L 299.88298836000683 41.200410319320554 L 301.19916659264806 41.426927456369526 L 302.4792805722635 41.65414480206539 L 303.7252540772323 41.7680174085757 L 304.9388609460088 42.11069752947594 L 306.1217402651903 42.34004171803599 L 307.2754096819043 42.685405326617 L 308.4012771117967 42.80088807276172 L 309.5006510692042 43.03239929659071 L 310.5747498096172 43.14842892258059 L 311.6247094446236 43.381039093922254 L 313.65638768618896 43.497620804009784 L 314.6400290169802 43.96580552571629 L 316.5472831171659 44.08331914435337 L 317.47248636970045 44.20102093539856 L 318.37972337034086 44.67372193942049 L 322.6690856809977 45.149482518160426 L 323.4816494223438 45.388522575338015 L 324.2803225028249 45.74854657411527 L 325.0655718689557 46.11034264237048 L 327.3451087155621 46.35253315077546 L 330.22116965285187 46.595524290416165 L 331.59542276863874 46.71732175457487 L 332.26768238810433 46.83932137229385 L 334.22830169966016 46.961523815738246 L 334.8639746003611 47.3293548725818 L 336.1099481053298 47.45237540807841 L 336.7206919325312 47.946526867829334 L 337.3235549741063 48.194853971591215 L 337.9187380226542 48.44402286375498 L 338.50643429328784 48.568924767727935 L 339.08682980017886 48.94490897779406 L 340.2264286739541 49.070665642859694 L 340.7859711398942 49.19663782930775 L 341.33889164600816 49.322826277126296 L 341.8853450973017 49.70269664610851 L 342.4254810261092 49.82975761603893 L 342.95944383771473 50.34020933966963 L 343.48737304209607 50.596770691944585 L 344.5256654932549 50.72538796500828 L 345.54138457159866 50.85423068476587 L 346.53549095730534 50.98329964295351 L 347.0247230450777 51.37187192830561 L 347.50888527906875 51.762509266498796 L 348.46241301714804 51.89318441700709 L 348.93197714526343 52.02409229275031 L 349.39686891600957 52.155233724149525 L 349.85718039779795 52.28660954607801 L 350.76441739843835 52.41822059789388 L 351.21151399186977 52.68215177123557 L 351.6543726391351 53.079834000809456 L 352.0930729278489 53.21287431369262 L 352.52769222451093 53.3461558602761 L 352.95830575639366 53.61344616499866 L 353.3849866896903 54.016212941512094 L 354.22683356422624 54.28595545634403 L 354.6421361874106 54.42119882991915 L 355.4618280449464 54.6924343878801 L 355.86634345044126 54.828428418904764 L 356.26738657787166 55.10117364019766 L 357.05929091694657 55.23792670811133 L 357.4502658970532 55.37493467471472 L 357.8379962341172 55.51219849201118 L 358.22253533881246 55.787497513453786 L 358.9822469959307 56.06383149605688 L 359.35751999723897 56.20238903529685 L 360.09914251269424 56.75924588646319 L 360.4655854694097 56.89912176654491 L 361.18996025041395 57.03926433102083 L 361.9032754414801 57.17967459874342 L 362.25589022824374 57.320353594414996 L 362.60586368094937 57.602521897933684 L 363.29804282213007 57.744013284841 L 363.6403244810235 57.88577755790925 L 363.98011679673624 58.02781577177217 L 364.3174557169342 58.312718271091626 L 364.65237641620183 58.885857648973285 L 364.9849133180519 59.02984349873947 L 365.31510011615785 59.31866411710058 L 365.64296979484084 59.46350111529625 L 366.61299572775766 59.608624070238704 L 367.2486686284585 59.754034113310695 L 367.56329094516764 59.899732382622915 L 367.87580874902875 60.191998186370654 L 368.18625000730077 60.338568031149975 L 368.4946421334273 60.48543072296661 L 368.8010120015634 60.6325874343824 L 369.1053859606287 60.780039345016064 L 369.7082490022038 60.92778764159897 L 370.006788276594 61.075833518033676 L 370.3034320507518 61.224178175450845 L 371.18222731588486 61.37282282226829 L 371.47152382827636 61.521768674249756 L 372.32881829345564 61.671016954564664 L 372.8917315784496 61.820568893848304 L 373.44794335556446 62.120588709559456 L 373.9976113128606 62.27105908513852 L 375.0779192681774 62.42183811811441 L 375.3441378658122 62.572927077378154 L 375.87206707019357 62.72432723966148 L 376.1338113820789 62.87603988960154 L 376.39409750081865 63.028066319806214 L 376.6529415838024 63.333065731693466 L 376.91035952135235 63.48604133904456 L 377.16636694257784 63.63933597813315 L 377.67421148043405 63.94688769377029 L 377.9260785996962 64.2557316473011 L 378.42577574238396 64.41064161570444 L 378.673634347425 64.72144441619679 L 378.92018498540284 64.8773400267051 L 379.1654413883504 65.03356697776127 L 379.4094170731751 65.19012668082831 L 380.1337918541794 65.50425003411453 L 380.3727756871403 65.81972156042906 L 380.61054331212586 66.13655288200687 L 381.781562944107 66.45475577202211 L 382.0122855733553 66.77434215721286 L 382.24187442589545 66.93465793025388 L 382.9239484005016 67.09532412056382 L 383.14911142653585 67.41771390404733 L 383.37319452982973 67.74152391142479 L 383.5962080199672 67.90396542019198 L 383.8181620596013 68.06676671111069 L 384.47776695594644 68.39345503909908 L 384.6955819773748 68.72160180195687 L 384.9123862526085 68.88622617715623 L 385.1281891188448 69.05122007988268 L 385.34299978449116 69.21658517280429 L 385.9815687792562 69.7149243887365 L 386.19250023222395 69.88179109559064 L 386.4024836754627 70.21666526386832 L 386.8196403527942 70.38467620056241 L 387.0268302155081 70.55307204237329 L 387.2331053297128 70.72185455695023 L 387.4384737371927 71.23053999751795 L 388.0492175643941 71.40088712544338 L 388.25103747853876 71.57162994972407 L 388.45198934735976 71.74277031295321 L 388.6520806059692 72.25859525649395 L 388.85131859435955 72.43134446127465 L 389.24726365451716 72.60450061391009 L 389.6398814059351 72.77806563623471 L 389.8349599251507 73.30123334515815 L 390.22269026221466 73.4764533394582 L 390.4153554320418 73.65209201992513 L 390.6072293669099 74.00463347654693 L 391.1781680905534 74.18154030755119 L 391.3669410240283 74.35887393470125 L 392.1144967717571 74.53663642231027 L 392.2995316174708 74.71482984970481 L 392.667417277871 74.89345631137053 L 392.85027949750724 75.07251791709979 L 393.2138707291646 75.25201679214166 L 393.3946107513725 75.61233492935037 L 393.7540066579721 75.79315852066838 L 393.9326731757982 76.15614569192388 L 394.11065905762126 76.33831369793143 L 394.2879694695776 76.5209342957233 L 394.6405842563413 76.70400973980753 L 394.99055770904687 77.0715342694927 L 395.337929104584 77.25598794922684 L 395.51065106645393 77.44090566386433 L 395.8541911251178 77.81214257823962 L 396.02501850912097 77.99846651273964 L 396.53378474310324 78.18526395202946 L 397.0370704442993 78.3725373088763 L 397.53499243026 78.74852151894231 L 397.69979414425535 78.9372372908993 L 397.8640165891683 79.12643881827466 L 398.35324867694055 79.31612860819746 L 398.8374109109316 79.50630918725682 L 399.7909386490109 79.69698310170423 L 400.26050277712625 79.88815291765775 L 400.4159812483132 80.07982122130966 L 400.8793361615248 80.27199061913586 L 401.0327722188855 80.46466373810921 L 401.49007998872617 80.65784322591429 L 401.6415265961313 80.85153175116619 L 401.9429549802201 81.04573200363154 L 402.0929430303013 81.2404466944526 L 402.24245111780175 81.43567855637446 L 402.3914823046915 81.63143034397524 L 402.6881260788492 81.82770483389868 L 402.83574464549224 82.02450482509158 L 403.1295898749412 82.41969262002368 L 404.000197130487 82.81701657557323 L 404.14373407126385 83.01648685484105 L 404.2868313882566 83.21649991104789 L 404.99581673014904 83.41705870614709 L 405.1363318359893 83.6181662264035 L 405.2764256065471 84.02203951061017 L 405.4161005610224 84.22481137106757 L 405.6942039861623 84.42814415024884 L 405.832637383662 84.83650493834818 L 405.97066181927346 85.04153924925976 L 406.10827970220316 85.24714708346625 L 406.5187178100543 85.45333165849587 L 406.79035367680933 85.66009621902919 L 406.9255816654969 86.0753784129326 L 407.1948690823042 86.28390267420383 L 407.5959122097346 86.49302017741581 L 407.72883189390967 86.70273430769328 L 408.12533699623094 86.91304847921845 L 408.25676109829107 87.33549075002935 L 408.38781654880944 87.54762582598937 L 408.77879152891614 87.76037489723649 L 409.16652186598003 87.97374152833726 L 409.67854055174183 88.1877293149899 L 409.93246094563005 88.40234188438768 L 410.05890550853155 88.61758289558833 L 410.18500879014664 89.04996504120061 L 410.68604562910184 89.26711365644474 L 410.9345634356649 89.4849056759333 L 411.3048790135004 89.70334492377134 L 411.5501354164479 89.92243525825853 L 411.6722825120992 90.14218057229834 L 411.7941111012727 90.36258479381286 L 412.15770233293006 90.58365188616443 L 412.2782733352637 90.80538584858266 L 412.5184858822768 91.02779071659927 L 412.63813060188613 91.25087056248805 L 413.3496352782372 91.47462949571297 L 414.0504669811544 91.69907166338191 L 414.1662569722045 91.92420125070782 L 414.2817607083494 92.15002248147755 L 414.39697960145276 92.37653961852664 L 414.96885011288634 92.83167886095464 L 415.3086424285991 93.06030969163294 L 415.4213595821246 93.28965388019293 L 416.31343894991477 93.5197158921095 L 416.4237606953301 93.75050023491866 L 416.6436257480208 93.9820114587477 L 416.8624609840439 94.21425415685286 L 416.9714954267037 94.44723296616672 L 417.0802760054723 94.91541768787323 L 417.4051063114327 95.15063309755556 L 417.9415213596206 95.38660361418181 L 418.3662628073536 95.62333410157743 L 418.5771942603214 95.8608294707135 L 418.89181657703057 96.33813473749501 L 419.5147756391637 96.57795469836122 L 419.72059640142544 96.81855966868227 L 420.12953763342625 97.05995480452748 L 420.2312161011414 97.30214531293245 L 420.5349305236844 97.54513645257322 L 421.13649983196086 97.78893353445085 L 421.236012622457 98.27896703473886 L 421.3353139084569 98.52521434310523 L 421.5332855498992 98.77228937507266 L 422.41392133282756 99.02019771395271 L 422.7038161872393 99.26894499974054 L 422.99192339500746 99.51853692988493 L 423.1830125672133 99.76897926007098 L 423.3733233699622 100.02027780501669 L 423.5628621186509 100.27243843928335 L 423.65734392531857 100.52546709809866 L 423.7516350521257 100.77936977819593 L 423.9396483339145 101.03415253866632 L 424.960411104843 101.28982150182657 L 425.1436318787692 101.80384284692292 L 425.23497352560474 102.06220779764243 L 425.3261369447235 102.3214840904626 L 425.4171228302945 102.58167817738308 L 426.22811934967996 103.10484588630652 L 426.6726634976751 103.6317639333925 L 427.11301772332286 103.89664621211631 L 427.46233701394175 104.16248647584968 L 427.54926027152595 104.4292916791344 L 427.6360221116403 104.69706885251895 L 427.7226231326816 104.96582510366909 L 427.8953450945514 105.23556761850108 L 427.9814672156652 105.77804058106182 L 428.7495048529312 106.05078580235465 L 429.25460423155903 106.32454683687172 L 429.8370670955812 106.5993312795045 L 430.4123578510358 106.87514681064107 L 430.81898563511584 107.15200119745396 L 430.9806509779926 107.42990229521246 L 431.14175885306304 107.70885804862019 L 431.2221049390291 108.26996575657199 L 431.3023130917325 108.55213406009074 L 431.621775789207 109.11974114934588 L 431.7806917161433 109.4051968587911 L 432.25422182511716 109.69176545880612 L 432.48919920629197 110.26827627925758 L 432.6451968052238 110.55823623239576 L 432.95563806349577 110.84934454477991 L 433.0329271422877 111.14161034852765 L 433.4939957276076 111.43504288512361 L 433.79886622193777 111.72965150717306 L 433.87477401682366 112.32243498442534 L 433.95055868465664 112.62062911672166 L 434.0262206242288 112.92003789242011 L 434.85051403737384 113.22067124729557 L 434.9988355507502 113.5225392395352 L 435.0728201069468 113.82565205175848 L 436.24091188447136 114.43565350120156 L 437.0982063496507 115.05075962461467 L 437.38051075824654 115.36025377786143 L 437.5210258640868 115.67105657835378 L 437.5911252582948 115.98317913991832 L 437.8704757914099 116.29663271856413 L 438.0788980142598 116.61142871491779 L 438.1481659846571 116.92757867671185 L 438.56163096157576 117.24509430132605 L 438.9034118381518 117.56398743838486 L 439.24271062401033 117.88427009241082 L 439.31027569359435 118.2059544255361 L 439.5795631104017 118.52905276027354 L 440.11352592200717 118.85357758234898 L 440.3121990951185 119.17954154359694 L 440.44418007970614 119.50695746491971 L 440.83790070301137 119.83583833931323 L 440.9031994382739 120.49804779839889 L 441.033523755621 120.83140325774764 L 441.16348555701364 121.16627742602532 L 441.2930868536398 121.50268420453028 L 441.357752936593 121.8406376863042 L 441.55121589407753 122.52124211188107 L 441.9995382680307 122.86392223278142 L 442.1268441709787 123.208207418651 L 442.5697028182441 123.55411277606714 L 442.9459832747275 123.90165362588596 L 443.2572518309388 124.25084550731515 L 443.44302240362 124.60170418208219 L 443.56646035514456 124.95424563870392 L 443.87363593550265 125.30848609685825 L 444.30031686879926 125.66444201186181 L 444.4215134023247 126.02213007925678 L 444.66296736336125 126.38156723950965 L 444.9630405687553 126.74277068282544 L 445.082532289835 127.47054645788029 L 445.2611988076611 127.8371544637368 L 445.32060280482466 128.20560011138383 L 446.0276211512993 128.57590191622103 L 446.0860592295558 128.94807867489664 L 446.1444243058219 129.3221494710333 L 446.31908334090974 130.07605098043166 L 446.3771582240554 130.83776507981474 L 446.7240997005456 131.22160278129292 L 447.5803467100314 131.6074553880713 L 447.63687573988585 131.99534416578854 L 447.91849948273085 132.3852907185315 L 448.08666248662007 132.77731699605573 L 448.19843583532446 133.17144530119924 L 448.53216037904787 133.56769829749646 L 448.9185165822762 133.96609901699804 L 449.0283197761182 134.36667086830408 L 449.19254222103115 134.76943764481751 L 450.3262153877181 135.58165312221013 L 450.5390687739827 135.99115141141675 L 451.7445068801761 136.40294382065287 L 451.84787249197285 137.23351483636083 L 452.10529042952294 137.6523464698504 L 452.4123314303446 138.07357829772042 L 452.66666650302494 138.49723798814637 L 453.1712204073528 138.92335369049425 L 453.3215301481761 139.35195404654468 L 453.47135786869313 139.78306820204483 L 453.76957954595287 140.21672581860173 L 453.8685652555955 140.65295708592834 L 454.01665171071215 141.53326404832137 L 454.213373001239 142.42424165786997 L 454.3114239028609 142.87381341286488 L 454.84705625430024 143.32615178068357 L 454.94378762938175 143.78129102311163 L 455.1847434882368 144.23926604234998 L 455.42446303657965 144.7001123970757 L 455.9002434971609 145.1638663190098 L 456.1363290802232 145.63056473001046 L 456.4648574678522 146.57294626373448 L 456.6981142552709 147.04870684247442 L 457.20721648152585 147.52756686051828 L 457.436805334066 148.00956696668447 L 457.8926259005365 148.49474861473027 L 458.028509382093 148.98315408474542 L 458.4786211242767 149.47482650526223 L 458.88004711381626 149.9698098761097 L 459.4099723125363 150.96988996717374 L 459.5415197597637 151.47507926025565 L 459.67269786411697 151.98376470082331 L 460.06403671537265 152.49599501625863 L 460.1505575502375 153.01181995979942 L 460.1937579578231 153.53129033954013 L 460.3231200270153 154.58137609554956 L 460.6235791813128 155.11209863800661 L 461.34532096406474 155.64668101467583 L 461.55549332691766 156.18517978065802 L 462.5924031179622 157.2741589990286 L 462.71529991168677 157.82475897279807 L 463.0008081439621 158.93848865533488 L 463.7670778120502 159.5017462222478 L 463.9268086940414 160.64137762096317 L 464.2446414671905 161.21788844141457 L 464.7956986764299 161.7989567069369 L 465.87868975570507 162.3846550472806 L 466.1455600547927 162.97505784234772 L 466.373098998724 163.57024127887865 L 466.937144933507 164.17028340945245 L 466.97450698066 164.77526421391548 L 467.1980539979268 165.3852656633586 L 467.30942767992764 166.0003717867716 L 467.4205365015548 166.62066874051072 L 467.5682717629113 167.24624488072112 L 467.6787674489623 167.87719083886884 L 468.33630940017736 168.51359960054185 L 468.4450056201425 169.1555665876931 L 468.7336319432956 169.80318974450597 L 468.84140877880515 170.45656962707665 L 468.94893756614266 171.11580949711828 L 469.02048618269055 172.45229636668728 L 469.1632555450463 173.12976432183194 L 469.23447695742806 173.81353439493842 L 469.48290037774814 174.50372493822414 L 469.9758192863924 175.2004576694722 L 470.2203422088935 175.90385780086092 L 470.49823886446785 176.6140541740188 L 470.9120089855782 177.3311794016667 L 471.0148814766257 178.05537001623793 L 471.4580632652891 178.78676662589373 L 471.5935854414563 179.52551407837802 L 471.9978091955785 180.27176163319024 L 472.23200135246987 181.02566314258866 L 472.59766213906437 181.7873772419718 L 473.02614915448606 182.55706755022828 L 473.0589474973388 183.3349028806885 L 473.3205086421985 184.1210574633563 L 473.71012511111843 184.91571117915504 L 473.8392785796106 185.7190498069745 L 474.0323418191022 186.53126528436718 L 474.19262066402575 187.35255598280992 L 474.82829356472655 188.18312699851782 L 474.9858695571815 189.0231904598774 L 475.33067730282494 189.87296585265125 L 475.67295896171845 190.73268036420183 L 476.1970562007521 191.60256924808522 L 476.502624572341 192.48287621047848 L 476.7153395169004 193.37385382002702 L 476.7456484621573 194.27576394284057 L 476.927090389125 195.18887820450698 L 477.31781385457174 196.11347848116696 L 477.67560427553576 197.04985742186955 L 477.8534772218817 197.99831900463136 L 478.6456302084526 198.95917912884147 L 479.2525957426742 199.93276624690236 L 479.3673195264688 200.9194220382667 L 479.4531778737093 201.91950212933074 L 479.68136507931354 202.93337686298037 L 481.11043187395865 203.96143212195636 L 481.22068853273805 205.00407021062057 L 481.2757194430756 206.0617108001636 L 481.30321061037364 207.134791942815 L 481.4130138042157 208.22377116118565 L 482.28227120313727 209.3291266195265 L 482.87064029780686 210.45135838440473 L 483.5041583089713 212.74856886909384 L 483.6873277747923 213.9246700045046 L 484.1550637583528 215.1198955716094 L 484.28416369535864 216.3348778255155 L 484.3099409304815 217.57028090266778 L 484.41290788670284 218.8268030010259 L 484.87347145991237 220.10517874985015 L 485.7811980957724 221.40618178923376 L 486.47521332332707 222.7306275820617 L 486.7450663246185 224.079376483989 L 486.915982983649 225.45333710038113 L 487.8808337406759 226.85346996301797 L 489.1060700401223 228.28079156382364 L 489.89015659343863 229.73637878805073 L 490.0727508169555 231.2213737953473 L 490.90808874226457 232.7369894041288 L 492.9011880434045 234.2845150428455 L 492.92262472075925 235.86532334131203 L 494.2120055695428 237.48087744652418 L 494.62712369335406 239.13273916067482 L 494.93605960501543 240.82257801480824 L 495.05906425037284 242.55218141024233 L 496.96468041694084 244.32346598218396 L 497.0432365304035 246.13849036666386 L 499.2844470128499 247.99946958402649 L 499.8422081631417 249.9087912909984 L 500.1369803552905 251.86903420042358 L 500.2836719592337 253.8829890251373 L 502.2377702668529 255.95368237277756 L 502.3780217417043 258.0844041049721 L 504.2481501836447 260.27873878168344 L 505.4764168599793 262.5406019452772 L 506.6252913221905 264.8742821666617 L 506.73704557411446 267.28448998767266 L 506.7529886684426 269.77641516318295 L 507.18140851931696 272.35579395139075 L 507.35482987996943 275.028988646146 L 507.63722908578745 277.80308212517497 L 508.42821332605126 280.6859909502078 L 508.78059684989904 283.6866015662858 L 509.100033544998 286.8149355034691 L 509.58263292922265 290.0823513228318 L 510.8116255809828 293.50179357239927 L 510.8846389377315 297.0881025288209 L 512.5050253192896 300.8584034531554 L 514.084719408283 304.83260118729424 L 515.4939113761036 309.03401626712895 L 515.8363860345592 313.49021410743404 L 516.7461468022482 318.23410214982937 L 517.663778344617 323.3054061135475 L 518.3154799917027 328.7526942873317 L 518.3528022443664 334.6362137284425 L 519.809707202303 341.0319634849891 L 520.1579714769259 348.0377146909782 L 520.5155337129952 355.78221334945164 L 523.6494351700112 364.43982626959144 L 529.6920865154079 374.25501827570497 L 530.5044820504422 385.58582589060006 L 531.7438950368551 398.9873268531352 L 532.2176605261958 415.38943843174843 L 533.4130156613595 436.535438052757 L 533.888075022573 466.3390505939054 L 536.8760753304769 517.2886627560624" stroke-linejoin="bevel" stroke-miterlimit="10"/><path fill="none" stroke="none"/><path fill="none" stroke="blue" paint-order="fill stroke markers" d=" M 549.2272727272727 NaN" stroke-linejoin="bevel" stroke-miterlimit="10"/></g></g></g><g clip-path="url(#cxuLtyogFAKI)"><g><g><path fill="none" stroke="none"/><path fill="none" stroke="red" paint-order="fill stroke markers" d=" M 133.77272727272725 30.97642680386764 L 133.77272727272725 31.18108054016011 L 166.15742130082475 31.454841574677175 L 185.10125290459018 31.66083354359273 L 198.54211532892225 31.798482933634773 L 208.96765818089784 32.07455744709932 L 217.48594693268765 32.490623196492265 L 224.68805745183624 32.97902866650736 L 230.92680935701975 33.119171230983284 L 236.42977853645306 33.32988734127434 L 241.3523522089953 33.40026049437745 L 245.8053617534222 33.47070108702428 L 249.87064096078515 33.753140446256225 L 253.61033531414586 33.82392018480334 L 260.2961838127607 33.89476814479576 L 263.31150338511725 34.03666925605046 L 266.1439607378376 34.107722671734564 L 268.81447256455056 34.3212959536163 L 271.34056004913475 34.60702907455607 L 273.73704623709284 34.67863624320171 L 276.0165830836992 34.75031323844905 L 278.1900557815197 34.89387725440247 L 282.2553349888826 35.10975039870186 L 284.1625890890684 35.254018850905936 L 285.99502934224336 35.543408015258706 L 289.45744550803124 35.688530970201214 L 292.6808778408582 35.83394101327315 L 294.2128589397357 35.906754048253106 L 295.69619741321475 35.97963928258537 L 297.1338873852851 36.052596859593905 L 299.88298836000683 36.19872961707256 L 301.19916659264806 36.34515347585409 L 302.4792805722635 36.56533762292895 L 303.7252540772323 36.63887915262694 L 304.9388609460088 36.7124943343448 L 307.2754096819043 36.786183315756034 L 308.4012771117967 37.007694541561364 L 309.5006510692042 37.15574041799607 L 310.5747498096172 37.30408507541324 L 311.6247094446236 37.45272972223074 L 314.6400290169802 37.60167557421221 L 315.60338763094524 37.75092385452706 L 316.5472831171659 37.82566178958973 L 317.47248636970045 37.975366022195885 L 318.37972337034086 38.27569229413791 L 320.1429981964135 38.42631684029152 L 321.00029266159277 38.577250677311554 L 321.8421395361288 38.72849507800106 L 322.6690856809977 39.03192070103205 L 323.4816494223438 39.18410450860608 L 324.2803225028249 39.26031473088301 L 325.8378413107149 39.41297263165586 L 326.5975529678333 39.48942063938057 L 327.3451087155621 39.56594823900696 L 330.22116965285187 39.79601025092347 L 331.59542276863874 39.94978594048507 L 332.26768238810433 40.0267945937328 L 332.9304060880603 40.10388401118314 L 333.58386062074555 40.25830581756168 L 334.22830169966016 40.413052722719954 L 335.49111472093125 40.49054851566689 L 336.1099481053298 40.56812609838403 L 337.3235549741063 40.723527324980864 L 337.9187380226542 41.035318896621675 L 338.50643429328784 41.11347387772366 L 339.08682980017886 41.19171204668726 L 339.6601037100018 41.27003358079071 L 340.2264286739541 41.505500155248 L 341.33889164600816 41.66289797299578 L 341.8853450973017 42.05787341451719 L 342.4254810261092 42.13712382952747 L 342.95944383771473 42.21645978196932 L 343.48737304209607 42.375389039131505 L 344.00940347272115 42.454982715345636 L 345.03628519297087 42.774222100112524 L 347.0247230450777 43.01456483021627 L 347.50888527906875 43.2556960015246 L 348.46241301714804 43.41689069946233 L 349.39686891600957 43.57843967174654 L 349.85718039779795 43.65934749807889 L 350.76441739843835 43.74034447905888 L 351.21151399186977 43.902606692416725 L 351.6543726391351 44.14667361107308 L 352.0930729278489 44.22820967356745 L 352.95830575639366 44.30983628140234 L 353.80780620412645 44.3915536359018 L 354.22683356422624 44.55526139355288 L 355.05377970909524 44.63725220272511 L 355.4618280449464 44.88377480205827 L 355.86634345044126 45.213763023176625 L 356.26738657787166 45.37931433820711 L 356.66501653092246 45.628342536204286 L 358.22253533881246 45.71153977519555 L 358.6039353137672 45.87821729060988 L 358.9822469959307 46.04527361888495 L 359.72980274365955 46.12894437669763 L 361.18996025041395 46.21271048582196 L 361.54797914770063 46.3805296290426 L 362.25589022824374 46.464583100524806 L 362.9532350764865 46.632978942335626 L 363.29804282213007 46.97093242410972 L 363.98011679673624 47.05566413701001 L 364.3174557169342 47.14049363609797 L 364.65237641620183 47.31044689748046 L 364.9849133180519 47.56611586064059 L 365.64296979484084 47.737057223267925 L 365.96855464884305 47.82267721291555 L 366.29188630241686 47.99421697058676 L 366.61299572775766 48.080137205736946 L 366.93191326280817 48.33850215645646 L 367.87580874902875 48.42482600995004 L 368.18625000730077 48.59777844927669 L 368.4946421334273 48.77113879567753 L 368.8010120015634 48.85797253619717 L 369.4077898479064 48.94490897779406 L 369.7082490022038 49.11909093797806 L 370.006788276594 49.20633694561161 L 370.3034320507518 49.381140245120605 L 370.8911283213853 49.46869803129448 L 371.47152382827636 49.556360239420655 L 371.7590400431664 49.73199891988759 L 372.6111227020516 49.81997589364755 L 372.8917315784496 49.90805829220653 L 373.44794335556446 49.99624636853366 L 373.7235856741056 50.08454037650938 L 373.9976113128606 50.35006054290102 L 374.2700391253992 50.52760834130652 L 374.5408876373994 50.79473674966732 L 374.8101750542067 50.97336321133298 L 375.87206707019357 51.242119462483174 L 377.67421148043405 51.51186197731499 L 377.9260785996962 51.69224182931282 L 378.1765952185325 51.782598021147464 L 378.42577574238396 51.87306542063084 L 378.92018498540284 51.96364430184235 L 379.1654413883504 52.054334939875844 L 379.4094170731751 52.145137610844586 L 379.6521253461297 52.23605259188628 L 380.3727756871403 52.41822059789388 L 380.84710704524554 52.50947418230385 L 381.08247901646945 52.60084119568569 L 381.3166711733608 52.6923219203768 L 381.54969528471474 52.78391663976993 L 382.9239484005016 52.875625638318525 L 383.37319452982973 52.967449201542195 L 383.5962080199672 53.05938761603181 L 384.2589317199232 53.1514411694551 L 384.9123862526085 53.243610150561835 L 385.5568273315231 53.33589484918923 L 386.19250023222395 53.428295556267926 L 386.61152759232374 53.61344616499866 L 387.0268302155081 53.79906432626797 L 387.2331053297128 53.892049478202125 L 387.64294337414964 54.35874788920273 L 388.25103747853876 54.452444208838756 L 388.45198934735976 54.546260115386076 L 388.6520806059692 54.73425191300248 L 389.04971055901996 54.828428418904764 L 389.6398814059351 55.0171441908617 L 390.02922730473006 55.20634571823712 L 390.22269026221466 55.30112942292669 L 390.4153554320418 55.49106429036999 L 390.6072293669099 55.68149121760507 L 390.7983185391159 55.87241276079112 L 390.9886293418647 55.9680598176202 L 391.7422140253364 56.06383149605688 L 391.9287261990759 56.15972812127211 L 392.1144967717571 56.25575001971049 L 392.2995316174708 56.351897519098316 L 392.667417277871 56.448170948449274 L 393.032428802197 56.54457063807172 L 393.2138707291646 56.64109691957492 L 393.9326731757982 56.73775012587669 L 394.11065905762126 56.83453059120973 L 394.4646095192082 57.02847464251681 L 394.99055770904687 57.125638903593995 L 395.337929104584 57.320353594414996 L 395.51065106645393 57.61339618640716 L 395.68273685022757 57.90761173386113 L 395.8541911251178 58.00594586598703 L 396.02501850912097 58.20300966445444 L 396.19522356976336 58.3017400390047 L 396.36481082483374 58.400603204952745 L 396.7021497450317 58.49959951998608 L 397.0370704442993 58.89692347553563 L 397.3696073461494 58.99659095223183 L 397.8640165891683 59.29640681101034 L 398.1907398610133 59.39661780512972 L 398.35324867694055 59.496965606109484 L 398.5151942029479 59.6980731263659 L 398.8374109109316 59.79883359834918 L 399.1574206378465 59.899732382622915 L 399.47525341099555 60.00076985942724 L 399.7909386490109 60.101946410572566 L 399.9479849732652 60.20326241944787 L 400.4159812483132 60.50805105021129 L 400.57094403539827 60.60992875578091 L 400.7253945478724 60.814108755962764 L 400.8793361615248 60.91641183831052 L 401.0327722188855 61.12144614922221 L 401.1857060296608 61.224178175450845 L 401.338140871162 61.32705398342864 L 401.49007998872617 61.533238558458265 L 401.6415265961313 61.636548136675515 L 401.7924838760038 61.740003118991694 L 402.0929430303013 61.843603915284575 L 402.24245111780175 62.051244597999926 L 403.1295898749412 62.155285312895046 L 403.2758223494828 62.25947349873235 L 403.4215985597118 62.36380957416628 L 404.2868313882566 62.46829395963647 L 404.4294917661968 62.78264120765573 L 404.571717865298 62.88772307373188 L 404.8548777470279 62.99295537918084 L 404.99581673014904 63.20387303552587 L 405.2764256065471 63.521388660140076 L 405.55535919608917 63.62753272595177 L 405.6942039861623 63.73383029010449 L 405.832637383662 63.94688769377029 L 406.38230534095806 64.26763621495235 L 406.9255816654969 64.48224878435013 L 407.0604193852763 64.5897905047791 L 407.3289329834015 64.69748979555072 L 407.46261329627487 64.80534711908751 L 407.5959122097346 65.02153772435071 L 408.6488297275235 65.34702055640713 L 408.77879152891614 65.5648125758957 L 409.0376356118998 65.67395105593351 L 409.16652186598003 65.78325182373374 L 409.2950535494499 66.00234215822093 L 409.5510609706753 66.11213269812731 L 409.67854055174183 66.22208747226074 L 409.80567324916586 66.33220697270917 L 409.93246094563005 66.44249169377531 L 410.05890550853155 66.99641106570283 L 410.31077262779365 67.10769761656167 L 410.436198843994 67.33077746245044 L 410.81046977048146 67.4425717848394 L 411.0583283755225 67.66667181452709 L 411.3048790135004 67.77897856334425 L 411.5501354164479 68.11693204511829 L 411.6722825120992 68.22992938143994 L 411.7941111012727 68.3431006937139 L 411.9156228407018 68.56996739480053 L 412.2782733352637 68.79753647069509 L 412.63813060188613 69.02581228398452 L 413.231801073343 69.14021659159539 L 413.3496352782372 69.36956078015538 L 413.7013652014584 69.48450177746503 L 413.81802253416333 69.5996227920719 L 414.0504669811544 69.83040713488117 L 414.1662569722045 69.94607160060684 L 414.2817607083494 70.17794798470004 L 414.39697960145276 70.41055815604159 L 414.62656845399295 70.52713986612918 L 414.7409411854664 70.64390677361001 L 414.8550346181724 70.76085946781592 L 415.0823890204634 70.87799854089616 L 415.19565268193395 71.11283820647282 L 415.3086424285991 71.23053999751795 L 415.53380545463335 71.34843056457186 L 415.64598134879714 71.4665105141442 L 416.09201086969193 71.58478045567227 L 416.20285608769876 71.70324100153988 L 416.4237606953301 71.82189276709641 L 416.5338225541787 71.94073637067589 L 416.7531714898239 72.05977243361639 L 416.8624609840439 72.29842443807087 L 416.9714954267037 72.53785381199037 L 417.0802760054723 72.89846656864478 L 417.1888038997421 73.01906504163941 L 417.297080280706 73.13986170448993 L 418.04806926777025 73.50344737310775 L 418.15437474588526 73.62504335253561 L 418.2604388946711 73.99104287785758 L 418.3662628073536 74.11344882255077 L 418.4718475697473 74.23605894739637 L 418.68230395026666 74.48189447019786 L 418.89181657703057 74.60512124306763 L 418.99622162042124 74.72855494596388 L 419.1003938764541 74.85219627503511 L 419.72059640142544 74.97604592994878 L 419.9255144381451 75.22437303371072 L 420.12953763342625 75.34885189970299 L 420.2312161011414 75.47354192587449 L 420.3326737685358 75.72355833290828 L 420.4339115924916 75.97442803991339 L 420.5349305236844 76.10018470497914 L 420.7363154797692 76.47875079224042 L 421.0367746340667 76.85927667815838 L 421.3353139084569 77.11405943862883 L 421.63195768261465 77.36972840178908 L 421.92672987476345 77.49789714010694 L 422.02457543403267 77.62628975406403 L 422.2196539532482 77.88374974688537 L 422.3168886136821 78.01281870507296 L 422.80004946013923 78.27163852460257 L 422.8960849255557 78.40139099042506 L 423.0875656750293 78.53137290369824 L 423.3733233699622 78.66158507734553 L 423.4681888593566 78.7920283286183 L 423.84573626716934 78.92270347912643 L 424.03337201123173 79.18475278626892 L 424.1269080534339 79.44773966001333 L 424.6842256455683 79.7116708333549 L 424.86853056888924 80.10935306292885 L 425.3261369447235 80.24239337581207 L 425.77930477947 80.3756749223956 L 425.8694132692622 80.50919857909685 L 425.9593483066089 80.77697575248135 L 426.04911055799454 80.91123104606334 L 426.22811934967996 81.04573200363154 L 426.3173672038957 81.18047952587955 L 426.58409240484605 81.31547451846342 L 426.8493035473056 81.45071789203854 L 427.11301772332286 81.58621056229578 L 427.28800383601947 81.72195344999943 L 427.46233701394175 81.85794748102421 L 427.6360221116403 81.99419358639341 L 427.7226231326816 82.1306927023171 L 427.8090639297256 82.26744577023078 L 427.8953450945514 82.40445373683411 L 428.2388851532153 82.54171755413057 L 428.3243769199331 82.81701657557323 L 428.40971253721847 82.95505371060352 L 428.4948925744407 83.09335055817638 L 428.9184787712008 83.50980919517485 L 429.002737112297 83.64915473984803 L 429.17079929882016 83.7887649485827 L 429.42176447239683 83.92864082866436 L 429.7543013742469 84.34987265653444 L 429.8370670955812 84.63204096005313 L 430.00215997928785 84.91529662002864 L 430.08448817235285 85.34223733321102 L 430.3306058835892 85.4851037587535 L 430.5754338891108 85.6282484053587 L 430.73794270503805 86.05936256085892 L 430.89988823104534 86.20363101306299 L 431.14175885306304 86.34818317922003 L 431.2221049390291 86.7835531754302 L 431.46231748604225 86.92925144474236 L 431.542114665944 87.07523908518664 L 431.7806917161433 87.22151724849004 L 432.0180566846535 87.36808709326937 L 432.1756326771084 87.514949785086 L 432.33267900136264 87.6621064965019 L 432.41100464833244 87.95730670371847 L 432.48919920629197 88.25369723757024 L 432.80067527641074 88.40234188438768 L 433.1100885759699 88.55128773636915 L 433.2640301896223 88.70053601668405 L 433.5704000577584 88.85008795596775 L 433.64667964609015 89.1501077716789 L 433.79886622193777 89.30057814725791 L 434.0262206242288 89.75384630178087 L 434.4027032212051 89.90555895172093 L 434.5524509054095 90.20992689304012 L 434.70172016169266 90.36258479381286 L 434.776176332789 90.51556040116395 L 435.14668769146414 90.66885504025254 L 435.4409956723639 90.97640675588968 L 435.73346133771406 91.13066652457701 L 435.95161537207986 91.2852507094205 L 436.24091188447136 91.44016067782388 L 436.3129569835199 91.59539780585436 L 436.3848911585845 91.90685908882449 L 436.45671475070765 92.37653961852664 L 436.5284280993614 92.53376909623393 L 436.7429100558713 92.69133561488024 L 436.81418579429425 92.8492406225485 L 436.88535296338597 93.00748557667424 L 436.95641189339545 93.16607194412626 L 437.02736291306735 93.32500120128844 L 437.1689425289082 93.4842748341415 L 437.66111963464454 93.64389433834731 L 437.8704757914099 94.12484318268326 L 437.94005322418667 94.2858613254985 L 438.0095271960587 94.44723296616672 L 438.1481659846571 94.60895966023588 L 438.28639459872545 95.25944844355934 L 438.35535584737096 95.42297410121853 L 438.42421545817774 95.58686436488216 L 438.49297373030055 95.75112086407631 L 438.6986434863795 95.91574523927562 L 439.24271062401033 96.08073914200207 L 439.44511341337375 96.24610423492368 L 439.51238662510474 96.41184219195554 L 439.713627011499 96.57795469836122 L 439.91400431996055 96.74444345085595 L 439.98060623783203 97.07855653885463 L 440.0471133486711 97.24618432598771 L 440.11352592200717 97.4141952626818 L 440.3121990951185 97.58259110449274 L 440.37823619088283 97.75137361906968 L 440.5757892863801 97.9205445862666 L 440.96840703779804 98.09010579825508 L 441.4223296399973 98.43040618756277 L 441.4868172105874 98.60114901184346 L 441.67974757754735 98.77228937507266 L 441.74388106390467 98.94382913274376 L 442.3171549737276 99.1157701533715 L 442.63262705331107 99.28811431861351 L 442.7582218533382 99.4608635233941 L 442.8208928720914 99.63401967602948 L 443.31925746376237 99.80758469835416 L 443.3811809154713 99.98156052584847 L 443.87363593550265 100.15594910776855 L 444.0569765401967 100.50597240157765 L 444.2396005022621 100.68161108204453 L 444.36095443405986 101.03415253866632 L 444.72313638323544 101.21105936967064 L 444.9630405687553 101.38839299682064 L 445.082532289835 101.74434891182432 L 445.32060280482466 101.92297537348992 L 445.43918468948414 102.10203697921924 L 445.55746636651963 102.28153585426111 L 445.61649510144053 102.46147413947205 L 445.6754493521335 102.64185399146976 L 445.7343293063347 102.82267758278778 L 445.91052525673496 103.00394710203284 L 446.55095100030195 103.18566475404333 L 446.60873856175067 103.36783276005087 L 446.7816736295503 103.55045335784268 L 447.06848384561175 103.73352880192692 L 447.1827167569807 103.91706136369919 L 447.296671051216 104.10105333161204 L 447.35354414098384 104.28550701134628 L 447.410348084121 104.65580881618348 L 447.46708304856094 105.21478301414885 L 447.7497290253716 105.4020563709957 L 447.97462109605556 105.58980807665534 L 448.14258258602473 105.77804058106182 L 448.3099424216065 105.9667563530187 L 448.42118351576534 106.15595788039417 L 448.53216037904787 106.53582824937627 L 448.97345043631213 106.72650216382362 L 449.13786551792145 106.91767197977714 L 449.24715501214143 107.10934028342905 L 449.30170404049215 107.30150968125537 L 449.3561894548012 107.4941828002286 L 449.4649700335697 107.68736228803374 L 449.73581854556994 107.88105081328564 L 449.8437198348107 108.26996575657199 L 450.0587776942705 108.46519761849385 L 450.3262153877181 108.85722389601807 L 450.3795197146353 109.05402388721097 L 450.69807484058646 109.2513522011617 L 451.0144726918033 109.84653563769268 L 451.0669979783641 110.0460059169605 L 451.1194642808738 110.24601897316728 L 451.1718717316577 110.44657776826648 L 451.38091564851874 110.6476852885229 L 451.5890284089892 111.05155857272956 L 451.69273819069673 111.25433043318696 L 451.84787249197285 111.66156002217264 L 452.0024933859078 111.86602400046758 L 452.5650985554705 112.0710583113792 L 452.61591012923896 112.27666614558564 L 452.71736779663325 112.48285072061526 L 452.97005222799424 112.68961528114869 L 453.0707445891131 112.89696309932475 L 453.271480612083 113.10489747505198 L 453.52119386005836 113.31342173632322 L 453.62070665055455 113.5225392395352 L 453.6703836754101 113.73225336981278 L 453.76957954595287 113.94256754133784 L 453.81909861521495 114.15348519768293 L 453.8685652555955 114.36500981214874 L 453.9673416929687 114.57714488810876 L 454.01665171071215 115.00326059045665 L 454.65299060674425 115.21724837710929 L 454.79861536092506 115.43186094650713 L 454.84705625430024 115.86297510200728 L 455.3287227623499 116.07948410332006 L 455.42446303657965 116.29663271856413 L 455.4722597031268 116.73286398589073 L 455.6629588963463 117.17169963441768 L 455.710512322818 117.3921038559323 L 455.7580173980597 117.61317094828382 L 455.8054742202964 118.05730977871866 L 456.04203795341607 118.28038962460744 L 456.5116020815314 118.50414855783248 L 456.74462619288533 118.7285907255013 L 456.8838848279521 119.17954154359694 L 456.9302122858629 119.63327602634178 L 457.2991874511364 119.86119792307409 L 457.4825880300127 120.08982875375239 L 457.5740190522936 120.31917294231232 L 457.80181685839193 120.54923495422895 L 458.3889450171392 120.78001929703822 L 458.4786211242767 121.01153052086715 L 458.52339471416707 121.24377321897225 L 458.96878643294355 121.47675202828611 L 459.189900132323 121.71047162997291 L 459.2339975754032 121.94493674999268 L 459.2780534367298 122.4161226763012 L 459.75994576524187 122.89034853283289 L 459.8035086937826 123.12861374243681 L 460.02071613973766 123.36765379961446 L 460.06403671537265 123.60747376048062 L 460.23691845740524 123.84807873080177 L 460.28003912264893 124.08947386664693 L 460.53793069266175 124.33166437505196 L 460.75175823969363 124.81845259657024 L 460.8795866025382 125.06306098470782 L 460.9646116259583 125.30848609685825 L 461.09185974131657 125.55473340522462 L 461.13419888102874 125.80180843719205 L 461.260986577493 126.04971677607216 L 461.55549332691766 126.29846406185999 L 461.72295313872036 126.54805599200432 L 462.09755749499385 126.79849832219037 L 462.1389954023444 127.0497968671362 L 462.34563544496336 127.30195750140274 L 462.4691822004503 127.55498616021805 L 462.51029195891 127.80888884031538 L 462.6743702222754 128.06367160078577 L 462.919412239272 128.319340563946 L 463.16317577036443 128.57590191622103 L 463.4056740871224 128.83336190904237 L 463.5666431954454 129.09172685976182 L 464.1257074085438 129.35100315258205 L 464.3632735346735 129.61119723950253 L 464.402750712751 129.87231564128342 L 464.48160514071 130.66128299551195 L 464.52098250290186 130.9261652742357 L 464.6389158532146 131.19200553796912 L 464.7173730294602 131.4588107412539 L 464.9129414919696 131.7265879146383 L 464.99094023708864 131.99534416578854 L 465.1076947438494 132.26508668062047 L 465.2629149446752 132.53582272445277 L 465.8021602750805 132.80755964318115 L 466.107528927357 133.08030486447404 L 466.25946804492116 133.3540658989911 L 466.2973757447493 133.6288503416239 L 466.373098998724 133.90466587276052 L 466.44869972310795 134.45942135733185 L 466.5995351647705 134.73837711073958 L 466.6747706681055 135.29948481869144 L 467.2723326105117 135.58165312221013 L 467.4575141350442 135.86490878218564 L 467.60513270168724 136.14926021146528 L 467.7890024292594 136.43471592091055 L 468.7336319432956 137.0089747230159 L 469.1632555450463 137.29779534137708 L 469.27004699148347 137.5877552945152 L 469.58896452653397 138.17112941064704 L 469.76520478634404 138.464561947243 L 469.9057198921843 138.75917056929245 L 470.04581366274203 139.05496474231006 L 470.0807715674594 139.35195404654468 L 470.32474725228417 139.65014817884105 L 470.4635920423573 139.9495569545395 L 470.5328600127546 140.2501903094149 L 470.9120089855782 140.5520583016546 L 471.0148814766257 140.85517111387793 L 471.35616303411007 141.15953905519711 L 471.4919806805537 141.46517256332095 L 471.8298074414713 141.7720822067031 L 471.9642571384992 142.080278686734 L 472.13177699338917 142.38977283998088 L 472.19861711562606 142.70057564047318 L 472.3985656553555 143.0126982020377 L 472.4318073767686 143.32615178068357 L 472.9276157524643 143.6409477770373 L 472.96048331447753 143.95709773883124 L 473.02614915448606 144.59350650050425 L 473.18991110789773 144.9137891545302 L 473.3856707691839 145.2354734876555 L 473.5157230103602 145.55857182239288 L 473.71012511111843 145.88309664446837 L 473.7747464733913 146.2090606057164 L 473.8715112386849 146.5364765270391 L 474.00021996326484 146.86535740143273 L 474.1606088522389 147.19571639708073 L 474.19262066402575 147.52756686051828 L 474.22461055741866 147.8609223198671 L 474.54331054812457 148.1957964881447 L 474.60679050011174 148.53220326664973 L 474.8598513082263 148.87015674842365 L 474.922902920326 149.2096712217944 L 475.36189764309466 149.5507611740005 L 475.6419458590363 149.8934412949008 L 475.73492347673624 150.93117268800535 L 476.1663891583153 151.28036456943454 L 476.5634991574677 151.63122324420158 L 476.77593775817775 151.98376470082331 L 476.9572623226728 152.3380051589777 L 477.2279364864093 152.69396107398126 L 477.4373820259723 153.05164914137623 L 477.6458928357586 153.4110863016291 L 477.7646253964183 153.77228974494483 L 477.7942614503616 154.13527691620033 L 477.97168408436727 154.50006551999968 L 478.001189129538 154.86667352585619 L 478.1190233344322 155.23511917350334 L 478.7037773690073 155.60542097834042 L 478.8488294491152 155.97759773701608 L 478.93564502839945 156.3516685331527 L 478.9934325898482 156.72765274321875 L 479.07998013693424 157.1055700425511 L 479.2525957426742 157.48544041153326 L 480.24700440306367 158.2511218434123 L 480.694636449704 158.63697445019068 L 480.7780920910813 159.02486322790799 L 480.8613989258869 159.4148097806509 L 480.9168544071454 159.80683605817518 L 481.38558718911935 160.2009643633187 L 481.4404243286013 160.9956180791175 L 481.7136487182248 161.39618993042353 L 481.9310836073524 161.7989567069369 L 481.9581919559371 162.20394259534396 L 482.22841386290827 162.61117218432963 L 482.52386389157203 163.02067047353614 L 482.6575442044454 163.43246288277226 L 482.7908431179051 163.84657526148175 L 482.87064029780686 164.68186553196978 L 483.0298269508661 165.10309735983986 L 483.37288191612726 165.52675705026576 L 483.42543674447535 165.95287275261364 L 483.73953028019525 166.38147310866418 L 483.8957887451631 166.81258726416428 L 483.947758981306 167.24624488072112 L 484.0515263476148 167.68247614804773 L 484.3357039515231 168.12131179657467 L 484.7459918788458 168.56278311044082 L 484.77151563663716 169.00692194087566 L 484.79702545844214 169.45376071998936 L 484.89892568962125 169.90333247498427 L 485.0259892367303 170.35567084280297 L 485.1527081575764 170.81081008523103 L 485.1780107509244 171.26878510446932 L 485.2790843165195 171.72963145919516 L 485.3295392215039 172.1933853811293 L 485.53081573085797 172.66008379212985 L 485.5559144354503 173.12976432183194 L 486.12949434383546 173.60246532585393 L 486.2037926433124 174.0782259045938 L 486.6471182017948 174.55708592263778 L 486.89160456542044 175.52426767684966 L 486.94034868822996 176.0126731468648 L 487.0862766698771 176.50434556738162 L 487.159070095366 176.9993289382291 L 487.9524006234083 177.49766815416132 L 488.07143568773415 177.99940902929325 L 488.1901682483939 178.50459832237505 L 488.37951496135025 179.01328376294276 L 488.6151243233643 179.52551407837802 L 489.1525588374654 180.04133902191882 L 489.1990014232727 180.56080940165958 L 489.4536137017633 181.08397711058296 L 489.5228132762131 181.61089515766895 L 489.5688894510275 182.14161770012606 L 490.02716911824245 183.2146988427774 L 490.0955250009185 183.75717180533815 L 490.2773199286339 184.85427803491746 L 490.36795281345707 185.40903351948884 L 490.4584102230789 185.96800771745427 L 490.5712362558732 186.53126528436718 L 490.7736390452366 187.09887237362227 L 491.10904061108556 187.67089668308262 L 491.2203081975519 188.24740750353408 L 491.6186916035006 188.8284757690563 L 492.0355544356472 189.41417410939994 L 492.4270754765818 190.00457690446706 L 492.4703759778045 190.59976034099805 L 493.1364522677912 191.1998024715719 L 493.20041016617745 191.80478327603487 L 493.3068124838005 192.414784725478 L 493.4129730327136 193.02989084889106 L 493.62457320180926 193.65018780263017 L 493.70894566261677 194.27576394284057 L 493.7510748246013 196.18508564981255 L 493.91921261281095 196.83270880662542 L 494.12853750361796 197.48608868919615 L 494.91552730959603 198.14532855923773 L 495.36516648622165 198.81053448202408 L 495.38550217205955 199.48181542880667 L 495.77020792613695 200.1592833839514 L 495.83066241480685 200.8430534570578 L 495.9312463879397 201.53324400034353 L 496.09173168948837 202.2299767315916 L 496.33143074013145 202.93337686298037 L 496.37126129452594 203.64357323613837 L 496.7874447408485 204.3606984637861 L 497.27811547070223 205.08488907835726 L 497.3561467831621 205.81628568801318 L 497.62823462562585 206.55503314049741 L 497.6476089727727 207.30128069530974 L 497.8794766321648 208.05518220470805 L 497.9757495643853 208.8168963040912 L 498.6251966830789 209.58658661234767 L 499.00304942976896 210.3644219428079 L 499.34052371989196 211.15057652547569 L 499.5269614671874 211.94523024127443 L 499.74970914762815 213.5607843464865 L 499.9160757476591 214.38207504492925 L 499.9529657910088 215.2126460606372 L 500.0634614770598 216.0527095219968 L 500.3933892013773 216.90248491477075 L 500.41165038491044 217.76219942632127 L 500.630229672355 218.63208831020484 L 500.82969964824 219.51239527259787 L 501.11832597139306 220.40337288214647 L 501.3515290231029 222.21839726662643 L 501.38730332613335 223.14299754328636 L 501.8498936147739 224.079376483989 L 501.8852884933417 225.02783806675086 L 502.0089598313204 225.98869819096097 L 502.07948246731405 226.9622853090218 L 502.44798991273666 227.9489411003861 L 502.74419117969654 228.94902119145024 L 502.8482860704548 229.96289592509982 L 502.96943770801073 230.9909511840758 L 503.87667470865125 232.0335892727399 L 503.8936241873334 233.091229862283 L 504.19766802046746 234.1643110049344 L 504.2313288558393 235.25329022330516 L 504.3489511665967 236.35864568164584 L 504.65005578003905 237.48087744652418 L 504.7333527132723 238.62050884523956 L 505.2135681359011 239.7780879312134 L 505.509169218471 240.95418906662405 L 506.03010827364255 242.1494146337289 L 506.20784793542555 243.364396887635 L 506.3688447779709 244.59979996478717 L 506.4651772605008 245.85632206314517 L 506.8326226360343 247.1346978119695 L 507.6685016689329 248.4357008513531 L 507.8245513713681 249.76014664418102 L 507.90238120358424 251.10889554610833 L 508.0266398871338 252.4828561625004 L 508.1196175048338 253.8829890251373 L 508.3512552498881 255.31031062594315 L 508.67363076480336 256.76589785017023 L 508.7195033629657 258.2508928574668 L 508.8111136618756 259.76650846624824 L 509.0393566046839 261.31403410496495 L 509.100033544998 262.89484240343154 L 509.4022418268443 266.16225822279426 L 510.4742866607848 267.85209707692775 L 510.9866663257499 269.58170047236183 L 511.32033905649695 271.35298504430347 L 511.68034420859817 273.16800942878336 L 511.73768847780985 275.028988646146 L 511.7806505382854 276.9383103531179 L 512.0518300110699 278.8985532625431 L 512.1939263416323 280.91250808725675 L 512.2648127722764 282.98320143489696 L 512.8420600538724 285.11392316709146 L 512.9817767772361 287.30825784380283 L 513.2460929539844 289.57012100739655 L 513.370775351857 291.9038012287811 L 515.0689284574762 294.31400904979193 L 516.1242243082928 299.3853130135101 L 517.5879936767841 302.0585077082653 L 518.253209907215 304.83260118729424 L 519.0808119590558 307.71551001232706 L 519.3128614524142 310.71612062840506 L 519.6769248852518 313.84445456558836 L 520.0021739522382 317.1118703849511 L 521.4558670885256 320.5313126345186 L 521.7921176742202 324.1176215909402 L 522.7526468415546 327.8879225152747 L 522.8092032429348 331.8621202494135 L 523.0009845183927 336.0635353292487 L 523.5382734771366 340.5197331695539 L 523.7270912872184 345.26362121194927 L 523.7824810239669 350.3349251756674 L 523.9703164518703 355.78221334945164 L 524.1024529645753 361.66573279056246 L 524.6381650783685 368.0614825471085 L 527.8514505466806 375.06723375309764 L 528.7559553226234 382.81173241157103 L 529.378848468185 391.4693453317109 L 530.7244821420509 401.2845373378244 L 533.691466617588 412.61534495271945 L 534.145982955828 426.01684591525463 L 535.137568645692 442.4189574938678 L 537.0180725859444 463.5649571148765 L 543.7556011084448 493.3685696560248 L 545.4570631354808 544.3181818181819" stroke-linejoin="bevel" stroke-miterlimit="10"/><path fill="none" stroke="none"/></g></g></g><g clip-path="url(#IoTXyPvMeHKT)"><g><g/><g><path fill="#ffffff" stroke="#e5e5e5" paint-order="fill stroke markers" d=" M 123 475 L 255 475 L 255 560 L 123 560 L 123 475 Z" fill-opacity="0.95" stroke-linejoin="bevel" stroke-miterlimit="10" stroke-opacity="0.5"/><text fill="#444444" stroke="none" font-family="helvetica" font-size="22pt" font-style="normal" font-weight="normal" text-decoration="normal" x="158" y="500.5" text-anchor="start" dominant-baseline="central">male</text><g><path fill="none" stroke="blue" paint-order="fill stroke markers" d=" M 133 495 L 153 495" stroke-linejoin="bevel" stroke-miterlimit="10"/></g><text fill="#444444" stroke="none" font-family="helvetica" font-size="22pt" font-style="normal" font-weight="normal" text-decoration="normal" x="158" y="534.5" text-anchor="start" dominant-baseline="central">female</text><g><path fill="none" stroke="red" paint-order="fill stroke markers" d=" M 133 529 L 153 529" stroke-linejoin="bevel" stroke-miterlimit="10"/></g></g></g></g><g/><g/><g><g fill="#444444"><path fill="none" stroke="black" paint-order="fill stroke markers" d=" M 113 570 L 570 570" stroke-linejoin="bevel" stroke-miterlimit="10"/><path fill="none" stroke="black" paint-order="fill stroke markers" d=" M 134 576 L 134 568" stroke-linejoin="bevel" stroke-miterlimit="10"/><path fill="none" stroke="black" paint-order="fill stroke markers" d=" M 241 576 L 241 568" stroke-linejoin="bevel" stroke-miterlimit="10"/><path fill="none" stroke="black" paint-order="fill stroke markers" d=" M 349 576 L 349 568" stroke-linejoin="bevel" stroke-miterlimit="10"/><path fill="none" stroke="black" paint-order="fill stroke markers" d=" M 457 576 L 457 568" stroke-linejoin="bevel" stroke-miterlimit="10"/><path fill="none" stroke="black" paint-order="fill stroke markers" d=" M 564 576 L 564 568" stroke-linejoin="bevel" stroke-miterlimit="10"/><path fill="none" stroke="black" paint-order="fill stroke markers" d=" M 117 574 L 117 570" stroke-linejoin="bevel" stroke-miterlimit="10"/><path fill="none" stroke="black" paint-order="fill stroke markers" d=" M 123 574 L 123 570" stroke-linejoin="bevel" stroke-miterlimit="10"/><path fill="none" stroke="black" paint-order="fill stroke markers" d=" M 129 574 L 129 570" stroke-linejoin="bevel" stroke-miterlimit="10"/><path fill="none" stroke="black" paint-order="fill stroke markers" d=" M 134 574 L 134 570" stroke-linejoin="bevel" stroke-miterlimit="10"/><path fill="none" stroke="black" paint-order="fill stroke markers" d=" M 134 574 L 134 570" stroke-linejoin="bevel" stroke-miterlimit="10"/><path fill="none" stroke="black" paint-order="fill stroke markers" d=" M 166 574 L 166 570" stroke-linejoin="bevel" stroke-miterlimit="10"/><path fill="none" stroke="black" paint-order="fill stroke markers" d=" M 185 574 L 185 570" stroke-linejoin="bevel" stroke-miterlimit="10"/><path fill="none" stroke="black" paint-order="fill stroke markers" d=" M 199 574 L 199 570" stroke-linejoin="bevel" stroke-miterlimit="10"/><path fill="none" stroke="black" paint-order="fill stroke markers" d=" M 209 574 L 209 570" stroke-linejoin="bevel" stroke-miterlimit="10"/><path fill="none" stroke="black" paint-order="fill stroke markers" d=" M 217 574 L 217 570" stroke-linejoin="bevel" stroke-miterlimit="10"/><path fill="none" stroke="black" paint-order="fill stroke markers" d=" M 225 574 L 225 570" stroke-linejoin="bevel" stroke-miterlimit="10"/><path fill="none" stroke="black" paint-order="fill stroke markers" d=" M 231 574 L 231 570" stroke-linejoin="bevel" stroke-miterlimit="10"/><path fill="none" stroke="black" paint-order="fill stroke markers" d=" M 236 574 L 236 570" stroke-linejoin="bevel" stroke-miterlimit="10"/><path fill="none" stroke="black" paint-order="fill stroke markers" d=" M 241 574 L 241 570" stroke-linejoin="bevel" stroke-miterlimit="10"/><path fill="none" stroke="black" paint-order="fill stroke markers" d=" M 241 574 L 241 570" stroke-linejoin="bevel" stroke-miterlimit="10"/><path fill="none" stroke="black" paint-order="fill stroke markers" d=" M 274 574 L 274 570" stroke-linejoin="bevel" stroke-miterlimit="10"/><path fill="none" stroke="black" paint-order="fill stroke markers" d=" M 293 574 L 293 570" stroke-linejoin="bevel" stroke-miterlimit="10"/><path fill="none" stroke="black" paint-order="fill stroke markers" d=" M 306 574 L 306 570" stroke-linejoin="bevel" stroke-miterlimit="10"/><path fill="none" stroke="black" paint-order="fill stroke markers" d=" M 317 574 L 317 570" stroke-linejoin="bevel" stroke-miterlimit="10"/><path fill="none" stroke="black" paint-order="fill stroke markers" d=" M 325 574 L 325 570" stroke-linejoin="bevel" stroke-miterlimit="10"/><path fill="none" stroke="black" paint-order="fill stroke markers" d=" M 332 574 L 332 570" stroke-linejoin="bevel" stroke-miterlimit="10"/><path fill="none" stroke="black" paint-order="fill stroke markers" d=" M 339 574 L 339 570" stroke-linejoin="bevel" stroke-miterlimit="10"/><path fill="none" stroke="black" paint-order="fill stroke markers" d=" M 344 574 L 344 570" stroke-linejoin="bevel" stroke-miterlimit="10"/><path fill="none" stroke="black" paint-order="fill stroke markers" d=" M 349 574 L 349 570" stroke-linejoin="bevel" stroke-miterlimit="10"/><path fill="none" stroke="black" paint-order="fill stroke markers" d=" M 349 574 L 349 570" stroke-linejoin="bevel" stroke-miterlimit="10"/><path fill="none" stroke="black" paint-order="fill stroke markers" d=" M 381 574 L 381 570" stroke-linejoin="bevel" stroke-miterlimit="10"/><path fill="none" stroke="black" paint-order="fill stroke markers" d=" M 400 574 L 400 570" stroke-linejoin="bevel" stroke-miterlimit="10"/><path fill="none" stroke="black" paint-order="fill stroke markers" d=" M 414 574 L 414 570" stroke-linejoin="bevel" stroke-miterlimit="10"/><path fill="none" stroke="black" paint-order="fill stroke markers" d=" M 424 574 L 424 570" stroke-linejoin="bevel" stroke-miterlimit="10"/><path fill="none" stroke="black" paint-order="fill stroke markers" d=" M 433 574 L 433 570" stroke-linejoin="bevel" stroke-miterlimit="10"/><path fill="none" stroke="black" paint-order="fill stroke markers" d=" M 440 574 L 440 570" stroke-linejoin="bevel" stroke-miterlimit="10"/><path fill="none" stroke="black" paint-order="fill stroke markers" d=" M 446 574 L 446 570" stroke-linejoin="bevel" stroke-miterlimit="10"/><path fill="none" stroke="black" paint-order="fill stroke markers" d=" M 452 574 L 452 570" stroke-linejoin="bevel" stroke-miterlimit="10"/><path fill="none" stroke="black" paint-order="fill stroke markers" d=" M 457 574 L 457 570" stroke-linejoin="bevel" stroke-miterlimit="10"/><path fill="none" stroke="black" paint-order="fill stroke markers" d=" M 457 574 L 457 570" stroke-linejoin="bevel" stroke-miterlimit="10"/><path fill="none" stroke="black" paint-order="fill stroke markers" d=" M 489 574 L 489 570" stroke-linejoin="bevel" stroke-miterlimit="10"/><path fill="none" stroke="black" paint-order="fill stroke markers" d=" M 508 574 L 508 570" stroke-linejoin="bevel" stroke-miterlimit="10"/><path fill="none" stroke="black" paint-order="fill stroke markers" d=" M 521 574 L 521 570" stroke-linejoin="bevel" stroke-miterlimit="10"/><path fill="none" stroke="black" paint-order="fill stroke markers" d=" M 532 574 L 532 570" stroke-linejoin="bevel" stroke-miterlimit="10"/><path fill="none" stroke="black" paint-order="fill stroke markers" d=" M 540 574 L 540 570" stroke-linejoin="bevel" stroke-miterlimit="10"/><path fill="none" stroke="black" paint-order="fill stroke markers" d=" M 547 574 L 547 570" stroke-linejoin="bevel" stroke-miterlimit="10"/><path fill="none" stroke="black" paint-order="fill stroke markers" d=" M 554 574 L 554 570" stroke-linejoin="bevel" stroke-miterlimit="10"/><path fill="none" stroke="black" paint-order="fill stroke markers" d=" M 559 574 L 559 570" stroke-linejoin="bevel" stroke-miterlimit="10"/><path fill="none" stroke="black" paint-order="fill stroke markers" d=" M 564 574 L 564 570" stroke-linejoin="bevel" stroke-miterlimit="10"/><path fill="" stroke="black" paint-order="fill stroke markers" d=" M 564 574 L 564 570" stroke-linejoin="bevel" stroke-miterlimit="10"/><g transform="translate(134,581) rotate(0,0,0)"><text fill="" stroke="none" font-family="helvetica" font-size="26px" font-style="normal" font-weight="normal" text-decoration="normal" x="0" y="0" text-anchor="middle" dominant-baseline="hanging">10^0</text><g transform="rotate(0,0,0) translate(-134,-581) translate(241,581) rotate(0,0,0)"><text fill="" stroke="none" font-family="helvetica" font-size="26px" font-style="normal" font-weight="normal" text-decoration="normal" x="0" y="0" text-anchor="middle" dominant-baseline="hanging">10^1</text><g transform="rotate(0,0,0) translate(-241,-581) translate(349,581) rotate(0,0,0)"><text fill="" stroke="none" font-family="helvetica" font-size="26px" font-style="normal" font-weight="normal" text-decoration="normal" x="0" y="0" text-anchor="middle" dominant-baseline="hanging">10^2</text><g transform="rotate(0,0,0) translate(-349,-581) translate(457,581) rotate(0,0,0)"><text fill="" stroke="none" font-family="helvetica" font-size="26px" font-style="normal" font-weight="normal" text-decoration="normal" x="0" y="0" text-anchor="middle" dominant-baseline="hanging">10^3</text><g transform="rotate(0,0,0) translate(-457,-581) translate(564,581) rotate(0,0,0)"><text fill="" stroke="none" font-family="helvetica" font-size="26px" font-style="normal" font-weight="normal" text-decoration="normal" x="0" y="0" text-anchor="middle" dominant-baseline="hanging">10^4</text><g transform="rotate(0,0,0) translate(-564,-581)"/></g></g></g></g></g></g></g><g><g fill="#444444"><path fill="none" stroke="black" paint-order="fill stroke markers" d=" M 113 570 L 113 5" stroke-linejoin="bevel" stroke-miterlimit="10"/><path fill="none" stroke="black" paint-order="fill stroke markers" d=" M 107 537 L 115 537" stroke-linejoin="bevel" stroke-miterlimit="10"/><path fill="none" stroke="black" paint-order="fill stroke markers" d=" M 107 368 L 115 368" stroke-linejoin="bevel" stroke-miterlimit="10"/><path fill="none" stroke="black" paint-order="fill stroke markers" d=" M 107 198 L 115 198" stroke-linejoin="bevel" stroke-miterlimit="10"/><path fill="none" stroke="black" paint-order="fill stroke markers" d=" M 107 29 L 115 29" stroke-linejoin="bevel" stroke-miterlimit="10"/><path fill="none" stroke="black" paint-order="fill stroke markers" d=" M 109 563 L 113 563" stroke-linejoin="bevel" stroke-miterlimit="10"/><path fill="none" stroke="black" paint-order="fill stroke markers" d=" M 109 553 L 113 553" stroke-linejoin="bevel" stroke-miterlimit="10"/><path fill="none" stroke="black" paint-order="fill stroke markers" d=" M 109 545 L 113 545" stroke-linejoin="bevel" stroke-miterlimit="10"/><path fill="none" stroke="black" paint-order="fill stroke markers" d=" M 109 537 L 113 537" stroke-linejoin="bevel" stroke-miterlimit="10"/><path fill="none" stroke="black" paint-order="fill stroke markers" d=" M 109 537 L 113 537" stroke-linejoin="bevel" stroke-miterlimit="10"/><path fill="none" stroke="black" paint-order="fill stroke markers" d=" M 109 486 L 113 486" stroke-linejoin="bevel" stroke-miterlimit="10"/><path fill="none" stroke="black" paint-order="fill stroke markers" d=" M 109 456 L 113 456" stroke-linejoin="bevel" stroke-miterlimit="10"/><path fill="none" stroke="black" paint-order="fill stroke markers" d=" M 109 435 L 113 435" stroke-linejoin="bevel" stroke-miterlimit="10"/><path fill="none" stroke="black" paint-order="fill stroke markers" d=" M 109 419 L 113 419" stroke-linejoin="bevel" stroke-miterlimit="10"/><path fill="none" stroke="black" paint-order="fill stroke markers" d=" M 109 405 L 113 405" stroke-linejoin="bevel" stroke-miterlimit="10"/><path fill="none" stroke="black" paint-order="fill stroke markers" d=" M 109 394 L 113 394" stroke-linejoin="bevel" stroke-miterlimit="10"/><path fill="none" stroke="black" paint-order="fill stroke markers" d=" M 109 384 L 113 384" stroke-linejoin="bevel" stroke-miterlimit="10"/><path fill="none" stroke="black" paint-order="fill stroke markers" d=" M 109 375 L 113 375" stroke-linejoin="bevel" stroke-miterlimit="10"/><path fill="none" stroke="black" paint-order="fill stroke markers" d=" M 109 368 L 113 368" stroke-linejoin="bevel" stroke-miterlimit="10"/><path fill="none" stroke="black" paint-order="fill stroke markers" d=" M 109 368 L 113 368" stroke-linejoin="bevel" stroke-miterlimit="10"/><path fill="none" stroke="black" paint-order="fill stroke markers" d=" M 109 317 L 113 317" stroke-linejoin="bevel" stroke-miterlimit="10"/><path fill="none" stroke="black" paint-order="fill stroke markers" d=" M 109 287 L 113 287" stroke-linejoin="bevel" stroke-miterlimit="10"/><path fill="none" stroke="black" paint-order="fill stroke markers" d=" M 109 266 L 113 266" stroke-linejoin="bevel" stroke-miterlimit="10"/><path fill="none" stroke="black" paint-order="fill stroke markers" d=" M 109 249 L 113 249" stroke-linejoin="bevel" stroke-miterlimit="10"/><path fill="none" stroke="black" paint-order="fill stroke markers" d=" M 109 236 L 113 236" stroke-linejoin="bevel" stroke-miterlimit="10"/><path fill="none" stroke="black" paint-order="fill stroke markers" d=" M 109 225 L 113 225" stroke-linejoin="bevel" stroke-miterlimit="10"/><path fill="none" stroke="black" paint-order="fill stroke markers" d=" M 109 215 L 113 215" stroke-linejoin="bevel" stroke-miterlimit="10"/><path fill="none" stroke="black" paint-order="fill stroke markers" d=" M 109 206 L 113 206" stroke-linejoin="bevel" stroke-miterlimit="10"/><path fill="none" stroke="black" paint-order="fill stroke markers" d=" M 109 198 L 113 198" stroke-linejoin="bevel" stroke-miterlimit="10"/><path fill="none" stroke="black" paint-order="fill stroke markers" d=" M 109 198 L 113 198" stroke-linejoin="bevel" stroke-miterlimit="10"/><path fill="none" stroke="black" paint-order="fill stroke markers" d=" M 109 148 L 113 148" stroke-linejoin="bevel" stroke-miterlimit="10"/><path fill="none" stroke="black" paint-order="fill stroke markers" d=" M 109 118 L 113 118" stroke-linejoin="bevel" stroke-miterlimit="10"/><path fill="none" stroke="black" paint-order="fill stroke markers" d=" M 109 97 L 113 97" stroke-linejoin="bevel" stroke-miterlimit="10"/><path fill="none" stroke="black" paint-order="fill stroke markers" d=" M 109 80 L 113 80" stroke-linejoin="bevel" stroke-miterlimit="10"/><path fill="none" stroke="black" paint-order="fill stroke markers" d=" M 109 67 L 113 67" stroke-linejoin="bevel" stroke-miterlimit="10"/><path fill="none" stroke="black" paint-order="fill stroke markers" d=" M 109 55 L 113 55" stroke-linejoin="bevel" stroke-miterlimit="10"/><path fill="none" stroke="black" paint-order="fill stroke markers" d=" M 109 46 L 113 46" stroke-linejoin="bevel" stroke-miterlimit="10"/><path fill="none" stroke="black" paint-order="fill stroke markers" d=" M 109 37 L 113 37" stroke-linejoin="bevel" stroke-miterlimit="10"/><path fill="none" stroke="black" paint-order="fill stroke markers" d=" M 109 29 L 113 29" stroke-linejoin="bevel" stroke-miterlimit="10"/><path fill="" stroke="black" paint-order="fill stroke markers" d=" M 109 29 L 113 29" stroke-linejoin="bevel" stroke-miterlimit="10"/><g transform="translate(102,537) rotate(0,0,0)"><text fill="" stroke="none" font-family="helvetica" font-size="26px" font-style="normal" font-weight="normal" text-decoration="normal" x="0" y="0" text-anchor="end" dominant-baseline="central">10^-3</text><g transform="rotate(0,0,0) translate(-102,-537) translate(102,368) rotate(0,0,0)"><text fill="" stroke="none" font-family="helvetica" font-size="26px" font-style="normal" font-weight="normal" text-decoration="normal" x="0" y="0" text-anchor="end" dominant-baseline="central">10^-2</text><g transform="rotate(0,0,0) translate(-102,-368) translate(102,198) rotate(0,0,0)"><text fill="" stroke="none" font-family="helvetica" font-size="26px" font-style="normal" font-weight="normal" text-decoration="normal" x="0" y="0" text-anchor="end" dominant-baseline="central">10^-1</text><g transform="rotate(0,0,0) translate(-102,-198) translate(102,29) rotate(0,0,0)"><text fill="" stroke="none" font-family="helvetica" font-size="26px" font-style="normal" font-weight="normal" text-decoration="normal" x="0" y="0" text-anchor="end" dominant-baseline="central">10^0</text><g transform="rotate(0,0,0) translate(-102,-29) translate(26,288) rotate(-90,0,0)"><text fill="" stroke="none" font-family="helvetica" font-size="26pt" font-style="italic" font-weight="normal" text-decoration="normal" x="0" y="0" text-anchor="middle" dominant-baseline="alphabetic">CCDF</text><g transform="rotate(90,0,0) translate(-26,-288)"/></g></g></g></g></g></g></g><g clip-path="url(#LZodKABMFglB)"><g/></g><g clip-path="url(#qQcgBWxDdghg)"><g/></g></g></g></svg>