<svg version="1.1" xmlns="http://www.w3.org/2000/svg" xmlns:xlink="http://www.w3.org/1999/xlink" width="600" height="600" style="width: 600px; height: 600px;"><defs><clipPath id="PbJQyBoUGrxS"><path fill="none" stroke="none" d=" M 113 5 L 570 5 L 570 570 L 113 570 L 113 5 Z"/></clipPath><clipPath id="FOASvqsTiSOK"><path fill="none" stroke="none" d=" M 113 5 L 570 5 L 570 570 L 113 570 L 113 5 Z"/></clipPath><clipPath id="yAzKpefOtAZa"><path fill="none" stroke="none" d=" M 113 5 L 570 5 L 570 570 L 113 570 L 113 5 Z"/></clipPath><clipPath id="UEesqcoemKJM"><path fill="none" stroke="none" d=" M 113 5 L 570 5 L 570 570 L 113 570 L 113 5 Z"/></clipPath><clipPath id="pOVZvfHVwodd"><path fill="none" stroke="none" d=" M 113 5 L 570 5 L 570 570 L 113 570 L 113 5 Z"/></clipPath><clipPath id="xkSzTwhtFUJN"><path fill="none" stroke="none" d=" M 113 5 L 570 5 L 570 570 L 113 570 L 113 5 Z"/></clipPath><clipPath id="qWzOExzIwIbx"><path fill="none" stroke="none" d=" M 113 5 L 570 5 L 570 570 L 113 570 L 113 5 Z"/></clipPath><clipPath id="rbOsOcwTtCoc"><path fill="none" stroke="none" d=" M 113 5 L 570 5 L 570 570 L 113 570 L 113 5 Z"/></clipPath></defs><g><g transform="scale(1,1) translate(0.5,0.5)"><rect fill="#FFFFFF" stroke="none" x="0" y="0" width="600" height="600"/><rect fill="#ffffff" stroke="none" x="0" y="0" width="600" height="600"/><rect fill="#FFFFFF" stroke="none" x="113" y="5" width="457" height="565"/><rect fill="#ffffff" stroke="none" x="113" y="5" width="457" height="565"/><g><rect fill="none" stroke="#e5e5e5" x="113" y="5" width="457" height="565" stroke-linejoin="bevel" stroke-miterlimit="10"/></g><g clip-path="url(#PbJQyBoUGrxS)"><g><g><path fill="none" stroke="#e5e5e5" paint-order="fill stroke markers" d=" M 134 570 L 134 5" stroke-linejoin="bevel" stroke-miterlimit="10"/><path fill="none" stroke="#e5e5e5" paint-order="fill stroke markers" d=" M 258 570 L 258 5" stroke-linejoin="bevel" stroke-miterlimit="10"/><path fill="none" stroke="#e5e5e5" paint-order="fill stroke markers" d=" M 382 570 L 382 5" stroke-linejoin="bevel" stroke-miterlimit="10"/><path fill="none" stroke="#e5e5e5" paint-order="fill stroke markers" d=" M 506 570 L 506 5" stroke-linejoin="bevel" stroke-miterlimit="10"/></g></g></g><g clip-path="url(#FOASvqsTiSOK)"><g><g><path fill="none" stroke="#e5e5e5" paint-order="fill stroke markers" d=" M 113 537 L 570 537" stroke-linejoin="bevel" stroke-miterlimit="10"/><path fill="none" stroke="#e5e5e5" paint-order="fill stroke markers" d=" M 113 366 L 570 366" stroke-linejoin="bevel" stroke-miterlimit="10"/><path fill="none" stroke="#e5e5e5" paint-order="fill stroke markers" d=" M 113 196 L 570 196" stroke-linejoin="bevel" stroke-miterlimit="10"/><path fill="none" stroke="#e5e5e5" paint-order="fill stroke markers" d=" M 113 26 L 570 26" stroke-linejoin="bevel" stroke-miterlimit="10"/></g></g></g><g clip-path="url(#yAzKpefOtAZa)"><g><g fill="#444444"><path fill="" stroke="none" d=""/><g transform="translate(138.7727272727273,361.4679319831904) rotate(0,0,0)"><path fill="none" stroke="none"/><text fill="" stroke="none" font-family="helvetica" font-size="20pt" font-style="normal" font-weight="normal" text-decoration="normal" x="0" y="0" text-anchor="start" dominant-baseline="text-after-edge">Female mean: 181.12(±260.4)</text></g></g><g fill="#444444"><path fill="" stroke="none" d=""/><g transform="translate(138.7727272727273,326.6738909521852) rotate(0,0,0)"><path fill="none" stroke="none"/><text fill="" stroke="none" font-family="helvetica" font-size="20pt" font-style="normal" font-weight="normal" text-decoration="normal" x="0" y="0" text-anchor="start" dominant-baseline="text-after-edge">Male mean: 129.22(±203.9)</text></g></g></g></g><g clip-path="url(#UEesqcoemKJM)"><g><g><path fill="none" stroke="none"/><path fill="none" stroke="blue" paint-order="fill stroke markers" d=" M 133.7727272727273 31.702041747485055 L 133.7727272727273 33.72744778484537 L 171.0853407389505 35.58785337575853 L 192.91182042059432 36.704455282053914 L 208.39795420517373 37.72400272977859 L 220.4099327736235 38.52680706551587 L 230.22443388681756 39.45508634944804 L 238.52247634196186 40.51350584972215 L 245.71056767139692 41.22762041832607 L 252.05091356846137 42.19061679952813 L 257.72254623984674 43.04363878130823 L 262.8531620717717 44.1550253363813 L 267.53704735304075 45.031121986124845 L 271.84580413078584 45.53644342186965 L 275.8350898081851 46.9441303166069 L 279.5490259214905 48.24749678051876 L 283.02318113762016 49.04067547082559 L 286.28664832585173 50.11164247280897 L 289.3635270346846 51.06161906561954 L 292.27400461438253 51.33529517359193 L 295.0351597060699 52.998945026371075 L 297.66156948982893 53.70332049158742 L 300.16577553799493 54.55751423284198 L 302.55864602959525 55.56669270472571 L 304.84966081926393 56.58981880278941 L 307.0471382745197 57.776686756035474 L 309.158417597009 58.83103849526378 L 311.1900067163284 60.36379103089064 L 313.1477032744083 61.29891044867583 L 315.0366943701808 62.88418093691291 L 316.86163938771375 63.52791806189691 L 318.62673923798195 64.34054206019437 L 320.3357946038434 64.83243292571092 L 321.9922552196387 65.65958458002223 L 323.5992617920749 65.99305047222799 L 325.15968184285805 67.00255660961318 L 326.67614050090776 67.51251938096414 L 328.15104707475587 68.19798078654799 L 329.5866180806057 68.88984846631911 L 330.98489727865285 69.5882432960401 L 332.3477731722931 70.47060538549749 L 333.6769943462312 71.00511530970113 L 334.9741829560521 71.5435126129533 L 336.24084663031715 71.72385205145343 L 337.4783890042181 72.26752134608336 L 338.6881190693575 72.9986808984383 L 339.87125949581844 73.92290392509284 L 341.02895405916763 74.48302742620285 L 342.1622742854872 75.2365128408349 L 343.2722254111965 75.42608862406263 L 344.3597517407429 76.38131868903207 L 345.4257414737187 76.57385274526831 L 347.49640915911755 77.34903577484482 L 348.5026201825516 77.5441065145805 L 349.4903675726679 77.93579686165936 L 350.4603167406315 78.32957067783008 L 351.41309776224955 78.92418674930843 L 352.34930783640397 79.52361757822052 L 353.2695135333303 79.92595173643542 L 354.174252853937 80.53358280494007 L 355.0640371189091 80.94145878381545 L 355.93935270420513 81.14624260152391 L 356.80066263769595 81.55751756430226 L 357.6484080700665 81.76401505633845 L 358.483009631682 81.97109016448928 L 360.11436848791305 82.5958137275619 L 360.91187525829815 82.80523198007245 L 361.69773917746227 84.07433682470781 L 362.47229530908135 84.71714233576972 L 363.23586445782513 85.14880130161185 L 363.988753967131 85.58299200606655 L 364.73125846195296 86.45908865581009 L 365.46366054097916 86.90105595598556 L 366.18623142238675 87.34567773033137 L 366.89923154682896 87.56899404717143 L 367.6029111410063 88.01765786228094 L 368.29751074487604 88.69579362312129 L 368.9832617052789 89.38019883274569 L 369.66038663851634 89.8400096457429 L 370.3290998641954 90.07099049738753 L 370.98960781245444 91.00218897542459 L 371.64210940650656 91.23683038547455 L 372.2867964222753 93.14122615089599 L 372.9238538267479 94.11211617042085 L 373.5534600965404 95.09590876017182 L 374.79100247044136 97.10360612386756 L 376.00073253558077 97.8707560241545 L 377.1838729620417 98.38664175572808 L 377.765832385849 99.16727432727714 L 378.3415675253909 99.42932523062524 L 378.9112101152787 99.69230704499836 L 379.47488775171036 99.95622640792931 L 380.0327240640183 100.75367723821341 L 380.5848388774197 101.02141461104202 L 381.1313483675058 101.55981191429413 L 382.20799870501395 102.37482164584657 L 382.7383549399419 103.19890402828634 L 383.2635368852125 103.47564940813015 L 383.7836445294555 104.03226333032217 L 384.2987749907251 105.15820599141563 L 384.80902262534073 105.72766497552237 L 385.314479131618 106.01404561465586 L 385.81523364877484 106.3015384144013 L 386.3113728512797 106.87989528495268 L 386.8029810388911 107.75599193469628 L 387.29014022262294 108.64258100921751 L 387.7729302068547 109.23959475208267 L 388.7257112284728 110.14424107549075 L 389.19585153049144 110.44826328058588 L 390.1239904265199 111.0600791835393 L 391.4868663201602 111.3678937762736 L 391.9335968708161 111.98738946583012 L 392.37665058513227 112.6121130289028 L 392.8160874940982 113.24215345217056 L 393.6843437754159 113.87760201387039 L 394.1132761039192 114.19738351713994 L 394.5388176275704 115.16510060295269 L 394.96102153628976 115.49050465609736 L 395.3799397781842 116.145635505938 L 396.20812107353765 116.80661581574208 L 396.61748215208513 117.47355098330439 L 397.0237536836171 118.48535675060293 L 397.42698195413624 119.16765930304064 L 397.82721221722466 119.51118336677496 L 398.61885475508467 120.20305104654614 L 399.0103526436855 121.60649218539635 L 399.39902380807996 122.31831788992804 L 401.3013674333542 123.03705463168046 L 402.04387192817615 123.76283792441217 L 402.4113185590635 124.12841547176185 L 402.7762740072023 124.49580730717247 L 403.13877182425847 125.23610650531987 L 403.85652542324215 125.98388359967237 L 404.21184501305214 126.73929120428966 L 406.29587517150213 127.1199054252084 L 406.63550230698456 127.50248665341815 L 406.9730001047396 128.6622383550718 L 407.6417133304186 129.05289521358242 L 407.97298035990343 129.4456245319662 L 408.3022212786776 129.84044841661807 L 408.6294607205349 130.63647009598577 L 408.9547228727298 131.4411443543769 L 409.2780314867048 131.8467853851671 L 409.59940988849854 132.25466136404248 L 409.91888098884436 133.07721763656548 L 410.23646729297116 133.49194870947105 L 410.8660735627636 133.909016307789 L 411.1781365956086 134.328446907939 L 411.48840098427104 134.75026743893454 L 411.7968873437543 135.17450529275646 L 412.40860668119734 136.03034491599675 L 413.01345262221133 136.89619458629357 L 413.6115779137069 137.77229123603718 L 413.90816666624363 138.21425853621258 L 414.2031302667761 138.6588803105583 L 414.49648642826486 139.10618863760345 L 414.78825257565205 139.5562161809022 L 415.0784458520722 140.00899620334832 L 415.3670831248961 140.46456258192677 L 415.65418099161406 141.3841930776145 L 416.22382358150196 141.84832815842998 L 416.50640020104197 142.78542045462206 L 416.7875012179336 143.25845275351145 L 417.06714196321747 143.73452708165462 L 417.62210277954904 145.18139990429358 L 417.89745234364284 146.16193480727884 L 418.1714006316264 146.6571159371527 L 418.44396183372896 147.65752714657896 L 418.9849786731893 148.1628485823237 L 419.25346163578007 148.67164304487562 L 419.78644343941534 149.18395860438147 L 421.3544394134269 150.21935034788703 L 422.3749576056922 150.74252781085232 L 423.37648830721656 151.26942898815628 L 424.1155945051143 151.80010726706547 L 424.6027536888461 152.33461719126893 L 424.84468992715296 153.4153561355153 L 425.08554367307795 154.51210660851336 L 425.5640421340157 155.06663581483542 L 425.8017057536672 155.6253501868252 L 426.27390810094136 156.18831337810582 L 426.5084649967146 156.75559050563055 L 426.97453476885045 157.32724819488288 L 427.4366038927431 157.90335462683623 L 428.1223548531459 158.4839795867548 L 428.3490108613095 159.659072559398 L 428.79947978638336 160.85311945978845 L 429.46819301206244 161.45744365571773 L 430.1287009603214 162.0667417692688 L 430.34708147244106 163.92531560912983 L 430.5645796366516 165.19080459409741 L 431.85143109379356 165.83175494338803 L 432.273635002513 166.47830318317972 L 432.483501632506 167.1305479566123 L 432.6925532444074 167.788590537378 L 433.7258042064728 168.4525349240937 L 433.9300956183083 169.12248793894423 L 434.1336146600137 170.48086188326766 L 434.3363671498403 171.16951152731082 L 434.538358840543 172.5663322670424 L 434.9400825139714 174.7122594144015 L 435.5371021907446 175.44161805198883 L 436.1275730735641 176.17823410861968 L 436.32296610990863 177.6738264479198 L 437.86109139027155 178.43310800543543 L 439.35648539439944 179.20025790572242 L 439.54052223146783 179.97544093529888 L 439.9067190342265 180.75882711219316 L 440.2704415153728 182.35091649260988 L 441.5244584792754 183.15998796539407 L 441.877448087809 184.80515128969807 L 442.74992622100996 185.64164948816602 L 443.43786813859214 186.48770787298355 L 443.7785700506548 187.34354749622372 L 444.11712916922517 189.08549381626415 L 444.28561357096277 189.97208289078543 L 444.78792566750695 190.86941876112934 L 445.12021513257827 191.77776516215386 L 446.42923337048995 192.69739565784158 L 447.54908075919434 195.5268853987078 L 447.8648043763398 196.4946024845206 L 448.95547860930577 197.47513738750592 L 450.6259594680272 198.46883422543465 L 451.22078013246687 199.47605116255073 L 452.24615822835204 200.49716118460856 L 452.39105931829545 201.53255292811406 L 453.2523692517862 202.58263156838336 L 453.53643704772514 203.64781977149596 L 454.2401166419025 204.7285587157424 L 454.5190329260513 205.82530918874033 L 455.0725670827196 206.93855276705216 L 455.2100658098661 208.06879308585746 L 455.34721422140467 209.21655720706326 L 456.16284683148416 211.56689121110327 L 457.0990569056386 212.7706462359447 L 457.6268133133506 213.9942989367276 L 458.4088714619019 215.2385181893569 L 458.53811695594703 216.5040071743245 L 458.6670528796501 217.79150576340686 L 459.17973030155133 219.1017931176051 L 459.4342495577871 220.43569051917132 L 459.6875710719154 221.79406446349464 L 459.81378618814364 223.17783003999796 L 460.06533207769724 226.02546199462859 L 460.44046058122126 227.49143668884676 L 460.6891017734398 228.98702902814682 L 460.81299301894404 230.5134604859494 L 460.9365997837261 232.07202969242024 L 461.1829650760433 233.66411907283685 L 461.9153671550693 235.2912022156138 L 462.1573033933762 236.95485206839305 L 462.27786497212554 238.6567500764507 L 464.0546177550965 240.39869639649118 L 464.51867858086376 242.1826213413562 L 464.74921735896635 244.01059823806844 L 464.8641175571476 245.8848579139654 L 466.33592194269863 247.80780506474758 L 466.5588238032625 249.78203680566156 L 466.8914554841717 251.81036376483547 L 468.9516942948628 253.89583414861033 L 469.4810075311876 256.0417612959694 L 469.5862484687362 258.25175534727924 L 470.4208500303517 262.88009379133047 L 471.6489806160635 265.3075015169548 L 471.7500712042897 267.8172097545515 L 472.35266021024086 270.4149956978321 L 474.6020457948263 273.1072670437217 L 474.6977448820939 275.90115721530634 L 477.4923545011485 278.8046392690738 L 477.6736028959825 281.8266630661764 L 482.26694026286503 284.9773216530639 L 484.6236803266305 288.2680546486201 L 485.803363528055 291.7118989767182 L 486.5756970406101 295.32380081829547 L 488.2368048461533 299.1210076449746 L 490.06422820085254 303.1235663450625 L 494.4116703718618 307.35496387619634 L 495.8507304221702 311.8429623675172 L 496.42852547647016 316.62070409718154 L 496.5560864897406 321.72819827805887 L 497.6283214483641 327.21435979553314 L 498.86302517315374 333.1398656464032 L 504.5346578445391 339.58125722884733 L 505.9976865007727 346.63700339852284 L 508.5553225507548 354.43676892528987 L 508.70803392242095 363.15616494774457 L 510.31055516198694 373.04140085828635 L 511.0942737898323 384.45306822663076 L 513.7044719419644 397.95020597874986 L 514.1197989072527 414.4693675279716 L 515.8389092439076 435.76627080685773 L 519.786834394946 465.7825701081986 L 523.1937109029635 517.0957726884257" stroke-linejoin="bevel" stroke-miterlimit="10"/><path fill="none" stroke="none"/><path fill="none" stroke="blue" paint-order="fill stroke markers" d=" M 549.2272727272727 NaN" stroke-linejoin="bevel" stroke-miterlimit="10"/></g></g></g><g clip-path="url(#pOVZvfHVwodd)"><g><g><path fill="none" stroke="none"/><path fill="none" stroke="red" paint-order="fill stroke markers" d=" M 133.7727272727273 30.68181818181813 L 133.7727272727273 31.47589925425484 L 171.0853407389505 32.42547412630347 L 192.91182042059432 33.53649001995154 L 208.39795420517373 34.51304495987597 L 220.4099327736235 35.42605924049917 L 230.22443388681756 36.27299758041977 L 238.52247634196186 36.895096223612995 L 245.71056767139692 37.28657943575104 L 252.05091356846137 37.99650893189266 L 257.72254623984674 38.47360598317255 L 262.8531620717717 39.034133399084226 L 267.53704735304075 39.598937359773004 L 271.84580413078584 39.923627805247406 L 275.8350898081851 40.74163947524016 L 279.5490259214905 41.652016886371825 L 283.02318113762016 42.40528932801942 L 286.28664832585173 43.166305425604605 L 289.3635270346846 43.59249717783507 L 292.27400461438253 43.935226044133515 L 295.0351597060699 44.27954900391637 L 297.66156948982893 44.62548095533475 L 300.16577553799493 45.409789322721736 L 302.55864602959525 45.76105595043373 L 304.84966081926393 46.202496154698565 L 307.0471382745197 46.46862934567412 L 309.158417597009 47.00378326334362 L 311.1900067163284 47.18303105768382 L 313.1477032744083 47.99506080347669 L 315.0366943701808 48.632855665761326 L 316.86163938771375 48.724419441064015 L 318.62673923798195 49.183944832728685 L 320.3357946038434 49.55363000994748 L 321.9922552196387 50.205054854786454 L 323.5992617920749 50.67389304559981 L 325.15968184285805 51.05111323960398 L 326.67614050090776 51.145719390364206 L 328.15104707475587 51.811369501735044 L 329.5866180806057 52.09849062272042 L 330.98489727865285 53.06368425471612 L 332.3477731722931 53.648899182884634 L 333.6769943462312 54.140137235557404 L 334.9741829560521 54.535488257405746 L 336.24084663031715 55.13250200027096 L 337.4783890042181 56.03714832367905 L 338.6881190693575 56.442789354469255 L 341.02895405916763 56.952986431727595 L 342.1622742854872 57.46672411383145 L 343.2722254111965 57.984051885725194 L 344.3597517407429 58.71443852960164 L 345.4257414737187 59.13506070035885 L 346.4710310632323 59.45210316735415 L 348.5026201825516 59.983543374237 L 349.4903675726679 60.1971923043302 L 350.4603167406315 60.84186374753676 L 351.41309776224955 61.49219855559579 L 352.34930783640397 62.14829711506712 L 353.2695135333303 62.58894902859379 L 354.174252853937 62.81026250551474 L 355.0640371189091 63.47820059670062 L 355.93935270420513 63.8144432772292 L 356.80066263769595 64.15222015020447 L 357.6484080700665 64.37826399879128 L 358.483009631682 65.1748975436754 L 359.30486868586195 65.6339954671181 L 360.11436848791305 66.32802526501104 L 361.69773917746227 67.0286232658313 L 362.47229530908135 67.26363712318891 L 363.23586445782513 67.4993994335847 L 363.988753967131 68.33053105095678 L 364.73125846195296 68.45002954808223 L 365.46366054097916 68.809686787783 L 366.18623142238675 69.29196408236277 L 366.89923154682896 70.63465930946609 L 367.6029111410063 70.88142388093411 L 368.29751074487604 71.12901375350816 L 368.9832617052789 71.50195813367264 L 369.66038663851634 71.62669161372054 L 370.3290998641954 72.00215802921025 L 370.98960781245444 72.25353111588117 L 371.64210940650656 72.63219845247806 L 372.9238538267479 73.26764701417778 L 373.5534600965404 73.52336161349666 L 374.1757875180478 74.16653944636323 L 374.79100247044136 74.55514560326014 L 375.39926569267595 75.33853178015454 L 376.00073253558077 75.73335566480648 L 376.5955532000204 76.13029657772381 L 377.1838729620417 76.39611123636757 L 377.765832385849 76.9306211605712 L 378.3415675253909 77.87540175091038 L 378.9112101152787 78.28402819537575 L 379.47488775171036 78.97012488475377 L 380.0327240640183 79.52361757822052 L 380.5848388774197 80.3616941088577 L 381.1313483675058 80.78431734740803 L 381.67236520696616 81.06741254094487 L 382.7383549399419 81.35159447493271 L 383.2635368852125 81.49409558321628 L 383.7836445294555 81.77992336259814 L 384.2987749907251 81.92325216418504 L 384.80902262534073 82.35491113002723 L 385.314479131618 82.93439982596266 L 385.81523364877484 83.07998355605702 L 386.3113728512797 83.66519848422547 L 386.8029810388911 83.95954997697578 L 387.29014022262294 84.25507652870016 L 387.7729302068547 84.40328339080327 L 388.25142866779254 84.99909588579169 L 388.7257112284728 85.4491234290906 L 389.19585153049144 85.59974261206509 L 389.6619213026272 86.05344762501994 L 390.1239904265199 86.66274573857106 L 390.5821269995535 86.96928573306849 L 391.03639739508634 87.27710032580279 L 391.4868663201602 87.74123540661833 L 391.9335968708161 88.83566953227364 L 392.37665058513227 89.62743432984297 L 392.8160874940982 90.10659006666913 L 393.25196617042843 90.58886736124896 L 393.6843437754159 91.23683038547455 L 394.1132761039192 91.39971120562655 L 394.5388176275704 91.56295118995064 L 394.96102153628976 91.72655192591458 L 395.3799397781842 92.05484205546719 L 395.79562309790526 92.8819937097785 L 396.20812107353765 93.04853889339597 L 396.61748215208513 93.88693180547608 L 397.0237536836171 94.39456330013212 L 397.42698195413624 94.7349285107203 L 397.82721221722466 95.24842862436049 L 398.22448872452134 95.76551549661298 L 399.0103526436855 95.93868353556172 L 399.39902380807996 96.63543505904067 L 399.7849087753045 96.81065242579638 L 400.1680472070347 97.8707560241545 L 400.5484779240483 98.22752443945728 L 400.92623892983016 99.12704100949634 L 401.3013674333542 99.30826338370372 L 401.67389987107697 99.67204447394136 L 402.04387192817615 100.22109002819462 L 402.4113185590635 100.5893957774091 L 402.7762740072023 100.77423807792195 L 403.49884488860994 100.95954306302366 L 403.85652542324215 101.89309014920161 L 404.21184501305214 102.6484977538189 L 404.56483462158576 103.79626187502458 L 404.9155246072295 104.57144490460104 L 405.2639447388782 104.96210176311166 L 405.61012421109933 105.74965496614726 L 405.9540916588122 105.94785937609896 L 406.29587517150213 106.34586733961487 L 406.63550230698456 107.14836086619158 L 407.3083950988298 107.35035090390613 L 407.6417133304186 107.95964901745714 L 407.97298035990343 108.36865173128018 L 408.3022212786776 108.98642418609472 L 408.6294607205349 109.81822285731818 L 408.9547228727298 110.23765345746824 L 409.2780314867048 110.65947398846373 L 409.59940988849854 110.87128901964815 L 410.23646729297116 111.29674595446409 L 410.8660735627636 111.72466219157644 L 411.1781365956086 111.939551465526 L 411.7968873437543 112.80540113582282 L 412.1036159366645 113.02345520480071 L 412.7118791588992 113.24215345217056 L 413.01345262221133 113.46149969529415 L 413.313346001804 113.68149778556636 L 413.90816666624363 113.90215160882082 L 414.2031302667761 114.12346508574171 L 414.49648642826486 115.01539518713264 L 414.78825257565205 115.91820275287756 L 415.3670831248961 116.37376913145596 L 415.65418099161406 116.83215637245388 L 416.22382358150196 117.06241877549911 L 416.7875012179336 117.29339962714369 L 417.06714196321747 117.75753470795928 L 417.34533753024147 117.99069805943134 L 417.62210277954904 118.4592395152307 L 417.89745234364284 119.88292383246647 L 418.44396183372896 120.12288936801008 L 418.715149925716 120.6051666625898 L 418.9849786731893 120.84748865602523 L 419.25346163578007 121.33452530017718 L 419.5206121712372 121.57925049129148 L 419.78644343941534 122.07114135680803 L 420.3141998471274 122.81516071389962 L 420.5761503514357 123.06483819473681 L 421.6113884569483 123.31536060943728 L 421.86711683532815 123.81896325150893 L 422.1216360915639 124.32601525362384 L 422.3749576056922 124.58084959440487 L 422.62709259784117 124.83656419372375 L 422.8780521312134 125.09316515391066 L 423.37648830721656 125.60905088548424 L 423.6239863175029 125.86834818348723 L 423.87035160982003 126.12855689741622 L 424.3597251839102 126.38968345703347 L 424.6027536888461 126.65173436038157 L 425.08554367307795 126.91471617475463 L 425.5640421340157 127.44349915795084 L 425.8017057536672 127.97608636796969 L 426.038324694696 128.24382374079823 L 426.27390810094136 128.51253293925174 L 426.74200428887326 128.78222104405035 L 426.97453476885045 129.05289521358242 L 427.2060651146406 129.59723077560278 L 427.6661595600638 130.4213131580426 L 427.8947404657768 131.25467246007833 L 428.3490108613095 131.53455673635438 L 428.5747165270258 131.81550319459188 L 428.79947978638336 132.097519927635 L 429.0233084764754 132.95007410527853 L 429.2462103370393 133.81256117636542 L 429.90943091209266 134.3931861362841 L 430.1287009603214 134.6852153232419 L 430.34708147244106 134.97840106445244 L 430.7812025543736 135.2727525572028 L 430.9969572416391 135.5682791089272 L 431.21185063045573 136.1628951804056 L 431.4258895701424 136.46200388183883 L 431.63908082863964 137.67067241034215 L 431.85143109379356 137.97594831879803 L 432.06294697461493 138.28248831329546 L 432.273635002513 138.59030290602988 L 433.31488066591487 139.20979859558634 L 433.52073453976084 140.1488721125006 L 433.7258042064728 140.46456258192677 L 433.9300956183083 141.1000111436266 L 434.1336146600137 141.41979264689616 L 434.3363671498403 141.74096149291722 L 434.538358840543 142.0635297718801 L 434.7395954203595 142.71291378585357 L 435.13982568344784 143.36804463569422 L 435.3388304291708 143.69779708690731 L 435.5371021907446 144.0290249454984 L 435.7346463478874 144.36174147362294 L 436.1275730735641 145.03169448847353 L 436.32296610990863 145.36895841073903 L 436.71163727430314 146.3900684327969 L 436.904925533716 147.07871807684 L 437.09752224152766 147.42546017630247 L 437.28943232860314 147.77383400930012 L 437.4806606732579 148.1238550060233 L 437.6712121020021 149.18395860438147 L 437.86109139027155 150.2594637614368 L 438.23885239605346 150.98524705416838 L 438.42674341546575 151.350824601518 L 438.6139808995774 151.71821643692869 L 438.80056937897615 152.08744065814898 L 438.9865133373002 152.45851563507603 L 439.1718172118853 153.20629272942864 L 439.35648539439944 153.5830329974491 L 439.54052223146783 153.96170033404587 L 439.7239320252867 154.34231455496462 L 440.08888747342553 154.72489578317436 L 440.4513852904817 155.49604132793104 L 441.5244584792754 156.2753043433387 L 441.70124261980527 157.0628575463744 L 441.877448087809 157.45979845929173 L 442.22813807345267 157.85887922574204 L 442.40263003307956 158.26012304213913 L 443.0949961360295 159.06919451492325 L 443.43786813859214 159.4770704937987 L 443.6084886377254 159.887206184916 L 443.7785700506548 160.2996267663217 L 443.94811577320775 161.13142543754515 L 444.28561357096277 161.55085603769527 L 444.95432679664185 161.97267656869076 L 445.12021513257827 162.39691442251274 L 445.28559382612667 162.8235974647842 L 445.6148347449008 163.25275404575297 L 445.94207418675813 164.1186037160499 L 446.26733633895293 164.55535603239753 L 446.42923337048995 165.43666766596874 L 446.590644952928 165.88128944031462 L 446.75157398880924 166.3285977673596 L 446.9120233547217 166.77862531065847 L 447.0719959016077 167.23140533310453 L 447.2314944550676 167.686971711683 L 447.54908075919434 168.14535895268085 L 448.1786870289869 168.60660220737066 L 448.3349446783585 169.07073728818625 L 448.4907500618318 169.53780068540783 L 448.8010144504943 170.48086188326766 L 449.2630835743869 170.95693621141083 L 449.5689407745539 171.43609194823705 L 449.7212201474205 172.40380903404986 L 449.8730699587213 172.8924530715185 L 450.1754905429533 173.3843439370351 L 450.6259594680272 174.3780407749639 L 450.7752819560377 174.87993627633517 L 451.0726900186831 175.38525771207998 L 451.22078013246687 175.89405217463184 L 452.39105931829545 176.40636773413775 L 452.6796965911193 176.92225346571132 L 453.1097712282393 177.9649369406086 L 453.2523692517862 178.49183811791255 L 453.39459052978566 179.02251639682163 L 453.53643704772514 179.55702632102515 L 454.5190329260513 180.09542362427732 L 455.0725670827196 180.63776526527158 L 455.34721422140467 181.1841094638021 L 455.48401409784964 181.73451573826964 L 455.75657529995215 182.28904494459158 L 456.02776339193923 182.84775931658135 L 456.4320010042745 183.41072250786203 L 457.7579479029516 183.97799963538677 L 458.2793149074027 184.5496573246391 L 458.79568071244154 185.1257637565925 L 459.17973030155133 185.70638871651107 L 459.30714035490166 186.29160364467953 L 459.6875710719154 186.88148168915416 L 459.81378618814364 188.07552858954466 L 460.44046058122126 188.679852785474 L 460.81299301894404 189.289150899025 L 460.9365997837261 189.90350548625685 L 461.1829650760433 190.52300117581342 L 462.5181810962941 191.1477247388861 L 462.9956185711092 191.77776516215386 L 463.11431921989043 192.41321372385363 L 463.23275870091663 193.05416407314436 L 463.3509381609192 193.70071231293605 L 463.46885873909343 194.35295708636863 L 464.17100855159737 195.01099966713429 L 464.28714823507363 195.67494405384997 L 464.4030378867452 196.34489706870056 L 465.5484156161749 197.02096846058618 L 465.9998289316035 197.70327101302388 L 466.33592194269863 200.49716118460856 L 466.7808064782857 201.2124257140344 L 466.8914554841717 201.93466854415777 L 467.87719310287486 202.66402718174504 L 467.9856135270597 203.400643238376 L 468.41712463457173 204.14466259546754 L 469.1640445600168 204.89623557767607 L 469.3755604408381 205.65551713519164 L 469.9007423861087 206.42266703547858 L 470.00516671063065 207.1978500650551 L 470.7305194696344 207.98123624194943 L 471.24270908453155 209.57332562236604 L 471.7500712042897 210.38239709515028 L 472.1525457700784 211.20040876514292 L 472.5520334841125 212.02756041945423 L 472.75067106157394 212.86405861792224 L 473.2440816875311 214.56595662598005 L 473.9273457235191 215.43180629627687 L 474.6020457948263 217.19449202054165 L 474.7932741394811 219.00017429191013 L 475.55146586227664 219.91980478759785 L 475.64549334890904 220.85100326563492 L 475.739356881689 221.79406446349464 L 475.92659436580067 223.71701161427688 L 476.5768439581619 224.69754651726208 L 476.9449187078384 225.69124335519086 L 477.31049377949347 226.698460292307 L 477.4015009396487 227.71957031436477 L 477.6736028959825 229.80504069813946 L 477.7639987567049 230.87022890125223 L 478.0342791023042 231.95096784549855 L 478.21371500981644 234.16096189680837 L 478.30320916577494 235.2912022156138 L 480.4076096022527 236.43896633681953 L 480.5793185912587 237.60480622490655 L 481.091183516878 241.21670806648393 L 481.1760231284666 242.460927319113 L 481.260729239431 243.7264163040806 L 481.598227037186 245.01391489316296 L 481.8499689881629 246.32420224736126 L 482.43282859880145 247.65809964892748 L 484.0641874550324 249.01647359325085 L 484.1444719179534 250.40023916975406 L 484.38460936783093 251.81036376483547 L 484.46441771812084 253.24787112438486 L 484.70313528188274 256.2094381579032 L 485.0197875032496 257.7358696157057 L 485.41300124880837 259.2944388221765 L 486.5756970406101 262.51361134537007 L 487.8637560738255 264.1772611981493 L 488.75476768344157 265.8791592062071 L 489.5587716945753 267.6211055262475 L 490.1360503895061 269.4050304711126 L 490.27940792406054 271.23300736782477 L 490.70720399600896 273.1072670437217 L 491.202040122482 275.0302141945039 L 492.5226792760893 277.0044459354179 L 492.6598276876279 279.0327728945918 L 494.3453355237752 281.11824327836655 L 495.7861464643209 283.26417042572564 L 498.06369650432333 285.47416447703546 L 499.7107706055244 287.7521689170465 L 500.07004261149876 290.1025029210866 L 504.47970049172034 292.52991064671085 L 505.3523554266122 295.03961888430763 L 505.62218417408553 297.6374048275882 L 507.5260230764369 300.3296761734778 L 507.9916449143231 303.1235663450625 L 508.1973021746306 306.02704839882995 L 509.4651592363016 309.0490721959325 L 510.7038407280468 312.19973078282 L 511.626536954599 315.4904637783761 L 511.96253007114996 318.9343081064743 L 514.4406300458604 322.5462099480516 L 514.5775459036736 326.3434167747307 L 515.1668565398063 330.34597547481854 L 516.0167152599349 334.5773730059529 L 516.6344516403105 339.0653714972739 L 517.3751531534565 343.8431132269382 L 518.7001524755111 348.95060740781565 L 518.7845266658419 354.43676892528987 L 520.0756929315932 360.36227477616 L 520.2400616773473 366.80366635860355 L 521.0140316698605 373.8594125282791 L 522.2534123677574 381.65917805504614 L 522.7647785744603 390.37857407750084 L 524.8384008667954 400.26380998804257 L 525.8460070649132 411.675477356387 L 526.6897085711723 425.1726151085061 L 529.7665872800051 441.6917766577278 L 530.8217917245759 462.988679936614 L 534.1229187160923 493.00497923795484 L 545.5355676415347 544.3181818181819" stroke-linejoin="bevel" stroke-miterlimit="10"/><path fill="none" stroke="none"/></g></g></g><g clip-path="url(#xkSzTwhtFUJN)"><g><g/><g><path fill="#ffffff" stroke="#e5e5e5" paint-order="fill stroke markers" d=" M 123 475 L 255 475 L 255 560 L 123 560 L 123 475 Z" fill-opacity="0.95" stroke-linejoin="bevel" stroke-miterlimit="10" stroke-opacity="0.5"/><text fill="#444444" stroke="none" font-family="helvetica" font-size="22pt" font-style="normal" font-weight="normal" text-decoration="normal" x="158" y="500.5" text-anchor="start" dominant-baseline="central">male</text><g><path fill="none" stroke="blue" paint-order="fill stroke markers" d=" M 133 495 L 153 495" stroke-linejoin="bevel" stroke-miterlimit="10"/></g><text fill="#444444" stroke="none" font-family="helvetica" font-size="22pt" font-style="normal" font-weight="normal" text-decoration="normal" x="158" y="534.5" text-anchor="start" dominant-baseline="central">female</text><g><path fill="none" stroke="red" paint-order="fill stroke markers" d=" M 133 529 L 153 529" stroke-linejoin="bevel" stroke-miterlimit="10"/></g></g></g></g><g/><g/><g><g fill="#444444"><path fill="none" stroke="black" paint-order="fill stroke markers" d=" M 113 570 L 570 570" stroke-linejoin="bevel" stroke-miterlimit="10"/><path fill="none" stroke="black" paint-order="fill stroke markers" d=" M 134 576 L 134 568" stroke-linejoin="bevel" stroke-miterlimit="10"/><path fill="none" stroke="black" paint-order="fill stroke markers" d=" M 258 576 L 258 568" stroke-linejoin="bevel" stroke-miterlimit="10"/><path fill="none" stroke="black" paint-order="fill stroke markers" d=" M 382 576 L 382 568" stroke-linejoin="bevel" stroke-miterlimit="10"/><path fill="none" stroke="black" paint-order="fill stroke markers" d=" M 506 576 L 506 568" stroke-linejoin="bevel" stroke-miterlimit="10"/><path fill="none" stroke="black" paint-order="fill stroke markers" d=" M 115 574 L 115 570" stroke-linejoin="bevel" stroke-miterlimit="10"/><path fill="none" stroke="black" paint-order="fill stroke markers" d=" M 122 574 L 122 570" stroke-linejoin="bevel" stroke-miterlimit="10"/><path fill="none" stroke="black" paint-order="fill stroke markers" d=" M 128 574 L 128 570" stroke-linejoin="bevel" stroke-miterlimit="10"/><path fill="none" stroke="black" paint-order="fill stroke markers" d=" M 134 574 L 134 570" stroke-linejoin="bevel" stroke-miterlimit="10"/><path fill="none" stroke="black" paint-order="fill stroke markers" d=" M 134 574 L 134 570" stroke-linejoin="bevel" stroke-miterlimit="10"/><path fill="none" stroke="black" paint-order="fill stroke markers" d=" M 171 574 L 171 570" stroke-linejoin="bevel" stroke-miterlimit="10"/><path fill="none" stroke="black" paint-order="fill stroke markers" d=" M 193 574 L 193 570" stroke-linejoin="bevel" stroke-miterlimit="10"/><path fill="none" stroke="black" paint-order="fill stroke markers" d=" M 208 574 L 208 570" stroke-linejoin="bevel" stroke-miterlimit="10"/><path fill="none" stroke="black" paint-order="fill stroke markers" d=" M 220 574 L 220 570" stroke-linejoin="bevel" stroke-miterlimit="10"/><path fill="none" stroke="black" paint-order="fill stroke markers" d=" M 230 574 L 230 570" stroke-linejoin="bevel" stroke-miterlimit="10"/><path fill="none" stroke="black" paint-order="fill stroke markers" d=" M 239 574 L 239 570" stroke-linejoin="bevel" stroke-miterlimit="10"/><path fill="none" stroke="black" paint-order="fill stroke markers" d=" M 246 574 L 246 570" stroke-linejoin="bevel" stroke-miterlimit="10"/><path fill="none" stroke="black" paint-order="fill stroke markers" d=" M 252 574 L 252 570" stroke-linejoin="bevel" stroke-miterlimit="10"/><path fill="none" stroke="black" paint-order="fill stroke markers" d=" M 258 574 L 258 570" stroke-linejoin="bevel" stroke-miterlimit="10"/><path fill="none" stroke="black" paint-order="fill stroke markers" d=" M 258 574 L 258 570" stroke-linejoin="bevel" stroke-miterlimit="10"/><path fill="none" stroke="black" paint-order="fill stroke markers" d=" M 295 574 L 295 570" stroke-linejoin="bevel" stroke-miterlimit="10"/><path fill="none" stroke="black" paint-order="fill stroke markers" d=" M 317 574 L 317 570" stroke-linejoin="bevel" stroke-miterlimit="10"/><path fill="none" stroke="black" paint-order="fill stroke markers" d=" M 332 574 L 332 570" stroke-linejoin="bevel" stroke-miterlimit="10"/><path fill="none" stroke="black" paint-order="fill stroke markers" d=" M 344 574 L 344 570" stroke-linejoin="bevel" stroke-miterlimit="10"/><path fill="none" stroke="black" paint-order="fill stroke markers" d=" M 354 574 L 354 570" stroke-linejoin="bevel" stroke-miterlimit="10"/><path fill="none" stroke="black" paint-order="fill stroke markers" d=" M 362 574 L 362 570" stroke-linejoin="bevel" stroke-miterlimit="10"/><path fill="none" stroke="black" paint-order="fill stroke markers" d=" M 370 574 L 370 570" stroke-linejoin="bevel" stroke-miterlimit="10"/><path fill="none" stroke="black" paint-order="fill stroke markers" d=" M 376 574 L 376 570" stroke-linejoin="bevel" stroke-miterlimit="10"/><path fill="none" stroke="black" paint-order="fill stroke markers" d=" M 382 574 L 382 570" stroke-linejoin="bevel" stroke-miterlimit="10"/><path fill="none" stroke="black" paint-order="fill stroke markers" d=" M 382 574 L 382 570" stroke-linejoin="bevel" stroke-miterlimit="10"/><path fill="none" stroke="black" paint-order="fill stroke markers" d=" M 419 574 L 419 570" stroke-linejoin="bevel" stroke-miterlimit="10"/><path fill="none" stroke="black" paint-order="fill stroke markers" d=" M 441 574 L 441 570" stroke-linejoin="bevel" stroke-miterlimit="10"/><path fill="none" stroke="black" paint-order="fill stroke markers" d=" M 456 574 L 456 570" stroke-linejoin="bevel" stroke-miterlimit="10"/><path fill="none" stroke="black" paint-order="fill stroke markers" d=" M 468 574 L 468 570" stroke-linejoin="bevel" stroke-miterlimit="10"/><path fill="none" stroke="black" paint-order="fill stroke markers" d=" M 478 574 L 478 570" stroke-linejoin="bevel" stroke-miterlimit="10"/><path fill="none" stroke="black" paint-order="fill stroke markers" d=" M 486 574 L 486 570" stroke-linejoin="bevel" stroke-miterlimit="10"/><path fill="none" stroke="black" paint-order="fill stroke markers" d=" M 494 574 L 494 570" stroke-linejoin="bevel" stroke-miterlimit="10"/><path fill="none" stroke="black" paint-order="fill stroke markers" d=" M 500 574 L 500 570" stroke-linejoin="bevel" stroke-miterlimit="10"/><path fill="none" stroke="black" paint-order="fill stroke markers" d=" M 506 574 L 506 570" stroke-linejoin="bevel" stroke-miterlimit="10"/><path fill="none" stroke="black" paint-order="fill stroke markers" d=" M 506 574 L 506 570" stroke-linejoin="bevel" stroke-miterlimit="10"/><path fill="none" stroke="black" paint-order="fill stroke markers" d=" M 543 574 L 543 570" stroke-linejoin="bevel" stroke-miterlimit="10"/><path fill="" stroke="black" paint-order="fill stroke markers" d=" M 565 574 L 565 570" stroke-linejoin="bevel" stroke-miterlimit="10"/><g transform="translate(134,581) rotate(0,0,0)"><text fill="" stroke="none" font-family="helvetica" font-size="26px" font-style="normal" font-weight="normal" text-decoration="normal" x="0" y="0" text-anchor="middle" dominant-baseline="hanging">10^0</text><g transform="rotate(0,0,0) translate(-134,-581) translate(258,581) rotate(0,0,0)"><text fill="" stroke="none" font-family="helvetica" font-size="26px" font-style="normal" font-weight="normal" text-decoration="normal" x="0" y="0" text-anchor="middle" dominant-baseline="hanging">10^1</text><g transform="rotate(0,0,0) translate(-258,-581) translate(382,581) rotate(0,0,0)"><text fill="" stroke="none" font-family="helvetica" font-size="26px" font-style="normal" font-weight="normal" text-decoration="normal" x="0" y="0" text-anchor="middle" dominant-baseline="hanging">10^2</text><g transform="rotate(0,0,0) translate(-382,-581) translate(506,581) rotate(0,0,0)"><text fill="" stroke="none" font-family="helvetica" font-size="26px" font-style="normal" font-weight="normal" text-decoration="normal" x="0" y="0" text-anchor="middle" dominant-baseline="hanging">10^3</text><g transform="rotate(0,0,0) translate(-506,-581)"/></g></g></g></g></g></g><g><g fill="#444444"><path fill="none" stroke="black" paint-order="fill stroke markers" d=" M 113 570 L 113 5" stroke-linejoin="bevel" stroke-miterlimit="10"/><path fill="none" stroke="black" paint-order="fill stroke markers" d=" M 107 537 L 115 537" stroke-linejoin="bevel" stroke-miterlimit="10"/><path fill="none" stroke="black" paint-order="fill stroke markers" d=" M 107 366 L 115 366" stroke-linejoin="bevel" stroke-miterlimit="10"/><path fill="none" stroke="black" paint-order="fill stroke markers" d=" M 107 196 L 115 196" stroke-linejoin="bevel" stroke-miterlimit="10"/><path fill="none" stroke="black" paint-order="fill stroke markers" d=" M 107 26 L 115 26" stroke-linejoin="bevel" stroke-miterlimit="10"/><path fill="none" stroke="black" paint-order="fill stroke markers" d=" M 109 563 L 113 563" stroke-linejoin="bevel" stroke-miterlimit="10"/><path fill="none" stroke="black" paint-order="fill stroke markers" d=" M 109 553 L 113 553" stroke-linejoin="bevel" stroke-miterlimit="10"/><path fill="none" stroke="black" paint-order="fill stroke markers" d=" M 109 545 L 113 545" stroke-linejoin="bevel" stroke-miterlimit="10"/><path fill="none" stroke="black" paint-order="fill stroke markers" d=" M 109 537 L 113 537" stroke-linejoin="bevel" stroke-miterlimit="10"/><path fill="none" stroke="black" paint-order="fill stroke markers" d=" M 109 537 L 113 537" stroke-linejoin="bevel" stroke-miterlimit="10"/><path fill="none" stroke="black" paint-order="fill stroke markers" d=" M 109 486 L 113 486" stroke-linejoin="bevel" stroke-miterlimit="10"/><path fill="none" stroke="black" paint-order="fill stroke markers" d=" M 109 456 L 113 456" stroke-linejoin="bevel" stroke-miterlimit="10"/><path fill="none" stroke="black" paint-order="fill stroke markers" d=" M 109 434 L 113 434" stroke-linejoin="bevel" stroke-miterlimit="10"/><path fill="none" stroke="black" paint-order="fill stroke markers" d=" M 109 418 L 113 418" stroke-linejoin="bevel" stroke-miterlimit="10"/><path fill="none" stroke="black" paint-order="fill stroke markers" d=" M 109 404 L 113 404" stroke-linejoin="bevel" stroke-miterlimit="10"/><path fill="none" stroke="black" paint-order="fill stroke markers" d=" M 109 393 L 113 393" stroke-linejoin="bevel" stroke-miterlimit="10"/><path fill="none" stroke="black" paint-order="fill stroke markers" d=" M 109 383 L 113 383" stroke-linejoin="bevel" stroke-miterlimit="10"/><path fill="none" stroke="black" paint-order="fill stroke markers" d=" M 109 374 L 113 374" stroke-linejoin="bevel" stroke-miterlimit="10"/><path fill="none" stroke="black" paint-order="fill stroke markers" d=" M 109 366 L 113 366" stroke-linejoin="bevel" stroke-miterlimit="10"/><path fill="none" stroke="black" paint-order="fill stroke markers" d=" M 109 366 L 113 366" stroke-linejoin="bevel" stroke-miterlimit="10"/><path fill="none" stroke="black" paint-order="fill stroke markers" d=" M 109 315 L 113 315" stroke-linejoin="bevel" stroke-miterlimit="10"/><path fill="none" stroke="black" paint-order="fill stroke markers" d=" M 109 285 L 113 285" stroke-linejoin="bevel" stroke-miterlimit="10"/><path fill="none" stroke="black" paint-order="fill stroke markers" d=" M 109 264 L 113 264" stroke-linejoin="bevel" stroke-miterlimit="10"/><path fill="none" stroke="black" paint-order="fill stroke markers" d=" M 109 247 L 113 247" stroke-linejoin="bevel" stroke-miterlimit="10"/><path fill="none" stroke="black" paint-order="fill stroke markers" d=" M 109 234 L 113 234" stroke-linejoin="bevel" stroke-miterlimit="10"/><path fill="none" stroke="black" paint-order="fill stroke markers" d=" M 109 222 L 113 222" stroke-linejoin="bevel" stroke-miterlimit="10"/><path fill="none" stroke="black" paint-order="fill stroke markers" d=" M 109 213 L 113 213" stroke-linejoin="bevel" stroke-miterlimit="10"/><path fill="none" stroke="black" paint-order="fill stroke markers" d=" M 109 204 L 113 204" stroke-linejoin="bevel" stroke-miterlimit="10"/><path fill="none" stroke="black" paint-order="fill stroke markers" d=" M 109 196 L 113 196" stroke-linejoin="bevel" stroke-miterlimit="10"/><path fill="none" stroke="black" paint-order="fill stroke markers" d=" M 109 196 L 113 196" stroke-linejoin="bevel" stroke-miterlimit="10"/><path fill="none" stroke="black" paint-order="fill stroke markers" d=" M 109 145 L 113 145" stroke-linejoin="bevel" stroke-miterlimit="10"/><path fill="none" stroke="black" paint-order="fill stroke markers" d=" M 109 115 L 113 115" stroke-linejoin="bevel" stroke-miterlimit="10"/><path fill="none" stroke="black" paint-order="fill stroke markers" d=" M 109 93 L 113 93" stroke-linejoin="bevel" stroke-miterlimit="10"/><path fill="none" stroke="black" paint-order="fill stroke markers" d=" M 109 77 L 113 77" stroke-linejoin="bevel" stroke-miterlimit="10"/><path fill="none" stroke="black" paint-order="fill stroke markers" d=" M 109 63 L 113 63" stroke-linejoin="bevel" stroke-miterlimit="10"/><path fill="none" stroke="black" paint-order="fill stroke markers" d=" M 109 52 L 113 52" stroke-linejoin="bevel" stroke-miterlimit="10"/><path fill="none" stroke="black" paint-order="fill stroke markers" d=" M 109 42 L 113 42" stroke-linejoin="bevel" stroke-miterlimit="10"/><path fill="none" stroke="black" paint-order="fill stroke markers" d=" M 109 33 L 113 33" stroke-linejoin="bevel" stroke-miterlimit="10"/><path fill="none" stroke="black" paint-order="fill stroke markers" d=" M 109 26 L 113 26" stroke-linejoin="bevel" stroke-miterlimit="10"/><path fill="" stroke="black" paint-order="fill stroke markers" d=" M 109 26 L 113 26" stroke-linejoin="bevel" stroke-miterlimit="10"/><g transform="translate(102,537) rotate(0,0,0)"><text fill="" stroke="none" font-family="helvetica" font-size="26px" font-style="normal" font-weight="normal" text-decoration="normal" x="0" y="0" text-anchor="end" dominant-baseline="central">10^-3</text><g transform="rotate(0,0,0) translate(-102,-537) translate(102,366) rotate(0,0,0)"><text fill="" stroke="none" font-family="helvetica" font-size="26px" font-style="normal" font-weight="normal" text-decoration="normal" x="0" y="0" text-anchor="end" dominant-baseline="central">10^-2</text><g transform="rotate(0,0,0) translate(-102,-366) translate(102,196) rotate(0,0,0)"><text fill="" stroke="none" font-family="helvetica" font-size="26px" font-style="normal" font-weight="normal" text-decoration="normal" x="0" y="0" text-anchor="end" dominant-baseline="central">10^-1</text><g transform="rotate(0,0,0) translate(-102,-196) translate(102,26) rotate(0,0,0)"><text fill="" stroke="none" font-family="helvetica" font-size="26px" font-style="normal" font-weight="normal" text-decoration="normal" x="0" y="0" text-anchor="end" dominant-baseline="central">10^0</text><g transform="rotate(0,0,0) translate(-102,-26) translate(26,288) rotate(-90,0,0)"><text fill="" stroke="none" font-family="helvetica" font-size="26pt" font-style="italic" font-weight="normal" text-decoration="normal" x="0" y="0" text-anchor="middle" dominant-baseline="alphabetic">CCDF</text><g transform="rotate(90,0,0) translate(-26,-288)"/></g></g></g></g></g></g></g><g clip-path="url(#qWzOExzIwIbx)"><g/></g><g clip-path="url(#rbOsOcwTtCoc)"><g/></g></g></g></svg>