<svg version="1.1" xmlns="http://www.w3.org/2000/svg" xmlns:xlink="http://www.w3.org/1999/xlink" width="600" height="600" style="width: 600px; height: 600px;"><defs><clipPath id="KZxQeDnyDvPP"><path fill="none" stroke="none" d=" M 113 5 L 570 5 L 570 570 L 113 570 L 113 5 Z"/></clipPath><clipPath id="baKXmhkqdElM"><path fill="none" stroke="none" d=" M 113 5 L 570 5 L 570 570 L 113 570 L 113 5 Z"/></clipPath><clipPath id="NyOySwAXQrTt"><path fill="none" stroke="none" d=" M 113 5 L 570 5 L 570 570 L 113 570 L 113 5 Z"/></clipPath><clipPath id="AZelEZvlIJmp"><path fill="none" stroke="none" d=" M 113 5 L 570 5 L 570 570 L 113 570 L 113 5 Z"/></clipPath><clipPath id="lKtJWkwxABHT"><path fill="none" stroke="none" d=" M 113 5 L 570 5 L 570 570 L 113 570 L 113 5 Z"/></clipPath><clipPath id="DtiPamVlkaAp"><path fill="none" stroke="none" d=" M 113 5 L 570 5 L 570 570 L 113 570 L 113 5 Z"/></clipPath><clipPath id="pNGvbXbeSCVV"><path fill="none" stroke="none" d=" M 113 5 L 570 5 L 570 570 L 113 570 L 113 5 Z"/></clipPath><clipPath id="kkPEpzkQzgeq"><path fill="none" stroke="none" d=" M 113 5 L 570 5 L 570 570 L 113 570 L 113 5 Z"/></clipPath></defs><g><g transform="scale(1,1) translate(0.5,0.5)"><rect fill="#FFFFFF" stroke="none" x="0" y="0" width="600" height="600"/><rect fill="#ffffff" stroke="none" x="0" y="0" width="600" height="600"/><rect fill="#FFFFFF" stroke="none" x="113" y="5" width="457" height="565"/><rect fill="#ffffff" stroke="none" x="113" y="5" width="457" height="565"/><g><rect fill="none" stroke="#e5e5e5" x="113" y="5" width="457" height="565" stroke-linejoin="bevel" stroke-miterlimit="10"/></g><g clip-path="url(#KZxQeDnyDvPP)"><g><g><path fill="none" stroke="#e5e5e5" paint-order="fill stroke markers" d=" M 146 570 L 146 5" stroke-linejoin="bevel" stroke-miterlimit="10"/><path fill="none" stroke="#e5e5e5" paint-order="fill stroke markers" d=" M 198 570 L 198 5" stroke-linejoin="bevel" stroke-miterlimit="10"/><path fill="none" stroke="#e5e5e5" paint-order="fill stroke markers" d=" M 249 570 L 249 5" stroke-linejoin="bevel" stroke-miterlimit="10"/><path fill="none" stroke="#e5e5e5" paint-order="fill stroke markers" d=" M 299 570 L 299 5" stroke-linejoin="bevel" stroke-miterlimit="10"/><path fill="none" stroke="#e5e5e5" paint-order="fill stroke markers" d=" M 348 570 L 348 5" stroke-linejoin="bevel" stroke-miterlimit="10"/><path fill="none" stroke="#e5e5e5" paint-order="fill stroke markers" d=" M 396 570 L 396 5" stroke-linejoin="bevel" stroke-miterlimit="10"/><path fill="none" stroke="#e5e5e5" paint-order="fill stroke markers" d=" M 443 570 L 443 5" stroke-linejoin="bevel" stroke-miterlimit="10"/><path fill="none" stroke="#e5e5e5" paint-order="fill stroke markers" d=" M 489 570 L 489 5" stroke-linejoin="bevel" stroke-miterlimit="10"/><path fill="none" stroke="#e5e5e5" paint-order="fill stroke markers" d=" M 535 570 L 535 5" stroke-linejoin="bevel" stroke-miterlimit="10"/></g></g></g><g clip-path="url(#baKXmhkqdElM)"><g><g><path fill="none" stroke="#e5e5e5" paint-order="fill stroke markers" d=" M 113 537 L 570 537" stroke-linejoin="bevel" stroke-miterlimit="10"/><path fill="none" stroke="#e5e5e5" paint-order="fill stroke markers" d=" M 113 368 L 570 368" stroke-linejoin="bevel" stroke-miterlimit="10"/><path fill="none" stroke="#e5e5e5" paint-order="fill stroke markers" d=" M 113 199 L 570 199" stroke-linejoin="bevel" stroke-miterlimit="10"/><path fill="none" stroke="#e5e5e5" paint-order="fill stroke markers" d=" M 113 31 L 570 31" stroke-linejoin="bevel" stroke-miterlimit="10"/></g></g></g><g clip-path="url(#NyOySwAXQrTt)"><g><g fill="#444444"><path fill="" stroke="none" d=""/><g transform="translate(124.31986972119923,363.20439508142067) rotate(0,0,0)"><path fill="none" stroke="none"/><text fill="" stroke="none" font-family="helvetica" font-size="20pt" font-style="normal" font-weight="normal" text-decoration="normal" x="0" y="0" text-anchor="start" dominant-baseline="text-after-edge">Female mean: 0.5005</text></g></g><g fill="#444444"><path fill="" stroke="none" d=""/><g transform="translate(124.31986972119923,328.7500700100203) rotate(0,0,0)"><path fill="none" stroke="none"/><text fill="" stroke="none" font-family="helvetica" font-size="20pt" font-style="normal" font-weight="normal" text-decoration="normal" x="0" y="0" text-anchor="start" dominant-baseline="text-after-edge">Male mean: 0.5017</text></g></g></g></g><g clip-path="url(#AZelEZvlIJmp)"><g><g><path fill="none" stroke="none"/><path fill="none" stroke="blue" paint-order="fill stroke markers" d=" M 133.77272727272714 30.71133560060298 L 161.39132713786125 30.80734937799855 L 216.9546442504258 30.903489075138054 L 221.0710433458732 30.99975502273685 L 226.60501983851157 31.09614755281484 L 230.46164897964383 31.192666998702975 L 231.39981360914555 31.289313695051078 L 236.1694644822245 31.38608797783411 L 236.81632714863605 31.482990184359096 L 237.66020367465683 31.58002065327321 L 238.73672335507007 31.677179724569214 L 243.29378746915722 31.774467739594456 L 244.29215693472136 31.871885041056203 L 245.81893481321939 31.969431973030623 L 250.63416889687286 32.06710888096882 L 250.86332558120836 32.16491611170477 L 252.97546397021773 32.2628540134624 L 255.52016634266135 32.36092293586353 L 256.6116922090828 32.45912322993479 L 257.43745628180613 32.55745524811516 L 258.12230582837833 32.655919344264476 L 259.45027357567085 32.75451587366979 L 259.5017838975966 32.85324519305368 L 259.6647477936913 32.95210766058233 L 260.7847214570289 33.051103635872664 L 262.9059644393252 33.15023348000068 L 265.2174847070709 33.24949755550904 L 265.7104113168594 33.34889622641526 L 265.8685626697335 33.44842985821958 L 268.83805914606467 33.548098817913 L 270.89326055060474 33.64790347398548 L 270.9559277131501 33.747844196434244 L 271.22384141217435 33.847921356771735 L 274.65625180300424 33.94813532803403 L 276.28518231012106 34.04848648478912 L 277.5067465675001 34.14897520314548 L 277.5500181167668 34.24960186076055 L 278.719857787333 34.35036683684882 L 278.99907976479994 34.451270512190945 L 279.8004132826842 34.552313269141905 L 280.9953942170429 34.65349549164023 L 281.0177122058772 34.75481756521617 L 281.30494511060266 34.85627987700104 L 282.13926090674096 34.957882815735616 L 282.7426782705926 35.05962677177945 L 282.91903893333057 35.161512137119644 L 284.23774417519604 35.26353930538028 L 284.80099921042256 35.3657086718307 L 285.6398674819273 35.46802063339578 L 285.760184213829 35.570475588664294 L 288.4767472541258 35.673073937898835 L 289.0923626401728 35.77581608304479 L 289.16392052946935 35.878702427739995 L 289.321719537898 35.98173337732419 L 290.4164487513764 36.08490933884866 L 290.53925202998255 36.188230721085915 L 290.794266909652 36.291697934539116 L 290.8684679319174 36.395311391452196 L 291.3283333974729 36.49907150581976 L 291.613208548487 36.60297869339627 L 292.12566284689797 36.70703337170744 L 293.58608776718006 36.811235960058866 L 294.5900336656081 36.915586879546936 L 294.9517637628446 37.02008655306895 L 295.30219881667983 37.12473540533324 L 295.8825610328672 37.229533862869744 L 296.31780800558914 37.33448235404012 L 297.36758720511045 37.43958130904866 L 297.4368941641512 37.54483115995254 L 297.74959209604646 37.65023234067269 L 297.95796120818216 37.75578528700407 L 298.04526698497403 37.861490436627264 L 298.37256558011904 37.96734822911901 L 298.4027791625789 38.07335910596248 L 298.5289846614342 38.17952351055965 L 298.83242631357416 38.28584188824141 L 299.112247553526 38.39231468627895 L 299.1548698190121 38.498942353895586 L 300.53635462491104 38.605725342277424 L 300.59747922303336 38.71266410458509 L 300.90751506732033 38.81975909596565 L 301.15948210612277 38.92701077356344 L 301.1969404048292 39.03441959653264 L 301.43181520987366 39.14198602604847 L 301.4448696916495 39.249710525319074 L 301.5531926578566 39.357593559597944 L 301.8955598358342 39.46563559619574 L 302.28707411611674 39.5738371044921 L 302.31293814087246 39.682198555948275 L 302.3540755117024 39.79072042411951 L 302.9795780290814 39.89940318466722 L 303.20942152023423 40.00824731537148 L 303.24176866001903 40.11725329614387 L 303.36199553018366 40.22642160903979 L 304.11645016370323 40.335752738271935 L 304.3101154696794 40.44524717022216 L 304.96180284515947 40.55490539345567 L 305.07514749067633 40.66472789873285 L 305.22205804285306 40.774715179023474 L 305.65379350100943 40.88486772951944 L 306.4498680472879 40.99518604764819 L 306.7525848492822 41.10567063308656 L 306.80540828598 41.21632198777377 L 306.9681201744753 41.32714061592549 L 307.4952123129744 41.43812702404762 L 308.1296611120697 41.549281720950034 L 308.3634981189738 41.6606052177608 L 308.85067060271825 41.77209802793982 L 308.8601745023517 41.883760667293814 L 308.94329898587637 41.995593653989545 L 309.16314870238386 42.107597508569484 L 309.6999988083911 42.21977275396546 L 309.70741424994367 42.33211991551366 L 309.71020421218225 42.444639520969076 L 309.94208290612903 42.557332100520966 L 310.70622115610274 42.67019818680728 L 310.95648236489717 42.78323831493026 L 311.0508208056706 42.89645302247084 L 311.15840735132474 43.00984284950516 L 311.18199034177053 43.12340833861913 L 311.25768329434516 43.23715003492407 L 311.5910534280845 43.35106848607302 L 312.03802822702426 43.465164242275705 L 312.07369052633794 43.579437856315394 L 312.6624607431778 43.69388988356411 L 313.4081338266833 43.80852088199947 L 313.5859288720371 43.923331412220705 L 313.92078210591194 44.03832203746515 L 314.4032489007221 44.15349332362473 L 314.8072704832672 44.268845839262895 L 314.97713874611804 44.384380155631334 L 315.4519536149709 44.500096846686915 L 315.68668225307204 44.61599648910885 L 315.71783804707036 44.73207966231598 L 316.3892235799018 44.848346948483936 L 316.4719878795947 44.9647989325631 L 316.94074190494064 45.08143620229555 L 316.9810462744206 45.198259348233705 L 317.0165188357804 45.31526896375772 L 317.06020368740474 45.432465645093544 L 317.1577012217665 45.5498499913316 L 317.1774052022454 45.66742260444448 L 318.27251030536047 45.78518408930631 L 318.46918899065565 45.90313505371046 L 319.2744804894363 46.021276108389316 L 319.6107720616702 46.13960786703251 L 319.6844475306147 46.258130946306665 L 320.0078443691406 46.37684596587383 L 320.06824618792194 46.49575354841204 L 320.12414321430595 46.61485431963388 L 320.4274677533718 46.734148908306906 L 320.50086989414285 46.85363794627324 L 320.581257381298 46.973322068469884 L 320.747973616966 47.09320191294853 L 320.90278068402927 47.21327812089646 L 320.90775024958884 47.33355133665714 L 321.24603678959545 47.45402220775031 L 321.33828059419824 47.574691384893526 L 321.70986541425117 47.69555952202336 L 321.92284819351323 47.816627276315785 L 322.51698835590156 47.93789530820857 L 322.587040875273 48.059364281422745 L 323.35379084777327 48.18103486298355 L 323.41678141096975 48.30290772324361 L 323.98357906749413 48.42498353590429 L 324.0182048649321 48.547262978038134 L 324.3412140430436 48.66974673011191 L 324.5326141559758 48.79243547600845 L 324.69028824386703 48.91532990305063 L 324.7945862665979 49.03843070202356 L 325.1371606436542 49.16173856719831 L 325.30182776788774 49.28525419635537 L 325.5869121105596 49.408978290808136 L 325.6492320060397 49.53291155542718 L 325.70936218476237 49.657054698663956 L 325.7402144269414 49.78140843257552 L 325.7686739959114 49.90597347284847 L 325.8923547317387 50.03075053882412 L 326.200500769927 50.15574035352347 L 326.9440643442811 50.28094364367166 L 327.0937819048104 50.40636113972448 L 327.09962812314745 50.5319935758929 L 327.2995865472092 50.65784169016911 L 327.4106237047835 50.78390622435279 L 327.9756143072759 50.91018792407738 L 328.2945704179215 51.03668753883619 L 328.33232591216574 51.163405822009395 L 329.01409685052755 51.29034353089082 L 329.0491170481339 51.41750142671481 L 329.2276043988877 51.54488027468449 L 329.36413041531944 51.6724808439983 L 329.52846707237313 51.80030390787863 L 329.5360405929522 51.928350243599766 L 329.5536489368707 52.05662063251589 L 329.72094367240464 52.18511586009038 L 329.78117685477537 52.31383671592391 L 329.80733180367315 52.44278399378413 L 329.8670968419134 52.57195849163486 L 329.8754993619855 52.7013610116652 L 330.0437620704522 52.830992360320465 L 330.2074120197021 52.96085334833185 L 330.28740558273853 53.09094479074611 L 330.3287408656279 53.221267506957474 L 330.6420012585055 53.35182232073805 L 330.8535168522618 53.48261006026871 L 331.21382240733374 53.61363155817128 L 331.37975106303526 53.744887651540125 L 331.6167411234607 53.87637918197379 L 331.7058847210715 54.008106995608046 L 332.0262711292761 54.140071943148314 L 332.09522018732355 54.27227487990217 L 332.13109794680065 54.40471666581345 L 332.4486788109131 54.53739816549523 L 332.50898974424103 54.67032024826358 L 332.5178195113989 54.80348378817246 L 333.06501323137513 54.936889664047385 L 333.27969133368674 55.07053875952056 L 333.2843593024089 55.20443196306633 L 333.4990906913155 55.3385701680362 L 333.63732477730895 55.472954272694324 L 333.69136871624846 55.607585180254546 L 333.7110405854953 55.74246379891588 L 334.2688090621242 55.877591041899564 L 334.43277007608026 56.01296782748682 L 334.4514184857 56.1485950790551 L 334.51867075619 56.28447372511664 L 334.63336013555414 56.420604699356545 L 334.6554078967149 56.55698894067132 L 334.74103909288715 56.69362739320741 L 334.9935695658352 56.830521006400545 L 335.0619983684527 56.96767073501553 L 335.21375839578343 57.10507753918614 L 335.71087888606354 57.2427423844548 L 335.84943727425167 57.380666241814765 L 335.8744664261119 57.51885008774957 L 335.93537494274324 57.65729490427543 L 336.13691559073214 57.79600167898309 L 336.2196622409008 57.93497140507975 L 336.2354211125786 58.074205081431955 L 336.783214265753 58.21370371260883 L 337.153833902335 58.35346830892502 L 337.28767864504727 58.49349988648521 L 337.60220431101413 58.63379946722813 L 337.6072268675765 58.77436807897135 L 337.64906174665737 58.91520675545644 L 337.7259506883253 59.05631653639455 L 337.83321663205766 59.19769846751274 L 338.3108916285662 59.339353600599964 L 338.3711294982952 59.4812829935546 L 338.4515072112986 59.62348771043139 L 338.4518409640758 59.76596882148965 L 338.47817826667017 59.90872740324119 L 338.655566696189 60.05176453849958 L 338.6755175482431 60.19508131642914 L 339.0231438657671 60.33867883259467 L 339.4279148364231 60.48255818901197 L 339.55045124460185 60.62672049419831 L 339.781191031793 60.77116686322387 L 340.53479673416734 60.91589841776329 L 341.1174806462912 61.0609162861482 L 341.3027347633738 61.206221603419465 L 341.45323516100325 61.3518155113814 L 341.4556699905023 61.49769915865471 L 341.5482206849078 61.64387370073126 L 341.5490902330913 61.79034030002913 L 341.63834769544155 61.93710012594761 L 341.7305726077776 62.08415435492384 L 341.7526139004842 62.23150417048873 L 341.83508220673184 62.379150763324844 L 341.98175322382036 62.52709533132321 L 342.4407637178452 62.67533907964264 L 342.44095205064696 62.82388322076781 L 342.4600894844275 62.97272897456935 L 342.4613643421753 63.12187756836357 L 342.6662310690891 63.271330236973256 L 342.9184011135309 63.42108822278925 L 342.9736000988753 63.57115277583205 L 343.1510655203925 63.72152515381464 L 343.1540634780665 63.872206622205795 L 343.4236183107588 64.02319845429389 L 343.44321138795556 64.17450193125126 L 343.5467204500435 64.32611834219972 L 343.60365723907205 64.47804898427648 L 343.72273942599827 64.63029516270046 L 343.7470213963765 64.7828581908397 L 343.7994649893162 64.9357393902796 L 343.92671779456066 65.08894009089101 L 343.9920283660771 65.24246163090032 L 344.0239808246657 65.39630535695909 L 344.0832662149867 65.55047262421522 L 344.41953679287155 65.7049647963845 L 344.5187486228939 65.85978324582277 L 344.6539967298273 66.01492935359948 L 344.6791522773128 66.1704045095712 L 344.8177925830439 66.32621011245658 L 344.9191300282829 66.48234756991195 L 345.03328516279646 66.63881829860713 L 345.1016917308807 66.79562372430325 L 345.2006875379071 66.95276528193 L 345.5269066284568 67.11024441566491 L 345.7035631872137 67.26806257901285 L 345.74091839669205 67.4262212348865 L 345.78021163663186 67.58472185568763 L 345.82220956138053 67.7435659233895 L 345.8391358359114 67.9027549296199 L 346.05675090810234 68.06229037574542 L 346.0840183214914 68.2221737729559 L 346.15680707135584 68.38240664235087 L 346.19871168615555 68.5429905150259 L 346.5961981524583 68.70392693216098 L 347.1157886423034 68.86521744510867 L 347.1766034285872 69.02686361548416 L 347.61140062072354 69.18886701525605 L 347.7756617857484 69.35122922683746 L 347.86970615989 69.51395184317983 L 347.9654091172322 69.67703646786572 L 348.063926748277 69.84048471520418 L 348.09368649551806 70.00429821032634 L 348.1218126620653 70.16847858928253 L 348.24713346063476 70.33302749914037 L 348.2753734660681 70.49794659808373 L 348.2876001013059 70.66323755551309 L 348.3080933067454 70.82890205214682 L 348.46477822668703 70.99494178012401 L 348.47301539394596 71.16135844310787 L 348.74234089791264 71.32815375639075 L 348.85939380579964 71.49532944700013 L 348.899720193268 71.66288725380616 L 349.11385348994395 71.8308289276298 L 349.35098033112996 71.99915623135297 L 349.42570789766023 72.16787094002933 L 349.50683229892365 72.33697484099667 L 349.5775105879658 72.50646973399057 L 349.74991479315554 72.67635743125908 L 349.7856478443761 72.84663975767944 L 349.821423698396 73.0173185508753 L 349.86891218790674 73.18839566133602 L 349.87648021893483 73.35987295253653 L 349.8968589026142 73.53175230105984 L 349.9163564198154 73.70403559671945 L 349.94440368441747 73.87672474268498 L 350.218923350948 74.04982165560739 L 350.52129370645 74.22332826574717 L 350.5587624788222 74.3972465171035 L 350.5937183721958 74.5715783675443 L 350.64667826177134 74.74632578893949 L 350.65971591976466 74.92149076729407 L 350.75350413778074 75.0970753028837 L 351.4247434349001 75.27308141039191 L 351.49360500250134 75.44951111904862 L 351.5364277998598 75.62636647277077 L 351.5761035219706 75.80364953030397 L 351.66043212035703 75.98136236536686 L 351.66672453553815 76.15950706679621 L 351.9594336842355 76.33808573869419 L 352.1171093664202 76.5171005005779 L 352.1197788124551 76.6965534875302 L 352.4247689252265 76.87644685035195 L 352.47113883773466 77.05678275571745 L 352.72560932694626 77.23756338633063 L 353.0196908007436 77.41879094108356 L 353.510881815078 77.60046763521711 L 353.5119634014504 77.782595700483 L 353.5691858432091 77.96517738530889 L 353.6999069453758 78.14821495496454 L 353.8718597155156 78.33171069173045 L 354.1425038163403 78.51566689506882 L 354.2636934447747 78.70008588179621 L 354.3718161236744 78.88496998625862 L 354.4388209323312 79.07032156050934 L 354.5001298634512 79.25614297448743 L 354.6021301900188 79.44243661620067 L 354.6367395577272 79.62920489190878 L 354.6374314517541 79.8164502263104 L 354.64266389394004 80.00417506273203 L 354.6561125158559 80.19238186331904 L 354.66414129316945 80.3810731092293 L 354.7210771021244 80.5702513008302 L 354.82616700465826 80.7599189578965 L 355.01961507067267 80.95007861981242 L 355.18866411089505 81.14073284577518 L 355.5736714678642 81.33188421500193 L 355.631263128066 81.52353532693894 L 355.8037705670095 81.71568880147396 L 355.8682289795155 81.90834727915075 L 355.92881025724546 82.10151342138704 L 355.9931789077657 82.29518991069506 L 356.0907082760109 82.48937945090518 L 356.24676151167546 82.68408476739211 L 356.8109211665957 82.87930860730467 L 357.05239421521065 83.07505373979825 L 357.1225793303667 83.27132295627058 L 357.2867158660272 83.46811907060038 L 357.3533666134039 83.66544491938959 L 357.55348063032847 83.86330336220857 L 357.70218406397413 84.061697281845 L 357.8943088158642 84.26062958455549 L 357.94942706655456 84.46010320032144 L 358.056291581172 84.66012108310764 L 358.0661371588975 84.86068621112503 L 358.1855331982406 85.06180158709645 L 358.23280060262516 85.26347023852685 L 358.2915525292194 85.46569521797608 L 358.3996540821698 85.66847960333695 L 358.4266967073878 85.87182649811535 L 358.4889123099932 86.07573903171618 L 358.7235556849293 86.28022035973169 L 358.9402766289053 86.48527366423474 L 358.96895354194544 86.69090215407584 L 358.9985365951102 86.89710906518462 L 359.12171390111655 87.10389766087508 L 359.14738164669615 87.31127123215566 L 359.4756717480454 87.5192330980434 L 359.49445943335274 87.72778660588278 L 359.54613201006987 87.93693513166914 L 359.7316522300414 88.14668208037602 L 359.7366723132468 88.3570308862885 L 360.1010824566764 88.56798501333998 L 360.1373392486149 88.77954795545486 L 360.1639310532813 88.99172323689561 L 360.75540467506175 89.20451441261491 L 360.94679886956004 89.41792506861333 L 361.11559336729795 89.6319588223015 L 361.23052676846544 89.84661932286849 L 361.231705544359 90.06191025165504 L 361.2568765855152 90.27783532253164 L 361.750627541468 90.49439828228418 L 361.8999361086974 90.71160291100313 L 361.9422306273216 90.92945302247972 L 362.21809695818695 91.14795246460784 L 362.4026226204759 91.36710511979152 L 362.4845209616724 91.58691490535932 L 362.6008836898865 91.80738577398415 L 363.0683616165312 92.02852171410967 L 363.1020459675553 92.25032675038352 L 363.20582530157344 92.47280494409671 L 363.5550945202056 92.6959603936296 L 363.6705155156525 92.91979723490545 L 363.86160797803166 93.1443196418495 L 363.9376128402653 93.36953182685687 L 364.0303576587705 93.59543804126605 L 364.1684990770656 93.82204257584112 L 364.1905527315765 94.04934976126009 L 364.2184066700457 94.27736396861167 L 364.5507196779233 94.50608960990002 L 364.78255234903645 94.73553113855667 L 364.8140454304429 94.96569304996058 L 365.0105019236368 95.1965798819673 L 365.02842866535366 95.42819621544476 L 365.18620411163613 95.6605466748199 L 365.2483182908896 95.89363592863151 L 365.3106174441449 96.12746869009368 L 365.3366072420474 96.36204971766745 L 365.3414291728128 96.59738381564216 L 365.34257725015345 96.83347583472516 L 365.5045224639679 97.07033067264251 L 365.50780861288524 97.307953274748 L 365.68460833956226 97.54634863464281 L 365.6996746790759 97.78552179480573 L 365.7062894899958 98.02547784723237 L 365.74932119255345 98.26622193408622 L 365.9876676982616 98.50775924835926 L 366.0250704199494 98.75009503454453 L 366.0545101311593 98.99323458931946 L 366.4840138094155 99.2371832622402 L 366.6155323033245 99.48194645644776 L 366.7429990328301 99.7275296293866 L 366.9059407232121 99.97393829353427 L 366.92434107285027 100.22117801714404 L 366.98117618931434 100.46925442499992 L 367.11086082025867 100.71817319918432 L 367.2973662222651 100.96794007985932 L 367.31574926275886 101.21856086606044 L 367.3842184097351 101.4700414165049 L 367.60247510918157 101.72238765041328 L 367.7115674189165 101.97560554834536 L 368.436980283205 102.22970115305077 L 368.57871183823994 102.48468057033415 L 368.6569910005993 102.74054996993567 L 368.8557731744137 102.99731558642628 L 368.9047102698941 103.2549837201201 L 368.91865322057026 103.5135607380011 L 369.0748145228046 103.77305307466764 L 369.33691879401505 104.03346723329338 L 369.354197509517 104.29480978660456 L 369.36487128137327 104.55708737787603 L 369.46740873367577 104.82030672194401 L 369.6351671030814 105.08447460623808 L 369.937389401137 105.34959789183102 L 369.98813808233007 105.6156835145083 L 370.063936844236 105.88273848585646 L 370.2363515830463 106.15076989437205 L 370.26785984662246 106.41978490659045 L 370.30343504851095 106.68979076823553 L 370.64216101902605 106.96079480539089 L 370.8946459890922 107.2328044256925 L 370.9022202752317 107.50582711954331 L 371.0225609102981 107.77987046135149 L 371.24140663323936 108.05494211079076 L 371.43104454569766 108.33104981408547 L 371.43531040502927 108.60820140531894 L 371.544559654719 108.88640480776792 L 371.797723581863 109.16566803526092 L 372.075533668923 109.44599919356403 L 372.5771742511378 109.72740648179229 L 373.05941321853453 110.00989819384853 L 373.23124320422386 110.29348271989056 L 373.23612098396796 110.5781685478255 L 373.74952038016295 110.86396426483554 L 373.781698084735 111.15087855893051 L 373.8443361250468 111.43892022053427 L 374.0907539172933 111.72809814409919 L 374.4021294464591 112.01842132975537 L 374.5981681378605 112.30989888499056 L 374.62107069084874 112.60254002636498 L 374.69337957904213 112.89635408125974 L 374.8951840238787 113.19135048966064 L 375.00406310518656 113.48753880597849 L 375.169766627402 113.78492870090525 L 375.3428477526789 114.08352996330916 L 375.37176010063325 114.3833525021679 L 375.48361891384394 114.68440634854176 L 375.49157902879256 114.9867016575871 L 376.0674533124231 115.29024871061239 L 376.118602500242 115.59505791717561 L 376.77064580830177 115.90113981722698 L 376.9332293332239 116.208505083295 L 377.0794494990426 116.51716452272046 L 377.1049421494898 116.82712907993533 L 377.279413224985 117.13840983879254 L 377.3345067462515 117.4510180249431 L 377.3533707772999 117.7649650082659 L 377.4483027499856 118.08026230534881 L 377.48932740582 118.39692158202348 L 377.5191565927406 118.71495465595586 L 378.1425868660276 119.0343734992918 L 378.48059078980214 119.35519024136175 L 378.5005164055738 119.67741717144457 L 378.7969976472218 120.00106674159196 L 378.9101113944513 120.32615156951573 L 379.0640466465239 120.65268444154003 L 379.0698402549473 120.98067831561843 L 379.1438716485132 121.31014632441963 L 379.2067137950245 121.64110177848278 L 379.393033184787 121.97355816944383 L 379.4694802061145 122.30752917333604 L 379.74706906708576 122.6430286539657 L 379.7486383232511 122.98007066636524 L 379.92038014023774 123.31866946032648 L 379.95385974725326 123.65883948401535 L 380.11804149918544 124.00059538767192 L 380.17874741891393 124.34395202739574 L 380.2260587561002 124.68892446902089 L 380.34424035489286 125.03552799208313 L 380.6263923895936 125.38377809388021 L 380.87952259658823 125.73369049362998 L 380.98697836913516 126.08528113672782 L 381.0071115378358 126.43856619910667 L 381.02446414189325 126.79356209170282 L 381.04516733284356 127.1502854650301 L 381.4033815433629 127.50875321386604 L 381.5517558356612 127.86898248205335 L 381.6027039455045 128.23099066741952 L 382.51827595909845 128.5947954268189 L 382.707746499951 128.9604146813005 L 382.7163526165868 129.32786662140467 L 382.8570668402733 129.6971697125946 L 382.88772766544 130.06834270082334 L 382.9431640747628 130.44140461824463 L 382.9676406057176 130.81637478906794 L 383.1699685665786 131.1932728355652 L 383.184314092168 131.57211868423246 L 383.36494363716577 131.95293257211108 L 383.53681411725336 132.3357350532749 L 383.6351648170933 132.7205470054866 L 383.6808847835428 133.1073896370309 L 383.7572109936999 133.49628449372796 L 383.8079133992496 133.8872534661342 L 383.86040921110435 134.28031879693634 L 383.8634854361274 134.67550308854453 L 383.93653039215525 135.07282931089134 L 384.58882440310384 135.47232080944343 L 385.0720401995102 135.8740013134323 L 385.1144164638534 136.27789494431198 L 385.26767371405674 136.6840262244512 L 385.6661086255951 137.09242008606753 L 385.7032517485828 137.50310188041175 L 385.7062544819459 137.91609738721093 L 385.779813172632 138.33143282437925 L 385.99292012556106 138.74913485800505 L 386.103407911614 139.16923061262435 L 386.1623279297441 139.59174768179076 L 386.3683304275586 140.01671413895087 L 386.43707465587386 140.44415854863746 L 386.52120970368753 140.87410997799088 L 386.64158859330865 141.30659800862009 L 386.9998305166299 141.74165274881568 L 387.1755538316997 142.17930484612742 L 387.3876706800781 142.61958550032006 L 387.65556701395576 143.06252647671943 L 387.76597907278745 143.5081601199655 L 387.9064859004919 143.9565193681854 L 387.9527225540322 144.40763776760195 L 387.99172160437973 144.86154948759588 L 388.0463590294362 145.31828933623586 L 388.24722593295246 145.77789277629648 L 388.67665480805084 146.24039594178072 L 388.7243549581162 146.70583565496736 L 388.88552790392396 147.1742494440034 L 388.9458157714211 147.64567556106118 L 389.2505009697458 148.12015300108385 L 389.31130552746595 148.59772152114164 L 389.33672675200694 149.07842166042207 L 389.58825320271524 149.56229476088043 L 389.6795106997613 150.04938298857604 L 390.27331804619024 150.5397293557225 L 390.5364929825174 151.03337774347995 L 390.73066365785604 151.53037292552028 L 390.80148550187107 152.03076059239635 L 390.90569082304665 152.5345873767492 L 391.2771325875958 153.04190087938673 L 391.34854898275506 153.55274969627158 L 391.41397193780466 154.067183446456 L 392.1742849428942 154.5852528010036 L 392.86737433212033 155.10700951294046 L 393.19245071819176 155.63250644827986 L 393.2316777037946 156.16179761816693 L 393.24036004666647 156.69493821219237 L 393.427164756953 157.2319846329263 L 393.71344398889875 157.77299453172685 L 394.08862542505847 158.31802684587922 L 394.13902718758544 158.86714183712667 L 394.1612921233065 159.42040113165484 L 394.3333350393883 159.97786776159688 L 394.5411117810228 160.53960620812825 L 395.49202361624134 161.1056824462264 L 395.830268176406 161.6761639911714 L 395.84082604429545 162.25111994687012 L 395.8849276746025 162.83062105609122 L 396.00232026472725 163.41473975270088 L 396.18436390238696 164.00355021599654 L 396.2816503996138 164.59712842724122 L 396.96326903478933 165.19555222850374 L 397.0266142921582 165.79890138392307 L 397.28162170588985 166.4072576435115 L 397.3021724021148 167.02070480963084 L 397.4403433400792 167.63932880627124 L 397.4990876800697 168.263217751279 L 397.95753637886475 168.89246203168466 L 398.09387185949333 169.52715438229177 L 398.2978864416742 170.16738996769766 L 398.3639291226293 170.8132664679278 L 398.4025487465719 171.46488416787594 L 399.117976459276 172.1223460507556 L 399.14681901128716 172.78575789577968 L 399.3675989398871 173.4552283803016 L 399.73432288752514 174.13086918666227 L 400.0285166082355 174.81279511400788 L 400.1601947225241 175.50112419535685 L 400.21851956098106 176.19597782021611 L 400.3168608607979 176.89748086306366 L 400.91166149286994 177.6057618180388 L 401.0953166990972 178.32095294020195 L 401.72587774375484 179.04319039375537 L 401.7771671550117 179.77261440763635 L 402.0505745673991 180.50936943893043 L 402.45650813165895 181.25360434458054 L 402.60371292988003 182.00547256190112 L 402.7880455078871 182.76513229844704 L 402.9692130855898 183.53274673182256 L 403.10557794185695 184.30848422006392 L 403.39378260425946 185.09251852327225 L 403.6002335765583 185.88502903722724 L 403.7238640637965 186.6862010397682 L 403.88395843894506 187.4962259507871 L 404.55173771799605 188.3153016067476 L 404.86020083381857 189.1436325507151 L 404.8740091686171 189.9814303389602 L 405.35879001162016 190.82891386528667 L 405.5006949048434 191.68630970432673 L 405.67156826112387 192.55385247515153 L 405.9669619114803 193.4317852266559 L 406.4125106131893 194.32035984630153 L 407.6588895851226 195.21983749393797 L 408.0501799091025 196.13048906257188 L 409.04484588753246 197.05259566811657 L 409.37999346477267 197.9864491703393 L 409.4727780298756 198.93235272741975 L 409.6768803046186 199.89062138675803 L 409.9927230362797 200.861582714912 L 410.2314095000755 201.8455774698158 L 410.5560823034618 202.84296031873225 L 410.9468772863413 203.85410060572258 L 411.2568233741095 204.87938317279185 L 412.986915294496 205.9192092392763 L 413.0911284679096 206.97399734450278 L 413.0931828548852 208.0441843592622 L 413.458090354282 209.13022657221512 L 413.50454581479147 210.2326008579907 L 413.6799627251656 211.35180593446415 L 414.5174250041911 212.48836371750724 L 414.8857881182615 213.64282078242718 L 415.99042940711837 214.8157499423325 L 416.6632998190488 216.0077519548397 L 416.84590647109195 217.21945736984736 L 416.8670928418325 218.4515285326072 L 417.58254400055716 219.70466175802056 L 418.39178660684684 220.97958969403368 L 418.4568911853617 222.2770838942119 L 418.85669072546017 223.5979576221156 L 419.97469288010683 224.94306891299829 L 420.4786294635643 226.3133239216927 L 421.0374404201324 227.70968058939962 L 421.0428541086574 229.1331526665379 L 421.4014349720548 230.58481413397226 L 421.56283445039986 232.0658040709165 L 421.8947143034303 233.5773320247829 L 422.30182552053446 235.12068394639982 L 422.3693062929018 236.69722876356315 L 422.4586796808504 238.308425677123 L 424.6734031658944 239.95583227705106 L 425.5645584811499 241.64111359162257 L 425.98184546972453 243.36605220148738 L 426.0485520991494 245.13255957263732 L 427.1281157189237 246.94268878890767 L 427.3457613330391 248.7986488966751 L 428.09717262203037 250.70282111309388 L 428.2059963430788 252.6577771961517 L 428.26145512724696 254.66630033205837 L 428.90463402321575 256.7314089656124 L 429.034473889246 258.8563840855983 L 432.06306217536405 261.04480058432677 L 432.2471095363888 263.30056344384326 L 435.98516208062057 265.6279496686684 L 437.9555349748268 268.0316570961834 L 438.9469779216856 270.5168614843565 L 445.2961288230169 273.08928362054775 L 445.3973243145462 275.75526863933413 L 445.4426581918233 278.5218803157355 L 448.61119369311115 281.39701386030816 L 449.5710121132073 284.3895317511188 L 450.9059630980392 287.50942848989905 L 451.0448535649559 290.7680320033869 L 454.26727183975197 294.17825192782334 L 457.84080136362655 297.7548885152436 L 457.84849567387425 301.5150208394297 L 460.2077151839003 305.47850005839433 L 463.16940109685265 309.66858381193396 L 464.7170471166278 314.11276317017894 L 472.0288894768143 318.84385682251906 L 476.4974783621037 323.9014833468834 L 476.9456883259089 329.33408004207115 L 486.1166568463069 335.2017314774545 L 488.04123200301507 341.5802317297231 L 488.1226241370083 348.56708824157977 L 488.57919345724696 356.2906997847306 L 496.7048819163285 364.92496289651524 L 497.0084494366607 374.71368307321984 L 507.47264415469334 386.0139312037909 L 508.42876863854383 399.3792879679157 L 515.6189239084767 415.7371626228511 L 521.8373174388228 436.82613093012674 L 522.759096075617 466.54936234918705 L 533.6563138958269 517.3615620755229" stroke-linejoin="bevel" stroke-miterlimit="10"/><path fill="none" stroke="none"/><path fill="none" stroke="blue" paint-order="fill stroke markers" d=" M 549.2272727272725 NaN" stroke-linejoin="bevel" stroke-miterlimit="10"/></g></g></g><g clip-path="url(#lKtJWkwxABHT)"><g><g><path fill="none" stroke="none"/><path fill="none" stroke="red" paint-order="fill stroke markers" d=" M 172.74506258694694 30.68181818181813 L 199.5790234900149 30.748249095799565 L 206.2488046563104 30.81474026458659 L 212.27233010650602 30.88129179758414 L 219.76970503274978 30.947903804495468 L 220.0127677892275 31.01457639532316 L 222.2282377221523 31.081309680370282 L 226.0188864658922 31.14810377024139 L 228.12439795582708 31.21495877584357 L 228.94053178340448 31.28187480838767 L 230.00504070254715 31.34885197938945 L 230.46671635903095 31.415890400670378 L 236.99941869735875 31.482990184359096 L 237.49333377015424 31.550151442892798 L 239.09404607053435 31.617374289017334 L 242.10443292335924 31.68465883578949 L 242.13121865249047 31.752005196577556 L 244.58113313073247 31.81941348506234 L 250.85038710291894 31.88688381523889 L 251.94767072286606 31.954416301416927 L 252.04852833152518 32.02201105822269 L 252.13547273471312 32.08966820059959 L 252.28663309010554 32.15738784380983 L 254.19503201921742 32.22517010343506 L 255.67359332354934 32.293015095377996 L 256.00052047465437 32.36092293586353 L 256.16583649820757 32.42889374143954 L 259.4233036779194 32.496927628978824 L 260.1522698978823 32.565024715679556 L 260.53213524787225 32.63318511906698 L 260.7009934748271 32.70140895699444 L 260.83552920789134 32.76969634764441 L 261.1496565910647 32.83804740953042 L 261.44263767294797 32.90646226149738 L 261.48541791855115 32.974941022723556 L 262.18739445742534 33.04348381272132 L 262.4021657772737 33.112090751338656 L 264.04287715884095 33.18076195876017 L 264.51696834780887 33.24949755550904 L 265.5159713479376 33.31829766244732 L 266.3905668551818 33.38716240077781 L 267.9083840174313 33.45609189204538 L 268.7902114293198 33.525086258137776 L 268.9703074746022 33.59414562128745 L 269.16048393592894 33.66327010407247 L 270.392790230053 33.7324598294183 L 270.5683799571972 33.80171492059833 L 270.6456198900438 33.87103550123618 L 271.0198017900972 33.9404216953061 L 271.0325584994865 34.009873627134766 L 271.6848516390895 34.07939142140276 L 271.97050749825144 34.14897520314548 L 273.1805919856996 34.218625097754966 L 273.44842398325466 34.288341230980905 L 273.4911121917627 34.35812372893179 L 274.0110610225764 34.42797271807717 L 274.46450941127955 34.49788832524803 L 274.5503707576758 34.567870677638666 L 274.5571197507717 34.637919902808335 L 274.7099131199489 34.708036128681556 L 274.96072902037747 34.7782194835512 L 274.9836388667803 34.84847009607836 L 275.0309623570324 34.9187880952943 L 275.9776849637717 34.98917361060262 L 276.90232242221833 35.05962677177945 L 277.03143783485484 35.130147708975414 L 277.611323116377 35.20073655271756 L 278.2837015246955 35.27139343390991 L 278.313511925636 35.34211848383575 L 278.5581099784995 35.41291183415831 L 278.7318601602545 35.48377361692292 L 278.88555072327733 35.55470396455826 L 280.0301304062555 35.62570300987761 L 280.3547417367297 35.69677088608057 L 280.54848600412015 35.767907726754515 L 280.56523503088465 35.83911366587597 L 280.9083194071232 35.91038883781266 L 281.1301014061231 35.98173337732419 L 281.2136470092896 36.0531474195642 L 281.69266745555774 36.12463110008173 L 281.69863901504215 36.196184554822594 L 281.7648005333509 36.267807920131304 L 281.9525058192386 36.33950133275209 L 282.1759893980865 36.41126492983119 L 282.34982212226214 36.48309884891762 L 282.3574998800568 36.55500322796547 L 282.8443270074724 36.626978205335035 L 283.0086545742258 36.699023919794286 L 283.2553774130885 36.77114051052138 L 283.8934386659518 36.84332811710499 L 284.1908077692234 36.915586879546936 L 284.21993723593624 36.98791693826331 L 284.27598413534133 37.0603184340863 L 284.80797193955567 37.13279150826588 L 285.26533917869693 37.205336302471096 L 285.2989351807115 37.27795295879241 L 285.82117820107976 37.35064161974253 L 286.29598313787017 37.42340242825878 L 286.6714048235069 37.49623552770436 L 286.71516539826337 37.56914106187048 L 286.925655772926 37.642119174977665 L 286.9830779326044 37.7151700116774 L 287.56458966992045 37.788293717054216 L 287.6411419562111 37.861490436627264 L 287.83372710006705 37.934760316352026 L 287.9430153671458 38.00810350262202 L 288.5254227581727 38.081520142270506 L 288.75147108138685 38.155010382572755 L 289.1294302458558 38.22857437124674 L 289.5518246868621 38.3022122564563 L 289.98798726591906 38.37592418681186 L 289.99901615803196 38.449710311372314 L 290.2173778934856 38.5235707796478 L 291.05350183513247 38.597505741600344 L 291.31840543871004 38.671515347646164 L 291.33367465206294 38.745599748657924 L 292.0095369357447 38.81975909596565 L 292.83334713863167 38.893993541359464 L 293.2420574466223 38.96830323709082 L 293.43566181341646 39.04268833587503 L 293.55764709740066 39.11714899089236 L 294.1702302738273 39.19168535579058 L 294.2285156060125 39.26629758468653 L 294.3943196657232 39.340985832168144 L 294.5911861814511 39.41575025329632 L 294.61153242864896 39.49059100360671 L 294.74233832024345 39.56550823911232 L 294.7586054522226 39.64050211630422 L 294.8532067828631 39.71557279215506 L 295.0492235319041 39.79072042411951 L 295.3483741138554 39.86594517013759 L 295.39646875405685 39.94124718863566 L 295.61629461059556 40.016626638528805 L 295.71341752705035 40.09208367922304 L 295.8999724117825 40.167618470616844 L 296.9366618691018 40.24323117310382 L 297.41025490510066 40.31892194757427 L 297.60005877461595 40.394690955417104 L 297.70191302616433 40.47053835852273 L 297.7659423628324 40.54646431928404 L 297.7863505285191 40.622469000599494 L 298.2392111940994 40.698552565874365 L 298.3606747798859 40.774715179023474 L 298.61579783965124 40.850957004473 L 298.78261498342306 40.92727820716277 L 299.77920751586413 41.00367895254817 L 299.79464470960477 41.08015940660255 L 299.86372015602996 41.15671973581925 L 299.9514733604327 41.233360107214025 L 300.009398760954 41.31008068832648 L 300.4827458902632 41.38688164722328 L 300.66832994589686 41.46376315249972 L 300.83120358987094 41.54072537328216 L 301.04452483959017 41.61776847922988 L 301.08535953438127 41.69489264053823 L 301.27032280621614 41.77209802793982 L 301.3460163421564 41.84938481270751 L 301.50140392174455 41.926753166656226 L 301.5438958139934 42.00420326214578 L 301.7733008631918 42.0817352720826 L 301.82909084691494 42.15934936992244 L 302.0048496315186 42.23704572967256 L 302.1717725905304 42.314824525894096 L 302.36032043645264 42.39268593370457 L 302.45692324973123 42.47063012877959 L 303.1422523442227 42.54865728735638 L 303.3746126751214 42.62676758623502 L 303.62991540601337 42.70496120278153 L 303.6536011668737 42.78323831493026 L 303.6717811930722 42.8615991011859 L 303.70822915894064 42.940043740626265 L 303.930452742651 43.01857241290486 L 303.9318804894633 43.097185298253066 L 304.04886455756093 43.17588257748241 L 304.50948965779503 43.25466443198786 L 304.784227743221 43.333531043749645 L 304.83426907250384 43.41248259533586 L 305.20463991250887 43.49151926990521 L 305.467369704028 43.57064125120951 L 305.63168639401977 43.64984872359605 L 305.65273448251594 43.72914187201059 L 305.6666928974754 43.80852088199947 L 305.7379104509618 43.88798593971251 L 306.22262550602045 43.96753723190557 L 306.4826425049853 44.04717494594297 L 306.9833205648844 44.126899269800674 L 307.060996894486 44.206710392068544 L 307.19937925468173 44.28660850195263 L 307.2628496352376 44.36659378927891 L 307.4063647689753 44.44666644449512 L 307.4629659545635 44.526826658673826 L 307.7070663975436 44.60707462351502 L 307.9636473939312 44.68741053134886 L 308.0755881449842 44.76783457513886 L 308.21707162759617 44.848346948483936 L 308.47237927531603 44.928947845621906 L 308.50508233544383 45.009637461431794 L 308.50522924846496 45.09041599143666 L 308.6331871104057 45.17128363180723 L 308.68361916353587 45.252240579363615 L 308.69479839595226 45.33328703157906 L 308.8326174975922 45.41442318658221 L 308.96242353011354 45.49564924316053 L 308.9797853129313 45.5769654007629 L 309.1327163919855 45.658371859502836 L 309.1653517988325 45.739868820161064 L 309.517410268661 45.82145648418873 L 309.9824303533121 45.90313505371046 L 310.23391137158745 45.984904731527195 L 310.4073592036012 46.06676572111917 L 310.420306737118 46.148718226649294 L 310.44649518768927 46.23076245296579 L 310.58800187739325 46.3128986056056 L 310.7250969563238 46.39512689079697 L 310.8715628886033 46.47744751546338 L 311.09976439703235 46.55986068722598 L 311.10724893711495 46.6423666144068 L 311.1757827691383 46.72496550603216 L 311.669198535094 46.80765757183599 L 311.7942019943478 46.890443022262616 L 311.8134947946212 46.973322068469884 L 311.9543789332256 47.05629492233288 L 311.99954873664376 47.13936179644702 L 312.0085268500111 47.2225229041311 L 312.0645512869422 47.30577845943094 L 312.5277778652251 47.38912867712202 L 312.5814436479527 47.47257377271376 L 313.15652723676067 47.55611396245206 L 313.16113146129476 47.63974946332314 L 313.5466236105914 47.72348049305663 L 313.8911863555967 47.80730727012917 L 314.2346302146067 47.891230013767654 L 314.2452122796661 47.975248943952806 L 314.3449335167111 48.059364281422745 L 314.5237883190373 48.14357624767604 L 315.1226594807258 48.22788506497568 L 315.16614404666973 48.3122909563524 L 315.19597330473385 48.396794145608055 L 315.3625181356195 48.48139485731963 L 315.52134624261214 48.5660933168424 L 315.9173750443136 48.65088975031347 L 316.19864408531487 48.73578438465597 L 316.2133473857242 48.82077744758203 L 316.30134565388175 48.90586916759696 L 316.30797944281016 48.99105977400245 L 316.79166994179445 49.07634949690089 L 317.09608499261935 49.16173856719831 L 317.14155437843465 49.24722721660919 L 317.6447642017044 49.33281567765903 L 317.7530099015101 49.41850418368904 L 318.09530732227995 49.504292968859545 L 318.3550786683124 49.59018226815408 L 318.57347694435606 49.67617231738279 L 318.7417942098547 49.762263353186995 L 318.80654313796003 49.848455613042574 L 318.8122045639417 49.93474933526386 L 319.3387471699676 50.02114475900805 L 319.35884295582923 50.107642124278755 L 319.3966208273545 50.1942416719304 L 319.4723210549424 50.28094364367166 L 319.83518425032725 50.36774828207024 L 319.9043053382314 50.454655830556135 L 319.9290463192614 50.54166653342645 L 320.22730734797494 50.62878063584924 L 320.2829521660011 50.71599838386726 L 320.3561978647849 50.80332002440309 L 320.40722000829226 50.890745805262554 L 320.4334323998294 50.97827597513867 L 320.4918500734593 51.06591078361703 L 320.5061180401703 51.153650481179056 L 320.52241791989746 51.241495319206706 L 320.9213872698195 51.329445549986644 L 321.2157849679309 51.41750142671481 L 321.4715398058005 51.50566320350083 L 321.4977260824261 51.59393113537169 L 321.5578716159066 51.68230547827716 L 321.61792798520435 51.77078648909378 L 321.6184978560373 51.8593744256292 L 321.8119539582211 51.94806954662704 L 321.86911114599843 52.036872111771004 L 321.93612886268454 52.12578238168999 L 321.93919699373464 52.21480061796183 L 321.94458812889116 52.30392708311922 L 322.0079805508081 52.39316204065278 L 322.033094536672 52.4825057550172 L 322.10364313797817 52.57195849163486 L 322.1909312255126 52.661520516900964 L 322.3734883029942 52.75119209818865 L 322.3909880515443 52.84097350385309 L 322.39161617038803 52.930865003237045 L 322.40473359185836 53.020866866674965 L 322.4199982079143 53.110979365498224 L 322.59002054557277 53.20120277204035 L 322.60994334506506 53.29153735964155 L 322.7059473266984 53.381983402653645 L 322.9109417369009 53.472541176445134 L 323.1278348793722 53.56321095740668 L 323.332574603579 53.65399302295509 L 323.75054276483763 53.744887651540125 L 323.77701102344986 53.83589512264757 L 323.93698235736207 53.927015716805954 L 324.5576874148942 54.01824971559131 L 324.7389135413376 54.10959740163196 L 325.01635970733423 54.20105905861419 L 325.0658685371546 54.29263497128761 L 325.0803284850555 54.384325425470024 L 325.13281255636605 54.47613070805346 L 325.24742144620757 54.56805110700884 L 325.33602623615695 54.66008691139177 L 325.5159104089481 54.75223841134812 L 325.6811061462565 54.84450589811922 L 325.83936197737165 54.936889664047385 L 325.948205186671 55.029390002581636 L 326.09532975230513 55.12200720828366 L 326.2396306333047 55.21474157683224 L 326.26360702478905 55.307593405030616 L 326.30941527420373 55.4005629908105 L 326.634744161562 55.49365063323887 L 326.7160805002543 55.58685663252356 L 326.78886968986967 55.68018129001905 L 326.8196061354713 55.77362490823168 L 326.9234918546975 55.86718779082673 L 326.94085673867994 55.960870242633405 L 327.17658986792657 56.054672569651075 L 327.28563547744875 56.1485950790551 L 327.5015692181779 56.24263807920329 L 327.6282371218431 56.33680187964194 L 327.7610928365583 56.431086791111284 L 327.77680474805913 56.525493125552316 L 327.95694517845914 56.6200211961127 L 328.1703709492788 56.71467131715326 L 328.31220235060874 56.80944380425376 L 328.45285978146705 56.90433897421963 L 328.5938878767026 56.99935714508831 L 328.6036935339359 57.09449863613554 L 329.2622136629281 57.18976376788157 L 329.3038723071214 57.28515286209813 L 329.3075574604229 57.380666241814765 L 329.3807641278076 57.47630423132489 L 329.43762667551266 57.57206715619327 L 329.72028832249276 57.66795534326195 L 329.72946320514393 57.76396912065741 L 330.38434364482924 57.86010881779703 L 330.5506056744043 57.95637476539582 L 331.06147706758554 58.05276729547376 L 331.15650663462634 58.14928674136195 L 331.40965805533074 58.24593343770999 L 331.43444201325804 58.34270772049297 L 331.4782899337032 58.43960992701807 L 331.5085886309125 58.53664039593207 L 331.5943164672319 58.63379946722813 L 331.7660395183764 58.731087482253315 L 331.80187849594165 58.82850478371506 L 331.8125005840428 58.92605171568954 L 331.9285111281114 59.023728623627676 L 332.1548270248728 59.12153585436363 L 332.2123228838522 59.21947375612132 L 332.3446803859508 59.317542678522386 L 332.5287003005129 59.41574297259365 L 332.63398541450454 59.51407499077408 L 332.75551290690123 59.61253908692339 L 332.78325028517855 59.71113561632865 L 332.87619073458575 59.809864935712596 L 333.00033849138816 59.90872740324119 L 333.21910871893795 60.00772337853158 L 333.246099144235 60.10685322265954 L 333.3446494554007 60.20611729816795 L 333.4036293991774 60.30551596907418 L 333.4923438170829 60.40504960087844 L 333.4944376766123 60.50471856057186 L 333.6632782316407 60.604523216644395 L 333.715693184599 60.70446393909316 L 333.7166527820538 60.804541099430594 L 333.7374439669936 60.904755070692886 L 333.7685577149635 61.00510622744798 L 333.8243579134345 61.1055949458044 L 333.87873206703205 61.206221603419465 L 334.1101284327603 61.306986579507736 L 334.2785627268903 61.40789025484986 L 334.3494391482528 61.50893301180082 L 334.4263455712753 61.610115234299144 L 334.8823849919419 61.71143730787509 L 334.9229299506924 61.81289961965996 L 335.0648755618514 61.914502558394474 L 335.19546457957244 62.01624651443831 L 335.24068303866295 62.118131879778616 L 335.46236043754095 62.220159048039136 L 335.5191241443823 62.32232841448962 L 335.8201224777249 62.42464037605464 L 335.90286541208866 62.52709533132321 L 335.97526316373444 62.62969368055769 L 336.09415405969116 62.73243582570365 L 336.33659498667356 62.835322170398854 L 336.3804995908213 62.938353119983105 L 336.4861839937827 63.04152908150763 L 336.53271445961707 63.14485046374483 L 336.5528715752641 63.24831767719803 L 336.794743894768 63.35193113411117 L 336.89046383653533 63.455691248478615 L 336.95320539521776 63.55959843605524 L 337.13355111159353 63.663653114366355 L 337.2010339275399 63.76785570271778 L 337.267977696865 63.872206622205795 L 337.37538003960117 63.97670629572781 L 337.4820517860703 64.0813551479921 L 337.7095337903189 64.1861536055286 L 337.83947245609306 64.29110209669898 L 338.0348753727744 64.39620105170764 L 338.0702009371556 64.50145090261151 L 338.07513544503803 64.60685208333155 L 338.17334457651043 64.71240502966299 L 338.2643662463213 64.81811017928618 L 338.41747869790197 64.92396797177787 L 338.4667001716153 65.02997884862145 L 338.56379066253555 65.13614325321856 L 338.570900708631 65.24246163090032 L 338.68312059339405 65.34893442893792 L 339.0223024265017 65.4555620965545 L 339.0602974705586 65.56234508493628 L 339.1074313886005 65.66928384724406 L 339.16399378231336 65.77637883862451 L 339.24000784775717 65.8836305162223 L 339.2807266160991 65.99103933919162 L 339.57484755076734 66.09860576870733 L 339.58160653152953 66.20633026797799 L 339.70594811039825 66.31421330225686 L 339.8740521973361 66.4222553388546 L 339.8935869609189 66.53045684715096 L 339.90414465924846 66.63881829860713 L 340.21963620238296 66.74734016677843 L 340.4259828235917 66.85602292732614 L 340.53455025914127 66.96486705803039 L 340.5377544325265 67.07387303880279 L 340.56611335720527 67.1830413516987 L 340.622018323289 67.2923724809308 L 340.6985810987365 67.40186691288113 L 340.70997614704527 67.51152513611459 L 340.76184758596867 67.62134764139171 L 340.8765610007153 67.73133492168233 L 341.0991153524168 67.8414874721783 L 341.1607189854923 67.95180579030716 L 341.5482206849078 68.06229037574542 L 341.76801805120647 68.17294173043263 L 341.825445833493 68.28376035858435 L 341.8908854738353 68.39474676670648 L 341.9903891778766 68.50590146360895 L 342.15588636858547 68.61722496041966 L 342.1863851873816 68.72871777059879 L 342.30511684039976 68.84038040995267 L 342.4479493282041 68.95221339664846 L 342.6462116216319 69.0642172512284 L 342.66559369414864 69.17639249662443 L 342.75411477784075 69.28873965817252 L 342.79325365402997 69.40125926362799 L 342.8975726209459 69.51395184317983 L 342.9428939173075 69.62681792946626 L 342.9747008792965 69.73985805758912 L 343.0534053843636 69.85307276512981 L 343.08127143890266 69.96646259216413 L 343.0956533261758 70.08002808127804 L 343.20402889364794 70.19376977758304 L 343.3205529322628 70.30768822873188 L 343.39721881448855 70.42178398493462 L 343.543042391762 70.53605759897425 L 343.59890773097266 70.65050962622303 L 343.7702171839386 70.76514062465839 L 343.96824110154716 70.87995115487962 L 343.9696454687462 70.99494178012401 L 343.9808948550017 71.11011306628359 L 343.98740991970254 71.22546558192175 L 343.9928680826552 71.34099989829025 L 344.00766442016527 71.45671658934583 L 344.0485638070991 71.57261623176782 L 344.0842217185667 71.6886994049749 L 344.12756643959034 71.80496669114285 L 344.37579197408525 71.92141867522201 L 344.5220778085454 72.03805594495446 L 344.62983963221916 72.15487909089268 L 344.64764266935924 72.27188870641663 L 344.6519269579726 72.38908538775257 L 344.8133783307228 72.50646973399057 L 344.85170245668536 72.62404234710345 L 344.9464825974743 72.74180383196517 L 345.11095331380204 72.85975479636937 L 345.1465521938734 72.97789585104829 L 345.4419882612454 73.09622760969148 L 345.45256523823593 73.21475068896552 L 345.6239463492077 73.3334657085328 L 345.72591561834383 73.45237329107096 L 345.81030323082194 73.5714740622928 L 346.0955472098889 73.69076865096582 L 346.1941986937428 73.81025768893215 L 346.1960212493823 73.92994181112874 L 346.51390606988616 74.04982165560739 L 346.5151209469504 74.16989786355538 L 346.68182812622285 74.290171079316 L 346.75791059051153 74.41064195040917 L 346.82901610728396 74.53131112755244 L 346.8807423614833 74.65217926468222 L 346.894884824316 74.7732470189747 L 346.9696591950295 74.89451505086748 L 347.3480073210755 75.01598402408166 L 347.4675997234086 75.13765460564247 L 347.5081805728835 75.25952746590252 L 347.62433895829304 75.38160327856315 L 347.6586432889966 75.50388272069705 L 347.8131296402547 75.62636647277077 L 347.8992081085693 75.74905521866742 L 348.49288563840287 75.87194964570955 L 348.5951100534758 75.99505044468259 L 348.5974221193329 76.11835830985729 L 348.6265684104955 76.24187393901428 L 348.76420295515345 76.36559803346705 L 348.8104550783516 76.48953129808609 L 348.833732523604 76.61367444132287 L 348.86648817768094 76.73802817523438 L 349.05994991152534 76.86259321550733 L 349.0842218399719 76.9873702814831 L 349.09117107951124 77.11236009618233 L 349.23845848915954 77.23756338633063 L 349.31485082873644 77.3629808823834 L 349.31964693920827 77.48861331855181 L 349.3224350352129 77.61446143282797 L 349.323287354077 77.74052596701165 L 349.3691243324065 77.86680766673629 L 349.7179077003884 77.99330728149516 L 349.7286826984641 78.12002556466842 L 350.0353745310969 78.24696327354974 L 350.0507117150197 78.37412116937378 L 350.3029525922683 78.5015000173434 L 350.41149748431064 78.62910058665727 L 350.46464906428764 78.7569236505376 L 350.62188774861727 78.88496998625862 L 350.892360635821 79.01324037517486 L 351.0562986631561 79.1417356027494 L 351.0686845132589 79.27045645858288 L 351.19188996218315 79.39940373644316 L 351.4530619268458 79.52857823429372 L 351.5006195064373 79.65798075432406 L 351.5172752637108 79.7876121029795 L 351.68867570011423 79.91747309099077 L 351.8524444553874 80.04756453340497 L 351.9835611666402 80.17788724961645 L 352.1417403055957 80.30844206339691 L 352.2319650362666 80.43922980292763 L 352.25044821064876 80.5702513008302 L 352.26308767736043 80.70150739419898 L 352.4452416250398 80.8329989246327 L 352.5641933920921 80.96472673826696 L 352.5873049929438 81.09669168580717 L 352.73961676315145 81.22889462256103 L 352.74873381513123 81.36133640847231 L 352.7838889620548 81.49401790815409 L 352.7859085282612 81.6269399909225 L 352.80226695254345 81.76010353083132 L 352.83713282017334 81.89350940670624 L 352.96611918982035 82.02715850217953 L 353.0734343132849 82.16105170572524 L 353.127465103473 82.29518991069506 L 353.13790764807356 82.42957401535324 L 353.17602832351236 82.5642049229134 L 353.2852956184741 82.69908354157474 L 353.370228212792 82.83421078455848 L 353.3994758348418 82.96958757014573 L 353.44328892027795 83.10521482171396 L 353.5290091389668 83.2410934677755 L 353.7679685354183 83.37722444201546 L 353.84048375051776 83.51360868333023 L 354.1761970439458 83.65024713586632 L 354.2227497319384 83.78714074905946 L 354.30842798580295 83.9242904776745 L 354.4768058395547 84.061697281845 L 354.6146853321898 84.19936212711372 L 354.80134711478286 84.33728598447368 L 354.9892772309894 84.47546983040843 L 355.11004984666386 84.61391464693429 L 355.1301540119533 84.75262142164195 L 355.2804471828898 84.89159114773861 L 355.6356145064103 85.03082482409093 L 356.0416991783143 85.17032345526775 L 356.1555912249946 85.31008805158399 L 356.3671690295588 85.45011962914418 L 356.45507613794496 85.5904192098871 L 356.4692060837119 85.73098782163026 L 356.55335029423424 85.87182649811535 L 356.61770236914447 86.01293627905346 L 356.6703580338374 86.15431821017165 L 356.83965207452803 86.29597334325888 L 357.070379884545 86.43790273621352 L 357.1587654867195 86.58010745309036 L 357.41748149260536 86.72258856414862 L 357.4551462139582 86.8653471459001 L 357.48392708034373 87.0083842811585 L 357.5390834539711 87.151701059088 L 357.5721968318045 87.29529857525358 L 357.5944977171129 87.43917793167088 L 357.63649308189235 87.58334023685723 L 357.804222542675 87.72778660588278 L 357.8618188344043 87.8725181604222 L 357.87093104415146 88.017536028807 L 357.9360254865063 88.16284134607832 L 357.9695508897539 88.30843525404026 L 358.1938957385104 88.45431890131357 L 358.30259174510445 88.60049344339018 L 358.3884713863715 88.74696004268799 L 358.48622108285963 88.89371986860652 L 358.53086340562334 89.0407740975827 L 358.55335695320434 89.18812391314765 L 358.6418468182149 89.3357705059837 L 358.69227121339253 89.48371507398207 L 358.6952212382927 89.6319588223015 L 358.70490592895567 89.78050296342667 L 358.7811589252099 89.92934871722821 L 358.95401799182156 90.07849731102249 L 358.9762198408721 90.22794997963211 L 359.06442090153257 90.37770796544811 L 359.5838787643674 90.5277725184909 L 359.6739852566721 90.6781448964735 L 359.84259508427374 90.82882636486471 L 359.9157199468024 90.97981819695275 L 359.9854482889907 91.13112167391017 L 360.0143573478564 91.28273808485869 L 360.21317330071577 91.43466872693534 L 360.24836421244265 91.58691490535932 L 360.3899424300906 91.73947793349862 L 360.4022375581379 91.89235913293845 L 360.4043514510655 92.04555983354993 L 360.47651031001976 92.19908137355924 L 360.52633576988796 92.352925099618 L 360.61688175545385 92.50709236687413 L 360.6381481402856 92.66158453904342 L 360.76260811054954 92.81640298848168 L 360.7954762092887 92.97154909625834 L 360.9230910784871 93.12702425223006 L 361.0646874148043 93.28282985511555 L 361.0976089238395 93.43896731257087 L 361.1061051883304 93.59543804126605 L 361.2126725562133 93.75224346696211 L 361.2128881875801 93.90938502458886 L 361.5841338395869 94.06686415832382 L 361.59119108191135 94.22468232167176 L 361.65359863239246 94.38284097754541 L 361.7526683981773 94.54134159834655 L 361.79513794908524 94.70018566604841 L 361.82041811710405 94.85937467227893 L 361.8989157425261 95.01891011840439 L 361.9613584871081 95.17879351561481 L 362.15541653714956 95.33902638500973 L 362.20721924798136 95.49961025768482 L 362.4753973360041 95.6605466748199 L 362.5004548964592 95.82183718776758 L 362.5724939405055 95.98348335814319 L 362.67145433945825 96.14548675791491 L 362.7910404663505 96.30784896949649 L 362.9290082910739 96.4705715858388 L 362.9410750744588 96.63365621052469 L 362.94772614486874 96.79710445786304 L 362.98043535527245 96.96091795298526 L 363.01063029094024 97.12509833194139 L 363.0681461500926 97.28964724179929 L 363.1020459675548 97.45456634074259 L 363.15029493286215 97.61985729817195 L 363.20507839351484 97.78552179480573 L 363.2610096798189 97.95156152278292 L 363.5014104683555 98.11797818576684 L 363.80625058523924 98.2847734990496 L 363.8105155187968 98.45194918965905 L 363.9744871919646 98.61950699646508 L 364.0709494521976 98.78744867028877 L 364.2106391863846 98.95577597401183 L 364.3023972795106 99.12449068268825 L 364.3068479827823 99.29359458365559 L 364.377426430523 99.46308947664937 L 364.4297415946146 99.63297717391794 L 364.4319524740589 99.80325950033836 L 364.61384065106176 99.97393829353427 L 364.6677441159522 100.14501540399493 L 364.6863050050973 100.3164926951955 L 364.71329196865645 100.4883720437187 L 364.8468586617661 100.66065533937842 L 364.91341677030493 100.83334448534384 L 365.0649850290275 101.0064413982663 L 365.1141278548861 101.17994800840614 L 365.12497818105015 101.35386625976236 L 365.2157975257893 101.52819811020316 L 365.36881066927606 101.7029455315984 L 365.64415834216845 101.87811050995293 L 365.7158027330677 102.05369504554261 L 365.7762245866326 102.22970115305077 L 365.77945297386464 102.40613086170754 L 365.95161305183075 102.58298621542963 L 365.98858591544433 102.76026927296294 L 366.0236644209011 102.93798210802578 L 366.34182983270864 103.11612680945512 L 366.35854175949714 103.2947054813531 L 366.3935862242647 103.47372024323681 L 366.59463383293075 103.65317323018905 L 366.5977750695636 103.83306659301087 L 366.6965283108192 104.01340249837631 L 366.70694127224294 104.19418312898955 L 366.7888091136797 104.37541068374253 L 366.79369986955464 104.55708737787603 L 366.8322231912258 104.73921544314186 L 366.8628004628614 104.9217971279678 L 367.00568529477414 105.10483469762346 L 367.57486074314545 105.28833043438942 L 367.71833445008167 105.47228663772773 L 367.74540238590333 105.65670562445513 L 367.7544631952265 105.8415897289176 L 367.76454187215376 106.0269413031682 L 367.7848998115838 106.2127627171464 L 367.9258093419709 106.39905635885953 L 367.9332925573899 106.58582463456764 L 367.97060794016693 106.77306996896937 L 368.02523960659653 106.96079480539089 L 368.1069482774682 107.1490016059779 L 368.19923276017164 107.33769285188822 L 368.2256789705466 107.52687104348911 L 368.43308179593856 107.71653870055542 L 368.49921190417336 107.90669836247133 L 368.5499333637289 108.09735258843409 L 368.6428602365544 108.2885039576608 L 368.69075545426693 108.48015506959786 L 368.8158632746569 108.67230854413287 L 368.9002536675192 108.86496702180972 L 368.91279231890144 109.0581331640459 L 368.9435153232072 109.25180965335397 L 369.08601969111453 109.44599919356403 L 369.118603223952 109.64070451005097 L 369.1333760007061 109.83592834996358 L 369.27380602168347 110.03167348245722 L 369.3683527833744 110.22794269892955 L 369.39972905737653 110.4247388132593 L 369.45739443832366 110.62206466204844 L 369.47715078389103 110.81992310486748 L 369.51659136074903 111.01831702450386 L 369.554756277384 111.21724932721435 L 369.98026014613725 111.41672294298036 L 370.1419818843342 111.61674082576656 L 370.2444005511288 111.81730595378389 L 370.26095670753296 112.01842132975537 L 370.2994822740739 112.22008998118571 L 370.62391773607266 112.42231496063499 L 370.6756973710837 112.6250993459958 L 370.8072321468608 112.82844624077421 L 370.82339785983623 113.03235877437504 L 370.9539510147203 113.23684010239054 L 371.2894223448707 113.44189340689366 L 371.31092460042373 113.6475218967347 L 371.3755876914845 113.85372880784348 L 371.4829214666849 114.06051740353399 L 371.57801195875055 114.26789097481452 L 371.69861964388355 114.47585284070226 L 371.70398716194217 114.68440634854176 L 371.87534072119814 114.89355487432806 L 372.39254835629634 115.10330182303494 L 372.4189918021607 115.31365062894736 L 372.43165536324665 115.5246047559989 L 372.50577521934287 115.73616769811377 L 372.50742071167747 115.94834297955452 L 372.51839540156044 116.16113415527383 L 372.57860507197205 116.37454481127224 L 372.6761564454824 116.58857856496041 L 372.7022820344613 116.80323906552752 L 372.7498825345854 117.0185299943139 L 372.79044308908294 117.23445506519056 L 372.88026048444976 117.4510180249431 L 373.1272626270924 117.6682226536621 L 373.1486627635746 117.88607276513864 L 373.19270696885917 118.10457220726676 L 373.2198998251215 118.32372486245043 L 373.2935664728922 118.54353464801824 L 373.77816570869624 118.76400551664301 L 373.8571495522158 118.98514145676853 L 374.0684326312771 119.20694649304238 L 374.15973268520383 119.42942468675557 L 374.2860599806553 119.65258013628858 L 374.61718213280255 119.87641697756436 L 374.68910515154425 120.10093938450842 L 375.0947990854192 120.32615156951573 L 375.10933539432375 120.55205778392497 L 375.18198704610865 120.77866231850004 L 375.5666486301795 121.00596950391895 L 375.5850691234035 121.23398371127053 L 375.61685093323615 121.46270935255887 L 375.7674230280645 121.69215088121553 L 376.0272047153635 121.9223127926195 L 376.2581857160306 122.15319962462615 L 376.29280168166764 122.38481595810373 L 376.32441706995706 122.61716641747881 L 376.4552315366947 122.85025567129037 L 376.6938422622243 123.0840884327526 L 376.7358795425702 123.31866946032648 L 376.77165993593337 123.55400355830108 L 376.8519460748414 123.79009557738408 L 376.88706774674444 124.02695041530143 L 377.0225934964538 124.26457301740686 L 377.07005214068556 124.50296837730173 L 377.13179126187566 124.74214153746459 L 377.37661860158937 124.98209758989134 L 377.37747539675246 125.22284167674508 L 377.4134747999273 125.46437899101812 L 377.97991308978897 125.70671477720344 L 378.2523622997418 125.94985433197837 L 378.36984077660463 126.19380300489905 L 378.4645045894311 126.43856619910667 L 378.52235446403205 126.68414937204545 L 378.75789325723554 126.93055803619319 L 378.88776307081656 127.17779775980296 L 378.9155343282654 127.42587416765878 L 378.94965572044384 127.67479294184324 L 378.9776974085452 127.92455982251823 L 379.01919565779673 128.17518060871936 L 379.0254032096739 128.4266611591638 L 379.07412123750015 128.6790073930722 L 379.24104512452266 128.93222529100422 L 379.2411164692568 129.18632089570974 L 379.3491299892178 129.44130031299312 L 379.38293138243785 129.6971697125946 L 379.54153053036754 129.95393532908525 L 379.62910089379176 130.211603462779 L 379.8255876934107 130.47018048065996 L 379.8744323003213 130.72967281732656 L 380.0108325025011 130.9900869759523 L 380.04073053857496 131.25142952926348 L 380.06800361639597 131.5137071205349 L 380.07574900045853 131.77692646460292 L 380.0986711984016 132.04109434889693 L 380.1549559002569 132.30621763448994 L 380.45525677922404 132.57230325716722 L 380.5950754757426 132.83935822851544 L 380.78971580490804 133.1073896370309 L 381.12350136067454 133.37640464924937 L 381.1280353605343 133.64641051089444 L 381.16312367026575 133.91741454804986 L 381.1754992715595 134.18942416835137 L 381.24714249642676 134.46244686220217 L 381.4136174941961 134.73649020401035 L 381.4513247676157 135.01156185344968 L 381.4975991305965 135.28766955674433 L 381.62243286449416 135.56482114797785 L 381.65406437289437 135.84302455042678 L 381.999831575771 136.12228777791984 L 382.11936621687437 136.40261893622295 L 382.1459033336365 136.6840262244512 L 382.1683641679508 136.9665179365075 L 382.33382113657467 137.25010246254948 L 382.4999080570459 137.53478829048447 L 382.6269273052097 137.8205840074944 L 382.6297628620432 138.1074983015895 L 382.8108754042398 138.39553996319313 L 382.83372901926947 138.6847178867581 L 382.88437949939123 138.97504107241434 L 382.9280620174031 139.26651862764948 L 382.94269391779136 139.55915976902395 L 383.00777417332745 139.85297382391866 L 383.07402088826876 140.1479702323196 L 383.0856744242732 140.44415854863746 L 383.1941009114737 140.74154844356417 L 383.2423791262251 141.04014970596808 L 383.6708150705593 141.3399722448268 L 383.8518641211208 141.64102609120062 L 383.9669354720301 141.94332140024608 L 384.0102424709126 142.2468684532713 L 384.20560566736 142.55167765983452 L 384.23780156081597 142.85775955988578 L 384.2574236161741 143.16512482595397 L 384.27035301144514 143.47378426537927 L 384.2760345190626 143.78374882259425 L 384.4298288698152 144.0950295814514 L 384.5705576035914 144.40763776760195 L 384.59125901680886 144.72158475092482 L 384.64473447680876 145.03688204800767 L 384.8952390611968 145.35354132468245 L 384.956950101671 145.67157439861472 L 384.9727655272808 145.99099324195078 L 385.1042388260133 146.3118099840206 L 385.1221884494402 146.6340369141035 L 385.2703638495566 146.95768648425081 L 385.3728572125738 147.28277131217465 L 385.41461621590173 147.609304184199 L 385.46713418691456 147.9372980582774 L 385.87212482034215 148.26676606707855 L 385.9065753611042 148.59772152114164 L 385.9501180952903 148.9301779121027 L 386.45252476678723 149.26414891599495 L 386.46783251440473 149.59964839662462 L 386.48837547366503 149.93669040902415 L 386.6311186269938 150.27528920298533 L 386.71510469238353 150.61545922667426 L 386.7283481644953 150.95721513033084 L 386.7415631145191 151.30057177005466 L 386.76504827855615 151.6455442116798 L 386.9535614668955 151.99214773474205 L 387.0068852957095 152.34039783653913 L 387.04221577571724 152.6903102362889 L 387.0664802919261 153.04190087938673 L 387.2385721790333 153.3951859417656 L 387.4988628408776 153.75018183436168 L 387.5481930415803 154.10690520768895 L 387.6434519526873 154.4653729565249 L 387.78574322507114 154.82560222471227 L 387.8268350836257 155.18761041007843 L 387.87890272915865 155.55141516947782 L 387.98137120666 155.91703442395936 L 388.1976824891339 156.28448636406358 L 388.40813207564344 156.65378945525345 L 388.4172155124706 157.02496244348225 L 388.4277914899434 157.39802436090343 L 388.46763578654355 157.77299453172685 L 388.6561872330964 158.14989257822413 L 388.7245113039064 158.52873842689132 L 388.9070026085002 158.90955231477 L 389.01981629808756 159.29235479593376 L 389.4754659554605 159.6771667481455 L 389.5595666943404 160.06400937968988 L 389.7066045500109 160.45290423638698 L 390.0073160165124 160.84387320879313 L 390.2184608895256 161.2369385395952 L 390.28252233619185 161.6321228312034 L 390.30824586882517 162.02944905355025 L 390.3717936140681 162.4289405521024 L 390.45296583739383 162.83062105609122 L 390.5347602602175 163.23451468697095 L 390.54776984985966 163.64064596711006 L 390.664086114062 164.04903982872645 L 390.7916583312857 164.45972162307066 L 390.8201172535351 164.8727171298699 L 390.8707574040327 165.28805256703816 L 390.89119209518725 165.70575460066397 L 390.9034613475174 166.1258503552832 L 391.028479217712 166.54836742444968 L 391.0596332812043 166.97333388160973 L 391.28347921919516 167.40077829129632 L 391.3864428321865 167.83072972064969 L 391.5748242594904 168.263217751279 L 391.64085154560684 168.69827249147454 L 391.6612087681085 169.1359245887864 L 391.70518773512816 169.57620524297886 L 391.93773207358436 170.01914621937834 L 391.9928910098773 170.46477986262448 L 392.10023868288744 170.91313911084433 L 392.24655486452593 171.36425751026093 L 392.3569142025609 171.8181692302548 L 392.4662183595212 172.27490907889484 L 392.59481686430047 172.7345125189554 L 392.70002359046396 173.19701568443958 L 393.13405595410615 173.66245539762633 L 393.62191263890725 174.13086918666227 L 393.96122654169744 174.60229530372004 L 394.16306480048496 175.0767727437427 L 394.3390781012806 175.55434126380055 L 394.7291774176646 176.0350414030811 L 394.74067583107984 176.51891450353935 L 394.8325477556819 177.00600273123496 L 394.8425003385562 177.49634909838147 L 394.9009815708477 177.98999748613886 L 395.0105680581847 178.48699266817914 L 395.03420009654883 178.98738033505526 L 395.09868731268506 179.4912071194081 L 395.2235457924922 179.99852062204565 L 396.0473683749092 180.50936943893043 L 396.5971032874715 181.02380318911497 L 396.6066094498746 181.54187254366246 L 396.65746891076276 182.06362925559944 L 396.73416692727284 182.58912619093883 L 396.84059663552466 183.1184173608259 L 396.85984783017614 183.65155795485128 L 396.89006297320384 184.18860437558527 L 396.94839569110576 184.72961427438577 L 397.0971391872388 185.27464658853813 L 397.2610141822764 185.82376157978553 L 397.40658027888867 186.37702087431376 L 397.7431135415666 186.93448750425574 L 397.7640284968094 187.4962259507871 L 397.827565240245 188.06230218888527 L 398.0792886192963 188.6327837338302 L 398.111201731869 189.2077396895291 L 398.4305362641539 189.7872407987502 L 398.4759498188185 190.3713594953598 L 398.4919745983227 190.96016995865546 L 398.7464882586915 191.55374816990002 L 398.81767086415675 192.15217197116266 L 398.9892705276365 192.75552112658187 L 399.0526902596957 193.36387738617054 L 399.0862747306006 193.97732455228982 L 399.1665613846884 194.5959485489302 L 399.1891764650928 195.21983749393797 L 399.3667498792481 195.8490817743437 L 400.2018554645669 196.48377412495074 L 400.48320587966447 197.12400971035663 L 401.2361279869765 197.76988621058678 L 401.71062359985564 198.42150391053485 L 401.7430261709363 199.0789657934145 L 402.1836836002602 199.7423776384386 L 402.21670176422447 200.41184812296052 L 402.3291806452938 201.08748892932118 L 402.7961708548997 201.76941485666674 L 403.25592222293284 202.4577439380157 L 403.46052014969325 203.15259756287497 L 403.53016596826126 203.85410060572258 L 403.81987393203235 204.5623815606976 L 403.9862754414913 205.2775726828608 L 404.0207379546714 205.99981013641428 L 404.14172009662406 206.72923415029516 L 404.24131468726785 207.46598918158935 L 404.297790290159 208.2102240872394 L 404.46322700327494 208.96209230456003 L 404.4849172283779 209.7217520411059 L 404.9611212881193 210.48936647448141 L 405.13186325919827 211.26510396272278 L 405.2379250433309 212.0491382659311 L 405.61011395676763 212.8416487798861 L 405.91364411359285 213.64282078242718 L 405.99391673107783 214.45284569344602 L 406.0202079758915 215.27192134940657 L 406.20481726650314 216.100252293374 L 406.2918110397944 216.93805008161917 L 406.3896523756046 217.78553360794558 L 406.4532457160345 218.6429294469857 L 406.5721312997482 219.5104722178105 L 406.77917244616765 220.38840496931488 L 406.91735463908174 221.2769795889604 L 406.9448772779254 222.17645723659683 L 407.31031614689846 223.08710880523074 L 407.46891869002945 224.00921541077548 L 407.65836778493235 224.94306891299829 L 407.8048058972268 225.88897247007867 L 408.3700129907518 226.8472411294169 L 408.74372321890877 227.81820245757086 L 409.14531046001014 228.80219721247477 L 409.2193031694967 229.7995800613911 L 409.41196959142235 230.81072034838155 L 409.70934569428215 231.83600291545082 L 410.09292293027556 232.87582898193534 L 410.26138805390553 233.9306170871618 L 410.33809370943686 235.00080410192118 L 410.44915412736225 236.08684631487404 L 410.52109275666976 237.18922060064972 L 410.6762881155892 238.308425677123 L 411.02260360749074 239.44498346016616 L 411.29437923716364 240.59944052508598 L 411.7533671215152 241.77236968499136 L 411.8499183938053 242.96437169749856 L 413.1404614166916 244.17607711250628 L 413.25683873501436 245.408148275266 L 413.297360538183 246.66128150067942 L 414.27474387699164 247.93620943669242 L 414.57744461519627 249.2337036368707 L 415.22741190680415 250.5545773647744 L 415.88031118382906 251.8996886556571 L 415.9805491887372 253.2699436643515 L 417.2236788902486 254.66630033205837 L 417.3275837309688 256.0897724091968 L 417.3423887899892 257.54143387663123 L 417.3556205594153 259.0224238135754 L 417.8693422652465 260.5339517674419 L 418.01433655826844 262.0773036890588 L 419.16266594353505 263.6538485062222 L 419.34467747716235 265.265045419782 L 419.58776395587006 266.9124520197101 L 419.6975034615531 268.59773333428154 L 419.72888074993244 270.32267194414635 L 420.11803203031684 272.08917931529624 L 420.7975008998299 273.89930853156665 L 421.3877204291056 275.75526863933413 L 423.15858254744217 277.6594408557528 L 425.93114944358456 279.6143969388106 L 426.3971714541302 281.62292007471746 L 426.39725541903374 283.6880287082712 L 427.98588266091775 285.813003828257 L 432.70583386648184 288.0014203269855 L 434.97592697819005 290.25718318650206 L 435.1761650507993 292.58456941132727 L 435.71438327139583 294.9882768388422 L 437.32974254242555 297.4734812270153 L 437.66094818461744 300.0459033632066 L 438.77818275805413 302.71188838199294 L 439.1512594874988 305.47850005839433 L 439.5564166635571 308.35363360296697 L 439.7346354299579 311.3461514937776 L 440.29930965375473 314.4660482325578 L 446.14856323049753 317.7246517460457 L 447.1198046355144 321.1348716704821 L 456.2023518845382 324.7115082579023 L 456.9633102787302 328.4716405820885 L 461.57494809857974 332.435119801053 L 465.5500559430744 336.62520355459316 L 466.46825966199293 341.06938291283825 L 467.93332825833147 345.8004765651784 L 469.3205761696507 350.85810308954285 L 469.8338404669982 356.2906997847306 L 477.0675268051353 362.1583512201139 L 487.7157725927509 368.53685147238195 L 492.08807360577276 375.52370798423874 L 493.5199996083894 383.24731952738944 L 496.5300537141362 391.8815826391742 L 497.46430025447853 401.6703028158787 L 497.8388383948244 412.97055094644975 L 498.8546459324356 426.3359077105746 L 509.6019753925054 442.69378236551006 L 514.5907653201568 463.7827506727857 L 514.856940041798 493.5059820918459 L 526.0173913679153 544.3181818181819" stroke-linejoin="bevel" stroke-miterlimit="10"/><path fill="none" stroke="none"/></g></g></g><g clip-path="url(#DtiPamVlkaAp)"><g><g/><g><path fill="#ffffff" stroke="#e5e5e5" paint-order="fill stroke markers" d=" M 123 475 L 255 475 L 255 560 L 123 560 L 123 475 Z" fill-opacity="0.95" stroke-linejoin="bevel" stroke-miterlimit="10" stroke-opacity="0.5"/><text fill="#444444" stroke="none" font-family="helvetica" font-size="22pt" font-style="normal" font-weight="normal" text-decoration="normal" x="158" y="500.5" text-anchor="start" dominant-baseline="central">male</text><g><path fill="none" stroke="blue" paint-order="fill stroke markers" d=" M 133 495 L 153 495" stroke-linejoin="bevel" stroke-miterlimit="10"/></g><text fill="#444444" stroke="none" font-family="helvetica" font-size="22pt" font-style="normal" font-weight="normal" text-decoration="normal" x="158" y="534.5" text-anchor="start" dominant-baseline="central">female</text><g><path fill="none" stroke="red" paint-order="fill stroke markers" d=" M 133 529 L 153 529" stroke-linejoin="bevel" stroke-miterlimit="10"/></g></g></g></g><g/><g/><g><g fill="#444444"><path fill="none" stroke="black" paint-order="fill stroke markers" d=" M 113 570 L 570 570" stroke-linejoin="bevel" stroke-miterlimit="10"/><path fill="none" stroke="black" paint-order="fill stroke markers" d=" M 146 576 L 146 568" stroke-linejoin="bevel" stroke-miterlimit="10"/><path fill="none" stroke="black" paint-order="fill stroke markers" d=" M 249 576 L 249 568" stroke-linejoin="bevel" stroke-miterlimit="10"/><path fill="none" stroke="black" paint-order="fill stroke markers" d=" M 348 576 L 348 568" stroke-linejoin="bevel" stroke-miterlimit="10"/><path fill="none" stroke="black" paint-order="fill stroke markers" d=" M 443 576 L 443 568" stroke-linejoin="bevel" stroke-miterlimit="10"/><path fill="" stroke="black" paint-order="fill stroke markers" d=" M 535 576 L 535 568" stroke-linejoin="bevel" stroke-miterlimit="10"/><g transform="translate(146,581) rotate(0,0,0)"><text fill="" stroke="none" font-family="helvetica" font-size="26px" font-style="normal" font-weight="normal" text-decoration="normal" x="0" y="0" text-anchor="middle" dominant-baseline="hanging">0.46</text><g transform="rotate(0,0,0) translate(-146,-581) translate(249,581) rotate(0,0,0)"><text fill="" stroke="none" font-family="helvetica" font-size="26px" font-style="normal" font-weight="normal" text-decoration="normal" x="0" y="0" text-anchor="middle" dominant-baseline="hanging">0.48</text><g transform="rotate(0,0,0) translate(-249,-581) translate(348,581) rotate(0,0,0)"><text fill="" stroke="none" font-family="helvetica" font-size="26px" font-style="normal" font-weight="normal" text-decoration="normal" x="0" y="0" text-anchor="middle" dominant-baseline="hanging">0.5</text><g transform="rotate(0,0,0) translate(-348,-581) translate(443,581) rotate(0,0,0)"><text fill="" stroke="none" font-family="helvetica" font-size="26px" font-style="normal" font-weight="normal" text-decoration="normal" x="0" y="0" text-anchor="middle" dominant-baseline="hanging">0.52</text><g transform="rotate(0,0,0) translate(-443,-581) translate(535,581) rotate(0,0,0)"><text fill="" stroke="none" font-family="helvetica" font-size="26px" font-style="normal" font-weight="normal" text-decoration="normal" x="0" y="0" text-anchor="middle" dominant-baseline="hanging">0.54</text><g transform="rotate(0,0,0) translate(-535,-581)"/></g></g></g></g></g></g></g><g><g fill="#444444"><path fill="none" stroke="black" paint-order="fill stroke markers" d=" M 113 570 L 113 5" stroke-linejoin="bevel" stroke-miterlimit="10"/><path fill="none" stroke="black" paint-order="fill stroke markers" d=" M 107 537 L 115 537" stroke-linejoin="bevel" stroke-miterlimit="10"/><path fill="none" stroke="black" paint-order="fill stroke markers" d=" M 107 368 L 115 368" stroke-linejoin="bevel" stroke-miterlimit="10"/><path fill="none" stroke="black" paint-order="fill stroke markers" d=" M 107 199 L 115 199" stroke-linejoin="bevel" stroke-miterlimit="10"/><path fill="none" stroke="black" paint-order="fill stroke markers" d=" M 107 31 L 115 31" stroke-linejoin="bevel" stroke-miterlimit="10"/><path fill="none" stroke="black" paint-order="fill stroke markers" d=" M 109 563 L 113 563" stroke-linejoin="bevel" stroke-miterlimit="10"/><path fill="none" stroke="black" paint-order="fill stroke markers" d=" M 109 553 L 113 553" stroke-linejoin="bevel" stroke-miterlimit="10"/><path fill="none" stroke="black" paint-order="fill stroke markers" d=" M 109 545 L 113 545" stroke-linejoin="bevel" stroke-miterlimit="10"/><path fill="none" stroke="black" paint-order="fill stroke markers" d=" M 109 537 L 113 537" stroke-linejoin="bevel" stroke-miterlimit="10"/><path fill="none" stroke="black" paint-order="fill stroke markers" d=" M 109 537 L 113 537" stroke-linejoin="bevel" stroke-miterlimit="10"/><path fill="none" stroke="black" paint-order="fill stroke markers" d=" M 109 486 L 113 486" stroke-linejoin="bevel" stroke-miterlimit="10"/><path fill="none" stroke="black" paint-order="fill stroke markers" d=" M 109 456 L 113 456" stroke-linejoin="bevel" stroke-miterlimit="10"/><path fill="none" stroke="black" paint-order="fill stroke markers" d=" M 109 435 L 113 435" stroke-linejoin="bevel" stroke-miterlimit="10"/><path fill="none" stroke="black" paint-order="fill stroke markers" d=" M 109 419 L 113 419" stroke-linejoin="bevel" stroke-miterlimit="10"/><path fill="none" stroke="black" paint-order="fill stroke markers" d=" M 109 406 L 113 406" stroke-linejoin="bevel" stroke-miterlimit="10"/><path fill="none" stroke="black" paint-order="fill stroke markers" d=" M 109 394 L 113 394" stroke-linejoin="bevel" stroke-miterlimit="10"/><path fill="none" stroke="black" paint-order="fill stroke markers" d=" M 109 385 L 113 385" stroke-linejoin="bevel" stroke-miterlimit="10"/><path fill="none" stroke="black" paint-order="fill stroke markers" d=" M 109 376 L 113 376" stroke-linejoin="bevel" stroke-miterlimit="10"/><path fill="none" stroke="black" paint-order="fill stroke markers" d=" M 109 368 L 113 368" stroke-linejoin="bevel" stroke-miterlimit="10"/><path fill="none" stroke="black" paint-order="fill stroke markers" d=" M 109 368 L 113 368" stroke-linejoin="bevel" stroke-miterlimit="10"/><path fill="none" stroke="black" paint-order="fill stroke markers" d=" M 109 317 L 113 317" stroke-linejoin="bevel" stroke-miterlimit="10"/><path fill="none" stroke="black" paint-order="fill stroke markers" d=" M 109 288 L 113 288" stroke-linejoin="bevel" stroke-miterlimit="10"/><path fill="none" stroke="black" paint-order="fill stroke markers" d=" M 109 267 L 113 267" stroke-linejoin="bevel" stroke-miterlimit="10"/><path fill="none" stroke="black" paint-order="fill stroke markers" d=" M 109 250 L 113 250" stroke-linejoin="bevel" stroke-miterlimit="10"/><path fill="none" stroke="black" paint-order="fill stroke markers" d=" M 109 237 L 113 237" stroke-linejoin="bevel" stroke-miterlimit="10"/><path fill="none" stroke="black" paint-order="fill stroke markers" d=" M 109 226 L 113 226" stroke-linejoin="bevel" stroke-miterlimit="10"/><path fill="none" stroke="black" paint-order="fill stroke markers" d=" M 109 216 L 113 216" stroke-linejoin="bevel" stroke-miterlimit="10"/><path fill="none" stroke="black" paint-order="fill stroke markers" d=" M 109 207 L 113 207" stroke-linejoin="bevel" stroke-miterlimit="10"/><path fill="none" stroke="black" paint-order="fill stroke markers" d=" M 109 199 L 113 199" stroke-linejoin="bevel" stroke-miterlimit="10"/><path fill="none" stroke="black" paint-order="fill stroke markers" d=" M 109 199 L 113 199" stroke-linejoin="bevel" stroke-miterlimit="10"/><path fill="none" stroke="black" paint-order="fill stroke markers" d=" M 109 149 L 113 149" stroke-linejoin="bevel" stroke-miterlimit="10"/><path fill="none" stroke="black" paint-order="fill stroke markers" d=" M 109 119 L 113 119" stroke-linejoin="bevel" stroke-miterlimit="10"/><path fill="none" stroke="black" paint-order="fill stroke markers" d=" M 109 98 L 113 98" stroke-linejoin="bevel" stroke-miterlimit="10"/><path fill="none" stroke="black" paint-order="fill stroke markers" d=" M 109 81 L 113 81" stroke-linejoin="bevel" stroke-miterlimit="10"/><path fill="none" stroke="black" paint-order="fill stroke markers" d=" M 109 68 L 113 68" stroke-linejoin="bevel" stroke-miterlimit="10"/><path fill="none" stroke="black" paint-order="fill stroke markers" d=" M 109 57 L 113 57" stroke-linejoin="bevel" stroke-miterlimit="10"/><path fill="none" stroke="black" paint-order="fill stroke markers" d=" M 109 47 L 113 47" stroke-linejoin="bevel" stroke-miterlimit="10"/><path fill="none" stroke="black" paint-order="fill stroke markers" d=" M 109 38 L 113 38" stroke-linejoin="bevel" stroke-miterlimit="10"/><path fill="none" stroke="black" paint-order="fill stroke markers" d=" M 109 31 L 113 31" stroke-linejoin="bevel" stroke-miterlimit="10"/><path fill="" stroke="black" paint-order="fill stroke markers" d=" M 109 31 L 113 31" stroke-linejoin="bevel" stroke-miterlimit="10"/><g transform="translate(102,537) rotate(0,0,0)"><text fill="" stroke="none" font-family="helvetica" font-size="26px" font-style="normal" font-weight="normal" text-decoration="normal" x="0" y="0" text-anchor="end" dominant-baseline="central">10^-3</text><g transform="rotate(0,0,0) translate(-102,-537) translate(102,368) rotate(0,0,0)"><text fill="" stroke="none" font-family="helvetica" font-size="26px" font-style="normal" font-weight="normal" text-decoration="normal" x="0" y="0" text-anchor="end" dominant-baseline="central">10^-2</text><g transform="rotate(0,0,0) translate(-102,-368) translate(102,199) rotate(0,0,0)"><text fill="" stroke="none" font-family="helvetica" font-size="26px" font-style="normal" font-weight="normal" text-decoration="normal" x="0" y="0" text-anchor="end" dominant-baseline="central">10^-1</text><g transform="rotate(0,0,0) translate(-102,-199) translate(102,31) rotate(0,0,0)"><text fill="" stroke="none" font-family="helvetica" font-size="26px" font-style="normal" font-weight="normal" text-decoration="normal" x="0" y="0" text-anchor="end" dominant-baseline="central">10^0</text><g transform="rotate(0,0,0) translate(-102,-31) translate(26,288) rotate(-90,0,0)"><text fill="" stroke="none" font-family="helvetica" font-size="26pt" font-style="italic" font-weight="normal" text-decoration="normal" x="0" y="0" text-anchor="middle" dominant-baseline="alphabetic">CCDF</text><g transform="rotate(90,0,0) translate(-26,-288)"/></g></g></g></g></g></g></g><g clip-path="url(#pNGvbXbeSCVV)"><g/></g><g clip-path="url(#kkPEpzkQzgeq)"><g/></g></g></g></svg>