<svg version="1.1" xmlns="http://www.w3.org/2000/svg" xmlns:xlink="http://www.w3.org/1999/xlink" width="600" height="600" style="width: 600px; height: 600px;"><defs><clipPath id="mtcCTbJKgHVK"><path fill="none" stroke="none" d=" M 113 5 L 570 5 L 570 570 L 113 570 L 113 5 Z"/></clipPath><clipPath id="vPaZorbeualG"><path fill="none" stroke="none" d=" M 113 5 L 570 5 L 570 570 L 113 570 L 113 5 Z"/></clipPath><clipPath id="MlckwPbDzySe"><path fill="none" stroke="none" d=" M 113 5 L 570 5 L 570 570 L 113 570 L 113 5 Z"/></clipPath><clipPath id="TywfGnRTZhbg"><path fill="none" stroke="none" d=" M 113 5 L 570 5 L 570 570 L 113 570 L 113 5 Z"/></clipPath><clipPath id="GHZwCcmDAvMP"><path fill="none" stroke="none" d=" M 113 5 L 570 5 L 570 570 L 113 570 L 113 5 Z"/></clipPath><clipPath id="hEAphQkQLrkH"><path fill="none" stroke="none" d=" M 113 5 L 570 5 L 570 570 L 113 570 L 113 5 Z"/></clipPath><clipPath id="GZBXtesQXlkD"><path fill="none" stroke="none" d=" M 113 5 L 570 5 L 570 570 L 113 570 L 113 5 Z"/></clipPath><clipPath id="HmEuymQEvVET"><path fill="none" stroke="none" d=" M 113 5 L 570 5 L 570 570 L 113 570 L 113 5 Z"/></clipPath></defs><g><g transform="scale(1,1) translate(0.5,0.5)"><rect fill="#FFFFFF" stroke="none" x="0" y="0" width="600" height="600"/><rect fill="#ffffff" stroke="none" x="0" y="0" width="600" height="600"/><rect fill="#FFFFFF" stroke="none" x="113" y="5" width="457" height="565"/><rect fill="#ffffff" stroke="none" x="113" y="5" width="457" height="565"/><g><rect fill="none" stroke="#e5e5e5" x="113" y="5" width="457" height="565" stroke-linejoin="bevel" stroke-miterlimit="10"/></g><g clip-path="url(#mtcCTbJKgHVK)"><g><g><path fill="none" stroke="#e5e5e5" paint-order="fill stroke markers" d=" M 144 570 L 144 5" stroke-linejoin="bevel" stroke-miterlimit="10"/><path fill="none" stroke="#e5e5e5" paint-order="fill stroke markers" d=" M 201 570 L 201 5" stroke-linejoin="bevel" stroke-miterlimit="10"/><path fill="none" stroke="#e5e5e5" paint-order="fill stroke markers" d=" M 258 570 L 258 5" stroke-linejoin="bevel" stroke-miterlimit="10"/><path fill="none" stroke="#e5e5e5" paint-order="fill stroke markers" d=" M 313 570 L 313 5" stroke-linejoin="bevel" stroke-miterlimit="10"/><path fill="none" stroke="#e5e5e5" paint-order="fill stroke markers" d=" M 367 570 L 367 5" stroke-linejoin="bevel" stroke-miterlimit="10"/><path fill="none" stroke="#e5e5e5" paint-order="fill stroke markers" d=" M 420 570 L 420 5" stroke-linejoin="bevel" stroke-miterlimit="10"/><path fill="none" stroke="#e5e5e5" paint-order="fill stroke markers" d=" M 472 570 L 472 5" stroke-linejoin="bevel" stroke-miterlimit="10"/><path fill="none" stroke="#e5e5e5" paint-order="fill stroke markers" d=" M 523 570 L 523 5" stroke-linejoin="bevel" stroke-miterlimit="10"/></g></g></g><g clip-path="url(#vPaZorbeualG)"><g><g><path fill="none" stroke="#e5e5e5" paint-order="fill stroke markers" d=" M 113 537 L 570 537" stroke-linejoin="bevel" stroke-miterlimit="10"/><path fill="none" stroke="#e5e5e5" paint-order="fill stroke markers" d=" M 113 368 L 570 368" stroke-linejoin="bevel" stroke-miterlimit="10"/><path fill="none" stroke="#e5e5e5" paint-order="fill stroke markers" d=" M 113 199 L 570 199" stroke-linejoin="bevel" stroke-miterlimit="10"/><path fill="none" stroke="#e5e5e5" paint-order="fill stroke markers" d=" M 113 31 L 570 31" stroke-linejoin="bevel" stroke-miterlimit="10"/></g></g></g><g clip-path="url(#MlckwPbDzySe)"><g><g fill="#444444"><path fill="" stroke="none" d=""/><g transform="translate(119.6375032650148,363.20439508142067) rotate(0,0,0)"><path fill="none" stroke="none"/><text fill="" stroke="none" font-family="helvetica" font-size="20pt" font-style="normal" font-weight="normal" text-decoration="normal" x="0" y="0" text-anchor="start" dominant-baseline="text-after-edge">Female mean: 0.5046</text></g></g><g fill="#444444"><path fill="" stroke="none" d=""/><g transform="translate(119.6375032650148,328.7500700100203) rotate(0,0,0)"><path fill="none" stroke="none"/><text fill="" stroke="none" font-family="helvetica" font-size="20pt" font-style="normal" font-weight="normal" text-decoration="normal" x="0" y="0" text-anchor="start" dominant-baseline="text-after-edge">Male mean: 0.5037</text></g></g></g></g><g clip-path="url(#TywfGnRTZhbg)"><g><g><path fill="none" stroke="none"/><path fill="none" stroke="blue" paint-order="fill stroke markers" d=" M 160.25372051655864 30.71133560060298 L 162.79416962652263 30.80734937799855 L 174.73049539768965 30.903489075138054 L 178.57739985957315 30.99975502273685 L 182.88834364786055 31.09614755281484 L 186.7698093018838 31.192666998702975 L 188.45495420313688 31.289313695051078 L 191.52921233282564 31.38608797783411 L 192.01445892892042 31.482990184359096 L 192.31626010141906 31.58002065327321 L 193.36488501013525 31.677179724569214 L 198.9521512713372 31.774467739594456 L 201.93136595820022 31.871885041056203 L 202.04325190112718 31.969431973030623 L 202.13531809180313 32.06710888096882 L 203.25131429440535 32.16491611170477 L 205.62634075510195 32.2628540134624 L 207.54697647674521 32.36092293586353 L 210.62655477556373 32.45912322993479 L 211.49593225076097 32.55745524811516 L 214.66890779789446 32.655919344264476 L 215.17977318718158 32.75451587366979 L 215.97928965527956 32.85324519305368 L 217.90892045550453 32.95210766058233 L 223.07831645906984 33.051103635872664 L 223.9597646585248 33.15023348000068 L 224.34592923176672 33.24949755550904 L 225.12568536159577 33.34889622641526 L 225.32959050873097 33.44842985821958 L 226.85597680830938 33.548098817913 L 226.98438323850877 33.64790347398548 L 227.14661547660126 33.747844196434244 L 227.68850561332178 33.847921356771735 L 228.4531168839971 33.94813532803403 L 230.59673746895362 34.04848648478912 L 231.2622102945861 34.14897520314548 L 231.4934203379363 34.24960186076055 L 233.97035561239676 34.35036683684882 L 234.24313135858887 34.451270512190945 L 235.5144027243053 34.552313269141905 L 235.8548072523681 34.65349549164023 L 236.18657213669496 34.75481756521617 L 237.09954529195 34.85627987700104 L 237.9398868536646 34.957882815735616 L 239.00516339386573 35.05962677177945 L 240.37717843558823 35.161512137119644 L 240.92646590364149 35.26353930538028 L 241.18852993935815 35.3657086718307 L 241.25063622792132 35.46802063339578 L 241.5831145642089 35.570475588664294 L 242.21113365788773 35.673073937898835 L 242.39599336609373 35.77581608304479 L 242.98822109505977 35.878702427739995 L 243.14388230127344 35.98173337732419 L 243.6409376696153 36.08490933884866 L 243.75000882273307 36.188230721085915 L 243.9236896718787 36.291697934539116 L 244.94857018496774 36.395311391452196 L 245.12247484773232 36.49907150581976 L 246.04057975157568 36.60297869339627 L 247.07749340437186 36.70703337170744 L 247.29987114381456 36.811235960058866 L 248.56530837655217 36.915586879546936 L 249.4007951170152 37.02008655306895 L 249.55745577389698 37.12473540533324 L 250.90680843566923 37.229533862869744 L 253.5192673181864 37.33448235404012 L 254.16671161107513 37.43958130904866 L 254.23094911730874 37.54483115995254 L 255.2266198358818 37.65023234067269 L 256.4171466629041 37.75578528700407 L 256.8394486304088 37.861490436627264 L 257.09115851992954 37.96734822911901 L 257.95896793167844 38.07335910596248 L 258.31103486998313 38.17952351055965 L 258.43966178706825 38.28584188824141 L 258.91590851488286 38.39231468627895 L 259.60989977808515 38.498942353895586 L 260.2251958788156 38.605725342277424 L 260.61690477841114 38.71266410458509 L 260.63124382482755 38.81975909596565 L 260.83418712615435 38.92701077356344 L 261.1255550231855 39.03441959653264 L 261.42494584732157 39.14198602604847 L 261.7799627255081 39.249710525319074 L 261.9499481525752 39.357593559597944 L 262.08173383571807 39.46563559619574 L 262.1826812740032 39.5738371044921 L 262.3415586484579 39.682198555948275 L 262.7728996852145 39.79072042411951 L 263.6504952566597 39.89940318466722 L 264.3203556563054 40.00824731537148 L 264.4340495371539 40.11725329614387 L 264.6431160470478 40.22642160903979 L 264.86358688887094 40.335752738271935 L 265.0419202015519 40.44524717022216 L 265.1410866864019 40.55490539345567 L 265.6460648996389 40.66472789873285 L 265.7711035623554 40.774715179023474 L 266.28714800012057 40.88486772951944 L 266.9302470808095 40.99518604764819 L 268.04844516040225 41.10567063308656 L 268.1954427572632 41.21632198777377 L 268.30983486800335 41.32714061592549 L 268.43605736006816 41.43812702404762 L 269.46229923726094 41.549281720950034 L 269.7786034379357 41.6606052177608 L 269.86826365554316 41.77209802793982 L 269.96130759140954 41.883760667293814 L 270.18519807957733 41.995593653989545 L 270.7356860472586 42.107597508569484 L 270.9689261197469 42.21977275396546 L 271.29085153692165 42.33211991551366 L 271.48948674432563 42.444639520969076 L 272.69815836878286 42.557332100520966 L 272.86796008356384 42.67019818680728 L 273.16416773423657 42.78323831493026 L 273.8026292624485 42.89645302247084 L 274.1623240071378 43.00984284950516 L 275.2426242733496 43.12340833861913 L 275.2933584821554 43.23715003492407 L 275.6312107343863 43.35106848607302 L 276.6871826713993 43.465164242275705 L 277.0046772718141 43.579437856315394 L 277.1086496708364 43.69388988356411 L 277.3167308666884 43.80852088199947 L 277.39805435361905 43.923331412220705 L 277.421317433625 44.03832203746515 L 277.4468703474617 44.15349332362473 L 278.09632168552514 44.268845839262895 L 278.9283654003972 44.384380155631334 L 279.29988123190617 44.500096846686915 L 280.5212591876408 44.61599648910885 L 280.97792154606884 44.73207966231598 L 281.1706538303654 44.848346948483936 L 281.21175205623547 44.9647989325631 L 281.52067639075904 45.08143620229555 L 282.62649935351635 45.198259348233705 L 282.67453127153186 45.31526896375772 L 284.05001308153453 45.432465645093544 L 284.1996352573966 45.5498499913316 L 284.56463358511655 45.66742260444448 L 284.7247599395 45.78518408930631 L 284.7576549239151 45.90313505371046 L 284.77369149580227 46.021276108389316 L 284.78601461712816 46.13960786703251 L 284.97013185285493 46.258130946306665 L 284.9855264220969 46.37684596587383 L 285.3824857286389 46.49575354841204 L 286.18869572465144 46.61485431963388 L 286.5274184521437 46.734148908306906 L 286.67424490071664 46.85363794627324 L 286.86826634764134 46.973322068469884 L 287.0630456025621 47.09320191294853 L 287.0686602400448 47.21327812089646 L 287.27138688129037 47.33355133665714 L 287.4919082583158 47.45402220775031 L 287.8203099202466 47.574691384893526 L 288.086032254697 47.69555952202336 L 288.4993102722269 47.816627276315785 L 288.80691848486583 47.93789530820857 L 288.89119787035577 48.059364281422745 L 288.93049017281044 48.18103486298355 L 288.95719877187514 48.30290772324361 L 289.09633190767977 48.42498353590429 L 289.317411203351 48.547262978038134 L 289.74608371927343 48.66974673011191 L 289.8338929960861 48.79243547600845 L 291.10921980181115 48.91532990305063 L 291.15321761293296 49.03843070202356 L 291.28982924583374 49.16173856719831 L 291.3153673547944 49.28525419635537 L 291.52635085380047 49.408978290808136 L 291.53959414644464 49.53291155542718 L 291.7222892985131 49.657054698663956 L 291.7558866985436 49.78140843257552 L 291.8409272442922 49.90597347284847 L 292.5346404414121 50.03075053882412 L 292.6866651792826 50.15574035352347 L 292.87118388090744 50.28094364367166 L 293.2767109257975 50.40636113972448 L 293.70654703710886 50.5319935758929 L 294.3032819659811 50.65784169016911 L 294.4406201109635 50.78390622435279 L 294.63592374384103 50.91018792407738 L 294.7635700103108 51.03668753883619 L 294.7782873374884 51.163405822009395 L 294.8478947993491 51.29034353089082 L 295.8525851492564 51.41750142671481 L 295.9201688184913 51.54488027468449 L 295.9839708481086 51.6724808439983 L 296.0065360203113 51.80030390787863 L 296.95660750784253 51.928350243599766 L 297.1132603918799 52.05662063251589 L 297.52911487594145 52.18511586009038 L 297.5431467740801 52.31383671592391 L 297.77134306291566 52.44278399378413 L 298.1630458854912 52.57195849163486 L 298.3157546900309 52.7013610116652 L 298.5208190331793 52.830992360320465 L 298.6700421702343 52.96085334833185 L 298.76312267168873 53.09094479074611 L 298.9134277367993 53.221267506957474 L 299.0047182888735 53.35182232073805 L 299.11509650135986 53.48261006026871 L 299.180278516865 53.61363155817128 L 299.4178168477124 53.744887651540125 L 299.4290444102975 53.87637918197379 L 299.84381081779327 54.008106995608046 L 299.8769162029615 54.140071943148314 L 300.12650088410203 54.27227487990217 L 300.2202832692656 54.40471666581345 L 300.63631795853007 54.53739816549523 L 301.33315565364273 54.67032024826358 L 301.4179309023652 54.80348378817246 L 301.61335631423765 54.936889664047385 L 301.7500331053102 55.07053875952056 L 301.94020983711255 55.20443196306633 L 302.05020813459373 55.3385701680362 L 302.2545348978656 55.472954272694324 L 302.3681937104974 55.607585180254546 L 303.01595202642307 55.74246379891588 L 303.09631733198717 55.877591041899564 L 303.18201704323894 56.01296782748682 L 304.33878950270935 56.1485950790551 L 304.58626996491233 56.28447372511664 L 304.6259241307492 56.420604699356545 L 304.99237573406157 56.55698894067132 L 305.2683685444345 56.69362739320741 L 305.5812342724905 56.830521006400545 L 305.96063327104673 56.96767073501553 L 306.61440167937593 57.10507753918614 L 307.09091944578563 57.2427423844548 L 307.2779703030106 57.380666241814765 L 307.3188890242574 57.51885008774957 L 307.4430265752362 57.65729490427543 L 307.49344260278076 57.79600167898309 L 307.54142984385385 57.93497140507975 L 307.8934951391785 58.074205081431955 L 308.03720514714166 58.21370371260883 L 308.1818198554581 58.35346830892502 L 308.609982372271 58.49349988648521 L 309.0759084382113 58.63379946722813 L 309.07954002983604 58.77436807897135 L 309.1679344106924 58.91520675545644 L 309.2890242015974 59.05631653639455 L 309.6466115674238 59.19769846751274 L 309.77626021629607 59.339353600599964 L 310.06653492929587 59.4812829935546 L 310.4672358639009 59.62348771043139 L 310.9074734949986 59.76596882148965 L 311.1652779435584 59.90872740324119 L 311.9561309329505 60.05176453849958 L 311.9812323324587 60.19508131642914 L 312.10499528652656 60.33867883259467 L 312.14795637696227 60.48255818901197 L 312.28363480387276 60.62672049419831 L 312.28916525244176 60.77116686322387 L 312.3599702697244 60.91589841776329 L 312.52800487118157 61.0609162861482 L 312.6141732818926 61.206221603419465 L 312.7354029768285 61.3518155113814 L 312.8509841487383 61.49769915865471 L 313.1752585805778 61.64387370073126 L 313.7712792233173 61.79034030002913 L 313.9375200393019 61.93710012594761 L 314.0080384603543 62.08415435492384 L 314.09087658280987 62.23150417048873 L 314.11217090575917 62.379150763324844 L 314.16592614053604 62.52709533132321 L 314.5683984258327 62.67533907964264 L 314.6553475264276 62.82388322076781 L 314.6600768279634 62.97272897456935 L 314.715478928619 63.12187756836357 L 315.0106236394963 63.271330236973256 L 315.5103565229889 63.42108822278925 L 316.03083867055585 63.57115277583205 L 316.07638567821226 63.72152515381464 L 316.30077968196656 63.872206622205795 L 316.86463130617165 64.02319845429389 L 317.2392824018708 64.17450193125126 L 318.25773950897894 64.32611834219972 L 318.51598648443553 64.47804898427648 L 319.22743499088995 64.63029516270046 L 319.6526350325795 64.7828581908397 L 319.6798557019328 64.9357393902796 L 319.87611874813047 65.08894009089101 L 319.8844724698513 65.24246163090032 L 320.38370283795996 65.39630535695909 L 320.6206512132245 65.55047262421522 L 320.80693906715567 65.7049647963845 L 321.045618008665 65.85978324582277 L 321.19001511769244 66.01492935359948 L 321.5595175883414 66.1704045095712 L 321.64861090754766 66.32621011245658 L 321.8448620751227 66.48234756991195 L 321.9296832089479 66.63881829860713 L 322.55129480275855 66.79562372430325 L 322.61089595184734 66.95276528193 L 322.71790899469966 67.11024441566491 L 322.80762883993873 67.26806257901285 L 323.3421923134878 67.4262212348865 L 323.49456762894476 67.58472185568763 L 323.68098334999473 67.7435659233895 L 324.10685045610296 67.9027549296199 L 324.24570896361575 68.06229037574542 L 324.84006141640305 68.2221737729559 L 324.84864282441015 68.38240664235087 L 324.8920351912586 68.5429905150259 L 325.08073538800454 68.70392693216098 L 325.54973363585714 68.86521744510867 L 325.63329042862097 69.02686361548416 L 325.7132998915417 69.18886701525605 L 325.71648856722436 69.35122922683746 L 326.00792102767264 69.51395184317983 L 326.0779825379433 69.67703646786572 L 326.13355788731474 69.84048471520418 L 326.2267743359348 70.00429821032634 L 326.25883293762195 70.16847858928253 L 326.32489091808316 70.33302749914037 L 326.85122623131787 70.49794659808373 L 326.9677480101186 70.66323755551309 L 327.26648828256634 70.82890205214682 L 327.3808085313949 70.99494178012401 L 327.6421401866172 71.16135844310787 L 327.8214960123453 71.32815375639075 L 328.10298438294365 71.49532944700013 L 328.1861072534447 71.66288725380616 L 328.56067859408506 71.8308289276298 L 328.65019036276226 71.99915623135297 L 328.6867962083119 72.16787094002933 L 328.8615403145777 72.33697484099667 L 329.04846272982013 72.50646973399057 L 329.13758668330354 72.67635743125908 L 329.61545675425907 72.84663975767944 L 329.7276421735795 73.0173185508753 L 330.2516895001655 73.18839566133602 L 330.31816797257454 73.35987295253653 L 330.5533019699914 73.53175230105984 L 330.8934929761646 73.70403559671945 L 330.8944623048308 73.87672474268498 L 330.9929766123694 74.04982165560739 L 330.99409129966466 74.22332826574717 L 331.0211182884723 74.3972465171035 L 331.08520333005947 74.5715783675443 L 331.1630338571849 74.74632578893949 L 331.8157342722766 74.92149076729407 L 332.71372147116176 75.0970753028837 L 332.75551979770734 75.27308141039191 L 333.07441882053604 75.44951111904862 L 333.98141609616016 75.62636647277077 L 334.1942252982164 75.80364953030397 L 334.3028987548033 75.98136236536686 L 334.6206973889256 76.15950706679621 L 334.6649832889432 76.33808573869419 L 334.9035823816582 76.5171005005779 L 334.9147777968787 76.6965534875302 L 334.9595751298449 76.87644685035195 L 334.98515944881694 77.05678275571745 L 335.03973099977156 77.23756338633063 L 335.1861315781905 77.41879094108356 L 335.243086313738 77.60046763521711 L 335.45739386284504 77.782595700483 L 335.506456262409 77.96517738530889 L 335.5155848035167 78.14821495496454 L 335.53585779707123 78.33171069173045 L 336.1563933522724 78.51566689506882 L 336.1752910254039 78.70008588179621 L 336.27245395752556 78.88496998625862 L 336.6009054813791 79.07032156050934 L 337.04889140720474 79.25614297448743 L 337.727742482087 79.44243661620067 L 337.8477165208461 79.62920489190878 L 337.9755970755566 79.8164502263104 L 338.2084126012387 80.00417506273203 L 338.4098724725991 80.19238186331904 L 338.9321423785484 80.3810731092293 L 338.9786134352762 80.5702513008302 L 339.09186419334776 80.7599189578965 L 339.16497294559343 80.95007861981242 L 339.1684358583907 81.14073284577518 L 339.17122229200885 81.33188421500193 L 339.4463887294834 81.52353532693894 L 339.5368002541861 81.71568880147396 L 339.69592305919974 81.90834727915075 L 339.80386233325044 82.10151342138704 L 339.80756597716385 82.29518991069506 L 339.89108986376914 82.48937945090518 L 339.93451740992987 82.68408476739211 L 340.0837309302067 82.87930860730467 L 340.16752007517994 83.07505373979825 L 340.3558269503301 83.27132295627058 L 340.44401887909237 83.46811907060038 L 340.4552559810867 83.66544491938959 L 340.8395434555132 83.86330336220857 L 340.885901556809 84.061697281845 L 340.98049861387926 84.26062958455549 L 341.25685067578434 84.46010320032144 L 341.2723171947554 84.66012108310764 L 341.45541416037344 84.86068621112503 L 341.5724243412402 85.06180158709645 L 341.62799075270186 85.26347023852685 L 341.71293935776737 85.46569521797608 L 341.7808448460447 85.66847960333695 L 341.8180151440715 85.87182649811535 L 342.6792266241989 86.07573903171618 L 342.9334194817417 86.28022035973169 L 343.0575556882566 86.48527366423474 L 343.1657802241559 86.69090215407584 L 343.57969263402083 86.89710906518462 L 343.8019970860316 87.10389766087508 L 344.0422263313256 87.31127123215566 L 344.0890927667261 87.5192330980434 L 344.1658458694349 87.72778660588278 L 344.27550549042206 87.93693513166914 L 344.3594071563166 88.14668208037602 L 344.44624804897614 88.3570308862885 L 344.58238752881573 88.56798501333998 L 344.67712978258476 88.77954795545486 L 344.7524840143684 88.99172323689561 L 344.78816724620526 89.20451441261491 L 345.02622032607917 89.41792506861333 L 345.0980452404598 89.6319588223015 L 345.1452792565831 89.84661932286849 L 345.3248060579921 90.06191025165504 L 345.4355279159889 90.27783532253164 L 345.76181790302144 90.49439828228418 L 345.85018875769003 90.71160291100313 L 346.3965623660272 90.92945302247972 L 346.43119602458273 91.14795246460784 L 346.7266726537083 91.36710511979152 L 347.18440147837487 91.58691490535932 L 347.2331892365992 91.80738577398415 L 347.2561535476498 92.02852171410967 L 347.48149866245103 92.25032675038352 L 347.55796371565447 92.47280494409671 L 347.6679687933021 92.6959603936296 L 348.1805073280796 92.91979723490545 L 348.1869447547257 93.1443196418495 L 348.399547888181 93.36953182685687 L 348.4791173016047 93.59543804126605 L 348.70758756624684 93.82204257584112 L 348.78549485906166 94.04934976126009 L 348.80714607882044 94.27736396861167 L 348.80915229878826 94.50608960990002 L 349.0073435111263 94.73553113855667 L 349.1005521189595 94.96569304996058 L 349.4406370346651 95.1965798819673 L 349.65286975014186 95.42819621544476 L 349.8690807989158 95.6605466748199 L 349.9857788718616 95.89363592863151 L 350.1558436595691 96.12746869009368 L 350.3755919021514 96.36204971766745 L 350.40460908956493 96.59738381564216 L 350.56061328885903 96.83347583472516 L 351.3233752277988 97.07033067264251 L 351.3903364491308 97.307953274748 L 351.4704921295935 97.54634863464281 L 352.2345226116989 97.78552179480573 L 352.35493444843803 98.02547784723237 L 352.38295284113104 98.26622193408622 L 352.52039588055027 98.50775924835926 L 352.55783688944604 98.75009503454453 L 352.83577543961997 98.99323458931946 L 352.9849742274746 99.2371832622402 L 353.0499236322505 99.48194645644776 L 353.16073307450597 99.7275296293866 L 353.22396374907356 99.97393829353427 L 353.3161791994056 100.22117801714404 L 353.38126492701934 100.46925442499992 L 353.52090078075 100.71817319918432 L 353.547240925534 100.96794007985932 L 353.6394454513299 101.21856086606044 L 354.1733853739079 101.4700414165049 L 354.37355788129264 101.72238765041328 L 354.7609669770744 101.97560554834536 L 354.9836434535041 102.22970115305077 L 355.2615912215241 102.48468057033415 L 356.11812252340684 102.74054996993567 L 356.243100911282 102.99731558642628 L 356.3763963463006 103.2549837201201 L 356.4328304678065 103.5135607380011 L 356.5219927205346 103.77305307466764 L 356.5468635238909 104.03346723329338 L 356.6744468607733 104.29480978660456 L 356.87531611099826 104.55708737787603 L 357.4926500447469 104.82030672194401 L 357.5140722984404 105.08447460623808 L 357.6811249105456 105.34959789183102 L 357.74615459737106 105.6156835145083 L 357.7498339675209 105.88273848585646 L 358.09754405129854 106.15076989437205 L 358.12543955899366 106.41978490659045 L 358.2158100881702 106.68979076823553 L 358.3366619978347 106.96079480539089 L 358.41661388600716 107.2328044256925 L 358.5402076341088 107.50582711954331 L 358.70698954612453 107.77987046135149 L 358.72980952117666 108.05494211079076 L 359.03279976149054 108.33104981408547 L 359.5810485371228 108.60820140531894 L 359.6558484312254 108.88640480776792 L 359.66946853749084 109.16566803526092 L 359.7315894275954 109.44599919356403 L 359.8147614260704 109.72740648179229 L 359.8455806195318 110.00989819384853 L 359.9892337506109 110.29348271989056 L 360.1388570614651 110.5781685478255 L 360.3109592760505 110.86396426483554 L 360.3383047559359 111.15087855893051 L 360.401017726301 111.43892022053427 L 360.4553230534983 111.72809814409919 L 360.5179694103517 112.01842132975537 L 361.01352811032973 112.30989888499056 L 361.10006427876044 112.60254002636498 L 361.12620354178244 112.89635408125974 L 361.20682465479365 113.19135048966064 L 361.3463481939367 113.48753880597849 L 361.4163868642035 113.78492870090525 L 361.57155509665427 114.08352996330916 L 361.57674692139483 114.3833525021679 L 361.7964558896407 114.68440634854176 L 361.929735884945 114.9867016575871 L 362.1022841954008 115.29024871061239 L 362.21411612285647 115.59505791717561 L 362.5865527059676 115.90113981722698 L 362.81839559537593 116.208505083295 L 362.85995884405077 116.51716452272046 L 362.9626906424529 116.82712907993533 L 362.96998742288685 117.13840983879254 L 363.02994163049937 117.4510180249431 L 363.2775680887703 117.7649650082659 L 363.3934386964649 118.08026230534881 L 363.4870830737343 118.39692158202348 L 363.6743462248279 118.71495465595586 L 363.93856159483005 119.0343734992918 L 364.11352056372414 119.35519024136175 L 364.2646255213727 119.67741717144457 L 364.3267695552702 120.00106674159196 L 364.47063378679366 120.32615156951573 L 364.5042409103457 120.65268444154003 L 364.668999190478 120.98067831561843 L 364.9361816644068 121.31014632441963 L 364.9557585930171 121.64110177848278 L 365.11680421406385 121.97355816944383 L 365.2195946611587 122.30752917333604 L 365.452617735833 122.6430286539657 L 365.9903278407876 122.98007066636524 L 366.4766177132641 123.31866946032648 L 366.4821829206937 123.65883948401535 L 366.80271333621124 124.00059538767192 L 367.0327474769031 124.34395202739574 L 367.32164977174546 124.68892446902089 L 367.355907263645 125.03552799208313 L 367.7343848674085 125.38377809388021 L 367.95036327743367 125.73369049362998 L 368.3747793407446 126.08528113672782 L 368.4661654957135 126.43856619910667 L 368.6882681009694 126.79356209170282 L 368.7056512209148 127.1502854650301 L 369.0621002601702 127.50875321386604 L 369.19582235839994 127.86898248205335 L 369.3989578053456 128.23099066741952 L 369.67069472352836 128.5947954268189 L 369.7130456544252 128.9604146813005 L 369.97803065106996 129.32786662140467 L 370.1120741442746 129.6971697125946 L 370.13209171756483 130.06834270082334 L 370.23775085847944 130.44140461824463 L 370.287481695182 130.81637478906794 L 370.38600117269425 131.1932728355652 L 370.5117130389025 131.57211868423246 L 370.7860138985196 131.95293257211108 L 370.90922377377285 132.3357350532749 L 370.9700226687373 132.7205470054866 L 371.0196764826533 133.1073896370309 L 371.45058715353366 133.49628449372796 L 371.71252275167063 133.8872534661342 L 372.11337543441306 134.28031879693634 L 372.16587278033103 134.67550308854453 L 372.3495657577988 135.07282931089134 L 372.400960660636 135.47232080944343 L 372.45932372940746 135.8740013134323 L 372.5719252829152 136.27789494431198 L 372.6669575692052 136.6840262244512 L 372.6744989147678 137.09242008606753 L 372.91752909485126 137.50310188041175 L 373.1221533934181 137.91609738721093 L 373.13160236064965 138.33143282437925 L 373.1678390056979 138.74913485800505 L 373.262087025166 139.16923061262435 L 373.2650615510156 139.59174768179076 L 373.3238197017823 140.01671413895087 L 373.4867102763141 140.44415854863746 L 373.93065343732167 140.87410997799088 L 374.1547764221715 141.30659800862009 L 374.38805531582454 141.74165274881568 L 374.5843814712857 142.17930484612742 L 374.71218939363484 142.61958550032006 L 374.91666325952264 143.06252647671943 L 374.97549713183406 143.5081601199655 L 375.7474847460892 143.9565193681854 L 375.8796559901336 144.40763776760195 L 376.1426763114004 144.86154948759588 L 376.67289854304045 145.31828933623586 L 376.6768384400604 145.77789277629648 L 376.75887597099654 146.24039594178072 L 376.87651069018136 146.70583565496736 L 377.03725140658287 147.1742494440034 L 377.0607604715577 147.64567556106118 L 377.07038642214815 148.12015300108385 L 377.3574338185042 148.59772152114164 L 377.65404315070396 149.07842166042207 L 379.23010881095513 149.56229476088043 L 379.4601451464429 150.04938298857604 L 379.8703819098976 150.5397293557225 L 380.12489416089903 151.03337774347995 L 380.2349744620299 151.53037292552028 L 380.3256310927926 152.03076059239635 L 380.50715742018133 152.5345873767492 L 380.640224634035 153.04190087938673 L 380.7332948526143 153.55274969627158 L 380.8718552503967 154.067183446456 L 381.00509501844135 154.5852528010036 L 381.01426294419196 155.10700951294046 L 381.1365836013848 155.63250644827986 L 381.6190242206785 156.16179761816693 L 381.64512623462974 156.69493821219237 L 381.6789982207042 157.2319846329263 L 381.75690536443835 157.77299453172685 L 382.0093231852761 158.31802684587922 L 382.0381010443775 158.86714183712667 L 382.0458860769666 159.42040113165484 L 382.2717850477549 159.97786776159688 L 382.29629542003 160.53960620812825 L 382.638085948401 161.1056824462264 L 382.68315281258225 161.6761639911714 L 382.9099976098384 162.25111994687012 L 382.91020366529744 162.83062105609122 L 382.984525269326 163.41473975270088 L 383.0142121346067 164.00355021599654 L 383.12281290683876 164.59712842724122 L 383.1767788458361 165.19555222850374 L 383.19042468954103 165.79890138392307 L 383.5072077957537 166.4072576435115 L 383.7808392376712 167.02070480963084 L 383.83436434771386 167.63932880627124 L 383.85790999313645 168.263217751279 L 383.97517568991276 168.89246203168466 L 384.2921211859306 169.52715438229177 L 384.4137246914658 170.16738996769766 L 384.6560600705676 170.8132664679278 L 384.66733832730654 171.46488416787594 L 385.0867549975677 172.1223460507556 L 385.25266654584993 172.78575789577968 L 385.28221788802847 173.4552283803016 L 385.37172514532455 174.13086918666227 L 385.4684821651716 174.81279511400788 L 385.48436519100255 175.50112419535685 L 385.7524624162672 176.19597782021611 L 385.82092741600144 176.89748086306366 L 386.549140490989 177.6057618180388 L 386.9333220918632 178.32095294020195 L 386.9347781815864 179.04319039375537 L 386.9921031834226 179.77261440763635 L 387.1944403664231 180.50936943893043 L 387.2423438915523 181.25360434458054 L 387.8329899658117 182.00547256190112 L 388.46232635353107 182.76513229844704 L 388.7715230094902 183.53274673182256 L 388.8458274812393 184.30848422006392 L 389.2102665170638 185.09251852327225 L 389.4821249364891 185.88502903722724 L 389.687993176287 186.6862010397682 L 390.3240310670194 187.4962259507871 L 390.5209843020528 188.3153016067476 L 390.5851886163709 189.1436325507151 L 391.051928484398 189.9814303389602 L 391.21482295496094 190.82891386528667 L 391.2227240692676 191.68630970432673 L 391.4947296807174 192.55385247515153 L 392.14153082936826 193.4317852266559 L 392.29652546825747 194.32035984630153 L 392.55569373523514 195.21983749393797 L 392.57290967285456 196.13048906257188 L 392.6928496219372 197.05259566811657 L 393.5508177092614 197.9864491703393 L 393.8774038085697 198.93235272741975 L 393.99354511279364 199.89062138675803 L 394.0113676374238 200.861582714912 L 394.387981349972 201.8455774698158 L 394.61151936283386 202.84296031873225 L 395.9252301453383 203.85410060572258 L 396.1379318958705 204.87938317279185 L 396.24814097306023 205.9192092392763 L 396.3154440839823 206.97399734450278 L 396.84778521242515 208.0441843592622 L 397.4694491212241 209.13022657221512 L 397.9755876364893 210.2326008579907 L 398.7752924802095 211.35180593446415 L 399.4221663693591 212.48836371750724 L 399.9050552675327 213.64282078242718 L 400.21319431791 214.8157499423325 L 400.2242194531538 216.0077519548397 L 400.2977402160102 217.21945736984736 L 400.70370673519983 218.4515285326072 L 400.872608054851 219.70466175802056 L 401.125074460057 220.97958969403368 L 401.1874237984802 222.2770838942119 L 401.26304407663844 223.5979576221156 L 401.3957484265782 224.94306891299829 L 401.49467816202304 226.3133239216927 L 401.8463503150461 227.70968058939962 L 402.2600344238711 229.1331526665379 L 402.3835939193736 230.58481413397226 L 402.6177923487805 232.0658040709165 L 403.0521125477549 233.5773320247829 L 403.28216315522576 235.12068394639982 L 403.41443897857823 236.69722876356315 L 403.455624408938 238.308425677123 L 404.35660857347364 239.95583227705106 L 404.4334777741857 241.64111359162257 L 404.68308330415806 243.36605220148738 L 404.8105584011588 245.13255957263732 L 404.9641747265027 246.94268878890767 L 405.26451132495225 248.7986488966751 L 406.5102651433717 250.70282111309388 L 406.83013463791025 252.6577771961517 L 407.01532660195994 254.66630033205837 L 407.29361724846643 256.7314089656124 L 407.9380981470322 258.8563840855983 L 408.6721151515165 261.04480058432677 L 408.7244319604662 263.30056344384326 L 408.82877995890675 265.6279496686684 L 408.8305698235574 268.0316570961834 L 409.36260999496665 270.5168614843565 L 409.417597786478 273.08928362054775 L 409.51929794983437 275.75526863933413 L 410.41004444105 278.5218803157355 L 411.7577505917222 281.39701386030816 L 415.6961023606501 284.3895317511188 L 415.7322479564207 287.50942848989905 L 416.6021975232106 290.7680320033869 L 416.7836434565147 294.17825192782334 L 417.19170399769433 297.7548885152436 L 420.7821274990594 301.5150208394297 L 427.1781256433378 305.47850005839433 L 427.7866504721614 309.66858381193396 L 428.7407058597945 314.11276317017894 L 428.7884310460179 318.84385682251906 L 429.09094130560055 323.9014833468834 L 430.12340044229074 329.33408004207115 L 443.6178331462194 335.2017314774545 L 456.4938128476894 341.5802317297231 L 459.5225260987375 348.56708824157977 L 462.5123659358809 356.2906997847306 L 465.79326489372613 364.92496289651524 L 476.25044757302277 374.71368307321984 L 476.4236816302151 386.0139312037909 L 482.22701887064363 399.3792879679157 L 489.55943543589734 415.7371626228511 L 500.3327444210219 436.82613093012674 L 510.6750212538771 466.54936234918705 L 533.2995987373613 517.3615620755229" stroke-linejoin="bevel" stroke-miterlimit="10"/><path fill="none" stroke="none"/><path fill="none" stroke="blue" paint-order="fill stroke markers" d=" M 549.2272727272725 NaN" stroke-linejoin="bevel" stroke-miterlimit="10"/></g></g></g><g clip-path="url(#GHZwCcmDAvMP)"><g><g><path fill="none" stroke="none"/><path fill="none" stroke="red" paint-order="fill stroke markers" d=" M 133.77272727272728 30.68181818181813 L 167.85638955259483 30.748249095799565 L 168.0574854530264 30.81474026458659 L 171.91066880216636 30.88129179758414 L 172.2543407327475 30.947903804495468 L 177.44868365200875 31.01457639532316 L 189.92995521954 31.081309680370282 L 193.81656035137576 31.14810377024139 L 194.51016947446908 31.21495877584357 L 196.9175025261479 31.28187480838767 L 203.8159623317929 31.34885197938945 L 213.69502170298173 31.415890400670378 L 214.77612564951278 31.482990184359096 L 215.91026958545822 31.550151442892798 L 216.48460290540152 31.617374289017334 L 216.56786084168075 31.68465883578949 L 217.48662927225513 31.752005196577556 L 222.4128617374157 31.81941348506234 L 223.12614764419794 31.88688381523889 L 223.26654396838575 31.954416301416927 L 226.58632209781763 32.02201105822269 L 226.6695744972793 32.08966820059959 L 227.98836653628027 32.15738784380983 L 230.22319046935306 32.22517010343506 L 230.39270595214057 32.293015095377996 L 230.44912496654956 32.36092293586353 L 231.15059446363568 32.42889374143954 L 232.08791836399774 32.496927628978824 L 233.33641828619525 32.565024715679556 L 233.75144239213017 32.63318511906698 L 233.98627497571894 32.70140895699444 L 235.01899376730339 32.76969634764441 L 235.92084897580713 32.83804740953042 L 235.9332608943303 32.90646226149738 L 236.10128461308784 32.974941022723556 L 236.68131765047752 33.04348381272132 L 236.7587107341866 33.112090751338656 L 236.9764966034664 33.18076195876017 L 237.00274879365077 33.24949755550904 L 237.24694894435453 33.31829766244732 L 237.70447487574006 33.38716240077781 L 237.92816939060117 33.45609189204538 L 238.78677072393896 33.525086258137776 L 238.8198064526126 33.59414562128745 L 239.29195476120753 33.66327010407247 L 240.06837067728844 33.7324598294183 L 241.2949278330735 33.80171492059833 L 241.63544666350361 33.87103550123618 L 241.99828833219135 33.9404216953061 L 242.46548149009593 34.009873627134766 L 242.6332035785675 34.07939142140276 L 242.8891138354881 34.14897520314548 L 243.02626130938907 34.218625097754966 L 243.28698934597932 34.288341230980905 L 243.57192985725405 34.35812372893179 L 243.7817502279554 34.42797271807717 L 244.46342579162234 34.49788832524803 L 244.50869913510297 34.567870677638666 L 244.98791685583748 34.637919902808335 L 245.12385857157335 34.708036128681556 L 246.00951458450035 34.7782194835512 L 246.50491518070004 34.84847009607836 L 246.7246237495099 34.9187880952943 L 246.7584798900136 34.98917361060262 L 247.47097755200767 35.05962677177945 L 248.12711912938488 35.130147708975414 L 249.2673967706115 35.20073655271756 L 250.12974332898284 35.27139343390991 L 250.88010740950457 35.34211848383575 L 251.2488911757045 35.41291183415831 L 251.74069719735164 35.48377361692292 L 251.88993960780175 35.55470396455826 L 252.07752045127418 35.62570300987761 L 253.3942809146498 35.69677088608057 L 253.6633602290122 35.767907726754515 L 253.69299223379628 35.83911366587597 L 254.8393359053461 35.91038883781266 L 254.87646372546203 35.98173337732419 L 255.21921187491176 36.0531474195642 L 255.85461224537852 36.12463110008173 L 256.7813150190431 36.196184554822594 L 256.86019847730347 36.267807920131304 L 257.2137184223455 36.33950133275209 L 257.6138421620056 36.41126492983119 L 257.7671777802848 36.48309884891762 L 258.00202676758283 36.55500322796547 L 258.0982968976918 36.626978205335035 L 258.5244530245369 36.699023919794286 L 259.0176697825253 36.77114051052138 L 259.14725854854805 36.84332811710499 L 259.57746305196827 36.915586879546936 L 259.86868328269725 36.98791693826331 L 260.03097839405376 37.0603184340863 L 260.0371795074144 37.13279150826588 L 260.29515986298543 37.205336302471096 L 260.33783369670084 37.27795295879241 L 260.4267933969245 37.35064161974253 L 260.83992229704836 37.42340242825878 L 260.8604096876944 37.49623552770436 L 261.009651377145 37.56914106187048 L 261.45272049112805 37.642119174977665 L 261.6359332536086 37.7151700116774 L 261.6856285887393 37.788293717054216 L 261.7006745470542 37.861490436627264 L 262.4110542371308 37.934760316352026 L 262.50095686973634 38.00810350262202 L 262.5700508361274 38.081520142270506 L 262.78396433651744 38.155010382572755 L 263.08077177005873 38.22857437124674 L 263.1432098485669 38.3022122564563 L 264.3452534983469 38.37592418681186 L 264.4054113093854 38.449710311372314 L 264.5557503754882 38.5235707796478 L 265.1960801644551 38.597505741600344 L 265.21570742089375 38.671515347646164 L 265.5729451544341 38.745599748657924 L 265.58135096367675 38.81975909596565 L 265.8720469647808 38.893993541359464 L 267.37113227349664 38.96830323709082 L 267.4568039087659 39.04268833587503 L 267.4875597169119 39.11714899089236 L 268.32725775420465 39.19168535579058 L 269.1448181241673 39.26629758468653 L 270.3103262420143 39.340985832168144 L 270.5629602708615 39.41575025329632 L 270.76647098137107 39.49059100360671 L 270.8537536298824 39.56550823911232 L 272.0173601154238 39.64050211630422 L 272.08269744279636 39.71557279215506 L 272.626052568615 39.79072042411951 L 272.7820951079982 39.86594517013759 L 273.484415361203 39.94124718863566 L 273.73060213574206 40.016626638528805 L 274.5046044586402 40.09208367922304 L 274.80775862039434 40.167618470616844 L 275.27055541044194 40.24323117310382 L 275.9840544988775 40.31892194757427 L 276.5916156110397 40.394690955417104 L 276.98572783407434 40.47053835852273 L 278.06372513688075 40.54646431928404 L 278.0704289561044 40.622469000599494 L 278.413932350693 40.698552565874365 L 278.8154056028296 40.774715179023474 L 278.8377509367323 40.850957004473 L 278.91930902929056 40.92727820716277 L 279.2672661299997 41.00367895254817 L 279.5508612370885 41.08015940660255 L 279.6071124931261 41.15671973581925 L 279.6415507934056 41.233360107214025 L 279.86741378562317 41.31008068832648 L 279.9316416515818 41.38688164722328 L 279.9843955977173 41.46376315249972 L 279.98971208548164 41.54072537328216 L 280.70875801863656 41.61776847922988 L 280.95947684302655 41.69489264053823 L 281.2293559908451 41.77209802793982 L 281.48672241801177 41.84938481270751 L 281.7590825767875 41.926753166656226 L 282.0045239421496 42.00420326214578 L 282.1508209689289 42.0817352720826 L 282.3071091715527 42.15934936992244 L 283.29840896377544 42.23704572967256 L 283.4738647916066 42.314824525894096 L 283.48673625907566 42.39268593370457 L 283.5122817503126 42.47063012877959 L 283.5544789588064 42.54865728735638 L 284.5848778873574 42.62676758623502 L 284.59968308149087 42.70496120278153 L 285.4414915929668 42.78323831493026 L 285.5638195636967 42.8615991011859 L 285.750857248644 42.940043740626265 L 285.79607485054805 43.01857241290486 L 286.4004372515708 43.097185298253066 L 286.4127858703065 43.17588257748241 L 286.457105785038 43.25466443198786 L 286.8959145532176 43.333531043749645 L 287.1448999633786 43.41248259533586 L 287.1757465674102 43.49151926990521 L 287.35131439709977 43.57064125120951 L 287.399837743916 43.64984872359605 L 287.4892983507013 43.72914187201059 L 287.5769340718 43.80852088199947 L 287.6335617633869 43.88798593971251 L 287.79249054006857 43.96753723190557 L 287.9823624293024 44.04717494594297 L 288.00830897486276 44.126899269800674 L 288.03222027878553 44.206710392068544 L 288.062613754558 44.28660850195263 L 288.2251769973501 44.36659378927891 L 288.60556930179945 44.44666644449512 L 289.08865442399974 44.526826658673826 L 289.1159684503459 44.60707462351502 L 289.2935767738403 44.68741053134886 L 289.32064269634895 44.76783457513886 L 289.3658503900157 44.848346948483936 L 289.5818888623104 44.928947845621906 L 290.0615049712487 45.009637461431794 L 290.0786911265972 45.09041599143666 L 290.6903854450546 45.17128363180723 L 290.7997561372009 45.252240579363615 L 290.92125395012545 45.33328703157906 L 290.97446799343413 45.41442318658221 L 291.06713926431723 45.49564924316053 L 291.1322351387432 45.5769654007629 L 291.2094596834165 45.658371859502836 L 291.60769446915185 45.739868820161064 L 291.61118548682856 45.82145648418873 L 291.7175036839717 45.90313505371046 L 291.9647713002041 45.984904731527195 L 292.0585560385905 46.06676572111917 L 292.05867074798687 46.148718226649294 L 292.11715552484634 46.23076245296579 L 292.17124750183655 46.3128986056056 L 292.1928118928853 46.39512689079697 L 292.61565909755575 46.47744751546338 L 292.65699488855944 46.55986068722598 L 292.9108776077728 46.6423666144068 L 293.65287854722476 46.72496550603216 L 293.8286851827406 46.80765757183599 L 293.86875801176143 46.890443022262616 L 293.87214788080297 46.973322068469884 L 293.874063891876 47.05629492233288 L 294.17227379570545 47.13936179644702 L 294.19781768963264 47.2225229041311 L 294.2419949622843 47.30577845943094 L 294.50062560689605 47.38912867712202 L 294.9141937645323 47.47257377271376 L 295.04583745321366 47.55611396245206 L 295.0660041422021 47.63974946332314 L 295.1584383491694 47.72348049305663 L 295.36671893543587 47.80730727012917 L 295.7084610655092 47.891230013767654 L 295.923408865185 47.975248943952806 L 295.9934943880706 48.059364281422745 L 296.11250310763825 48.14357624767604 L 296.17556433453444 48.22788506497568 L 296.3358288494429 48.3122909563524 L 296.4397707760681 48.396794145608055 L 296.5836599197978 48.48139485731963 L 296.8943167992861 48.5660933168424 L 297.03548304013634 48.65088975031347 L 297.2148992087831 48.73578438465597 L 297.4207986231389 48.82077744758203 L 297.42531256763857 48.90586916759696 L 297.44490561699433 48.99105977400245 L 297.7086621221659 49.07634949690089 L 297.7779168741375 49.16173856719831 L 297.9285378467973 49.24722721660919 L 298.0235730967926 49.33281567765903 L 298.33109049816085 49.41850418368904 L 298.425196192561 49.504292968859545 L 298.7147355926762 49.59018226815408 L 298.7575647400163 49.67617231738279 L 298.88488757494633 49.762263353186995 L 298.8919817782229 49.848455613042574 L 298.9130354341928 49.93474933526386 L 298.97119368003166 50.02114475900805 L 299.2147975493896 50.107642124278755 L 299.3637049047543 50.1942416719304 L 299.3900174000611 50.28094364367166 L 299.5235371457526 50.36774828207024 L 299.54309879232017 50.454655830556135 L 299.5531818920434 50.54166653342645 L 299.5824994776224 50.62878063584924 L 299.830999939042 50.71599838386726 L 299.8625531557633 50.80332002440309 L 300.2614550055644 50.890745805262554 L 300.3819277797187 50.97827597513867 L 300.39795447288463 51.06591078361703 L 300.4586786122253 51.153650481179056 L 301.3488991276448 51.241495319206706 L 301.8915035191801 51.329445549986644 L 302.0193496267426 51.41750142671481 L 302.10968733204595 51.50566320350083 L 302.3005899800884 51.59393113537169 L 302.7398781914826 51.68230547827716 L 302.76003706433653 51.77078648909378 L 302.83667206785447 51.8593744256292 L 303.0867206246589 51.94806954662704 L 303.3227278136233 52.036872111771004 L 303.55621791526596 52.12578238168999 L 303.90046024217725 52.21480061796183 L 303.9154057423907 52.30392708311922 L 303.91671102236563 52.39316204065278 L 304.40526609182 52.4825057550172 L 304.56036639772935 52.57195849163486 L 304.59204440417795 52.661520516900964 L 304.7726118052826 52.75119209818865 L 305.0192211460252 52.84097350385309 L 305.0347639643031 52.930865003237045 L 305.05015991107314 53.020866866674965 L 305.2911179916262 53.110979365498224 L 305.31460109300826 53.20120277204035 L 305.31911830530623 53.29153735964155 L 305.4612191371166 53.381983402653645 L 305.54511614231365 53.472541176445134 L 305.55762301622065 53.56321095740668 L 305.7920959072747 53.65399302295509 L 305.8785425111954 53.744887651540125 L 305.88085771641937 53.83589512264757 L 305.978078258331 53.927015716805954 L 305.999387077458 54.01824971559131 L 306.2280510460831 54.10959740163196 L 306.2367074903466 54.20105905861419 L 306.3092673020342 54.29263497128761 L 306.4369554956623 54.384325425470024 L 306.52817399044034 54.47613070805346 L 306.76135737411386 54.56805110700884 L 306.97533848686464 54.66008691139177 L 307.024182306669 54.75223841134812 L 307.055880614119 54.84450589811922 L 307.17388634567135 54.936889664047385 L 307.18333831719144 55.029390002581636 L 307.29364692265 55.12200720828366 L 307.7895812947148 55.21474157683224 L 307.97309783133585 55.307593405030616 L 308.1537348680167 55.4005629908105 L 308.37946548075223 55.49365063323887 L 308.549895440663 55.58685663252356 L 308.6083861521071 55.68018129001905 L 308.6662241050324 55.77362490823168 L 308.9933413513721 55.86718779082673 L 309.17184271809606 55.960870242633405 L 309.3180093953207 56.054672569651075 L 309.4347938091713 56.1485950790551 L 309.66611705733885 56.24263807920329 L 310.0412856743169 56.33680187964194 L 310.23119471432096 56.431086791111284 L 310.36986587024506 56.525493125552316 L 310.8908086147368 56.6200211961127 L 311.1711686581786 56.71467131715326 L 311.25698939521214 56.80944380425376 L 311.26564617217207 56.90433897421963 L 311.31415290489355 56.99935714508831 L 311.82559342551 57.09449863613554 L 311.8896428308284 57.18976376788157 L 311.91850280304413 57.28515286209813 L 311.99053752364165 57.380666241814765 L 312.1289403624378 57.47630423132489 L 312.19421890766904 57.57206715619327 L 312.4880262283899 57.66795534326195 L 312.5204255640474 57.76396912065741 L 312.5245405123791 57.86010881779703 L 312.6787571449982 57.95637476539582 L 312.73506144648275 58.05276729547376 L 312.7885998721737 58.14928674136195 L 312.9519896599668 58.24593343770999 L 313.081790318977 58.34270772049297 L 313.122101745126 58.43960992701807 L 313.2994064095091 58.53664039593207 L 313.5235573903966 58.63379946722813 L 314.2228174338878 58.731087482253315 L 314.2547248029386 58.82850478371506 L 314.34204148244174 58.92605171568954 L 314.6793677427888 59.023728623627676 L 314.7996119123735 59.12153585436363 L 315.5490561682579 59.21947375612132 L 315.56847077095495 59.317542678522386 L 315.6500755777878 59.41574297259365 L 315.95241286865394 59.51407499077408 L 316.1256191241961 59.61253908692339 L 316.1658043929482 59.71113561632865 L 316.1829081293195 59.809864935712596 L 316.2076295796949 59.90872740324119 L 316.23252947380126 60.00772337853158 L 316.42186194035287 60.10685322265954 L 316.4504466392624 60.20611729816795 L 316.4607760363484 60.30551596907418 L 316.515621881259 60.40504960087844 L 316.58552153201583 60.50471856057186 L 316.68208534375265 60.604523216644395 L 316.7587200840095 60.70446393909316 L 317.02983940836634 60.804541099430594 L 317.2354018692736 60.904755070692886 L 317.5841731370069 61.00510622744798 L 317.7323411617775 61.1055949458044 L 318.0997962600194 61.206221603419465 L 318.29062223770876 61.306986579507736 L 318.3204208539556 61.40789025484986 L 318.3477359663084 61.50893301180082 L 318.35034898411686 61.610115234299144 L 318.57603286960295 61.71143730787509 L 318.59492286456464 61.81289961965996 L 318.7641966992734 61.914502558394474 L 318.77195341179055 62.01624651443831 L 318.7935357803774 62.118131879778616 L 318.82727208824247 62.220159048039136 L 318.8487242036696 62.32232841448962 L 319.06185689957874 62.42464037605464 L 319.09722866356765 62.52709533132321 L 319.1345145495462 62.62969368055769 L 319.3398211760656 62.73243582570365 L 319.51411038704964 62.835322170398854 L 319.5216216238057 62.938353119983105 L 319.5595019519785 63.04152908150763 L 319.58578264155403 63.14485046374483 L 319.6912435295227 63.24831767719803 L 319.8434173312636 63.35193113411117 L 320.0714269371688 63.455691248478615 L 320.370501495217 63.55959843605524 L 320.4255607272147 63.663653114366355 L 320.47379137721276 63.76785570271778 L 320.509550269783 63.872206622205795 L 320.5209508522041 63.97670629572781 L 320.6283540010352 64.0813551479921 L 320.84473669574857 64.1861536055286 L 320.97461644807174 64.29110209669898 L 320.99911616769725 64.39620105170764 L 321.08423922813023 64.50145090261151 L 321.39031981102744 64.60685208333155 L 321.45691725638363 64.71240502966299 L 321.61813535423505 64.81811017928618 L 322.01589560551884 64.92396797177787 L 322.0983613163175 65.02997884862145 L 322.11176500042984 65.13614325321856 L 322.4513246450809 65.24246163090032 L 322.5487830346076 65.34893442893792 L 322.5569017091261 65.4555620965545 L 322.70266102679284 65.56234508493628 L 322.7720782915268 65.66928384724406 L 322.8129597619119 65.77637883862451 L 322.8790364043094 65.8836305162223 L 323.12302650311983 65.99103933919162 L 323.2741504068224 66.09860576870733 L 323.34094489380027 66.20633026797799 L 323.36312295876724 66.31421330225686 L 323.4535505732267 66.4222553388546 L 323.4599332045532 66.53045684715096 L 323.5042710207406 66.63881829860713 L 323.61277170604495 66.74734016677843 L 323.9462976325732 66.85602292732614 L 324.0030663553234 66.96486705803039 L 324.21280075166055 67.07387303880279 L 324.3519777528127 67.1830413516987 L 324.42804112163117 67.2923724809308 L 324.5131382472819 67.40186691288113 L 324.69595449531994 67.51152513611459 L 324.753209572032 67.62134764139171 L 324.84278156374944 67.73133492168233 L 324.9234294622632 67.8414874721783 L 325.333723746411 67.95180579030716 L 325.95266681452796 68.06229037574542 L 326.13287817234857 68.17294173043263 L 326.27048463289486 68.28376035858435 L 326.4865983772464 68.39474676670648 L 326.51690633424914 68.50590146360895 L 326.83249038513577 68.61722496041966 L 327.0429295826391 68.72871777059879 L 327.18361240907655 68.84038040995267 L 327.3846746623922 68.95221339664846 L 327.41591085877735 69.0642172512284 L 327.56280192082124 69.17639249662443 L 327.8817099564716 69.28873965817252 L 327.9590982072908 69.40125926362799 L 328.1123479612547 69.51395184317983 L 328.2514070632503 69.62681792946626 L 328.7606208145776 69.73985805758912 L 328.90800535941696 69.85307276512981 L 329.06482308598277 69.96646259216413 L 329.26345132420397 70.08002808127804 L 329.3198670607541 70.19376977758304 L 329.4216710744079 70.30768822873188 L 329.61620025442824 70.42178398493462 L 329.6244918838896 70.53605759897425 L 329.62757901434725 70.65050962622303 L 329.75662117570283 70.76514062465839 L 329.8699805842074 70.87995115487962 L 329.8839602820055 70.99494178012401 L 330.1070924221 71.11011306628359 L 330.26217685341237 71.22546558192175 L 330.31260930966096 71.34099989829025 L 330.6962920536524 71.45671658934583 L 330.770062312386 71.57261623176782 L 330.9123948230438 71.6886994049749 L 331.13993370409247 71.80496669114285 L 331.3188659342761 71.92141867522201 L 331.5280387784595 72.03805594495446 L 331.6125271390961 72.15487909089268 L 331.62782230533196 72.27188870641663 L 331.698175735606 72.38908538775257 L 331.75586548691496 72.50646973399057 L 332.10147778512726 72.62404234710345 L 332.3611628711774 72.74180383196517 L 332.42232623853647 72.85975479636937 L 332.43887628045366 72.97789585104829 L 332.57455054684146 73.09622760969148 L 332.64289372185567 73.21475068896552 L 333.1079144540579 73.3334657085328 L 333.21908472534557 73.45237329107096 L 333.48960649579374 73.5714740622928 L 333.5562482250454 73.69076865096582 L 333.7936854960368 73.81025768893215 L 333.8348701738486 73.92994181112874 L 333.99734347410777 74.04982165560739 L 334.2306116220052 74.16989786355538 L 334.7125111820126 74.290171079316 L 334.755004870157 74.41064195040917 L 334.82058323824947 74.53131112755244 L 334.99612869242924 74.65217926468222 L 335.0563780898174 74.7732470189747 L 335.1388700199832 74.89451505086748 L 335.2467638938653 75.01598402408166 L 335.5098431805184 75.13765460564247 L 335.5129397876815 75.25952746590252 L 335.73317695885686 75.38160327856315 L 335.8292267955169 75.50388272069705 L 335.90992152629894 75.62636647277077 L 335.9600723247893 75.74905521866742 L 336.2684069147374 75.87194964570955 L 336.27087383794805 75.99505044468259 L 336.30855460350244 76.11835830985729 L 336.3873971406405 76.24187393901428 L 336.5525076374523 76.36559803346705 L 336.692991213584 76.48953129808609 L 336.75812000223453 76.61367444132287 L 336.78333280896777 76.73802817523438 L 336.88094157426644 76.86259321550733 L 336.97727340778863 76.9873702814831 L 336.9791271496796 77.11236009618233 L 337.4506620615498 77.23756338633063 L 337.51722323659055 77.3629808823834 L 337.5629125949128 77.48861331855181 L 337.6286813649795 77.61446143282797 L 337.66573099831623 77.74052596701165 L 337.7021838655819 77.86680766673629 L 337.7405861605301 77.99330728149516 L 337.86402420321633 78.12002556466842 L 337.89630088008107 78.24696327354974 L 338.10252097901764 78.37412116937378 L 338.21851494998185 78.5015000173434 L 338.2582150458986 78.62910058665727 L 338.34985819151404 78.7569236505376 L 338.4763135894306 78.88496998625862 L 338.6233353923425 79.01324037517486 L 338.6342739102811 79.1417356027494 L 338.70196609012 79.27045645858288 L 339.3844646082529 79.39940373644316 L 339.44392467556395 79.52857823429372 L 339.4986970092489 79.65798075432406 L 339.6870822521651 79.7876121029795 L 339.7262939922829 79.91747309099077 L 339.73072238747886 80.04756453340497 L 339.94002430188715 80.17788724961645 L 339.95068380971327 80.30844206339691 L 340.12108536340986 80.43922980292763 L 340.17072410555113 80.5702513008302 L 340.5211965524941 80.70150739419898 L 340.56810740493427 80.8329989246327 L 340.6226961976612 80.96472673826696 L 340.77959868741937 81.09669168580717 L 341.01204633314677 81.22889462256103 L 341.141372073913 81.36133640847231 L 341.15423188407726 81.49401790815409 L 341.5017296139586 81.6269399909225 L 341.6990684079956 81.76010353083132 L 341.79960705976447 81.89350940670624 L 341.8646140751234 82.02715850217953 L 342.06734878017147 82.16105170572524 L 342.50282348381995 82.29518991069506 L 342.5258437272074 82.42957401535324 L 342.58406107217854 82.5642049229134 L 342.58797006742003 82.69908354157474 L 342.6128555971773 82.83421078455848 L 342.76446421548815 82.96958757014573 L 342.85494279884176 83.10521482171396 L 342.9231254769154 83.2410934677755 L 343.0905912447282 83.37722444201546 L 343.4197830280676 83.51360868333023 L 343.6408462540381 83.65024713586632 L 343.69410329934055 83.78714074905946 L 343.6996026089398 83.9242904776745 L 343.9054810673954 84.061697281845 L 343.93593380984237 84.19936212711372 L 343.97148301745915 84.33728598447368 L 344.2379506612126 84.47546983040843 L 344.2627889944036 84.61391464693429 L 344.43335551802886 84.75262142164195 L 344.4465052559558 84.89159114773861 L 344.54904853218727 85.03082482409093 L 344.6929305543831 85.17032345526775 L 344.77706048847693 85.31008805158399 L 344.8675366534178 85.45011962914418 L 344.87070302375923 85.5904192098871 L 345.07107696664366 85.73098782163026 L 345.0800449919265 85.87182649811535 L 345.4019743644044 86.01293627905346 L 345.52948530686217 86.15431821017165 L 345.5503589313863 86.29597334325888 L 345.6429786924239 86.43790273621352 L 345.65093253295083 86.58010745309036 L 345.69671085324285 86.72258856414862 L 345.7233676539871 86.8653471459001 L 345.8859540391252 87.0083842811585 L 345.94498340188534 87.151701059088 L 346.0413170934633 87.29529857525358 L 346.05365578623594 87.43917793167088 L 346.0577365395371 87.58334023685723 L 346.4435972091667 87.72778660588278 L 346.5157060893756 87.8725181604222 L 346.546724048034 88.017536028807 L 346.63963124577765 88.16284134607832 L 346.70866708368294 88.30843525404026 L 346.91059250512694 88.45431890131357 L 346.9603327367358 88.60049344339018 L 347.26162962405425 88.74696004268799 L 348.1318007200968 88.89371986860652 L 348.1928363513384 89.0407740975827 L 348.19720286705 89.18812391314765 L 348.56393314100234 89.3357705059837 L 348.65714084590127 89.48371507398207 L 348.8576542238426 89.6319588223015 L 348.9015010196558 89.78050296342667 L 348.9500334010788 89.92934871722821 L 348.95107658101773 90.07849731102249 L 349.2042365349216 90.22794997963211 L 349.2227231118019 90.37770796544811 L 349.32890617146586 90.5277725184909 L 349.4229702875683 90.6781448964735 L 349.4403802980149 90.82882636486471 L 349.72989970855673 90.97981819695275 L 349.761747535442 91.13112167391017 L 349.87484041671416 91.28273808485869 L 349.90127995467117 91.43466872693534 L 349.984543573332 91.58691490535932 L 350.09616738247473 91.73947793349862 L 350.13287165579555 91.89235913293845 L 350.20549268579873 92.04555983354993 L 350.3099852938859 92.19908137355924 L 350.6083142112043 92.352925099618 L 350.70215780829415 92.50709236687413 L 350.9015426849419 92.66158453904342 L 350.9797401760114 92.81640298848168 L 350.9844710844028 92.97154909625834 L 351.0303684884949 93.12702425223006 L 351.08505306688335 93.28282985511555 L 351.16682130537197 93.43896731257087 L 351.18709059758174 93.59543804126605 L 351.24201256696597 93.75224346696211 L 351.3674870791341 93.90938502458886 L 351.5694207791723 94.06686415832382 L 351.6044377755489 94.22468232167176 L 351.6264033360424 94.38284097754541 L 351.66691890966206 94.54134159834655 L 351.7082836154715 94.70018566604841 L 351.9163001008293 94.85937467227893 L 351.95073551971007 95.01891011840439 L 352.42025147925835 95.17879351561481 L 352.5961268419267 95.33902638500973 L 352.63169161994927 95.49961025768482 L 352.6726570538547 95.6605466748199 L 352.7701478254565 95.82183718776758 L 352.79266492589886 95.98348335814319 L 352.79529324437374 96.14548675791491 L 352.9180200769477 96.30784896949649 L 353.0607243455946 96.4705715858388 L 353.2515085340698 96.63365621052469 L 353.3093052099107 96.79710445786304 L 353.40015584086586 96.96091795298526 L 353.5942327786552 97.12509833194139 L 353.72946802830893 97.28964724179929 L 353.83473892790255 97.45456634074259 L 354.1202523798226 97.61985729817195 L 354.1423899182271 97.78552179480573 L 354.2325560827144 97.95156152278292 L 354.3156395873728 98.11797818576684 L 354.4090834831386 98.2847734990496 L 354.56995197005097 98.45194918965905 L 354.65313731006927 98.61950699646508 L 354.67903411526237 98.78744867028877 L 354.858447222173 98.95577597401183 L 354.92789997244506 99.12449068268825 L 354.95858224770643 99.29359458365559 L 355.1353188871626 99.46308947664937 L 355.26109485427196 99.63297717391794 L 355.3190731409597 99.80325950033836 L 355.3967278500916 99.97393829353427 L 355.43187188378465 100.14501540399493 L 355.4327845018645 100.3164926951955 L 355.55917115226305 100.4883720437187 L 355.6382598963043 100.66065533937842 L 356.0145564329605 100.83334448534384 L 356.3088851350291 101.0064413982663 L 356.38974473794286 101.17994800840614 L 356.5768874349379 101.35386625976236 L 356.78133252262637 101.52819811020316 L 356.79887167736285 101.7029455315984 L 356.92853950331187 101.87811050995293 L 356.95862322252515 102.05369504554261 L 357.2700182364381 102.22970115305077 L 357.3056821460908 102.40613086170754 L 357.4224945863437 102.58298621542963 L 357.62734026918076 102.76026927296294 L 357.7842278398349 102.93798210802578 L 357.91677616915626 103.11612680945512 L 357.9639967555687 103.2947054813531 L 357.9850793957901 103.47372024323681 L 358.0426479303994 103.65317323018905 L 358.0606748378105 103.83306659301087 L 358.12806274573614 104.01340249837631 L 358.2915910671365 104.19418312898955 L 358.3293688104226 104.37541068374253 L 358.3371737997278 104.55708737787603 L 358.4834012649785 104.73921544314186 L 358.49512407256964 104.9217971279678 L 358.51864950038265 105.10483469762346 L 358.5412311614449 105.28833043438942 L 358.5724005834826 105.47228663772773 L 358.64522913296526 105.65670562445513 L 358.78055009919194 105.8415897289176 L 358.8182571095371 106.0269413031682 L 358.9071815450284 106.2127627171464 L 358.95563222961516 106.39905635885953 L 359.06519476373137 106.58582463456764 L 359.0774267351317 106.77306996896937 L 359.1122515769462 106.96079480539089 L 359.2135576805575 107.1490016059779 L 359.43954819431383 107.33769285188822 L 359.56785962760944 107.52687104348911 L 359.98894603630873 107.71653870055542 L 360.0060809685008 107.90669836247133 L 360.3206444978142 108.09735258843409 L 360.47561935212775 108.2885039576608 L 360.51491703190925 108.48015506959786 L 360.5693319574427 108.67230854413287 L 360.6306653068235 108.86496702180972 L 360.8507860246614 109.0581331640459 L 361.10206148067493 109.25180965335397 L 361.2558256616416 109.44599919356403 L 361.26919813440566 109.64070451005097 L 361.37561639706917 109.83592834996358 L 361.4412929744402 110.03167348245722 L 361.48019333964 110.22794269892955 L 361.54171389396316 110.4247388132593 L 361.57264138695575 110.62206466204844 L 361.66685945031816 110.81992310486748 L 361.6712843285501 111.01831702450386 L 362.13130471749207 111.21724932721435 L 362.1424528602117 111.41672294298036 L 362.15468701599144 111.61674082576656 L 362.2985220760081 111.81730595378389 L 362.3928747793001 112.01842132975537 L 362.5340623633792 112.22008998118571 L 362.60260142265946 112.42231496063499 L 362.6487030320418 112.6250993459958 L 362.699562407535 112.82844624077421 L 362.74157457071794 113.03235877437504 L 362.86998630214254 113.23684010239054 L 362.8716788312428 113.44189340689366 L 362.9085948651649 113.6475218967347 L 363.05171961037286 113.85372880784348 L 363.0669672860848 114.06051740353399 L 363.1020286339231 114.26789097481452 L 363.5338880938399 114.47585284070226 L 363.5933989109119 114.68440634854176 L 363.6157151326965 114.89355487432806 L 363.74504346227775 115.10330182303494 L 363.89107718055294 115.31365062894736 L 363.8929286891629 115.5246047559989 L 364.15228709284645 115.73616769811377 L 364.45175552965657 115.94834297955452 L 364.8295351954515 116.16113415527383 L 364.90021846458785 116.37454481127224 L 364.93707515402036 116.58857856496041 L 365.0598952811715 116.80323906552752 L 365.12878573048965 117.0185299943139 L 365.2070232606851 117.23445506519056 L 365.24526374951364 117.4510180249431 L 365.24733768644376 117.6682226536621 L 365.5267463921676 117.88607276513864 L 365.7322606312072 118.10457220726676 L 365.83092876400275 118.32372486245043 L 365.89461614409953 118.54353464801824 L 366.3931701330293 118.76400551664301 L 366.85918733399393 118.98514145676853 L 366.89348251998047 119.20694649304238 L 366.9096653613565 119.42942468675557 L 367.0323170180384 119.65258013628858 L 367.0724769434023 119.87641697756436 L 367.1389571404302 120.10093938450842 L 367.33492878545024 120.32615156951573 L 367.42685987267384 120.55205778392497 L 367.46164207741384 120.77866231850004 L 367.507948586763 121.00596950391895 L 367.57016225699346 121.23398371127053 L 367.76785618537207 121.46270935255887 L 368.3416660430287 121.69215088121553 L 368.3925468973946 121.9223127926195 L 368.50155589416136 122.15319962462615 L 368.5941487723402 122.38481595810373 L 368.6747248051969 122.61716641747881 L 368.69784396717745 122.85025567129037 L 368.69875215906643 123.0840884327526 L 368.868483135822 123.31866946032648 L 369.34698065633165 123.55400355830108 L 369.621318983581 123.79009557738408 L 369.64562470142 124.02695041530143 L 369.7230001779731 124.26457301740686 L 369.9331993808266 124.50296837730173 L 370.00795491496575 124.74214153746459 L 370.3312084127429 124.98209758989134 L 370.3891221453709 125.22284167674508 L 370.56634295147495 125.46437899101812 L 370.5785553180518 125.70671477720344 L 370.6416543282831 125.94985433197837 L 370.66528224730314 126.19380300489905 L 370.75402841217226 126.43856619910667 L 370.79516846098903 126.68414937204545 L 370.8509867460219 126.93055803619319 L 370.911914300785 127.17779775980296 L 370.91713614445484 127.42587416765878 L 370.9428790508732 127.67479294184324 L 370.95477133193566 127.92455982251823 L 371.2092728268973 128.17518060871936 L 371.3511669625747 128.4266611591638 L 371.3644582161236 128.6790073930722 L 371.3713187060951 128.93222529100422 L 371.4416098787318 129.18632089570974 L 371.49542533391605 129.44130031299312 L 371.7218970238599 129.6971697125946 L 371.83935121901953 129.95393532908525 L 371.8979172755289 130.211603462779 L 372.2938099449412 130.47018048065996 L 372.3082900172744 130.72967281732656 L 372.5211859465236 130.9900869759523 L 372.5599127626506 131.25142952926348 L 372.7277332211741 131.5137071205349 L 372.9262310702725 131.77692646460292 L 372.95268681413785 132.04109434889693 L 372.9760720145605 132.30621763448994 L 373.1398582496788 132.57230325716722 L 373.1897430129976 132.83935822851544 L 373.49367676894536 133.1073896370309 L 373.77976476033047 133.37640464924937 L 373.8777924599717 133.64641051089444 L 373.94016321565437 133.91741454804986 L 374.1178850154827 134.18942416835137 L 374.32995609180153 134.46244686220217 L 374.45863450967136 134.73649020401035 L 374.7133022613067 135.01156185344968 L 375.06904689422515 135.28766955674433 L 375.09217552534017 135.56482114797785 L 375.13894085954007 135.84302455042678 L 375.4564216346859 136.12228777791984 L 375.48024630271675 136.40261893622295 L 375.54048252751574 136.6840262244512 L 375.56810492151413 136.9665179365075 L 375.8575669768652 137.25010246254948 L 376.181621885195 137.53478829048447 L 376.2509153485567 137.8205840074944 L 376.27144405324026 138.1074983015895 L 376.2831383546596 138.39553996319313 L 376.419589352301 138.6847178867581 L 376.4240380356866 138.97504107241434 L 376.4991879124518 139.26651862764948 L 376.67706085343224 139.55915976902395 L 376.9137460658512 139.85297382391866 L 377.06803553305883 140.1479702323196 L 377.1156247582335 140.44415854863746 L 377.15365106588547 140.74154844356417 L 377.36429513971865 141.04014970596808 L 377.36596281935124 141.3399722448268 L 377.4183750884285 141.64102609120062 L 377.6660015036139 141.94332140024608 L 377.8338099401248 142.2468684532713 L 377.8628224277184 142.55167765983452 L 377.8703653063702 142.85775955988578 L 377.91987783215353 143.16512482595397 L 377.92753170881645 143.47378426537927 L 377.93289893732214 143.78374882259425 L 378.2252381486562 144.0950295814514 L 378.303752035209 144.40763776760195 L 378.4803325465364 144.72158475092482 L 378.53285042191663 145.03688204800767 L 378.6207695601682 145.35354132468245 L 378.6586002713986 145.67157439861472 L 378.79186878320206 145.99099324195078 L 379.1258925080495 146.3118099840206 L 379.1979205878693 146.6340369141035 L 379.4025982036412 146.95768648425081 L 379.6864328409533 147.28277131217465 L 379.86762086130017 147.609304184199 L 380.08805164995744 147.9372980582774 L 380.40513165500187 148.26676606707855 L 380.421456668386 148.59772152114164 L 380.495354292462 148.9301779121027 L 380.5532747966761 149.26414891599495 L 380.5704079887458 149.59964839662462 L 380.644507805649 149.93669040902415 L 380.9005023495708 150.27528920298533 L 381.05857943814124 150.61545922667426 L 381.1951566321896 150.95721513033084 L 381.2151089236852 151.30057177005466 L 381.21577505490677 151.6455442116798 L 381.4926019417846 151.99214773474205 L 381.62907812439005 152.34039783653913 L 381.6470291663427 152.6903102362889 L 381.9428079086984 153.04190087938673 L 382.0501670426524 153.3951859417656 L 382.05316371463596 153.75018183436168 L 382.05571643261925 154.10690520768895 L 382.17129973231977 154.4653729565249 L 382.2991649899673 154.82560222471227 L 382.32597392021813 155.18761041007843 L 382.33160201818976 155.55141516947782 L 382.3470911180237 155.91703442395936 L 382.4224902295243 156.28448636406358 L 382.4557660040073 156.65378945525345 L 382.5465549645055 157.02496244348225 L 382.5549567934696 157.39802436090343 L 382.5846958896524 157.77299453172685 L 382.68735352000056 158.14989257822413 L 382.8707516863871 158.52873842689132 L 383.0944427193926 158.90955231477 L 383.26519826385453 159.29235479593376 L 383.2975287212322 159.6771667481455 L 383.3012847348265 160.06400937968988 L 383.51055150052105 160.45290423638698 L 383.6900121073129 160.84387320879313 L 383.9361193732 161.2369385395952 L 383.9636093744643 161.6321228312034 L 384.3775737203288 162.02944905355025 L 384.4282039557377 162.4289405521024 L 384.4348257380831 162.83062105609122 L 384.5140482562481 163.23451468697095 L 384.6395861286324 163.64064596711006 L 384.6431343706842 164.04903982872645 L 384.7020281787228 164.45972162307066 L 384.76188693547437 164.8727171298699 L 384.87588263491097 165.28805256703816 L 384.90534302497383 165.70575460066397 L 384.96781067075534 166.1258503552832 L 385.30172856662074 166.54836742444968 L 385.34816088674404 166.97333388160973 L 385.34966533137765 167.40077829129632 L 385.4157650588354 167.83072972064969 L 385.6788970445135 168.263217751279 L 385.6825706099101 168.69827249147454 L 385.7799182908436 169.1359245887864 L 385.8279258228991 169.57620524297886 L 385.9871268145283 170.01914621937834 L 386.31598084365805 170.46477986262448 L 386.39093793073954 170.91313911084433 L 386.39613023559167 171.36425751026093 L 386.573517496383 171.8181692302548 L 386.8130970467211 172.27490907889484 L 387.51484150403405 172.7345125189554 L 387.78503352050814 173.19701568443958 L 387.83636001753604 173.66245539762633 L 387.97929067998973 174.13086918666227 L 388.1043686435912 174.60229530372004 L 388.21979093127607 175.0767727437427 L 388.2721216866178 175.55434126380055 L 388.3760841638119 176.0350414030811 L 389.09914022660604 176.51891450353935 L 389.1672208376747 177.00600273123496 L 389.60843057974614 177.49634909838147 L 389.67494899066077 177.98999748613886 L 390.0103307676956 178.48699266817914 L 390.0901662042373 178.98738033505526 L 390.24195775385414 179.4912071194081 L 390.3491015059781 179.99852062204565 L 390.7441597106639 180.50936943893043 L 390.9781897806789 181.02380318911497 L 391.02487328061346 181.54187254366246 L 391.12154066991775 182.06362925559944 L 391.61127264276604 182.58912619093883 L 391.6211001975129 183.1184173608259 L 391.68812254505633 183.65155795485128 L 391.7284425984822 184.18860437558527 L 391.79732657777305 184.72961427438577 L 391.98823354578593 185.27464658853813 L 391.99747522738244 185.82376157978553 L 392.14374239244916 186.37702087431376 L 392.3601825584214 186.93448750425574 L 392.4348316362735 187.4962259507871 L 392.56035310522026 188.06230218888527 L 392.7036524873219 188.6327837338302 L 392.8192594214185 189.2077396895291 L 393.054248583644 189.7872407987502 L 393.10623404356124 190.3713594953598 L 393.1570815607859 190.96016995865546 L 393.21932900147914 191.55374816990002 L 393.24317277434966 192.15217197116266 L 393.5310817268536 192.75552112658187 L 393.9262162787649 193.36387738617054 L 393.9815949580098 193.97732455228982 L 394.435474647963 194.5959485489302 L 394.4798262336441 195.21983749393797 L 394.6124347530413 195.8490817743437 L 394.7640696368364 196.48377412495074 L 394.78329169201965 197.12400971035663 L 395.1455184694389 197.76988621058678 L 395.1708286765148 198.42150391053485 L 395.1968960508577 199.0789657934145 L 395.64669260646315 199.7423776384386 L 395.97794967142414 200.41184812296052 L 396.1592894914208 201.08748892932118 L 396.25922946013765 201.76941485666674 L 396.294750170842 202.4577439380157 L 396.5895605330711 203.15259756287497 L 396.98753238680166 203.85410060572258 L 397.05871207129354 204.5623815606976 L 397.0776026017816 205.2775726828608 L 397.08545522121506 205.99981013641428 L 397.5886380112969 206.72923415029516 L 398.0080910506045 207.46598918158935 L 398.17249375541866 208.2102240872394 L 398.81229325102174 208.96209230456003 L 399.0647455117159 209.7217520411059 L 399.23310231919896 210.48936647448141 L 399.28742806423253 211.26510396272278 L 399.3299677707492 212.0491382659311 L 399.5803083855271 212.8416487798861 L 399.6467574364193 213.64282078242718 L 399.85186023225475 214.45284569344602 L 400.10861081950907 215.27192134940657 L 400.2011611194578 216.100252293374 L 400.2771079825176 216.93805008161917 L 400.88067020956737 217.78553360794558 L 400.90200646111276 218.6429294469857 L 400.9098953207288 219.5104722178105 L 401.0777132023797 220.38840496931488 L 401.10085860055796 221.2769795889604 L 401.12704257963674 222.17645723659683 L 401.21626775789076 223.08710880523074 L 401.370527382381 224.00921541077548 L 401.4185762618456 224.94306891299829 L 402.024687761021 225.88897247007867 L 402.29306915616553 226.8472411294169 L 402.29980510775266 227.81820245757086 L 402.72180764785094 228.80219721247477 L 402.93206065695244 229.7995800613911 L 403.00654694743486 230.81072034838155 L 403.11926377890995 231.83600291545082 L 403.6475422043193 232.87582898193534 L 403.83721293952186 233.9306170871618 L 404.00431612063375 235.00080410192118 L 404.16713121433526 236.08684631487404 L 404.31232287893124 237.18922060064972 L 404.50506105635657 238.308425677123 L 404.6230624378823 239.44498346016616 L 404.7967843961741 240.59944052508598 L 405.23726653199265 241.77236968499136 L 405.5370857694091 242.96437169749856 L 406.04455913519087 244.17607711250628 L 406.1243040031138 245.408148275266 L 406.9247039890679 246.66128150067942 L 408.774581045197 247.93620943669242 L 408.878299114466 249.2337036368707 L 408.8836686074478 250.5545773647744 L 409.0666960582977 251.8996886556571 L 409.0913122980938 253.2699436643515 L 410.1070879829556 254.66630033205837 L 410.1164254320135 256.0897724091968 L 410.1348491453401 257.54143387663123 L 410.41310427720015 259.0224238135754 L 410.5286537319813 260.5339517674419 L 411.5436593073268 262.0773036890588 L 412.61004376387933 263.6538485062222 L 412.7870990441104 265.265045419782 L 413.62416582074013 266.9124520197101 L 416.0419403322698 268.59773333428154 L 416.6980726154747 270.32267194414635 L 419.9871274119944 272.08917931529624 L 420.25180920877006 273.89930853156665 L 420.3052177814631 275.75526863933413 L 420.4380780154818 277.6594408557528 L 420.8659134253103 279.6143969388106 L 421.2351035960544 281.62292007471746 L 421.3405683969632 283.6880287082712 L 424.66365304591756 285.813003828257 L 425.7566765611572 288.0014203269855 L 425.7755879012461 290.25718318650206 L 426.4340327331795 292.58456941132727 L 427.1560113564804 294.9882768388422 L 428.4854819600106 297.4734812270153 L 428.89438358678467 300.0459033632066 L 429.4018015037598 302.71188838199294 L 431.2579661738639 305.47850005839433 L 431.6560519800696 308.35363360296697 L 435.2011646707746 311.3461514937776 L 438.60007673322195 314.4660482325578 L 444.65351985285963 317.7246517460457 L 448.3225297515087 321.1348716704821 L 449.80818567079035 324.7115082579023 L 455.21347145828446 328.4716405820885 L 455.7198618497931 332.435119801053 L 455.9216262720821 336.62520355459316 L 460.7437893116966 341.06938291283825 L 464.40982558295497 345.8004765651784 L 464.722287337151 350.85810308954285 L 469.19426526315823 356.2906997847306 L 471.1573251924111 362.1583512201139 L 482.41666976798297 368.53685147238195 L 488.9163857905105 375.52370798423874 L 494.1976703863771 383.24731952738944 L 498.9541485177298 391.8815826391742 L 499.69260865763107 401.6703028158787 L 502.9887576020303 412.97055094644975 L 503.38097424658787 426.3359077105746 L 505.0253346531712 442.69378236551006 L 507.7557202275895 463.7827506727857 L 513.0545164113164 493.5059820918459 L 525.1134649377153 544.3181818181819" stroke-linejoin="bevel" stroke-miterlimit="10"/><path fill="none" stroke="none"/></g></g></g><g clip-path="url(#hEAphQkQLrkH)"><g><g/><g><path fill="#ffffff" stroke="#e5e5e5" paint-order="fill stroke markers" d=" M 123 475 L 255 475 L 255 560 L 123 560 L 123 475 Z" fill-opacity="0.95" stroke-linejoin="bevel" stroke-miterlimit="10" stroke-opacity="0.5"/><text fill="#444444" stroke="none" font-family="helvetica" font-size="22pt" font-style="normal" font-weight="normal" text-decoration="normal" x="158" y="500.5" text-anchor="start" dominant-baseline="central">male</text><g><path fill="none" stroke="blue" paint-order="fill stroke markers" d=" M 133 495 L 153 495" stroke-linejoin="bevel" stroke-miterlimit="10"/></g><text fill="#444444" stroke="none" font-family="helvetica" font-size="22pt" font-style="normal" font-weight="normal" text-decoration="normal" x="158" y="534.5" text-anchor="start" dominant-baseline="central">female</text><g><path fill="none" stroke="red" paint-order="fill stroke markers" d=" M 133 529 L 153 529" stroke-linejoin="bevel" stroke-miterlimit="10"/></g></g></g></g><g/><g/><g><g fill="#444444"><path fill="none" stroke="black" paint-order="fill stroke markers" d=" M 113 570 L 570 570" stroke-linejoin="bevel" stroke-miterlimit="10"/><path fill="none" stroke="black" paint-order="fill stroke markers" d=" M 201 576 L 201 568" stroke-linejoin="bevel" stroke-miterlimit="10"/><path fill="none" stroke="black" paint-order="fill stroke markers" d=" M 313 576 L 313 568" stroke-linejoin="bevel" stroke-miterlimit="10"/><path fill="none" stroke="black" paint-order="fill stroke markers" d=" M 420 576 L 420 568" stroke-linejoin="bevel" stroke-miterlimit="10"/><path fill="" stroke="black" paint-order="fill stroke markers" d=" M 523 576 L 523 568" stroke-linejoin="bevel" stroke-miterlimit="10"/><g transform="translate(201,581) rotate(0,0,0)"><text fill="" stroke="none" font-family="helvetica" font-size="26px" font-style="normal" font-weight="normal" text-decoration="normal" x="0" y="0" text-anchor="middle" dominant-baseline="hanging">0.48</text><g transform="rotate(0,0,0) translate(-201,-581) translate(313,581) rotate(0,0,0)"><text fill="" stroke="none" font-family="helvetica" font-size="26px" font-style="normal" font-weight="normal" text-decoration="normal" x="0" y="0" text-anchor="middle" dominant-baseline="hanging">0.5</text><g transform="rotate(0,0,0) translate(-313,-581) translate(420,581) rotate(0,0,0)"><text fill="" stroke="none" font-family="helvetica" font-size="26px" font-style="normal" font-weight="normal" text-decoration="normal" x="0" y="0" text-anchor="middle" dominant-baseline="hanging">0.52</text><g transform="rotate(0,0,0) translate(-420,-581) translate(523,581) rotate(0,0,0)"><text fill="" stroke="none" font-family="helvetica" font-size="26px" font-style="normal" font-weight="normal" text-decoration="normal" x="0" y="0" text-anchor="middle" dominant-baseline="hanging">0.54</text><g transform="rotate(0,0,0) translate(-523,-581)"/></g></g></g></g></g></g><g><g fill="#444444"><path fill="none" stroke="black" paint-order="fill stroke markers" d=" M 113 570 L 113 5" stroke-linejoin="bevel" stroke-miterlimit="10"/><path fill="none" stroke="black" paint-order="fill stroke markers" d=" M 107 537 L 115 537" stroke-linejoin="bevel" stroke-miterlimit="10"/><path fill="none" stroke="black" paint-order="fill stroke markers" d=" M 107 368 L 115 368" stroke-linejoin="bevel" stroke-miterlimit="10"/><path fill="none" stroke="black" paint-order="fill stroke markers" d=" M 107 199 L 115 199" stroke-linejoin="bevel" stroke-miterlimit="10"/><path fill="none" stroke="black" paint-order="fill stroke markers" d=" M 107 31 L 115 31" stroke-linejoin="bevel" stroke-miterlimit="10"/><path fill="none" stroke="black" paint-order="fill stroke markers" d=" M 109 563 L 113 563" stroke-linejoin="bevel" stroke-miterlimit="10"/><path fill="none" stroke="black" paint-order="fill stroke markers" d=" M 109 553 L 113 553" stroke-linejoin="bevel" stroke-miterlimit="10"/><path fill="none" stroke="black" paint-order="fill stroke markers" d=" M 109 545 L 113 545" stroke-linejoin="bevel" stroke-miterlimit="10"/><path fill="none" stroke="black" paint-order="fill stroke markers" d=" M 109 537 L 113 537" stroke-linejoin="bevel" stroke-miterlimit="10"/><path fill="none" stroke="black" paint-order="fill stroke markers" d=" M 109 537 L 113 537" stroke-linejoin="bevel" stroke-miterlimit="10"/><path fill="none" stroke="black" paint-order="fill stroke markers" d=" M 109 486 L 113 486" stroke-linejoin="bevel" stroke-miterlimit="10"/><path fill="none" stroke="black" paint-order="fill stroke markers" d=" M 109 456 L 113 456" stroke-linejoin="bevel" stroke-miterlimit="10"/><path fill="none" stroke="black" paint-order="fill stroke markers" d=" M 109 435 L 113 435" stroke-linejoin="bevel" stroke-miterlimit="10"/><path fill="none" stroke="black" paint-order="fill stroke markers" d=" M 109 419 L 113 419" stroke-linejoin="bevel" stroke-miterlimit="10"/><path fill="none" stroke="black" paint-order="fill stroke markers" d=" M 109 406 L 113 406" stroke-linejoin="bevel" stroke-miterlimit="10"/><path fill="none" stroke="black" paint-order="fill stroke markers" d=" M 109 394 L 113 394" stroke-linejoin="bevel" stroke-miterlimit="10"/><path fill="none" stroke="black" paint-order="fill stroke markers" d=" M 109 385 L 113 385" stroke-linejoin="bevel" stroke-miterlimit="10"/><path fill="none" stroke="black" paint-order="fill stroke markers" d=" M 109 376 L 113 376" stroke-linejoin="bevel" stroke-miterlimit="10"/><path fill="none" stroke="black" paint-order="fill stroke markers" d=" M 109 368 L 113 368" stroke-linejoin="bevel" stroke-miterlimit="10"/><path fill="none" stroke="black" paint-order="fill stroke markers" d=" M 109 368 L 113 368" stroke-linejoin="bevel" stroke-miterlimit="10"/><path fill="none" stroke="black" paint-order="fill stroke markers" d=" M 109 317 L 113 317" stroke-linejoin="bevel" stroke-miterlimit="10"/><path fill="none" stroke="black" paint-order="fill stroke markers" d=" M 109 288 L 113 288" stroke-linejoin="bevel" stroke-miterlimit="10"/><path fill="none" stroke="black" paint-order="fill stroke markers" d=" M 109 267 L 113 267" stroke-linejoin="bevel" stroke-miterlimit="10"/><path fill="none" stroke="black" paint-order="fill stroke markers" d=" M 109 250 L 113 250" stroke-linejoin="bevel" stroke-miterlimit="10"/><path fill="none" stroke="black" paint-order="fill stroke markers" d=" M 109 237 L 113 237" stroke-linejoin="bevel" stroke-miterlimit="10"/><path fill="none" stroke="black" paint-order="fill stroke markers" d=" M 109 226 L 113 226" stroke-linejoin="bevel" stroke-miterlimit="10"/><path fill="none" stroke="black" paint-order="fill stroke markers" d=" M 109 216 L 113 216" stroke-linejoin="bevel" stroke-miterlimit="10"/><path fill="none" stroke="black" paint-order="fill stroke markers" d=" M 109 207 L 113 207" stroke-linejoin="bevel" stroke-miterlimit="10"/><path fill="none" stroke="black" paint-order="fill stroke markers" d=" M 109 199 L 113 199" stroke-linejoin="bevel" stroke-miterlimit="10"/><path fill="none" stroke="black" paint-order="fill stroke markers" d=" M 109 199 L 113 199" stroke-linejoin="bevel" stroke-miterlimit="10"/><path fill="none" stroke="black" paint-order="fill stroke markers" d=" M 109 149 L 113 149" stroke-linejoin="bevel" stroke-miterlimit="10"/><path fill="none" stroke="black" paint-order="fill stroke markers" d=" M 109 119 L 113 119" stroke-linejoin="bevel" stroke-miterlimit="10"/><path fill="none" stroke="black" paint-order="fill stroke markers" d=" M 109 98 L 113 98" stroke-linejoin="bevel" stroke-miterlimit="10"/><path fill="none" stroke="black" paint-order="fill stroke markers" d=" M 109 81 L 113 81" stroke-linejoin="bevel" stroke-miterlimit="10"/><path fill="none" stroke="black" paint-order="fill stroke markers" d=" M 109 68 L 113 68" stroke-linejoin="bevel" stroke-miterlimit="10"/><path fill="none" stroke="black" paint-order="fill stroke markers" d=" M 109 57 L 113 57" stroke-linejoin="bevel" stroke-miterlimit="10"/><path fill="none" stroke="black" paint-order="fill stroke markers" d=" M 109 47 L 113 47" stroke-linejoin="bevel" stroke-miterlimit="10"/><path fill="none" stroke="black" paint-order="fill stroke markers" d=" M 109 38 L 113 38" stroke-linejoin="bevel" stroke-miterlimit="10"/><path fill="none" stroke="black" paint-order="fill stroke markers" d=" M 109 31 L 113 31" stroke-linejoin="bevel" stroke-miterlimit="10"/><path fill="" stroke="black" paint-order="fill stroke markers" d=" M 109 31 L 113 31" stroke-linejoin="bevel" stroke-miterlimit="10"/><g transform="translate(102,537) rotate(0,0,0)"><text fill="" stroke="none" font-family="helvetica" font-size="26px" font-style="normal" font-weight="normal" text-decoration="normal" x="0" y="0" text-anchor="end" dominant-baseline="central">10^-3</text><g transform="rotate(0,0,0) translate(-102,-537) translate(102,368) rotate(0,0,0)"><text fill="" stroke="none" font-family="helvetica" font-size="26px" font-style="normal" font-weight="normal" text-decoration="normal" x="0" y="0" text-anchor="end" dominant-baseline="central">10^-2</text><g transform="rotate(0,0,0) translate(-102,-368) translate(102,199) rotate(0,0,0)"><text fill="" stroke="none" font-family="helvetica" font-size="26px" font-style="normal" font-weight="normal" text-decoration="normal" x="0" y="0" text-anchor="end" dominant-baseline="central">10^-1</text><g transform="rotate(0,0,0) translate(-102,-199) translate(102,31) rotate(0,0,0)"><text fill="" stroke="none" font-family="helvetica" font-size="26px" font-style="normal" font-weight="normal" text-decoration="normal" x="0" y="0" text-anchor="end" dominant-baseline="central">10^0</text><g transform="rotate(0,0,0) translate(-102,-31) translate(26,288) rotate(-90,0,0)"><text fill="" stroke="none" font-family="helvetica" font-size="26pt" font-style="italic" font-weight="normal" text-decoration="normal" x="0" y="0" text-anchor="middle" dominant-baseline="alphabetic">CCDF</text><g transform="rotate(90,0,0) translate(-26,-288)"/></g></g></g></g></g></g></g><g clip-path="url(#GZBXtesQXlkD)"><g/></g><g clip-path="url(#HmEuymQEvVET)"><g/></g></g></g></svg>