<svg version="1.1" xmlns="http://www.w3.org/2000/svg" xmlns:xlink="http://www.w3.org/1999/xlink" width="600" height="600" style="width: 600px; height: 600px;"><defs><clipPath id="biXOyqIeLdgw"><path fill="none" stroke="none" d=" M 113 5 L 570 5 L 570 570 L 113 570 L 113 5 Z"/></clipPath><clipPath id="tCSTdIRLFLTN"><path fill="none" stroke="none" d=" M 113 5 L 570 5 L 570 570 L 113 570 L 113 5 Z"/></clipPath><clipPath id="MTHtRwFtfetP"><path fill="none" stroke="none" d=" M 113 5 L 570 5 L 570 570 L 113 570 L 113 5 Z"/></clipPath><clipPath id="CGhXgxhwZskF"><path fill="none" stroke="none" d=" M 113 5 L 570 5 L 570 570 L 113 570 L 113 5 Z"/></clipPath><clipPath id="IrPXVbMAgcdS"><path fill="none" stroke="none" d=" M 113 5 L 570 5 L 570 570 L 113 570 L 113 5 Z"/></clipPath><clipPath id="LNMDKXOUEALH"><path fill="none" stroke="none" d=" M 113 5 L 570 5 L 570 570 L 113 570 L 113 5 Z"/></clipPath><clipPath id="xxvARXlnPAPR"><path fill="none" stroke="none" d=" M 113 5 L 570 5 L 570 570 L 113 570 L 113 5 Z"/></clipPath><clipPath id="nSpyawBOilOy"><path fill="none" stroke="none" d=" M 113 5 L 570 5 L 570 570 L 113 570 L 113 5 Z"/></clipPath></defs><g><g transform="scale(1,1) translate(0.5,0.5)"><rect fill="#FFFFFF" stroke="none" x="0" y="0" width="600" height="600"/><rect fill="#ffffff" stroke="none" x="0" y="0" width="600" height="600"/><rect fill="#FFFFFF" stroke="none" x="113" y="5" width="457" height="565"/><rect fill="#ffffff" stroke="none" x="113" y="5" width="457" height="565"/><g><rect fill="none" stroke="#e5e5e5" x="113" y="5" width="457" height="565" stroke-linejoin="bevel" stroke-miterlimit="10"/></g><g clip-path="url(#biXOyqIeLdgw)"><g><g><path fill="none" stroke="#e5e5e5" paint-order="fill stroke markers" d=" M 115 570 L 115 5" stroke-linejoin="bevel" stroke-miterlimit="10"/><path fill="none" stroke="#e5e5e5" paint-order="fill stroke markers" d=" M 321 570 L 321 5" stroke-linejoin="bevel" stroke-miterlimit="10"/><path fill="none" stroke="#e5e5e5" paint-order="fill stroke markers" d=" M 508 570 L 508 5" stroke-linejoin="bevel" stroke-miterlimit="10"/></g></g></g><g clip-path="url(#tCSTdIRLFLTN)"><g><g><path fill="none" stroke="#e5e5e5" paint-order="fill stroke markers" d=" M 113 537 L 570 537" stroke-linejoin="bevel" stroke-miterlimit="10"/><path fill="none" stroke="#e5e5e5" paint-order="fill stroke markers" d=" M 113 368 L 570 368" stroke-linejoin="bevel" stroke-miterlimit="10"/><path fill="none" stroke="#e5e5e5" paint-order="fill stroke markers" d=" M 113 199 L 570 199" stroke-linejoin="bevel" stroke-miterlimit="10"/><path fill="none" stroke="#e5e5e5" paint-order="fill stroke markers" d=" M 113 31 L 570 31" stroke-linejoin="bevel" stroke-miterlimit="10"/></g></g></g><g clip-path="url(#MTHtRwFtfetP)"><g><g fill="#444444"><path fill="" stroke="none" d=""/><g transform="translate(119.6366180660163,363.20439508142067) rotate(0,0,0)"><path fill="none" stroke="none"/><text fill="" stroke="none" font-family="helvetica" font-size="20pt" font-style="normal" font-weight="normal" text-decoration="normal" x="0" y="0" text-anchor="start" dominant-baseline="text-after-edge">Female mean: 0.4978</text></g></g><g fill="#444444"><path fill="" stroke="none" d=""/><g transform="translate(119.6366180660163,328.7500700100203) rotate(0,0,0)"><path fill="none" stroke="none"/><text fill="" stroke="none" font-family="helvetica" font-size="20pt" font-style="normal" font-weight="normal" text-decoration="normal" x="0" y="0" text-anchor="start" dominant-baseline="text-after-edge">Male mean: 0.5003</text></g></g></g></g><g clip-path="url(#CGhXgxhwZskF)"><g><g><path fill="none" stroke="none"/><path fill="none" stroke="blue" paint-order="fill stroke markers" d=" M 190.38445586648675 30.71133560060298 L 202.5842308524485 30.80734937799855 L 205.46251179507806 30.903489075138054 L 206.62131551169762 30.99975502273685 L 209.35354067911607 31.09614755281484 L 209.94803272299657 31.192666998702975 L 210.09085092712576 31.289313695051078 L 213.21446080817765 31.38608797783411 L 214.21096055692976 31.482990184359096 L 216.09161033054775 31.58002065327321 L 216.91316541807288 31.677179724569214 L 219.63511953632536 31.774467739594456 L 220.24560306896328 31.871885041056203 L 220.36546069635952 31.969431973030623 L 222.124150297119 32.06710888096882 L 222.37457549773123 32.16491611170477 L 222.7413677693447 32.2628540134624 L 223.23674117599273 32.36092293586353 L 224.7123157883801 32.45912322993479 L 224.71376222112548 32.55745524811516 L 224.94607241901795 32.655919344264476 L 226.81220719306856 32.75451587366979 L 229.40722273788623 32.85324519305368 L 229.64730338954774 32.95210766058233 L 230.62791187035208 33.051103635872664 L 232.16345595470872 33.15023348000068 L 232.3780952753071 33.24949755550904 L 232.41568953520522 33.34889622641526 L 233.58686714706278 33.44842985821958 L 233.73714705156806 33.548098817913 L 233.819578904426 33.64790347398548 L 233.91318292242028 33.747844196434244 L 234.1270571653899 33.847921356771735 L 236.18559881677484 33.94813532803403 L 236.45183893562637 34.04848648478912 L 236.7059207579896 34.14897520314548 L 237.2445689704582 34.24960186076055 L 237.2560543932435 34.35036683684882 L 237.6088055361701 34.451270512190945 L 238.17961259288418 34.552313269141905 L 239.01691153990396 34.65349549164023 L 239.05392831166995 34.75481756521617 L 239.80598869870533 34.85627987700104 L 239.81770237980817 34.957882815735616 L 240.2774485383227 35.05962677177945 L 240.58576254298254 35.161512137119644 L 241.16073481769445 35.26353930538028 L 241.23987678188138 35.3657086718307 L 241.9374056436786 35.46802063339578 L 242.5641396048378 35.570475588664294 L 244.30253750266186 35.673073937898835 L 244.54181801760467 35.77581608304479 L 245.29030609700067 35.878702427739995 L 245.3606088754559 35.98173337732419 L 245.66150195755256 36.08490933884866 L 245.77804330508388 36.188230721085915 L 246.05669573977178 36.291697934539116 L 246.10592263976477 36.395311391452196 L 246.48989847759222 36.49907150581976 L 247.8906165368063 36.60297869339627 L 248.6503464494504 36.70703337170744 L 248.69656577875344 36.811235960058866 L 248.89840686144635 36.915586879546936 L 249.05796403839662 37.02008655306895 L 249.61839954582166 37.12473540533324 L 249.8803507594725 37.229533862869744 L 250.12520623772255 37.33448235404012 L 250.1563509661893 37.43958130904866 L 250.47554982330652 37.54483115995254 L 250.77586355671644 37.65023234067269 L 251.64405378954362 37.75578528700407 L 251.8458209563468 37.861490436627264 L 252.4882447981684 38.07335910596248 L 252.49771960396401 38.17952351055965 L 252.6065073920839 38.28584188824141 L 252.65305637419578 38.39231468627895 L 252.89067820856576 38.498942353895586 L 253.11279501292282 38.605725342277424 L 253.1587158237447 38.71266410458509 L 253.77892181378212 38.81975909596565 L 254.54092213420572 38.92701077356344 L 255.11529939106575 39.03441959653264 L 255.79480095954415 39.14198602604847 L 256.03971412566204 39.249710525319074 L 257.0726907125946 39.357593559597944 L 257.3063289174628 39.46563559619574 L 257.43182304320624 39.5738371044921 L 257.94927777641215 39.682198555948275 L 258.57755836879386 39.79072042411951 L 258.96740763877654 39.89940318466722 L 259.1503794580113 40.00824731537148 L 259.24135914532496 40.11725329614387 L 259.75858877355677 40.22642160903979 L 259.80393257502095 40.335752738271935 L 259.96629956139094 40.44524717022216 L 260.01279428602805 40.55490539345567 L 260.6605958028207 40.66472789873285 L 260.9536718730078 40.774715179023474 L 261.03764908238907 40.88486772951944 L 261.2194890902706 40.99518604764819 L 261.32628951182596 41.10567063308656 L 261.49520684149456 41.21632198777377 L 262.2594655294798 41.32714061592549 L 262.47221367963755 41.43812702404762 L 262.7653312904491 41.549281720950034 L 263.1063408860874 41.6606052177608 L 263.46647138977323 41.77209802793982 L 263.863314634998 41.883760667293814 L 263.97734787931523 41.995593653989545 L 264.61742556713807 42.107597508569484 L 264.67045166984684 42.21977275396546 L 265.158272473971 42.33211991551366 L 265.81642536560867 42.444639520969076 L 266.3391572233125 42.557332100520966 L 266.43005547564127 42.67019818680728 L 266.4374711468746 42.78323831493026 L 266.63855952374604 42.89645302247084 L 266.8584744161677 43.00984284950516 L 267.38038846050085 43.12340833861913 L 267.3834468434153 43.23715003492407 L 267.9053049188169 43.35106848607302 L 267.9951233405068 43.465164242275705 L 268.0415117247295 43.579437856315394 L 268.6054221725923 43.69388988356411 L 269.03717619455824 43.80852088199947 L 269.11791950853166 43.923331412220705 L 269.43708543534046 44.03832203746515 L 269.4501088213435 44.15349332362473 L 269.61321130763486 44.268845839262895 L 269.7487123762609 44.384380155631334 L 269.95860012422264 44.500096846686915 L 270.1010000187721 44.61599648910885 L 270.2638207502199 44.73207966231598 L 270.6311506352946 44.848346948483936 L 270.8061035622379 44.9647989325631 L 270.8489055013396 45.08143620229555 L 270.91385490841606 45.198259348233705 L 271.0922541558822 45.31526896375772 L 271.3194735733111 45.432465645093544 L 271.43227148005246 45.5498499913316 L 271.475155481778 45.66742260444448 L 271.49935586302297 45.78518408930631 L 271.64541353448254 45.90313505371046 L 271.75442309455343 46.021276108389316 L 271.9619660714212 46.13960786703251 L 272.14092789828226 46.258130946306665 L 272.349255376898 46.37684596587383 L 272.43002970013094 46.49575354841204 L 272.47570304251167 46.61485431963388 L 272.67549045686076 46.734148908306906 L 273.351460922921 46.85363794627324 L 273.5620508181297 46.973322068469884 L 273.99109963687397 47.09320191294853 L 274.08489447077733 47.21327812089646 L 274.16338606943873 47.33355133665714 L 274.31137248118205 47.45402220775031 L 274.3457082238529 47.574691384893526 L 274.7807268671196 47.69555952202336 L 274.85392152628117 47.816627276315785 L 275.0035880807726 47.93789530820857 L 275.09597252456246 48.059364281422745 L 275.839942642255 48.18103486298355 L 276.09908988159236 48.30290772324361 L 276.2406498891554 48.42498353590429 L 276.5652703300787 48.547262978038134 L 276.8152144345132 48.66974673011191 L 276.93800827341215 48.79243547600845 L 277.11935619986764 48.91532990305063 L 277.3301378832925 49.03843070202356 L 277.38889446888527 49.16173856719831 L 277.6739295714624 49.28525419635537 L 277.818429822282 49.408978290808136 L 278.4864378333962 49.53291155542718 L 278.50685474437233 49.657054698663956 L 278.6573394145838 49.78140843257552 L 278.7248802432438 49.90597347284847 L 278.97363076586845 50.03075053882412 L 278.9752403514124 50.15574035352347 L 279.3115670120892 50.28094364367166 L 279.48699761143826 50.40636113972448 L 279.6118051787969 50.5319935758929 L 279.82053106570595 50.65784169016911 L 279.8723723946226 50.78390622435279 L 280.24881844217407 50.91018792407738 L 280.29363061288313 51.03668753883619 L 280.3648561428847 51.163405822009395 L 281.089367303734 51.29034353089082 L 281.0986570691007 51.41750142671481 L 281.26488877805275 51.54488027468449 L 281.31270249280357 51.6724808439983 L 281.33136321986007 51.80030390787863 L 281.3392347303957 51.928350243599766 L 281.55729038040965 52.05662063251589 L 281.6335660195697 52.18511586009038 L 281.7602608380166 52.31383671592391 L 281.8475410713306 52.44278399378413 L 281.8694825504457 52.57195849163486 L 282.04981481161684 52.7013610116652 L 282.37734181148267 52.830992360320465 L 282.8946361999921 52.96085334833185 L 283.34173795023946 53.09094479074611 L 284.0695842550558 53.221267506957474 L 284.22582528847204 53.35182232073805 L 284.573342259359 53.48261006026871 L 284.941920111639 53.61363155817128 L 285.0623630401824 53.744887651540125 L 285.2489856168165 53.87637918197379 L 285.6588462888392 54.008106995608046 L 286.03080762340164 54.140071943148314 L 286.1408723877676 54.27227487990217 L 286.4344234048823 54.40471666581345 L 286.45714495799496 54.53739816549523 L 286.67634154854693 54.67032024826358 L 287.00162320243004 54.80348378817246 L 287.1432045415895 54.936889664047385 L 287.3091256960359 55.07053875952056 L 287.93421644051324 55.20443196306633 L 288.2943305110202 55.3385701680362 L 288.3084038172681 55.472954272694324 L 288.4710226699662 55.607585180254546 L 288.6161164082823 55.74246379891588 L 288.8360323401275 55.877591041899564 L 289.06417924500647 56.01296782748682 L 289.1232252597368 56.1485950790551 L 289.33118874494494 56.28447372511664 L 289.3923970130199 56.420604699356545 L 289.44117487306323 56.55698894067132 L 289.4443294411881 56.69362739320741 L 289.9664945805214 56.830521006400545 L 290.06265710076775 56.96767073501553 L 290.1117027911065 57.10507753918614 L 290.2741600882929 57.2427423844548 L 290.3248126169766 57.380666241814765 L 290.49040511635553 57.51885008774957 L 290.90609081599837 57.65729490427543 L 291.1376816963229 57.79600167898309 L 291.16397448803264 57.93497140507975 L 291.5577079828499 58.074205081431955 L 291.61677361690954 58.21370371260883 L 291.6672492740289 58.35346830892502 L 291.70487121264125 58.49349988648521 L 291.81764977686765 58.63379946722813 L 291.86462609641814 58.77436807897135 L 292.076431947813 58.91520675545644 L 292.194802522745 59.05631653639455 L 292.32481834167595 59.19769846751274 L 292.49804487686094 59.339353600599964 L 292.59060212069255 59.4812829935546 L 292.7695708154574 59.62348771043139 L 292.9166074748265 59.76596882148965 L 293.5141469568687 59.90872740324119 L 293.9977927673623 60.05176453849958 L 294.17716526512413 60.19508131642914 L 294.19265150719093 60.33867883259467 L 294.2143604332942 60.48255818901197 L 294.21599302944935 60.62672049419831 L 294.2321414615701 60.77116686322387 L 294.2583809009367 60.91589841776329 L 294.3609928972933 61.0609162861482 L 294.6559517360132 61.206221603419465 L 294.7244686576203 61.3518155113814 L 294.86038361652743 61.49769915865471 L 295.0799540970238 61.64387370073126 L 295.1443766330636 61.79034030002913 L 295.2675752827242 61.93710012594761 L 295.95842720067924 62.08415435492384 L 295.9706016374899 62.23150417048873 L 296.06700159236357 62.379150763324844 L 296.54000884713287 62.52709533132321 L 296.54436908201563 62.67533907964264 L 296.72207879363043 62.82388322076781 L 296.7940679046774 62.97272897456935 L 296.9209078610111 63.12187756836357 L 296.92922494812524 63.271330236973256 L 297.2360346122289 63.42108822278925 L 297.2645371660787 63.57115277583205 L 297.50957350148417 63.72152515381464 L 297.59950852913295 63.872206622205795 L 297.85146994986104 64.02319845429389 L 298.00804381070105 64.17450193125126 L 298.14340044186577 64.32611834219972 L 298.23002424745414 64.47804898427648 L 298.3199616056985 64.63029516270046 L 298.3971807116012 64.7828581908397 L 298.4593811370976 64.9357393902796 L 298.48257741166105 65.08894009089101 L 298.8543413696308 65.24246163090032 L 299.1279256937788 65.39630535695909 L 299.15261272738144 65.55047262421522 L 299.31473460801635 65.7049647963845 L 299.9926006086786 65.85978324582277 L 300.1188443023908 66.01492935359948 L 300.14166708556866 66.1704045095712 L 300.15191661067337 66.32621011245658 L 300.1853657807756 66.48234756991195 L 300.3119390614736 66.63881829860713 L 300.7413096779627 66.79562372430325 L 300.9699599555221 66.95276528193 L 301.1544359050331 67.11024441566491 L 301.52805019477944 67.26806257901285 L 301.5637270074992 67.4262212348865 L 301.8581566991191 67.58472185568763 L 301.9974423541394 67.7435659233895 L 302.1554170600085 67.9027549296199 L 302.5563236068132 68.06229037574542 L 302.7737842173891 68.2221737729559 L 302.88267624927124 68.38240664235087 L 302.9526961035409 68.5429905150259 L 303.1247729482485 68.70392693216098 L 303.2362479648126 68.86521744510867 L 303.4524202792745 69.02686361548416 L 303.692916018572 69.18886701525605 L 303.92162212559543 69.35122922683746 L 304.2193109078994 69.51395184317983 L 304.2421565635543 69.67703646786572 L 304.53486574214696 69.84048471520418 L 304.8356029401407 70.00429821032634 L 304.8605005022632 70.16847858928253 L 304.88378579015 70.33302749914037 L 304.8907630862615 70.49794659808373 L 305.0568224551825 70.66323755551309 L 305.07802301301786 70.82890205214682 L 305.08822319961587 70.99494178012401 L 305.3147665884516 71.16135844310787 L 305.636425636326 71.32815375639075 L 305.7622118739232 71.49532944700013 L 306.07194441036415 71.66288725380616 L 306.7217671950564 71.8308289276298 L 307.0509522574659 71.99915623135297 L 307.11519366227833 72.16787094002933 L 307.13157688117707 72.33697484099667 L 307.2870108451301 72.50646973399057 L 307.34039802515974 72.67635743125908 L 307.4078379486468 72.84663975767944 L 307.682802865603 73.0173185508753 L 307.81226423553414 73.18839566133602 L 308.22018956124884 73.35987295253653 L 308.36562419561494 73.70403559671945 L 308.5830982349329 73.87672474268498 L 308.7321227678851 74.04982165560739 L 308.74869209208873 74.22332826574717 L 309.0068665578241 74.3972465171035 L 309.0098606042198 74.5715783675443 L 309.0545124469651 74.74632578893949 L 309.13636955719403 74.92149076729407 L 309.14475232108475 75.0970753028837 L 309.38141557394454 75.27308141039191 L 309.449031746165 75.44951111904862 L 309.4692691881162 75.62636647277077 L 309.6565377727887 75.80364953030397 L 309.8551374646983 75.98136236536686 L 310.0800151767937 76.15950706679621 L 310.1790555117118 76.33808573869419 L 310.27934634745844 76.5171005005779 L 310.5638453797859 76.6965534875302 L 310.67287986890284 76.87644685035195 L 311.198257920117 77.05678275571745 L 311.24807882125015 77.23756338633063 L 311.2560303449368 77.41879094108356 L 311.43409848691874 77.60046763521711 L 311.7031518995754 77.782595700483 L 311.9523670867832 77.96517738530889 L 311.99057430747354 78.14821495496454 L 312.170076129526 78.33171069173045 L 312.3016675201253 78.51566689506882 L 312.33897709881387 78.70008588179621 L 312.5699454268636 78.88496998625862 L 312.87801706270767 79.07032156050934 L 312.92600240376123 79.25614297448743 L 313.06944753886296 79.44243661620067 L 313.1629003393624 79.62920489190878 L 313.52003265885935 79.8164502263104 L 313.7924539661376 80.00417506273203 L 313.9109946544029 80.19238186331904 L 313.91466050535894 80.3810731092293 L 314.06447433117114 80.5702513008302 L 314.1480779234189 80.7599189578965 L 314.18895912000846 80.95007861981242 L 314.2411865051416 81.14073284577518 L 314.6233174201573 81.33188421500193 L 314.6761068838698 81.52353532693894 L 314.78559160474106 81.71568880147396 L 314.8473672254165 81.90834727915075 L 315.14348150517645 82.10151342138704 L 315.15195563505824 82.29518991069506 L 315.64857624235924 82.48937945090518 L 315.8471541188302 82.68408476739211 L 315.8601649412533 82.87930860730467 L 315.8781248823159 83.07505373979825 L 316.09797162999416 83.27132295627058 L 316.15465207684895 83.46811907060038 L 316.1911045168657 83.66544491938959 L 316.2715876035781 83.86330336220857 L 316.7016948984634 84.061697281845 L 316.8479510223347 84.26062958455549 L 316.95636716993795 84.46010320032144 L 316.960939437286 84.66012108310764 L 317.02247106040966 84.86068621112503 L 317.0429928650095 85.06180158709645 L 317.153222262382 85.26347023852685 L 317.2300997057022 85.46569521797608 L 317.2944990488319 85.66847960333695 L 317.3739781064638 85.87182649811535 L 317.591880085866 86.07573903171618 L 317.60743941007297 86.28022035973169 L 317.7189929871151 86.48527366423474 L 317.7614712175728 86.69090215407584 L 317.8242166809465 86.89710906518462 L 318.2007524174542 87.10389766087508 L 318.90457730056164 87.31127123215566 L 318.90832727098257 87.5192330980434 L 318.9202196530365 87.72778660588278 L 318.943805607679 87.93693513166914 L 319.1593720391789 88.14668208037602 L 319.2814192620696 88.3570308862885 L 319.4748290810754 88.56798501333998 L 319.7286154459208 88.77954795545486 L 319.89184486830356 88.99172323689561 L 319.89777640593695 89.20451441261491 L 320.06636234093963 89.41792506861333 L 320.2997129751622 89.6319588223015 L 320.54062287889576 89.84661932286849 L 320.6417733230199 90.06191025165504 L 321.0225171506852 90.27783532253164 L 321.438666778246 90.49439828228418 L 321.92358273629725 90.71160291100313 L 321.92972974037343 90.92945302247972 L 321.97214004335274 91.14795246460784 L 322.12213170979834 91.36710511979152 L 322.1920733509206 91.58691490535932 L 322.24093888120296 91.80738577398415 L 322.4200165432766 92.02852171410967 L 322.9190525392153 92.25032675038352 L 323.190262562374 92.47280494409671 L 323.2834899812442 92.6959603936296 L 323.7756520427391 92.91979723490545 L 323.8461871942518 93.1443196418495 L 323.89118946054487 93.36953182685687 L 324.6839080443734 93.59543804126605 L 324.76291300179423 93.82204257584112 L 325.12928986758044 94.04934976126009 L 325.6216518305162 94.27736396861167 L 325.6703736325086 94.50608960990002 L 325.6756241055881 94.73553113855667 L 325.8683451420728 94.96569304996058 L 326.1851091375627 95.1965798819673 L 326.1927208996414 95.42819621544476 L 326.27794966440547 95.6605466748199 L 326.2847580292196 95.89363592863151 L 326.34897662001686 96.12746869009368 L 326.3733577189125 96.36204971766745 L 326.47890866379294 96.59738381564216 L 326.622690850784 96.83347583472516 L 326.62932347449555 97.07033067264251 L 326.7812044091884 97.307953274748 L 326.9447311541693 97.54634863464281 L 327.0852450410197 97.78552179480573 L 327.09578492103236 98.02547784723237 L 327.7952571565971 98.26622193408622 L 328.43347020878406 98.50775924835926 L 328.6413337549868 98.75009503454453 L 328.79438375599716 98.99323458931946 L 328.951640718428 99.2371832622402 L 329.1080483077393 99.48194645644776 L 329.1138125335933 99.7275296293866 L 329.2043063306869 99.97393829353427 L 329.5981328282787 100.22117801714404 L 329.8930005742185 100.46925442499992 L 329.8931748259403 100.71817319918432 L 329.9554862473236 100.96794007985932 L 330.052573805227 101.21856086606044 L 330.1061104578233 101.4700414165049 L 330.11009457630973 101.72238765041328 L 330.51718693115026 101.97560554834536 L 330.57621532250823 102.22970115305077 L 330.7632874495524 102.48468057033415 L 331.0361066648011 102.74054996993567 L 331.41103898676465 102.99731558642628 L 331.7872921910339 103.2549837201201 L 331.79307174548205 103.5135607380011 L 332.73408756684023 103.77305307466764 L 332.95477553767216 104.03346723329338 L 333.1283529394279 104.29480978660456 L 333.26111778285383 104.55708737787603 L 333.5225621255497 104.82030672194401 L 333.75244798637897 105.08447460623808 L 334.3758226043532 105.34959789183102 L 335.0177573081394 105.6156835145083 L 335.12502140365723 105.88273848585646 L 335.2988119860495 106.15076989437205 L 335.76359500202386 106.41978490659045 L 336.2584545940926 106.68979076823553 L 336.52291439936573 106.96079480539089 L 336.5956198231272 107.2328044256925 L 336.6209618912341 107.50582711954331 L 336.961606633683 107.77987046135149 L 337.13723656146453 108.05494211079076 L 337.6543702246647 108.33104981408547 L 337.8506825395701 108.60820140531894 L 338.0288009701526 108.88640480776792 L 338.0788924132821 109.16566803526092 L 338.563429152959 109.44599919356403 L 338.68169389446007 109.72740648179229 L 338.829832783083 110.00989819384853 L 339.06431107188735 110.29348271989056 L 339.16679833439343 110.5781685478255 L 339.644766271413 110.86396426483554 L 339.93538586757364 111.15087855893051 L 339.94579901295276 111.43892022053427 L 340.688895699692 111.72809814409919 L 340.72206380551586 112.01842132975537 L 340.90689840992474 112.30989888499056 L 341.24340276399823 112.60254002636498 L 341.33590158427694 112.89635408125974 L 341.5681168482706 113.19135048966064 L 341.61814091934593 113.48753880597849 L 341.7402049120983 113.78492870090525 L 341.7996117931235 114.08352996330916 L 341.89073348073674 114.3833525021679 L 342.0119723239818 114.68440634854176 L 342.0143506130302 114.9867016575871 L 342.44258026922046 115.29024871061239 L 342.46648476635954 115.59505791717561 L 342.5185519293383 115.90113981722698 L 342.89342694591335 116.208505083295 L 342.9553721655743 116.51716452272046 L 343.2315976787121 116.82712907993533 L 344.64460857804295 117.13840983879254 L 344.91491259840853 117.4510180249431 L 345.3544718015507 117.7649650082659 L 345.6012613101433 118.08026230534881 L 345.7972163454815 118.39692158202348 L 346.03472143515546 118.71495465595586 L 346.2050925335366 119.0343734992918 L 346.47096532978236 119.35519024136175 L 346.68551494062456 119.67741717144457 L 347.1848647961377 120.00106674159196 L 347.23292630191656 120.32615156951573 L 347.4151555108375 120.65268444154003 L 347.5627041850704 120.98067831561843 L 348.32979881432124 121.31014632441963 L 348.52690780984403 121.64110177848278 L 349.39818893144627 121.97355816944383 L 349.71114621610275 122.30752917333604 L 349.73342118181927 122.6430286539657 L 349.9171311111429 122.98007066636524 L 350.0689524724278 123.31866946032648 L 350.1757055971415 123.65883948401535 L 350.19485960763166 124.00059538767192 L 350.2840738981921 124.34395202739574 L 350.8261012889418 124.68892446902089 L 350.85466178897616 125.03552799208313 L 351.7085834276689 125.38377809388021 L 351.82843472770514 125.73369049362998 L 351.88928233063734 126.08528113672782 L 351.9922031766954 126.43856619910667 L 352.35465742618743 126.79356209170282 L 352.5125024023515 127.1502854650301 L 352.55650609613065 127.50875321386604 L 352.56564661410545 127.86898248205335 L 352.9020706632218 128.23099066741952 L 353.0721093042123 128.5947954268189 L 353.3923539939416 128.9604146813005 L 353.53938406704515 129.32786662140467 L 353.60883213808745 129.6971697125946 L 353.61901213914444 130.06834270082334 L 353.6728608245511 130.44140461824463 L 353.97092989118136 130.81637478906794 L 353.9764836850874 131.1932728355652 L 353.9964381989063 131.57211868423246 L 354.10630486685886 131.95293257211108 L 354.29147505616686 132.3357350532749 L 354.3383757856785 132.7205470054866 L 354.3828547203914 133.1073896370309 L 354.4839352791119 133.49628449372796 L 354.5473158979193 133.8872534661342 L 354.57698076411987 134.28031879693634 L 354.7161564419721 134.67550308854453 L 354.7546622980106 135.07282931089134 L 354.8148570072942 135.47232080944343 L 355.04905738005607 135.8740013134323 L 355.14432372755215 136.27789494431198 L 356.0392936903013 136.6840262244512 L 356.3748578562213 137.09242008606753 L 357.0533064287804 137.50310188041175 L 357.386119536852 137.91609738721093 L 357.56217188361705 138.33143282437925 L 357.85912269031854 139.16923061262435 L 357.99718352197374 139.59174768179076 L 358.1260055610431 140.01671413895087 L 360.4660219201177 140.44415854863746 L 360.64310123539843 140.87410997799088 L 360.64504531363207 141.30659800862009 L 361.0256929460804 141.74165274881568 L 361.13920169773735 142.17930484612742 L 361.27402480612295 142.61958550032006 L 361.68880515997637 143.06252647671943 L 361.77698295428024 143.5081601199655 L 361.8030983631238 143.9565193681854 L 362.0194485571095 144.40763776760195 L 363.4363506218292 144.86154948759588 L 364.17108905435896 145.31828933623586 L 364.58379535796945 145.77789277629648 L 364.614301445077 146.24039594178072 L 365.1183762423384 146.70583565496736 L 365.2010031899756 147.1742494440034 L 365.3238190455893 147.64567556106118 L 366.18640472338103 148.12015300108385 L 366.52801023974075 148.59772152114164 L 366.79699731853 149.07842166042207 L 367.3700762530585 149.56229476088043 L 367.92151119339275 150.04938298857604 L 368.2502380585249 150.5397293557225 L 368.44745907902734 151.03337774347995 L 368.85408356482486 151.53037292552028 L 368.8806171966517 152.03076059239635 L 368.9593049517184 152.5345873767492 L 369.7505047857966 153.04190087938673 L 369.890529622356 153.55274969627158 L 371.60874594926844 154.067183446456 L 372.7039848182511 154.5852528010036 L 372.91828155624904 155.10700951294046 L 374.82680143739367 155.63250644827986 L 375.15801484074 156.16179761816693 L 375.3327261818254 156.69493821219237 L 375.8590474792428 157.2319846329263 L 375.90637621037877 157.77299453172685 L 376.36836980303457 158.31802684587922 L 377.1675019924366 158.86714183712667 L 377.3123493357445 159.42040113165484 L 378.0419566449124 160.53960620812825 L 378.5260083725035 161.1056824462264 L 378.62268878067226 161.6761639911714 L 379.5966033571459 162.25111994687012 L 380.2450219724864 162.83062105609122 L 380.27060916583923 163.41473975270088 L 380.7038084642913 164.00355021599654 L 381.946283662897 164.59712842724122 L 382.9359359729297 165.19555222850374 L 382.947253537715 165.79890138392307 L 383.3301353550399 166.4072576435115 L 383.69025945808517 167.02070480963084 L 383.8735004749351 167.63932880627124 L 384.1976054423471 168.263217751279 L 384.27020022202674 168.89246203168466 L 384.2960738197193 169.52715438229177 L 385.15208242235906 170.16738996769766 L 385.5189400177171 170.8132664679278 L 385.74012575802817 171.46488416787594 L 385.80381223050784 172.78575789577968 L 385.91760952649383 173.4552283803016 L 386.1634365238655 174.13086918666227 L 386.3826872157586 174.81279511400788 L 386.7575067041625 175.50112419535685 L 386.9505141933408 176.19597782021611 L 387.2689547024952 176.89748086306366 L 388.4851519875036 177.6057618180388 L 388.8312083401094 178.32095294020195 L 389.4411138131216 179.04319039375537 L 389.7337198464289 179.77261440763635 L 391.25148641656693 180.50936943893043 L 391.279226852869 181.25360434458054 L 393.34053365509516 182.00547256190112 L 393.68788064941555 182.76513229844704 L 394.04095584955724 183.53274673182256 L 394.14601274698543 184.30848422006392 L 395.25892113381826 185.09251852327225 L 395.3517229573019 185.88502903722724 L 395.4564960976583 186.6862010397682 L 395.76601933233854 187.4962259507871 L 396.12064041181145 188.3153016067476 L 397.0660800165311 189.1436325507151 L 397.1502207217417 190.82891386528667 L 397.35048934030766 191.68630970432673 L 397.68208904009805 192.55385247515153 L 397.70470014604115 193.4317852266559 L 398.91802292812145 194.32035984630153 L 399.1343362921152 195.21983749393797 L 399.23428764516757 196.13048906257188 L 399.44576761912634 197.05259566811657 L 399.6483687201395 197.9864491703393 L 400.8041011839587 198.93235272741975 L 400.90910950787946 199.89062138675803 L 401.3251326871051 200.861582714912 L 401.83927339779353 201.8455774698158 L 401.9377655068183 203.85410060572258 L 402.60296137883546 204.87938317279185 L 402.7414846314812 205.9192092392763 L 403.1053524982797 208.0441843592622 L 403.45628612306206 209.13022657221512 L 404.74921721979763 210.2326008579907 L 404.8323016641973 211.35180593446415 L 404.91958628769663 212.48836371750724 L 405.5924875052566 213.64282078242718 L 405.9182916756455 214.8157499423325 L 405.950171842966 216.0077519548397 L 406.1301906240944 217.21945736984736 L 406.4478843401418 218.4515285326072 L 407.5586696822943 219.70466175802056 L 407.7285488622356 222.2770838942119 L 408.5044065238806 223.5979576221156 L 411.09578072058304 224.94306891299829 L 413.25123220614194 226.3133239216927 L 414.26459128584 227.70968058939962 L 414.54792636022637 229.1331526665379 L 414.81872859644017 232.0658040709165 L 414.9199180115771 233.5773320247829 L 415.5019920556604 235.12068394639982 L 416.3554722283655 236.69722876356315 L 417.3845343960231 239.95583227705106 L 419.65125618399367 243.36605220148738 L 420.3108170777693 245.13255957263732 L 420.50113314159745 248.7986488966751 L 420.8627692023767 250.70282111309388 L 424.1177241801259 252.6577771961517 L 424.83793508895747 254.66630033205837 L 427.63002393436057 256.7314089656124 L 429.5062020610149 258.8563840855983 L 429.8468834130209 261.04480058432677 L 431.14662434941994 263.30056344384326 L 431.33116915670837 265.6279496686684 L 431.55211469110014 268.0316570961834 L 433.0205834841982 270.5168614843565 L 434.68709132277615 273.08928362054775 L 435.0469756158862 275.75526863933413 L 436.3612915353256 278.5218803157355 L 436.43280290476207 281.39701386030816 L 437.5881965764002 284.3895317511188 L 437.94440405081053 287.50942848989905 L 438.82072838238247 290.7680320033869 L 439.99161489149014 294.17825192782334 L 440.17222043408293 297.7548885152436 L 440.25255253754005 301.5150208394297 L 441.5532848963839 305.47850005839433 L 441.908354900458 309.66858381193396 L 442.55245573525275 314.11276317017894 L 445.054561935397 318.84385682251906 L 445.12677511139566 323.9014833468834 L 450.0593844472923 329.33408004207115 L 453.91569231885603 335.2017314774545 L 455.42366697095576 341.5802317297231 L 459.66046678047866 348.56708824157977 L 463.6209267712381 356.2906997847306 L 467.10448522329295 364.92496289651524 L 476.3086021027428 374.71368307321984 L 480.4324916624699 386.0139312037909 L 486.71230634405674 399.3792879679157 L 494.87933532863286 436.82613093012674 L 510.2446315356012 466.54936234918705 L 518.517299773974 517.3615620755229" stroke-linejoin="bevel" stroke-miterlimit="10"/><path fill="none" stroke="none"/></g></g></g><g clip-path="url(#IrPXVbMAgcdS)"><g><g><path fill="none" stroke="none"/><path fill="none" stroke="red" paint-order="fill stroke markers" d=" M 133.77272727272722 30.68181818181813 L 171.09040973215411 30.748249095799565 L 173.99891206611454 30.81474026458659 L 180.49982717868647 30.88129179758414 L 181.30518129445767 30.947903804495468 L 193.47767527701575 31.01457639532316 L 196.51100060722433 31.081309680370282 L 203.68287516236597 31.14810377024139 L 204.3675041234714 31.21495877584357 L 206.27123945233487 31.28187480838767 L 208.48919365268722 31.34885197938945 L 208.58310191178873 31.415890400670378 L 208.89497651789736 31.482990184359096 L 210.27981832593423 31.550151442892798 L 214.32505126350162 31.617374289017334 L 214.44826619581858 31.68465883578949 L 215.42387830387378 31.752005196577556 L 216.90405833937587 31.81941348506234 L 217.01090385795735 31.88688381523889 L 219.56607457602075 31.954416301416927 L 222.1426473139004 32.02201105822269 L 223.131142694947 32.08966820059959 L 223.5758371916944 32.15738784380983 L 226.23278468793035 32.22517010343506 L 226.58975607466255 32.293015095377996 L 226.61854658686906 32.36092293586353 L 227.7633702138877 32.42889374143954 L 227.79820159248925 32.496927628978824 L 227.93777790312404 32.565024715679556 L 227.94159607184622 32.63318511906698 L 228.29234632412303 32.70140895699444 L 228.30504674875948 32.76969634764441 L 228.32658099918274 32.83804740953042 L 228.9332478758662 32.90646226149738 L 230.20842019566874 32.974941022723556 L 231.83187755309 33.04348381272132 L 232.65359476751672 33.112090751338656 L 232.9469136367686 33.18076195876017 L 233.5460860536444 33.24949755550904 L 233.71504994224884 33.31829766244732 L 234.02366699545303 33.38716240077781 L 234.2330645439545 33.45609189204538 L 234.63442551666338 33.525086258137776 L 234.95533556567466 33.59414562128745 L 235.53334094392397 33.66327010407247 L 235.61260098930933 33.7324598294183 L 235.61274726757063 33.80171492059833 L 236.0989645738429 33.87103550123618 L 236.18531853211522 33.9404216953061 L 236.46678942163385 34.009873627134766 L 236.73964315158662 34.07939142140276 L 236.8122271713259 34.14897520314548 L 236.86437928454086 34.218625097754966 L 236.93796975391814 34.288341230980905 L 237.14336523315245 34.35812372893179 L 237.76199165972957 34.42797271807717 L 238.45435787858926 34.49788832524803 L 238.81658049685825 34.567870677638666 L 239.02040394767778 34.637919902808335 L 239.07648848613303 34.708036128681556 L 239.44876683537206 34.7782194835512 L 239.6590204430575 34.84847009607836 L 241.51777818275463 34.9187880952943 L 241.58350129233804 34.98917361060262 L 241.73830890003646 35.05962677177945 L 242.163975830201 35.130147708975414 L 242.4893876775842 35.20073655271756 L 242.5392266617958 35.27139343390991 L 242.6848250257951 35.34211848383575 L 243.2026821706109 35.41291183415831 L 243.33466878222833 35.48377361692292 L 243.40789505087977 35.55470396455826 L 243.67378621809158 35.62570300987761 L 243.7565534239033 35.69677088608057 L 244.02608707947198 35.767907726754515 L 244.50895781482146 35.83911366587597 L 245.32121246030698 35.91038883781266 L 245.83522000405793 35.98173337732419 L 246.0496147242567 36.0531474195642 L 246.0790662455338 36.12463110008173 L 246.3340598239536 36.196184554822594 L 246.5457330975167 36.267807920131304 L 246.61471805052236 36.33950133275209 L 246.61635445900885 36.41126492983119 L 247.05298422237087 36.48309884891762 L 247.43648359612052 36.55500322796547 L 247.629113763589 36.626978205335035 L 247.72677252660745 36.699023919794286 L 247.7319091385097 36.77114051052138 L 247.86015046283103 36.84332811710499 L 247.9844224173584 36.915586879546936 L 248.16866569406605 36.98791693826331 L 248.3275314698406 37.0603184340863 L 249.05622071132078 37.13279150826588 L 249.65209391820812 37.205336302471096 L 250.0237585900325 37.27795295879241 L 250.88658551636365 37.35064161974253 L 250.93594512370876 37.42340242825878 L 250.9809615488066 37.49623552770436 L 251.47237392648466 37.56914106187048 L 251.52875583881604 37.642119174977665 L 251.61173574302794 37.7151700116774 L 251.9747964546903 37.788293717054216 L 252.0026479541206 37.861490436627264 L 252.09596693084754 37.934760316352026 L 252.30642599496542 38.00810350262202 L 252.35872298940262 38.081520142270506 L 252.73473193697984 38.155010382572755 L 252.87121279034835 38.22857437124674 L 253.16104747522598 38.3022122564563 L 253.34336677488375 38.37592418681186 L 253.94713897380174 38.449710311372314 L 253.98159218071874 38.5235707796478 L 254.3344701793193 38.597505741600344 L 254.60145310074955 38.671515347646164 L 254.62972599838764 38.745599748657924 L 254.85154904952591 38.81975909596565 L 255.1972343629235 38.893993541359464 L 255.21971790722395 38.96830323709082 L 255.51380254496192 39.04268833587503 L 255.72639207480032 39.11714899089236 L 255.7472769454602 39.19168535579058 L 256.07331023706047 39.26629758468653 L 256.24382724830707 39.340985832168144 L 256.27786614683885 39.41575025329632 L 256.6649174818834 39.49059100360671 L 256.71859352603667 39.56550823911232 L 257.00730463785067 39.64050211630422 L 257.1958006279626 39.71557279215506 L 258.06377648551734 39.79072042411951 L 258.0964461344714 39.86594517013759 L 258.27418550371016 39.94124718863566 L 258.5474749985775 40.016626638528805 L 258.79545322686766 40.09208367922304 L 258.9094929112322 40.167618470616844 L 259.0211771833388 40.24323117310382 L 259.47052394995376 40.31892194757427 L 259.6491862080852 40.394690955417104 L 259.6537136642086 40.47053835852273 L 260.2398705990452 40.54646431928404 L 260.2996719286369 40.622469000599494 L 260.47491252840666 40.698552565874365 L 260.5222737868505 40.774715179023474 L 260.61038554737775 40.850957004473 L 260.96177013308454 40.92727820716277 L 261.0518835783199 41.00367895254817 L 261.178846372185 41.08015940660255 L 261.4438029464978 41.15671973581925 L 261.7528435689917 41.233360107214025 L 262.0597428438934 41.31008068832648 L 262.2030671002806 41.38688164722328 L 262.340693247997 41.46376315249972 L 262.83490120484123 41.54072537328216 L 262.96364771408474 41.61776847922988 L 263.2921714016326 41.69489264053823 L 263.3351018605231 41.77209802793982 L 263.3810840011373 41.84938481270751 L 263.57939815345253 41.926753166656226 L 263.78486561487864 42.00420326214578 L 263.85933758922863 42.0817352720826 L 264.3940516056755 42.15934936992244 L 264.8624385872804 42.23704572967256 L 265.105019429109 42.314824525894096 L 265.158272473971 42.39268593370457 L 265.15936513684096 42.47063012877959 L 265.38361228046665 42.54865728735638 L 265.4548780401649 42.62676758623502 L 265.49385940926436 42.70496120278153 L 265.5402470675614 42.78323831493026 L 265.55929882312023 42.8615991011859 L 265.85981664104634 42.940043740626265 L 265.9316771998691 43.01857241290486 L 265.93843462134384 43.097185298253066 L 266.091820615472 43.17588257748241 L 266.1528116130079 43.25466443198786 L 266.20104380153043 43.333531043749645 L 266.3196330481326 43.41248259533586 L 266.3578412086485 43.49151926990521 L 266.5546422240346 43.57064125120951 L 266.5639772115496 43.64984872359605 L 266.60000888601735 43.72914187201059 L 266.63056869761476 43.80852088199947 L 267.0622545632863 43.88798593971251 L 267.2135014537007 43.96753723190557 L 267.3587277765372 44.04717494594297 L 267.4882085657117 44.126899269800674 L 267.5341172598021 44.206710392068544 L 267.5891630992313 44.28660850195263 L 267.64215674917557 44.36659378927891 L 267.65478435231455 44.44666644449512 L 267.6844043364054 44.526826658673826 L 267.74604124742655 44.60707462351502 L 267.7467247587135 44.68741053134886 L 268.2358657865935 44.76783457513886 L 268.42553751629504 44.848346948483936 L 268.4346957670763 44.928947845621906 L 268.5224042269199 45.009637461431794 L 268.69590364893514 45.09041599143666 L 268.85845775758366 45.17128363180723 L 268.8678656593568 45.252240579363615 L 269.1294111995752 45.33328703157906 L 269.19743727391165 45.41442318658221 L 269.5010872958021 45.49564924316053 L 269.5859446422966 45.5769654007629 L 269.965259816877 45.658371859502836 L 269.9809147965484 45.739868820161064 L 270.426759667857 45.82145648418873 L 270.56571288254395 45.90313505371046 L 270.59327723090394 45.984904731527195 L 270.60602950230395 46.06676572111917 L 270.644046344334 46.148718226649294 L 270.77718927523244 46.23076245296579 L 270.8630089842902 46.3128986056056 L 270.98071762332154 46.39512689079697 L 271.19090428239156 46.47744751546338 L 271.3502710151349 46.55986068722598 L 271.35379000796314 46.6423666144068 L 271.36469405782407 46.72496550603216 L 271.95137645561203 46.80765757183599 L 272.0974482714602 46.890443022262616 L 272.102294012406 46.973322068469884 L 272.1254816141923 47.05629492233288 L 272.15161220474835 47.13936179644702 L 272.19723222130426 47.2225229041311 L 272.517164614584 47.30577845943094 L 272.7252367692116 47.38912867712202 L 272.7483093472501 47.47257377271376 L 272.8071796700617 47.55611396245206 L 272.92951950464385 47.63974946332314 L 272.93022512820806 47.72348049305663 L 272.9656016582036 47.80730727012917 L 273.0776111609583 47.891230013767654 L 273.1223964259512 47.975248943952806 L 273.15051076450254 48.059364281422745 L 273.24012476658635 48.14357624767604 L 273.25856364812324 48.22788506497568 L 273.27923842616156 48.3122909563524 L 273.4634005282442 48.396794145608055 L 273.4652537791131 48.48139485731963 L 273.7069026651002 48.5660933168424 L 273.804273523124 48.65088975031347 L 273.8486476841895 48.73578438465597 L 274.0214964922766 48.82077744758203 L 274.09315374707785 48.90586916759696 L 274.1268120294125 48.99105977400245 L 274.19634992928457 49.07634949690089 L 274.19662482498444 49.16173856719831 L 274.28768488968535 49.24722721660919 L 274.33985218781186 49.33281567765903 L 274.5461055628881 49.41850418368904 L 274.59254214070774 49.504292968859545 L 274.7441285114013 49.59018226815408 L 274.76593466598683 49.67617231738279 L 274.8079690775819 49.762263353186995 L 274.8098330044435 49.848455613042574 L 274.97913229398887 49.93474933526386 L 275.0342439995301 50.02114475900805 L 275.04091034389114 50.107642124278755 L 275.2465523335002 50.1942416719304 L 275.37219189835537 50.28094364367166 L 275.5163724165409 50.36774828207024 L 275.59522467128227 50.454655830556135 L 275.7018290173162 50.54166653342645 L 275.73838559064586 50.62878063584924 L 275.8656654525755 50.71599838386726 L 276.0170458233207 50.80332002440309 L 276.0474948271342 50.890745805262554 L 276.0741940345496 50.97827597513867 L 276.3782240873885 51.06591078361703 L 276.6720128640156 51.153650481179056 L 276.8196784978436 51.241495319206706 L 276.8303731108398 51.329445549986644 L 276.9538463036947 51.41750142671481 L 277.02544405966955 51.50566320350083 L 277.39031443765793 51.59393113537169 L 277.470940723087 51.68230547827716 L 277.48542613571624 51.77078648909378 L 277.48982901172747 51.8593744256292 L 277.5090512080983 51.94806954662704 L 277.58202463149667 52.036872111771004 L 277.64807540482093 52.12578238168999 L 277.6748243796087 52.21480061796183 L 277.96710648989324 52.39316204065278 L 277.9839262958578 52.4825057550172 L 278.0252236746012 52.57195849163486 L 278.2759952903825 52.661520516900964 L 278.38409962936305 52.75119209818865 L 278.4513159551076 52.84097350385309 L 278.81503837175967 52.930865003237045 L 279.0421621702553 53.020866866674965 L 279.584450939586 53.110979365498224 L 279.64236519276017 53.20120277204035 L 279.7057482876912 53.29153735964155 L 279.7073572714819 53.381983402653645 L 279.83839562348123 53.472541176445134 L 279.9485706977929 53.56321095740668 L 280.0312962456385 53.65399302295509 L 280.04250956645365 53.744887651540125 L 280.1322019053057 53.83589512264757 L 280.2027779622298 53.927015716805954 L 280.5430396792468 54.01824971559131 L 280.6176751288896 54.10959740163196 L 280.6646231216199 54.20105905861419 L 281.21677616543263 54.29263497128761 L 281.22213530208234 54.384325425470024 L 281.2848480198844 54.47613070805346 L 281.6417458874978 54.56805110700884 L 281.6897766204718 54.66008691139177 L 281.99643590718824 54.75223841134812 L 282.16144868125775 54.84450589811922 L 282.16938827577746 54.936889664047385 L 282.4966096410918 55.029390002581636 L 282.5031792176135 55.12200720828366 L 282.58632054033984 55.21474157683224 L 282.8319750237589 55.307593405030616 L 282.90173989458776 55.4005629908105 L 282.91172310021534 55.49365063323887 L 282.96701652477566 55.58685663252356 L 283.14152503912 55.68018129001905 L 283.15026968736095 55.77362490823168 L 283.2143245320526 55.86718779082673 L 283.849405811666 55.960870242633405 L 284.07500693983735 56.054672569651075 L 284.2903205769934 56.1485950790551 L 284.5561390760513 56.24263807920329 L 284.61446522047436 56.33680187964194 L 284.63672047842573 56.431086791111284 L 284.67655818507217 56.525493125552316 L 284.6939980719176 56.6200211961127 L 285.09614230812645 56.71467131715326 L 285.0976755545264 56.80944380425376 L 285.1342948268794 56.90433897421963 L 285.26381767604425 56.99935714508831 L 285.4106347399153 57.09449863613554 L 285.5398541195921 57.18976376788157 L 285.58907264837086 57.28515286209813 L 285.6107702355174 57.380666241814765 L 285.90737091590483 57.47630423132489 L 285.94755107189985 57.57206715619327 L 286.05044510391787 57.66795534326195 L 286.05271415279594 57.76396912065741 L 286.0579887902891 57.86010881779703 L 286.06661350476475 57.95637476539582 L 286.12818525930277 58.05276729547376 L 286.1330082784988 58.14928674136195 L 286.22587877941965 58.24593343770999 L 286.3578475724073 58.34270772049297 L 286.7304955733547 58.43960992701807 L 286.9716409360326 58.53664039593207 L 287.3939151785332 58.63379946722813 L 287.4621406217153 58.731087482253315 L 287.5755436892082 58.82850478371506 L 287.87382899083286 58.92605171568954 L 287.973227546777 59.023728623627676 L 288.0194773097902 59.12153585436363 L 288.0514254431638 59.21947375612132 L 288.06115694038704 59.317542678522386 L 288.3878460898061 59.41574297259365 L 288.39263981463137 59.51407499077408 L 288.4736092744387 59.61253908692339 L 288.6631814680109 59.71113561632865 L 288.7829330371749 59.809864935712596 L 288.78553109287634 59.90872740324119 L 288.90323482225597 60.00772337853158 L 288.91216729978146 60.10685322265954 L 288.9964366357918 60.20611729816795 L 289.00444345750026 60.30551596907418 L 289.01895054883244 60.40504960087844 L 289.2539314775495 60.50471856057186 L 289.3369763941539 60.604523216644395 L 289.50566462030883 60.70446393909316 L 289.7298086722849 60.804541099430594 L 289.88406919149213 60.904755070692886 L 290.09957485584164 61.00510622744798 L 290.2417028996548 61.1055949458044 L 290.316384449516 61.206221603419465 L 290.4043153593552 61.306986579507736 L 290.51268850668714 61.40789025484986 L 290.72517397005197 61.50893301180082 L 290.759661570539 61.610115234299144 L 290.77871837579426 61.71143730787509 L 290.89537800843806 61.81289961965996 L 290.9055219958312 61.914502558394474 L 291.102122474035 62.01624651443831 L 291.11622300932714 62.118131879778616 L 291.1248965654655 62.220159048039136 L 291.22165387755626 62.32232841448962 L 291.2517962514447 62.42464037605464 L 291.44561342641776 62.52709533132321 L 291.44813686846203 62.62969368055769 L 291.5542725020479 62.73243582570365 L 291.56193716990407 62.835322170398854 L 291.6039679217368 62.938353119983105 L 291.71752225627915 63.04152908150763 L 292.076431947813 63.14485046374483 L 292.5484030961502 63.24831767719803 L 292.55851484201577 63.35193113411117 L 292.78177693588026 63.455691248478615 L 292.8973228609773 63.55959843605524 L 292.96811504877246 63.663653114366355 L 292.9875055058154 63.76785570271778 L 293.02232024620986 63.872206622205795 L 293.09130866120245 63.97670629572781 L 293.1787836125385 64.0813551479921 L 293.40415269022947 64.1861536055286 L 293.54192266822474 64.29110209669898 L 293.56155596488236 64.39620105170764 L 293.61950795332285 64.50145090261151 L 293.8304850913263 64.60685208333155 L 293.92732177185337 64.71240502966299 L 293.93604204430494 64.81811017928618 L 294.26436694559675 64.92396797177787 L 294.3669194807915 65.02997884862145 L 294.3740763092078 65.13614325321856 L 294.5897980467307 65.24246163090032 L 294.6115498818945 65.34893442893792 L 294.62179291361934 65.4555620965545 L 294.7008966470128 65.56234508493628 L 294.7051072226618 65.66928384724406 L 294.89037541366594 65.77637883862451 L 294.9382478035467 65.8836305162223 L 294.9583519661089 65.99103933919162 L 295.01796550748304 66.09860576870733 L 295.0719839075913 66.20633026797799 L 295.31530838946145 66.31421330225686 L 295.37287743749414 66.4222553388546 L 295.5608252251467 66.53045684715096 L 295.5832046711293 66.63881829860713 L 295.7152062781996 66.74734016677843 L 295.7414494920338 66.85602292732614 L 295.96307240734495 66.96486705803039 L 296.0380442821918 67.07387303880279 L 296.1086757286928 67.1830413516987 L 296.6947853318159 67.2923724809308 L 297.110904318469 67.40186691288113 L 297.3674169484018 67.51152513611459 L 297.39243328160995 67.62134764139171 L 297.79954748201925 67.73133492168233 L 297.81978760708876 67.8414874721783 L 297.9002618805384 67.95180579030716 L 297.92478727807173 68.06229037574542 L 297.9646743411979 68.17294173043263 L 298.0056468844306 68.28376035858435 L 298.0571506345555 68.39474676670648 L 298.14722580733735 68.50590146360895 L 298.28938478412135 68.61722496041966 L 298.3378116375443 68.72871777059879 L 298.46742018245277 68.84038040995267 L 298.4691554786601 68.95221339664846 L 298.64206354136945 69.0642172512284 L 298.77409514820295 69.17639249662443 L 298.9396355196682 69.28873965817252 L 299.23617107000234 69.40125926362799 L 299.2727392609613 69.51395184317983 L 299.3104867352418 69.62681792946626 L 299.32891771646825 69.73985805758912 L 299.450319505271 69.85307276512981 L 299.74155163484915 69.96646259216413 L 299.8881600299569 70.19376977758304 L 299.9147130476798 70.30768822873188 L 299.9699176360456 70.42178398493462 L 300.0294377625002 70.53605759897425 L 300.04172845501347 70.65050962622303 L 300.194400261143 70.76514062465839 L 300.21454487926803 70.87995115487962 L 300.2200291802752 70.99494178012401 L 300.2535243626812 71.11011306628359 L 300.2619452444562 71.22546558192175 L 300.42239504272567 71.34099989829025 L 300.62759359067536 71.45671658934583 L 300.65665997545307 71.57261623176782 L 300.68889780583606 71.6886994049749 L 300.6986138583728 71.80496669114285 L 300.7275376953791 71.92141867522201 L 300.74411594335527 72.03805594495446 L 300.7820119232788 72.15487909089268 L 300.8935142908131 72.27188870641663 L 300.90835799932086 72.38908538775257 L 301.2169495974083 72.62404234710345 L 301.4247523144767 72.74180383196517 L 301.4986077896798 72.85975479636937 L 301.58043960862585 72.97789585104829 L 301.58920836344043 73.09622760969148 L 301.67071818892305 73.21475068896552 L 301.9772925044026 73.3334657085328 L 302.0039939565137 73.45237329107096 L 302.16114335951966 73.5714740622928 L 302.16430106484336 73.69076865096582 L 302.37016539332535 73.81025768893215 L 302.4865723084753 73.92994181112874 L 302.5928062804459 74.04982165560739 L 302.64930184010336 74.16989786355538 L 302.87956681499907 74.290171079316 L 302.90849378553844 74.41064195040917 L 302.92314555706986 74.53131112755244 L 303.03822410753156 74.65217926468222 L 303.10786154192226 74.7732470189747 L 303.1610448313005 74.89451505086748 L 303.2112237538956 75.01598402408166 L 303.42969493027914 75.13765460564247 L 303.44557915274186 75.25952746590252 L 303.45704774029565 75.38160327856315 L 303.4866137788738 75.50388272069705 L 303.53299305696925 75.62636647277077 L 303.65267454196976 75.74905521866742 L 303.82730337099053 75.87194964570955 L 303.92371752311897 75.99505044468259 L 304.05061438395467 76.11835830985729 L 304.1057613371507 76.24187393901428 L 304.2400261968371 76.36559803346705 L 304.2929904276607 76.48953129808609 L 304.3332658237419 76.61367444132287 L 304.3390446042505 76.73802817523438 L 304.3400450024035 76.86259321550733 L 304.3603117819635 76.9873702814831 L 304.49351179446614 77.11236009618233 L 304.5002551130374 77.23756338633063 L 304.5649450711414 77.3629808823834 L 304.7400103037856 77.48861331855181 L 304.9502867651464 77.61446143282797 L 304.98450117801076 77.74052596701165 L 305.02820957363406 77.86680766673629 L 305.0429984383867 77.99330728149516 L 305.189410407682 78.12002556466842 L 305.35405638198756 78.24696327354974 L 305.4022264751237 78.37412116937378 L 305.44620785236566 78.5015000173434 L 305.4655574633489 78.62910058665727 L 305.70500630640754 78.7569236505376 L 305.74795768244576 78.88496998625862 L 305.8361744074964 79.01324037517486 L 305.8385147250958 79.1417356027494 L 305.8806164432806 79.27045645858288 L 305.98126880904806 79.39940373644316 L 305.9935927529742 79.52857823429372 L 306.15677186090363 79.65798075432406 L 306.2710255942211 79.7876121029795 L 306.35130610636185 79.91747309099077 L 306.41265475334785 80.04756453340497 L 306.4301842646839 80.17788724961645 L 306.56431333863856 80.30844206339691 L 306.612159772382 80.43922980292763 L 306.910192041197 80.5702513008302 L 306.93520428188015 80.70150739419898 L 306.9996610459532 80.8329989246327 L 307.0733300369082 80.96472673826696 L 307.07367087295785 81.09669168580717 L 307.2378529269612 81.22889462256103 L 307.25067429592866 81.36133640847231 L 307.2959068509556 81.49401790815409 L 307.3376011982406 81.6269399909225 L 307.4200471584877 81.76010353083132 L 307.49280729990096 81.89350940670624 L 307.52148993946923 82.02715850217953 L 307.7573273224705 82.16105170572524 L 307.78424378278936 82.29518991069506 L 307.83330574584943 82.42957401535324 L 307.8843989019945 82.5642049229134 L 307.9965548060114 82.69908354157474 L 308.0908373902155 82.83421078455848 L 308.3439189208324 82.96958757014573 L 308.4306798521525 83.10521482171396 L 308.5756878143658 83.2410934677755 L 308.5971673872986 83.37722444201546 L 308.6319287993989 83.51360868333023 L 309.11192549454665 83.65024713586632 L 309.1251455202113 83.78714074905946 L 309.2827692510428 83.9242904776745 L 309.3844677431532 84.061697281845 L 309.49906151494594 84.19936212711372 L 309.50693797633323 84.33728598447368 L 309.606770258776 84.47546983040843 L 309.6650122092718 84.61391464693429 L 309.79215956512235 84.75262142164195 L 310.0112589933654 84.89159114773861 L 310.025247475518 85.03082482409093 L 310.07500435371776 85.17032345526775 L 310.0942730692502 85.31008805158399 L 310.15806266482264 85.45011962914418 L 310.4303185463355 85.5904192098871 L 310.4386019098005 85.73098782163026 L 310.6405361848862 85.87182649811535 L 310.8262851257493 86.01293627905346 L 310.93606743867394 86.15431821017165 L 311.029047386799 86.29597334325888 L 311.2921049937085 86.43790273621352 L 311.3790402898212 86.58010745309036 L 311.5075070080328 86.72258856414862 L 311.51136498357664 86.8653471459001 L 311.52254017074415 87.0083842811585 L 311.6252246078714 87.151701059088 L 311.95582558022375 87.29529857525358 L 311.9710194315764 87.43917793167088 L 312.0900924692115 87.58334023685723 L 312.1639804650698 87.72778660588278 L 312.2239047118974 87.8725181604222 L 312.45113598393584 88.16284134607832 L 312.4689162517732 88.30843525404026 L 312.7930701650522 88.45431890131357 L 312.8023982153096 88.60049344339018 L 312.8401318344637 88.74696004268799 L 312.87268528555023 88.89371986860652 L 313.0403422201573 89.0407740975827 L 313.235974603411 89.18812391314765 L 313.37557788048963 89.3357705059837 L 313.4630298810066 89.48371507398207 L 313.47955921739697 89.6319588223015 L 313.7537782356637 89.78050296342667 L 314.0763610380325 89.92934871722821 L 314.1904346213126 90.07849731102249 L 314.2308465303052 90.22794997963211 L 314.456498510924 90.37770796544811 L 314.45965986605995 90.5277725184909 L 314.49017253509305 90.6781448964735 L 314.4972796003923 90.82882636486471 L 314.526866726781 90.97981819695275 L 314.71764436570527 91.13112167391017 L 314.725769125232 91.28273808485869 L 314.805188630116 91.43466872693534 L 314.9090121307454 91.58691490535932 L 315.00485872867546 91.73947793349862 L 315.2479307891499 91.89235913293845 L 315.26373112569695 92.04555983354993 L 315.42900670705484 92.19908137355924 L 315.66509883961237 92.50709236687413 L 315.68637206332227 92.66158453904342 L 315.7225757971321 92.81640298848168 L 316.03072508315313 92.97154909625834 L 316.19507025807826 93.12702425223006 L 316.2810043764566 93.28282985511555 L 316.3164133767093 93.43896731257087 L 316.648831369235 93.59543804126605 L 316.70710982097887 93.75224346696211 L 316.8225388402178 93.90938502458886 L 316.89281037864936 94.06686415832382 L 317.0622515936785 94.22468232167176 L 317.07650550341316 94.38284097754541 L 317.1548007649558 94.54134159834655 L 317.18854533779904 94.70018566604841 L 317.1973730839925 94.85937467227893 L 317.39287115303773 95.01891011840439 L 317.4482398236449 95.17879351561481 L 317.5343410750781 95.33902638500973 L 317.5432374040379 95.49961025768482 L 317.769501533455 95.6605466748199 L 317.97312390854773 95.82183718776758 L 318.0337822407895 95.98348335814319 L 318.1244740452772 96.14548675791491 L 318.95984482909023 96.30784896949649 L 318.9933013108806 96.4705715858388 L 319.1102543240274 96.63365621052469 L 319.2087104487771 96.79710445786304 L 319.3051877423346 96.96091795298526 L 319.40294499336494 97.12509833194139 L 319.4219352623262 97.28964724179929 L 319.42473823845523 97.45456634074259 L 319.6203877355857 97.61985729817195 L 319.64359156918664 97.78552179480573 L 319.6464642944278 97.95156152278292 L 319.75864909317295 98.11797818576684 L 319.8976012623664 98.2847734990496 L 319.92802930356385 98.45194918965905 L 319.9414917510967 98.61950699646508 L 319.95531605882263 98.78744867028877 L 320.0631049484566 98.95577597401183 L 320.1352216493457 99.12449068268825 L 320.3055031916165 99.29359458365559 L 320.3179007345873 99.46308947664937 L 320.36362621012904 99.63297717391794 L 320.45011296276806 99.80325950033836 L 320.8318627252556 99.97393829353427 L 320.8487267683478 100.14501540399493 L 320.8653572568278 100.3164926951955 L 320.99551366758305 100.4883720437187 L 321.32124604727153 100.66065533937842 L 321.56837676431616 100.83334448534384 L 321.8012218465127 101.0064413982663 L 321.8278176188282 101.17994800840614 L 321.8703817675888 101.35386625976236 L 321.97499769024876 101.52819811020316 L 322.2485893168159 101.7029455315984 L 322.27576211629616 101.87811050995293 L 322.352800200568 102.05369504554261 L 322.76729142917435 102.22970115305077 L 322.8825735860182 102.40613086170754 L 322.9655799972327 102.58298621542963 L 323.13120924017124 102.76026927296294 L 323.193876110917 102.93798210802578 L 323.48630664478856 103.11612680945512 L 323.64703217464864 103.2947054813531 L 323.6594318848432 103.47372024323681 L 323.6671467024969 103.65317323018905 L 323.7959167384565 103.83306659301087 L 323.8075347586591 104.01340249837631 L 323.9717644714136 104.19418312898955 L 324.0022807355963 104.37541068374253 L 324.01071661016476 104.55708737787603 L 324.03878543943085 104.73921544314186 L 324.49779177152755 104.9217971279678 L 324.65694336414236 105.10483469762346 L 324.693808589696 105.28833043438942 L 324.784716550802 105.47228663772773 L 324.97638398957565 105.65670562445513 L 325.0828487356094 105.8415897289176 L 325.2891237189166 106.0269413031682 L 325.6655422534884 106.2127627171464 L 325.8656677825297 106.39905635885953 L 325.9533435840814 106.58582463456764 L 326.00749295434446 106.77306996896937 L 326.2712227439528 106.96079480539089 L 326.28452526500143 107.1490016059779 L 326.2847580292196 107.52687104348911 L 326.43880695742075 107.71653870055542 L 326.4711700061203 107.90669836247133 L 326.53126307970075 108.09735258843409 L 326.6287067577997 108.2885039576608 L 326.8936559641685 108.48015506959786 L 327.0717967232121 108.67230854413287 L 327.24711784728436 108.86496702180972 L 327.37024389502994 109.0581331640459 L 327.3934258548626 109.25180965335397 L 327.47820691183017 109.44599919356403 L 327.48812823061803 109.64070451005097 L 327.4896984230046 109.83592834996358 L 327.54771324114233 110.03167348245722 L 327.59440996653507 110.22794269892955 L 327.7596597446045 110.4247388132593 L 328.0895826007384 110.62206466204844 L 328.1891462402102 110.81992310486748 L 328.2451638224144 111.01831702450386 L 328.3292685732102 111.21724932721435 L 328.4483739724436 111.41672294298036 L 328.4752283616173 111.61674082576656 L 328.9837181930204 111.81730595378389 L 329.15638128095304 112.01842132975537 L 329.22063358336436 112.22008998118571 L 329.4233706949156 112.42231496063499 L 329.62384446992155 112.6250993459958 L 329.6714327721422 112.82844624077421 L 330.01596035026523 113.03235877437504 L 330.01935223464113 113.23684010239054 L 330.08120662968753 113.44189340689366 L 330.1435004519899 113.6475218967347 L 330.20704670402904 113.85372880784348 L 330.35394668618187 114.06051740353399 L 330.361356434399 114.47585284070226 L 330.6231766354309 114.68440634854176 L 330.66515519389094 114.89355487432806 L 330.8009900150903 115.10330182303494 L 330.8555047599653 115.31365062894736 L 331.0361066648011 115.5246047559989 L 331.0454526938179 115.73616769811377 L 331.2280802402106 115.94834297955452 L 331.2344883222889 116.16113415527383 L 331.2775681992132 116.37454481127224 L 331.2960837806922 116.58857856496041 L 331.5276588651541 116.80323906552752 L 331.5831979897895 117.0185299943139 L 331.64605918187044 117.23445506519056 L 331.6752606296112 117.4510180249431 L 331.6902093739002 117.6682226536621 L 331.693331418665 117.88607276513864 L 331.72770840021514 118.10457220726676 L 331.748262343595 118.32372486245043 L 331.84558599157737 118.54353464801824 L 331.8781499193226 118.76400551664301 L 331.9329828218754 118.98514145676853 L 331.9450284474382 119.20694649304238 L 331.9542424886436 119.42942468675557 L 331.9703611541835 119.65258013628858 L 332.06884575522236 119.87641697756436 L 332.0801711087267 120.10093938450842 L 332.41998246782197 120.32615156951573 L 332.4706236633228 120.55205778392497 L 332.63933698562505 120.77866231850004 L 332.69490258622545 121.00596950391895 L 332.78842091967624 121.23398371127053 L 333.0351639916797 121.46270935255887 L 333.0515057221345 121.69215088121553 L 333.1403100303234 121.9223127926195 L 333.1778856699515 122.15319962462615 L 333.27564853857416 122.38481595810373 L 333.3916587814208 122.61716641747881 L 333.3967494373219 122.85025567129037 L 333.4337983452377 123.0840884327526 L 333.4653850295156 123.31866946032648 L 333.4792301335773 123.55400355830108 L 333.57744175473897 123.79009557738408 L 333.73051219418016 124.02695041530143 L 333.7519494483763 124.26457301740686 L 333.7771892245215 124.50296837730173 L 334.1355890746812 124.74214153746459 L 334.20504493160274 124.98209758989134 L 334.33602140215316 125.22284167674508 L 334.4157157173111 125.46437899101812 L 334.43724977923904 125.70671477720344 L 334.45080985817225 125.94985433197837 L 334.473166398637 126.19380300489905 L 334.49751607788676 126.43856619910667 L 334.5017810071985 126.68414937204545 L 334.57184968420654 126.93055803619319 L 334.62047675284464 127.17779775980296 L 334.663389485412 127.42587416765878 L 334.8282754886277 127.67479294184324 L 334.89892342560756 127.92455982251823 L 335.3171621477322 128.17518060871936 L 335.4192897033915 128.4266611591638 L 335.4398512655224 128.6790073930722 L 335.563308769443 128.93222529100422 L 335.9851345954098 129.44130031299312 L 336.01384292078734 129.6971697125946 L 336.1938075475633 129.95393532908525 L 336.5880831283538 130.211603462779 L 336.69129048988884 130.47018048065996 L 336.7460234931823 130.72967281732656 L 336.7677634620567 130.9900869759523 L 336.9241845662741 131.25142952926348 L 337.1514955293534 131.5137071205349 L 337.524066848938 131.77692646460292 L 337.9102422592153 132.04109434889693 L 338.0932949120289 132.30621763448994 L 338.48382252769926 132.57230325716722 L 338.51909827312835 132.83935822851544 L 338.6487571993207 133.1073896370309 L 338.8057103837731 133.37640464924937 L 338.8751626623613 133.64641051089444 L 338.89188357225476 133.91741454804986 L 339.0410125082916 134.18942416835137 L 339.11441071646675 134.46244686220217 L 339.4798576852925 134.73649020401035 L 339.52578518568066 135.01156185344968 L 339.91309161095324 135.28766955674433 L 340.2594849448294 135.56482114797785 L 340.4097229833758 135.84302455042678 L 340.4532138310193 136.12228777791984 L 340.61240242950703 136.40261893622295 L 340.78920699356064 136.6840262244512 L 340.8599751773243 136.9665179365075 L 340.9458962822576 137.25010246254948 L 341.0654148399734 137.53478829048447 L 341.194697358688 137.8205840074944 L 341.21996841976795 138.1074983015895 L 341.4499570423492 138.39553996319313 L 341.46041987742444 138.6847178867581 L 341.648175533558 138.97504107241434 L 342.11428232244657 139.26651862764948 L 342.28677258655125 139.55915976902395 L 342.3094900218277 139.85297382391866 L 342.3619769092267 140.1479702323196 L 342.4057706973557 140.44415854863746 L 342.41028391820953 140.74154844356417 L 342.53839272064715 141.04014970596808 L 342.6627768583183 141.3399722448268 L 342.69264541803625 141.64102609120062 L 343.0709372275652 141.94332140024608 L 343.2778641514068 142.2468684532713 L 343.71840234659703 142.55167765983452 L 343.7619812491805 142.85775955988578 L 343.9124121356151 143.16512482595397 L 343.98138363536157 143.47378426537927 L 343.9955236460628 143.78374882259425 L 344.3730564611544 144.0950295814514 L 344.4310113416003 144.40763776760195 L 344.5445753321162 144.72158475092482 L 344.6887779248525 145.03688204800767 L 345.185836311542 145.35354132468245 L 345.40948179575764 145.67157439861472 L 345.84086422886776 145.99099324195078 L 345.9837731271498 146.3118099840206 L 346.0420605552649 146.6340369141035 L 346.10508138050466 146.95768648425081 L 346.19558817986206 147.28277131217465 L 346.2380406024091 147.609304184199 L 346.6482897866888 147.9372980582774 L 346.885726215002 148.26676606707855 L 347.20142277441585 148.59772152114164 L 347.32589099348155 148.9301779121027 L 347.377126768014 149.26414891599495 L 347.4781897201773 149.59964839662462 L 347.5267275566621 149.93669040902415 L 347.56095429715924 150.27528920298533 L 347.84416250835363 150.61545922667426 L 347.90404056879083 150.95721513033084 L 347.9445682975446 151.30057177005466 L 348.2059813413754 151.6455442116798 L 348.3667618586808 151.99214773474205 L 348.7930868070504 152.34039783653913 L 348.8896704364427 152.6903102362889 L 349.22257420141653 153.04190087938673 L 349.4526253794278 153.3951859417656 L 349.59591493362257 154.10690520768895 L 349.91354355095746 154.4653729565249 L 350.0828646257381 154.82560222471227 L 350.1049743982297 155.18761041007843 L 350.2324887596518 155.55141516947782 L 350.2766127041483 155.91703442395936 L 350.4076795580719 156.28448636406358 L 350.7591979795875 156.65378945525345 L 350.8220671565654 157.02496244348225 L 350.90423079458355 157.39802436090343 L 350.9489142295651 157.77299453172685 L 351.0158685172746 158.14989257822413 L 351.2411127788221 158.52873842689132 L 351.34233268019 158.90955231477 L 351.37188528460837 159.29235479593376 L 351.59403259380497 159.6771667481455 L 351.80673498351587 160.06400937968988 L 351.9102115391189 160.45290423638698 L 351.9161272737384 160.84387320879313 L 352.1052605443863 161.2369385395952 L 352.12472877082854 161.6321228312034 L 352.3117287413088 162.02944905355025 L 352.6091783195626 162.4289405521024 L 353.0017696763273 162.83062105609122 L 353.14755484437467 163.23451468697095 L 353.14990816580814 163.64064596711006 L 353.2119429946514 164.04903982872645 L 353.2997802157254 164.45972162307066 L 353.35945722952437 164.8727171298699 L 353.45832950947437 165.28805256703816 L 353.72893441605663 165.70575460066397 L 354.1131204131976 166.1258503552832 L 354.58113335067236 166.54836742444968 L 354.80748187848485 166.97333388160973 L 354.95733032659246 167.40077829129632 L 355.0094677860724 167.83072972064969 L 355.05867941131964 168.263217751279 L 355.0989790380297 168.69827249147454 L 355.1034974988139 169.1359245887864 L 355.19026368498714 169.57620524297886 L 355.66402685396804 170.01914621937834 L 355.86664663403064 170.46477986262448 L 355.8866162840234 170.91313911084433 L 356.05027490828957 171.36425751026093 L 356.29991479345836 171.8181692302548 L 356.3057026685281 172.27490907889484 L 356.72191490955834 172.7345125189554 L 356.76756578110894 173.19701568443958 L 357.0383667744983 173.66245539762633 L 357.2883732962704 174.13086918666227 L 357.8842482875993 174.60229530372004 L 357.91807686415154 175.0767727437427 L 358.3345762352169 175.55434126380055 L 358.6723343675935 176.0350414030811 L 359.07699956263343 176.51891450353935 L 359.8391509384403 177.00600273123496 L 360.030391712128 177.49634909838147 L 360.16388425025104 177.98999748613886 L 360.23280035734183 178.48699266817914 L 360.3824857923551 178.98738033505526 L 360.5893409895958 179.4912071194081 L 360.67810578382955 179.99852062204565 L 361.23546403570185 180.50936943893043 L 361.2663081399454 181.02380318911497 L 361.72151655621644 181.54187254366246 L 361.8084014057843 182.06362925559944 L 362.741627497233 182.58912619093883 L 362.7910792455997 183.1184173608259 L 363.24813750643204 183.65155795485128 L 364.0280973835588 184.18860437558527 L 364.2084048973149 184.72961427438577 L 364.44799014003706 185.27464658853813 L 364.68045910372643 185.82376157978553 L 364.84715005735245 186.37702087431376 L 365.4548635673214 186.93448750425574 L 366.94218071747446 187.4962259507871 L 367.19020784878785 188.06230218888527 L 367.945949728182 188.6327837338302 L 369.36091625216125 189.2077396895291 L 369.3951049719078 189.7872407987502 L 369.5805538587492 190.3713594953598 L 369.59909778138393 190.96016995865546 L 369.9994169952054 191.55374816990002 L 370.4339046134925 192.15217197116266 L 370.7971705862306 192.75552112658187 L 371.66815180787 193.36387738617054 L 371.7865828797028 193.97732455228982 L 372.1456871370398 194.5959485489302 L 372.9868070125536 195.21983749393797 L 373.4598058899513 195.8490817743437 L 374.1379942269557 196.48377412495074 L 374.33930179064635 197.12400971035663 L 374.37132556952207 197.76988621058678 L 374.49728068483586 198.42150391053485 L 374.9366520703799 199.7423776384386 L 375.04901666991697 200.41184812296052 L 375.4047423990228 201.08748892932118 L 377.6477453460635 201.76941485666674 L 377.80616035699757 202.4577439380157 L 378.2237549883785 203.15259756287497 L 378.29760291058886 203.85410060572258 L 378.413854477734 204.5623815606976 L 378.48709463386257 205.2775726828608 L 378.8755174354637 205.99981013641428 L 378.9497259767453 206.72923415029516 L 379.1293329931623 207.46598918158935 L 379.49132915765824 208.2102240872394 L 379.50159066804054 208.96209230456003 L 379.7557327710011 209.7217520411059 L 380.0636829704477 210.48936647448141 L 381.0604436047993 211.26510396272278 L 381.7968802792486 212.0491382659311 L 381.8523351863497 212.8416487798861 L 382.90963736297084 213.64282078242718 L 383.0359149533438 214.45284569344602 L 384.29497787076934 215.27192134940657 L 384.3601236262931 216.100252293374 L 384.94328833693237 216.93805008161917 L 385.37875245288996 217.78553360794558 L 386.3961969958869 218.6429294469857 L 386.9483252644696 219.5104722178105 L 387.29979752622074 220.38840496931488 L 387.9034135825805 221.2769795889604 L 389.38981761604924 222.17645723659683 L 389.62132725315155 223.08710880523074 L 390.6542849807447 224.00921541077548 L 391.6021758659433 224.94306891299829 L 392.929660733251 225.88897247007867 L 393.5503571410349 226.8472411294169 L 393.6320290533774 227.81820245757086 L 393.68788064941555 228.80219721247477 L 395.04199937616823 229.7995800613911 L 395.96990004560786 230.81072034838155 L 396.16571875878867 231.83600291545082 L 396.3060457028731 232.87582898193534 L 396.5817965783171 233.9306170871618 L 396.79767214649377 235.00080410192118 L 397.09572498651727 236.08684631487404 L 397.34477664275914 237.18922060064972 L 399.6356563193094 238.308425677123 L 399.6483687201395 239.44498346016616 L 400.1734734491207 240.59944052508598 L 400.2551273145647 241.77236968499136 L 400.2681718933314 242.96437169749856 L 401.70117902827366 244.17607711250628 L 401.791973925514 245.408148275266 L 401.9377655068183 246.66128150067942 L 402.54453153487896 247.93620943669242 L 403.9000577687155 249.2337036368707 L 404.57847550187864 250.5545773647744 L 406.61575989176526 251.8996886556571 L 407.7903072766746 253.2699436643515 L 407.99903451290214 254.66630033205837 L 408.5855239929278 256.0897724091968 L 409.8106150742002 259.0224238135754 L 410.21083633400616 260.5339517674419 L 410.5463074939295 262.0773036890588 L 411.1332270316258 263.6538485062222 L 411.26528642983885 265.265045419782 L 411.7563355145416 266.9124520197101 L 411.95989479445717 268.59773333428154 L 413.59447520735046 270.32267194414635 L 415.0631782411642 272.08917931529624 L 415.31316892939725 273.89930853156665 L 416.19696672449226 275.75526863933413 L 416.69222604138 277.6594408557528 L 416.77294943812785 279.6143969388106 L 417.54844234539803 281.62292007471746 L 417.9283161075073 283.6880287082712 L 418.33832956094466 285.813003828257 L 418.57753289429724 288.0014203269855 L 420.50113314159745 290.25718318650206 L 422.3436842956106 292.58456941132727 L 424.68445340078813 294.9882768388422 L 424.80495546995854 297.4734812270153 L 425.369715610821 300.0459033632066 L 427.2213992006277 302.71188838199294 L 427.27487495989584 305.47850005839433 L 430.1011966268769 308.35363360296697 L 432.0874556712104 311.3461514937776 L 432.80967927939986 314.4660482325578 L 434.392537263079 317.7246517460457 L 438.9484723151514 321.1348716704821 L 439.59253693374154 324.7115082579023 L 440.75948232113683 328.4716405820885 L 441.1571262401392 332.435119801053 L 441.5749890018975 336.62520355459316 L 443.4796677720662 341.06938291283825 L 444.6070502976925 345.8004765651784 L 444.733825703182 350.85810308954285 L 448.7183866673189 356.2906997847306 L 448.81530293537867 362.1583512201139 L 450.2727647314178 368.53685147238195 L 450.7653776703328 375.52370798423874 L 456.266219537179 383.24731952738944 L 457.62610037678974 391.8815826391742 L 459.3228899335738 401.6703028158787 L 462.5609583061503 426.3359077105746 L 463.25698951338194 442.69378236551006 L 466.7245777589114 463.7827506727857 L 469.3015498585158 493.5059820918459 L 474.6394438302913 544.3181818181819" stroke-linejoin="bevel" stroke-miterlimit="10"/><path fill="none" stroke="none"/><path fill="none" stroke="red" paint-order="fill stroke markers" d=" M 549.2272727272725 NaN" stroke-linejoin="bevel" stroke-miterlimit="10"/></g></g></g><g clip-path="url(#LNMDKXOUEALH)"><g><g/><g><path fill="#ffffff" stroke="#e5e5e5" paint-order="fill stroke markers" d=" M 123 475 L 255 475 L 255 560 L 123 560 L 123 475 Z" fill-opacity="0.95" stroke-linejoin="bevel" stroke-miterlimit="10" stroke-opacity="0.5"/><text fill="#444444" stroke="none" font-family="helvetica" font-size="22pt" font-style="normal" font-weight="normal" text-decoration="normal" x="158" y="500.5" text-anchor="start" dominant-baseline="central">male</text><g><path fill="none" stroke="blue" paint-order="fill stroke markers" d=" M 133 495 L 153 495" stroke-linejoin="bevel" stroke-miterlimit="10"/></g><text fill="#444444" stroke="none" font-family="helvetica" font-size="22pt" font-style="normal" font-weight="normal" text-decoration="normal" x="158" y="534.5" text-anchor="start" dominant-baseline="central">female</text><g><path fill="none" stroke="red" paint-order="fill stroke markers" d=" M 133 529 L 153 529" stroke-linejoin="bevel" stroke-miterlimit="10"/></g></g></g></g><g/><g/><g><g fill="#444444"><path fill="none" stroke="black" paint-order="fill stroke markers" d=" M 113 570 L 570 570" stroke-linejoin="bevel" stroke-miterlimit="10"/><path fill="none" stroke="black" paint-order="fill stroke markers" d=" M 115 576 L 115 568" stroke-linejoin="bevel" stroke-miterlimit="10"/><path fill="none" stroke="black" paint-order="fill stroke markers" d=" M 321 576 L 321 568" stroke-linejoin="bevel" stroke-miterlimit="10"/><path fill="none" stroke="black" paint-order="fill stroke markers" d=" M 508 576 L 508 568" stroke-linejoin="bevel" stroke-miterlimit="10"/><path fill="none" stroke="black" paint-order="fill stroke markers" d=" M 115 574 L 115 570" stroke-linejoin="bevel" stroke-miterlimit="10"/><path fill="none" stroke="black" paint-order="fill stroke markers" d=" M 136 574 L 136 570" stroke-linejoin="bevel" stroke-miterlimit="10"/><path fill="none" stroke="black" paint-order="fill stroke markers" d=" M 158 574 L 158 570" stroke-linejoin="bevel" stroke-miterlimit="10"/><path fill="none" stroke="black" paint-order="fill stroke markers" d=" M 179 574 L 179 570" stroke-linejoin="bevel" stroke-miterlimit="10"/><path fill="none" stroke="black" paint-order="fill stroke markers" d=" M 200 574 L 200 570" stroke-linejoin="bevel" stroke-miterlimit="10"/><path fill="none" stroke="black" paint-order="fill stroke markers" d=" M 220 574 L 220 570" stroke-linejoin="bevel" stroke-miterlimit="10"/><path fill="none" stroke="black" paint-order="fill stroke markers" d=" M 241 574 L 241 570" stroke-linejoin="bevel" stroke-miterlimit="10"/><path fill="none" stroke="black" paint-order="fill stroke markers" d=" M 261 574 L 261 570" stroke-linejoin="bevel" stroke-miterlimit="10"/><path fill="none" stroke="black" paint-order="fill stroke markers" d=" M 281 574 L 281 570" stroke-linejoin="bevel" stroke-miterlimit="10"/><path fill="none" stroke="black" paint-order="fill stroke markers" d=" M 301 574 L 301 570" stroke-linejoin="bevel" stroke-miterlimit="10"/><path fill="none" stroke="black" paint-order="fill stroke markers" d=" M 321 574 L 321 570" stroke-linejoin="bevel" stroke-miterlimit="10"/><path fill="none" stroke="black" paint-order="fill stroke markers" d=" M 340 574 L 340 570" stroke-linejoin="bevel" stroke-miterlimit="10"/><path fill="none" stroke="black" paint-order="fill stroke markers" d=" M 360 574 L 360 570" stroke-linejoin="bevel" stroke-miterlimit="10"/><path fill="none" stroke="black" paint-order="fill stroke markers" d=" M 379 574 L 379 570" stroke-linejoin="bevel" stroke-miterlimit="10"/><path fill="none" stroke="black" paint-order="fill stroke markers" d=" M 398 574 L 398 570" stroke-linejoin="bevel" stroke-miterlimit="10"/><path fill="none" stroke="black" paint-order="fill stroke markers" d=" M 416 574 L 416 570" stroke-linejoin="bevel" stroke-miterlimit="10"/><path fill="none" stroke="black" paint-order="fill stroke markers" d=" M 435 574 L 435 570" stroke-linejoin="bevel" stroke-miterlimit="10"/><path fill="none" stroke="black" paint-order="fill stroke markers" d=" M 453 574 L 453 570" stroke-linejoin="bevel" stroke-miterlimit="10"/><path fill="none" stroke="black" paint-order="fill stroke markers" d=" M 472 574 L 472 570" stroke-linejoin="bevel" stroke-miterlimit="10"/><path fill="none" stroke="black" paint-order="fill stroke markers" d=" M 490 574 L 490 570" stroke-linejoin="bevel" stroke-miterlimit="10"/><path fill="none" stroke="black" paint-order="fill stroke markers" d=" M 508 574 L 508 570" stroke-linejoin="bevel" stroke-miterlimit="10"/><path fill="none" stroke="black" paint-order="fill stroke markers" d=" M 525 574 L 525 570" stroke-linejoin="bevel" stroke-miterlimit="10"/><path fill="none" stroke="black" paint-order="fill stroke markers" d=" M 543 574 L 543 570" stroke-linejoin="bevel" stroke-miterlimit="10"/><path fill="" stroke="black" paint-order="fill stroke markers" d=" M 560 574 L 560 570" stroke-linejoin="bevel" stroke-miterlimit="10"/><g transform="translate(115,581) rotate(0,0,0)"><text fill="" stroke="none" font-family="helvetica" font-size="26px" font-style="normal" font-weight="normal" text-decoration="normal" x="0" y="0" text-anchor="middle" dominant-baseline="hanging">0.45</text><g transform="rotate(0,0,0) translate(-115,-581) translate(321,581) rotate(0,0,0)"><text fill="" stroke="none" font-family="helvetica" font-size="26px" font-style="normal" font-weight="normal" text-decoration="normal" x="0" y="0" text-anchor="middle" dominant-baseline="hanging">0.5</text><g transform="rotate(0,0,0) translate(-321,-581) translate(508,581) rotate(0,0,0)"><text fill="" stroke="none" font-family="helvetica" font-size="26px" font-style="normal" font-weight="normal" text-decoration="normal" x="0" y="0" text-anchor="middle" dominant-baseline="hanging">0.55</text><g transform="rotate(0,0,0) translate(-508,-581)"/></g></g></g></g></g><g><g fill="#444444"><path fill="none" stroke="black" paint-order="fill stroke markers" d=" M 113 570 L 113 5" stroke-linejoin="bevel" stroke-miterlimit="10"/><path fill="none" stroke="black" paint-order="fill stroke markers" d=" M 107 537 L 115 537" stroke-linejoin="bevel" stroke-miterlimit="10"/><path fill="none" stroke="black" paint-order="fill stroke markers" d=" M 107 368 L 115 368" stroke-linejoin="bevel" stroke-miterlimit="10"/><path fill="none" stroke="black" paint-order="fill stroke markers" d=" M 107 199 L 115 199" stroke-linejoin="bevel" stroke-miterlimit="10"/><path fill="none" stroke="black" paint-order="fill stroke markers" d=" M 107 31 L 115 31" stroke-linejoin="bevel" stroke-miterlimit="10"/><path fill="none" stroke="black" paint-order="fill stroke markers" d=" M 109 563 L 113 563" stroke-linejoin="bevel" stroke-miterlimit="10"/><path fill="none" stroke="black" paint-order="fill stroke markers" d=" M 109 553 L 113 553" stroke-linejoin="bevel" stroke-miterlimit="10"/><path fill="none" stroke="black" paint-order="fill stroke markers" d=" M 109 545 L 113 545" stroke-linejoin="bevel" stroke-miterlimit="10"/><path fill="none" stroke="black" paint-order="fill stroke markers" d=" M 109 537 L 113 537" stroke-linejoin="bevel" stroke-miterlimit="10"/><path fill="none" stroke="black" paint-order="fill stroke markers" d=" M 109 537 L 113 537" stroke-linejoin="bevel" stroke-miterlimit="10"/><path fill="none" stroke="black" paint-order="fill stroke markers" d=" M 109 486 L 113 486" stroke-linejoin="bevel" stroke-miterlimit="10"/><path fill="none" stroke="black" paint-order="fill stroke markers" d=" M 109 456 L 113 456" stroke-linejoin="bevel" stroke-miterlimit="10"/><path fill="none" stroke="black" paint-order="fill stroke markers" d=" M 109 435 L 113 435" stroke-linejoin="bevel" stroke-miterlimit="10"/><path fill="none" stroke="black" paint-order="fill stroke markers" d=" M 109 419 L 113 419" stroke-linejoin="bevel" stroke-miterlimit="10"/><path fill="none" stroke="black" paint-order="fill stroke markers" d=" M 109 406 L 113 406" stroke-linejoin="bevel" stroke-miterlimit="10"/><path fill="none" stroke="black" paint-order="fill stroke markers" d=" M 109 394 L 113 394" stroke-linejoin="bevel" stroke-miterlimit="10"/><path fill="none" stroke="black" paint-order="fill stroke markers" d=" M 109 385 L 113 385" stroke-linejoin="bevel" stroke-miterlimit="10"/><path fill="none" stroke="black" paint-order="fill stroke markers" d=" M 109 376 L 113 376" stroke-linejoin="bevel" stroke-miterlimit="10"/><path fill="none" stroke="black" paint-order="fill stroke markers" d=" M 109 368 L 113 368" stroke-linejoin="bevel" stroke-miterlimit="10"/><path fill="none" stroke="black" paint-order="fill stroke markers" d=" M 109 368 L 113 368" stroke-linejoin="bevel" stroke-miterlimit="10"/><path fill="none" stroke="black" paint-order="fill stroke markers" d=" M 109 317 L 113 317" stroke-linejoin="bevel" stroke-miterlimit="10"/><path fill="none" stroke="black" paint-order="fill stroke markers" d=" M 109 288 L 113 288" stroke-linejoin="bevel" stroke-miterlimit="10"/><path fill="none" stroke="black" paint-order="fill stroke markers" d=" M 109 267 L 113 267" stroke-linejoin="bevel" stroke-miterlimit="10"/><path fill="none" stroke="black" paint-order="fill stroke markers" d=" M 109 250 L 113 250" stroke-linejoin="bevel" stroke-miterlimit="10"/><path fill="none" stroke="black" paint-order="fill stroke markers" d=" M 109 237 L 113 237" stroke-linejoin="bevel" stroke-miterlimit="10"/><path fill="none" stroke="black" paint-order="fill stroke markers" d=" M 109 226 L 113 226" stroke-linejoin="bevel" stroke-miterlimit="10"/><path fill="none" stroke="black" paint-order="fill stroke markers" d=" M 109 216 L 113 216" stroke-linejoin="bevel" stroke-miterlimit="10"/><path fill="none" stroke="black" paint-order="fill stroke markers" d=" M 109 207 L 113 207" stroke-linejoin="bevel" stroke-miterlimit="10"/><path fill="none" stroke="black" paint-order="fill stroke markers" d=" M 109 199 L 113 199" stroke-linejoin="bevel" stroke-miterlimit="10"/><path fill="none" stroke="black" paint-order="fill stroke markers" d=" M 109 199 L 113 199" stroke-linejoin="bevel" stroke-miterlimit="10"/><path fill="none" stroke="black" paint-order="fill stroke markers" d=" M 109 149 L 113 149" stroke-linejoin="bevel" stroke-miterlimit="10"/><path fill="none" stroke="black" paint-order="fill stroke markers" d=" M 109 119 L 113 119" stroke-linejoin="bevel" stroke-miterlimit="10"/><path fill="none" stroke="black" paint-order="fill stroke markers" d=" M 109 98 L 113 98" stroke-linejoin="bevel" stroke-miterlimit="10"/><path fill="none" stroke="black" paint-order="fill stroke markers" d=" M 109 81 L 113 81" stroke-linejoin="bevel" stroke-miterlimit="10"/><path fill="none" stroke="black" paint-order="fill stroke markers" d=" M 109 68 L 113 68" stroke-linejoin="bevel" stroke-miterlimit="10"/><path fill="none" stroke="black" paint-order="fill stroke markers" d=" M 109 57 L 113 57" stroke-linejoin="bevel" stroke-miterlimit="10"/><path fill="none" stroke="black" paint-order="fill stroke markers" d=" M 109 47 L 113 47" stroke-linejoin="bevel" stroke-miterlimit="10"/><path fill="none" stroke="black" paint-order="fill stroke markers" d=" M 109 38 L 113 38" stroke-linejoin="bevel" stroke-miterlimit="10"/><path fill="none" stroke="black" paint-order="fill stroke markers" d=" M 109 31 L 113 31" stroke-linejoin="bevel" stroke-miterlimit="10"/><path fill="" stroke="black" paint-order="fill stroke markers" d=" M 109 31 L 113 31" stroke-linejoin="bevel" stroke-miterlimit="10"/><g transform="translate(102,537) rotate(0,0,0)"><text fill="" stroke="none" font-family="helvetica" font-size="26px" font-style="normal" font-weight="normal" text-decoration="normal" x="0" y="0" text-anchor="end" dominant-baseline="central">10^-3</text><g transform="rotate(0,0,0) translate(-102,-537) translate(102,368) rotate(0,0,0)"><text fill="" stroke="none" font-family="helvetica" font-size="26px" font-style="normal" font-weight="normal" text-decoration="normal" x="0" y="0" text-anchor="end" dominant-baseline="central">10^-2</text><g transform="rotate(0,0,0) translate(-102,-368) translate(102,199) rotate(0,0,0)"><text fill="" stroke="none" font-family="helvetica" font-size="26px" font-style="normal" font-weight="normal" text-decoration="normal" x="0" y="0" text-anchor="end" dominant-baseline="central">10^-1</text><g transform="rotate(0,0,0) translate(-102,-199) translate(102,31) rotate(0,0,0)"><text fill="" stroke="none" font-family="helvetica" font-size="26px" font-style="normal" font-weight="normal" text-decoration="normal" x="0" y="0" text-anchor="end" dominant-baseline="central">10^0</text><g transform="rotate(0,0,0) translate(-102,-31) translate(26,288) rotate(-90,0,0)"><text fill="" stroke="none" font-family="helvetica" font-size="26pt" font-style="italic" font-weight="normal" text-decoration="normal" x="0" y="0" text-anchor="middle" dominant-baseline="alphabetic">CCDF</text><g transform="rotate(90,0,0) translate(-26,-288)"/></g></g></g></g></g></g></g><g clip-path="url(#xxvARXlnPAPR)"><g/></g><g clip-path="url(#nSpyawBOilOy)"><g/></g></g></g></svg>